%TF.GenerationSoftware,KiCad,Pcbnew,5.1.10*%
%TF.CreationDate,2021-11-19T19:09:23+01:00*%
%TF.ProjectId,SWITCH_INPUT_BOARD,53574954-4348-45f4-994e-5055545f424f,rev?*%
%TF.SameCoordinates,Original*%
%TF.FileFunction,Legend,Bot*%
%TF.FilePolarity,Positive*%
%FSLAX46Y46*%
G04 Gerber Fmt 4.6, Leading zero omitted, Abs format (unit mm)*
G04 Created by KiCad (PCBNEW 5.1.10) date 2021-11-19 19:09:23*
%MOMM*%
%LPD*%
G01*
G04 APERTURE LIST*
%ADD10C,0.150000*%
%ADD11C,0.120000*%
%ADD12C,0.180000*%
%ADD13C,0.125000*%
G04 APERTURE END LIST*
D10*
X93547619Y-123042857D02*
X93547619Y-123614285D01*
X93547619Y-123328571D02*
X94547619Y-123328571D01*
X94404761Y-123423809D01*
X94309523Y-123519047D01*
X94261904Y-123614285D01*
X93547619Y-122090476D02*
X93547619Y-122661904D01*
X93547619Y-122376190D02*
X94547619Y-122376190D01*
X94404761Y-122471428D01*
X94309523Y-122566666D01*
X94261904Y-122661904D01*
X93642857Y-121661904D02*
X93595238Y-121614285D01*
X93547619Y-121661904D01*
X93595238Y-121709523D01*
X93642857Y-121661904D01*
X93547619Y-121661904D01*
X94119047Y-121042857D02*
X94166666Y-121138095D01*
X94214285Y-121185714D01*
X94309523Y-121233333D01*
X94357142Y-121233333D01*
X94452380Y-121185714D01*
X94500000Y-121138095D01*
X94547619Y-121042857D01*
X94547619Y-120852380D01*
X94500000Y-120757142D01*
X94452380Y-120709523D01*
X94357142Y-120661904D01*
X94309523Y-120661904D01*
X94214285Y-120709523D01*
X94166666Y-120757142D01*
X94119047Y-120852380D01*
X94119047Y-121042857D01*
X94071428Y-121138095D01*
X94023809Y-121185714D01*
X93928571Y-121233333D01*
X93738095Y-121233333D01*
X93642857Y-121185714D01*
X93595238Y-121138095D01*
X93547619Y-121042857D01*
X93547619Y-120852380D01*
X93595238Y-120757142D01*
X93642857Y-120709523D01*
X93738095Y-120661904D01*
X93928571Y-120661904D01*
X94023809Y-120709523D01*
X94071428Y-120757142D01*
X94119047Y-120852380D01*
X93547619Y-119471428D02*
X94214285Y-119471428D01*
X94119047Y-119471428D02*
X94166666Y-119423809D01*
X94214285Y-119328571D01*
X94214285Y-119185714D01*
X94166666Y-119090476D01*
X94071428Y-119042857D01*
X93547619Y-119042857D01*
X94071428Y-119042857D02*
X94166666Y-118995238D01*
X94214285Y-118900000D01*
X94214285Y-118757142D01*
X94166666Y-118661904D01*
X94071428Y-118614285D01*
X93547619Y-118614285D01*
X93547619Y-118138095D02*
X94214285Y-118138095D01*
X94119047Y-118138095D02*
X94166666Y-118090476D01*
X94214285Y-117995238D01*
X94214285Y-117852380D01*
X94166666Y-117757142D01*
X94071428Y-117709523D01*
X93547619Y-117709523D01*
X94071428Y-117709523D02*
X94166666Y-117661904D01*
X94214285Y-117566666D01*
X94214285Y-117423809D01*
X94166666Y-117328571D01*
X94071428Y-117280952D01*
X93547619Y-117280952D01*
X94547619Y-116185714D02*
X94547619Y-115614285D01*
X93547619Y-115900000D02*
X94547619Y-115900000D01*
X94547619Y-115090476D02*
X94547619Y-114900000D01*
X94500000Y-114804761D01*
X94404761Y-114709523D01*
X94214285Y-114661904D01*
X93880952Y-114661904D01*
X93690476Y-114709523D01*
X93595238Y-114804761D01*
X93547619Y-114900000D01*
X93547619Y-115090476D01*
X93595238Y-115185714D01*
X93690476Y-115280952D01*
X93880952Y-115328571D01*
X94214285Y-115328571D01*
X94404761Y-115280952D01*
X94500000Y-115185714D01*
X94547619Y-115090476D01*
X94071428Y-113138095D02*
X94071428Y-113471428D01*
X93547619Y-113471428D02*
X94547619Y-113471428D01*
X94547619Y-112995238D01*
X93547619Y-112042857D02*
X94023809Y-112376190D01*
X93547619Y-112614285D02*
X94547619Y-112614285D01*
X94547619Y-112233333D01*
X94500000Y-112138095D01*
X94452380Y-112090476D01*
X94357142Y-112042857D01*
X94214285Y-112042857D01*
X94119047Y-112090476D01*
X94071428Y-112138095D01*
X94023809Y-112233333D01*
X94023809Y-112614285D01*
X94547619Y-111423809D02*
X94547619Y-111233333D01*
X94500000Y-111138095D01*
X94404761Y-111042857D01*
X94214285Y-110995238D01*
X93880952Y-110995238D01*
X93690476Y-111042857D01*
X93595238Y-111138095D01*
X93547619Y-111233333D01*
X93547619Y-111423809D01*
X93595238Y-111519047D01*
X93690476Y-111614285D01*
X93880952Y-111661904D01*
X94214285Y-111661904D01*
X94404761Y-111614285D01*
X94500000Y-111519047D01*
X94547619Y-111423809D01*
X93547619Y-110566666D02*
X94547619Y-110566666D01*
X93547619Y-109995238D01*
X94547619Y-109995238D01*
X94547619Y-109661904D02*
X94547619Y-109090476D01*
X93547619Y-109376190D02*
X94547619Y-109376190D01*
D11*
X102500000Y-120000000D02*
X102500000Y-131800000D01*
X98000000Y-120000000D02*
X103086421Y-120000000D01*
X98000000Y-131800000D02*
X103086421Y-131800000D01*
X102500000Y-131800000D02*
X101913579Y-130673496D01*
X102500000Y-131800000D02*
X103086421Y-130673496D01*
X102500000Y-120000000D02*
X101913579Y-121126504D01*
X102500000Y-120000000D02*
X103086421Y-121126504D01*
D10*
X172317619Y-94452380D02*
X172317619Y-94928571D01*
X171841428Y-94976190D01*
X171889047Y-94928571D01*
X171936666Y-94833333D01*
X171936666Y-94595238D01*
X171889047Y-94500000D01*
X171841428Y-94452380D01*
X171746190Y-94404761D01*
X171508095Y-94404761D01*
X171412857Y-94452380D01*
X171365238Y-94500000D01*
X171317619Y-94595238D01*
X171317619Y-94833333D01*
X171365238Y-94928571D01*
X171412857Y-94976190D01*
X172317619Y-93500000D02*
X172317619Y-93976190D01*
X171841428Y-94023809D01*
X171889047Y-93976190D01*
X171936666Y-93880952D01*
X171936666Y-93642857D01*
X171889047Y-93547619D01*
X171841428Y-93500000D01*
X171746190Y-93452380D01*
X171508095Y-93452380D01*
X171412857Y-93500000D01*
X171365238Y-93547619D01*
X171317619Y-93642857D01*
X171317619Y-93880952D01*
X171365238Y-93976190D01*
X171412857Y-94023809D01*
X171317619Y-92261904D02*
X171984285Y-92261904D01*
X171889047Y-92261904D02*
X171936666Y-92214285D01*
X171984285Y-92119047D01*
X171984285Y-91976190D01*
X171936666Y-91880952D01*
X171841428Y-91833333D01*
X171317619Y-91833333D01*
X171841428Y-91833333D02*
X171936666Y-91785714D01*
X171984285Y-91690476D01*
X171984285Y-91547619D01*
X171936666Y-91452380D01*
X171841428Y-91404761D01*
X171317619Y-91404761D01*
X171317619Y-90928571D02*
X171984285Y-90928571D01*
X171889047Y-90928571D02*
X171936666Y-90880952D01*
X171984285Y-90785714D01*
X171984285Y-90642857D01*
X171936666Y-90547619D01*
X171841428Y-90500000D01*
X171317619Y-90500000D01*
X171841428Y-90500000D02*
X171936666Y-90452380D01*
X171984285Y-90357142D01*
X171984285Y-90214285D01*
X171936666Y-90119047D01*
X171841428Y-90071428D01*
X171317619Y-90071428D01*
D11*
X170500000Y-65000000D02*
X170500000Y-120000000D01*
X168000000Y-65000000D02*
X171086421Y-65000000D01*
X168000000Y-120000000D02*
X171086421Y-120000000D01*
X170500000Y-120000000D02*
X169913579Y-118873496D01*
X170500000Y-120000000D02*
X171086421Y-118873496D01*
X170500000Y-65000000D02*
X169913579Y-66126504D01*
X170500000Y-65000000D02*
X171086421Y-66126504D01*
D10*
X135523809Y-61082380D02*
X134857142Y-61082380D01*
X135285714Y-62082380D01*
X134285714Y-61082380D02*
X134190476Y-61082380D01*
X134095238Y-61130000D01*
X134047619Y-61177619D01*
X134000000Y-61272857D01*
X133952380Y-61463333D01*
X133952380Y-61701428D01*
X134000000Y-61891904D01*
X134047619Y-61987142D01*
X134095238Y-62034761D01*
X134190476Y-62082380D01*
X134285714Y-62082380D01*
X134380952Y-62034761D01*
X134428571Y-61987142D01*
X134476190Y-61891904D01*
X134523809Y-61701428D01*
X134523809Y-61463333D01*
X134476190Y-61272857D01*
X134428571Y-61177619D01*
X134380952Y-61130000D01*
X134285714Y-61082380D01*
X132761904Y-62082380D02*
X132761904Y-61415714D01*
X132761904Y-61510952D02*
X132714285Y-61463333D01*
X132619047Y-61415714D01*
X132476190Y-61415714D01*
X132380952Y-61463333D01*
X132333333Y-61558571D01*
X132333333Y-62082380D01*
X132333333Y-61558571D02*
X132285714Y-61463333D01*
X132190476Y-61415714D01*
X132047619Y-61415714D01*
X131952380Y-61463333D01*
X131904761Y-61558571D01*
X131904761Y-62082380D01*
X131428571Y-62082380D02*
X131428571Y-61415714D01*
X131428571Y-61510952D02*
X131380952Y-61463333D01*
X131285714Y-61415714D01*
X131142857Y-61415714D01*
X131047619Y-61463333D01*
X131000000Y-61558571D01*
X131000000Y-62082380D01*
X131000000Y-61558571D02*
X130952380Y-61463333D01*
X130857142Y-61415714D01*
X130714285Y-61415714D01*
X130619047Y-61463333D01*
X130571428Y-61558571D01*
X130571428Y-62082380D01*
D11*
X98000000Y-62900000D02*
X168000000Y-62900000D01*
X98000000Y-65000000D02*
X98000000Y-62313579D01*
X168000000Y-65000000D02*
X168000000Y-62313579D01*
X168000000Y-62900000D02*
X166873496Y-63486421D01*
X168000000Y-62900000D02*
X166873496Y-62313579D01*
X98000000Y-62900000D02*
X99126504Y-63486421D01*
X98000000Y-62900000D02*
X99126504Y-62313579D01*
D12*
X124139523Y-102453333D02*
X123520476Y-102453333D01*
X124263333Y-102853333D02*
X123830000Y-101453333D01*
X123396666Y-102853333D01*
X122963333Y-101453333D02*
X122963333Y-102586666D01*
X122901428Y-102720000D01*
X122839523Y-102786666D01*
X122715714Y-102853333D01*
X122468095Y-102853333D01*
X122344285Y-102786666D01*
X122282380Y-102720000D01*
X122220476Y-102586666D01*
X122220476Y-101453333D01*
X121725238Y-101453333D02*
X120858571Y-102853333D01*
X120858571Y-101453333D02*
X121725238Y-102853333D01*
X146717142Y-101950000D02*
X146531428Y-102016666D01*
X146469523Y-102083333D01*
X146407619Y-102216666D01*
X146407619Y-102416666D01*
X146469523Y-102550000D01*
X146531428Y-102616666D01*
X146655238Y-102683333D01*
X147150476Y-102683333D01*
X147150476Y-101283333D01*
X146717142Y-101283333D01*
X146593333Y-101350000D01*
X146531428Y-101416666D01*
X146469523Y-101550000D01*
X146469523Y-101683333D01*
X146531428Y-101816666D01*
X146593333Y-101883333D01*
X146717142Y-101950000D01*
X147150476Y-101950000D01*
X145850476Y-101283333D02*
X145850476Y-102416666D01*
X145788571Y-102550000D01*
X145726666Y-102616666D01*
X145602857Y-102683333D01*
X145355238Y-102683333D01*
X145231428Y-102616666D01*
X145169523Y-102550000D01*
X145107619Y-102416666D01*
X145107619Y-101283333D01*
X144550476Y-102616666D02*
X144364761Y-102683333D01*
X144055238Y-102683333D01*
X143931428Y-102616666D01*
X143869523Y-102550000D01*
X143807619Y-102416666D01*
X143807619Y-102283333D01*
X143869523Y-102150000D01*
X143931428Y-102083333D01*
X144055238Y-102016666D01*
X144302857Y-101950000D01*
X144426666Y-101883333D01*
X144488571Y-101816666D01*
X144550476Y-101683333D01*
X144550476Y-101550000D01*
X144488571Y-101416666D01*
X144426666Y-101350000D01*
X144302857Y-101283333D01*
X143993333Y-101283333D01*
X143807619Y-101350000D01*
X142816666Y-88900000D02*
X142878571Y-88966666D01*
X143064285Y-89033333D01*
X143188095Y-89033333D01*
X143373809Y-88966666D01*
X143497619Y-88833333D01*
X143559523Y-88700000D01*
X143621428Y-88433333D01*
X143621428Y-88233333D01*
X143559523Y-87966666D01*
X143497619Y-87833333D01*
X143373809Y-87700000D01*
X143188095Y-87633333D01*
X143064285Y-87633333D01*
X142878571Y-87700000D01*
X142816666Y-87766666D01*
X142011904Y-87633333D02*
X141764285Y-87633333D01*
X141640476Y-87700000D01*
X141516666Y-87833333D01*
X141454761Y-88100000D01*
X141454761Y-88566666D01*
X141516666Y-88833333D01*
X141640476Y-88966666D01*
X141764285Y-89033333D01*
X142011904Y-89033333D01*
X142135714Y-88966666D01*
X142259523Y-88833333D01*
X142321428Y-88566666D01*
X142321428Y-88100000D01*
X142259523Y-87833333D01*
X142135714Y-87700000D01*
X142011904Y-87633333D01*
X140897619Y-89033333D02*
X140897619Y-87633333D01*
X140154761Y-89033333D01*
X140154761Y-87633333D01*
X139535714Y-89033333D02*
X139535714Y-87633333D01*
X138792857Y-89033333D01*
X138792857Y-87633333D01*
X138173809Y-88300000D02*
X137740476Y-88300000D01*
X137554761Y-89033333D02*
X138173809Y-89033333D01*
X138173809Y-87633333D01*
X137554761Y-87633333D01*
X136254761Y-88900000D02*
X136316666Y-88966666D01*
X136502380Y-89033333D01*
X136626190Y-89033333D01*
X136811904Y-88966666D01*
X136935714Y-88833333D01*
X136997619Y-88700000D01*
X137059523Y-88433333D01*
X137059523Y-88233333D01*
X136997619Y-87966666D01*
X136935714Y-87833333D01*
X136811904Y-87700000D01*
X136626190Y-87633333D01*
X136502380Y-87633333D01*
X136316666Y-87700000D01*
X136254761Y-87766666D01*
X135883333Y-87633333D02*
X135140476Y-87633333D01*
X135511904Y-89033333D02*
X135511904Y-87633333D01*
X134459523Y-87633333D02*
X134211904Y-87633333D01*
X134088095Y-87700000D01*
X133964285Y-87833333D01*
X133902380Y-88100000D01*
X133902380Y-88566666D01*
X133964285Y-88833333D01*
X134088095Y-88966666D01*
X134211904Y-89033333D01*
X134459523Y-89033333D01*
X134583333Y-88966666D01*
X134707142Y-88833333D01*
X134769047Y-88566666D01*
X134769047Y-88100000D01*
X134707142Y-87833333D01*
X134583333Y-87700000D01*
X134459523Y-87633333D01*
X132602380Y-89033333D02*
X133035714Y-88366666D01*
X133345238Y-89033333D02*
X133345238Y-87633333D01*
X132850000Y-87633333D01*
X132726190Y-87700000D01*
X132664285Y-87766666D01*
X132602380Y-87900000D01*
X132602380Y-88100000D01*
X132664285Y-88233333D01*
X132726190Y-88300000D01*
X132850000Y-88366666D01*
X133345238Y-88366666D01*
X131054761Y-89033333D02*
X131054761Y-87633333D01*
X130559523Y-87633333D01*
X130435714Y-87700000D01*
X130373809Y-87766666D01*
X130311904Y-87900000D01*
X130311904Y-88100000D01*
X130373809Y-88233333D01*
X130435714Y-88300000D01*
X130559523Y-88366666D01*
X131054761Y-88366666D01*
X129754761Y-89033333D02*
X129754761Y-87633333D01*
X129135714Y-89033333D02*
X129135714Y-87633333D01*
X128392857Y-89033333D01*
X128392857Y-87633333D01*
X127526190Y-87633333D02*
X127278571Y-87633333D01*
X127154761Y-87700000D01*
X127030952Y-87833333D01*
X126969047Y-88100000D01*
X126969047Y-88566666D01*
X127030952Y-88833333D01*
X127154761Y-88966666D01*
X127278571Y-89033333D01*
X127526190Y-89033333D01*
X127650000Y-88966666D01*
X127773809Y-88833333D01*
X127835714Y-88566666D01*
X127835714Y-88100000D01*
X127773809Y-87833333D01*
X127650000Y-87700000D01*
X127526190Y-87633333D01*
X126411904Y-87633333D02*
X126411904Y-88766666D01*
X126350000Y-88900000D01*
X126288095Y-88966666D01*
X126164285Y-89033333D01*
X125916666Y-89033333D01*
X125792857Y-88966666D01*
X125730952Y-88900000D01*
X125669047Y-88766666D01*
X125669047Y-87633333D01*
X125235714Y-87633333D02*
X124492857Y-87633333D01*
X124864285Y-89033333D02*
X124864285Y-87633333D01*
X124121428Y-88966666D02*
X123935714Y-89033333D01*
X123626190Y-89033333D01*
X123502380Y-88966666D01*
X123440476Y-88900000D01*
X123378571Y-88766666D01*
X123378571Y-88633333D01*
X123440476Y-88500000D01*
X123502380Y-88433333D01*
X123626190Y-88366666D01*
X123873809Y-88300000D01*
X123997619Y-88233333D01*
X124059523Y-88166666D01*
X124121428Y-88033333D01*
X124121428Y-87900000D01*
X124059523Y-87766666D01*
X123997619Y-87700000D01*
X123873809Y-87633333D01*
X123564285Y-87633333D01*
X123378571Y-87700000D01*
D11*
%TO.C,J1*%
X99091000Y-114300000D02*
G75*
G03*
X99091000Y-114300000I-381000J0D01*
G01*
%TO.C,REF\u002A\u002A*%
X120390000Y-99150000D02*
X112180000Y-99150000D01*
X112180000Y-92650000D02*
X132700000Y-92650000D01*
X134000000Y-91340000D02*
X134000000Y-100460000D01*
X110880000Y-100460000D02*
X110880000Y-91340000D01*
X124490000Y-99150000D02*
X124490000Y-99150000D01*
X134000000Y-100460000D02*
X110880000Y-100460000D01*
X132700000Y-92650000D02*
X132700000Y-99150000D01*
X110880000Y-91340000D02*
X134000000Y-91340000D01*
X132700000Y-99150000D02*
X124490000Y-99150000D01*
X124490000Y-99150000D02*
X124490000Y-100460000D01*
X120390000Y-100460000D02*
X120390000Y-99150000D01*
X112180000Y-99150000D02*
X112180000Y-92650000D01*
X147720000Y-99170000D02*
X147720000Y-100480000D01*
X153390000Y-92670000D02*
X153390000Y-99170000D01*
X143620000Y-99170000D02*
X137950000Y-99170000D01*
X143620000Y-100480000D02*
X143620000Y-99170000D01*
X136650000Y-100480000D02*
X136650000Y-91360000D01*
X153390000Y-99170000D02*
X147720000Y-99170000D01*
X137950000Y-99170000D02*
X137950000Y-92670000D01*
X147720000Y-99170000D02*
X147720000Y-99170000D01*
X137950000Y-92670000D02*
X153390000Y-92670000D01*
X154690000Y-100480000D02*
X136650000Y-100480000D01*
X136650000Y-91360000D02*
X154690000Y-91360000D01*
X154690000Y-91360000D02*
X154690000Y-100480000D01*
D13*
X127259000Y-97337857D02*
X127294714Y-97373571D01*
X127401857Y-97409285D01*
X127473285Y-97409285D01*
X127580428Y-97373571D01*
X127651857Y-97302142D01*
X127687571Y-97230714D01*
X127723285Y-97087857D01*
X127723285Y-96980714D01*
X127687571Y-96837857D01*
X127651857Y-96766428D01*
X127580428Y-96695000D01*
X127473285Y-96659285D01*
X127401857Y-96659285D01*
X127294714Y-96695000D01*
X127259000Y-96730714D01*
X126973285Y-96730714D02*
X126937571Y-96695000D01*
X126866142Y-96659285D01*
X126687571Y-96659285D01*
X126616142Y-96695000D01*
X126580428Y-96730714D01*
X126544714Y-96802142D01*
X126544714Y-96873571D01*
X126580428Y-96980714D01*
X127009000Y-97409285D01*
X126544714Y-97409285D01*
X130403000Y-97337857D02*
X130438714Y-97373571D01*
X130545857Y-97409285D01*
X130617285Y-97409285D01*
X130724428Y-97373571D01*
X130795857Y-97302142D01*
X130831571Y-97230714D01*
X130867285Y-97087857D01*
X130867285Y-96980714D01*
X130831571Y-96837857D01*
X130795857Y-96766428D01*
X130724428Y-96695000D01*
X130617285Y-96659285D01*
X130545857Y-96659285D01*
X130438714Y-96695000D01*
X130403000Y-96730714D01*
X130153000Y-96659285D02*
X129688714Y-96659285D01*
X129938714Y-96945000D01*
X129831571Y-96945000D01*
X129760142Y-96980714D01*
X129724428Y-97016428D01*
X129688714Y-97087857D01*
X129688714Y-97266428D01*
X129724428Y-97337857D01*
X129760142Y-97373571D01*
X129831571Y-97409285D01*
X130045857Y-97409285D01*
X130117285Y-97373571D01*
X130153000Y-97337857D01*
X124115000Y-97337857D02*
X124150714Y-97373571D01*
X124257857Y-97409285D01*
X124329285Y-97409285D01*
X124436428Y-97373571D01*
X124507857Y-97302142D01*
X124543571Y-97230714D01*
X124579285Y-97087857D01*
X124579285Y-96980714D01*
X124543571Y-96837857D01*
X124507857Y-96766428D01*
X124436428Y-96695000D01*
X124329285Y-96659285D01*
X124257857Y-96659285D01*
X124150714Y-96695000D01*
X124115000Y-96730714D01*
X123400714Y-97409285D02*
X123829285Y-97409285D01*
X123615000Y-97409285D02*
X123615000Y-96659285D01*
X123686428Y-96766428D01*
X123757857Y-96837857D01*
X123829285Y-96873571D01*
X114793571Y-94476428D02*
X114686428Y-94512142D01*
X114650714Y-94547857D01*
X114615000Y-94619285D01*
X114615000Y-94726428D01*
X114650714Y-94797857D01*
X114686428Y-94833571D01*
X114757857Y-94869285D01*
X115043571Y-94869285D01*
X115043571Y-94119285D01*
X114793571Y-94119285D01*
X114722142Y-94155000D01*
X114686428Y-94190714D01*
X114650714Y-94262142D01*
X114650714Y-94333571D01*
X114686428Y-94405000D01*
X114722142Y-94440714D01*
X114793571Y-94476428D01*
X115043571Y-94476428D01*
X113900714Y-94869285D02*
X114329285Y-94869285D01*
X114115000Y-94869285D02*
X114115000Y-94119285D01*
X114186428Y-94226428D01*
X114257857Y-94297857D01*
X114329285Y-94333571D01*
X117937571Y-94476428D02*
X117830428Y-94512142D01*
X117794714Y-94547857D01*
X117759000Y-94619285D01*
X117759000Y-94726428D01*
X117794714Y-94797857D01*
X117830428Y-94833571D01*
X117901857Y-94869285D01*
X118187571Y-94869285D01*
X118187571Y-94119285D01*
X117937571Y-94119285D01*
X117866142Y-94155000D01*
X117830428Y-94190714D01*
X117794714Y-94262142D01*
X117794714Y-94333571D01*
X117830428Y-94405000D01*
X117866142Y-94440714D01*
X117937571Y-94476428D01*
X118187571Y-94476428D01*
X117473285Y-94190714D02*
X117437571Y-94155000D01*
X117366142Y-94119285D01*
X117187571Y-94119285D01*
X117116142Y-94155000D01*
X117080428Y-94190714D01*
X117044714Y-94262142D01*
X117044714Y-94333571D01*
X117080428Y-94440714D01*
X117509000Y-94869285D01*
X117044714Y-94869285D01*
X121081571Y-94476428D02*
X120974428Y-94512142D01*
X120938714Y-94547857D01*
X120903000Y-94619285D01*
X120903000Y-94726428D01*
X120938714Y-94797857D01*
X120974428Y-94833571D01*
X121045857Y-94869285D01*
X121331571Y-94869285D01*
X121331571Y-94119285D01*
X121081571Y-94119285D01*
X121010142Y-94155000D01*
X120974428Y-94190714D01*
X120938714Y-94262142D01*
X120938714Y-94333571D01*
X120974428Y-94405000D01*
X121010142Y-94440714D01*
X121081571Y-94476428D01*
X121331571Y-94476428D01*
X120653000Y-94119285D02*
X120188714Y-94119285D01*
X120438714Y-94405000D01*
X120331571Y-94405000D01*
X120260142Y-94440714D01*
X120224428Y-94476428D01*
X120188714Y-94547857D01*
X120188714Y-94726428D01*
X120224428Y-94797857D01*
X120260142Y-94833571D01*
X120331571Y-94869285D01*
X120545857Y-94869285D01*
X120617285Y-94833571D01*
X120653000Y-94797857D01*
X124475571Y-94869285D02*
X124475571Y-94119285D01*
X124297000Y-94119285D01*
X124189857Y-94155000D01*
X124118428Y-94226428D01*
X124082714Y-94297857D01*
X124047000Y-94440714D01*
X124047000Y-94547857D01*
X124082714Y-94690714D01*
X124118428Y-94762142D01*
X124189857Y-94833571D01*
X124297000Y-94869285D01*
X124475571Y-94869285D01*
X123332714Y-94869285D02*
X123761285Y-94869285D01*
X123547000Y-94869285D02*
X123547000Y-94119285D01*
X123618428Y-94226428D01*
X123689857Y-94297857D01*
X123761285Y-94333571D01*
X114957714Y-97195000D02*
X114600571Y-97195000D01*
X115029142Y-97409285D02*
X114779142Y-96659285D01*
X114529142Y-97409285D01*
X113886285Y-97409285D02*
X114314857Y-97409285D01*
X114100571Y-97409285D02*
X114100571Y-96659285D01*
X114172000Y-96766428D01*
X114243428Y-96837857D01*
X114314857Y-96873571D01*
X127619571Y-94869285D02*
X127619571Y-94119285D01*
X127441000Y-94119285D01*
X127333857Y-94155000D01*
X127262428Y-94226428D01*
X127226714Y-94297857D01*
X127191000Y-94440714D01*
X127191000Y-94547857D01*
X127226714Y-94690714D01*
X127262428Y-94762142D01*
X127333857Y-94833571D01*
X127441000Y-94869285D01*
X127619571Y-94869285D01*
X126905285Y-94190714D02*
X126869571Y-94155000D01*
X126798142Y-94119285D01*
X126619571Y-94119285D01*
X126548142Y-94155000D01*
X126512428Y-94190714D01*
X126476714Y-94262142D01*
X126476714Y-94333571D01*
X126512428Y-94440714D01*
X126941000Y-94869285D01*
X126476714Y-94869285D01*
X118101714Y-97195000D02*
X117744571Y-97195000D01*
X118173142Y-97409285D02*
X117923142Y-96659285D01*
X117673142Y-97409285D01*
X117458857Y-96730714D02*
X117423142Y-96695000D01*
X117351714Y-96659285D01*
X117173142Y-96659285D01*
X117101714Y-96695000D01*
X117066000Y-96730714D01*
X117030285Y-96802142D01*
X117030285Y-96873571D01*
X117066000Y-96980714D01*
X117494571Y-97409285D01*
X117030285Y-97409285D01*
X130763571Y-94869285D02*
X130763571Y-94119285D01*
X130585000Y-94119285D01*
X130477857Y-94155000D01*
X130406428Y-94226428D01*
X130370714Y-94297857D01*
X130335000Y-94440714D01*
X130335000Y-94547857D01*
X130370714Y-94690714D01*
X130406428Y-94762142D01*
X130477857Y-94833571D01*
X130585000Y-94869285D01*
X130763571Y-94869285D01*
X130085000Y-94119285D02*
X129620714Y-94119285D01*
X129870714Y-94405000D01*
X129763571Y-94405000D01*
X129692142Y-94440714D01*
X129656428Y-94476428D01*
X129620714Y-94547857D01*
X129620714Y-94726428D01*
X129656428Y-94797857D01*
X129692142Y-94833571D01*
X129763571Y-94869285D01*
X129977857Y-94869285D01*
X130049285Y-94833571D01*
X130085000Y-94797857D01*
X121245714Y-97195000D02*
X120888571Y-97195000D01*
X121317142Y-97409285D02*
X121067142Y-96659285D01*
X120817142Y-97409285D01*
X120638571Y-96659285D02*
X120174285Y-96659285D01*
X120424285Y-96945000D01*
X120317142Y-96945000D01*
X120245714Y-96980714D01*
X120210000Y-97016428D01*
X120174285Y-97087857D01*
X120174285Y-97266428D01*
X120210000Y-97337857D01*
X120245714Y-97373571D01*
X120317142Y-97409285D01*
X120531428Y-97409285D01*
X120602857Y-97373571D01*
X120638571Y-97337857D01*
X152860000Y-96779285D02*
X152610000Y-97529285D01*
X152360000Y-96779285D01*
X151681428Y-97457857D02*
X151717142Y-97493571D01*
X151824285Y-97529285D01*
X151895714Y-97529285D01*
X152002857Y-97493571D01*
X152074285Y-97422142D01*
X152110000Y-97350714D01*
X152145714Y-97207857D01*
X152145714Y-97100714D01*
X152110000Y-96957857D01*
X152074285Y-96886428D01*
X152002857Y-96815000D01*
X151895714Y-96779285D01*
X151824285Y-96779285D01*
X151717142Y-96815000D01*
X151681428Y-96850714D01*
X150931428Y-97457857D02*
X150967142Y-97493571D01*
X151074285Y-97529285D01*
X151145714Y-97529285D01*
X151252857Y-97493571D01*
X151324285Y-97422142D01*
X151360000Y-97350714D01*
X151395714Y-97207857D01*
X151395714Y-97100714D01*
X151360000Y-96957857D01*
X151324285Y-96886428D01*
X151252857Y-96815000D01*
X151145714Y-96779285D01*
X151074285Y-96779285D01*
X150967142Y-96815000D01*
X150931428Y-96850714D01*
X148956428Y-97529285D02*
X148956428Y-96779285D01*
X148670714Y-96779285D01*
X148599285Y-96815000D01*
X148563571Y-96850714D01*
X148527857Y-96922142D01*
X148527857Y-97029285D01*
X148563571Y-97100714D01*
X148599285Y-97136428D01*
X148670714Y-97172142D01*
X148956428Y-97172142D01*
X148206428Y-96779285D02*
X148206428Y-97386428D01*
X148170714Y-97457857D01*
X148135000Y-97493571D01*
X148063571Y-97529285D01*
X147920714Y-97529285D01*
X147849285Y-97493571D01*
X147813571Y-97457857D01*
X147777857Y-97386428D01*
X147777857Y-96779285D01*
X147063571Y-97529285D02*
X147420714Y-97529285D01*
X147420714Y-96779285D01*
X146456428Y-97529285D02*
X146813571Y-97529285D01*
X146813571Y-96779285D01*
X145056428Y-96779285D02*
X144627857Y-96779285D01*
X144842142Y-97529285D02*
X144842142Y-96779285D01*
X144377857Y-97136428D02*
X144127857Y-97136428D01*
X144020714Y-97529285D02*
X144377857Y-97529285D01*
X144377857Y-96779285D01*
X144020714Y-96779285D01*
X143735000Y-97493571D02*
X143627857Y-97529285D01*
X143449285Y-97529285D01*
X143377857Y-97493571D01*
X143342142Y-97457857D01*
X143306428Y-97386428D01*
X143306428Y-97315000D01*
X143342142Y-97243571D01*
X143377857Y-97207857D01*
X143449285Y-97172142D01*
X143592142Y-97136428D01*
X143663571Y-97100714D01*
X143699285Y-97065000D01*
X143735000Y-96993571D01*
X143735000Y-96922142D01*
X143699285Y-96850714D01*
X143663571Y-96815000D01*
X143592142Y-96779285D01*
X143413571Y-96779285D01*
X143306428Y-96815000D01*
X143092142Y-96779285D02*
X142663571Y-96779285D01*
X142877857Y-97529285D02*
X142877857Y-96779285D01*
X140770714Y-97493571D02*
X140663571Y-97529285D01*
X140485000Y-97529285D01*
X140413571Y-97493571D01*
X140377857Y-97457857D01*
X140342142Y-97386428D01*
X140342142Y-97315000D01*
X140377857Y-97243571D01*
X140413571Y-97207857D01*
X140485000Y-97172142D01*
X140627857Y-97136428D01*
X140699285Y-97100714D01*
X140735000Y-97065000D01*
X140770714Y-96993571D01*
X140770714Y-96922142D01*
X140735000Y-96850714D01*
X140699285Y-96815000D01*
X140627857Y-96779285D01*
X140449285Y-96779285D01*
X140342142Y-96815000D01*
X140020714Y-97529285D02*
X140020714Y-96779285D01*
X139842142Y-96779285D01*
X139735000Y-96815000D01*
X139663571Y-96886428D01*
X139627857Y-96957857D01*
X139592142Y-97100714D01*
X139592142Y-97207857D01*
X139627857Y-97350714D01*
X139663571Y-97422142D01*
X139735000Y-97493571D01*
X139842142Y-97529285D01*
X140020714Y-97529285D01*
X139306428Y-97315000D02*
X138949285Y-97315000D01*
X139377857Y-97529285D02*
X139127857Y-96779285D01*
X138877857Y-97529285D01*
X140752857Y-94953571D02*
X140645714Y-94989285D01*
X140467142Y-94989285D01*
X140395714Y-94953571D01*
X140360000Y-94917857D01*
X140324285Y-94846428D01*
X140324285Y-94775000D01*
X140360000Y-94703571D01*
X140395714Y-94667857D01*
X140467142Y-94632142D01*
X140610000Y-94596428D01*
X140681428Y-94560714D01*
X140717142Y-94525000D01*
X140752857Y-94453571D01*
X140752857Y-94382142D01*
X140717142Y-94310714D01*
X140681428Y-94275000D01*
X140610000Y-94239285D01*
X140431428Y-94239285D01*
X140324285Y-94275000D01*
X139574285Y-94917857D02*
X139610000Y-94953571D01*
X139717142Y-94989285D01*
X139788571Y-94989285D01*
X139895714Y-94953571D01*
X139967142Y-94882142D01*
X140002857Y-94810714D01*
X140038571Y-94667857D01*
X140038571Y-94560714D01*
X140002857Y-94417857D01*
X139967142Y-94346428D01*
X139895714Y-94275000D01*
X139788571Y-94239285D01*
X139717142Y-94239285D01*
X139610000Y-94275000D01*
X139574285Y-94310714D01*
X138895714Y-94989285D02*
X139252857Y-94989285D01*
X139252857Y-94239285D01*
X144849285Y-94989285D02*
X145099285Y-94632142D01*
X145277857Y-94989285D02*
X145277857Y-94239285D01*
X144992142Y-94239285D01*
X144920714Y-94275000D01*
X144885000Y-94310714D01*
X144849285Y-94382142D01*
X144849285Y-94489285D01*
X144885000Y-94560714D01*
X144920714Y-94596428D01*
X144992142Y-94632142D01*
X145277857Y-94632142D01*
X144527857Y-94596428D02*
X144277857Y-94596428D01*
X144170714Y-94989285D02*
X144527857Y-94989285D01*
X144527857Y-94239285D01*
X144170714Y-94239285D01*
X143885000Y-94953571D02*
X143777857Y-94989285D01*
X143599285Y-94989285D01*
X143527857Y-94953571D01*
X143492142Y-94917857D01*
X143456428Y-94846428D01*
X143456428Y-94775000D01*
X143492142Y-94703571D01*
X143527857Y-94667857D01*
X143599285Y-94632142D01*
X143742142Y-94596428D01*
X143813571Y-94560714D01*
X143849285Y-94525000D01*
X143885000Y-94453571D01*
X143885000Y-94382142D01*
X143849285Y-94310714D01*
X143813571Y-94275000D01*
X143742142Y-94239285D01*
X143563571Y-94239285D01*
X143456428Y-94275000D01*
X143135000Y-94596428D02*
X142885000Y-94596428D01*
X142777857Y-94989285D02*
X143135000Y-94989285D01*
X143135000Y-94239285D01*
X142777857Y-94239285D01*
X142563571Y-94239285D02*
X142135000Y-94239285D01*
X142349285Y-94989285D02*
X142349285Y-94239285D01*
X149199285Y-94989285D02*
X149199285Y-94239285D01*
X148913571Y-94239285D01*
X148842142Y-94275000D01*
X148806428Y-94310714D01*
X148770714Y-94382142D01*
X148770714Y-94489285D01*
X148806428Y-94560714D01*
X148842142Y-94596428D01*
X148913571Y-94632142D01*
X149199285Y-94632142D01*
X148449285Y-94239285D02*
X148449285Y-94846428D01*
X148413571Y-94917857D01*
X148377857Y-94953571D01*
X148306428Y-94989285D01*
X148163571Y-94989285D01*
X148092142Y-94953571D01*
X148056428Y-94917857D01*
X148020714Y-94846428D01*
X148020714Y-94239285D01*
X147699285Y-94953571D02*
X147592142Y-94989285D01*
X147413571Y-94989285D01*
X147342142Y-94953571D01*
X147306428Y-94917857D01*
X147270714Y-94846428D01*
X147270714Y-94775000D01*
X147306428Y-94703571D01*
X147342142Y-94667857D01*
X147413571Y-94632142D01*
X147556428Y-94596428D01*
X147627857Y-94560714D01*
X147663571Y-94525000D01*
X147699285Y-94453571D01*
X147699285Y-94382142D01*
X147663571Y-94310714D01*
X147627857Y-94275000D01*
X147556428Y-94239285D01*
X147377857Y-94239285D01*
X147270714Y-94275000D01*
X146949285Y-94989285D02*
X146949285Y-94239285D01*
X146949285Y-94596428D02*
X146520714Y-94596428D01*
X146520714Y-94989285D02*
X146520714Y-94239285D01*
X152431428Y-94275000D02*
X152502857Y-94239285D01*
X152610000Y-94239285D01*
X152717142Y-94275000D01*
X152788571Y-94346428D01*
X152824285Y-94417857D01*
X152860000Y-94560714D01*
X152860000Y-94667857D01*
X152824285Y-94810714D01*
X152788571Y-94882142D01*
X152717142Y-94953571D01*
X152610000Y-94989285D01*
X152538571Y-94989285D01*
X152431428Y-94953571D01*
X152395714Y-94917857D01*
X152395714Y-94667857D01*
X152538571Y-94667857D01*
X152074285Y-94989285D02*
X152074285Y-94239285D01*
X151645714Y-94989285D01*
X151645714Y-94239285D01*
X151288571Y-94989285D02*
X151288571Y-94239285D01*
X151110000Y-94239285D01*
X151002857Y-94275000D01*
X150931428Y-94346428D01*
X150895714Y-94417857D01*
X150860000Y-94560714D01*
X150860000Y-94667857D01*
X150895714Y-94810714D01*
X150931428Y-94882142D01*
X151002857Y-94953571D01*
X151110000Y-94989285D01*
X151288571Y-94989285D01*
%TD*%
M02*
