%TF.GenerationSoftware,KiCad,Pcbnew,5.1.10*%
%TF.CreationDate,2021-11-19T19:09:23+01:00*%
%TF.ProjectId,SWITCH_INPUT_BOARD,53574954-4348-45f4-994e-5055545f424f,rev?*%
%TF.SameCoordinates,Original*%
%TF.FileFunction,Soldermask,Top*%
%TF.FilePolarity,Negative*%
%FSLAX46Y46*%
G04 Gerber Fmt 4.6, Leading zero omitted, Abs format (unit mm)*
G04 Created by KiCad (PCBNEW 5.1.10) date 2021-11-19 19:09:23*
%MOMM*%
%LPD*%
G01*
G04 APERTURE LIST*
%ADD10C,1.600200*%
%ADD11C,3.200400*%
%ADD12C,1.397000*%
%ADD13O,1.700000X1.700000*%
%ADD14R,1.700000X1.700000*%
%ADD15C,1.800000*%
%ADD16R,1.800000X1.800000*%
%ADD17R,1.200000X1.200000*%
%ADD18C,1.200000*%
%ADD19C,5.600000*%
%ADD20C,1.700000*%
%ADD21O,1.600000X1.600000*%
%ADD22C,1.600000*%
%ADD23R,0.900000X0.900000*%
G04 APERTURE END LIST*
D10*
%TO.C,J1*%
X162438600Y-124333000D03*
X103561400Y-124333000D03*
D11*
X159670000Y-120650000D03*
X106330000Y-120650000D03*
D10*
X146970000Y-110490000D03*
X133000000Y-110490000D03*
X119030000Y-110490000D03*
D12*
X158400000Y-111760000D03*
X157130000Y-114300000D03*
X155860000Y-111760000D03*
X154590000Y-114300000D03*
X153320000Y-111760000D03*
X152050000Y-114300000D03*
X150780000Y-111760000D03*
X149510000Y-114300000D03*
X144430000Y-111760000D03*
X143160000Y-114300000D03*
X141890000Y-111760000D03*
X140620000Y-114300000D03*
X139350000Y-111760000D03*
X138080000Y-114300000D03*
X136810000Y-111760000D03*
X135540000Y-114300000D03*
X130460000Y-111760000D03*
X129190000Y-114300000D03*
X127920000Y-111760000D03*
X126650000Y-114300000D03*
X125380000Y-111760000D03*
X124110000Y-114300000D03*
X122840000Y-111760000D03*
X121570000Y-114300000D03*
X116490000Y-111760000D03*
X115220000Y-114300000D03*
X113950000Y-111760000D03*
X112680000Y-114300000D03*
X111410000Y-111760000D03*
X110140000Y-114300000D03*
X108870000Y-111760000D03*
X107600000Y-114300000D03*
%TD*%
D13*
%TO.C,JP1*%
X119250000Y-82970000D03*
X119250000Y-85510000D03*
X116710000Y-82970000D03*
X116710000Y-85510000D03*
X114170000Y-82970000D03*
X114170000Y-85510000D03*
X111630000Y-82970000D03*
D14*
X111630000Y-85510000D03*
%TD*%
D13*
%TO.C,JP3*%
X161540000Y-94960000D03*
X161540000Y-97500000D03*
X159000000Y-94960000D03*
D14*
X159000000Y-97500000D03*
%TD*%
D13*
%TO.C,JP2*%
X107190000Y-94960000D03*
X107190000Y-97500000D03*
X104650000Y-94960000D03*
D14*
X104650000Y-97500000D03*
%TD*%
%TO.C,REF\u002A\u002A*%
G36*
G01*
X128200000Y-79237500D02*
X128200000Y-78762500D01*
G75*
G02*
X128437500Y-78525000I237500J0D01*
G01*
X128937500Y-78525000D01*
G75*
G02*
X129175000Y-78762500I0J-237500D01*
G01*
X129175000Y-79237500D01*
G75*
G02*
X128937500Y-79475000I-237500J0D01*
G01*
X128437500Y-79475000D01*
G75*
G02*
X128200000Y-79237500I0J237500D01*
G01*
G37*
G36*
G01*
X130025000Y-79237500D02*
X130025000Y-78762500D01*
G75*
G02*
X130262500Y-78525000I237500J0D01*
G01*
X130762500Y-78525000D01*
G75*
G02*
X131000000Y-78762500I0J-237500D01*
G01*
X131000000Y-79237500D01*
G75*
G02*
X130762500Y-79475000I-237500J0D01*
G01*
X130262500Y-79475000D01*
G75*
G02*
X130025000Y-79237500I0J237500D01*
G01*
G37*
%TD*%
%TO.C,REF\u002A\u002A*%
G36*
G01*
X128200000Y-75737500D02*
X128200000Y-75262500D01*
G75*
G02*
X128437500Y-75025000I237500J0D01*
G01*
X128937500Y-75025000D01*
G75*
G02*
X129175000Y-75262500I0J-237500D01*
G01*
X129175000Y-75737500D01*
G75*
G02*
X128937500Y-75975000I-237500J0D01*
G01*
X128437500Y-75975000D01*
G75*
G02*
X128200000Y-75737500I0J237500D01*
G01*
G37*
G36*
G01*
X130025000Y-75737500D02*
X130025000Y-75262500D01*
G75*
G02*
X130262500Y-75025000I237500J0D01*
G01*
X130762500Y-75025000D01*
G75*
G02*
X131000000Y-75262500I0J-237500D01*
G01*
X131000000Y-75737500D01*
G75*
G02*
X130762500Y-75975000I-237500J0D01*
G01*
X130262500Y-75975000D01*
G75*
G02*
X130025000Y-75737500I0J237500D01*
G01*
G37*
%TD*%
%TO.C,C1\u002A*%
G36*
G01*
X143300000Y-78250400D02*
X143300000Y-77149600D01*
G75*
G02*
X143549600Y-76900000I249600J0D01*
G01*
X145650400Y-76900000D01*
G75*
G02*
X145900000Y-77149600I0J-249600D01*
G01*
X145900000Y-78250400D01*
G75*
G02*
X145650400Y-78500000I-249600J0D01*
G01*
X143549600Y-78500000D01*
G75*
G02*
X143300000Y-78250400I0J249600D01*
G01*
G37*
G36*
G01*
X139700000Y-78250400D02*
X139700000Y-77149600D01*
G75*
G02*
X139949600Y-76900000I249600J0D01*
G01*
X142050400Y-76900000D01*
G75*
G02*
X142300000Y-77149600I0J-249600D01*
G01*
X142300000Y-78250400D01*
G75*
G02*
X142050400Y-78500000I-249600J0D01*
G01*
X139949600Y-78500000D01*
G75*
G02*
X139700000Y-78250400I0J249600D01*
G01*
G37*
%TD*%
D15*
%TO.C,D1\u002A*%
X106840000Y-104500000D03*
D16*
X104300000Y-104500000D03*
%TD*%
%TO.C,REF\u002A\u002A*%
G36*
G01*
X98337500Y-98075000D02*
X97862500Y-98075000D01*
G75*
G02*
X97625000Y-97837500I0J237500D01*
G01*
X97625000Y-97337500D01*
G75*
G02*
X97862500Y-97100000I237500J0D01*
G01*
X98337500Y-97100000D01*
G75*
G02*
X98575000Y-97337500I0J-237500D01*
G01*
X98575000Y-97837500D01*
G75*
G02*
X98337500Y-98075000I-237500J0D01*
G01*
G37*
G36*
G01*
X98337500Y-99900000D02*
X97862500Y-99900000D01*
G75*
G02*
X97625000Y-99662500I0J237500D01*
G01*
X97625000Y-99162500D01*
G75*
G02*
X97862500Y-98925000I237500J0D01*
G01*
X98337500Y-98925000D01*
G75*
G02*
X98575000Y-99162500I0J-237500D01*
G01*
X98575000Y-99662500D01*
G75*
G02*
X98337500Y-99900000I-237500J0D01*
G01*
G37*
%TD*%
%TO.C,D1*%
G36*
G01*
X100150000Y-107156250D02*
X100150000Y-106243750D01*
G75*
G02*
X100393750Y-106000000I243750J0D01*
G01*
X100881250Y-106000000D01*
G75*
G02*
X101125000Y-106243750I0J-243750D01*
G01*
X101125000Y-107156250D01*
G75*
G02*
X100881250Y-107400000I-243750J0D01*
G01*
X100393750Y-107400000D01*
G75*
G02*
X100150000Y-107156250I0J243750D01*
G01*
G37*
G36*
G01*
X98275000Y-107156250D02*
X98275000Y-106243750D01*
G75*
G02*
X98518750Y-106000000I243750J0D01*
G01*
X99006250Y-106000000D01*
G75*
G02*
X99250000Y-106243750I0J-243750D01*
G01*
X99250000Y-107156250D01*
G75*
G02*
X99006250Y-107400000I-243750J0D01*
G01*
X98518750Y-107400000D01*
G75*
G02*
X98275000Y-107156250I0J243750D01*
G01*
G37*
%TD*%
D17*
%TO.C,C1*%
X144700000Y-86000000D03*
D18*
X144700000Y-84500000D03*
%TD*%
D19*
%TO.C,REF\u002A\u002A*%
X168000000Y-65000000D03*
%TD*%
%TO.C,REF\u002A\u002A*%
X98000000Y-65000000D03*
%TD*%
%TO.C,REF\u002A\u002A*%
X98000000Y-120000000D03*
%TD*%
%TO.C,REF\u002A\u002A*%
X168000000Y-120000000D03*
%TD*%
D20*
%TO.C,J2*%
X116130000Y-68090000D03*
X118670000Y-68090000D03*
X121210000Y-68090000D03*
X123750000Y-68090000D03*
X116130000Y-65550000D03*
X118670000Y-65550000D03*
X121210000Y-65550000D03*
G36*
G01*
X123150000Y-64700000D02*
X124350000Y-64700000D01*
G75*
G02*
X124600000Y-64950000I0J-250000D01*
G01*
X124600000Y-66150000D01*
G75*
G02*
X124350000Y-66400000I-250000J0D01*
G01*
X123150000Y-66400000D01*
G75*
G02*
X122900000Y-66150000I0J250000D01*
G01*
X122900000Y-64950000D01*
G75*
G02*
X123150000Y-64700000I250000J0D01*
G01*
G37*
%TD*%
%TO.C,J3*%
G36*
G01*
X97750000Y-78200000D02*
X97750000Y-77000000D01*
G75*
G02*
X98000000Y-76750000I250000J0D01*
G01*
X99200000Y-76750000D01*
G75*
G02*
X99450000Y-77000000I0J-250000D01*
G01*
X99450000Y-78200000D01*
G75*
G02*
X99200000Y-78450000I-250000J0D01*
G01*
X98000000Y-78450000D01*
G75*
G02*
X97750000Y-78200000I0J250000D01*
G01*
G37*
X98600000Y-80140000D03*
X98600000Y-82680000D03*
X98600000Y-85220000D03*
X101140000Y-77600000D03*
X101140000Y-80140000D03*
X101140000Y-82680000D03*
X101140000Y-85220000D03*
%TD*%
%TO.C,J4*%
X164860000Y-77580000D03*
X164860000Y-80120000D03*
X164860000Y-82660000D03*
X164860000Y-85200000D03*
X167400000Y-77580000D03*
X167400000Y-80120000D03*
X167400000Y-82660000D03*
G36*
G01*
X168250000Y-84600000D02*
X168250000Y-85800000D01*
G75*
G02*
X168000000Y-86050000I-250000J0D01*
G01*
X166800000Y-86050000D01*
G75*
G02*
X166550000Y-85800000I0J250000D01*
G01*
X166550000Y-84600000D01*
G75*
G02*
X166800000Y-84350000I250000J0D01*
G01*
X168000000Y-84350000D01*
G75*
G02*
X168250000Y-84600000I0J-250000D01*
G01*
G37*
%TD*%
%TO.C,J5*%
X137350000Y-68040000D03*
X139890000Y-68040000D03*
X142430000Y-68040000D03*
X144970000Y-68040000D03*
X147510000Y-68040000D03*
X150050000Y-68040000D03*
X137350000Y-65500000D03*
X139890000Y-65500000D03*
X142430000Y-65500000D03*
X144970000Y-65500000D03*
X147510000Y-65500000D03*
G36*
G01*
X149450000Y-64650000D02*
X150650000Y-64650000D01*
G75*
G02*
X150900000Y-64900000I0J-250000D01*
G01*
X150900000Y-66100000D01*
G75*
G02*
X150650000Y-66350000I-250000J0D01*
G01*
X149450000Y-66350000D01*
G75*
G02*
X149200000Y-66100000I0J250000D01*
G01*
X149200000Y-64900000D01*
G75*
G02*
X149450000Y-64650000I250000J0D01*
G01*
G37*
%TD*%
D14*
%TO.C,JP4*%
X155635001Y-79605001D03*
D13*
X155635001Y-82145001D03*
%TD*%
D14*
%TO.C,JP5*%
X151700000Y-79550000D03*
D13*
X151700000Y-82090000D03*
%TD*%
D21*
%TO.C,R1*%
X134660000Y-75500000D03*
D22*
X124500000Y-75500000D03*
%TD*%
%TO.C,R2*%
X124500000Y-79000000D03*
D21*
X134660000Y-79000000D03*
%TD*%
%TO.C,R3*%
X98150000Y-93340000D03*
D22*
X98150000Y-103500000D03*
%TD*%
D23*
%TO.C,RN1*%
X119500000Y-90750000D03*
X119500000Y-94750000D03*
X119500000Y-92090000D03*
X119500000Y-93410000D03*
X122500000Y-92090000D03*
X122500000Y-90750000D03*
X122500000Y-94750000D03*
X122500000Y-93410000D03*
%TD*%
%TO.C,RN2*%
X119500000Y-96750000D03*
X119500000Y-100750000D03*
X119500000Y-98090000D03*
X119500000Y-99410000D03*
X122500000Y-98090000D03*
X122500000Y-96750000D03*
X122500000Y-100750000D03*
X122500000Y-99410000D03*
%TD*%
%TO.C,RN3*%
X143500000Y-98090000D03*
X143500000Y-96750000D03*
X143500000Y-100750000D03*
X143500000Y-99410000D03*
X146500000Y-98090000D03*
X146500000Y-99410000D03*
X146500000Y-96750000D03*
X146500000Y-100750000D03*
%TD*%
%TO.C,RN4*%
X146500000Y-94750000D03*
X146500000Y-90750000D03*
X146500000Y-93410000D03*
X146500000Y-92090000D03*
X143500000Y-93410000D03*
X143500000Y-94750000D03*
X143500000Y-90750000D03*
X143500000Y-92090000D03*
%TD*%
%TO.C,RN5*%
X115000000Y-94750000D03*
X115000000Y-90750000D03*
X115000000Y-93410000D03*
X115000000Y-92090000D03*
X112000000Y-93410000D03*
X112000000Y-94750000D03*
X112000000Y-90750000D03*
X112000000Y-92090000D03*
%TD*%
%TO.C,RN6*%
X112000000Y-98090000D03*
X112000000Y-96750000D03*
X112000000Y-100750000D03*
X112000000Y-99410000D03*
X115000000Y-98090000D03*
X115000000Y-99410000D03*
X115000000Y-96750000D03*
X115000000Y-100750000D03*
%TD*%
%TO.C,RN7*%
X151000000Y-96750000D03*
X151000000Y-100750000D03*
X151000000Y-98090000D03*
X151000000Y-99410000D03*
X154000000Y-98090000D03*
X154000000Y-96750000D03*
X154000000Y-100750000D03*
X154000000Y-99410000D03*
%TD*%
%TO.C,RN8*%
X154000000Y-93410000D03*
X154000000Y-94750000D03*
X154000000Y-90750000D03*
X154000000Y-92090000D03*
X151000000Y-93410000D03*
X151000000Y-92090000D03*
X151000000Y-94750000D03*
X151000000Y-90750000D03*
%TD*%
%TO.C,RN9*%
X116140000Y-74880000D03*
X117480000Y-74880000D03*
X113480000Y-74880000D03*
X114820000Y-74880000D03*
X116140000Y-77880000D03*
X114820000Y-77880000D03*
X117480000Y-77880000D03*
X113480000Y-77880000D03*
%TD*%
%TO.C,U1*%
G36*
G01*
X138675000Y-99605000D02*
X138675000Y-99905000D01*
G75*
G02*
X138525000Y-100055000I-150000J0D01*
G01*
X136775000Y-100055000D01*
G75*
G02*
X136625000Y-99905000I0J150000D01*
G01*
X136625000Y-99605000D01*
G75*
G02*
X136775000Y-99455000I150000J0D01*
G01*
X138525000Y-99455000D01*
G75*
G02*
X138675000Y-99605000I0J-150000D01*
G01*
G37*
G36*
G01*
X138675000Y-98335000D02*
X138675000Y-98635000D01*
G75*
G02*
X138525000Y-98785000I-150000J0D01*
G01*
X136775000Y-98785000D01*
G75*
G02*
X136625000Y-98635000I0J150000D01*
G01*
X136625000Y-98335000D01*
G75*
G02*
X136775000Y-98185000I150000J0D01*
G01*
X138525000Y-98185000D01*
G75*
G02*
X138675000Y-98335000I0J-150000D01*
G01*
G37*
G36*
G01*
X138675000Y-97065000D02*
X138675000Y-97365000D01*
G75*
G02*
X138525000Y-97515000I-150000J0D01*
G01*
X136775000Y-97515000D01*
G75*
G02*
X136625000Y-97365000I0J150000D01*
G01*
X136625000Y-97065000D01*
G75*
G02*
X136775000Y-96915000I150000J0D01*
G01*
X138525000Y-96915000D01*
G75*
G02*
X138675000Y-97065000I0J-150000D01*
G01*
G37*
G36*
G01*
X138675000Y-95795000D02*
X138675000Y-96095000D01*
G75*
G02*
X138525000Y-96245000I-150000J0D01*
G01*
X136775000Y-96245000D01*
G75*
G02*
X136625000Y-96095000I0J150000D01*
G01*
X136625000Y-95795000D01*
G75*
G02*
X136775000Y-95645000I150000J0D01*
G01*
X138525000Y-95645000D01*
G75*
G02*
X138675000Y-95795000I0J-150000D01*
G01*
G37*
G36*
G01*
X138675000Y-94525000D02*
X138675000Y-94825000D01*
G75*
G02*
X138525000Y-94975000I-150000J0D01*
G01*
X136775000Y-94975000D01*
G75*
G02*
X136625000Y-94825000I0J150000D01*
G01*
X136625000Y-94525000D01*
G75*
G02*
X136775000Y-94375000I150000J0D01*
G01*
X138525000Y-94375000D01*
G75*
G02*
X138675000Y-94525000I0J-150000D01*
G01*
G37*
G36*
G01*
X138675000Y-93255000D02*
X138675000Y-93555000D01*
G75*
G02*
X138525000Y-93705000I-150000J0D01*
G01*
X136775000Y-93705000D01*
G75*
G02*
X136625000Y-93555000I0J150000D01*
G01*
X136625000Y-93255000D01*
G75*
G02*
X136775000Y-93105000I150000J0D01*
G01*
X138525000Y-93105000D01*
G75*
G02*
X138675000Y-93255000I0J-150000D01*
G01*
G37*
G36*
G01*
X138675000Y-91985000D02*
X138675000Y-92285000D01*
G75*
G02*
X138525000Y-92435000I-150000J0D01*
G01*
X136775000Y-92435000D01*
G75*
G02*
X136625000Y-92285000I0J150000D01*
G01*
X136625000Y-91985000D01*
G75*
G02*
X136775000Y-91835000I150000J0D01*
G01*
X138525000Y-91835000D01*
G75*
G02*
X138675000Y-91985000I0J-150000D01*
G01*
G37*
G36*
G01*
X138675000Y-90715000D02*
X138675000Y-91015000D01*
G75*
G02*
X138525000Y-91165000I-150000J0D01*
G01*
X136775000Y-91165000D01*
G75*
G02*
X136625000Y-91015000I0J150000D01*
G01*
X136625000Y-90715000D01*
G75*
G02*
X136775000Y-90565000I150000J0D01*
G01*
X138525000Y-90565000D01*
G75*
G02*
X138675000Y-90715000I0J-150000D01*
G01*
G37*
G36*
G01*
X138675000Y-89445000D02*
X138675000Y-89745000D01*
G75*
G02*
X138525000Y-89895000I-150000J0D01*
G01*
X136775000Y-89895000D01*
G75*
G02*
X136625000Y-89745000I0J150000D01*
G01*
X136625000Y-89445000D01*
G75*
G02*
X136775000Y-89295000I150000J0D01*
G01*
X138525000Y-89295000D01*
G75*
G02*
X138675000Y-89445000I0J-150000D01*
G01*
G37*
G36*
G01*
X138675000Y-88175000D02*
X138675000Y-88475000D01*
G75*
G02*
X138525000Y-88625000I-150000J0D01*
G01*
X136775000Y-88625000D01*
G75*
G02*
X136625000Y-88475000I0J150000D01*
G01*
X136625000Y-88175000D01*
G75*
G02*
X136775000Y-88025000I150000J0D01*
G01*
X138525000Y-88025000D01*
G75*
G02*
X138675000Y-88175000I0J-150000D01*
G01*
G37*
G36*
G01*
X138675000Y-86905000D02*
X138675000Y-87205000D01*
G75*
G02*
X138525000Y-87355000I-150000J0D01*
G01*
X136775000Y-87355000D01*
G75*
G02*
X136625000Y-87205000I0J150000D01*
G01*
X136625000Y-86905000D01*
G75*
G02*
X136775000Y-86755000I150000J0D01*
G01*
X138525000Y-86755000D01*
G75*
G02*
X138675000Y-86905000I0J-150000D01*
G01*
G37*
G36*
G01*
X138675000Y-85635000D02*
X138675000Y-85935000D01*
G75*
G02*
X138525000Y-86085000I-150000J0D01*
G01*
X136775000Y-86085000D01*
G75*
G02*
X136625000Y-85935000I0J150000D01*
G01*
X136625000Y-85635000D01*
G75*
G02*
X136775000Y-85485000I150000J0D01*
G01*
X138525000Y-85485000D01*
G75*
G02*
X138675000Y-85635000I0J-150000D01*
G01*
G37*
G36*
G01*
X138675000Y-84365000D02*
X138675000Y-84665000D01*
G75*
G02*
X138525000Y-84815000I-150000J0D01*
G01*
X136775000Y-84815000D01*
G75*
G02*
X136625000Y-84665000I0J150000D01*
G01*
X136625000Y-84365000D01*
G75*
G02*
X136775000Y-84215000I150000J0D01*
G01*
X138525000Y-84215000D01*
G75*
G02*
X138675000Y-84365000I0J-150000D01*
G01*
G37*
G36*
G01*
X138675000Y-83095000D02*
X138675000Y-83395000D01*
G75*
G02*
X138525000Y-83545000I-150000J0D01*
G01*
X136775000Y-83545000D01*
G75*
G02*
X136625000Y-83395000I0J150000D01*
G01*
X136625000Y-83095000D01*
G75*
G02*
X136775000Y-82945000I150000J0D01*
G01*
X138525000Y-82945000D01*
G75*
G02*
X138675000Y-83095000I0J-150000D01*
G01*
G37*
G36*
G01*
X129375000Y-83095000D02*
X129375000Y-83395000D01*
G75*
G02*
X129225000Y-83545000I-150000J0D01*
G01*
X127475000Y-83545000D01*
G75*
G02*
X127325000Y-83395000I0J150000D01*
G01*
X127325000Y-83095000D01*
G75*
G02*
X127475000Y-82945000I150000J0D01*
G01*
X129225000Y-82945000D01*
G75*
G02*
X129375000Y-83095000I0J-150000D01*
G01*
G37*
G36*
G01*
X129375000Y-84365000D02*
X129375000Y-84665000D01*
G75*
G02*
X129225000Y-84815000I-150000J0D01*
G01*
X127475000Y-84815000D01*
G75*
G02*
X127325000Y-84665000I0J150000D01*
G01*
X127325000Y-84365000D01*
G75*
G02*
X127475000Y-84215000I150000J0D01*
G01*
X129225000Y-84215000D01*
G75*
G02*
X129375000Y-84365000I0J-150000D01*
G01*
G37*
G36*
G01*
X129375000Y-85635000D02*
X129375000Y-85935000D01*
G75*
G02*
X129225000Y-86085000I-150000J0D01*
G01*
X127475000Y-86085000D01*
G75*
G02*
X127325000Y-85935000I0J150000D01*
G01*
X127325000Y-85635000D01*
G75*
G02*
X127475000Y-85485000I150000J0D01*
G01*
X129225000Y-85485000D01*
G75*
G02*
X129375000Y-85635000I0J-150000D01*
G01*
G37*
G36*
G01*
X129375000Y-86905000D02*
X129375000Y-87205000D01*
G75*
G02*
X129225000Y-87355000I-150000J0D01*
G01*
X127475000Y-87355000D01*
G75*
G02*
X127325000Y-87205000I0J150000D01*
G01*
X127325000Y-86905000D01*
G75*
G02*
X127475000Y-86755000I150000J0D01*
G01*
X129225000Y-86755000D01*
G75*
G02*
X129375000Y-86905000I0J-150000D01*
G01*
G37*
G36*
G01*
X129375000Y-88175000D02*
X129375000Y-88475000D01*
G75*
G02*
X129225000Y-88625000I-150000J0D01*
G01*
X127475000Y-88625000D01*
G75*
G02*
X127325000Y-88475000I0J150000D01*
G01*
X127325000Y-88175000D01*
G75*
G02*
X127475000Y-88025000I150000J0D01*
G01*
X129225000Y-88025000D01*
G75*
G02*
X129375000Y-88175000I0J-150000D01*
G01*
G37*
G36*
G01*
X129375000Y-89445000D02*
X129375000Y-89745000D01*
G75*
G02*
X129225000Y-89895000I-150000J0D01*
G01*
X127475000Y-89895000D01*
G75*
G02*
X127325000Y-89745000I0J150000D01*
G01*
X127325000Y-89445000D01*
G75*
G02*
X127475000Y-89295000I150000J0D01*
G01*
X129225000Y-89295000D01*
G75*
G02*
X129375000Y-89445000I0J-150000D01*
G01*
G37*
G36*
G01*
X129375000Y-90715000D02*
X129375000Y-91015000D01*
G75*
G02*
X129225000Y-91165000I-150000J0D01*
G01*
X127475000Y-91165000D01*
G75*
G02*
X127325000Y-91015000I0J150000D01*
G01*
X127325000Y-90715000D01*
G75*
G02*
X127475000Y-90565000I150000J0D01*
G01*
X129225000Y-90565000D01*
G75*
G02*
X129375000Y-90715000I0J-150000D01*
G01*
G37*
G36*
G01*
X129375000Y-91985000D02*
X129375000Y-92285000D01*
G75*
G02*
X129225000Y-92435000I-150000J0D01*
G01*
X127475000Y-92435000D01*
G75*
G02*
X127325000Y-92285000I0J150000D01*
G01*
X127325000Y-91985000D01*
G75*
G02*
X127475000Y-91835000I150000J0D01*
G01*
X129225000Y-91835000D01*
G75*
G02*
X129375000Y-91985000I0J-150000D01*
G01*
G37*
G36*
G01*
X129375000Y-93255000D02*
X129375000Y-93555000D01*
G75*
G02*
X129225000Y-93705000I-150000J0D01*
G01*
X127475000Y-93705000D01*
G75*
G02*
X127325000Y-93555000I0J150000D01*
G01*
X127325000Y-93255000D01*
G75*
G02*
X127475000Y-93105000I150000J0D01*
G01*
X129225000Y-93105000D01*
G75*
G02*
X129375000Y-93255000I0J-150000D01*
G01*
G37*
G36*
G01*
X129375000Y-94525000D02*
X129375000Y-94825000D01*
G75*
G02*
X129225000Y-94975000I-150000J0D01*
G01*
X127475000Y-94975000D01*
G75*
G02*
X127325000Y-94825000I0J150000D01*
G01*
X127325000Y-94525000D01*
G75*
G02*
X127475000Y-94375000I150000J0D01*
G01*
X129225000Y-94375000D01*
G75*
G02*
X129375000Y-94525000I0J-150000D01*
G01*
G37*
G36*
G01*
X129375000Y-95795000D02*
X129375000Y-96095000D01*
G75*
G02*
X129225000Y-96245000I-150000J0D01*
G01*
X127475000Y-96245000D01*
G75*
G02*
X127325000Y-96095000I0J150000D01*
G01*
X127325000Y-95795000D01*
G75*
G02*
X127475000Y-95645000I150000J0D01*
G01*
X129225000Y-95645000D01*
G75*
G02*
X129375000Y-95795000I0J-150000D01*
G01*
G37*
G36*
G01*
X129375000Y-97065000D02*
X129375000Y-97365000D01*
G75*
G02*
X129225000Y-97515000I-150000J0D01*
G01*
X127475000Y-97515000D01*
G75*
G02*
X127325000Y-97365000I0J150000D01*
G01*
X127325000Y-97065000D01*
G75*
G02*
X127475000Y-96915000I150000J0D01*
G01*
X129225000Y-96915000D01*
G75*
G02*
X129375000Y-97065000I0J-150000D01*
G01*
G37*
G36*
G01*
X129375000Y-98335000D02*
X129375000Y-98635000D01*
G75*
G02*
X129225000Y-98785000I-150000J0D01*
G01*
X127475000Y-98785000D01*
G75*
G02*
X127325000Y-98635000I0J150000D01*
G01*
X127325000Y-98335000D01*
G75*
G02*
X127475000Y-98185000I150000J0D01*
G01*
X129225000Y-98185000D01*
G75*
G02*
X129375000Y-98335000I0J-150000D01*
G01*
G37*
G36*
G01*
X129375000Y-99605000D02*
X129375000Y-99905000D01*
G75*
G02*
X129225000Y-100055000I-150000J0D01*
G01*
X127475000Y-100055000D01*
G75*
G02*
X127325000Y-99905000I0J150000D01*
G01*
X127325000Y-99605000D01*
G75*
G02*
X127475000Y-99455000I150000J0D01*
G01*
X129225000Y-99455000D01*
G75*
G02*
X129375000Y-99605000I0J-150000D01*
G01*
G37*
%TD*%
M02*
