M48
; DRILL file {KiCad (6.0.4)} date Mon 04 Apr 2022 09:53:34 PM CEST
; FORMAT={-:-/ absolute / metric / decimal}
; #@! TF.CreationDate,2022-04-04T21:53:34+02:00
; #@! TF.GenerationSoftware,Kicad,Pcbnew,(6.0.4)
; #@! TF.FileFunction,Plated,1,2,PTH
FMAT,2
METRIC
; #@! TA.AperFunction,Plated,PTH,ViaDrill
T1C0.400
; #@! TA.AperFunction,Plated,PTH,ComponentDrill
T2C0.600
; #@! TA.AperFunction,Plated,PTH,ComponentDrill
T3C0.800
; #@! TA.AperFunction,Plated,PTH,ComponentDrill
T4C0.889
; #@! TA.AperFunction,Plated,PTH,ComponentDrill
T5C0.900
; #@! TA.AperFunction,Plated,PTH,ComponentDrill
T6C1.000
; #@! TA.AperFunction,Plated,PTH,ComponentDrill
T7C3.200
%
G90
G05
T1
X104.18Y-108.14
X105.31Y-74.63
X105.89Y-90.39
X111.57Y-72.73
X111.81Y-76.36
X112.7Y-116.68
X118.27Y-80.11
X118.56Y-72.72
X121.6Y-104.6
X122.8Y-107.0
X123.76Y-62.25
X125.49Y-66.89
X125.83Y-83.17
X125.83Y-84.445
X125.83Y-85.72
X126.19Y-68.87
X129.65Y-68.94
X132.0Y-74.3
X140.54Y-72.85
X143.49Y-80.01
X143.88Y-88.25
X145.5Y-104.1
X145.5Y-105.2
X145.82Y-80.0
X145.99Y-72.89
X147.0Y-72.9
X148.0Y-72.9
X156.65Y-88.82
X162.25Y-87.91
X164.92Y-90.92
X169.57Y-78.94
X170.54Y-87.88
T2
X144.7Y-84.5
X144.7Y-86.0
T3
X98.15Y-93.34
X98.15Y-103.5
X124.5Y-75.5
X124.5Y-79.0
X134.66Y-75.5
X134.66Y-79.0
T4
X107.6Y-114.3
X108.87Y-111.76
X110.14Y-114.3
X111.41Y-111.76
X112.68Y-114.3
X113.95Y-111.76
X115.22Y-114.3
X116.49Y-111.76
X121.57Y-114.3
X122.84Y-111.76
X124.11Y-114.3
X125.38Y-111.76
X126.65Y-114.3
X127.92Y-111.76
X129.19Y-114.3
X130.46Y-111.76
X135.54Y-114.3
X136.81Y-111.76
X138.08Y-114.3
X139.35Y-111.76
X140.62Y-114.3
X141.89Y-111.76
X143.16Y-114.3
X144.43Y-111.76
X149.51Y-114.3
X150.78Y-111.76
X152.05Y-114.3
X153.32Y-111.76
X154.59Y-114.3
X155.86Y-111.76
X157.13Y-114.3
X158.4Y-111.76
T5
X104.3Y-104.5
X106.84Y-104.5
T6
X98.6Y-77.6
X98.6Y-80.14
X98.6Y-82.68
X98.6Y-85.22
X101.14Y-77.6
X101.14Y-80.14
X101.14Y-82.68
X101.14Y-85.22
X104.65Y-94.96
X104.65Y-97.5
X107.19Y-94.96
X107.19Y-97.5
X111.63Y-82.97
X111.63Y-85.51
X114.17Y-82.97
X114.17Y-85.51
X116.13Y-65.55
X116.13Y-68.09
X116.71Y-82.97
X116.71Y-85.51
X118.67Y-65.55
X118.67Y-68.09
X119.25Y-82.97
X119.25Y-85.51
X121.21Y-65.55
X121.21Y-68.09
X123.75Y-65.55
X123.75Y-68.09
X137.35Y-65.5
X137.35Y-68.04
X139.89Y-65.5
X139.89Y-68.04
X142.43Y-65.5
X142.43Y-68.04
X144.97Y-65.5
X144.97Y-68.04
X147.51Y-65.5
X147.51Y-68.04
X150.05Y-65.5
X150.05Y-68.04
X152.4Y-79.66
X152.4Y-82.2
X154.94Y-79.66
X154.94Y-82.2
X159.0Y-94.96
X159.0Y-97.5
X161.54Y-94.96
X161.54Y-97.5
X164.86Y-77.58
X164.86Y-80.12
X164.86Y-82.66
X164.86Y-85.2
X167.4Y-77.58
X167.4Y-80.12
X167.4Y-82.66
X167.4Y-85.2
T7
X98.0Y-65.0
X98.0Y-120.0
X168.0Y-65.0
X168.0Y-120.0
T0
M30
