%TF.GenerationSoftware,KiCad,Pcbnew,(6.0.4)*%
%TF.CreationDate,2022-04-04T21:53:05+02:00*%
%TF.ProjectId,SWITCH_INPUT_BOARD,53574954-4348-45f4-994e-5055545f424f,rev?*%
%TF.SameCoordinates,Original*%
%TF.FileFunction,Legend,Top*%
%TF.FilePolarity,Positive*%
%FSLAX46Y46*%
G04 Gerber Fmt 4.6, Leading zero omitted, Abs format (unit mm)*
G04 Created by KiCad (PCBNEW (6.0.4)) date 2022-04-04 21:53:05*
%MOMM*%
%LPD*%
G01*
G04 APERTURE LIST*
G04 Aperture macros list*
%AMRoundRect*
0 Rectangle with rounded corners*
0 $1 Rounding radius*
0 $2 $3 $4 $5 $6 $7 $8 $9 X,Y pos of 4 corners*
0 Add a 4 corners polygon primitive as box body*
4,1,4,$2,$3,$4,$5,$6,$7,$8,$9,$2,$3,0*
0 Add four circle primitives for the rounded corners*
1,1,$1+$1,$2,$3*
1,1,$1+$1,$4,$5*
1,1,$1+$1,$6,$7*
1,1,$1+$1,$8,$9*
0 Add four rect primitives between the rounded corners*
20,1,$1+$1,$2,$3,$4,$5,0*
20,1,$1+$1,$4,$5,$6,$7,0*
20,1,$1+$1,$6,$7,$8,$9,0*
20,1,$1+$1,$8,$9,$2,$3,0*%
G04 Aperture macros list end*
%ADD10C,0.200000*%
%ADD11C,0.150000*%
%ADD12C,0.170000*%
%ADD13C,0.125000*%
%ADD14C,0.175000*%
%ADD15C,0.120000*%
%ADD16C,0.010000*%
%ADD17C,1.600000*%
%ADD18O,1.600000X1.600000*%
%ADD19R,0.900000X0.900000*%
%ADD20RoundRect,0.150000X0.875000X0.150000X-0.875000X0.150000X-0.875000X-0.150000X0.875000X-0.150000X0*%
%ADD21RoundRect,0.250000X-0.600000X0.600000X-0.600000X-0.600000X0.600000X-0.600000X0.600000X0.600000X0*%
%ADD22C,1.700000*%
%ADD23C,5.600000*%
%ADD24C,1.600200*%
%ADD25C,3.200400*%
%ADD26C,1.397000*%
%ADD27RoundRect,0.250000X-0.600000X-0.600000X0.600000X-0.600000X0.600000X0.600000X-0.600000X0.600000X0*%
%ADD28RoundRect,0.250000X0.600000X0.600000X-0.600000X0.600000X-0.600000X-0.600000X0.600000X-0.600000X0*%
%ADD29R,1.200000X1.200000*%
%ADD30C,1.200000*%
%ADD31RoundRect,0.243750X-0.243750X-0.456250X0.243750X-0.456250X0.243750X0.456250X-0.243750X0.456250X0*%
%ADD32RoundRect,0.237500X0.237500X-0.250000X0.237500X0.250000X-0.237500X0.250000X-0.237500X-0.250000X0*%
%ADD33R,1.800000X1.800000*%
%ADD34C,1.800000*%
%ADD35RoundRect,0.249600X-1.050400X-0.550400X1.050400X-0.550400X1.050400X0.550400X-1.050400X0.550400X0*%
%ADD36RoundRect,0.237500X-0.250000X-0.237500X0.250000X-0.237500X0.250000X0.237500X-0.250000X0.237500X0*%
%ADD37R,1.700000X1.700000*%
%ADD38O,1.700000X1.700000*%
G04 APERTURE END LIST*
D10*
X172022857Y-82792857D02*
X172094285Y-82578571D01*
X172165714Y-82507142D01*
X172308571Y-82435714D01*
X172522857Y-82435714D01*
X172665714Y-82507142D01*
X172737142Y-82578571D01*
X172808571Y-82721428D01*
X172808571Y-83292857D01*
X171308571Y-83292857D01*
X171308571Y-82792857D01*
X171380000Y-82650000D01*
X171451428Y-82578571D01*
X171594285Y-82507142D01*
X171737142Y-82507142D01*
X171880000Y-82578571D01*
X171951428Y-82650000D01*
X172022857Y-82792857D01*
X172022857Y-83292857D01*
X171308571Y-81792857D02*
X172522857Y-81792857D01*
X172665714Y-81721428D01*
X172737142Y-81650000D01*
X172808571Y-81507142D01*
X172808571Y-81221428D01*
X172737142Y-81078571D01*
X172665714Y-81007142D01*
X172522857Y-80935714D01*
X171308571Y-80935714D01*
X172737142Y-80292857D02*
X172808571Y-80078571D01*
X172808571Y-79721428D01*
X172737142Y-79578571D01*
X172665714Y-79507142D01*
X172522857Y-79435714D01*
X172380000Y-79435714D01*
X172237142Y-79507142D01*
X172165714Y-79578571D01*
X172094285Y-79721428D01*
X172022857Y-80007142D01*
X171951428Y-80150000D01*
X171880000Y-80221428D01*
X171737142Y-80292857D01*
X171594285Y-80292857D01*
X171451428Y-80221428D01*
X171380000Y-80150000D01*
X171308571Y-80007142D01*
X171308571Y-79650000D01*
X171380000Y-79435714D01*
X145517142Y-60560000D02*
X144802857Y-60560000D01*
X145660000Y-60131428D02*
X145160000Y-61631428D01*
X144660000Y-60131428D01*
X144160000Y-61631428D02*
X144160000Y-60417142D01*
X144088571Y-60274285D01*
X144017142Y-60202857D01*
X143874285Y-60131428D01*
X143588571Y-60131428D01*
X143445714Y-60202857D01*
X143374285Y-60274285D01*
X143302857Y-60417142D01*
X143302857Y-61631428D01*
X142731428Y-61631428D02*
X141731428Y-60131428D01*
X141731428Y-61631428D02*
X142731428Y-60131428D01*
D11*
X104461904Y-100066666D02*
X104938095Y-100066666D01*
X104366666Y-100352380D02*
X104700000Y-99352380D01*
X105033333Y-100352380D01*
X107221428Y-99828571D02*
X107364285Y-99876190D01*
X107411904Y-99923809D01*
X107459523Y-100019047D01*
X107459523Y-100161904D01*
X107411904Y-100257142D01*
X107364285Y-100304761D01*
X107269047Y-100352380D01*
X106888095Y-100352380D01*
X106888095Y-99352380D01*
X107221428Y-99352380D01*
X107316666Y-99400000D01*
X107364285Y-99447619D01*
X107411904Y-99542857D01*
X107411904Y-99638095D01*
X107364285Y-99733333D01*
X107316666Y-99780952D01*
X107221428Y-99828571D01*
X106888095Y-99828571D01*
X161238095Y-100452380D02*
X161238095Y-99452380D01*
X161476190Y-99452380D01*
X161619047Y-99500000D01*
X161714285Y-99595238D01*
X161761904Y-99690476D01*
X161809523Y-99880952D01*
X161809523Y-100023809D01*
X161761904Y-100214285D01*
X161714285Y-100309523D01*
X161619047Y-100404761D01*
X161476190Y-100452380D01*
X161238095Y-100452380D01*
D12*
X126811905Y-107940474D02*
X126997619Y-108002379D01*
X127059524Y-108064284D01*
X127121428Y-108188093D01*
X127121428Y-108373808D01*
X127059524Y-108497617D01*
X126997619Y-108559522D01*
X126873809Y-108621427D01*
X126378571Y-108621427D01*
X126378571Y-107321427D01*
X126811905Y-107321427D01*
X126935714Y-107383332D01*
X126997619Y-107445236D01*
X127059524Y-107569046D01*
X127059524Y-107692855D01*
X126997619Y-107816665D01*
X126935714Y-107878570D01*
X126811905Y-107940474D01*
X126378571Y-107940474D01*
X154359523Y-108688093D02*
X154359523Y-107388093D01*
X154669047Y-107388093D01*
X154854761Y-107449998D01*
X154978571Y-107573807D01*
X155040476Y-107697617D01*
X155102380Y-107945236D01*
X155102380Y-108130950D01*
X155040476Y-108378569D01*
X154978571Y-108502378D01*
X154854761Y-108626188D01*
X154669047Y-108688093D01*
X154359523Y-108688093D01*
D11*
X110875714Y-80596666D02*
X111351904Y-80596666D01*
X110780476Y-80882380D02*
X111113809Y-79882380D01*
X111447142Y-80882380D01*
X111970952Y-79882380D02*
X112066190Y-79882380D01*
X112161428Y-79930000D01*
X112209047Y-79977619D01*
X112256666Y-80072857D01*
X112304285Y-80263333D01*
X112304285Y-80501428D01*
X112256666Y-80691904D01*
X112209047Y-80787142D01*
X112161428Y-80834761D01*
X112066190Y-80882380D01*
X111970952Y-80882380D01*
X111875714Y-80834761D01*
X111828095Y-80787142D01*
X111780476Y-80691904D01*
X111732857Y-80501428D01*
X111732857Y-80263333D01*
X111780476Y-80072857D01*
X111828095Y-79977619D01*
X111875714Y-79930000D01*
X111970952Y-79882380D01*
X113290317Y-80596666D02*
X113766507Y-80596666D01*
X113195079Y-80882380D02*
X113528412Y-79882380D01*
X113861745Y-80882380D01*
X114718888Y-80882380D02*
X114147460Y-80882380D01*
X114433174Y-80882380D02*
X114433174Y-79882380D01*
X114337936Y-80025238D01*
X114242698Y-80120476D01*
X114147460Y-80168095D01*
X115704920Y-80596666D02*
X116181110Y-80596666D01*
X115609682Y-80882380D02*
X115943015Y-79882380D01*
X116276348Y-80882380D01*
X116562063Y-79977619D02*
X116609682Y-79930000D01*
X116704920Y-79882380D01*
X116943015Y-79882380D01*
X117038253Y-79930000D01*
X117085872Y-79977619D01*
X117133491Y-80072857D01*
X117133491Y-80168095D01*
X117085872Y-80310952D01*
X116514444Y-80882380D01*
X117133491Y-80882380D01*
X118621904Y-80882380D02*
X118355238Y-80406190D01*
X118164761Y-80882380D02*
X118164761Y-79882380D01*
X118469523Y-79882380D01*
X118545714Y-79930000D01*
X118583809Y-79977619D01*
X118621904Y-80072857D01*
X118621904Y-80215714D01*
X118583809Y-80310952D01*
X118545714Y-80358571D01*
X118469523Y-80406190D01*
X118164761Y-80406190D01*
X118926666Y-80834761D02*
X119040952Y-80882380D01*
X119231428Y-80882380D01*
X119307619Y-80834761D01*
X119345714Y-80787142D01*
X119383809Y-80691904D01*
X119383809Y-80596666D01*
X119345714Y-80501428D01*
X119307619Y-80453809D01*
X119231428Y-80406190D01*
X119079047Y-80358571D01*
X119002857Y-80310952D01*
X118964761Y-80263333D01*
X118926666Y-80168095D01*
X118926666Y-80072857D01*
X118964761Y-79977619D01*
X119002857Y-79930000D01*
X119079047Y-79882380D01*
X119269523Y-79882380D01*
X119383809Y-79930000D01*
X119612380Y-79882380D02*
X120069523Y-79882380D01*
X119840952Y-80882380D02*
X119840952Y-79882380D01*
X159309523Y-100357142D02*
X159261904Y-100404761D01*
X159119047Y-100452380D01*
X159023809Y-100452380D01*
X158880952Y-100404761D01*
X158785714Y-100309523D01*
X158738095Y-100214285D01*
X158690476Y-100023809D01*
X158690476Y-99880952D01*
X158738095Y-99690476D01*
X158785714Y-99595238D01*
X158880952Y-99500000D01*
X159023809Y-99452380D01*
X159119047Y-99452380D01*
X159261904Y-99500000D01*
X159309523Y-99547619D01*
X158654761Y-91952380D02*
X159226190Y-91952380D01*
X158940476Y-92952380D02*
X158940476Y-91952380D01*
X159559523Y-92428571D02*
X159892857Y-92428571D01*
X160035714Y-92952380D02*
X159559523Y-92952380D01*
X159559523Y-91952380D01*
X160035714Y-91952380D01*
X160416666Y-92904761D02*
X160559523Y-92952380D01*
X160797619Y-92952380D01*
X160892857Y-92904761D01*
X160940476Y-92857142D01*
X160988095Y-92761904D01*
X160988095Y-92666666D01*
X160940476Y-92571428D01*
X160892857Y-92523809D01*
X160797619Y-92476190D01*
X160607142Y-92428571D01*
X160511904Y-92380952D01*
X160464285Y-92333333D01*
X160416666Y-92238095D01*
X160416666Y-92142857D01*
X160464285Y-92047619D01*
X160511904Y-92000000D01*
X160607142Y-91952380D01*
X160845238Y-91952380D01*
X160988095Y-92000000D01*
X161273809Y-91952380D02*
X161845238Y-91952380D01*
X161559523Y-92952380D02*
X161559523Y-91952380D01*
X126985714Y-76267857D02*
X127652380Y-76267857D01*
X126604761Y-76446428D02*
X127319047Y-76625000D01*
X127319047Y-76160714D01*
X127557142Y-75875000D02*
X127604761Y-75839285D01*
X127652380Y-75875000D01*
X127604761Y-75910714D01*
X127557142Y-75875000D01*
X127652380Y-75875000D01*
X126652380Y-75589285D02*
X126652380Y-75089285D01*
X127652380Y-75410714D01*
X127652380Y-74803571D02*
X126652380Y-74803571D01*
X127652380Y-74375000D02*
X127080952Y-74696428D01*
X126652380Y-74375000D02*
X127223809Y-74803571D01*
X108020119Y-84117380D02*
X108020119Y-83117380D01*
X108362976Y-83212619D02*
X108401071Y-83165000D01*
X108477261Y-83117380D01*
X108667738Y-83117380D01*
X108743928Y-83165000D01*
X108782023Y-83212619D01*
X108820119Y-83307857D01*
X108820119Y-83403095D01*
X108782023Y-83545952D01*
X108324880Y-84117380D01*
X108820119Y-84117380D01*
X109620119Y-84022142D02*
X109582023Y-84069761D01*
X109467738Y-84117380D01*
X109391547Y-84117380D01*
X109277261Y-84069761D01*
X109201071Y-83974523D01*
X109162976Y-83879285D01*
X109124880Y-83688809D01*
X109124880Y-83545952D01*
X109162976Y-83355476D01*
X109201071Y-83260238D01*
X109277261Y-83165000D01*
X109391547Y-83117380D01*
X109467738Y-83117380D01*
X109582023Y-83165000D01*
X109620119Y-83212619D01*
X105315357Y-85441666D02*
X105696309Y-85441666D01*
X105239166Y-85727380D02*
X105505833Y-84727380D01*
X105772500Y-85727380D01*
X106382023Y-85727380D02*
X106382023Y-84727380D01*
X106382023Y-85679761D02*
X106305833Y-85727380D01*
X106153452Y-85727380D01*
X106077261Y-85679761D01*
X106039166Y-85632142D01*
X106001071Y-85536904D01*
X106001071Y-85251190D01*
X106039166Y-85155952D01*
X106077261Y-85108333D01*
X106153452Y-85060714D01*
X106305833Y-85060714D01*
X106382023Y-85108333D01*
X107105833Y-85727380D02*
X107105833Y-84727380D01*
X107105833Y-85679761D02*
X107029642Y-85727380D01*
X106877261Y-85727380D01*
X106801071Y-85679761D01*
X106762976Y-85632142D01*
X106724880Y-85536904D01*
X106724880Y-85251190D01*
X106762976Y-85155952D01*
X106801071Y-85108333D01*
X106877261Y-85060714D01*
X107029642Y-85060714D01*
X107105833Y-85108333D01*
X107486785Y-85727380D02*
X107486785Y-85060714D01*
X107486785Y-85251190D02*
X107524880Y-85155952D01*
X107562976Y-85108333D01*
X107639166Y-85060714D01*
X107715357Y-85060714D01*
X108286785Y-85679761D02*
X108210595Y-85727380D01*
X108058214Y-85727380D01*
X107982023Y-85679761D01*
X107943928Y-85584523D01*
X107943928Y-85203571D01*
X107982023Y-85108333D01*
X108058214Y-85060714D01*
X108210595Y-85060714D01*
X108286785Y-85108333D01*
X108324880Y-85203571D01*
X108324880Y-85298809D01*
X107943928Y-85394047D01*
X108629642Y-85679761D02*
X108705833Y-85727380D01*
X108858214Y-85727380D01*
X108934404Y-85679761D01*
X108972500Y-85584523D01*
X108972500Y-85536904D01*
X108934404Y-85441666D01*
X108858214Y-85394047D01*
X108743928Y-85394047D01*
X108667738Y-85346428D01*
X108629642Y-85251190D01*
X108629642Y-85203571D01*
X108667738Y-85108333D01*
X108743928Y-85060714D01*
X108858214Y-85060714D01*
X108934404Y-85108333D01*
X109277261Y-85679761D02*
X109353452Y-85727380D01*
X109505833Y-85727380D01*
X109582023Y-85679761D01*
X109620119Y-85584523D01*
X109620119Y-85536904D01*
X109582023Y-85441666D01*
X109505833Y-85394047D01*
X109391547Y-85394047D01*
X109315357Y-85346428D01*
X109277261Y-85251190D01*
X109277261Y-85203571D01*
X109315357Y-85108333D01*
X109391547Y-85060714D01*
X109505833Y-85060714D01*
X109582023Y-85108333D01*
X152647619Y-85152380D02*
X152076190Y-85152380D01*
X152361904Y-85152380D02*
X152361904Y-84152380D01*
X152266666Y-84295238D01*
X152171428Y-84390476D01*
X152076190Y-84438095D01*
X154552380Y-84247619D02*
X154600000Y-84200000D01*
X154695238Y-84152380D01*
X154933333Y-84152380D01*
X155028571Y-84200000D01*
X155076190Y-84247619D01*
X155123809Y-84342857D01*
X155123809Y-84438095D01*
X155076190Y-84580952D01*
X154504761Y-85152380D01*
X155123809Y-85152380D01*
X152952380Y-99290476D02*
X152952380Y-99861904D01*
X152952380Y-99576190D02*
X151952380Y-99576190D01*
X152095238Y-99671428D01*
X152190476Y-99766666D01*
X152238095Y-99861904D01*
X151952380Y-98671428D02*
X151952380Y-98576190D01*
X152000000Y-98480952D01*
X152047619Y-98433333D01*
X152142857Y-98385714D01*
X152333333Y-98338095D01*
X152571428Y-98338095D01*
X152761904Y-98385714D01*
X152857142Y-98433333D01*
X152904761Y-98480952D01*
X152952380Y-98576190D01*
X152952380Y-98671428D01*
X152904761Y-98766666D01*
X152857142Y-98814285D01*
X152761904Y-98861904D01*
X152571428Y-98909523D01*
X152333333Y-98909523D01*
X152142857Y-98861904D01*
X152047619Y-98814285D01*
X152000000Y-98766666D01*
X151952380Y-98671428D01*
X152952380Y-97909523D02*
X151952380Y-97909523D01*
X152952380Y-97338095D02*
X152380952Y-97766666D01*
X151952380Y-97338095D02*
X152523809Y-97909523D01*
X113852380Y-99290476D02*
X113852380Y-99861904D01*
X113852380Y-99576190D02*
X112852380Y-99576190D01*
X112995238Y-99671428D01*
X113090476Y-99766666D01*
X113138095Y-99861904D01*
X112852380Y-98671428D02*
X112852380Y-98576190D01*
X112900000Y-98480952D01*
X112947619Y-98433333D01*
X113042857Y-98385714D01*
X113233333Y-98338095D01*
X113471428Y-98338095D01*
X113661904Y-98385714D01*
X113757142Y-98433333D01*
X113804761Y-98480952D01*
X113852380Y-98576190D01*
X113852380Y-98671428D01*
X113804761Y-98766666D01*
X113757142Y-98814285D01*
X113661904Y-98861904D01*
X113471428Y-98909523D01*
X113233333Y-98909523D01*
X113042857Y-98861904D01*
X112947619Y-98814285D01*
X112900000Y-98766666D01*
X112852380Y-98671428D01*
X113852380Y-97909523D02*
X112852380Y-97909523D01*
X113852380Y-97338095D02*
X113280952Y-97766666D01*
X112852380Y-97338095D02*
X113423809Y-97909523D01*
X145452380Y-98814285D02*
X145452380Y-99385714D01*
X145452380Y-99100000D02*
X144452380Y-99100000D01*
X144595238Y-99195238D01*
X144690476Y-99290476D01*
X144738095Y-99385714D01*
X145452380Y-98385714D02*
X144452380Y-98385714D01*
X145452380Y-97814285D02*
X144880952Y-98242857D01*
X144452380Y-97814285D02*
X145023809Y-98385714D01*
D12*
X112490476Y-108183332D02*
X113109523Y-108183332D01*
X112366666Y-108554761D02*
X112800000Y-107254761D01*
X113233333Y-108554761D01*
D11*
X104304761Y-92052380D02*
X104876190Y-92052380D01*
X104590476Y-93052380D02*
X104590476Y-92052380D01*
X105209523Y-92528571D02*
X105542857Y-92528571D01*
X105685714Y-93052380D02*
X105209523Y-93052380D01*
X105209523Y-92052380D01*
X105685714Y-92052380D01*
X106066666Y-93004761D02*
X106209523Y-93052380D01*
X106447619Y-93052380D01*
X106542857Y-93004761D01*
X106590476Y-92957142D01*
X106638095Y-92861904D01*
X106638095Y-92766666D01*
X106590476Y-92671428D01*
X106542857Y-92623809D01*
X106447619Y-92576190D01*
X106257142Y-92528571D01*
X106161904Y-92480952D01*
X106114285Y-92433333D01*
X106066666Y-92338095D01*
X106066666Y-92242857D01*
X106114285Y-92147619D01*
X106161904Y-92100000D01*
X106257142Y-92052380D01*
X106495238Y-92052380D01*
X106638095Y-92100000D01*
X106923809Y-92052380D02*
X107495238Y-92052380D01*
X107209523Y-93052380D02*
X107209523Y-92052380D01*
X121352380Y-98814285D02*
X121352380Y-99385714D01*
X121352380Y-99100000D02*
X120352380Y-99100000D01*
X120495238Y-99195238D01*
X120590476Y-99290476D01*
X120638095Y-99385714D01*
X121352380Y-98385714D02*
X120352380Y-98385714D01*
X121352380Y-97814285D02*
X120780952Y-98242857D01*
X120352380Y-97814285D02*
X120923809Y-98385714D01*
D13*
X150797619Y-76297619D02*
X150821428Y-76250000D01*
X150869047Y-76202380D01*
X150988095Y-76202380D01*
X151035714Y-76250000D01*
X151059523Y-76297619D01*
X151083333Y-76392857D01*
X151083333Y-76488095D01*
X151059523Y-76630952D01*
X150773809Y-77202380D01*
X151083333Y-77202380D01*
X151297619Y-77107142D02*
X151321428Y-77154761D01*
X151297619Y-77202380D01*
X151273809Y-77154761D01*
X151297619Y-77107142D01*
X151297619Y-77202380D01*
X151297619Y-76583333D02*
X151321428Y-76630952D01*
X151297619Y-76678571D01*
X151273809Y-76630952D01*
X151297619Y-76583333D01*
X151297619Y-76678571D01*
X151916666Y-77202380D02*
X151916666Y-76202380D01*
X152107142Y-76202380D01*
X152154761Y-76250000D01*
X152178571Y-76297619D01*
X152202380Y-76392857D01*
X152202380Y-76535714D01*
X152178571Y-76630952D01*
X152154761Y-76678571D01*
X152107142Y-76726190D01*
X151916666Y-76726190D01*
X152416666Y-76202380D02*
X152416666Y-77011904D01*
X152440476Y-77107142D01*
X152464285Y-77154761D01*
X152511904Y-77202380D01*
X152607142Y-77202380D01*
X152654761Y-77154761D01*
X152678571Y-77107142D01*
X152702380Y-77011904D01*
X152702380Y-76202380D01*
X153178571Y-77202380D02*
X152940476Y-77202380D01*
X152940476Y-76202380D01*
X153583333Y-77202380D02*
X153345238Y-77202380D01*
X153345238Y-76202380D01*
X153750000Y-76821428D02*
X154130952Y-76821428D01*
X154369047Y-76535714D02*
X154750000Y-76821428D01*
X154369047Y-77107142D01*
X154916666Y-76202380D02*
X155083333Y-77202380D01*
X155250000Y-76202380D01*
X155702380Y-77107142D02*
X155678571Y-77154761D01*
X155607142Y-77202380D01*
X155559523Y-77202380D01*
X155488095Y-77154761D01*
X155440476Y-77059523D01*
X155416666Y-76964285D01*
X155392857Y-76773809D01*
X155392857Y-76630952D01*
X155416666Y-76440476D01*
X155440476Y-76345238D01*
X155488095Y-76250000D01*
X155559523Y-76202380D01*
X155607142Y-76202380D01*
X155678571Y-76250000D01*
X155702380Y-76297619D01*
X156202380Y-77107142D02*
X156178571Y-77154761D01*
X156107142Y-77202380D01*
X156059523Y-77202380D01*
X155988095Y-77154761D01*
X155940476Y-77059523D01*
X155916666Y-76964285D01*
X155892857Y-76773809D01*
X155892857Y-76630952D01*
X155916666Y-76440476D01*
X155940476Y-76345238D01*
X155988095Y-76250000D01*
X156059523Y-76202380D01*
X156107142Y-76202380D01*
X156178571Y-76250000D01*
X156202380Y-76297619D01*
D11*
X126985714Y-79767857D02*
X127652380Y-79767857D01*
X126604761Y-79946428D02*
X127319047Y-80125000D01*
X127319047Y-79660714D01*
X127557142Y-79375000D02*
X127604761Y-79339285D01*
X127652380Y-79375000D01*
X127604761Y-79410714D01*
X127557142Y-79375000D01*
X127652380Y-79375000D01*
X126652380Y-79089285D02*
X126652380Y-78589285D01*
X127652380Y-78910714D01*
X127652380Y-78303571D02*
X126652380Y-78303571D01*
X127652380Y-77875000D02*
X127080952Y-78196428D01*
X126652380Y-77875000D02*
X127223809Y-78303571D01*
D14*
X124971428Y-104419714D02*
X125142857Y-104476857D01*
X125428571Y-104476857D01*
X125542857Y-104419714D01*
X125599999Y-104362571D01*
X125657142Y-104248285D01*
X125657142Y-104134000D01*
X125599999Y-104019714D01*
X125542857Y-103962571D01*
X125428571Y-103905428D01*
X125199999Y-103848285D01*
X125085714Y-103791142D01*
X125028571Y-103734000D01*
X124971428Y-103619714D01*
X124971428Y-103505428D01*
X125028571Y-103391142D01*
X125085714Y-103334000D01*
X125199999Y-103276857D01*
X125485714Y-103276857D01*
X125657142Y-103334000D01*
X126057142Y-103676857D02*
X126285714Y-104476857D01*
X126514285Y-103905428D01*
X126742857Y-104476857D01*
X126971428Y-103676857D01*
X127428571Y-104476857D02*
X127428571Y-103676857D01*
X127428571Y-103276857D02*
X127371428Y-103334000D01*
X127428571Y-103391142D01*
X127485714Y-103334000D01*
X127428571Y-103276857D01*
X127428571Y-103391142D01*
X127828571Y-103676857D02*
X128285714Y-103676857D01*
X127999999Y-103276857D02*
X127999999Y-104305428D01*
X128057142Y-104419714D01*
X128171428Y-104476857D01*
X128285714Y-104476857D01*
X129199999Y-104419714D02*
X129085714Y-104476857D01*
X128857142Y-104476857D01*
X128742857Y-104419714D01*
X128685714Y-104362571D01*
X128628571Y-104248285D01*
X128628571Y-103905428D01*
X128685714Y-103791142D01*
X128742857Y-103734000D01*
X128857142Y-103676857D01*
X129085714Y-103676857D01*
X129199999Y-103734000D01*
X129714285Y-104476857D02*
X129714285Y-103276857D01*
X130228571Y-104476857D02*
X130228571Y-103848285D01*
X130171428Y-103734000D01*
X130057142Y-103676857D01*
X129885714Y-103676857D01*
X129771428Y-103734000D01*
X129714285Y-103791142D01*
X131714285Y-104476857D02*
X131714285Y-103276857D01*
X132285714Y-103676857D02*
X132285714Y-104476857D01*
X132285714Y-103791142D02*
X132342857Y-103734000D01*
X132457142Y-103676857D01*
X132628571Y-103676857D01*
X132742857Y-103734000D01*
X132799999Y-103848285D01*
X132799999Y-104476857D01*
X133371428Y-103676857D02*
X133371428Y-104876857D01*
X133371428Y-103734000D02*
X133485714Y-103676857D01*
X133714285Y-103676857D01*
X133828571Y-103734000D01*
X133885714Y-103791142D01*
X133942857Y-103905428D01*
X133942857Y-104248285D01*
X133885714Y-104362571D01*
X133828571Y-104419714D01*
X133714285Y-104476857D01*
X133485714Y-104476857D01*
X133371428Y-104419714D01*
X134971428Y-103676857D02*
X134971428Y-104476857D01*
X134457142Y-103676857D02*
X134457142Y-104305428D01*
X134514285Y-104419714D01*
X134628571Y-104476857D01*
X134800000Y-104476857D01*
X134914285Y-104419714D01*
X134971428Y-104362571D01*
X135371428Y-103676857D02*
X135828571Y-103676857D01*
X135542857Y-103276857D02*
X135542857Y-104305428D01*
X135600000Y-104419714D01*
X135714285Y-104476857D01*
X135828571Y-104476857D01*
X137542857Y-103848285D02*
X137714285Y-103905428D01*
X137771428Y-103962571D01*
X137828571Y-104076857D01*
X137828571Y-104248285D01*
X137771428Y-104362571D01*
X137714285Y-104419714D01*
X137600000Y-104476857D01*
X137142857Y-104476857D01*
X137142857Y-103276857D01*
X137542857Y-103276857D01*
X137657142Y-103334000D01*
X137714285Y-103391142D01*
X137771428Y-103505428D01*
X137771428Y-103619714D01*
X137714285Y-103734000D01*
X137657142Y-103791142D01*
X137542857Y-103848285D01*
X137142857Y-103848285D01*
X138514285Y-104476857D02*
X138400000Y-104419714D01*
X138342857Y-104362571D01*
X138285714Y-104248285D01*
X138285714Y-103905428D01*
X138342857Y-103791142D01*
X138400000Y-103734000D01*
X138514285Y-103676857D01*
X138685714Y-103676857D01*
X138800000Y-103734000D01*
X138857142Y-103791142D01*
X138914285Y-103905428D01*
X138914285Y-104248285D01*
X138857142Y-104362571D01*
X138800000Y-104419714D01*
X138685714Y-104476857D01*
X138514285Y-104476857D01*
X139942857Y-104476857D02*
X139942857Y-103848285D01*
X139885714Y-103734000D01*
X139771428Y-103676857D01*
X139542857Y-103676857D01*
X139428571Y-103734000D01*
X139942857Y-104419714D02*
X139828571Y-104476857D01*
X139542857Y-104476857D01*
X139428571Y-104419714D01*
X139371428Y-104305428D01*
X139371428Y-104191142D01*
X139428571Y-104076857D01*
X139542857Y-104019714D01*
X139828571Y-104019714D01*
X139942857Y-103962571D01*
X140514285Y-104476857D02*
X140514285Y-103676857D01*
X140514285Y-103905428D02*
X140571428Y-103791142D01*
X140628571Y-103734000D01*
X140742857Y-103676857D01*
X140857142Y-103676857D01*
X141771428Y-104476857D02*
X141771428Y-103276857D01*
X141771428Y-104419714D02*
X141657142Y-104476857D01*
X141428571Y-104476857D01*
X141314285Y-104419714D01*
X141257142Y-104362571D01*
X141200000Y-104248285D01*
X141200000Y-103905428D01*
X141257142Y-103791142D01*
X141314285Y-103734000D01*
X141428571Y-103676857D01*
X141657142Y-103676857D01*
X141771428Y-103734000D01*
X130457142Y-106408857D02*
X130457142Y-105608857D01*
X130457142Y-105837428D02*
X130514285Y-105723142D01*
X130571428Y-105666000D01*
X130685714Y-105608857D01*
X130800000Y-105608857D01*
X131657142Y-106351714D02*
X131542857Y-106408857D01*
X131314285Y-106408857D01*
X131200000Y-106351714D01*
X131142857Y-106237428D01*
X131142857Y-105780285D01*
X131200000Y-105666000D01*
X131314285Y-105608857D01*
X131542857Y-105608857D01*
X131657142Y-105666000D01*
X131714285Y-105780285D01*
X131714285Y-105894571D01*
X131142857Y-106008857D01*
X132114285Y-105608857D02*
X132400000Y-106408857D01*
X132685714Y-105608857D01*
X134685714Y-106408857D02*
X134000000Y-106408857D01*
X134342857Y-106408857D02*
X134342857Y-105208857D01*
X134228571Y-105380285D01*
X134114285Y-105494571D01*
X134000000Y-105551714D01*
X135200000Y-106294571D02*
X135257142Y-106351714D01*
X135200000Y-106408857D01*
X135142857Y-106351714D01*
X135200000Y-106294571D01*
X135200000Y-106408857D01*
X136000000Y-105208857D02*
X136114285Y-105208857D01*
X136228571Y-105266000D01*
X136285714Y-105323142D01*
X136342857Y-105437428D01*
X136400000Y-105666000D01*
X136400000Y-105951714D01*
X136342857Y-106180285D01*
X136285714Y-106294571D01*
X136228571Y-106351714D01*
X136114285Y-106408857D01*
X136000000Y-106408857D01*
X135885714Y-106351714D01*
X135828571Y-106294571D01*
X135771428Y-106180285D01*
X135714285Y-105951714D01*
X135714285Y-105666000D01*
X135771428Y-105437428D01*
X135828571Y-105323142D01*
X135885714Y-105266000D01*
X136000000Y-105208857D01*
D13*
X151190476Y-75702380D02*
X150904761Y-75702380D01*
X151047619Y-75702380D02*
X151047619Y-74702380D01*
X151000000Y-74845238D01*
X150952380Y-74940476D01*
X150904761Y-74988095D01*
X151404761Y-75607142D02*
X151428571Y-75654761D01*
X151404761Y-75702380D01*
X151380952Y-75654761D01*
X151404761Y-75607142D01*
X151404761Y-75702380D01*
X151404761Y-75083333D02*
X151428571Y-75130952D01*
X151404761Y-75178571D01*
X151380952Y-75130952D01*
X151404761Y-75083333D01*
X151404761Y-75178571D01*
X152023809Y-75702380D02*
X152023809Y-74702380D01*
X152214285Y-74702380D01*
X152261904Y-74750000D01*
X152285714Y-74797619D01*
X152309523Y-74892857D01*
X152309523Y-75035714D01*
X152285714Y-75130952D01*
X152261904Y-75178571D01*
X152214285Y-75226190D01*
X152023809Y-75226190D01*
X152523809Y-74702380D02*
X152523809Y-75511904D01*
X152547619Y-75607142D01*
X152571428Y-75654761D01*
X152619047Y-75702380D01*
X152714285Y-75702380D01*
X152761904Y-75654761D01*
X152785714Y-75607142D01*
X152809523Y-75511904D01*
X152809523Y-74702380D01*
X153023809Y-75654761D02*
X153095238Y-75702380D01*
X153214285Y-75702380D01*
X153261904Y-75654761D01*
X153285714Y-75607142D01*
X153309523Y-75511904D01*
X153309523Y-75416666D01*
X153285714Y-75321428D01*
X153261904Y-75273809D01*
X153214285Y-75226190D01*
X153119047Y-75178571D01*
X153071428Y-75130952D01*
X153047619Y-75083333D01*
X153023809Y-74988095D01*
X153023809Y-74892857D01*
X153047619Y-74797619D01*
X153071428Y-74750000D01*
X153119047Y-74702380D01*
X153238095Y-74702380D01*
X153309523Y-74750000D01*
X153523809Y-75702380D02*
X153523809Y-74702380D01*
X153523809Y-75178571D02*
X153809523Y-75178571D01*
X153809523Y-75702380D02*
X153809523Y-74702380D01*
X154047619Y-75321428D02*
X154428571Y-75321428D01*
X154666666Y-75035714D02*
X155047619Y-75321428D01*
X154666666Y-75607142D01*
X155547619Y-74750000D02*
X155500000Y-74702380D01*
X155428571Y-74702380D01*
X155357142Y-74750000D01*
X155309523Y-74845238D01*
X155285714Y-74940476D01*
X155261904Y-75130952D01*
X155261904Y-75273809D01*
X155285714Y-75464285D01*
X155309523Y-75559523D01*
X155357142Y-75654761D01*
X155428571Y-75702380D01*
X155476190Y-75702380D01*
X155547619Y-75654761D01*
X155571428Y-75607142D01*
X155571428Y-75273809D01*
X155476190Y-75273809D01*
X155785714Y-75702380D02*
X155785714Y-74702380D01*
X156071428Y-75702380D01*
X156071428Y-74702380D01*
X156309523Y-75702380D02*
X156309523Y-74702380D01*
X156428571Y-74702380D01*
X156500000Y-74750000D01*
X156547619Y-74845238D01*
X156571428Y-74940476D01*
X156595238Y-75130952D01*
X156595238Y-75273809D01*
X156571428Y-75464285D01*
X156547619Y-75559523D01*
X156500000Y-75654761D01*
X156428571Y-75702380D01*
X156309523Y-75702380D01*
D11*
X93866666Y-94033333D02*
X93914285Y-93995238D01*
X94057142Y-93919047D01*
X94152380Y-93880952D01*
X94295238Y-93842857D01*
X94533333Y-93804761D01*
X94723809Y-93804761D01*
X94961904Y-93842857D01*
X95104761Y-93880952D01*
X95200000Y-93919047D01*
X95342857Y-93995238D01*
X95390476Y-94033333D01*
X94295238Y-94680952D02*
X94247619Y-94604761D01*
X94247619Y-94452380D01*
X94295238Y-94376190D01*
X94342857Y-94338095D01*
X94438095Y-94300000D01*
X94723809Y-94300000D01*
X94819047Y-94338095D01*
X94866666Y-94376190D01*
X94914285Y-94452380D01*
X94914285Y-94604761D01*
X94866666Y-94680952D01*
X93866666Y-94947619D02*
X93914285Y-94985714D01*
X94057142Y-95061904D01*
X94152380Y-95100000D01*
X94295238Y-95138095D01*
X94533333Y-95176190D01*
X94723809Y-95176190D01*
X94961904Y-95138095D01*
X95104761Y-95100000D01*
X95200000Y-95061904D01*
X95342857Y-94985714D01*
X95390476Y-94947619D01*
X95152380Y-96128571D02*
X95200000Y-96166666D01*
X95247619Y-96242857D01*
X95247619Y-96433333D01*
X95200000Y-96509523D01*
X95152380Y-96547619D01*
X95057142Y-96585714D01*
X94961904Y-96585714D01*
X94819047Y-96547619D01*
X94247619Y-96090476D01*
X94247619Y-96585714D01*
X95247619Y-97080952D02*
X95247619Y-97157142D01*
X95200000Y-97233333D01*
X95152380Y-97271428D01*
X95057142Y-97309523D01*
X94866666Y-97347619D01*
X94628571Y-97347619D01*
X94438095Y-97309523D01*
X94342857Y-97271428D01*
X94295238Y-97233333D01*
X94247619Y-97157142D01*
X94247619Y-97080952D01*
X94295238Y-97004761D01*
X94342857Y-96966666D01*
X94438095Y-96928571D01*
X94628571Y-96890476D01*
X94866666Y-96890476D01*
X95057142Y-96928571D01*
X95152380Y-96966666D01*
X95200000Y-97004761D01*
X95247619Y-97080952D01*
X95152380Y-97652380D02*
X95200000Y-97690476D01*
X95247619Y-97766666D01*
X95247619Y-97957142D01*
X95200000Y-98033333D01*
X95152380Y-98071428D01*
X95057142Y-98109523D01*
X94961904Y-98109523D01*
X94819047Y-98071428D01*
X94247619Y-97614285D01*
X94247619Y-98109523D01*
X95152380Y-98414285D02*
X95200000Y-98452380D01*
X95247619Y-98528571D01*
X95247619Y-98719047D01*
X95200000Y-98795238D01*
X95152380Y-98833333D01*
X95057142Y-98871428D01*
X94961904Y-98871428D01*
X94819047Y-98833333D01*
X94247619Y-98376190D01*
X94247619Y-98871428D01*
X94247619Y-100204761D02*
X94247619Y-99823809D01*
X95247619Y-99823809D01*
X94914285Y-100814285D02*
X94247619Y-100814285D01*
X94914285Y-100471428D02*
X94390476Y-100471428D01*
X94295238Y-100509523D01*
X94247619Y-100585714D01*
X94247619Y-100700000D01*
X94295238Y-100776190D01*
X94342857Y-100814285D01*
X94247619Y-101195238D02*
X94914285Y-101195238D01*
X94819047Y-101195238D02*
X94866666Y-101233333D01*
X94914285Y-101309523D01*
X94914285Y-101423809D01*
X94866666Y-101500000D01*
X94771428Y-101538095D01*
X94247619Y-101538095D01*
X94771428Y-101538095D02*
X94866666Y-101576190D01*
X94914285Y-101652380D01*
X94914285Y-101766666D01*
X94866666Y-101842857D01*
X94771428Y-101880952D01*
X94247619Y-101880952D01*
X94247619Y-102261904D02*
X94914285Y-102261904D01*
X95247619Y-102261904D02*
X95200000Y-102223809D01*
X95152380Y-102261904D01*
X95200000Y-102300000D01*
X95247619Y-102261904D01*
X95152380Y-102261904D01*
X94914285Y-102566666D02*
X94914285Y-102985714D01*
X94247619Y-102566666D01*
X94247619Y-102985714D01*
X94295238Y-103595238D02*
X94247619Y-103519047D01*
X94247619Y-103366666D01*
X94295238Y-103290476D01*
X94390476Y-103252380D01*
X94771428Y-103252380D01*
X94866666Y-103290476D01*
X94914285Y-103366666D01*
X94914285Y-103519047D01*
X94866666Y-103595238D01*
X94771428Y-103633333D01*
X94676190Y-103633333D01*
X94580952Y-103252380D01*
X94247619Y-104585714D02*
X95247619Y-104585714D01*
X94771428Y-104585714D02*
X94771428Y-105042857D01*
X94247619Y-105042857D02*
X95247619Y-105042857D01*
X94247619Y-105538095D02*
X94295238Y-105461904D01*
X94342857Y-105423809D01*
X94438095Y-105385714D01*
X94723809Y-105385714D01*
X94819047Y-105423809D01*
X94866666Y-105461904D01*
X94914285Y-105538095D01*
X94914285Y-105652380D01*
X94866666Y-105728571D01*
X94819047Y-105766666D01*
X94723809Y-105804761D01*
X94438095Y-105804761D01*
X94342857Y-105766666D01*
X94295238Y-105728571D01*
X94247619Y-105652380D01*
X94247619Y-105538095D01*
X94247619Y-106147619D02*
X94914285Y-106147619D01*
X94819047Y-106147619D02*
X94866666Y-106185714D01*
X94914285Y-106261904D01*
X94914285Y-106376190D01*
X94866666Y-106452380D01*
X94771428Y-106490476D01*
X94247619Y-106490476D01*
X94771428Y-106490476D02*
X94866666Y-106528571D01*
X94914285Y-106604761D01*
X94914285Y-106719047D01*
X94866666Y-106795238D01*
X94771428Y-106833333D01*
X94247619Y-106833333D01*
X94295238Y-107519047D02*
X94247619Y-107442857D01*
X94247619Y-107290476D01*
X94295238Y-107214285D01*
X94390476Y-107176190D01*
X94771428Y-107176190D01*
X94866666Y-107214285D01*
X94914285Y-107290476D01*
X94914285Y-107442857D01*
X94866666Y-107519047D01*
X94771428Y-107557142D01*
X94676190Y-107557142D01*
X94580952Y-107176190D01*
X94533333Y-108471428D02*
X94533333Y-108852380D01*
X94247619Y-108395238D02*
X95247619Y-108661904D01*
X94247619Y-108928571D01*
X94914285Y-109538095D02*
X94247619Y-109538095D01*
X94914285Y-109195238D02*
X94390476Y-109195238D01*
X94295238Y-109233333D01*
X94247619Y-109309523D01*
X94247619Y-109423809D01*
X94295238Y-109500000D01*
X94342857Y-109538095D01*
X94914285Y-109804761D02*
X94914285Y-110109523D01*
X95247619Y-109919047D02*
X94390476Y-109919047D01*
X94295238Y-109957142D01*
X94247619Y-110033333D01*
X94247619Y-110109523D01*
X94247619Y-110490476D02*
X94295238Y-110414285D01*
X94342857Y-110376190D01*
X94438095Y-110338095D01*
X94723809Y-110338095D01*
X94819047Y-110376190D01*
X94866666Y-110414285D01*
X94914285Y-110490476D01*
X94914285Y-110604761D01*
X94866666Y-110680952D01*
X94819047Y-110719047D01*
X94723809Y-110757142D01*
X94438095Y-110757142D01*
X94342857Y-110719047D01*
X94295238Y-110680952D01*
X94247619Y-110604761D01*
X94247619Y-110490476D01*
X94247619Y-111100000D02*
X94914285Y-111100000D01*
X94819047Y-111100000D02*
X94866666Y-111138095D01*
X94914285Y-111214285D01*
X94914285Y-111328571D01*
X94866666Y-111404761D01*
X94771428Y-111442857D01*
X94247619Y-111442857D01*
X94771428Y-111442857D02*
X94866666Y-111480952D01*
X94914285Y-111557142D01*
X94914285Y-111671428D01*
X94866666Y-111747619D01*
X94771428Y-111785714D01*
X94247619Y-111785714D01*
X94247619Y-112509523D02*
X94771428Y-112509523D01*
X94866666Y-112471428D01*
X94914285Y-112395238D01*
X94914285Y-112242857D01*
X94866666Y-112166666D01*
X94295238Y-112509523D02*
X94247619Y-112433333D01*
X94247619Y-112242857D01*
X94295238Y-112166666D01*
X94390476Y-112128571D01*
X94485714Y-112128571D01*
X94580952Y-112166666D01*
X94628571Y-112242857D01*
X94628571Y-112433333D01*
X94676190Y-112509523D01*
X94914285Y-112776190D02*
X94914285Y-113080952D01*
X95247619Y-112890476D02*
X94390476Y-112890476D01*
X94295238Y-112928571D01*
X94247619Y-113004761D01*
X94247619Y-113080952D01*
X94247619Y-113347619D02*
X94914285Y-113347619D01*
X95247619Y-113347619D02*
X95200000Y-113309523D01*
X95152380Y-113347619D01*
X95200000Y-113385714D01*
X95247619Y-113347619D01*
X95152380Y-113347619D01*
X94247619Y-113842857D02*
X94295238Y-113766666D01*
X94342857Y-113728571D01*
X94438095Y-113690476D01*
X94723809Y-113690476D01*
X94819047Y-113728571D01*
X94866666Y-113766666D01*
X94914285Y-113842857D01*
X94914285Y-113957142D01*
X94866666Y-114033333D01*
X94819047Y-114071428D01*
X94723809Y-114109523D01*
X94438095Y-114109523D01*
X94342857Y-114071428D01*
X94295238Y-114033333D01*
X94247619Y-113957142D01*
X94247619Y-113842857D01*
X94914285Y-114452380D02*
X94247619Y-114452380D01*
X94819047Y-114452380D02*
X94866666Y-114490476D01*
X94914285Y-114566666D01*
X94914285Y-114680952D01*
X94866666Y-114757142D01*
X94771428Y-114795238D01*
X94247619Y-114795238D01*
X141928571Y-82052380D02*
X141357142Y-82052380D01*
X141642857Y-82052380D02*
X141642857Y-81052380D01*
X141547619Y-81195238D01*
X141452380Y-81290476D01*
X141357142Y-81338095D01*
X142547619Y-81052380D02*
X142642857Y-81052380D01*
X142738095Y-81100000D01*
X142785714Y-81147619D01*
X142833333Y-81242857D01*
X142880952Y-81433333D01*
X142880952Y-81671428D01*
X142833333Y-81861904D01*
X142785714Y-81957142D01*
X142738095Y-82004761D01*
X142642857Y-82052380D01*
X142547619Y-82052380D01*
X142452380Y-82004761D01*
X142404761Y-81957142D01*
X142357142Y-81861904D01*
X142309523Y-81671428D01*
X142309523Y-81433333D01*
X142357142Y-81242857D01*
X142404761Y-81147619D01*
X142452380Y-81100000D01*
X142547619Y-81052380D01*
X143738095Y-81385714D02*
X143738095Y-82052380D01*
X143309523Y-81385714D02*
X143309523Y-81909523D01*
X143357142Y-82004761D01*
X143452380Y-82052380D01*
X143595238Y-82052380D01*
X143690476Y-82004761D01*
X143738095Y-81957142D01*
X144547619Y-81528571D02*
X144214285Y-81528571D01*
X144214285Y-82052380D02*
X144214285Y-81052380D01*
X144690476Y-81052380D01*
X152952380Y-93390476D02*
X152952380Y-93961904D01*
X152952380Y-93676190D02*
X151952380Y-93676190D01*
X152095238Y-93771428D01*
X152190476Y-93866666D01*
X152238095Y-93961904D01*
X151952380Y-92771428D02*
X151952380Y-92676190D01*
X152000000Y-92580952D01*
X152047619Y-92533333D01*
X152142857Y-92485714D01*
X152333333Y-92438095D01*
X152571428Y-92438095D01*
X152761904Y-92485714D01*
X152857142Y-92533333D01*
X152904761Y-92580952D01*
X152952380Y-92676190D01*
X152952380Y-92771428D01*
X152904761Y-92866666D01*
X152857142Y-92914285D01*
X152761904Y-92961904D01*
X152571428Y-93009523D01*
X152333333Y-93009523D01*
X152142857Y-92961904D01*
X152047619Y-92914285D01*
X152000000Y-92866666D01*
X151952380Y-92771428D01*
X152952380Y-92009523D02*
X151952380Y-92009523D01*
X152952380Y-91438095D02*
X152380952Y-91866666D01*
X151952380Y-91438095D02*
X152523809Y-92009523D01*
X145452380Y-93014285D02*
X145452380Y-93585714D01*
X145452380Y-93300000D02*
X144452380Y-93300000D01*
X144595238Y-93395238D01*
X144690476Y-93490476D01*
X144738095Y-93585714D01*
X145452380Y-92585714D02*
X144452380Y-92585714D01*
X145452380Y-92014285D02*
X144880952Y-92442857D01*
X144452380Y-92014285D02*
X145023809Y-92585714D01*
X114809523Y-76852380D02*
X114238095Y-76852380D01*
X114523809Y-76852380D02*
X114523809Y-75852380D01*
X114428571Y-75995238D01*
X114333333Y-76090476D01*
X114238095Y-76138095D01*
X115428571Y-75852380D02*
X115523809Y-75852380D01*
X115619047Y-75900000D01*
X115666666Y-75947619D01*
X115714285Y-76042857D01*
X115761904Y-76233333D01*
X115761904Y-76471428D01*
X115714285Y-76661904D01*
X115666666Y-76757142D01*
X115619047Y-76804761D01*
X115523809Y-76852380D01*
X115428571Y-76852380D01*
X115333333Y-76804761D01*
X115285714Y-76757142D01*
X115238095Y-76661904D01*
X115190476Y-76471428D01*
X115190476Y-76233333D01*
X115238095Y-76042857D01*
X115285714Y-75947619D01*
X115333333Y-75900000D01*
X115428571Y-75852380D01*
X116190476Y-76852380D02*
X116190476Y-75852380D01*
X116761904Y-76852380D02*
X116333333Y-76280952D01*
X116761904Y-75852380D02*
X116190476Y-76423809D01*
X133432380Y-94964285D02*
X132432380Y-94964285D01*
X133146666Y-94630952D01*
X132432380Y-94297619D01*
X133432380Y-94297619D01*
X133337142Y-93250000D02*
X133384761Y-93297619D01*
X133432380Y-93440476D01*
X133432380Y-93535714D01*
X133384761Y-93678571D01*
X133289523Y-93773809D01*
X133194285Y-93821428D01*
X133003809Y-93869047D01*
X132860952Y-93869047D01*
X132670476Y-93821428D01*
X132575238Y-93773809D01*
X132480000Y-93678571D01*
X132432380Y-93535714D01*
X132432380Y-93440476D01*
X132480000Y-93297619D01*
X132527619Y-93250000D01*
X133432380Y-92821428D02*
X132432380Y-92821428D01*
X132432380Y-92440476D01*
X132480000Y-92345238D01*
X132527619Y-92297619D01*
X132622857Y-92250000D01*
X132765714Y-92250000D01*
X132860952Y-92297619D01*
X132908571Y-92345238D01*
X132956190Y-92440476D01*
X132956190Y-92821428D01*
X132527619Y-91869047D02*
X132480000Y-91821428D01*
X132432380Y-91726190D01*
X132432380Y-91488095D01*
X132480000Y-91392857D01*
X132527619Y-91345238D01*
X132622857Y-91297619D01*
X132718095Y-91297619D01*
X132860952Y-91345238D01*
X133432380Y-91916666D01*
X133432380Y-91297619D01*
X132432380Y-90964285D02*
X132432380Y-90345238D01*
X132813333Y-90678571D01*
X132813333Y-90535714D01*
X132860952Y-90440476D01*
X132908571Y-90392857D01*
X133003809Y-90345238D01*
X133241904Y-90345238D01*
X133337142Y-90392857D01*
X133384761Y-90440476D01*
X133432380Y-90535714D01*
X133432380Y-90821428D01*
X133384761Y-90916666D01*
X133337142Y-90964285D01*
X133432380Y-89392857D02*
X133432380Y-89964285D01*
X133432380Y-89678571D02*
X132432380Y-89678571D01*
X132575238Y-89773809D01*
X132670476Y-89869047D01*
X132718095Y-89964285D01*
X132432380Y-88773809D02*
X132432380Y-88678571D01*
X132480000Y-88583333D01*
X132527619Y-88535714D01*
X132622857Y-88488095D01*
X132813333Y-88440476D01*
X133051428Y-88440476D01*
X133241904Y-88488095D01*
X133337142Y-88535714D01*
X133384761Y-88583333D01*
X133432380Y-88678571D01*
X133432380Y-88773809D01*
X133384761Y-88869047D01*
X133337142Y-88916666D01*
X133241904Y-88964285D01*
X133051428Y-89011904D01*
X132813333Y-89011904D01*
X132622857Y-88964285D01*
X132527619Y-88916666D01*
X132480000Y-88869047D01*
X132432380Y-88773809D01*
X132432380Y-88107142D02*
X132432380Y-87440476D01*
X133432380Y-87869047D01*
D10*
X93897142Y-79907142D02*
X93825714Y-80121428D01*
X93754285Y-80192857D01*
X93611428Y-80264285D01*
X93397142Y-80264285D01*
X93254285Y-80192857D01*
X93182857Y-80121428D01*
X93111428Y-79978571D01*
X93111428Y-79407142D01*
X94611428Y-79407142D01*
X94611428Y-79907142D01*
X94540000Y-80050000D01*
X94468571Y-80121428D01*
X94325714Y-80192857D01*
X94182857Y-80192857D01*
X94040000Y-80121428D01*
X93968571Y-80050000D01*
X93897142Y-79907142D01*
X93897142Y-79407142D01*
X94611428Y-80907142D02*
X93397142Y-80907142D01*
X93254285Y-80978571D01*
X93182857Y-81050000D01*
X93111428Y-81192857D01*
X93111428Y-81478571D01*
X93182857Y-81621428D01*
X93254285Y-81692857D01*
X93397142Y-81764285D01*
X94611428Y-81764285D01*
X93182857Y-82407142D02*
X93111428Y-82621428D01*
X93111428Y-82978571D01*
X93182857Y-83121428D01*
X93254285Y-83192857D01*
X93397142Y-83264285D01*
X93540000Y-83264285D01*
X93682857Y-83192857D01*
X93754285Y-83121428D01*
X93825714Y-82978571D01*
X93897142Y-82692857D01*
X93968571Y-82550000D01*
X94040000Y-82478571D01*
X94182857Y-82407142D01*
X94325714Y-82407142D01*
X94468571Y-82478571D01*
X94540000Y-82550000D01*
X94611428Y-82692857D01*
X94611428Y-83050000D01*
X94540000Y-83264285D01*
D11*
X97171428Y-95547619D02*
X97207142Y-95500000D01*
X97278571Y-95452380D01*
X97457142Y-95452380D01*
X97528571Y-95500000D01*
X97564285Y-95547619D01*
X97600000Y-95642857D01*
X97600000Y-95738095D01*
X97564285Y-95880952D01*
X97135714Y-96452380D01*
X97600000Y-96452380D01*
X97885714Y-95547619D02*
X97921428Y-95500000D01*
X97992857Y-95452380D01*
X98171428Y-95452380D01*
X98242857Y-95500000D01*
X98278571Y-95547619D01*
X98314285Y-95642857D01*
X98314285Y-95738095D01*
X98278571Y-95880952D01*
X97850000Y-96452380D01*
X98314285Y-96452380D01*
X98778571Y-95452380D02*
X98850000Y-95452380D01*
X98921428Y-95500000D01*
X98957142Y-95547619D01*
X98992857Y-95642857D01*
X99028571Y-95833333D01*
X99028571Y-96071428D01*
X98992857Y-96261904D01*
X98957142Y-96357142D01*
X98921428Y-96404761D01*
X98850000Y-96452380D01*
X98778571Y-96452380D01*
X98707142Y-96404761D01*
X98671428Y-96357142D01*
X98635714Y-96261904D01*
X98600000Y-96071428D01*
X98600000Y-95833333D01*
X98635714Y-95642857D01*
X98671428Y-95547619D01*
X98707142Y-95500000D01*
X98778571Y-95452380D01*
D10*
X121312857Y-60887142D02*
X121098571Y-60815714D01*
X121027142Y-60744285D01*
X120955714Y-60601428D01*
X120955714Y-60387142D01*
X121027142Y-60244285D01*
X121098571Y-60172857D01*
X121241428Y-60101428D01*
X121812857Y-60101428D01*
X121812857Y-61601428D01*
X121312857Y-61601428D01*
X121170000Y-61530000D01*
X121098571Y-61458571D01*
X121027142Y-61315714D01*
X121027142Y-61172857D01*
X121098571Y-61030000D01*
X121170000Y-60958571D01*
X121312857Y-60887142D01*
X121812857Y-60887142D01*
X120312857Y-61601428D02*
X120312857Y-60387142D01*
X120241428Y-60244285D01*
X120170000Y-60172857D01*
X120027142Y-60101428D01*
X119741428Y-60101428D01*
X119598571Y-60172857D01*
X119527142Y-60244285D01*
X119455714Y-60387142D01*
X119455714Y-61601428D01*
X118812857Y-60172857D02*
X118598571Y-60101428D01*
X118241428Y-60101428D01*
X118098571Y-60172857D01*
X118027142Y-60244285D01*
X117955714Y-60387142D01*
X117955714Y-60530000D01*
X118027142Y-60672857D01*
X118098571Y-60744285D01*
X118241428Y-60815714D01*
X118527142Y-60887142D01*
X118670000Y-60958571D01*
X118741428Y-61030000D01*
X118812857Y-61172857D01*
X118812857Y-61315714D01*
X118741428Y-61458571D01*
X118670000Y-61530000D01*
X118527142Y-61601428D01*
X118170000Y-61601428D01*
X117955714Y-61530000D01*
D11*
X113852380Y-93390476D02*
X113852380Y-93961904D01*
X113852380Y-93676190D02*
X112852380Y-93676190D01*
X112995238Y-93771428D01*
X113090476Y-93866666D01*
X113138095Y-93961904D01*
X112852380Y-92771428D02*
X112852380Y-92676190D01*
X112900000Y-92580952D01*
X112947619Y-92533333D01*
X113042857Y-92485714D01*
X113233333Y-92438095D01*
X113471428Y-92438095D01*
X113661904Y-92485714D01*
X113757142Y-92533333D01*
X113804761Y-92580952D01*
X113852380Y-92676190D01*
X113852380Y-92771428D01*
X113804761Y-92866666D01*
X113757142Y-92914285D01*
X113661904Y-92961904D01*
X113471428Y-93009523D01*
X113233333Y-93009523D01*
X113042857Y-92961904D01*
X112947619Y-92914285D01*
X112900000Y-92866666D01*
X112852380Y-92771428D01*
X113852380Y-92009523D02*
X112852380Y-92009523D01*
X113852380Y-91438095D02*
X113280952Y-91866666D01*
X112852380Y-91438095D02*
X113423809Y-92009523D01*
D12*
X141111904Y-108364285D02*
X141050000Y-108426190D01*
X140864285Y-108488095D01*
X140740476Y-108488095D01*
X140554762Y-108426190D01*
X140430952Y-108302380D01*
X140369047Y-108178571D01*
X140307143Y-107930952D01*
X140307143Y-107745238D01*
X140369047Y-107497619D01*
X140430952Y-107373809D01*
X140554762Y-107250000D01*
X140740476Y-107188095D01*
X140864285Y-107188095D01*
X141050000Y-107250000D01*
X141111904Y-107311904D01*
D11*
X121352380Y-93014285D02*
X121352380Y-93585714D01*
X121352380Y-93300000D02*
X120352380Y-93300000D01*
X120495238Y-93395238D01*
X120590476Y-93490476D01*
X120638095Y-93585714D01*
X121352380Y-92585714D02*
X120352380Y-92585714D01*
X121352380Y-92014285D02*
X120780952Y-92442857D01*
X120352380Y-92014285D02*
X120923809Y-92585714D01*
X100333333Y-102952380D02*
X100000000Y-102476190D01*
X99761904Y-102952380D02*
X99761904Y-101952380D01*
X100142857Y-101952380D01*
X100238095Y-102000000D01*
X100285714Y-102047619D01*
X100333333Y-102142857D01*
X100333333Y-102285714D01*
X100285714Y-102380952D01*
X100238095Y-102428571D01*
X100142857Y-102476190D01*
X99761904Y-102476190D01*
X100666666Y-101952380D02*
X101285714Y-101952380D01*
X100952380Y-102333333D01*
X101095238Y-102333333D01*
X101190476Y-102380952D01*
X101238095Y-102428571D01*
X101285714Y-102523809D01*
X101285714Y-102761904D01*
X101238095Y-102857142D01*
X101190476Y-102904761D01*
X101095238Y-102952380D01*
X100809523Y-102952380D01*
X100714285Y-102904761D01*
X100666666Y-102857142D01*
X112809523Y-89702380D02*
X112476190Y-89226190D01*
X112238095Y-89702380D02*
X112238095Y-88702380D01*
X112619047Y-88702380D01*
X112714285Y-88750000D01*
X112761904Y-88797619D01*
X112809523Y-88892857D01*
X112809523Y-89035714D01*
X112761904Y-89130952D01*
X112714285Y-89178571D01*
X112619047Y-89226190D01*
X112238095Y-89226190D01*
X113238095Y-89702380D02*
X113238095Y-88702380D01*
X113809523Y-89702380D01*
X113809523Y-88702380D01*
X114761904Y-88702380D02*
X114285714Y-88702380D01*
X114238095Y-89178571D01*
X114285714Y-89130952D01*
X114380952Y-89083333D01*
X114619047Y-89083333D01*
X114714285Y-89130952D01*
X114761904Y-89178571D01*
X114809523Y-89273809D01*
X114809523Y-89511904D01*
X114761904Y-89607142D01*
X114714285Y-89654761D01*
X114619047Y-89702380D01*
X114380952Y-89702380D01*
X114285714Y-89654761D01*
X114238095Y-89607142D01*
X139388095Y-99592380D02*
X139388095Y-100401904D01*
X139435714Y-100497142D01*
X139483333Y-100544761D01*
X139578571Y-100592380D01*
X139769047Y-100592380D01*
X139864285Y-100544761D01*
X139911904Y-100497142D01*
X139959523Y-100401904D01*
X139959523Y-99592380D01*
X140959523Y-100592380D02*
X140388095Y-100592380D01*
X140673809Y-100592380D02*
X140673809Y-99592380D01*
X140578571Y-99735238D01*
X140483333Y-99830476D01*
X140388095Y-99878095D01*
X133733333Y-77652380D02*
X133400000Y-77176190D01*
X133161904Y-77652380D02*
X133161904Y-76652380D01*
X133542857Y-76652380D01*
X133638095Y-76700000D01*
X133685714Y-76747619D01*
X133733333Y-76842857D01*
X133733333Y-76985714D01*
X133685714Y-77080952D01*
X133638095Y-77128571D01*
X133542857Y-77176190D01*
X133161904Y-77176190D01*
X134685714Y-77652380D02*
X134114285Y-77652380D01*
X134400000Y-77652380D02*
X134400000Y-76652380D01*
X134304761Y-76795238D01*
X134209523Y-76890476D01*
X134114285Y-76938095D01*
X156446666Y-70422380D02*
X156446666Y-71136666D01*
X156399047Y-71279523D01*
X156303809Y-71374761D01*
X156160952Y-71422380D01*
X156065714Y-71422380D01*
X157399047Y-70422380D02*
X156922857Y-70422380D01*
X156875238Y-70898571D01*
X156922857Y-70850952D01*
X157018095Y-70803333D01*
X157256190Y-70803333D01*
X157351428Y-70850952D01*
X157399047Y-70898571D01*
X157446666Y-70993809D01*
X157446666Y-71231904D01*
X157399047Y-71327142D01*
X157351428Y-71374761D01*
X157256190Y-71422380D01*
X157018095Y-71422380D01*
X156922857Y-71374761D01*
X156875238Y-71327142D01*
X119289523Y-78132380D02*
X118956190Y-77656190D01*
X118718095Y-78132380D02*
X118718095Y-77132380D01*
X119099047Y-77132380D01*
X119194285Y-77180000D01*
X119241904Y-77227619D01*
X119289523Y-77322857D01*
X119289523Y-77465714D01*
X119241904Y-77560952D01*
X119194285Y-77608571D01*
X119099047Y-77656190D01*
X118718095Y-77656190D01*
X119718095Y-78132380D02*
X119718095Y-77132380D01*
X120289523Y-78132380D01*
X120289523Y-77132380D01*
X120813333Y-78132380D02*
X121003809Y-78132380D01*
X121099047Y-78084761D01*
X121146666Y-78037142D01*
X121241904Y-77894285D01*
X121289523Y-77703809D01*
X121289523Y-77322857D01*
X121241904Y-77227619D01*
X121194285Y-77180000D01*
X121099047Y-77132380D01*
X120908571Y-77132380D01*
X120813333Y-77180000D01*
X120765714Y-77227619D01*
X120718095Y-77322857D01*
X120718095Y-77560952D01*
X120765714Y-77656190D01*
X120813333Y-77703809D01*
X120908571Y-77751428D01*
X121099047Y-77751428D01*
X121194285Y-77703809D01*
X121241904Y-77656190D01*
X121289523Y-77560952D01*
X144309523Y-102702380D02*
X143976190Y-102226190D01*
X143738095Y-102702380D02*
X143738095Y-101702380D01*
X144119047Y-101702380D01*
X144214285Y-101750000D01*
X144261904Y-101797619D01*
X144309523Y-101892857D01*
X144309523Y-102035714D01*
X144261904Y-102130952D01*
X144214285Y-102178571D01*
X144119047Y-102226190D01*
X143738095Y-102226190D01*
X144738095Y-102702380D02*
X144738095Y-101702380D01*
X145309523Y-102702380D01*
X145309523Y-101702380D01*
X145690476Y-101702380D02*
X146309523Y-101702380D01*
X145976190Y-102083333D01*
X146119047Y-102083333D01*
X146214285Y-102130952D01*
X146261904Y-102178571D01*
X146309523Y-102273809D01*
X146309523Y-102511904D01*
X146261904Y-102607142D01*
X146214285Y-102654761D01*
X146119047Y-102702380D01*
X145833333Y-102702380D01*
X145738095Y-102654761D01*
X145690476Y-102607142D01*
X144309523Y-89702380D02*
X143976190Y-89226190D01*
X143738095Y-89702380D02*
X143738095Y-88702380D01*
X144119047Y-88702380D01*
X144214285Y-88750000D01*
X144261904Y-88797619D01*
X144309523Y-88892857D01*
X144309523Y-89035714D01*
X144261904Y-89130952D01*
X144214285Y-89178571D01*
X144119047Y-89226190D01*
X143738095Y-89226190D01*
X144738095Y-89702380D02*
X144738095Y-88702380D01*
X145309523Y-89702380D01*
X145309523Y-88702380D01*
X146214285Y-89035714D02*
X146214285Y-89702380D01*
X145976190Y-88654761D02*
X145738095Y-89369047D01*
X146357142Y-89369047D01*
X112809523Y-102702380D02*
X112476190Y-102226190D01*
X112238095Y-102702380D02*
X112238095Y-101702380D01*
X112619047Y-101702380D01*
X112714285Y-101750000D01*
X112761904Y-101797619D01*
X112809523Y-101892857D01*
X112809523Y-102035714D01*
X112761904Y-102130952D01*
X112714285Y-102178571D01*
X112619047Y-102226190D01*
X112238095Y-102226190D01*
X113238095Y-102702380D02*
X113238095Y-101702380D01*
X113809523Y-102702380D01*
X113809523Y-101702380D01*
X114714285Y-101702380D02*
X114523809Y-101702380D01*
X114428571Y-101750000D01*
X114380952Y-101797619D01*
X114285714Y-101940476D01*
X114238095Y-102130952D01*
X114238095Y-102511904D01*
X114285714Y-102607142D01*
X114333333Y-102654761D01*
X114428571Y-102702380D01*
X114619047Y-102702380D01*
X114714285Y-102654761D01*
X114761904Y-102607142D01*
X114809523Y-102511904D01*
X114809523Y-102273809D01*
X114761904Y-102178571D01*
X114714285Y-102130952D01*
X114619047Y-102083333D01*
X114428571Y-102083333D01*
X114333333Y-102130952D01*
X114285714Y-102178571D01*
X114238095Y-102273809D01*
X133733333Y-81152380D02*
X133400000Y-80676190D01*
X133161904Y-81152380D02*
X133161904Y-80152380D01*
X133542857Y-80152380D01*
X133638095Y-80200000D01*
X133685714Y-80247619D01*
X133733333Y-80342857D01*
X133733333Y-80485714D01*
X133685714Y-80580952D01*
X133638095Y-80628571D01*
X133542857Y-80676190D01*
X133161904Y-80676190D01*
X134114285Y-80247619D02*
X134161904Y-80200000D01*
X134257142Y-80152380D01*
X134495238Y-80152380D01*
X134590476Y-80200000D01*
X134638095Y-80247619D01*
X134685714Y-80342857D01*
X134685714Y-80438095D01*
X134638095Y-80580952D01*
X134066666Y-81152380D01*
X134685714Y-81152380D01*
X132666666Y-113752380D02*
X132666666Y-114466666D01*
X132619047Y-114609523D01*
X132523809Y-114704761D01*
X132380952Y-114752380D01*
X132285714Y-114752380D01*
X133666666Y-114752380D02*
X133095238Y-114752380D01*
X133380952Y-114752380D02*
X133380952Y-113752380D01*
X133285714Y-113895238D01*
X133190476Y-113990476D01*
X133095238Y-114038095D01*
X107600000Y-113752380D02*
X107600000Y-113990476D01*
X107361904Y-113895238D02*
X107600000Y-113990476D01*
X107838095Y-113895238D01*
X107457142Y-114180952D02*
X107600000Y-113990476D01*
X107742857Y-114180952D01*
X105126666Y-88552380D02*
X105126666Y-89266666D01*
X105079047Y-89409523D01*
X104983809Y-89504761D01*
X104840952Y-89552380D01*
X104745714Y-89552380D01*
X105507619Y-88552380D02*
X106126666Y-88552380D01*
X105793333Y-88933333D01*
X105936190Y-88933333D01*
X106031428Y-88980952D01*
X106079047Y-89028571D01*
X106126666Y-89123809D01*
X106126666Y-89361904D01*
X106079047Y-89457142D01*
X106031428Y-89504761D01*
X105936190Y-89552380D01*
X105650476Y-89552380D01*
X105555238Y-89504761D01*
X105507619Y-89457142D01*
X169546666Y-90702380D02*
X169546666Y-91416666D01*
X169499047Y-91559523D01*
X169403809Y-91654761D01*
X169260952Y-91702380D01*
X169165714Y-91702380D01*
X170451428Y-91035714D02*
X170451428Y-91702380D01*
X170213333Y-90654761D02*
X169975238Y-91369047D01*
X170594285Y-91369047D01*
X130116666Y-70742380D02*
X130116666Y-71456666D01*
X130069047Y-71599523D01*
X129973809Y-71694761D01*
X129830952Y-71742380D01*
X129735714Y-71742380D01*
X130545238Y-70837619D02*
X130592857Y-70790000D01*
X130688095Y-70742380D01*
X130926190Y-70742380D01*
X131021428Y-70790000D01*
X131069047Y-70837619D01*
X131116666Y-70932857D01*
X131116666Y-71028095D01*
X131069047Y-71170952D01*
X130497619Y-71742380D01*
X131116666Y-71742380D01*
X151809523Y-102702380D02*
X151476190Y-102226190D01*
X151238095Y-102702380D02*
X151238095Y-101702380D01*
X151619047Y-101702380D01*
X151714285Y-101750000D01*
X151761904Y-101797619D01*
X151809523Y-101892857D01*
X151809523Y-102035714D01*
X151761904Y-102130952D01*
X151714285Y-102178571D01*
X151619047Y-102226190D01*
X151238095Y-102226190D01*
X152238095Y-102702380D02*
X152238095Y-101702380D01*
X152809523Y-102702380D01*
X152809523Y-101702380D01*
X153190476Y-101702380D02*
X153857142Y-101702380D01*
X153428571Y-102702380D01*
X151809523Y-89702380D02*
X151476190Y-89226190D01*
X151238095Y-89702380D02*
X151238095Y-88702380D01*
X151619047Y-88702380D01*
X151714285Y-88750000D01*
X151761904Y-88797619D01*
X151809523Y-88892857D01*
X151809523Y-89035714D01*
X151761904Y-89130952D01*
X151714285Y-89178571D01*
X151619047Y-89226190D01*
X151238095Y-89226190D01*
X152238095Y-89702380D02*
X152238095Y-88702380D01*
X152809523Y-89702380D01*
X152809523Y-88702380D01*
X153428571Y-89130952D02*
X153333333Y-89083333D01*
X153285714Y-89035714D01*
X153238095Y-88940476D01*
X153238095Y-88892857D01*
X153285714Y-88797619D01*
X153333333Y-88750000D01*
X153428571Y-88702380D01*
X153619047Y-88702380D01*
X153714285Y-88750000D01*
X153761904Y-88797619D01*
X153809523Y-88892857D01*
X153809523Y-88940476D01*
X153761904Y-89035714D01*
X153714285Y-89083333D01*
X153619047Y-89130952D01*
X153428571Y-89130952D01*
X153333333Y-89178571D01*
X153285714Y-89226190D01*
X153238095Y-89321428D01*
X153238095Y-89511904D01*
X153285714Y-89607142D01*
X153333333Y-89654761D01*
X153428571Y-89702380D01*
X153619047Y-89702380D01*
X153714285Y-89654761D01*
X153761904Y-89607142D01*
X153809523Y-89511904D01*
X153809523Y-89321428D01*
X153761904Y-89226190D01*
X153714285Y-89178571D01*
X153619047Y-89130952D01*
X120309523Y-89702380D02*
X119976190Y-89226190D01*
X119738095Y-89702380D02*
X119738095Y-88702380D01*
X120119047Y-88702380D01*
X120214285Y-88750000D01*
X120261904Y-88797619D01*
X120309523Y-88892857D01*
X120309523Y-89035714D01*
X120261904Y-89130952D01*
X120214285Y-89178571D01*
X120119047Y-89226190D01*
X119738095Y-89226190D01*
X120738095Y-89702380D02*
X120738095Y-88702380D01*
X121309523Y-89702380D01*
X121309523Y-88702380D01*
X122309523Y-89702380D02*
X121738095Y-89702380D01*
X122023809Y-89702380D02*
X122023809Y-88702380D01*
X121928571Y-88845238D01*
X121833333Y-88940476D01*
X121738095Y-88988095D01*
X120309523Y-102702380D02*
X119976190Y-102226190D01*
X119738095Y-102702380D02*
X119738095Y-101702380D01*
X120119047Y-101702380D01*
X120214285Y-101750000D01*
X120261904Y-101797619D01*
X120309523Y-101892857D01*
X120309523Y-102035714D01*
X120261904Y-102130952D01*
X120214285Y-102178571D01*
X120119047Y-102226190D01*
X119738095Y-102226190D01*
X120738095Y-102702380D02*
X120738095Y-101702380D01*
X121309523Y-102702380D01*
X121309523Y-101702380D01*
X121738095Y-101797619D02*
X121785714Y-101750000D01*
X121880952Y-101702380D01*
X122119047Y-101702380D01*
X122214285Y-101750000D01*
X122261904Y-101797619D01*
X122309523Y-101892857D01*
X122309523Y-101988095D01*
X122261904Y-102130952D01*
X121690476Y-102702380D01*
X122309523Y-102702380D01*
X147563333Y-86767142D02*
X147515714Y-86814761D01*
X147372857Y-86862380D01*
X147277619Y-86862380D01*
X147134761Y-86814761D01*
X147039523Y-86719523D01*
X146991904Y-86624285D01*
X146944285Y-86433809D01*
X146944285Y-86290952D01*
X146991904Y-86100476D01*
X147039523Y-86005238D01*
X147134761Y-85910000D01*
X147277619Y-85862380D01*
X147372857Y-85862380D01*
X147515714Y-85910000D01*
X147563333Y-85957619D01*
X148515714Y-86862380D02*
X147944285Y-86862380D01*
X148230000Y-86862380D02*
X148230000Y-85862380D01*
X148134761Y-86005238D01*
X148039523Y-86100476D01*
X147944285Y-86148095D01*
X98961904Y-105502380D02*
X98961904Y-104502380D01*
X99200000Y-104502380D01*
X99342857Y-104550000D01*
X99438095Y-104645238D01*
X99485714Y-104740476D01*
X99533333Y-104930952D01*
X99533333Y-105073809D01*
X99485714Y-105264285D01*
X99438095Y-105359523D01*
X99342857Y-105454761D01*
X99200000Y-105502380D01*
X98961904Y-105502380D01*
X100485714Y-105502380D02*
X99914285Y-105502380D01*
X100200000Y-105502380D02*
X100200000Y-104502380D01*
X100104761Y-104645238D01*
X100009523Y-104740476D01*
X99914285Y-104788095D01*
X108180952Y-107752380D02*
X108180952Y-106752380D01*
X108419047Y-106752380D01*
X108561904Y-106800000D01*
X108657142Y-106895238D01*
X108704761Y-106990476D01*
X108752380Y-107180952D01*
X108752380Y-107323809D01*
X108704761Y-107514285D01*
X108657142Y-107609523D01*
X108561904Y-107704761D01*
X108419047Y-107752380D01*
X108180952Y-107752380D01*
X109704761Y-107752380D02*
X109133333Y-107752380D01*
X109419047Y-107752380D02*
X109419047Y-106752380D01*
X109323809Y-106895238D01*
X109228571Y-106990476D01*
X109133333Y-107038095D01*
X110276190Y-106752380D02*
X110276190Y-106990476D01*
X110038095Y-106895238D02*
X110276190Y-106990476D01*
X110514285Y-106895238D01*
X110133333Y-107180952D02*
X110276190Y-106990476D01*
X110419047Y-107180952D01*
X147112380Y-79697142D02*
X147064761Y-79744761D01*
X146921904Y-79792380D01*
X146826666Y-79792380D01*
X146683809Y-79744761D01*
X146588571Y-79649523D01*
X146540952Y-79554285D01*
X146493333Y-79363809D01*
X146493333Y-79220952D01*
X146540952Y-79030476D01*
X146588571Y-78935238D01*
X146683809Y-78840000D01*
X146826666Y-78792380D01*
X146921904Y-78792380D01*
X147064761Y-78840000D01*
X147112380Y-78887619D01*
X148064761Y-79792380D02*
X147493333Y-79792380D01*
X147779047Y-79792380D02*
X147779047Y-78792380D01*
X147683809Y-78935238D01*
X147588571Y-79030476D01*
X147493333Y-79078095D01*
X148636190Y-78792380D02*
X148636190Y-79030476D01*
X148398095Y-78935238D02*
X148636190Y-79030476D01*
X148874285Y-78935238D01*
X148493333Y-79220952D02*
X148636190Y-79030476D01*
X148779047Y-79220952D01*
X121366666Y-86152380D02*
X121366666Y-86866666D01*
X121319047Y-87009523D01*
X121223809Y-87104761D01*
X121080952Y-87152380D01*
X120985714Y-87152380D01*
X121842857Y-87152380D02*
X121842857Y-86152380D01*
X122223809Y-86152380D01*
X122319047Y-86200000D01*
X122366666Y-86247619D01*
X122414285Y-86342857D01*
X122414285Y-86485714D01*
X122366666Y-86580952D01*
X122319047Y-86628571D01*
X122223809Y-86676190D01*
X121842857Y-86676190D01*
X123366666Y-87152380D02*
X122795238Y-87152380D01*
X123080952Y-87152380D02*
X123080952Y-86152380D01*
X122985714Y-86295238D01*
X122890476Y-86390476D01*
X122795238Y-86438095D01*
X156122380Y-97063333D02*
X156836666Y-97063333D01*
X156979523Y-97110952D01*
X157074761Y-97206190D01*
X157122380Y-97349047D01*
X157122380Y-97444285D01*
X157122380Y-96587142D02*
X156122380Y-96587142D01*
X156122380Y-96206190D01*
X156170000Y-96110952D01*
X156217619Y-96063333D01*
X156312857Y-96015714D01*
X156455714Y-96015714D01*
X156550952Y-96063333D01*
X156598571Y-96110952D01*
X156646190Y-96206190D01*
X156646190Y-96587142D01*
X156122380Y-95682380D02*
X156122380Y-95063333D01*
X156503333Y-95396666D01*
X156503333Y-95253809D01*
X156550952Y-95158571D01*
X156598571Y-95110952D01*
X156693809Y-95063333D01*
X156931904Y-95063333D01*
X157027142Y-95110952D01*
X157074761Y-95158571D01*
X157122380Y-95253809D01*
X157122380Y-95539523D01*
X157074761Y-95634761D01*
X157027142Y-95682380D01*
X101772380Y-97063333D02*
X102486666Y-97063333D01*
X102629523Y-97110952D01*
X102724761Y-97206190D01*
X102772380Y-97349047D01*
X102772380Y-97444285D01*
X102772380Y-96587142D02*
X101772380Y-96587142D01*
X101772380Y-96206190D01*
X101820000Y-96110952D01*
X101867619Y-96063333D01*
X101962857Y-96015714D01*
X102105714Y-96015714D01*
X102200952Y-96063333D01*
X102248571Y-96110952D01*
X102296190Y-96206190D01*
X102296190Y-96587142D01*
X101867619Y-95634761D02*
X101820000Y-95587142D01*
X101772380Y-95491904D01*
X101772380Y-95253809D01*
X101820000Y-95158571D01*
X101867619Y-95110952D01*
X101962857Y-95063333D01*
X102058095Y-95063333D01*
X102200952Y-95110952D01*
X102772380Y-95682380D01*
X102772380Y-95063333D01*
X149522380Y-81763333D02*
X150236666Y-81763333D01*
X150379523Y-81810952D01*
X150474761Y-81906190D01*
X150522380Y-82049047D01*
X150522380Y-82144285D01*
X150522380Y-81287142D02*
X149522380Y-81287142D01*
X149522380Y-80906190D01*
X149570000Y-80810952D01*
X149617619Y-80763333D01*
X149712857Y-80715714D01*
X149855714Y-80715714D01*
X149950952Y-80763333D01*
X149998571Y-80810952D01*
X150046190Y-80906190D01*
X150046190Y-81287142D01*
X149855714Y-79858571D02*
X150522380Y-79858571D01*
X149474761Y-80096666D02*
X150189047Y-80334761D01*
X150189047Y-79715714D01*
X-1333333Y-952380D02*
X-1666666Y-476190D01*
X-1904761Y-952380D02*
X-1904761Y47619D01*
X-1523809Y47619D01*
X-1428571Y0D01*
X-1380952Y-47619D01*
X-1333333Y-142857D01*
X-1333333Y-285714D01*
X-1380952Y-380952D01*
X-1428571Y-428571D01*
X-1523809Y-476190D01*
X-1904761Y-476190D01*
X-904761Y-428571D02*
X-571428Y-428571D01*
X-428571Y-952380D02*
X-904761Y-952380D01*
X-904761Y47619D01*
X-428571Y47619D01*
X333333Y-428571D02*
X0Y-428571D01*
X0Y-952380D02*
X0Y47619D01*
X476190Y47619D01*
X999999Y47619D02*
X999999Y-190476D01*
X761904Y-95238D02*
X999999Y-190476D01*
X1238095Y-95238D01*
X857142Y-380952D02*
X999999Y-190476D01*
X1142857Y-380952D01*
X1761904Y47619D02*
X1761904Y-190476D01*
X1523809Y-95238D02*
X1761904Y-190476D01*
X1999999Y-95238D01*
X1619047Y-380952D02*
X1761904Y-190476D01*
X1904761Y-380952D01*
D15*
X96780000Y-95150000D02*
X96780000Y-101690000D01*
X98150000Y-94380000D02*
X98150000Y-95150000D01*
X98150000Y-102460000D02*
X98150000Y-101690000D01*
X99520000Y-101690000D02*
X99520000Y-95150000D01*
X96780000Y-101690000D02*
X99520000Y-101690000D01*
X99520000Y-95150000D02*
X96780000Y-95150000D01*
X112450000Y-95420000D02*
X114550000Y-95420000D01*
X112450000Y-90080000D02*
X114550000Y-90080000D01*
X136860000Y-82440000D02*
X136860000Y-82685000D01*
X133000000Y-82440000D02*
X136860000Y-82440000D01*
X136860000Y-100560000D02*
X136860000Y-100315000D01*
X136860000Y-100315000D02*
X138675000Y-100315000D01*
X129140000Y-82440000D02*
X129140000Y-82685000D01*
X133000000Y-100560000D02*
X136860000Y-100560000D01*
X129140000Y-100560000D02*
X129140000Y-100315000D01*
X133000000Y-82440000D02*
X129140000Y-82440000D01*
X133000000Y-100560000D02*
X129140000Y-100560000D01*
X132850000Y-76870000D02*
X132850000Y-74130000D01*
X125540000Y-75500000D02*
X126310000Y-75500000D01*
X133620000Y-75500000D02*
X132850000Y-75500000D01*
X126310000Y-76870000D02*
X132850000Y-76870000D01*
X126310000Y-74130000D02*
X126310000Y-76870000D01*
X132850000Y-74130000D02*
X126310000Y-74130000D01*
X155260000Y-71330000D02*
X132140000Y-71330000D01*
X145750000Y-62210000D02*
X145750000Y-63520000D01*
X153960000Y-70020000D02*
X133440000Y-70020000D01*
X133440000Y-70020000D02*
X133440000Y-63520000D01*
X149550000Y-60820000D02*
X150050000Y-61820000D01*
X141650000Y-63520000D02*
X141650000Y-62210000D01*
X153960000Y-63520000D02*
X153960000Y-70020000D01*
X155260000Y-62210000D02*
X155260000Y-71330000D01*
X141650000Y-63520000D02*
X141650000Y-63520000D01*
X133440000Y-63520000D02*
X141650000Y-63520000D01*
X150050000Y-61820000D02*
X150550000Y-60820000D01*
X145750000Y-63520000D02*
X153960000Y-63520000D01*
X132140000Y-71330000D02*
X132140000Y-62210000D01*
X150550000Y-60820000D02*
X149550000Y-60820000D01*
X132140000Y-62210000D02*
X155260000Y-62210000D01*
X118150000Y-75330000D02*
X118150000Y-77430000D01*
X112810000Y-75330000D02*
X112810000Y-77430000D01*
X143950000Y-101420000D02*
X146050000Y-101420000D01*
X143950000Y-96080000D02*
X146050000Y-96080000D01*
X143950000Y-90080000D02*
X146050000Y-90080000D01*
X143950000Y-95420000D02*
X146050000Y-95420000D01*
X112450000Y-101420000D02*
X114550000Y-101420000D01*
X112450000Y-96080000D02*
X114550000Y-96080000D01*
X125540000Y-79000000D02*
X126310000Y-79000000D01*
X126310000Y-77630000D02*
X126310000Y-80370000D01*
X133620000Y-79000000D02*
X132850000Y-79000000D01*
X126310000Y-80370000D02*
X132850000Y-80370000D01*
X132850000Y-80370000D02*
X132850000Y-77630000D01*
X132850000Y-77630000D02*
X126310000Y-77630000D01*
X103193100Y-110007400D02*
X103193100Y-123261701D01*
X162806900Y-131826000D02*
X162806900Y-125404299D01*
X145945098Y-110007400D02*
X134024902Y-110007400D01*
X118005098Y-110007400D02*
X103193100Y-110007400D01*
X103193100Y-125404299D02*
X103193100Y-131826000D01*
X162806900Y-123261701D02*
X162806900Y-110007400D01*
X103193100Y-131826000D02*
X162806900Y-131826000D01*
X131975098Y-110007400D02*
X120054902Y-110007400D01*
X162806900Y-110007400D02*
X147994902Y-110007400D01*
X99091000Y-114300000D02*
G75*
G03*
X99091000Y-114300000I-381000J0D01*
G01*
X95310000Y-72390000D02*
X104430000Y-72390000D01*
X104430000Y-72390000D02*
X104430000Y-90430000D01*
X103120000Y-89130000D02*
X96620000Y-89130000D01*
X104430000Y-90430000D02*
X95310000Y-90430000D01*
X93920000Y-78100000D02*
X94920000Y-77600000D01*
X96620000Y-83460000D02*
X95310000Y-83460000D01*
X93920000Y-77100000D02*
X93920000Y-78100000D01*
X96620000Y-79360000D02*
X96620000Y-73690000D01*
X96620000Y-73690000D02*
X103120000Y-73690000D01*
X95310000Y-79360000D02*
X96620000Y-79360000D01*
X96620000Y-83460000D02*
X96620000Y-83460000D01*
X103120000Y-73690000D02*
X103120000Y-89130000D01*
X96620000Y-89130000D02*
X96620000Y-83460000D01*
X95310000Y-90430000D02*
X95310000Y-72390000D01*
X94920000Y-77600000D02*
X93920000Y-77100000D01*
X172080000Y-84700000D02*
X171080000Y-85200000D01*
X169380000Y-83440000D02*
X169380000Y-89110000D01*
X170690000Y-72370000D02*
X170690000Y-90410000D01*
X161570000Y-72370000D02*
X170690000Y-72370000D01*
X169380000Y-79340000D02*
X169380000Y-79340000D01*
X162880000Y-73670000D02*
X169380000Y-73670000D01*
X169380000Y-79340000D02*
X170690000Y-79340000D01*
X170690000Y-83440000D02*
X169380000Y-83440000D01*
X169380000Y-89110000D02*
X162880000Y-89110000D01*
X170690000Y-90410000D02*
X161570000Y-90410000D01*
X162880000Y-89110000D02*
X162880000Y-73670000D01*
X161570000Y-90410000D02*
X161570000Y-72370000D01*
X172080000Y-85700000D02*
X172080000Y-84700000D01*
X171080000Y-85200000D02*
X172080000Y-85700000D01*
X169380000Y-73670000D02*
X169380000Y-79340000D01*
X112220000Y-63570000D02*
X117890000Y-63570000D01*
X117890000Y-63570000D02*
X117890000Y-62260000D01*
X127660000Y-70070000D02*
X112220000Y-70070000D01*
X117890000Y-63570000D02*
X117890000Y-63570000D01*
X110920000Y-62260000D02*
X128960000Y-62260000D01*
X110920000Y-71380000D02*
X110920000Y-62260000D01*
X128960000Y-71380000D02*
X110920000Y-71380000D01*
X121990000Y-62260000D02*
X121990000Y-63570000D01*
X123750000Y-61870000D02*
X124250000Y-60870000D01*
X124250000Y-60870000D02*
X123250000Y-60870000D01*
X128960000Y-62260000D02*
X128960000Y-71380000D01*
X112220000Y-70070000D02*
X112220000Y-63570000D01*
X121990000Y-63570000D02*
X127660000Y-63570000D01*
X123250000Y-60870000D02*
X123750000Y-61870000D01*
X127660000Y-63570000D02*
X127660000Y-70070000D01*
X153550000Y-101420000D02*
X151450000Y-101420000D01*
X153550000Y-96080000D02*
X151450000Y-96080000D01*
X153550000Y-95420000D02*
X151450000Y-95420000D01*
X153550000Y-90080000D02*
X151450000Y-90080000D01*
X122050000Y-90080000D02*
X119950000Y-90080000D01*
X122050000Y-95420000D02*
X119950000Y-95420000D01*
X122050000Y-101420000D02*
X119950000Y-101420000D01*
X122050000Y-96080000D02*
X119950000Y-96080000D01*
X145540000Y-84610000D02*
X146682000Y-84610000D01*
X145540000Y-83889000D02*
X146287000Y-83889000D01*
X142746000Y-84529000D02*
X143860000Y-84529000D01*
X143760000Y-83369000D02*
X145640000Y-83369000D01*
X145540000Y-84930000D02*
X146756000Y-84930000D01*
X142695000Y-84690000D02*
X143860000Y-84690000D01*
X142644000Y-84930000D02*
X143860000Y-84930000D01*
X142666000Y-84810000D02*
X143860000Y-84810000D01*
X145540000Y-84089000D02*
X146435000Y-84089000D01*
X145540000Y-84570000D02*
X146668000Y-84570000D01*
X142915000Y-84169000D02*
X143860000Y-84169000D01*
X145540000Y-83809000D02*
X146216000Y-83809000D01*
X145540000Y-84690000D02*
X146705000Y-84690000D01*
X142760000Y-84489000D02*
X143860000Y-84489000D01*
X144036000Y-83249000D02*
X145364000Y-83249000D01*
X142633000Y-85010000D02*
X143860000Y-85010000D01*
X145540000Y-83769000D02*
X146178000Y-83769000D01*
X142940000Y-84129000D02*
X143860000Y-84129000D01*
X143396000Y-83609000D02*
X146004000Y-83609000D01*
X142658000Y-84850000D02*
X143860000Y-84850000D01*
X143841000Y-83329000D02*
X145559000Y-83329000D01*
X145540000Y-84329000D02*
X146570000Y-84329000D01*
X142675000Y-84770000D02*
X143860000Y-84770000D01*
X145540000Y-83729000D02*
X146138000Y-83729000D01*
X143304000Y-83689000D02*
X143860000Y-83689000D01*
X145540000Y-84489000D02*
X146640000Y-84489000D01*
X143505000Y-87519801D02*
X143505000Y-87119801D01*
X142992000Y-84049000D02*
X143860000Y-84049000D01*
X145540000Y-84409000D02*
X146607000Y-84409000D01*
X143558000Y-83489000D02*
X145842000Y-83489000D01*
X143050000Y-83969000D02*
X143860000Y-83969000D01*
X145540000Y-85210000D02*
X146780000Y-85210000D01*
X143446000Y-83569000D02*
X145954000Y-83569000D01*
X142718000Y-84610000D02*
X143860000Y-84610000D01*
X145540000Y-84009000D02*
X146380000Y-84009000D01*
X142638000Y-84970000D02*
X143860000Y-84970000D01*
X145540000Y-85130000D02*
X146777000Y-85130000D01*
X142793000Y-84409000D02*
X143860000Y-84409000D01*
X145540000Y-84810000D02*
X146734000Y-84810000D01*
X145540000Y-84730000D02*
X146716000Y-84730000D01*
X145540000Y-84369000D02*
X146589000Y-84369000D01*
X145540000Y-85170000D02*
X146779000Y-85170000D01*
X143305000Y-87319801D02*
X143705000Y-87319801D01*
X143148000Y-83849000D02*
X143860000Y-83849000D01*
X144330000Y-83169000D02*
X145070000Y-83169000D01*
X145540000Y-84650000D02*
X146694000Y-84650000D01*
X145540000Y-84209000D02*
X146508000Y-84209000D01*
X143081000Y-83929000D02*
X143860000Y-83929000D01*
X142620000Y-85210000D02*
X143860000Y-85210000D01*
X145540000Y-84970000D02*
X146762000Y-84970000D01*
X143113000Y-83889000D02*
X143860000Y-83889000D01*
X145540000Y-84129000D02*
X146460000Y-84129000D01*
X143184000Y-83809000D02*
X143860000Y-83809000D01*
X142620000Y-85250000D02*
X143860000Y-85250000D01*
X142706000Y-84650000D02*
X143860000Y-84650000D01*
X145540000Y-84049000D02*
X146408000Y-84049000D01*
X145540000Y-85250000D02*
X146780000Y-85250000D01*
X142830000Y-84329000D02*
X143860000Y-84329000D01*
X145540000Y-84529000D02*
X146654000Y-84529000D01*
X145540000Y-84249000D02*
X146530000Y-84249000D01*
X143262000Y-83729000D02*
X143860000Y-83729000D01*
X142811000Y-84369000D02*
X143860000Y-84369000D01*
X145540000Y-85090000D02*
X146774000Y-85090000D01*
X142965000Y-84089000D02*
X143860000Y-84089000D01*
X142650000Y-84890000D02*
X143860000Y-84890000D01*
X142892000Y-84209000D02*
X143860000Y-84209000D01*
X142732000Y-84570000D02*
X143860000Y-84570000D01*
X142870000Y-84249000D02*
X143860000Y-84249000D01*
X142621000Y-85170000D02*
X143860000Y-85170000D01*
X142623000Y-85130000D02*
X143860000Y-85130000D01*
X145540000Y-84890000D02*
X146750000Y-84890000D01*
X145540000Y-84169000D02*
X146485000Y-84169000D01*
X143020000Y-84009000D02*
X143860000Y-84009000D01*
X143620000Y-83449000D02*
X145780000Y-83449000D01*
X145540000Y-84449000D02*
X146624000Y-84449000D01*
X143349000Y-83649000D02*
X146051000Y-83649000D01*
X145540000Y-85010000D02*
X146767000Y-85010000D01*
X143687000Y-83409000D02*
X145713000Y-83409000D01*
X143932000Y-83289000D02*
X145468000Y-83289000D01*
X142626000Y-85090000D02*
X143860000Y-85090000D01*
X142849000Y-84289000D02*
X143860000Y-84289000D01*
X145540000Y-84770000D02*
X146725000Y-84770000D01*
X145540000Y-84289000D02*
X146551000Y-84289000D01*
X142776000Y-84449000D02*
X143860000Y-84449000D01*
X142629000Y-85050000D02*
X143860000Y-85050000D01*
X142684000Y-84730000D02*
X143860000Y-84730000D01*
X143500000Y-83529000D02*
X145900000Y-83529000D01*
X144163000Y-83209000D02*
X145237000Y-83209000D01*
X145540000Y-83969000D02*
X146350000Y-83969000D01*
X145540000Y-83849000D02*
X146252000Y-83849000D01*
X145540000Y-85050000D02*
X146771000Y-85050000D01*
X145540000Y-83929000D02*
X146319000Y-83929000D01*
X145540000Y-84850000D02*
X146742000Y-84850000D01*
X145540000Y-83689000D02*
X146096000Y-83689000D01*
X143222000Y-83769000D02*
X143860000Y-83769000D01*
X146820000Y-85250000D02*
G75*
G03*
X146820000Y-85250000I-2120000J0D01*
G01*
X100700000Y-105740000D02*
X98015000Y-105740000D01*
X98015000Y-105740000D02*
X98015000Y-107660000D01*
X98015000Y-107660000D02*
X100700000Y-107660000D01*
X97577500Y-98754724D02*
X97577500Y-98245276D01*
X98622500Y-98754724D02*
X98622500Y-98245276D01*
X103010000Y-102955000D02*
X103010000Y-106045000D01*
X108560000Y-104500462D02*
G75*
G03*
X103010000Y-102955170I-2990000J462D01*
G01*
X103010000Y-106044830D02*
G75*
G03*
X108560000Y-104499538I2560000J1544830D01*
G01*
X108070000Y-104500000D02*
G75*
G03*
X108070000Y-104500000I-2500000J0D01*
G01*
X141604437Y-79960000D02*
X145060000Y-79960000D01*
X141604437Y-75440000D02*
X145060000Y-75440000D01*
X140540000Y-78895563D02*
X140540000Y-78760000D01*
X140540000Y-76504437D02*
X141604437Y-75440000D01*
X140540000Y-78895563D02*
X141604437Y-79960000D01*
X140050000Y-75890000D02*
X140050000Y-76390000D01*
X140540000Y-76504437D02*
X140540000Y-76640000D01*
X145060000Y-75440000D02*
X145060000Y-76640000D01*
X145060000Y-79960000D02*
X145060000Y-78760000D01*
X139800000Y-76140000D02*
X140300000Y-76140000D01*
X129345276Y-78477500D02*
X129854724Y-78477500D01*
X129345276Y-79522500D02*
X129854724Y-79522500D01*
X110300000Y-84240000D02*
X110300000Y-81640000D01*
X120580000Y-86840000D02*
X120580000Y-81640000D01*
X112900000Y-86840000D02*
X120580000Y-86840000D01*
X110300000Y-81640000D02*
X120580000Y-81640000D01*
X112900000Y-84240000D02*
X110300000Y-84240000D01*
X110300000Y-86840000D02*
X110300000Y-85510000D01*
X112900000Y-86840000D02*
X112900000Y-84240000D01*
X111630000Y-86840000D02*
X110300000Y-86840000D01*
X160270000Y-98830000D02*
X160270000Y-96230000D01*
X160270000Y-96230000D02*
X157670000Y-96230000D01*
X159000000Y-98830000D02*
X157670000Y-98830000D01*
X160270000Y-98830000D02*
X162870000Y-98830000D01*
X162870000Y-98830000D02*
X162870000Y-93630000D01*
X157670000Y-98830000D02*
X157670000Y-97500000D01*
X157670000Y-93630000D02*
X162870000Y-93630000D01*
X157670000Y-96230000D02*
X157670000Y-93630000D01*
X104650000Y-98830000D02*
X103320000Y-98830000D01*
X103320000Y-98830000D02*
X103320000Y-97500000D01*
X103320000Y-96230000D02*
X103320000Y-93630000D01*
X105920000Y-96230000D02*
X103320000Y-96230000D01*
X103320000Y-93630000D02*
X108520000Y-93630000D01*
X108520000Y-98830000D02*
X108520000Y-93630000D01*
X105920000Y-98830000D02*
X108520000Y-98830000D01*
X105920000Y-98830000D02*
X105920000Y-96230000D01*
X151070000Y-83530000D02*
X151070000Y-82200000D01*
X152400000Y-83530000D02*
X151070000Y-83530000D01*
X153670000Y-83530000D02*
X153670000Y-80930000D01*
X156270000Y-83530000D02*
X156270000Y-78330000D01*
X153670000Y-80930000D02*
X151070000Y-80930000D01*
X151070000Y-80930000D02*
X151070000Y-78330000D01*
X151070000Y-78330000D02*
X156270000Y-78330000D01*
X153670000Y-83530000D02*
X156270000Y-83530000D01*
G36*
X169765280Y-109048123D02*
G01*
X169763240Y-109103304D01*
X169757613Y-109171931D01*
X169749138Y-109247595D01*
X169738553Y-109323889D01*
X169726597Y-109394404D01*
X169723581Y-109409880D01*
X169683944Y-109567609D01*
X169631095Y-109713755D01*
X169565774Y-109847305D01*
X169488724Y-109967244D01*
X169400685Y-110072558D01*
X169302401Y-110162234D01*
X169194611Y-110235256D01*
X169080043Y-110289849D01*
X169042864Y-110304262D01*
X169010321Y-110316684D01*
X168980642Y-110327267D01*
X168952055Y-110336165D01*
X168922788Y-110343530D01*
X168891071Y-110349514D01*
X168855132Y-110354270D01*
X168813200Y-110357951D01*
X168763502Y-110360709D01*
X168704269Y-110362696D01*
X168633727Y-110364066D01*
X168550106Y-110364970D01*
X168451635Y-110365562D01*
X168336542Y-110365994D01*
X168203055Y-110366418D01*
X168190480Y-110366459D01*
X168049451Y-110366836D01*
X167927344Y-110366944D01*
X167822764Y-110366761D01*
X167734312Y-110366266D01*
X167660594Y-110365436D01*
X167600213Y-110364251D01*
X167551772Y-110362688D01*
X167513875Y-110360726D01*
X167485125Y-110358343D01*
X167464127Y-110355517D01*
X167462067Y-110355148D01*
X167318717Y-110319237D01*
X167186968Y-110266682D01*
X167066992Y-110197640D01*
X166958962Y-110112269D01*
X166863047Y-110010724D01*
X166779420Y-109893162D01*
X166708253Y-109759741D01*
X166650724Y-109613635D01*
X166619846Y-109508200D01*
X166593640Y-109392685D01*
X166573276Y-109273982D01*
X166559921Y-109158981D01*
X166554745Y-109054574D01*
X166554720Y-109047435D01*
X166554720Y-108998400D01*
X169765280Y-108998400D01*
X169765280Y-109048123D01*
G37*
D16*
X169765280Y-109048123D02*
X169763240Y-109103304D01*
X169757613Y-109171931D01*
X169749138Y-109247595D01*
X169738553Y-109323889D01*
X169726597Y-109394404D01*
X169723581Y-109409880D01*
X169683944Y-109567609D01*
X169631095Y-109713755D01*
X169565774Y-109847305D01*
X169488724Y-109967244D01*
X169400685Y-110072558D01*
X169302401Y-110162234D01*
X169194611Y-110235256D01*
X169080043Y-110289849D01*
X169042864Y-110304262D01*
X169010321Y-110316684D01*
X168980642Y-110327267D01*
X168952055Y-110336165D01*
X168922788Y-110343530D01*
X168891071Y-110349514D01*
X168855132Y-110354270D01*
X168813200Y-110357951D01*
X168763502Y-110360709D01*
X168704269Y-110362696D01*
X168633727Y-110364066D01*
X168550106Y-110364970D01*
X168451635Y-110365562D01*
X168336542Y-110365994D01*
X168203055Y-110366418D01*
X168190480Y-110366459D01*
X168049451Y-110366836D01*
X167927344Y-110366944D01*
X167822764Y-110366761D01*
X167734312Y-110366266D01*
X167660594Y-110365436D01*
X167600213Y-110364251D01*
X167551772Y-110362688D01*
X167513875Y-110360726D01*
X167485125Y-110358343D01*
X167464127Y-110355517D01*
X167462067Y-110355148D01*
X167318717Y-110319237D01*
X167186968Y-110266682D01*
X167066992Y-110197640D01*
X166958962Y-110112269D01*
X166863047Y-110010724D01*
X166779420Y-109893162D01*
X166708253Y-109759741D01*
X166650724Y-109613635D01*
X166619846Y-109508200D01*
X166593640Y-109392685D01*
X166573276Y-109273982D01*
X166559921Y-109158981D01*
X166554745Y-109054574D01*
X166554720Y-109047435D01*
X166554720Y-108998400D01*
X169765280Y-108998400D01*
X169765280Y-109048123D01*
G36*
X169314521Y-100406059D02*
G01*
X169341618Y-100414483D01*
X169381926Y-100429031D01*
X169432748Y-100448682D01*
X169491387Y-100472410D01*
X169555146Y-100499194D01*
X169577229Y-100508693D01*
X169808497Y-100619736D01*
X170030417Y-100748269D01*
X170242026Y-100893271D01*
X170442363Y-101053724D01*
X170630466Y-101228607D01*
X170805373Y-101416902D01*
X170966124Y-101617590D01*
X171111757Y-101829651D01*
X171241309Y-102052066D01*
X171353820Y-102283815D01*
X171429926Y-102472569D01*
X171512619Y-102725983D01*
X171575875Y-102983187D01*
X171619693Y-103243041D01*
X171644073Y-103504401D01*
X171649016Y-103766127D01*
X171634521Y-104027076D01*
X171600587Y-104286107D01*
X171547216Y-104542079D01*
X171474406Y-104793849D01*
X171430203Y-104919160D01*
X171386626Y-105030810D01*
X171341650Y-105135981D01*
X171293637Y-105237630D01*
X171240945Y-105338716D01*
X171181936Y-105442197D01*
X171114969Y-105551030D01*
X171038404Y-105668173D01*
X170950601Y-105796586D01*
X170917629Y-105843720D01*
X170866774Y-105917721D01*
X170808946Y-106004668D01*
X170747168Y-106099812D01*
X170684462Y-106198406D01*
X170623851Y-106295703D01*
X170568358Y-106386956D01*
X170525967Y-106458819D01*
X170443899Y-106600640D01*
X169138204Y-106600640D01*
X168948670Y-106600634D01*
X168778425Y-106600607D01*
X168626441Y-106600543D01*
X168491685Y-106600428D01*
X168373130Y-106600244D01*
X168269743Y-106599978D01*
X168180496Y-106599614D01*
X168104358Y-106599135D01*
X168040298Y-106598528D01*
X167987288Y-106597776D01*
X167944295Y-106596864D01*
X167910292Y-106595777D01*
X167884246Y-106594499D01*
X167865129Y-106593015D01*
X167851910Y-106591310D01*
X167843558Y-106589367D01*
X167839045Y-106587172D01*
X167837339Y-106584710D01*
X167837410Y-106581964D01*
X167837594Y-106581197D01*
X167840315Y-106569871D01*
X167847540Y-106539528D01*
X167859090Y-106490926D01*
X167874785Y-106424820D01*
X167894445Y-106341968D01*
X167917893Y-106243126D01*
X167944947Y-106129051D01*
X167975429Y-106000499D01*
X168009159Y-105858227D01*
X168045959Y-105702992D01*
X168085648Y-105535551D01*
X168128048Y-105356659D01*
X168172978Y-105167074D01*
X168220261Y-104967552D01*
X168269715Y-104758850D01*
X168321163Y-104541724D01*
X168374424Y-104316931D01*
X168429320Y-104085228D01*
X168485670Y-103847371D01*
X168543296Y-103604118D01*
X168571528Y-103484937D01*
X168629667Y-103239538D01*
X168686604Y-102999263D01*
X168742163Y-102764865D01*
X168796163Y-102537094D01*
X168848428Y-102316703D01*
X168898777Y-102104443D01*
X168947034Y-101901065D01*
X168993018Y-101707321D01*
X169036552Y-101523961D01*
X169077457Y-101351738D01*
X169115555Y-101191403D01*
X169150667Y-101043707D01*
X169182615Y-100909402D01*
X169211219Y-100789238D01*
X169236302Y-100683968D01*
X169257685Y-100594343D01*
X169275189Y-100521114D01*
X169288637Y-100465033D01*
X169297848Y-100426851D01*
X169302646Y-100407319D01*
X169303332Y-100404783D01*
X169314521Y-100406059D01*
G37*
X169314521Y-100406059D02*
X169341618Y-100414483D01*
X169381926Y-100429031D01*
X169432748Y-100448682D01*
X169491387Y-100472410D01*
X169555146Y-100499194D01*
X169577229Y-100508693D01*
X169808497Y-100619736D01*
X170030417Y-100748269D01*
X170242026Y-100893271D01*
X170442363Y-101053724D01*
X170630466Y-101228607D01*
X170805373Y-101416902D01*
X170966124Y-101617590D01*
X171111757Y-101829651D01*
X171241309Y-102052066D01*
X171353820Y-102283815D01*
X171429926Y-102472569D01*
X171512619Y-102725983D01*
X171575875Y-102983187D01*
X171619693Y-103243041D01*
X171644073Y-103504401D01*
X171649016Y-103766127D01*
X171634521Y-104027076D01*
X171600587Y-104286107D01*
X171547216Y-104542079D01*
X171474406Y-104793849D01*
X171430203Y-104919160D01*
X171386626Y-105030810D01*
X171341650Y-105135981D01*
X171293637Y-105237630D01*
X171240945Y-105338716D01*
X171181936Y-105442197D01*
X171114969Y-105551030D01*
X171038404Y-105668173D01*
X170950601Y-105796586D01*
X170917629Y-105843720D01*
X170866774Y-105917721D01*
X170808946Y-106004668D01*
X170747168Y-106099812D01*
X170684462Y-106198406D01*
X170623851Y-106295703D01*
X170568358Y-106386956D01*
X170525967Y-106458819D01*
X170443899Y-106600640D01*
X169138204Y-106600640D01*
X168948670Y-106600634D01*
X168778425Y-106600607D01*
X168626441Y-106600543D01*
X168491685Y-106600428D01*
X168373130Y-106600244D01*
X168269743Y-106599978D01*
X168180496Y-106599614D01*
X168104358Y-106599135D01*
X168040298Y-106598528D01*
X167987288Y-106597776D01*
X167944295Y-106596864D01*
X167910292Y-106595777D01*
X167884246Y-106594499D01*
X167865129Y-106593015D01*
X167851910Y-106591310D01*
X167843558Y-106589367D01*
X167839045Y-106587172D01*
X167837339Y-106584710D01*
X167837410Y-106581964D01*
X167837594Y-106581197D01*
X167840315Y-106569871D01*
X167847540Y-106539528D01*
X167859090Y-106490926D01*
X167874785Y-106424820D01*
X167894445Y-106341968D01*
X167917893Y-106243126D01*
X167944947Y-106129051D01*
X167975429Y-106000499D01*
X168009159Y-105858227D01*
X168045959Y-105702992D01*
X168085648Y-105535551D01*
X168128048Y-105356659D01*
X168172978Y-105167074D01*
X168220261Y-104967552D01*
X168269715Y-104758850D01*
X168321163Y-104541724D01*
X168374424Y-104316931D01*
X168429320Y-104085228D01*
X168485670Y-103847371D01*
X168543296Y-103604118D01*
X168571528Y-103484937D01*
X168629667Y-103239538D01*
X168686604Y-102999263D01*
X168742163Y-102764865D01*
X168796163Y-102537094D01*
X168848428Y-102316703D01*
X168898777Y-102104443D01*
X168947034Y-101901065D01*
X168993018Y-101707321D01*
X169036552Y-101523961D01*
X169077457Y-101351738D01*
X169115555Y-101191403D01*
X169150667Y-101043707D01*
X169182615Y-100909402D01*
X169211219Y-100789238D01*
X169236302Y-100683968D01*
X169257685Y-100594343D01*
X169275189Y-100521114D01*
X169288637Y-100465033D01*
X169297848Y-100426851D01*
X169302646Y-100407319D01*
X169303332Y-100404783D01*
X169314521Y-100406059D01*
G36*
X168190275Y-100215499D02*
G01*
X168257880Y-100216093D01*
X168316140Y-100217056D01*
X168362411Y-100218330D01*
X168394048Y-100219856D01*
X168408408Y-100221574D01*
X168408909Y-100221846D01*
X168407129Y-100232146D01*
X168400828Y-100261471D01*
X168390180Y-100309076D01*
X168375359Y-100374216D01*
X168356540Y-100456145D01*
X168333897Y-100554119D01*
X168307606Y-100667393D01*
X168277840Y-100795222D01*
X168244774Y-100936860D01*
X168208582Y-101091563D01*
X168169440Y-101258586D01*
X168127522Y-101437184D01*
X168083001Y-101626611D01*
X168036054Y-101826122D01*
X167986854Y-102034974D01*
X167935576Y-102252419D01*
X167882395Y-102477715D01*
X167827485Y-102710115D01*
X167771020Y-102948874D01*
X167713175Y-103193248D01*
X167672336Y-103365653D01*
X167602353Y-103661003D01*
X167536910Y-103937229D01*
X167475858Y-104194979D01*
X167419048Y-104434901D01*
X167366332Y-104657644D01*
X167317560Y-104863855D01*
X167272585Y-105054183D01*
X167231257Y-105229274D01*
X167193428Y-105389779D01*
X167158949Y-105536343D01*
X167127671Y-105669616D01*
X167099446Y-105790246D01*
X167074125Y-105898879D01*
X167051559Y-105996165D01*
X167031600Y-106082752D01*
X167014099Y-106159287D01*
X166998906Y-106226419D01*
X166985875Y-106284795D01*
X166974855Y-106335064D01*
X166965698Y-106377873D01*
X166958256Y-106413870D01*
X166952380Y-106443704D01*
X166947920Y-106468023D01*
X166944729Y-106487475D01*
X166942657Y-106502707D01*
X166941557Y-106514367D01*
X166941278Y-106523104D01*
X166941674Y-106529566D01*
X166942594Y-106534400D01*
X166943890Y-106538256D01*
X166944182Y-106538967D01*
X167035317Y-106766698D01*
X167113032Y-106982913D01*
X167178298Y-107190443D01*
X167221647Y-107349940D01*
X167260773Y-107504880D01*
X168651273Y-107504880D01*
X168847654Y-107504891D01*
X169024704Y-107504935D01*
X169183412Y-107505022D01*
X169324766Y-107505165D01*
X169449755Y-107505376D01*
X169559369Y-107505667D01*
X169654596Y-107506051D01*
X169736424Y-107506540D01*
X169805844Y-107507145D01*
X169863843Y-107507879D01*
X169911410Y-107508754D01*
X169949535Y-107509782D01*
X169979205Y-107510976D01*
X170001411Y-107512347D01*
X170017141Y-107513908D01*
X170027383Y-107515671D01*
X170033126Y-107517647D01*
X170035360Y-107519850D01*
X170035243Y-107521898D01*
X170030348Y-107536897D01*
X170020850Y-107567866D01*
X170007817Y-107611259D01*
X169992312Y-107663535D01*
X169978600Y-107710211D01*
X169908411Y-107977498D01*
X169849978Y-108258683D01*
X169803917Y-108550667D01*
X169791053Y-108652960D01*
X169784513Y-108708472D01*
X169778286Y-108761225D01*
X169773034Y-108805622D01*
X169769417Y-108836067D01*
X169769141Y-108838380D01*
X169763373Y-108886640D01*
X168159046Y-108886640D01*
X167980177Y-108886592D01*
X167806904Y-108886453D01*
X167640311Y-108886228D01*
X167481479Y-108885922D01*
X167331491Y-108885540D01*
X167191431Y-108885087D01*
X167062380Y-108884569D01*
X166945421Y-108883990D01*
X166841636Y-108883355D01*
X166752109Y-108882671D01*
X166677922Y-108881941D01*
X166620157Y-108881171D01*
X166579897Y-108880367D01*
X166558224Y-108879532D01*
X166554593Y-108879020D01*
X166553454Y-108866892D01*
X166550376Y-108838004D01*
X166545734Y-108795784D01*
X166539904Y-108743660D01*
X166534463Y-108695594D01*
X166491762Y-108384608D01*
X166435825Y-108085023D01*
X166366981Y-107798320D01*
X166285557Y-107525983D01*
X166259320Y-107449000D01*
X166173164Y-107223275D01*
X166070338Y-106989167D01*
X165951779Y-106748429D01*
X165818428Y-106502815D01*
X165671223Y-106254079D01*
X165511105Y-106003974D01*
X165391459Y-105828480D01*
X165328916Y-105738515D01*
X165276459Y-105661776D01*
X165232101Y-105595146D01*
X165193853Y-105535505D01*
X165159727Y-105479738D01*
X165127735Y-105424725D01*
X165095890Y-105367349D01*
X165087238Y-105351381D01*
X164971070Y-105115040D01*
X164873888Y-104872664D01*
X164795648Y-104625343D01*
X164736306Y-104374165D01*
X164695819Y-104120220D01*
X164674141Y-103864596D01*
X164671229Y-103608383D01*
X164687039Y-103352670D01*
X164721526Y-103098547D01*
X164774648Y-102847101D01*
X164846359Y-102599422D01*
X164936615Y-102356600D01*
X165045373Y-102119723D01*
X165172588Y-101889881D01*
X165231091Y-101796356D01*
X165383452Y-101579559D01*
X165550548Y-101376378D01*
X165731545Y-101187377D01*
X165925607Y-101013117D01*
X166131899Y-100854160D01*
X166349587Y-100711067D01*
X166577834Y-100584401D01*
X166815805Y-100474723D01*
X167062666Y-100382595D01*
X167317581Y-100308578D01*
X167504680Y-100267003D01*
X167587511Y-100251574D01*
X167661909Y-100239460D01*
X167732308Y-100230286D01*
X167803145Y-100223677D01*
X167878856Y-100219258D01*
X167963876Y-100216654D01*
X168062642Y-100215490D01*
X168115969Y-100215333D01*
X168190275Y-100215499D01*
G37*
X168190275Y-100215499D02*
X168257880Y-100216093D01*
X168316140Y-100217056D01*
X168362411Y-100218330D01*
X168394048Y-100219856D01*
X168408408Y-100221574D01*
X168408909Y-100221846D01*
X168407129Y-100232146D01*
X168400828Y-100261471D01*
X168390180Y-100309076D01*
X168375359Y-100374216D01*
X168356540Y-100456145D01*
X168333897Y-100554119D01*
X168307606Y-100667393D01*
X168277840Y-100795222D01*
X168244774Y-100936860D01*
X168208582Y-101091563D01*
X168169440Y-101258586D01*
X168127522Y-101437184D01*
X168083001Y-101626611D01*
X168036054Y-101826122D01*
X167986854Y-102034974D01*
X167935576Y-102252419D01*
X167882395Y-102477715D01*
X167827485Y-102710115D01*
X167771020Y-102948874D01*
X167713175Y-103193248D01*
X167672336Y-103365653D01*
X167602353Y-103661003D01*
X167536910Y-103937229D01*
X167475858Y-104194979D01*
X167419048Y-104434901D01*
X167366332Y-104657644D01*
X167317560Y-104863855D01*
X167272585Y-105054183D01*
X167231257Y-105229274D01*
X167193428Y-105389779D01*
X167158949Y-105536343D01*
X167127671Y-105669616D01*
X167099446Y-105790246D01*
X167074125Y-105898879D01*
X167051559Y-105996165D01*
X167031600Y-106082752D01*
X167014099Y-106159287D01*
X166998906Y-106226419D01*
X166985875Y-106284795D01*
X166974855Y-106335064D01*
X166965698Y-106377873D01*
X166958256Y-106413870D01*
X166952380Y-106443704D01*
X166947920Y-106468023D01*
X166944729Y-106487475D01*
X166942657Y-106502707D01*
X166941557Y-106514367D01*
X166941278Y-106523104D01*
X166941674Y-106529566D01*
X166942594Y-106534400D01*
X166943890Y-106538256D01*
X166944182Y-106538967D01*
X167035317Y-106766698D01*
X167113032Y-106982913D01*
X167178298Y-107190443D01*
X167221647Y-107349940D01*
X167260773Y-107504880D01*
X168651273Y-107504880D01*
X168847654Y-107504891D01*
X169024704Y-107504935D01*
X169183412Y-107505022D01*
X169324766Y-107505165D01*
X169449755Y-107505376D01*
X169559369Y-107505667D01*
X169654596Y-107506051D01*
X169736424Y-107506540D01*
X169805844Y-107507145D01*
X169863843Y-107507879D01*
X169911410Y-107508754D01*
X169949535Y-107509782D01*
X169979205Y-107510976D01*
X170001411Y-107512347D01*
X170017141Y-107513908D01*
X170027383Y-107515671D01*
X170033126Y-107517647D01*
X170035360Y-107519850D01*
X170035243Y-107521898D01*
X170030348Y-107536897D01*
X170020850Y-107567866D01*
X170007817Y-107611259D01*
X169992312Y-107663535D01*
X169978600Y-107710211D01*
X169908411Y-107977498D01*
X169849978Y-108258683D01*
X169803917Y-108550667D01*
X169791053Y-108652960D01*
X169784513Y-108708472D01*
X169778286Y-108761225D01*
X169773034Y-108805622D01*
X169769417Y-108836067D01*
X169769141Y-108838380D01*
X169763373Y-108886640D01*
X168159046Y-108886640D01*
X167980177Y-108886592D01*
X167806904Y-108886453D01*
X167640311Y-108886228D01*
X167481479Y-108885922D01*
X167331491Y-108885540D01*
X167191431Y-108885087D01*
X167062380Y-108884569D01*
X166945421Y-108883990D01*
X166841636Y-108883355D01*
X166752109Y-108882671D01*
X166677922Y-108881941D01*
X166620157Y-108881171D01*
X166579897Y-108880367D01*
X166558224Y-108879532D01*
X166554593Y-108879020D01*
X166553454Y-108866892D01*
X166550376Y-108838004D01*
X166545734Y-108795784D01*
X166539904Y-108743660D01*
X166534463Y-108695594D01*
X166491762Y-108384608D01*
X166435825Y-108085023D01*
X166366981Y-107798320D01*
X166285557Y-107525983D01*
X166259320Y-107449000D01*
X166173164Y-107223275D01*
X166070338Y-106989167D01*
X165951779Y-106748429D01*
X165818428Y-106502815D01*
X165671223Y-106254079D01*
X165511105Y-106003974D01*
X165391459Y-105828480D01*
X165328916Y-105738515D01*
X165276459Y-105661776D01*
X165232101Y-105595146D01*
X165193853Y-105535505D01*
X165159727Y-105479738D01*
X165127735Y-105424725D01*
X165095890Y-105367349D01*
X165087238Y-105351381D01*
X164971070Y-105115040D01*
X164873888Y-104872664D01*
X164795648Y-104625343D01*
X164736306Y-104374165D01*
X164695819Y-104120220D01*
X164674141Y-103864596D01*
X164671229Y-103608383D01*
X164687039Y-103352670D01*
X164721526Y-103098547D01*
X164774648Y-102847101D01*
X164846359Y-102599422D01*
X164936615Y-102356600D01*
X165045373Y-102119723D01*
X165172588Y-101889881D01*
X165231091Y-101796356D01*
X165383452Y-101579559D01*
X165550548Y-101376378D01*
X165731545Y-101187377D01*
X165925607Y-101013117D01*
X166131899Y-100854160D01*
X166349587Y-100711067D01*
X166577834Y-100584401D01*
X166815805Y-100474723D01*
X167062666Y-100382595D01*
X167317581Y-100308578D01*
X167504680Y-100267003D01*
X167587511Y-100251574D01*
X167661909Y-100239460D01*
X167732308Y-100230286D01*
X167803145Y-100223677D01*
X167878856Y-100219258D01*
X167963876Y-100216654D01*
X168062642Y-100215490D01*
X168115969Y-100215333D01*
X168190275Y-100215499D01*
D15*
X129345276Y-76022500D02*
X129854724Y-76022500D01*
X129345276Y-74977500D02*
X129854724Y-74977500D01*
%LPC*%
D17*
X98150000Y-103500000D03*
D18*
X98150000Y-93340000D03*
D19*
X115000000Y-94750000D03*
X115000000Y-93410000D03*
X115000000Y-92090000D03*
X115000000Y-90750000D03*
X112000000Y-90750000D03*
X112000000Y-92090000D03*
X112000000Y-93410000D03*
X112000000Y-94750000D03*
D20*
X137650000Y-99755000D03*
X137650000Y-98485000D03*
X137650000Y-97215000D03*
X137650000Y-95945000D03*
X137650000Y-94675000D03*
X137650000Y-93405000D03*
X137650000Y-92135000D03*
X137650000Y-90865000D03*
X137650000Y-89595000D03*
X137650000Y-88325000D03*
X137650000Y-87055000D03*
X137650000Y-85785000D03*
X137650000Y-84515000D03*
X137650000Y-83245000D03*
X128350000Y-83245000D03*
X128350000Y-84515000D03*
X128350000Y-85785000D03*
X128350000Y-87055000D03*
X128350000Y-88325000D03*
X128350000Y-89595000D03*
X128350000Y-90865000D03*
X128350000Y-92135000D03*
X128350000Y-93405000D03*
X128350000Y-94675000D03*
X128350000Y-95945000D03*
X128350000Y-97215000D03*
X128350000Y-98485000D03*
X128350000Y-99755000D03*
D17*
X124500000Y-75500000D03*
D18*
X134660000Y-75500000D03*
D21*
X150050000Y-65500000D03*
D22*
X150050000Y-68040000D03*
X147510000Y-65500000D03*
X147510000Y-68040000D03*
X144970000Y-65500000D03*
X144970000Y-68040000D03*
X142430000Y-65500000D03*
X142430000Y-68040000D03*
X139890000Y-65500000D03*
X139890000Y-68040000D03*
X137350000Y-65500000D03*
X137350000Y-68040000D03*
D19*
X113480000Y-77880000D03*
X114820000Y-77880000D03*
X116140000Y-77880000D03*
X117480000Y-77880000D03*
X117480000Y-74880000D03*
X116140000Y-74880000D03*
X114820000Y-74880000D03*
X113480000Y-74880000D03*
X146500000Y-100750000D03*
X146500000Y-99410000D03*
X146500000Y-98090000D03*
X146500000Y-96750000D03*
X143500000Y-96750000D03*
X143500000Y-98090000D03*
X143500000Y-99410000D03*
X143500000Y-100750000D03*
X146500000Y-94750000D03*
X146500000Y-93410000D03*
X146500000Y-92090000D03*
X146500000Y-90750000D03*
X143500000Y-90750000D03*
X143500000Y-92090000D03*
X143500000Y-93410000D03*
X143500000Y-94750000D03*
X115000000Y-100750000D03*
X115000000Y-99410000D03*
X115000000Y-98090000D03*
X115000000Y-96750000D03*
X112000000Y-96750000D03*
X112000000Y-98090000D03*
X112000000Y-99410000D03*
X112000000Y-100750000D03*
D17*
X124500000Y-79000000D03*
D18*
X134660000Y-79000000D03*
D23*
X168000000Y-120000000D03*
X168000000Y-65000000D03*
X98000000Y-65000000D03*
X98000000Y-120000000D03*
D24*
X103561400Y-124333000D03*
X162438600Y-124333000D03*
X133000000Y-110490000D03*
D25*
X106330000Y-120650000D03*
D24*
X146970000Y-110490000D03*
X119030000Y-110490000D03*
D25*
X159670000Y-120650000D03*
D26*
X107600000Y-114300000D03*
X108870000Y-111760000D03*
X110140000Y-114300000D03*
X111410000Y-111760000D03*
X112680000Y-114300000D03*
X113950000Y-111760000D03*
X115220000Y-114300000D03*
X116490000Y-111760000D03*
X121570000Y-114300000D03*
X122840000Y-111760000D03*
X124110000Y-114300000D03*
X125380000Y-111760000D03*
X126650000Y-114300000D03*
X127920000Y-111760000D03*
X129190000Y-114300000D03*
X130460000Y-111760000D03*
X135540000Y-114300000D03*
X136810000Y-111760000D03*
X138080000Y-114300000D03*
X139350000Y-111760000D03*
X140620000Y-114300000D03*
X141890000Y-111760000D03*
X143160000Y-114300000D03*
X144430000Y-111760000D03*
X149510000Y-114300000D03*
X150780000Y-111760000D03*
X152050000Y-114300000D03*
X153320000Y-111760000D03*
X154590000Y-114300000D03*
X155860000Y-111760000D03*
X157130000Y-114300000D03*
X158400000Y-111760000D03*
D27*
X98600000Y-77600000D03*
D22*
X101140000Y-77600000D03*
X98600000Y-80140000D03*
X101140000Y-80140000D03*
X98600000Y-82680000D03*
X101140000Y-82680000D03*
X98600000Y-85220000D03*
X101140000Y-85220000D03*
D28*
X167400000Y-85200000D03*
D22*
X164860000Y-85200000D03*
X167400000Y-82660000D03*
X164860000Y-82660000D03*
X167400000Y-80120000D03*
X164860000Y-80120000D03*
X167400000Y-77580000D03*
X164860000Y-77580000D03*
D21*
X123750000Y-65550000D03*
D22*
X123750000Y-68090000D03*
X121210000Y-65550000D03*
X121210000Y-68090000D03*
X118670000Y-65550000D03*
X118670000Y-68090000D03*
X116130000Y-65550000D03*
X116130000Y-68090000D03*
D19*
X151000000Y-96750000D03*
X151000000Y-98090000D03*
X151000000Y-99410000D03*
X151000000Y-100750000D03*
X154000000Y-100750000D03*
X154000000Y-99410000D03*
X154000000Y-98090000D03*
X154000000Y-96750000D03*
X151000000Y-90750000D03*
X151000000Y-92090000D03*
X151000000Y-93410000D03*
X151000000Y-94750000D03*
X154000000Y-94750000D03*
X154000000Y-93410000D03*
X154000000Y-92090000D03*
X154000000Y-90750000D03*
X119500000Y-90750000D03*
X119500000Y-92090000D03*
X119500000Y-93410000D03*
X119500000Y-94750000D03*
X122500000Y-94750000D03*
X122500000Y-93410000D03*
X122500000Y-92090000D03*
X122500000Y-90750000D03*
X119500000Y-96750000D03*
X119500000Y-98090000D03*
X119500000Y-99410000D03*
X119500000Y-100750000D03*
X122500000Y-100750000D03*
X122500000Y-99410000D03*
X122500000Y-98090000D03*
X122500000Y-96750000D03*
D29*
X144700000Y-86000000D03*
D30*
X144700000Y-84500000D03*
D31*
X98762500Y-106700000D03*
X100637500Y-106700000D03*
D32*
X98100000Y-99412500D03*
X98100000Y-97587500D03*
D33*
X104300000Y-104500000D03*
D34*
X106840000Y-104500000D03*
D35*
X141000000Y-77700000D03*
X144600000Y-77700000D03*
D36*
X128687500Y-79000000D03*
X130512500Y-79000000D03*
D37*
X111630000Y-85510000D03*
D38*
X111630000Y-82970000D03*
X114170000Y-85510000D03*
X114170000Y-82970000D03*
X116710000Y-85510000D03*
X116710000Y-82970000D03*
X119250000Y-85510000D03*
X119250000Y-82970000D03*
D37*
X159000000Y-97500000D03*
D38*
X159000000Y-94960000D03*
X161540000Y-97500000D03*
X161540000Y-94960000D03*
D37*
X104650000Y-97500000D03*
D38*
X104650000Y-94960000D03*
X107190000Y-97500000D03*
X107190000Y-94960000D03*
D37*
X152400000Y-82200000D03*
D38*
X152400000Y-79660000D03*
X154940000Y-82200000D03*
X154940000Y-79660000D03*
D36*
X128687500Y-75500000D03*
X130512500Y-75500000D03*
M02*
