%TF.GenerationSoftware,KiCad,Pcbnew,(6.0.4)*%
%TF.CreationDate,2022-04-04T21:53:05+02:00*%
%TF.ProjectId,SWITCH_INPUT_BOARD,53574954-4348-45f4-994e-5055545f424f,rev?*%
%TF.SameCoordinates,Original*%
%TF.FileFunction,Soldermask,Bot*%
%TF.FilePolarity,Negative*%
%FSLAX46Y46*%
G04 Gerber Fmt 4.6, Leading zero omitted, Abs format (unit mm)*
G04 Created by KiCad (PCBNEW (6.0.4)) date 2022-04-04 21:53:05*
%MOMM*%
%LPD*%
G01*
G04 APERTURE LIST*
G04 Aperture macros list*
%AMRoundRect*
0 Rectangle with rounded corners*
0 $1 Rounding radius*
0 $2 $3 $4 $5 $6 $7 $8 $9 X,Y pos of 4 corners*
0 Add a 4 corners polygon primitive as box body*
4,1,4,$2,$3,$4,$5,$6,$7,$8,$9,$2,$3,0*
0 Add four circle primitives for the rounded corners*
1,1,$1+$1,$2,$3*
1,1,$1+$1,$4,$5*
1,1,$1+$1,$6,$7*
1,1,$1+$1,$8,$9*
0 Add four rect primitives between the rounded corners*
20,1,$1+$1,$2,$3,$4,$5,0*
20,1,$1+$1,$4,$5,$6,$7,0*
20,1,$1+$1,$6,$7,$8,$9,0*
20,1,$1+$1,$8,$9,$2,$3,0*%
G04 Aperture macros list end*
%ADD10C,1.600000*%
%ADD11O,1.600000X1.600000*%
%ADD12RoundRect,0.250000X-0.600000X0.600000X-0.600000X-0.600000X0.600000X-0.600000X0.600000X0.600000X0*%
%ADD13C,1.700000*%
%ADD14C,5.600000*%
%ADD15C,1.600200*%
%ADD16C,3.200400*%
%ADD17C,1.397000*%
%ADD18RoundRect,0.250000X-0.600000X-0.600000X0.600000X-0.600000X0.600000X0.600000X-0.600000X0.600000X0*%
%ADD19RoundRect,0.250000X0.600000X0.600000X-0.600000X0.600000X-0.600000X-0.600000X0.600000X-0.600000X0*%
%ADD20R,1.200000X1.200000*%
%ADD21C,1.200000*%
%ADD22R,1.800000X1.800000*%
%ADD23C,1.800000*%
%ADD24R,1.700000X1.700000*%
%ADD25O,1.700000X1.700000*%
G04 APERTURE END LIST*
D10*
X98150000Y-103500000D03*
D11*
X98150000Y-93340000D03*
D10*
X124500000Y-75500000D03*
D11*
X134660000Y-75500000D03*
D12*
X150050000Y-65500000D03*
D13*
X150050000Y-68040000D03*
X147510000Y-65500000D03*
X147510000Y-68040000D03*
X144970000Y-65500000D03*
X144970000Y-68040000D03*
X142430000Y-65500000D03*
X142430000Y-68040000D03*
X139890000Y-65500000D03*
X139890000Y-68040000D03*
X137350000Y-65500000D03*
X137350000Y-68040000D03*
D10*
X124500000Y-79000000D03*
D11*
X134660000Y-79000000D03*
D14*
X168000000Y-120000000D03*
X168000000Y-65000000D03*
X98000000Y-65000000D03*
X98000000Y-120000000D03*
D15*
X103561400Y-124333000D03*
X162438600Y-124333000D03*
X133000000Y-110490000D03*
D16*
X106330000Y-120650000D03*
D15*
X146970000Y-110490000D03*
X119030000Y-110490000D03*
D16*
X159670000Y-120650000D03*
D17*
X107600000Y-114300000D03*
X108870000Y-111760000D03*
X110140000Y-114300000D03*
X111410000Y-111760000D03*
X112680000Y-114300000D03*
X113950000Y-111760000D03*
X115220000Y-114300000D03*
X116490000Y-111760000D03*
X121570000Y-114300000D03*
X122840000Y-111760000D03*
X124110000Y-114300000D03*
X125380000Y-111760000D03*
X126650000Y-114300000D03*
X127920000Y-111760000D03*
X129190000Y-114300000D03*
X130460000Y-111760000D03*
X135540000Y-114300000D03*
X136810000Y-111760000D03*
X138080000Y-114300000D03*
X139350000Y-111760000D03*
X140620000Y-114300000D03*
X141890000Y-111760000D03*
X143160000Y-114300000D03*
X144430000Y-111760000D03*
X149510000Y-114300000D03*
X150780000Y-111760000D03*
X152050000Y-114300000D03*
X153320000Y-111760000D03*
X154590000Y-114300000D03*
X155860000Y-111760000D03*
X157130000Y-114300000D03*
X158400000Y-111760000D03*
D18*
X98600000Y-77600000D03*
D13*
X101140000Y-77600000D03*
X98600000Y-80140000D03*
X101140000Y-80140000D03*
X98600000Y-82680000D03*
X101140000Y-82680000D03*
X98600000Y-85220000D03*
X101140000Y-85220000D03*
D19*
X167400000Y-85200000D03*
D13*
X164860000Y-85200000D03*
X167400000Y-82660000D03*
X164860000Y-82660000D03*
X167400000Y-80120000D03*
X164860000Y-80120000D03*
X167400000Y-77580000D03*
X164860000Y-77580000D03*
D12*
X123750000Y-65550000D03*
D13*
X123750000Y-68090000D03*
X121210000Y-65550000D03*
X121210000Y-68090000D03*
X118670000Y-65550000D03*
X118670000Y-68090000D03*
X116130000Y-65550000D03*
X116130000Y-68090000D03*
D20*
X144700000Y-86000000D03*
D21*
X144700000Y-84500000D03*
D22*
X104300000Y-104500000D03*
D23*
X106840000Y-104500000D03*
D24*
X111630000Y-85510000D03*
D25*
X111630000Y-82970000D03*
X114170000Y-85510000D03*
X114170000Y-82970000D03*
X116710000Y-85510000D03*
X116710000Y-82970000D03*
X119250000Y-85510000D03*
X119250000Y-82970000D03*
D24*
X159000000Y-97500000D03*
D25*
X159000000Y-94960000D03*
X161540000Y-97500000D03*
X161540000Y-94960000D03*
D24*
X104650000Y-97500000D03*
D25*
X104650000Y-94960000D03*
X107190000Y-97500000D03*
X107190000Y-94960000D03*
D24*
X152400000Y-82200000D03*
D25*
X152400000Y-79660000D03*
X154940000Y-82200000D03*
X154940000Y-79660000D03*
M02*
