M48
; DRILL file {KiCad (6.0.4)} date Mon 04 Apr 2022 09:58:38 PM CEST
; FORMAT={-:-/ absolute / metric / decimal}
; #@! TF.CreationDate,2022-04-04T21:58:38+02:00
; #@! TF.GenerationSoftware,Kicad,Pcbnew,(6.0.4)
; #@! TF.FileFunction,Plated,1,2,PTH
FMAT,2
METRIC
; #@! TA.AperFunction,Plated,PTH,ComponentDrill
T1C0.950
; #@! TA.AperFunction,Plated,PTH,ComponentDrill
T2C1.194
%
G90
G05
T1
X106.535Y-63.882
X107.805Y-61.342
X109.075Y-63.882
X110.345Y-61.342
X111.615Y-63.882
X112.885Y-61.342
X114.155Y-63.882
X115.425Y-61.342
T2
X107.002Y-75.9G85X106.997Y-75.9
G05
X107.002Y-79.4G85X106.997Y-79.4
G05
X107.002Y-82.9G85X106.997Y-82.9
G05
X107.002Y-86.4G85X106.997Y-86.4
G05
X107.002Y-89.9G85X106.997Y-89.9
G05
X107.002Y-93.4G85X106.997Y-93.4
G05
X115.197Y-68.912G85X115.203Y-68.912
G05
X115.197Y-72.412G85X115.203Y-72.412
G05
X115.197Y-75.912G85X115.203Y-75.912
G05
X115.197Y-79.412G85X115.203Y-79.412
G05
X115.197Y-82.912G85X115.203Y-82.912
G05
X115.197Y-86.412G85X115.203Y-86.412
G05
X115.197Y-89.912G85X115.203Y-89.912
G05
X115.197Y-93.412G85X115.203Y-93.412
G05
T0
M30
