%TF.GenerationSoftware,KiCad,Pcbnew,(6.0.4)*%
%TF.CreationDate,2022-04-04T21:58:21+02:00*%
%TF.ProjectId,TERMINATOR_BOARD,5445524d-494e-4415-944f-525f424f4152,rev?*%
%TF.SameCoordinates,Original*%
%TF.FileFunction,Legend,Bot*%
%TF.FilePolarity,Positive*%
%FSLAX46Y46*%
G04 Gerber Fmt 4.6, Leading zero omitted, Abs format (unit mm)*
G04 Created by KiCad (PCBNEW (6.0.4)) date 2022-04-04 21:58:21*
%MOMM*%
%LPD*%
G01*
G04 APERTURE LIST*
%ADD10C,0.150000*%
%ADD11C,0.070000*%
%ADD12C,0.120000*%
%ADD13C,1.702000*%
%ADD14C,3.300000*%
%ADD15R,1.524000X1.524000*%
%ADD16C,1.524000*%
G04 APERTURE END LIST*
D10*
X119552380Y-62183333D02*
X119552380Y-61707142D01*
X118552380Y-61707142D01*
X118885714Y-62945238D02*
X119552380Y-62945238D01*
X118885714Y-62516666D02*
X119409523Y-62516666D01*
X119504761Y-62564285D01*
X119552380Y-62659523D01*
X119552380Y-62802380D01*
X119504761Y-62897619D01*
X119457142Y-62945238D01*
X119552380Y-63421428D02*
X118885714Y-63421428D01*
X118980952Y-63421428D02*
X118933333Y-63469047D01*
X118885714Y-63564285D01*
X118885714Y-63707142D01*
X118933333Y-63802380D01*
X119028571Y-63850000D01*
X119552380Y-63850000D01*
X119028571Y-63850000D02*
X118933333Y-63897619D01*
X118885714Y-63992857D01*
X118885714Y-64135714D01*
X118933333Y-64230952D01*
X119028571Y-64278571D01*
X119552380Y-64278571D01*
X119552380Y-64754761D02*
X118885714Y-64754761D01*
X118552380Y-64754761D02*
X118600000Y-64707142D01*
X118647619Y-64754761D01*
X118600000Y-64802380D01*
X118552380Y-64754761D01*
X118647619Y-64754761D01*
X118885714Y-65135714D02*
X118885714Y-65659523D01*
X119552380Y-65135714D01*
X119552380Y-65659523D01*
X119504761Y-66421428D02*
X119552380Y-66326190D01*
X119552380Y-66135714D01*
X119504761Y-66040476D01*
X119409523Y-65992857D01*
X119028571Y-65992857D01*
X118933333Y-66040476D01*
X118885714Y-66135714D01*
X118885714Y-66326190D01*
X118933333Y-66421428D01*
X119028571Y-66469047D01*
X119123809Y-66469047D01*
X119219047Y-65992857D01*
X119552380Y-67659523D02*
X118552380Y-67659523D01*
X119028571Y-67659523D02*
X119028571Y-68230952D01*
X119552380Y-68230952D02*
X118552380Y-68230952D01*
X119552380Y-68850000D02*
X119504761Y-68754761D01*
X119457142Y-68707142D01*
X119361904Y-68659523D01*
X119076190Y-68659523D01*
X118980952Y-68707142D01*
X118933333Y-68754761D01*
X118885714Y-68850000D01*
X118885714Y-68992857D01*
X118933333Y-69088095D01*
X118980952Y-69135714D01*
X119076190Y-69183333D01*
X119361904Y-69183333D01*
X119457142Y-69135714D01*
X119504761Y-69088095D01*
X119552380Y-68992857D01*
X119552380Y-68850000D01*
X119552380Y-69611904D02*
X118885714Y-69611904D01*
X118980952Y-69611904D02*
X118933333Y-69659523D01*
X118885714Y-69754761D01*
X118885714Y-69897619D01*
X118933333Y-69992857D01*
X119028571Y-70040476D01*
X119552380Y-70040476D01*
X119028571Y-70040476D02*
X118933333Y-70088095D01*
X118885714Y-70183333D01*
X118885714Y-70326190D01*
X118933333Y-70421428D01*
X119028571Y-70469047D01*
X119552380Y-70469047D01*
X119504761Y-71326190D02*
X119552380Y-71230952D01*
X119552380Y-71040476D01*
X119504761Y-70945238D01*
X119409523Y-70897619D01*
X119028571Y-70897619D01*
X118933333Y-70945238D01*
X118885714Y-71040476D01*
X118885714Y-71230952D01*
X118933333Y-71326190D01*
X119028571Y-71373809D01*
X119123809Y-71373809D01*
X119219047Y-70897619D01*
X119266666Y-72516666D02*
X119266666Y-72992857D01*
X119552380Y-72421428D02*
X118552380Y-72754761D01*
X119552380Y-73088095D01*
X118885714Y-73850000D02*
X119552380Y-73850000D01*
X118885714Y-73421428D02*
X119409523Y-73421428D01*
X119504761Y-73469047D01*
X119552380Y-73564285D01*
X119552380Y-73707142D01*
X119504761Y-73802380D01*
X119457142Y-73850000D01*
X118885714Y-74183333D02*
X118885714Y-74564285D01*
X118552380Y-74326190D02*
X119409523Y-74326190D01*
X119504761Y-74373809D01*
X119552380Y-74469047D01*
X119552380Y-74564285D01*
X119552380Y-75040476D02*
X119504761Y-74945238D01*
X119457142Y-74897619D01*
X119361904Y-74850000D01*
X119076190Y-74850000D01*
X118980952Y-74897619D01*
X118933333Y-74945238D01*
X118885714Y-75040476D01*
X118885714Y-75183333D01*
X118933333Y-75278571D01*
X118980952Y-75326190D01*
X119076190Y-75373809D01*
X119361904Y-75373809D01*
X119457142Y-75326190D01*
X119504761Y-75278571D01*
X119552380Y-75183333D01*
X119552380Y-75040476D01*
X119552380Y-75802380D02*
X118885714Y-75802380D01*
X118980952Y-75802380D02*
X118933333Y-75850000D01*
X118885714Y-75945238D01*
X118885714Y-76088095D01*
X118933333Y-76183333D01*
X119028571Y-76230952D01*
X119552380Y-76230952D01*
X119028571Y-76230952D02*
X118933333Y-76278571D01*
X118885714Y-76373809D01*
X118885714Y-76516666D01*
X118933333Y-76611904D01*
X119028571Y-76659523D01*
X119552380Y-76659523D01*
X119552380Y-77564285D02*
X119028571Y-77564285D01*
X118933333Y-77516666D01*
X118885714Y-77421428D01*
X118885714Y-77230952D01*
X118933333Y-77135714D01*
X119504761Y-77564285D02*
X119552380Y-77469047D01*
X119552380Y-77230952D01*
X119504761Y-77135714D01*
X119409523Y-77088095D01*
X119314285Y-77088095D01*
X119219047Y-77135714D01*
X119171428Y-77230952D01*
X119171428Y-77469047D01*
X119123809Y-77564285D01*
X118885714Y-77897619D02*
X118885714Y-78278571D01*
X118552380Y-78040476D02*
X119409523Y-78040476D01*
X119504761Y-78088095D01*
X119552380Y-78183333D01*
X119552380Y-78278571D01*
X119552380Y-78611904D02*
X118885714Y-78611904D01*
X118552380Y-78611904D02*
X118600000Y-78564285D01*
X118647619Y-78611904D01*
X118600000Y-78659523D01*
X118552380Y-78611904D01*
X118647619Y-78611904D01*
X119552380Y-79230952D02*
X119504761Y-79135714D01*
X119457142Y-79088095D01*
X119361904Y-79040476D01*
X119076190Y-79040476D01*
X118980952Y-79088095D01*
X118933333Y-79135714D01*
X118885714Y-79230952D01*
X118885714Y-79373809D01*
X118933333Y-79469047D01*
X118980952Y-79516666D01*
X119076190Y-79564285D01*
X119361904Y-79564285D01*
X119457142Y-79516666D01*
X119504761Y-79469047D01*
X119552380Y-79373809D01*
X119552380Y-79230952D01*
X118885714Y-79992857D02*
X119552380Y-79992857D01*
X118980952Y-79992857D02*
X118933333Y-80040476D01*
X118885714Y-80135714D01*
X118885714Y-80278571D01*
X118933333Y-80373809D01*
X119028571Y-80421428D01*
X119552380Y-80421428D01*
X119171428Y-81659523D02*
X119171428Y-82421428D01*
X118647619Y-83611904D02*
X118600000Y-83659523D01*
X118552380Y-83754761D01*
X118552380Y-83992857D01*
X118600000Y-84088095D01*
X118647619Y-84135714D01*
X118742857Y-84183333D01*
X118838095Y-84183333D01*
X118980952Y-84135714D01*
X119552380Y-83564285D01*
X119552380Y-84183333D01*
X118552380Y-84802380D02*
X118552380Y-84897619D01*
X118600000Y-84992857D01*
X118647619Y-85040476D01*
X118742857Y-85088095D01*
X118933333Y-85135714D01*
X119171428Y-85135714D01*
X119361904Y-85088095D01*
X119457142Y-85040476D01*
X119504761Y-84992857D01*
X119552380Y-84897619D01*
X119552380Y-84802380D01*
X119504761Y-84707142D01*
X119457142Y-84659523D01*
X119361904Y-84611904D01*
X119171428Y-84564285D01*
X118933333Y-84564285D01*
X118742857Y-84611904D01*
X118647619Y-84659523D01*
X118600000Y-84707142D01*
X118552380Y-84802380D01*
X118647619Y-85516666D02*
X118600000Y-85564285D01*
X118552380Y-85659523D01*
X118552380Y-85897619D01*
X118600000Y-85992857D01*
X118647619Y-86040476D01*
X118742857Y-86088095D01*
X118838095Y-86088095D01*
X118980952Y-86040476D01*
X119552380Y-85469047D01*
X119552380Y-86088095D01*
X118647619Y-86469047D02*
X118600000Y-86516666D01*
X118552380Y-86611904D01*
X118552380Y-86850000D01*
X118600000Y-86945238D01*
X118647619Y-86992857D01*
X118742857Y-87040476D01*
X118838095Y-87040476D01*
X118980952Y-86992857D01*
X119552380Y-86421428D01*
X119552380Y-87040476D01*
X109897380Y-79971428D02*
X109897380Y-80542857D01*
X110897380Y-80257142D02*
X109897380Y-80257142D01*
X110849761Y-81257142D02*
X110897380Y-81161904D01*
X110897380Y-80971428D01*
X110849761Y-80876190D01*
X110754523Y-80828571D01*
X110373571Y-80828571D01*
X110278333Y-80876190D01*
X110230714Y-80971428D01*
X110230714Y-81161904D01*
X110278333Y-81257142D01*
X110373571Y-81304761D01*
X110468809Y-81304761D01*
X110564047Y-80828571D01*
X110897380Y-81733333D02*
X110230714Y-81733333D01*
X110421190Y-81733333D02*
X110325952Y-81780952D01*
X110278333Y-81828571D01*
X110230714Y-81923809D01*
X110230714Y-82019047D01*
X110897380Y-82352380D02*
X110230714Y-82352380D01*
X110325952Y-82352380D02*
X110278333Y-82400000D01*
X110230714Y-82495238D01*
X110230714Y-82638095D01*
X110278333Y-82733333D01*
X110373571Y-82780952D01*
X110897380Y-82780952D01*
X110373571Y-82780952D02*
X110278333Y-82828571D01*
X110230714Y-82923809D01*
X110230714Y-83066666D01*
X110278333Y-83161904D01*
X110373571Y-83209523D01*
X110897380Y-83209523D01*
X110897380Y-83685714D02*
X110230714Y-83685714D01*
X109897380Y-83685714D02*
X109945000Y-83638095D01*
X109992619Y-83685714D01*
X109945000Y-83733333D01*
X109897380Y-83685714D01*
X109992619Y-83685714D01*
X110230714Y-84161904D02*
X110897380Y-84161904D01*
X110325952Y-84161904D02*
X110278333Y-84209523D01*
X110230714Y-84304761D01*
X110230714Y-84447619D01*
X110278333Y-84542857D01*
X110373571Y-84590476D01*
X110897380Y-84590476D01*
X110897380Y-85495238D02*
X110373571Y-85495238D01*
X110278333Y-85447619D01*
X110230714Y-85352380D01*
X110230714Y-85161904D01*
X110278333Y-85066666D01*
X110849761Y-85495238D02*
X110897380Y-85400000D01*
X110897380Y-85161904D01*
X110849761Y-85066666D01*
X110754523Y-85019047D01*
X110659285Y-85019047D01*
X110564047Y-85066666D01*
X110516428Y-85161904D01*
X110516428Y-85400000D01*
X110468809Y-85495238D01*
X110230714Y-85828571D02*
X110230714Y-86209523D01*
X109897380Y-85971428D02*
X110754523Y-85971428D01*
X110849761Y-86019047D01*
X110897380Y-86114285D01*
X110897380Y-86209523D01*
X110897380Y-86685714D02*
X110849761Y-86590476D01*
X110802142Y-86542857D01*
X110706904Y-86495238D01*
X110421190Y-86495238D01*
X110325952Y-86542857D01*
X110278333Y-86590476D01*
X110230714Y-86685714D01*
X110230714Y-86828571D01*
X110278333Y-86923809D01*
X110325952Y-86971428D01*
X110421190Y-87019047D01*
X110706904Y-87019047D01*
X110802142Y-86971428D01*
X110849761Y-86923809D01*
X110897380Y-86828571D01*
X110897380Y-86685714D01*
X110897380Y-87447619D02*
X110230714Y-87447619D01*
X110421190Y-87447619D02*
X110325952Y-87495238D01*
X110278333Y-87542857D01*
X110230714Y-87638095D01*
X110230714Y-87733333D01*
X110373571Y-89161904D02*
X110421190Y-89304761D01*
X110468809Y-89352380D01*
X110564047Y-89400000D01*
X110706904Y-89400000D01*
X110802142Y-89352380D01*
X110849761Y-89304761D01*
X110897380Y-89209523D01*
X110897380Y-88828571D01*
X109897380Y-88828571D01*
X109897380Y-89161904D01*
X109945000Y-89257142D01*
X109992619Y-89304761D01*
X110087857Y-89352380D01*
X110183095Y-89352380D01*
X110278333Y-89304761D01*
X110325952Y-89257142D01*
X110373571Y-89161904D01*
X110373571Y-88828571D01*
X110897380Y-89971428D02*
X110849761Y-89876190D01*
X110802142Y-89828571D01*
X110706904Y-89780952D01*
X110421190Y-89780952D01*
X110325952Y-89828571D01*
X110278333Y-89876190D01*
X110230714Y-89971428D01*
X110230714Y-90114285D01*
X110278333Y-90209523D01*
X110325952Y-90257142D01*
X110421190Y-90304761D01*
X110706904Y-90304761D01*
X110802142Y-90257142D01*
X110849761Y-90209523D01*
X110897380Y-90114285D01*
X110897380Y-89971428D01*
X110897380Y-91161904D02*
X110373571Y-91161904D01*
X110278333Y-91114285D01*
X110230714Y-91019047D01*
X110230714Y-90828571D01*
X110278333Y-90733333D01*
X110849761Y-91161904D02*
X110897380Y-91066666D01*
X110897380Y-90828571D01*
X110849761Y-90733333D01*
X110754523Y-90685714D01*
X110659285Y-90685714D01*
X110564047Y-90733333D01*
X110516428Y-90828571D01*
X110516428Y-91066666D01*
X110468809Y-91161904D01*
X110897380Y-91638095D02*
X110230714Y-91638095D01*
X110421190Y-91638095D02*
X110325952Y-91685714D01*
X110278333Y-91733333D01*
X110230714Y-91828571D01*
X110230714Y-91923809D01*
X110897380Y-92685714D02*
X109897380Y-92685714D01*
X110849761Y-92685714D02*
X110897380Y-92590476D01*
X110897380Y-92400000D01*
X110849761Y-92304761D01*
X110802142Y-92257142D01*
X110706904Y-92209523D01*
X110421190Y-92209523D01*
X110325952Y-92257142D01*
X110278333Y-92304761D01*
X110230714Y-92400000D01*
X110230714Y-92590476D01*
X110278333Y-92685714D01*
X112507380Y-83947619D02*
X111840714Y-83947619D01*
X112031190Y-83947619D02*
X111935952Y-83995238D01*
X111888333Y-84042857D01*
X111840714Y-84138095D01*
X111840714Y-84233333D01*
X112459761Y-84947619D02*
X112507380Y-84852380D01*
X112507380Y-84661904D01*
X112459761Y-84566666D01*
X112364523Y-84519047D01*
X111983571Y-84519047D01*
X111888333Y-84566666D01*
X111840714Y-84661904D01*
X111840714Y-84852380D01*
X111888333Y-84947619D01*
X111983571Y-84995238D01*
X112078809Y-84995238D01*
X112174047Y-84519047D01*
X111840714Y-85328571D02*
X112507380Y-85566666D01*
X111840714Y-85804761D01*
X112507380Y-87471428D02*
X112507380Y-86900000D01*
X112507380Y-87185714D02*
X111507380Y-87185714D01*
X111650238Y-87090476D01*
X111745476Y-86995238D01*
X111793095Y-86900000D01*
X112412142Y-87900000D02*
X112459761Y-87947619D01*
X112507380Y-87900000D01*
X112459761Y-87852380D01*
X112412142Y-87900000D01*
X112507380Y-87900000D01*
X111507380Y-88566666D02*
X111507380Y-88661904D01*
X111555000Y-88757142D01*
X111602619Y-88804761D01*
X111697857Y-88852380D01*
X111888333Y-88900000D01*
X112126428Y-88900000D01*
X112316904Y-88852380D01*
X112412142Y-88804761D01*
X112459761Y-88757142D01*
X112507380Y-88661904D01*
X112507380Y-88566666D01*
X112459761Y-88471428D01*
X112412142Y-88423809D01*
X112316904Y-88376190D01*
X112126428Y-88328571D01*
X111888333Y-88328571D01*
X111697857Y-88376190D01*
X111602619Y-88423809D01*
X111555000Y-88471428D01*
X111507380Y-88566666D01*
D11*
X119652380Y-51352380D02*
X120366666Y-51352380D01*
X120509523Y-51333333D01*
X120604761Y-51295238D01*
X120652380Y-51238095D01*
X120652380Y-51200000D01*
X120652380Y-51733333D02*
X120652380Y-51542857D01*
X119652380Y-51542857D01*
X120557142Y-52095238D02*
X120604761Y-52076190D01*
X120652380Y-52019047D01*
X120652380Y-51980952D01*
X120604761Y-51923809D01*
X120509523Y-51885714D01*
X120414285Y-51866666D01*
X120223809Y-51847619D01*
X120080952Y-51847619D01*
X119890476Y-51866666D01*
X119795238Y-51885714D01*
X119700000Y-51923809D01*
X119652380Y-51980952D01*
X119652380Y-52019047D01*
X119700000Y-52076190D01*
X119747619Y-52095238D01*
X119652380Y-52380952D02*
X120366666Y-52380952D01*
X120509523Y-52361904D01*
X120604761Y-52323809D01*
X120652380Y-52266666D01*
X120652380Y-52228571D01*
X120652380Y-52761904D02*
X120652380Y-52571428D01*
X119652380Y-52571428D01*
X120557142Y-53123809D02*
X120604761Y-53104761D01*
X120652380Y-53047619D01*
X120652380Y-53009523D01*
X120604761Y-52952380D01*
X120509523Y-52914285D01*
X120414285Y-52895238D01*
X120223809Y-52876190D01*
X120080952Y-52876190D01*
X119890476Y-52895238D01*
X119795238Y-52914285D01*
X119700000Y-52952380D01*
X119652380Y-53009523D01*
X119652380Y-53047619D01*
X119700000Y-53104761D01*
X119747619Y-53123809D01*
X119652380Y-53409523D02*
X120366666Y-53409523D01*
X120509523Y-53390476D01*
X120604761Y-53352380D01*
X120652380Y-53295238D01*
X120652380Y-53257142D01*
X120652380Y-53790476D02*
X120652380Y-53600000D01*
X119652380Y-53600000D01*
X120557142Y-54152380D02*
X120604761Y-54133333D01*
X120652380Y-54076190D01*
X120652380Y-54038095D01*
X120604761Y-53980952D01*
X120509523Y-53942857D01*
X120414285Y-53923809D01*
X120223809Y-53904761D01*
X120080952Y-53904761D01*
X119890476Y-53923809D01*
X119795238Y-53942857D01*
X119700000Y-53980952D01*
X119652380Y-54038095D01*
X119652380Y-54076190D01*
X119700000Y-54133333D01*
X119747619Y-54152380D01*
X119652380Y-54438095D02*
X120366666Y-54438095D01*
X120509523Y-54419047D01*
X120604761Y-54380952D01*
X120652380Y-54323809D01*
X120652380Y-54285714D01*
X120652380Y-54819047D02*
X120652380Y-54628571D01*
X119652380Y-54628571D01*
X120557142Y-55180952D02*
X120604761Y-55161904D01*
X120652380Y-55104761D01*
X120652380Y-55066666D01*
X120604761Y-55009523D01*
X120509523Y-54971428D01*
X120414285Y-54952380D01*
X120223809Y-54933333D01*
X120080952Y-54933333D01*
X119890476Y-54952380D01*
X119795238Y-54971428D01*
X119700000Y-55009523D01*
X119652380Y-55066666D01*
X119652380Y-55104761D01*
X119700000Y-55161904D01*
X119747619Y-55180952D01*
D10*
X102602380Y-73459523D02*
X102602380Y-74078571D01*
X102983333Y-73745238D01*
X102983333Y-73888095D01*
X103030952Y-73983333D01*
X103078571Y-74030952D01*
X103173809Y-74078571D01*
X103411904Y-74078571D01*
X103507142Y-74030952D01*
X103554761Y-73983333D01*
X103602380Y-73888095D01*
X103602380Y-73602380D01*
X103554761Y-73507142D01*
X103507142Y-73459523D01*
X103507142Y-74507142D02*
X103554761Y-74554761D01*
X103602380Y-74507142D01*
X103554761Y-74459523D01*
X103507142Y-74507142D01*
X103602380Y-74507142D01*
X102602380Y-75459523D02*
X102602380Y-74983333D01*
X103078571Y-74935714D01*
X103030952Y-74983333D01*
X102983333Y-75078571D01*
X102983333Y-75316666D01*
X103030952Y-75411904D01*
X103078571Y-75459523D01*
X103173809Y-75507142D01*
X103411904Y-75507142D01*
X103507142Y-75459523D01*
X103554761Y-75411904D01*
X103602380Y-75316666D01*
X103602380Y-75078571D01*
X103554761Y-74983333D01*
X103507142Y-74935714D01*
X102602380Y-76126190D02*
X102602380Y-76221428D01*
X102650000Y-76316666D01*
X102697619Y-76364285D01*
X102792857Y-76411904D01*
X102983333Y-76459523D01*
X103221428Y-76459523D01*
X103411904Y-76411904D01*
X103507142Y-76364285D01*
X103554761Y-76316666D01*
X103602380Y-76221428D01*
X103602380Y-76126190D01*
X103554761Y-76030952D01*
X103507142Y-75983333D01*
X103411904Y-75935714D01*
X103221428Y-75888095D01*
X102983333Y-75888095D01*
X102792857Y-75935714D01*
X102697619Y-75983333D01*
X102650000Y-76030952D01*
X102602380Y-76126190D01*
X102602380Y-77078571D02*
X102602380Y-77173809D01*
X102650000Y-77269047D01*
X102697619Y-77316666D01*
X102792857Y-77364285D01*
X102983333Y-77411904D01*
X103221428Y-77411904D01*
X103411904Y-77364285D01*
X103507142Y-77316666D01*
X103554761Y-77269047D01*
X103602380Y-77173809D01*
X103602380Y-77078571D01*
X103554761Y-76983333D01*
X103507142Y-76935714D01*
X103411904Y-76888095D01*
X103221428Y-76840476D01*
X102983333Y-76840476D01*
X102792857Y-76888095D01*
X102697619Y-76935714D01*
X102650000Y-76983333D01*
X102602380Y-77078571D01*
X102602380Y-78030952D02*
X102602380Y-78126190D01*
X102650000Y-78221428D01*
X102697619Y-78269047D01*
X102792857Y-78316666D01*
X102983333Y-78364285D01*
X103221428Y-78364285D01*
X103411904Y-78316666D01*
X103507142Y-78269047D01*
X103554761Y-78221428D01*
X103602380Y-78126190D01*
X103602380Y-78030952D01*
X103554761Y-77935714D01*
X103507142Y-77888095D01*
X103411904Y-77840476D01*
X103221428Y-77792857D01*
X102983333Y-77792857D01*
X102792857Y-77840476D01*
X102697619Y-77888095D01*
X102650000Y-77935714D01*
X102602380Y-78030952D01*
X103602380Y-79554761D02*
X102935714Y-79554761D01*
X103030952Y-79554761D02*
X102983333Y-79602380D01*
X102935714Y-79697619D01*
X102935714Y-79840476D01*
X102983333Y-79935714D01*
X103078571Y-79983333D01*
X103602380Y-79983333D01*
X103078571Y-79983333D02*
X102983333Y-80030952D01*
X102935714Y-80126190D01*
X102935714Y-80269047D01*
X102983333Y-80364285D01*
X103078571Y-80411904D01*
X103602380Y-80411904D01*
X103602380Y-80888095D02*
X102935714Y-80888095D01*
X103030952Y-80888095D02*
X102983333Y-80935714D01*
X102935714Y-81030952D01*
X102935714Y-81173809D01*
X102983333Y-81269047D01*
X103078571Y-81316666D01*
X103602380Y-81316666D01*
X103078571Y-81316666D02*
X102983333Y-81364285D01*
X102935714Y-81459523D01*
X102935714Y-81602380D01*
X102983333Y-81697619D01*
X103078571Y-81745238D01*
X103602380Y-81745238D01*
D12*
X107000000Y-75900000D02*
X103713580Y-75900000D01*
X107000000Y-79400000D02*
X103713580Y-79400000D01*
X104300000Y-75900000D02*
X104300000Y-79400000D01*
X104300000Y-75900000D02*
X104300000Y-79400000D01*
X104300000Y-75900000D02*
X103713579Y-77026504D01*
X104300000Y-75900000D02*
X104886421Y-77026504D01*
X104300000Y-79400000D02*
X104886421Y-78273496D01*
X104300000Y-79400000D02*
X103713579Y-78273496D01*
%LPC*%
D13*
X115200000Y-93412000D03*
X115200000Y-89912000D03*
X115200000Y-86412000D03*
X115200000Y-82912000D03*
X115200000Y-79412000D03*
X115200000Y-75912000D03*
X115200000Y-72412000D03*
X115200000Y-68912000D03*
D14*
X105265000Y-54992000D03*
X116695000Y-54992000D03*
D15*
X115425000Y-61342000D03*
D16*
X114155000Y-63882000D03*
X112885000Y-61342000D03*
X111615000Y-63882000D03*
X110345000Y-61342000D03*
X109075000Y-63882000D03*
X107805000Y-61342000D03*
X106535000Y-63882000D03*
D13*
X107000000Y-75900000D03*
X107000000Y-79400000D03*
X107000000Y-82900000D03*
X107000000Y-86400000D03*
X107000000Y-89900000D03*
X107000000Y-93400000D03*
M02*
