%TF.GenerationSoftware,KiCad,Pcbnew,5.1.10*%
%TF.CreationDate,2021-11-19T19:09:23+01:00*%
%TF.ProjectId,SWITCH_INPUT_BOARD,53574954-4348-45f4-994e-5055545f424f,rev?*%
%TF.SameCoordinates,Original*%
%TF.FileFunction,Copper,L2,Bot*%
%TF.FilePolarity,Positive*%
%FSLAX46Y46*%
G04 Gerber Fmt 4.6, Leading zero omitted, Abs format (unit mm)*
G04 Created by KiCad (PCBNEW 5.1.10) date 2021-11-19 19:09:23*
%MOMM*%
%LPD*%
G01*
G04 APERTURE LIST*
%TA.AperFunction,ComponentPad*%
%ADD10C,1.397000*%
%TD*%
%TA.AperFunction,ComponentPad*%
%ADD11O,1.700000X1.700000*%
%TD*%
%TA.AperFunction,ComponentPad*%
%ADD12R,1.700000X1.700000*%
%TD*%
%TA.AperFunction,ComponentPad*%
%ADD13C,1.800000*%
%TD*%
%TA.AperFunction,ComponentPad*%
%ADD14R,1.800000X1.800000*%
%TD*%
%TA.AperFunction,ComponentPad*%
%ADD15R,1.200000X1.200000*%
%TD*%
%TA.AperFunction,ComponentPad*%
%ADD16C,1.200000*%
%TD*%
%TA.AperFunction,ComponentPad*%
%ADD17C,5.600000*%
%TD*%
%TA.AperFunction,ComponentPad*%
%ADD18C,1.700000*%
%TD*%
%TA.AperFunction,ComponentPad*%
%ADD19O,1.600000X1.600000*%
%TD*%
%TA.AperFunction,ComponentPad*%
%ADD20C,1.600000*%
%TD*%
%TA.AperFunction,ViaPad*%
%ADD21C,0.800000*%
%TD*%
%TA.AperFunction,Conductor*%
%ADD22C,0.250000*%
%TD*%
%TA.AperFunction,Conductor*%
%ADD23C,0.300000*%
%TD*%
%TA.AperFunction,Conductor*%
%ADD24C,0.500000*%
%TD*%
%TA.AperFunction,Conductor*%
%ADD25C,0.254000*%
%TD*%
%TA.AperFunction,Conductor*%
%ADD26C,0.100000*%
%TD*%
G04 APERTURE END LIST*
D10*
%TO.P,J1,D8*%
%TO.N,DAUX3*%
X158400000Y-111760000D03*
%TO.P,J1,D7*%
%TO.N,DAUX2*%
X157130000Y-114300000D03*
%TO.P,J1,D6*%
%TO.N,DAUX1*%
X155860000Y-111760000D03*
%TO.P,J1,D5*%
%TO.N,PUSH*%
X154590000Y-114300000D03*
%TO.P,J1,D4*%
%TO.N,DSW4*%
X153320000Y-111760000D03*
%TO.P,J1,D3*%
%TO.N,DSW3*%
X152050000Y-114300000D03*
%TO.P,J1,D2*%
%TO.N,DSW2*%
X150780000Y-111760000D03*
%TO.P,J1,D1*%
%TO.N,DSW1*%
X149510000Y-114300000D03*
%TO.P,J1,C8*%
%TO.N,CAUX3*%
X144430000Y-111760000D03*
%TO.P,J1,C7*%
%TO.N,CAUX2*%
X143160000Y-114300000D03*
%TO.P,J1,C6*%
%TO.N,CAUX1*%
X141890000Y-111760000D03*
%TO.P,J1,C5*%
%TO.N,PUSH*%
X140620000Y-114300000D03*
%TO.P,J1,C4*%
%TO.N,CSW4*%
X139350000Y-111760000D03*
%TO.P,J1,C3*%
%TO.N,CSW3*%
X138080000Y-114300000D03*
%TO.P,J1,C2*%
%TO.N,CSW2*%
X136810000Y-111760000D03*
%TO.P,J1,C1*%
%TO.N,CSW1*%
X135540000Y-114300000D03*
%TO.P,J1,B8*%
%TO.N,BAUX3*%
X130460000Y-111760000D03*
%TO.P,J1,B7*%
%TO.N,BAUX2*%
X129190000Y-114300000D03*
%TO.P,J1,B6*%
%TO.N,BAUX1*%
X127920000Y-111760000D03*
%TO.P,J1,B5*%
%TO.N,PUSH*%
X126650000Y-114300000D03*
%TO.P,J1,B4*%
%TO.N,BSW4*%
X125380000Y-111760000D03*
%TO.P,J1,B3*%
%TO.N,BSW3*%
X124110000Y-114300000D03*
%TO.P,J1,B2*%
%TO.N,BSW2*%
X122840000Y-111760000D03*
%TO.P,J1,B1*%
%TO.N,BSW1*%
X121570000Y-114300000D03*
%TO.P,J1,A8*%
%TO.N,AAUX3*%
X116490000Y-111760000D03*
%TO.P,J1,A7*%
%TO.N,AAUX2*%
X115220000Y-114300000D03*
%TO.P,J1,A6*%
%TO.N,AAUX1*%
X113950000Y-111760000D03*
%TO.P,J1,A5*%
%TO.N,PUSH*%
X112680000Y-114300000D03*
%TO.P,J1,A4*%
%TO.N,ASW4*%
X111410000Y-111760000D03*
%TO.P,J1,A3*%
%TO.N,ASW3*%
X110140000Y-114300000D03*
%TO.P,J1,A2*%
%TO.N,ASW2*%
X108870000Y-111760000D03*
%TO.P,J1,A1*%
%TO.N,ASW1*%
X107600000Y-114300000D03*
%TD*%
D11*
%TO.P,JP1,8*%
%TO.N,VCC*%
X119250000Y-82970000D03*
%TO.P,JP1,7*%
%TO.N,Net-(JP1-Pad7)*%
X119250000Y-85510000D03*
%TO.P,JP1,6*%
%TO.N,VCC*%
X116710000Y-82970000D03*
%TO.P,JP1,5*%
%TO.N,A2*%
X116710000Y-85510000D03*
%TO.P,JP1,4*%
%TO.N,VCC*%
X114170000Y-82970000D03*
%TO.P,JP1,3*%
%TO.N,A1*%
X114170000Y-85510000D03*
%TO.P,JP1,2*%
%TO.N,VCC*%
X111630000Y-82970000D03*
D12*
%TO.P,JP1,1*%
%TO.N,A0*%
X111630000Y-85510000D03*
%TD*%
D11*
%TO.P,JP3,4*%
%TO.N,TEST*%
X161540000Y-94960000D03*
%TO.P,JP3,3*%
%TO.N,DSW4*%
X161540000Y-97500000D03*
%TO.P,JP3,2*%
%TO.N,TEST*%
X159000000Y-94960000D03*
D12*
%TO.P,JP3,1*%
%TO.N,CSW4*%
X159000000Y-97500000D03*
%TD*%
D11*
%TO.P,JP2,4*%
%TO.N,TEST*%
X107190000Y-94960000D03*
%TO.P,JP2,3*%
%TO.N,BSW4*%
X107190000Y-97500000D03*
%TO.P,JP2,2*%
%TO.N,TEST*%
X104650000Y-94960000D03*
D12*
%TO.P,JP2,1*%
%TO.N,ASW4*%
X104650000Y-97500000D03*
%TD*%
D13*
%TO.P,D1\u002A,2*%
%TO.N,Net-(D1-Pad2)*%
X106840000Y-104500000D03*
D14*
%TO.P,D1\u002A,1*%
%TO.N,GND*%
X104300000Y-104500000D03*
%TD*%
D15*
%TO.P,C1,1*%
%TO.N,VCC*%
X144700000Y-86000000D03*
D16*
%TO.P,C1,2*%
%TO.N,GND*%
X144700000Y-84500000D03*
%TD*%
D17*
%TO.P,REF\u002A\u002A,1*%
%TO.N,N/C*%
X168000000Y-65000000D03*
%TD*%
%TO.P,REF\u002A\u002A,1*%
%TO.N,N/C*%
X98000000Y-65000000D03*
%TD*%
%TO.P,REF\u002A\u002A,1*%
%TO.N,N/C*%
X98000000Y-120000000D03*
%TD*%
%TO.P,REF\u002A\u002A,1*%
%TO.N,N/C*%
X168000000Y-120000000D03*
%TD*%
D18*
%TO.P,J2,8*%
%TO.N,SCL*%
X116130000Y-68090000D03*
%TO.P,J2,6*%
%TO.N,RESET*%
X118670000Y-68090000D03*
%TO.P,J2,4*%
%TO.N,PUSH*%
X121210000Y-68090000D03*
%TO.P,J2,2*%
%TO.N,GND*%
X123750000Y-68090000D03*
%TO.P,J2,7*%
%TO.N,SDA*%
X116130000Y-65550000D03*
%TO.P,J2,5*%
%TO.N,TEST*%
X118670000Y-65550000D03*
%TO.P,J2,3*%
%TO.N,PULL*%
X121210000Y-65550000D03*
%TO.P,J2,1*%
%TO.N,VCC*%
%TA.AperFunction,ComponentPad*%
G36*
G01*
X123150000Y-64700000D02*
X124350000Y-64700000D01*
G75*
G02*
X124600000Y-64950000I0J-250000D01*
G01*
X124600000Y-66150000D01*
G75*
G02*
X124350000Y-66400000I-250000J0D01*
G01*
X123150000Y-66400000D01*
G75*
G02*
X122900000Y-66150000I0J250000D01*
G01*
X122900000Y-64950000D01*
G75*
G02*
X123150000Y-64700000I250000J0D01*
G01*
G37*
%TD.AperFunction*%
%TD*%
%TO.P,J3,1*%
%TO.N,VCC*%
%TA.AperFunction,ComponentPad*%
G36*
G01*
X97750000Y-78200000D02*
X97750000Y-77000000D01*
G75*
G02*
X98000000Y-76750000I250000J0D01*
G01*
X99200000Y-76750000D01*
G75*
G02*
X99450000Y-77000000I0J-250000D01*
G01*
X99450000Y-78200000D01*
G75*
G02*
X99200000Y-78450000I-250000J0D01*
G01*
X98000000Y-78450000D01*
G75*
G02*
X97750000Y-78200000I0J250000D01*
G01*
G37*
%TD.AperFunction*%
%TO.P,J3,3*%
%TO.N,PULL*%
X98600000Y-80140000D03*
%TO.P,J3,5*%
%TO.N,TEST*%
X98600000Y-82680000D03*
%TO.P,J3,7*%
%TO.N,SDA*%
X98600000Y-85220000D03*
%TO.P,J3,2*%
%TO.N,GND*%
X101140000Y-77600000D03*
%TO.P,J3,4*%
%TO.N,PUSH*%
X101140000Y-80140000D03*
%TO.P,J3,6*%
%TO.N,RESET*%
X101140000Y-82680000D03*
%TO.P,J3,8*%
%TO.N,SCL*%
X101140000Y-85220000D03*
%TD*%
%TO.P,J4,8*%
%TO.N,SCL*%
X164860000Y-77580000D03*
%TO.P,J4,6*%
%TO.N,RESET*%
X164860000Y-80120000D03*
%TO.P,J4,4*%
%TO.N,PUSH*%
X164860000Y-82660000D03*
%TO.P,J4,2*%
%TO.N,GND*%
X164860000Y-85200000D03*
%TO.P,J4,7*%
%TO.N,SDA*%
X167400000Y-77580000D03*
%TO.P,J4,5*%
%TO.N,TEST*%
X167400000Y-80120000D03*
%TO.P,J4,3*%
%TO.N,PULL*%
X167400000Y-82660000D03*
%TO.P,J4,1*%
%TO.N,VCC*%
%TA.AperFunction,ComponentPad*%
G36*
G01*
X168250000Y-84600000D02*
X168250000Y-85800000D01*
G75*
G02*
X168000000Y-86050000I-250000J0D01*
G01*
X166800000Y-86050000D01*
G75*
G02*
X166550000Y-85800000I0J250000D01*
G01*
X166550000Y-84600000D01*
G75*
G02*
X166800000Y-84350000I250000J0D01*
G01*
X168000000Y-84350000D01*
G75*
G02*
X168250000Y-84600000I0J-250000D01*
G01*
G37*
%TD.AperFunction*%
%TD*%
%TO.P,J5,12*%
%TO.N,BAUX1*%
X137350000Y-68040000D03*
%TO.P,J5,10*%
%TO.N,BAUX2*%
X139890000Y-68040000D03*
%TO.P,J5,8*%
%TO.N,BAUX3*%
X142430000Y-68040000D03*
%TO.P,J5,6*%
%TO.N,DAUX1*%
X144970000Y-68040000D03*
%TO.P,J5,4*%
%TO.N,DAUX2*%
X147510000Y-68040000D03*
%TO.P,J5,2*%
%TO.N,DAUX3*%
X150050000Y-68040000D03*
%TO.P,J5,11*%
%TO.N,AAUX1*%
X137350000Y-65500000D03*
%TO.P,J5,9*%
%TO.N,AAUX2*%
X139890000Y-65500000D03*
%TO.P,J5,7*%
%TO.N,AAUX3*%
X142430000Y-65500000D03*
%TO.P,J5,5*%
%TO.N,CAUX1*%
X144970000Y-65500000D03*
%TO.P,J5,3*%
%TO.N,CAUX2*%
X147510000Y-65500000D03*
%TO.P,J5,1*%
%TO.N,CAUX3*%
%TA.AperFunction,ComponentPad*%
G36*
G01*
X149450000Y-64650000D02*
X150650000Y-64650000D01*
G75*
G02*
X150900000Y-64900000I0J-250000D01*
G01*
X150900000Y-66100000D01*
G75*
G02*
X150650000Y-66350000I-250000J0D01*
G01*
X149450000Y-66350000D01*
G75*
G02*
X149200000Y-66100000I0J250000D01*
G01*
X149200000Y-64900000D01*
G75*
G02*
X149450000Y-64650000I250000J0D01*
G01*
G37*
%TD.AperFunction*%
%TD*%
D12*
%TO.P,JP4,1*%
%TO.N,PULL*%
X155635001Y-79605001D03*
D11*
%TO.P,JP4,2*%
%TO.N,VCC*%
X155635001Y-82145001D03*
%TD*%
D12*
%TO.P,JP5,1*%
%TO.N,PUSH*%
X151700000Y-79550000D03*
D11*
%TO.P,JP5,2*%
%TO.N,GND*%
X151700000Y-82090000D03*
%TD*%
D19*
%TO.P,R1,2*%
%TO.N,SDA*%
X134660000Y-75500000D03*
D20*
%TO.P,R1,1*%
%TO.N,VCC*%
X124500000Y-75500000D03*
%TD*%
%TO.P,R2,1*%
%TO.N,VCC*%
X124500000Y-79000000D03*
D19*
%TO.P,R2,2*%
%TO.N,SCL*%
X134660000Y-79000000D03*
%TD*%
%TO.P,R3,2*%
%TO.N,VCC*%
X98150000Y-93340000D03*
D20*
%TO.P,R3,1*%
%TO.N,Net-(D1-Pad2)*%
X98150000Y-103500000D03*
%TD*%
D21*
%TO.N,PUSH*%
X112700000Y-116680000D03*
X162250000Y-87910000D03*
%TO.N,AAUX3*%
X140540000Y-72850000D03*
%TO.N,BSW1*%
X121600000Y-104600000D03*
%TO.N,BSW2*%
X122800000Y-107000000D03*
%TO.N,CSW1*%
X145500000Y-105200000D03*
%TO.N,CSW2*%
X145500000Y-104100000D03*
%TO.N,CAUX1*%
X145990000Y-72890000D03*
%TO.N,CAUX2*%
X147000000Y-72900000D03*
%TO.N,CAUX3*%
X148000000Y-72900000D03*
%TO.N,VCC*%
X156650000Y-88820000D03*
X164920000Y-90920000D03*
X143490000Y-80010000D03*
X145820000Y-80000000D03*
X123760000Y-62250000D03*
X151750000Y-85310000D03*
X118270000Y-80110000D03*
%TO.N,TEST*%
X169570000Y-78940000D03*
%TO.N,SDA*%
X125490001Y-66889999D03*
%TO.N,GND*%
X111810000Y-76360000D03*
X104180000Y-108140000D03*
X129650000Y-68940000D03*
X126190000Y-68870000D03*
X143880000Y-88250000D03*
X105890000Y-90390000D03*
X105310000Y-74630000D03*
X170540000Y-87880000D03*
%TO.N,RESET*%
X111570000Y-72730000D03*
%TO.N,SCL*%
X132000000Y-74300000D03*
X118560000Y-72720000D03*
%TO.N,A0*%
X125830000Y-83170000D03*
%TO.N,A1*%
X125830000Y-84445000D03*
%TO.N,A2*%
X125830000Y-85720000D03*
%TD*%
D22*
%TO.N,ASW4*%
X111410000Y-104260000D02*
X111410000Y-111760000D01*
X104650000Y-97500000D02*
X111410000Y-104260000D01*
D23*
%TO.N,PUSH*%
X121210000Y-67660000D02*
X121210000Y-68090000D01*
X121770000Y-66800000D02*
X121770000Y-67100000D01*
X122410001Y-64973999D02*
X122410001Y-66159999D01*
X120785981Y-63349979D02*
X122410001Y-64973999D01*
X121770000Y-67100000D02*
X121210000Y-67660000D01*
X97399999Y-76690001D02*
X110740021Y-63349979D01*
X97399999Y-80716001D02*
X97399999Y-76690001D01*
X110740021Y-63349979D02*
X120785981Y-63349979D01*
X98023999Y-81340001D02*
X97399999Y-80716001D01*
X122410001Y-66159999D02*
X121770000Y-66800000D01*
X99176001Y-81340001D02*
X98023999Y-81340001D01*
X100376002Y-80140000D02*
X99176001Y-81340001D01*
X101140000Y-80140000D02*
X100376002Y-80140000D01*
X153095000Y-80945000D02*
X156267880Y-80945000D01*
X157982880Y-82660000D02*
X164860000Y-82660000D01*
X156267880Y-80945000D02*
X157982880Y-82660000D01*
X151700000Y-79550000D02*
X153095000Y-80945000D01*
X162250000Y-85270000D02*
X164860000Y-82660000D01*
X162250000Y-87910000D02*
X162250000Y-85270000D01*
D22*
X112680000Y-116660000D02*
X112700000Y-116680000D01*
X112680000Y-114300000D02*
X112680000Y-116660000D01*
D23*
X96899989Y-82464011D02*
X98023999Y-81340001D01*
X96899989Y-105151771D02*
X96899989Y-82464011D01*
X108428218Y-116680000D02*
X96899989Y-105151771D01*
X112700000Y-116680000D02*
X108428218Y-116680000D01*
D22*
%TO.N,AAUX1*%
X113950000Y-111760000D02*
X113950000Y-109752079D01*
X134974588Y-65500000D02*
X137350000Y-65500000D01*
X130589991Y-69884597D02*
X134974588Y-65500000D01*
X130589990Y-93112089D02*
X130589991Y-69884597D01*
X113950000Y-109752079D02*
X130589990Y-93112089D01*
%TO.N,AAUX2*%
X115220000Y-114300000D02*
X115464782Y-114300000D01*
X115220000Y-109270588D02*
X131040000Y-93450588D01*
X115220000Y-114300000D02*
X115220000Y-109270588D01*
X138714999Y-66675001D02*
X139890000Y-65500000D01*
X134435997Y-66675001D02*
X138714999Y-66675001D01*
X131040000Y-70070998D02*
X134435997Y-66675001D01*
X131040000Y-93450588D02*
X131040000Y-70070998D01*
%TO.N,AAUX3*%
X121251999Y-103874999D02*
X135168591Y-103874999D01*
X116490000Y-108636998D02*
X121251999Y-103874999D01*
X116490000Y-111760000D02*
X116490000Y-108636998D01*
X135168591Y-103874999D02*
X141079970Y-97963620D01*
X141079970Y-73389970D02*
X140540000Y-72850000D01*
X141079970Y-97963620D02*
X141079970Y-73389970D01*
%TO.N,BSW1*%
X121570000Y-104630000D02*
X121600000Y-104600000D01*
X121570000Y-114300000D02*
X121570000Y-104630000D01*
%TO.N,BSW2*%
X122840000Y-107040000D02*
X122800000Y-107000000D01*
X122840000Y-111760000D02*
X122840000Y-107040000D01*
%TO.N,BAUX1*%
X127920000Y-111760000D02*
X141529980Y-98150020D01*
X141529980Y-72219980D02*
X137350000Y-68040000D01*
X141529980Y-98150020D02*
X141529980Y-72219980D01*
%TO.N,BAUX2*%
X129190000Y-114300000D02*
X129190000Y-111269990D01*
X129190000Y-111269990D02*
X141979990Y-98480000D01*
X141979990Y-70129990D02*
X139890000Y-68040000D01*
X141979990Y-98480000D02*
X141979990Y-70129990D01*
%TO.N,BAUX3*%
X142430000Y-98802172D02*
X142430000Y-68040000D01*
X130460000Y-110772172D02*
X142430000Y-98802172D01*
X130460000Y-111760000D02*
X130460000Y-110772172D01*
D23*
%TO.N,CSW1*%
X136527828Y-114300000D02*
X135540000Y-114300000D01*
X137858501Y-111699717D02*
X137858501Y-112969327D01*
X137858501Y-112969327D02*
X136527828Y-114300000D01*
X144358218Y-105200000D02*
X137858501Y-111699717D01*
X145500000Y-105200000D02*
X144358218Y-105200000D01*
%TO.N,CSW2*%
X144470000Y-104100000D02*
X136810000Y-111760000D01*
X145500000Y-104100000D02*
X144470000Y-104100000D01*
D22*
%TO.N,CSW4*%
X139350000Y-114650000D02*
X139350000Y-111760000D01*
X140023501Y-115323501D02*
X139350000Y-114650000D01*
X157621281Y-115323501D02*
X140023501Y-115323501D01*
X159423501Y-113521281D02*
X157621281Y-115323501D01*
X159423501Y-97923501D02*
X159423501Y-113521281D01*
X159000000Y-97500000D02*
X159423501Y-97923501D01*
%TO.N,CAUX1*%
X141890000Y-109837180D02*
X147699960Y-104027220D01*
X141890000Y-111760000D02*
X141890000Y-109837180D01*
X147699960Y-104027220D02*
X147699960Y-74655000D01*
X146000000Y-72973002D02*
X146000000Y-72900000D01*
X146400000Y-73373002D02*
X146000000Y-72973002D01*
X147699960Y-74669960D02*
X146400000Y-73370000D01*
%TO.N,CAUX2*%
X143160000Y-109203590D02*
X148149970Y-104213620D01*
X143160000Y-114300000D02*
X143160000Y-109203590D01*
X147000000Y-72973002D02*
X147000000Y-72900000D01*
X148149970Y-74122972D02*
X147000000Y-72973002D01*
X148149970Y-104213620D02*
X148149970Y-74122972D01*
%TO.N,CAUX3*%
X144430000Y-108570000D02*
X148599980Y-104400020D01*
X144430000Y-111760000D02*
X144430000Y-108570000D01*
X148599980Y-73499980D02*
X148000000Y-72900000D01*
X148599980Y-104400020D02*
X148599980Y-73499980D01*
%TO.N,DAUX1*%
X155860000Y-111760000D02*
X149049990Y-104949990D01*
X149049990Y-72119990D02*
X144970000Y-68040000D01*
X149049990Y-104949990D02*
X149049990Y-72119990D01*
%TO.N,DAUX2*%
X157130000Y-111515218D02*
X149500000Y-103885218D01*
X157130000Y-114300000D02*
X157130000Y-111515218D01*
X149500000Y-70030000D02*
X147510000Y-68040000D01*
X149500000Y-103885218D02*
X149500000Y-70030000D01*
%TO.N,DAUX3*%
X150050000Y-103410000D02*
X150050000Y-68040000D01*
X158400000Y-111760000D02*
X150050000Y-103410000D01*
D24*
%TO.N,VCC*%
X156650000Y-83160000D02*
X155635001Y-82145001D01*
X156650000Y-88820000D02*
X156650000Y-83160000D01*
X158750000Y-90920000D02*
X156650000Y-88820000D01*
X164920000Y-90920000D02*
X158750000Y-90920000D01*
X145810000Y-80010000D02*
X145820000Y-80000000D01*
X143490000Y-80010000D02*
X145810000Y-80010000D01*
X123750000Y-62260000D02*
X123760000Y-62250000D01*
X123750000Y-65550000D02*
X123750000Y-62260000D01*
X152470002Y-85310000D02*
X155635001Y-82145001D01*
X151750000Y-85310000D02*
X152470002Y-85310000D01*
X119250000Y-82970000D02*
X116710000Y-82970000D01*
X116710000Y-82970000D02*
X114170000Y-82970000D01*
X119380000Y-79000000D02*
X118270000Y-80110000D01*
X124500000Y-79000000D02*
X119380000Y-79000000D01*
X113287919Y-80110000D02*
X118270000Y-80110000D01*
X111630000Y-81767919D02*
X113287919Y-80110000D01*
X111630000Y-82970000D02*
X111630000Y-81767919D01*
D23*
%TO.N,PULL*%
X99939999Y-78800001D02*
X99939999Y-77023999D01*
X98600000Y-80140000D02*
X99939999Y-78800001D01*
X166199999Y-81459999D02*
X167400000Y-82660000D01*
X157489999Y-81459999D02*
X166199999Y-81459999D01*
X155635001Y-79605001D02*
X157489999Y-81459999D01*
X119509989Y-63849989D02*
X121210000Y-65550000D01*
X113114009Y-63849989D02*
X119509989Y-63849989D01*
X99939999Y-77023999D02*
X113114009Y-63849989D01*
%TO.N,TEST*%
X115553999Y-64349999D02*
X117469999Y-64349999D01*
X114429989Y-65474009D02*
X115553999Y-64349999D01*
X114429989Y-68626013D02*
X114429989Y-65474009D01*
X101576003Y-81479999D02*
X114429989Y-68626013D01*
X99800001Y-81479999D02*
X101576003Y-81479999D01*
X117469999Y-64349999D02*
X118670000Y-65550000D01*
X98600000Y-82680000D02*
X99800001Y-81479999D01*
X168390000Y-80120000D02*
X169570000Y-78940000D01*
X167400000Y-80120000D02*
X168390000Y-80120000D01*
D22*
X161953002Y-94960000D02*
X159000000Y-94960000D01*
X168575001Y-88338001D02*
X161953002Y-94960000D01*
X168575001Y-81295001D02*
X168575001Y-88338001D01*
X167400000Y-80120000D02*
X168575001Y-81295001D01*
X97424999Y-87734999D02*
X104650000Y-94960000D01*
X97424999Y-83855001D02*
X97424999Y-87734999D01*
X98600000Y-82680000D02*
X97424999Y-83855001D01*
X104650000Y-94960000D02*
X107190000Y-94960000D01*
D23*
%TO.N,SDA*%
X99800001Y-84019999D02*
X101632881Y-84019999D01*
X98600000Y-85220000D02*
X99800001Y-84019999D01*
X114929999Y-70722881D02*
X114929999Y-66750001D01*
X114929999Y-66750001D02*
X116130000Y-65550000D01*
X101632881Y-84019999D02*
X114929999Y-70722881D01*
X167400000Y-73592880D02*
X154547110Y-60739990D01*
X167400000Y-77580000D02*
X167400000Y-73592880D01*
X132168892Y-60739990D02*
X132168890Y-60739992D01*
X154547110Y-60739990D02*
X132168892Y-60739990D01*
X131640010Y-60739990D02*
X132168892Y-60739990D01*
X125490001Y-66889999D02*
X131640010Y-60739990D01*
D22*
%TO.N,GND*%
X129580000Y-68870000D02*
X129650000Y-68940000D01*
X126190000Y-68870000D02*
X129580000Y-68870000D01*
D24*
X104300000Y-108020000D02*
X104180000Y-108140000D01*
X104300000Y-104500000D02*
X104300000Y-108020000D01*
D23*
%TO.N,RESET*%
X111090000Y-72730000D02*
X111570000Y-72730000D01*
X101140000Y-82680000D02*
X111090000Y-72730000D01*
%TO.N,SCL*%
X116130000Y-70230000D02*
X116130000Y-68090000D01*
X101140000Y-85220000D02*
X116130000Y-70230000D01*
X116130000Y-70290000D02*
X118560000Y-72720000D01*
X116130000Y-68090000D02*
X116130000Y-70290000D01*
X164860000Y-77580000D02*
X164860000Y-71760000D01*
X164860000Y-71760000D02*
X154340000Y-61240000D01*
X132376002Y-61240000D02*
X120896002Y-72720000D01*
X120896002Y-72720000D02*
X118560000Y-72720000D01*
X154340000Y-61240000D02*
X132376002Y-61240000D01*
X132000000Y-76340000D02*
X134660000Y-79000000D01*
X132000000Y-74300000D02*
X132000000Y-76340000D01*
%TO.N,A0*%
X124429999Y-81769999D02*
X125830000Y-83170000D01*
X113593999Y-81769999D02*
X124429999Y-81769999D01*
X112969999Y-82393999D02*
X113593999Y-81769999D01*
X112969999Y-85320001D02*
X112969999Y-82393999D01*
X112780000Y-85510000D02*
X112969999Y-85320001D01*
X111630000Y-85510000D02*
X112780000Y-85510000D01*
%TO.N,A1*%
X125825001Y-84449999D02*
X125830000Y-84445000D01*
%TO.N,A2*%
X125760000Y-85650000D02*
X125830000Y-85720000D01*
%TO.N,A1*%
X125694999Y-84309999D02*
X125830000Y-84445000D01*
X115370001Y-84309999D02*
X125694999Y-84309999D01*
X114170000Y-85510000D02*
X115370001Y-84309999D01*
%TO.N,A2*%
X124839999Y-86710001D02*
X125830000Y-85720000D01*
X117910001Y-86710001D02*
X124839999Y-86710001D01*
X116710000Y-85510000D02*
X117910001Y-86710001D01*
%TD*%
D25*
%TO.N,GND*%
X171524100Y-59626624D02*
X171960903Y-59758502D01*
X172363779Y-59972715D01*
X172717366Y-60261095D01*
X173008206Y-60612660D01*
X173225225Y-61014028D01*
X173360151Y-61449904D01*
X173411066Y-61934332D01*
X173410150Y-123037712D01*
X173362477Y-123523920D01*
X173230650Y-123960555D01*
X173016524Y-124363268D01*
X172728254Y-124716721D01*
X172376826Y-125007447D01*
X171975618Y-125224379D01*
X171539916Y-125359252D01*
X171055646Y-125410151D01*
X163389995Y-125411143D01*
X163553315Y-125247823D01*
X163710369Y-125012775D01*
X163818550Y-124751603D01*
X163873700Y-124474345D01*
X163873700Y-124191655D01*
X163818550Y-123914397D01*
X163710369Y-123653225D01*
X163553315Y-123418177D01*
X163353423Y-123218285D01*
X163118375Y-123061231D01*
X162857203Y-122953050D01*
X162579945Y-122897900D01*
X162297255Y-122897900D01*
X162019997Y-122953050D01*
X161758825Y-123061231D01*
X161523777Y-123218285D01*
X161323885Y-123418177D01*
X161166831Y-123653225D01*
X161058650Y-123914397D01*
X161003500Y-124191655D01*
X161003500Y-124474345D01*
X161058650Y-124751603D01*
X161166831Y-125012775D01*
X161323885Y-125247823D01*
X161487451Y-125411389D01*
X104505177Y-125418761D01*
X104676115Y-125247823D01*
X104833169Y-125012775D01*
X104941350Y-124751603D01*
X104996500Y-124474345D01*
X104996500Y-124191655D01*
X104941350Y-123914397D01*
X104833169Y-123653225D01*
X104676115Y-123418177D01*
X104476223Y-123218285D01*
X104241175Y-123061231D01*
X103980003Y-122953050D01*
X103702745Y-122897900D01*
X103420055Y-122897900D01*
X103142797Y-122953050D01*
X102881625Y-123061231D01*
X102646577Y-123218285D01*
X102446685Y-123418177D01*
X102289631Y-123653225D01*
X102181450Y-123914397D01*
X102126300Y-124191655D01*
X102126300Y-124474345D01*
X102181450Y-124751603D01*
X102289631Y-125012775D01*
X102446685Y-125247823D01*
X102617867Y-125419005D01*
X94952245Y-125419997D01*
X94466106Y-125372330D01*
X94029503Y-125240512D01*
X93626814Y-125026399D01*
X93273387Y-124738150D01*
X92982673Y-124386739D01*
X92765760Y-123985564D01*
X92630894Y-123549886D01*
X92580002Y-123065680D01*
X92580557Y-119661682D01*
X94565000Y-119661682D01*
X94565000Y-120338318D01*
X94697006Y-121001952D01*
X94955943Y-121627082D01*
X95331862Y-122189685D01*
X95810315Y-122668138D01*
X96372918Y-123044057D01*
X96998048Y-123302994D01*
X97661682Y-123435000D01*
X98338318Y-123435000D01*
X99001952Y-123302994D01*
X99627082Y-123044057D01*
X100189685Y-122668138D01*
X100668138Y-122189685D01*
X101044057Y-121627082D01*
X101302994Y-121001952D01*
X101416792Y-120429852D01*
X104094800Y-120429852D01*
X104094800Y-120870148D01*
X104180698Y-121301984D01*
X104349192Y-121708764D01*
X104593807Y-122074857D01*
X104905143Y-122386193D01*
X105271236Y-122630808D01*
X105678016Y-122799302D01*
X106109852Y-122885200D01*
X106550148Y-122885200D01*
X106981984Y-122799302D01*
X107388764Y-122630808D01*
X107754857Y-122386193D01*
X108066193Y-122074857D01*
X108310808Y-121708764D01*
X108479302Y-121301984D01*
X108565200Y-120870148D01*
X108565200Y-120429852D01*
X157434800Y-120429852D01*
X157434800Y-120870148D01*
X157520698Y-121301984D01*
X157689192Y-121708764D01*
X157933807Y-122074857D01*
X158245143Y-122386193D01*
X158611236Y-122630808D01*
X159018016Y-122799302D01*
X159449852Y-122885200D01*
X159890148Y-122885200D01*
X160321984Y-122799302D01*
X160728764Y-122630808D01*
X161094857Y-122386193D01*
X161406193Y-122074857D01*
X161650808Y-121708764D01*
X161819302Y-121301984D01*
X161905200Y-120870148D01*
X161905200Y-120429852D01*
X161819302Y-119998016D01*
X161679988Y-119661682D01*
X164565000Y-119661682D01*
X164565000Y-120338318D01*
X164697006Y-121001952D01*
X164955943Y-121627082D01*
X165331862Y-122189685D01*
X165810315Y-122668138D01*
X166372918Y-123044057D01*
X166998048Y-123302994D01*
X167661682Y-123435000D01*
X168338318Y-123435000D01*
X169001952Y-123302994D01*
X169627082Y-123044057D01*
X170189685Y-122668138D01*
X170668138Y-122189685D01*
X171044057Y-121627082D01*
X171302994Y-121001952D01*
X171435000Y-120338318D01*
X171435000Y-119661682D01*
X171302994Y-118998048D01*
X171044057Y-118372918D01*
X170668138Y-117810315D01*
X170189685Y-117331862D01*
X169627082Y-116955943D01*
X169001952Y-116697006D01*
X168338318Y-116565000D01*
X167661682Y-116565000D01*
X166998048Y-116697006D01*
X166372918Y-116955943D01*
X165810315Y-117331862D01*
X165331862Y-117810315D01*
X164955943Y-118372918D01*
X164697006Y-118998048D01*
X164565000Y-119661682D01*
X161679988Y-119661682D01*
X161650808Y-119591236D01*
X161406193Y-119225143D01*
X161094857Y-118913807D01*
X160728764Y-118669192D01*
X160321984Y-118500698D01*
X159890148Y-118414800D01*
X159449852Y-118414800D01*
X159018016Y-118500698D01*
X158611236Y-118669192D01*
X158245143Y-118913807D01*
X157933807Y-119225143D01*
X157689192Y-119591236D01*
X157520698Y-119998016D01*
X157434800Y-120429852D01*
X108565200Y-120429852D01*
X108479302Y-119998016D01*
X108310808Y-119591236D01*
X108066193Y-119225143D01*
X107754857Y-118913807D01*
X107388764Y-118669192D01*
X106981984Y-118500698D01*
X106550148Y-118414800D01*
X106109852Y-118414800D01*
X105678016Y-118500698D01*
X105271236Y-118669192D01*
X104905143Y-118913807D01*
X104593807Y-119225143D01*
X104349192Y-119591236D01*
X104180698Y-119998016D01*
X104094800Y-120429852D01*
X101416792Y-120429852D01*
X101435000Y-120338318D01*
X101435000Y-119661682D01*
X101302994Y-118998048D01*
X101044057Y-118372918D01*
X100668138Y-117810315D01*
X100189685Y-117331862D01*
X99627082Y-116955943D01*
X99001952Y-116697006D01*
X98338318Y-116565000D01*
X97661682Y-116565000D01*
X96998048Y-116697006D01*
X96372918Y-116955943D01*
X95810315Y-117331862D01*
X95331862Y-117810315D01*
X94955943Y-118372918D01*
X94697006Y-118998048D01*
X94565000Y-119661682D01*
X92580557Y-119661682D01*
X92586630Y-82464011D01*
X96111192Y-82464011D01*
X96114990Y-82502574D01*
X96114989Y-105113218D01*
X96111192Y-105151771D01*
X96114989Y-105190324D01*
X96114989Y-105190331D01*
X96126348Y-105305657D01*
X96171235Y-105453630D01*
X96244127Y-105590003D01*
X96342225Y-105709535D01*
X96372179Y-105734118D01*
X107845871Y-117207810D01*
X107870454Y-117237764D01*
X107989985Y-117335862D01*
X108126358Y-117408754D01*
X108274331Y-117453642D01*
X108349244Y-117461020D01*
X108389657Y-117465000D01*
X108389662Y-117465000D01*
X108428218Y-117468797D01*
X108466774Y-117465000D01*
X112021289Y-117465000D01*
X112040226Y-117483937D01*
X112209744Y-117597205D01*
X112398102Y-117675226D01*
X112598061Y-117715000D01*
X112801939Y-117715000D01*
X113001898Y-117675226D01*
X113190256Y-117597205D01*
X113359774Y-117483937D01*
X113503937Y-117339774D01*
X113617205Y-117170256D01*
X113695226Y-116981898D01*
X113735000Y-116781939D01*
X113735000Y-116578061D01*
X113695226Y-116378102D01*
X113617205Y-116189744D01*
X113503937Y-116020226D01*
X113440000Y-115956289D01*
X113440000Y-115395971D01*
X113530057Y-115335797D01*
X113715797Y-115150057D01*
X113861732Y-114931649D01*
X113950000Y-114718552D01*
X114038268Y-114931649D01*
X114184203Y-115150057D01*
X114369943Y-115335797D01*
X114588351Y-115481732D01*
X114831032Y-115582254D01*
X115088662Y-115633500D01*
X115351338Y-115633500D01*
X115608968Y-115582254D01*
X115851649Y-115481732D01*
X116070057Y-115335797D01*
X116255797Y-115150057D01*
X116401732Y-114931649D01*
X116502254Y-114688968D01*
X116553500Y-114431338D01*
X116553500Y-114168662D01*
X116502254Y-113911032D01*
X116401732Y-113668351D01*
X116255797Y-113449943D01*
X116070057Y-113264203D01*
X115980000Y-113204029D01*
X115980000Y-112992121D01*
X116101032Y-113042254D01*
X116358662Y-113093500D01*
X116621338Y-113093500D01*
X116878968Y-113042254D01*
X117121649Y-112941732D01*
X117340057Y-112795797D01*
X117525797Y-112610057D01*
X117671732Y-112391649D01*
X117772254Y-112148968D01*
X117823500Y-111891338D01*
X117823500Y-111628662D01*
X117772254Y-111371032D01*
X117671732Y-111128351D01*
X117525797Y-110909943D01*
X117340057Y-110724203D01*
X117250000Y-110664029D01*
X117250000Y-110348655D01*
X117594900Y-110348655D01*
X117594900Y-110631345D01*
X117650050Y-110908603D01*
X117758231Y-111169775D01*
X117915285Y-111404823D01*
X118115177Y-111604715D01*
X118350225Y-111761769D01*
X118611397Y-111869950D01*
X118888655Y-111925100D01*
X119171345Y-111925100D01*
X119448603Y-111869950D01*
X119709775Y-111761769D01*
X119944823Y-111604715D01*
X120144715Y-111404823D01*
X120301769Y-111169775D01*
X120409950Y-110908603D01*
X120465100Y-110631345D01*
X120465100Y-110348655D01*
X120409950Y-110071397D01*
X120301769Y-109810225D01*
X120144715Y-109575177D01*
X119944823Y-109375285D01*
X119709775Y-109218231D01*
X119448603Y-109110050D01*
X119171345Y-109054900D01*
X118888655Y-109054900D01*
X118611397Y-109110050D01*
X118350225Y-109218231D01*
X118115177Y-109375285D01*
X117915285Y-109575177D01*
X117758231Y-109810225D01*
X117650050Y-110071397D01*
X117594900Y-110348655D01*
X117250000Y-110348655D01*
X117250000Y-108951799D01*
X120810001Y-105391799D01*
X120810000Y-113204029D01*
X120719943Y-113264203D01*
X120534203Y-113449943D01*
X120388268Y-113668351D01*
X120287746Y-113911032D01*
X120236500Y-114168662D01*
X120236500Y-114431338D01*
X120287746Y-114688968D01*
X120388268Y-114931649D01*
X120534203Y-115150057D01*
X120719943Y-115335797D01*
X120938351Y-115481732D01*
X121181032Y-115582254D01*
X121438662Y-115633500D01*
X121701338Y-115633500D01*
X121958968Y-115582254D01*
X122201649Y-115481732D01*
X122420057Y-115335797D01*
X122605797Y-115150057D01*
X122751732Y-114931649D01*
X122840000Y-114718552D01*
X122928268Y-114931649D01*
X123074203Y-115150057D01*
X123259943Y-115335797D01*
X123478351Y-115481732D01*
X123721032Y-115582254D01*
X123978662Y-115633500D01*
X124241338Y-115633500D01*
X124498968Y-115582254D01*
X124741649Y-115481732D01*
X124960057Y-115335797D01*
X125145797Y-115150057D01*
X125291732Y-114931649D01*
X125380000Y-114718552D01*
X125468268Y-114931649D01*
X125614203Y-115150057D01*
X125799943Y-115335797D01*
X126018351Y-115481732D01*
X126261032Y-115582254D01*
X126518662Y-115633500D01*
X126781338Y-115633500D01*
X127038968Y-115582254D01*
X127281649Y-115481732D01*
X127500057Y-115335797D01*
X127685797Y-115150057D01*
X127831732Y-114931649D01*
X127920000Y-114718552D01*
X128008268Y-114931649D01*
X128154203Y-115150057D01*
X128339943Y-115335797D01*
X128558351Y-115481732D01*
X128801032Y-115582254D01*
X129058662Y-115633500D01*
X129321338Y-115633500D01*
X129578968Y-115582254D01*
X129821649Y-115481732D01*
X130040057Y-115335797D01*
X130225797Y-115150057D01*
X130371732Y-114931649D01*
X130472254Y-114688968D01*
X130523500Y-114431338D01*
X130523500Y-114168662D01*
X130472254Y-113911032D01*
X130371732Y-113668351D01*
X130225797Y-113449943D01*
X130040057Y-113264203D01*
X129950000Y-113204029D01*
X129950000Y-112992121D01*
X130071032Y-113042254D01*
X130328662Y-113093500D01*
X130591338Y-113093500D01*
X130848968Y-113042254D01*
X131091649Y-112941732D01*
X131310057Y-112795797D01*
X131495797Y-112610057D01*
X131641732Y-112391649D01*
X131742254Y-112148968D01*
X131793500Y-111891338D01*
X131793500Y-111628662D01*
X131742254Y-111371032D01*
X131641732Y-111128351D01*
X131495797Y-110909943D01*
X131446414Y-110860560D01*
X131583271Y-110723702D01*
X131620050Y-110908603D01*
X131728231Y-111169775D01*
X131885285Y-111404823D01*
X132085177Y-111604715D01*
X132320225Y-111761769D01*
X132581397Y-111869950D01*
X132858655Y-111925100D01*
X133141345Y-111925100D01*
X133418603Y-111869950D01*
X133679775Y-111761769D01*
X133914823Y-111604715D01*
X134114715Y-111404823D01*
X134271769Y-111169775D01*
X134379950Y-110908603D01*
X134435100Y-110631345D01*
X134435100Y-110348655D01*
X134379950Y-110071397D01*
X134271769Y-109810225D01*
X134114715Y-109575177D01*
X133914823Y-109375285D01*
X133679775Y-109218231D01*
X133418603Y-109110050D01*
X133233702Y-109073271D01*
X142941004Y-99365970D01*
X142970001Y-99342173D01*
X143064974Y-99226448D01*
X143135546Y-99094419D01*
X143179003Y-98951158D01*
X143190000Y-98839505D01*
X143190000Y-98839496D01*
X143193676Y-98802173D01*
X143190000Y-98764850D01*
X143190000Y-84578438D01*
X143461505Y-84578438D01*
X143500605Y-84818549D01*
X143580451Y-85032117D01*
X143569463Y-85045506D01*
X143510498Y-85155820D01*
X143474188Y-85275518D01*
X143461928Y-85400000D01*
X143461928Y-86600000D01*
X143474188Y-86724482D01*
X143510498Y-86844180D01*
X143569463Y-86954494D01*
X143648815Y-87051185D01*
X143745506Y-87130537D01*
X143855820Y-87189502D01*
X143975518Y-87225812D01*
X144100000Y-87238072D01*
X145300000Y-87238072D01*
X145424482Y-87225812D01*
X145544180Y-87189502D01*
X145654494Y-87130537D01*
X145751185Y-87051185D01*
X145830537Y-86954494D01*
X145889502Y-86844180D01*
X145925812Y-86724482D01*
X145938072Y-86600000D01*
X145938072Y-85400000D01*
X145925812Y-85275518D01*
X145889502Y-85155820D01*
X145830537Y-85045506D01*
X145816432Y-85028319D01*
X145874237Y-84901484D01*
X145930000Y-84664687D01*
X145938495Y-84421562D01*
X145899395Y-84181451D01*
X145814202Y-83953582D01*
X145773348Y-83877148D01*
X145549764Y-83829841D01*
X144879605Y-84500000D01*
X144893748Y-84514143D01*
X144714143Y-84693748D01*
X144700000Y-84679605D01*
X144685858Y-84693748D01*
X144506253Y-84514143D01*
X144520395Y-84500000D01*
X143850236Y-83829841D01*
X143626652Y-83877148D01*
X143525763Y-84098516D01*
X143470000Y-84335313D01*
X143461505Y-84578438D01*
X143190000Y-84578438D01*
X143190000Y-83650236D01*
X144029841Y-83650236D01*
X144700000Y-84320395D01*
X145370159Y-83650236D01*
X145322852Y-83426652D01*
X145101484Y-83325763D01*
X144864687Y-83270000D01*
X144621562Y-83261505D01*
X144381451Y-83300605D01*
X144153582Y-83385798D01*
X144077148Y-83426652D01*
X144029841Y-83650236D01*
X143190000Y-83650236D01*
X143190000Y-81005604D01*
X143388061Y-81045000D01*
X143591939Y-81045000D01*
X143791898Y-81005226D01*
X143980256Y-80927205D01*
X144028454Y-80895000D01*
X145296512Y-80895000D01*
X145329744Y-80917205D01*
X145518102Y-80995226D01*
X145718061Y-81035000D01*
X145921939Y-81035000D01*
X146121898Y-80995226D01*
X146310256Y-80917205D01*
X146479774Y-80803937D01*
X146623937Y-80659774D01*
X146737205Y-80490256D01*
X146815226Y-80301898D01*
X146855000Y-80101939D01*
X146855000Y-79898061D01*
X146815226Y-79698102D01*
X146737205Y-79509744D01*
X146623937Y-79340226D01*
X146479774Y-79196063D01*
X146310256Y-79082795D01*
X146121898Y-79004774D01*
X145921939Y-78965000D01*
X145718061Y-78965000D01*
X145518102Y-79004774D01*
X145329744Y-79082795D01*
X145266580Y-79125000D01*
X144028454Y-79125000D01*
X143980256Y-79092795D01*
X143791898Y-79014774D01*
X143591939Y-78975000D01*
X143388061Y-78975000D01*
X143190000Y-79014396D01*
X143190000Y-69318178D01*
X143376632Y-69193475D01*
X143583475Y-68986632D01*
X143700000Y-68812240D01*
X143816525Y-68986632D01*
X144023368Y-69193475D01*
X144266589Y-69355990D01*
X144536842Y-69467932D01*
X144823740Y-69525000D01*
X145116260Y-69525000D01*
X145336408Y-69481209D01*
X147749707Y-71894509D01*
X147698102Y-71904774D01*
X147509744Y-71982795D01*
X147500000Y-71989306D01*
X147490256Y-71982795D01*
X147301898Y-71904774D01*
X147101939Y-71865000D01*
X146898061Y-71865000D01*
X146698102Y-71904774D01*
X146509744Y-71982795D01*
X146502483Y-71987647D01*
X146480256Y-71972795D01*
X146291898Y-71894774D01*
X146091939Y-71855000D01*
X145888061Y-71855000D01*
X145688102Y-71894774D01*
X145499744Y-71972795D01*
X145330226Y-72086063D01*
X145186063Y-72230226D01*
X145072795Y-72399744D01*
X144994774Y-72588102D01*
X144955000Y-72788061D01*
X144955000Y-72991939D01*
X144994774Y-73191898D01*
X145072795Y-73380256D01*
X145186063Y-73549774D01*
X145330226Y-73693937D01*
X145499744Y-73807205D01*
X145688102Y-73885226D01*
X145874498Y-73922302D01*
X145888997Y-73936801D01*
X145905742Y-73950543D01*
X146939961Y-74984763D01*
X146939960Y-103712418D01*
X146535000Y-104117378D01*
X146535000Y-103998061D01*
X146495226Y-103798102D01*
X146417205Y-103609744D01*
X146303937Y-103440226D01*
X146159774Y-103296063D01*
X145990256Y-103182795D01*
X145801898Y-103104774D01*
X145601939Y-103065000D01*
X145398061Y-103065000D01*
X145198102Y-103104774D01*
X145009744Y-103182795D01*
X144840226Y-103296063D01*
X144821289Y-103315000D01*
X144508556Y-103315000D01*
X144470000Y-103311203D01*
X144431444Y-103315000D01*
X144431439Y-103315000D01*
X144391026Y-103318980D01*
X144316113Y-103326358D01*
X144168140Y-103371246D01*
X144031767Y-103444138D01*
X143912236Y-103542236D01*
X143887653Y-103572190D01*
X137018078Y-110441765D01*
X136941338Y-110426500D01*
X136678662Y-110426500D01*
X136421032Y-110477746D01*
X136178351Y-110578268D01*
X135959943Y-110724203D01*
X135774203Y-110909943D01*
X135628268Y-111128351D01*
X135527746Y-111371032D01*
X135476500Y-111628662D01*
X135476500Y-111891338D01*
X135527746Y-112148968D01*
X135628268Y-112391649D01*
X135774203Y-112610057D01*
X135959943Y-112795797D01*
X136178351Y-112941732D01*
X136421032Y-113042254D01*
X136633212Y-113084459D01*
X136421763Y-113295909D01*
X136390057Y-113264203D01*
X136171649Y-113118268D01*
X135928968Y-113017746D01*
X135671338Y-112966500D01*
X135408662Y-112966500D01*
X135151032Y-113017746D01*
X134908351Y-113118268D01*
X134689943Y-113264203D01*
X134504203Y-113449943D01*
X134358268Y-113668351D01*
X134257746Y-113911032D01*
X134206500Y-114168662D01*
X134206500Y-114431338D01*
X134257746Y-114688968D01*
X134358268Y-114931649D01*
X134504203Y-115150057D01*
X134689943Y-115335797D01*
X134908351Y-115481732D01*
X135151032Y-115582254D01*
X135408662Y-115633500D01*
X135671338Y-115633500D01*
X135928968Y-115582254D01*
X136171649Y-115481732D01*
X136390057Y-115335797D01*
X136575797Y-115150057D01*
X136622992Y-115079425D01*
X136681715Y-115073641D01*
X136829688Y-115028754D01*
X136928029Y-114976190D01*
X137044203Y-115150057D01*
X137229943Y-115335797D01*
X137448351Y-115481732D01*
X137691032Y-115582254D01*
X137948662Y-115633500D01*
X138211338Y-115633500D01*
X138468968Y-115582254D01*
X138711649Y-115481732D01*
X138930057Y-115335797D01*
X138945526Y-115320328D01*
X139459701Y-115834503D01*
X139483500Y-115863502D01*
X139599225Y-115958475D01*
X139731254Y-116029047D01*
X139874515Y-116072504D01*
X139986168Y-116083501D01*
X139986177Y-116083501D01*
X140023500Y-116087177D01*
X140060823Y-116083501D01*
X157583959Y-116083501D01*
X157621281Y-116087177D01*
X157658603Y-116083501D01*
X157658614Y-116083501D01*
X157770267Y-116072504D01*
X157913528Y-116029047D01*
X158045557Y-115958475D01*
X158161282Y-115863502D01*
X158185085Y-115834498D01*
X159934504Y-114085080D01*
X159963502Y-114061282D01*
X160007432Y-114007753D01*
X160058475Y-113945558D01*
X160129047Y-113813528D01*
X160141587Y-113772188D01*
X160172504Y-113670267D01*
X160183501Y-113558614D01*
X160183501Y-113558604D01*
X160187177Y-113521281D01*
X160183501Y-113483958D01*
X160183501Y-98891758D01*
X160204494Y-98880537D01*
X160301185Y-98801185D01*
X160380537Y-98704494D01*
X160439502Y-98594180D01*
X160461513Y-98521620D01*
X160593368Y-98653475D01*
X160836589Y-98815990D01*
X161106842Y-98927932D01*
X161393740Y-98985000D01*
X161686260Y-98985000D01*
X161973158Y-98927932D01*
X162243411Y-98815990D01*
X162486632Y-98653475D01*
X162693475Y-98446632D01*
X162855990Y-98203411D01*
X162967932Y-97933158D01*
X163025000Y-97646260D01*
X163025000Y-97353740D01*
X162967932Y-97066842D01*
X162855990Y-96796589D01*
X162693475Y-96553368D01*
X162486632Y-96346525D01*
X162312240Y-96230000D01*
X162486632Y-96113475D01*
X162693475Y-95906632D01*
X162855990Y-95663411D01*
X162967932Y-95393158D01*
X163025000Y-95106260D01*
X163025000Y-94962803D01*
X169086004Y-88901800D01*
X169115002Y-88878002D01*
X169209975Y-88762277D01*
X169280547Y-88630248D01*
X169324004Y-88486987D01*
X169335001Y-88375334D01*
X169335001Y-88375326D01*
X169338677Y-88338001D01*
X169335001Y-88300676D01*
X169335001Y-81332323D01*
X169338677Y-81295000D01*
X169335001Y-81257677D01*
X169335001Y-81257668D01*
X169324004Y-81146015D01*
X169280547Y-81002754D01*
X169209975Y-80870725D01*
X169115002Y-80755000D01*
X169086005Y-80731203D01*
X168987479Y-80632678D01*
X169645158Y-79975000D01*
X169671939Y-79975000D01*
X169871898Y-79935226D01*
X170060256Y-79857205D01*
X170229774Y-79743937D01*
X170373937Y-79599774D01*
X170487205Y-79430256D01*
X170565226Y-79241898D01*
X170605000Y-79041939D01*
X170605000Y-78838061D01*
X170565226Y-78638102D01*
X170487205Y-78449744D01*
X170373937Y-78280226D01*
X170229774Y-78136063D01*
X170060256Y-78022795D01*
X169871898Y-77944774D01*
X169671939Y-77905000D01*
X169468061Y-77905000D01*
X169268102Y-77944774D01*
X169079744Y-78022795D01*
X168910226Y-78136063D01*
X168766063Y-78280226D01*
X168652795Y-78449744D01*
X168574774Y-78638102D01*
X168535000Y-78838061D01*
X168535000Y-78864842D01*
X168389975Y-79009868D01*
X168346632Y-78966525D01*
X168172240Y-78850000D01*
X168346632Y-78733475D01*
X168553475Y-78526632D01*
X168715990Y-78283411D01*
X168827932Y-78013158D01*
X168885000Y-77726260D01*
X168885000Y-77433740D01*
X168827932Y-77146842D01*
X168715990Y-76876589D01*
X168553475Y-76633368D01*
X168346632Y-76426525D01*
X168185000Y-76318526D01*
X168185000Y-73631432D01*
X168188797Y-73592879D01*
X168185000Y-73554326D01*
X168185000Y-73554319D01*
X168173641Y-73438993D01*
X168128754Y-73291020D01*
X168055862Y-73154647D01*
X167992757Y-73077754D01*
X167982345Y-73065067D01*
X167982342Y-73065064D01*
X167957764Y-73035116D01*
X167927816Y-73010538D01*
X159578960Y-64661682D01*
X164565000Y-64661682D01*
X164565000Y-65338318D01*
X164697006Y-66001952D01*
X164955943Y-66627082D01*
X165331862Y-67189685D01*
X165810315Y-67668138D01*
X166372918Y-68044057D01*
X166998048Y-68302994D01*
X167661682Y-68435000D01*
X168338318Y-68435000D01*
X169001952Y-68302994D01*
X169627082Y-68044057D01*
X170189685Y-67668138D01*
X170668138Y-67189685D01*
X171044057Y-66627082D01*
X171302994Y-66001952D01*
X171435000Y-65338318D01*
X171435000Y-64661682D01*
X171302994Y-63998048D01*
X171044057Y-63372918D01*
X170668138Y-62810315D01*
X170189685Y-62331862D01*
X169627082Y-61955943D01*
X169001952Y-61697006D01*
X168338318Y-61565000D01*
X167661682Y-61565000D01*
X166998048Y-61697006D01*
X166372918Y-61955943D01*
X165810315Y-62331862D01*
X165331862Y-62810315D01*
X164955943Y-63372918D01*
X164697006Y-63998048D01*
X164565000Y-64661682D01*
X159578960Y-64661682D01*
X155129457Y-60212180D01*
X155104874Y-60182226D01*
X154985343Y-60084128D01*
X154848970Y-60011236D01*
X154700997Y-59966349D01*
X154585671Y-59954990D01*
X154585663Y-59954990D01*
X154547110Y-59951193D01*
X154508557Y-59954990D01*
X132207448Y-59954990D01*
X132168892Y-59951193D01*
X132130337Y-59954990D01*
X131678562Y-59954990D01*
X131640009Y-59951193D01*
X131601456Y-59954990D01*
X131601449Y-59954990D01*
X131500500Y-59964933D01*
X131486122Y-59966349D01*
X131352619Y-60006847D01*
X131338150Y-60011236D01*
X131201777Y-60084128D01*
X131150832Y-60125938D01*
X131112197Y-60157645D01*
X131112194Y-60157648D01*
X131082246Y-60182226D01*
X131057668Y-60212174D01*
X125414844Y-65854999D01*
X125388062Y-65854999D01*
X125238072Y-65884834D01*
X125238072Y-64950000D01*
X125221008Y-64776746D01*
X125170472Y-64610150D01*
X125088405Y-64456614D01*
X124977962Y-64322038D01*
X124843386Y-64211595D01*
X124689850Y-64129528D01*
X124635000Y-64112890D01*
X124635000Y-62803420D01*
X124677205Y-62740256D01*
X124755226Y-62551898D01*
X124795000Y-62351939D01*
X124795000Y-62148061D01*
X124755226Y-61948102D01*
X124677205Y-61759744D01*
X124563937Y-61590226D01*
X124419774Y-61446063D01*
X124250256Y-61332795D01*
X124061898Y-61254774D01*
X123861939Y-61215000D01*
X123658061Y-61215000D01*
X123458102Y-61254774D01*
X123269744Y-61332795D01*
X123100226Y-61446063D01*
X122956063Y-61590226D01*
X122842795Y-61759744D01*
X122764774Y-61948102D01*
X122725000Y-62148061D01*
X122725000Y-62351939D01*
X122764774Y-62551898D01*
X122842795Y-62740256D01*
X122865001Y-62773489D01*
X122865000Y-64112889D01*
X122810150Y-64129528D01*
X122722525Y-64176365D01*
X121368328Y-62822169D01*
X121343745Y-62792215D01*
X121224214Y-62694117D01*
X121087841Y-62621225D01*
X120939868Y-62576338D01*
X120824542Y-62564979D01*
X120824534Y-62564979D01*
X120785981Y-62561182D01*
X120747428Y-62564979D01*
X110778573Y-62564979D01*
X110740020Y-62561182D01*
X110701467Y-62564979D01*
X110701460Y-62564979D01*
X110586134Y-62576338D01*
X110438161Y-62621225D01*
X110301788Y-62694117D01*
X110245568Y-62740256D01*
X110212208Y-62767634D01*
X110212205Y-62767637D01*
X110182257Y-62792215D01*
X110157679Y-62822163D01*
X96872184Y-76107659D01*
X96842236Y-76132237D01*
X96817658Y-76162185D01*
X96817654Y-76162189D01*
X96789390Y-76196629D01*
X96744138Y-76251768D01*
X96706316Y-76322528D01*
X96671245Y-76388142D01*
X96626358Y-76536115D01*
X96611202Y-76690001D01*
X96615000Y-76728564D01*
X96614999Y-80677448D01*
X96611202Y-80716001D01*
X96614999Y-80754554D01*
X96614999Y-80754561D01*
X96626358Y-80869887D01*
X96671245Y-81017860D01*
X96744137Y-81154233D01*
X96842235Y-81273765D01*
X96872188Y-81298347D01*
X96913842Y-81340001D01*
X96372174Y-81881669D01*
X96342226Y-81906247D01*
X96317648Y-81936195D01*
X96317644Y-81936199D01*
X96295649Y-81963000D01*
X96244128Y-82025778D01*
X96216400Y-82077655D01*
X96171235Y-82162152D01*
X96126348Y-82310125D01*
X96111192Y-82464011D01*
X92586630Y-82464011D01*
X92589537Y-64661682D01*
X94565000Y-64661682D01*
X94565000Y-65338318D01*
X94697006Y-66001952D01*
X94955943Y-66627082D01*
X95331862Y-67189685D01*
X95810315Y-67668138D01*
X96372918Y-68044057D01*
X96998048Y-68302994D01*
X97661682Y-68435000D01*
X98338318Y-68435000D01*
X99001952Y-68302994D01*
X99627082Y-68044057D01*
X100189685Y-67668138D01*
X100668138Y-67189685D01*
X101044057Y-66627082D01*
X101302994Y-66001952D01*
X101435000Y-65338318D01*
X101435000Y-64661682D01*
X101302994Y-63998048D01*
X101044057Y-63372918D01*
X100668138Y-62810315D01*
X100189685Y-62331862D01*
X99627082Y-61955943D01*
X99001952Y-61697006D01*
X98338318Y-61565000D01*
X97661682Y-61565000D01*
X96998048Y-61697006D01*
X96372918Y-61955943D01*
X95810315Y-62331862D01*
X95331862Y-62810315D01*
X94955943Y-63372918D01*
X94697006Y-63998048D01*
X94565000Y-64661682D01*
X92589537Y-64661682D01*
X92589978Y-61962336D01*
X92637654Y-61476104D01*
X92769474Y-61039496D01*
X92983587Y-60636805D01*
X93271838Y-60283375D01*
X93623251Y-59992662D01*
X94024432Y-59775744D01*
X94460114Y-59640878D01*
X94944362Y-59589981D01*
X171037766Y-59578938D01*
X171524100Y-59626624D01*
%TA.AperFunction,Conductor*%
D26*
G36*
X171524100Y-59626624D02*
G01*
X171960903Y-59758502D01*
X172363779Y-59972715D01*
X172717366Y-60261095D01*
X173008206Y-60612660D01*
X173225225Y-61014028D01*
X173360151Y-61449904D01*
X173411066Y-61934332D01*
X173410150Y-123037712D01*
X173362477Y-123523920D01*
X173230650Y-123960555D01*
X173016524Y-124363268D01*
X172728254Y-124716721D01*
X172376826Y-125007447D01*
X171975618Y-125224379D01*
X171539916Y-125359252D01*
X171055646Y-125410151D01*
X163389995Y-125411143D01*
X163553315Y-125247823D01*
X163710369Y-125012775D01*
X163818550Y-124751603D01*
X163873700Y-124474345D01*
X163873700Y-124191655D01*
X163818550Y-123914397D01*
X163710369Y-123653225D01*
X163553315Y-123418177D01*
X163353423Y-123218285D01*
X163118375Y-123061231D01*
X162857203Y-122953050D01*
X162579945Y-122897900D01*
X162297255Y-122897900D01*
X162019997Y-122953050D01*
X161758825Y-123061231D01*
X161523777Y-123218285D01*
X161323885Y-123418177D01*
X161166831Y-123653225D01*
X161058650Y-123914397D01*
X161003500Y-124191655D01*
X161003500Y-124474345D01*
X161058650Y-124751603D01*
X161166831Y-125012775D01*
X161323885Y-125247823D01*
X161487451Y-125411389D01*
X104505177Y-125418761D01*
X104676115Y-125247823D01*
X104833169Y-125012775D01*
X104941350Y-124751603D01*
X104996500Y-124474345D01*
X104996500Y-124191655D01*
X104941350Y-123914397D01*
X104833169Y-123653225D01*
X104676115Y-123418177D01*
X104476223Y-123218285D01*
X104241175Y-123061231D01*
X103980003Y-122953050D01*
X103702745Y-122897900D01*
X103420055Y-122897900D01*
X103142797Y-122953050D01*
X102881625Y-123061231D01*
X102646577Y-123218285D01*
X102446685Y-123418177D01*
X102289631Y-123653225D01*
X102181450Y-123914397D01*
X102126300Y-124191655D01*
X102126300Y-124474345D01*
X102181450Y-124751603D01*
X102289631Y-125012775D01*
X102446685Y-125247823D01*
X102617867Y-125419005D01*
X94952245Y-125419997D01*
X94466106Y-125372330D01*
X94029503Y-125240512D01*
X93626814Y-125026399D01*
X93273387Y-124738150D01*
X92982673Y-124386739D01*
X92765760Y-123985564D01*
X92630894Y-123549886D01*
X92580002Y-123065680D01*
X92580557Y-119661682D01*
X94565000Y-119661682D01*
X94565000Y-120338318D01*
X94697006Y-121001952D01*
X94955943Y-121627082D01*
X95331862Y-122189685D01*
X95810315Y-122668138D01*
X96372918Y-123044057D01*
X96998048Y-123302994D01*
X97661682Y-123435000D01*
X98338318Y-123435000D01*
X99001952Y-123302994D01*
X99627082Y-123044057D01*
X100189685Y-122668138D01*
X100668138Y-122189685D01*
X101044057Y-121627082D01*
X101302994Y-121001952D01*
X101416792Y-120429852D01*
X104094800Y-120429852D01*
X104094800Y-120870148D01*
X104180698Y-121301984D01*
X104349192Y-121708764D01*
X104593807Y-122074857D01*
X104905143Y-122386193D01*
X105271236Y-122630808D01*
X105678016Y-122799302D01*
X106109852Y-122885200D01*
X106550148Y-122885200D01*
X106981984Y-122799302D01*
X107388764Y-122630808D01*
X107754857Y-122386193D01*
X108066193Y-122074857D01*
X108310808Y-121708764D01*
X108479302Y-121301984D01*
X108565200Y-120870148D01*
X108565200Y-120429852D01*
X157434800Y-120429852D01*
X157434800Y-120870148D01*
X157520698Y-121301984D01*
X157689192Y-121708764D01*
X157933807Y-122074857D01*
X158245143Y-122386193D01*
X158611236Y-122630808D01*
X159018016Y-122799302D01*
X159449852Y-122885200D01*
X159890148Y-122885200D01*
X160321984Y-122799302D01*
X160728764Y-122630808D01*
X161094857Y-122386193D01*
X161406193Y-122074857D01*
X161650808Y-121708764D01*
X161819302Y-121301984D01*
X161905200Y-120870148D01*
X161905200Y-120429852D01*
X161819302Y-119998016D01*
X161679988Y-119661682D01*
X164565000Y-119661682D01*
X164565000Y-120338318D01*
X164697006Y-121001952D01*
X164955943Y-121627082D01*
X165331862Y-122189685D01*
X165810315Y-122668138D01*
X166372918Y-123044057D01*
X166998048Y-123302994D01*
X167661682Y-123435000D01*
X168338318Y-123435000D01*
X169001952Y-123302994D01*
X169627082Y-123044057D01*
X170189685Y-122668138D01*
X170668138Y-122189685D01*
X171044057Y-121627082D01*
X171302994Y-121001952D01*
X171435000Y-120338318D01*
X171435000Y-119661682D01*
X171302994Y-118998048D01*
X171044057Y-118372918D01*
X170668138Y-117810315D01*
X170189685Y-117331862D01*
X169627082Y-116955943D01*
X169001952Y-116697006D01*
X168338318Y-116565000D01*
X167661682Y-116565000D01*
X166998048Y-116697006D01*
X166372918Y-116955943D01*
X165810315Y-117331862D01*
X165331862Y-117810315D01*
X164955943Y-118372918D01*
X164697006Y-118998048D01*
X164565000Y-119661682D01*
X161679988Y-119661682D01*
X161650808Y-119591236D01*
X161406193Y-119225143D01*
X161094857Y-118913807D01*
X160728764Y-118669192D01*
X160321984Y-118500698D01*
X159890148Y-118414800D01*
X159449852Y-118414800D01*
X159018016Y-118500698D01*
X158611236Y-118669192D01*
X158245143Y-118913807D01*
X157933807Y-119225143D01*
X157689192Y-119591236D01*
X157520698Y-119998016D01*
X157434800Y-120429852D01*
X108565200Y-120429852D01*
X108479302Y-119998016D01*
X108310808Y-119591236D01*
X108066193Y-119225143D01*
X107754857Y-118913807D01*
X107388764Y-118669192D01*
X106981984Y-118500698D01*
X106550148Y-118414800D01*
X106109852Y-118414800D01*
X105678016Y-118500698D01*
X105271236Y-118669192D01*
X104905143Y-118913807D01*
X104593807Y-119225143D01*
X104349192Y-119591236D01*
X104180698Y-119998016D01*
X104094800Y-120429852D01*
X101416792Y-120429852D01*
X101435000Y-120338318D01*
X101435000Y-119661682D01*
X101302994Y-118998048D01*
X101044057Y-118372918D01*
X100668138Y-117810315D01*
X100189685Y-117331862D01*
X99627082Y-116955943D01*
X99001952Y-116697006D01*
X98338318Y-116565000D01*
X97661682Y-116565000D01*
X96998048Y-116697006D01*
X96372918Y-116955943D01*
X95810315Y-117331862D01*
X95331862Y-117810315D01*
X94955943Y-118372918D01*
X94697006Y-118998048D01*
X94565000Y-119661682D01*
X92580557Y-119661682D01*
X92586630Y-82464011D01*
X96111192Y-82464011D01*
X96114990Y-82502574D01*
X96114989Y-105113218D01*
X96111192Y-105151771D01*
X96114989Y-105190324D01*
X96114989Y-105190331D01*
X96126348Y-105305657D01*
X96171235Y-105453630D01*
X96244127Y-105590003D01*
X96342225Y-105709535D01*
X96372179Y-105734118D01*
X107845871Y-117207810D01*
X107870454Y-117237764D01*
X107989985Y-117335862D01*
X108126358Y-117408754D01*
X108274331Y-117453642D01*
X108349244Y-117461020D01*
X108389657Y-117465000D01*
X108389662Y-117465000D01*
X108428218Y-117468797D01*
X108466774Y-117465000D01*
X112021289Y-117465000D01*
X112040226Y-117483937D01*
X112209744Y-117597205D01*
X112398102Y-117675226D01*
X112598061Y-117715000D01*
X112801939Y-117715000D01*
X113001898Y-117675226D01*
X113190256Y-117597205D01*
X113359774Y-117483937D01*
X113503937Y-117339774D01*
X113617205Y-117170256D01*
X113695226Y-116981898D01*
X113735000Y-116781939D01*
X113735000Y-116578061D01*
X113695226Y-116378102D01*
X113617205Y-116189744D01*
X113503937Y-116020226D01*
X113440000Y-115956289D01*
X113440000Y-115395971D01*
X113530057Y-115335797D01*
X113715797Y-115150057D01*
X113861732Y-114931649D01*
X113950000Y-114718552D01*
X114038268Y-114931649D01*
X114184203Y-115150057D01*
X114369943Y-115335797D01*
X114588351Y-115481732D01*
X114831032Y-115582254D01*
X115088662Y-115633500D01*
X115351338Y-115633500D01*
X115608968Y-115582254D01*
X115851649Y-115481732D01*
X116070057Y-115335797D01*
X116255797Y-115150057D01*
X116401732Y-114931649D01*
X116502254Y-114688968D01*
X116553500Y-114431338D01*
X116553500Y-114168662D01*
X116502254Y-113911032D01*
X116401732Y-113668351D01*
X116255797Y-113449943D01*
X116070057Y-113264203D01*
X115980000Y-113204029D01*
X115980000Y-112992121D01*
X116101032Y-113042254D01*
X116358662Y-113093500D01*
X116621338Y-113093500D01*
X116878968Y-113042254D01*
X117121649Y-112941732D01*
X117340057Y-112795797D01*
X117525797Y-112610057D01*
X117671732Y-112391649D01*
X117772254Y-112148968D01*
X117823500Y-111891338D01*
X117823500Y-111628662D01*
X117772254Y-111371032D01*
X117671732Y-111128351D01*
X117525797Y-110909943D01*
X117340057Y-110724203D01*
X117250000Y-110664029D01*
X117250000Y-110348655D01*
X117594900Y-110348655D01*
X117594900Y-110631345D01*
X117650050Y-110908603D01*
X117758231Y-111169775D01*
X117915285Y-111404823D01*
X118115177Y-111604715D01*
X118350225Y-111761769D01*
X118611397Y-111869950D01*
X118888655Y-111925100D01*
X119171345Y-111925100D01*
X119448603Y-111869950D01*
X119709775Y-111761769D01*
X119944823Y-111604715D01*
X120144715Y-111404823D01*
X120301769Y-111169775D01*
X120409950Y-110908603D01*
X120465100Y-110631345D01*
X120465100Y-110348655D01*
X120409950Y-110071397D01*
X120301769Y-109810225D01*
X120144715Y-109575177D01*
X119944823Y-109375285D01*
X119709775Y-109218231D01*
X119448603Y-109110050D01*
X119171345Y-109054900D01*
X118888655Y-109054900D01*
X118611397Y-109110050D01*
X118350225Y-109218231D01*
X118115177Y-109375285D01*
X117915285Y-109575177D01*
X117758231Y-109810225D01*
X117650050Y-110071397D01*
X117594900Y-110348655D01*
X117250000Y-110348655D01*
X117250000Y-108951799D01*
X120810001Y-105391799D01*
X120810000Y-113204029D01*
X120719943Y-113264203D01*
X120534203Y-113449943D01*
X120388268Y-113668351D01*
X120287746Y-113911032D01*
X120236500Y-114168662D01*
X120236500Y-114431338D01*
X120287746Y-114688968D01*
X120388268Y-114931649D01*
X120534203Y-115150057D01*
X120719943Y-115335797D01*
X120938351Y-115481732D01*
X121181032Y-115582254D01*
X121438662Y-115633500D01*
X121701338Y-115633500D01*
X121958968Y-115582254D01*
X122201649Y-115481732D01*
X122420057Y-115335797D01*
X122605797Y-115150057D01*
X122751732Y-114931649D01*
X122840000Y-114718552D01*
X122928268Y-114931649D01*
X123074203Y-115150057D01*
X123259943Y-115335797D01*
X123478351Y-115481732D01*
X123721032Y-115582254D01*
X123978662Y-115633500D01*
X124241338Y-115633500D01*
X124498968Y-115582254D01*
X124741649Y-115481732D01*
X124960057Y-115335797D01*
X125145797Y-115150057D01*
X125291732Y-114931649D01*
X125380000Y-114718552D01*
X125468268Y-114931649D01*
X125614203Y-115150057D01*
X125799943Y-115335797D01*
X126018351Y-115481732D01*
X126261032Y-115582254D01*
X126518662Y-115633500D01*
X126781338Y-115633500D01*
X127038968Y-115582254D01*
X127281649Y-115481732D01*
X127500057Y-115335797D01*
X127685797Y-115150057D01*
X127831732Y-114931649D01*
X127920000Y-114718552D01*
X128008268Y-114931649D01*
X128154203Y-115150057D01*
X128339943Y-115335797D01*
X128558351Y-115481732D01*
X128801032Y-115582254D01*
X129058662Y-115633500D01*
X129321338Y-115633500D01*
X129578968Y-115582254D01*
X129821649Y-115481732D01*
X130040057Y-115335797D01*
X130225797Y-115150057D01*
X130371732Y-114931649D01*
X130472254Y-114688968D01*
X130523500Y-114431338D01*
X130523500Y-114168662D01*
X130472254Y-113911032D01*
X130371732Y-113668351D01*
X130225797Y-113449943D01*
X130040057Y-113264203D01*
X129950000Y-113204029D01*
X129950000Y-112992121D01*
X130071032Y-113042254D01*
X130328662Y-113093500D01*
X130591338Y-113093500D01*
X130848968Y-113042254D01*
X131091649Y-112941732D01*
X131310057Y-112795797D01*
X131495797Y-112610057D01*
X131641732Y-112391649D01*
X131742254Y-112148968D01*
X131793500Y-111891338D01*
X131793500Y-111628662D01*
X131742254Y-111371032D01*
X131641732Y-111128351D01*
X131495797Y-110909943D01*
X131446414Y-110860560D01*
X131583271Y-110723702D01*
X131620050Y-110908603D01*
X131728231Y-111169775D01*
X131885285Y-111404823D01*
X132085177Y-111604715D01*
X132320225Y-111761769D01*
X132581397Y-111869950D01*
X132858655Y-111925100D01*
X133141345Y-111925100D01*
X133418603Y-111869950D01*
X133679775Y-111761769D01*
X133914823Y-111604715D01*
X134114715Y-111404823D01*
X134271769Y-111169775D01*
X134379950Y-110908603D01*
X134435100Y-110631345D01*
X134435100Y-110348655D01*
X134379950Y-110071397D01*
X134271769Y-109810225D01*
X134114715Y-109575177D01*
X133914823Y-109375285D01*
X133679775Y-109218231D01*
X133418603Y-109110050D01*
X133233702Y-109073271D01*
X142941004Y-99365970D01*
X142970001Y-99342173D01*
X143064974Y-99226448D01*
X143135546Y-99094419D01*
X143179003Y-98951158D01*
X143190000Y-98839505D01*
X143190000Y-98839496D01*
X143193676Y-98802173D01*
X143190000Y-98764850D01*
X143190000Y-84578438D01*
X143461505Y-84578438D01*
X143500605Y-84818549D01*
X143580451Y-85032117D01*
X143569463Y-85045506D01*
X143510498Y-85155820D01*
X143474188Y-85275518D01*
X143461928Y-85400000D01*
X143461928Y-86600000D01*
X143474188Y-86724482D01*
X143510498Y-86844180D01*
X143569463Y-86954494D01*
X143648815Y-87051185D01*
X143745506Y-87130537D01*
X143855820Y-87189502D01*
X143975518Y-87225812D01*
X144100000Y-87238072D01*
X145300000Y-87238072D01*
X145424482Y-87225812D01*
X145544180Y-87189502D01*
X145654494Y-87130537D01*
X145751185Y-87051185D01*
X145830537Y-86954494D01*
X145889502Y-86844180D01*
X145925812Y-86724482D01*
X145938072Y-86600000D01*
X145938072Y-85400000D01*
X145925812Y-85275518D01*
X145889502Y-85155820D01*
X145830537Y-85045506D01*
X145816432Y-85028319D01*
X145874237Y-84901484D01*
X145930000Y-84664687D01*
X145938495Y-84421562D01*
X145899395Y-84181451D01*
X145814202Y-83953582D01*
X145773348Y-83877148D01*
X145549764Y-83829841D01*
X144879605Y-84500000D01*
X144893748Y-84514143D01*
X144714143Y-84693748D01*
X144700000Y-84679605D01*
X144685858Y-84693748D01*
X144506253Y-84514143D01*
X144520395Y-84500000D01*
X143850236Y-83829841D01*
X143626652Y-83877148D01*
X143525763Y-84098516D01*
X143470000Y-84335313D01*
X143461505Y-84578438D01*
X143190000Y-84578438D01*
X143190000Y-83650236D01*
X144029841Y-83650236D01*
X144700000Y-84320395D01*
X145370159Y-83650236D01*
X145322852Y-83426652D01*
X145101484Y-83325763D01*
X144864687Y-83270000D01*
X144621562Y-83261505D01*
X144381451Y-83300605D01*
X144153582Y-83385798D01*
X144077148Y-83426652D01*
X144029841Y-83650236D01*
X143190000Y-83650236D01*
X143190000Y-81005604D01*
X143388061Y-81045000D01*
X143591939Y-81045000D01*
X143791898Y-81005226D01*
X143980256Y-80927205D01*
X144028454Y-80895000D01*
X145296512Y-80895000D01*
X145329744Y-80917205D01*
X145518102Y-80995226D01*
X145718061Y-81035000D01*
X145921939Y-81035000D01*
X146121898Y-80995226D01*
X146310256Y-80917205D01*
X146479774Y-80803937D01*
X146623937Y-80659774D01*
X146737205Y-80490256D01*
X146815226Y-80301898D01*
X146855000Y-80101939D01*
X146855000Y-79898061D01*
X146815226Y-79698102D01*
X146737205Y-79509744D01*
X146623937Y-79340226D01*
X146479774Y-79196063D01*
X146310256Y-79082795D01*
X146121898Y-79004774D01*
X145921939Y-78965000D01*
X145718061Y-78965000D01*
X145518102Y-79004774D01*
X145329744Y-79082795D01*
X145266580Y-79125000D01*
X144028454Y-79125000D01*
X143980256Y-79092795D01*
X143791898Y-79014774D01*
X143591939Y-78975000D01*
X143388061Y-78975000D01*
X143190000Y-79014396D01*
X143190000Y-69318178D01*
X143376632Y-69193475D01*
X143583475Y-68986632D01*
X143700000Y-68812240D01*
X143816525Y-68986632D01*
X144023368Y-69193475D01*
X144266589Y-69355990D01*
X144536842Y-69467932D01*
X144823740Y-69525000D01*
X145116260Y-69525000D01*
X145336408Y-69481209D01*
X147749707Y-71894509D01*
X147698102Y-71904774D01*
X147509744Y-71982795D01*
X147500000Y-71989306D01*
X147490256Y-71982795D01*
X147301898Y-71904774D01*
X147101939Y-71865000D01*
X146898061Y-71865000D01*
X146698102Y-71904774D01*
X146509744Y-71982795D01*
X146502483Y-71987647D01*
X146480256Y-71972795D01*
X146291898Y-71894774D01*
X146091939Y-71855000D01*
X145888061Y-71855000D01*
X145688102Y-71894774D01*
X145499744Y-71972795D01*
X145330226Y-72086063D01*
X145186063Y-72230226D01*
X145072795Y-72399744D01*
X144994774Y-72588102D01*
X144955000Y-72788061D01*
X144955000Y-72991939D01*
X144994774Y-73191898D01*
X145072795Y-73380256D01*
X145186063Y-73549774D01*
X145330226Y-73693937D01*
X145499744Y-73807205D01*
X145688102Y-73885226D01*
X145874498Y-73922302D01*
X145888997Y-73936801D01*
X145905742Y-73950543D01*
X146939961Y-74984763D01*
X146939960Y-103712418D01*
X146535000Y-104117378D01*
X146535000Y-103998061D01*
X146495226Y-103798102D01*
X146417205Y-103609744D01*
X146303937Y-103440226D01*
X146159774Y-103296063D01*
X145990256Y-103182795D01*
X145801898Y-103104774D01*
X145601939Y-103065000D01*
X145398061Y-103065000D01*
X145198102Y-103104774D01*
X145009744Y-103182795D01*
X144840226Y-103296063D01*
X144821289Y-103315000D01*
X144508556Y-103315000D01*
X144470000Y-103311203D01*
X144431444Y-103315000D01*
X144431439Y-103315000D01*
X144391026Y-103318980D01*
X144316113Y-103326358D01*
X144168140Y-103371246D01*
X144031767Y-103444138D01*
X143912236Y-103542236D01*
X143887653Y-103572190D01*
X137018078Y-110441765D01*
X136941338Y-110426500D01*
X136678662Y-110426500D01*
X136421032Y-110477746D01*
X136178351Y-110578268D01*
X135959943Y-110724203D01*
X135774203Y-110909943D01*
X135628268Y-111128351D01*
X135527746Y-111371032D01*
X135476500Y-111628662D01*
X135476500Y-111891338D01*
X135527746Y-112148968D01*
X135628268Y-112391649D01*
X135774203Y-112610057D01*
X135959943Y-112795797D01*
X136178351Y-112941732D01*
X136421032Y-113042254D01*
X136633212Y-113084459D01*
X136421763Y-113295909D01*
X136390057Y-113264203D01*
X136171649Y-113118268D01*
X135928968Y-113017746D01*
X135671338Y-112966500D01*
X135408662Y-112966500D01*
X135151032Y-113017746D01*
X134908351Y-113118268D01*
X134689943Y-113264203D01*
X134504203Y-113449943D01*
X134358268Y-113668351D01*
X134257746Y-113911032D01*
X134206500Y-114168662D01*
X134206500Y-114431338D01*
X134257746Y-114688968D01*
X134358268Y-114931649D01*
X134504203Y-115150057D01*
X134689943Y-115335797D01*
X134908351Y-115481732D01*
X135151032Y-115582254D01*
X135408662Y-115633500D01*
X135671338Y-115633500D01*
X135928968Y-115582254D01*
X136171649Y-115481732D01*
X136390057Y-115335797D01*
X136575797Y-115150057D01*
X136622992Y-115079425D01*
X136681715Y-115073641D01*
X136829688Y-115028754D01*
X136928029Y-114976190D01*
X137044203Y-115150057D01*
X137229943Y-115335797D01*
X137448351Y-115481732D01*
X137691032Y-115582254D01*
X137948662Y-115633500D01*
X138211338Y-115633500D01*
X138468968Y-115582254D01*
X138711649Y-115481732D01*
X138930057Y-115335797D01*
X138945526Y-115320328D01*
X139459701Y-115834503D01*
X139483500Y-115863502D01*
X139599225Y-115958475D01*
X139731254Y-116029047D01*
X139874515Y-116072504D01*
X139986168Y-116083501D01*
X139986177Y-116083501D01*
X140023500Y-116087177D01*
X140060823Y-116083501D01*
X157583959Y-116083501D01*
X157621281Y-116087177D01*
X157658603Y-116083501D01*
X157658614Y-116083501D01*
X157770267Y-116072504D01*
X157913528Y-116029047D01*
X158045557Y-115958475D01*
X158161282Y-115863502D01*
X158185085Y-115834498D01*
X159934504Y-114085080D01*
X159963502Y-114061282D01*
X160007432Y-114007753D01*
X160058475Y-113945558D01*
X160129047Y-113813528D01*
X160141587Y-113772188D01*
X160172504Y-113670267D01*
X160183501Y-113558614D01*
X160183501Y-113558604D01*
X160187177Y-113521281D01*
X160183501Y-113483958D01*
X160183501Y-98891758D01*
X160204494Y-98880537D01*
X160301185Y-98801185D01*
X160380537Y-98704494D01*
X160439502Y-98594180D01*
X160461513Y-98521620D01*
X160593368Y-98653475D01*
X160836589Y-98815990D01*
X161106842Y-98927932D01*
X161393740Y-98985000D01*
X161686260Y-98985000D01*
X161973158Y-98927932D01*
X162243411Y-98815990D01*
X162486632Y-98653475D01*
X162693475Y-98446632D01*
X162855990Y-98203411D01*
X162967932Y-97933158D01*
X163025000Y-97646260D01*
X163025000Y-97353740D01*
X162967932Y-97066842D01*
X162855990Y-96796589D01*
X162693475Y-96553368D01*
X162486632Y-96346525D01*
X162312240Y-96230000D01*
X162486632Y-96113475D01*
X162693475Y-95906632D01*
X162855990Y-95663411D01*
X162967932Y-95393158D01*
X163025000Y-95106260D01*
X163025000Y-94962803D01*
X169086004Y-88901800D01*
X169115002Y-88878002D01*
X169209975Y-88762277D01*
X169280547Y-88630248D01*
X169324004Y-88486987D01*
X169335001Y-88375334D01*
X169335001Y-88375326D01*
X169338677Y-88338001D01*
X169335001Y-88300676D01*
X169335001Y-81332323D01*
X169338677Y-81295000D01*
X169335001Y-81257677D01*
X169335001Y-81257668D01*
X169324004Y-81146015D01*
X169280547Y-81002754D01*
X169209975Y-80870725D01*
X169115002Y-80755000D01*
X169086005Y-80731203D01*
X168987479Y-80632678D01*
X169645158Y-79975000D01*
X169671939Y-79975000D01*
X169871898Y-79935226D01*
X170060256Y-79857205D01*
X170229774Y-79743937D01*
X170373937Y-79599774D01*
X170487205Y-79430256D01*
X170565226Y-79241898D01*
X170605000Y-79041939D01*
X170605000Y-78838061D01*
X170565226Y-78638102D01*
X170487205Y-78449744D01*
X170373937Y-78280226D01*
X170229774Y-78136063D01*
X170060256Y-78022795D01*
X169871898Y-77944774D01*
X169671939Y-77905000D01*
X169468061Y-77905000D01*
X169268102Y-77944774D01*
X169079744Y-78022795D01*
X168910226Y-78136063D01*
X168766063Y-78280226D01*
X168652795Y-78449744D01*
X168574774Y-78638102D01*
X168535000Y-78838061D01*
X168535000Y-78864842D01*
X168389975Y-79009868D01*
X168346632Y-78966525D01*
X168172240Y-78850000D01*
X168346632Y-78733475D01*
X168553475Y-78526632D01*
X168715990Y-78283411D01*
X168827932Y-78013158D01*
X168885000Y-77726260D01*
X168885000Y-77433740D01*
X168827932Y-77146842D01*
X168715990Y-76876589D01*
X168553475Y-76633368D01*
X168346632Y-76426525D01*
X168185000Y-76318526D01*
X168185000Y-73631432D01*
X168188797Y-73592879D01*
X168185000Y-73554326D01*
X168185000Y-73554319D01*
X168173641Y-73438993D01*
X168128754Y-73291020D01*
X168055862Y-73154647D01*
X167992757Y-73077754D01*
X167982345Y-73065067D01*
X167982342Y-73065064D01*
X167957764Y-73035116D01*
X167927816Y-73010538D01*
X159578960Y-64661682D01*
X164565000Y-64661682D01*
X164565000Y-65338318D01*
X164697006Y-66001952D01*
X164955943Y-66627082D01*
X165331862Y-67189685D01*
X165810315Y-67668138D01*
X166372918Y-68044057D01*
X166998048Y-68302994D01*
X167661682Y-68435000D01*
X168338318Y-68435000D01*
X169001952Y-68302994D01*
X169627082Y-68044057D01*
X170189685Y-67668138D01*
X170668138Y-67189685D01*
X171044057Y-66627082D01*
X171302994Y-66001952D01*
X171435000Y-65338318D01*
X171435000Y-64661682D01*
X171302994Y-63998048D01*
X171044057Y-63372918D01*
X170668138Y-62810315D01*
X170189685Y-62331862D01*
X169627082Y-61955943D01*
X169001952Y-61697006D01*
X168338318Y-61565000D01*
X167661682Y-61565000D01*
X166998048Y-61697006D01*
X166372918Y-61955943D01*
X165810315Y-62331862D01*
X165331862Y-62810315D01*
X164955943Y-63372918D01*
X164697006Y-63998048D01*
X164565000Y-64661682D01*
X159578960Y-64661682D01*
X155129457Y-60212180D01*
X155104874Y-60182226D01*
X154985343Y-60084128D01*
X154848970Y-60011236D01*
X154700997Y-59966349D01*
X154585671Y-59954990D01*
X154585663Y-59954990D01*
X154547110Y-59951193D01*
X154508557Y-59954990D01*
X132207448Y-59954990D01*
X132168892Y-59951193D01*
X132130337Y-59954990D01*
X131678562Y-59954990D01*
X131640009Y-59951193D01*
X131601456Y-59954990D01*
X131601449Y-59954990D01*
X131500500Y-59964933D01*
X131486122Y-59966349D01*
X131352619Y-60006847D01*
X131338150Y-60011236D01*
X131201777Y-60084128D01*
X131150832Y-60125938D01*
X131112197Y-60157645D01*
X131112194Y-60157648D01*
X131082246Y-60182226D01*
X131057668Y-60212174D01*
X125414844Y-65854999D01*
X125388062Y-65854999D01*
X125238072Y-65884834D01*
X125238072Y-64950000D01*
X125221008Y-64776746D01*
X125170472Y-64610150D01*
X125088405Y-64456614D01*
X124977962Y-64322038D01*
X124843386Y-64211595D01*
X124689850Y-64129528D01*
X124635000Y-64112890D01*
X124635000Y-62803420D01*
X124677205Y-62740256D01*
X124755226Y-62551898D01*
X124795000Y-62351939D01*
X124795000Y-62148061D01*
X124755226Y-61948102D01*
X124677205Y-61759744D01*
X124563937Y-61590226D01*
X124419774Y-61446063D01*
X124250256Y-61332795D01*
X124061898Y-61254774D01*
X123861939Y-61215000D01*
X123658061Y-61215000D01*
X123458102Y-61254774D01*
X123269744Y-61332795D01*
X123100226Y-61446063D01*
X122956063Y-61590226D01*
X122842795Y-61759744D01*
X122764774Y-61948102D01*
X122725000Y-62148061D01*
X122725000Y-62351939D01*
X122764774Y-62551898D01*
X122842795Y-62740256D01*
X122865001Y-62773489D01*
X122865000Y-64112889D01*
X122810150Y-64129528D01*
X122722525Y-64176365D01*
X121368328Y-62822169D01*
X121343745Y-62792215D01*
X121224214Y-62694117D01*
X121087841Y-62621225D01*
X120939868Y-62576338D01*
X120824542Y-62564979D01*
X120824534Y-62564979D01*
X120785981Y-62561182D01*
X120747428Y-62564979D01*
X110778573Y-62564979D01*
X110740020Y-62561182D01*
X110701467Y-62564979D01*
X110701460Y-62564979D01*
X110586134Y-62576338D01*
X110438161Y-62621225D01*
X110301788Y-62694117D01*
X110245568Y-62740256D01*
X110212208Y-62767634D01*
X110212205Y-62767637D01*
X110182257Y-62792215D01*
X110157679Y-62822163D01*
X96872184Y-76107659D01*
X96842236Y-76132237D01*
X96817658Y-76162185D01*
X96817654Y-76162189D01*
X96789390Y-76196629D01*
X96744138Y-76251768D01*
X96706316Y-76322528D01*
X96671245Y-76388142D01*
X96626358Y-76536115D01*
X96611202Y-76690001D01*
X96615000Y-76728564D01*
X96614999Y-80677448D01*
X96611202Y-80716001D01*
X96614999Y-80754554D01*
X96614999Y-80754561D01*
X96626358Y-80869887D01*
X96671245Y-81017860D01*
X96744137Y-81154233D01*
X96842235Y-81273765D01*
X96872188Y-81298347D01*
X96913842Y-81340001D01*
X96372174Y-81881669D01*
X96342226Y-81906247D01*
X96317648Y-81936195D01*
X96317644Y-81936199D01*
X96295649Y-81963000D01*
X96244128Y-82025778D01*
X96216400Y-82077655D01*
X96171235Y-82162152D01*
X96126348Y-82310125D01*
X96111192Y-82464011D01*
X92586630Y-82464011D01*
X92589537Y-64661682D01*
X94565000Y-64661682D01*
X94565000Y-65338318D01*
X94697006Y-66001952D01*
X94955943Y-66627082D01*
X95331862Y-67189685D01*
X95810315Y-67668138D01*
X96372918Y-68044057D01*
X96998048Y-68302994D01*
X97661682Y-68435000D01*
X98338318Y-68435000D01*
X99001952Y-68302994D01*
X99627082Y-68044057D01*
X100189685Y-67668138D01*
X100668138Y-67189685D01*
X101044057Y-66627082D01*
X101302994Y-66001952D01*
X101435000Y-65338318D01*
X101435000Y-64661682D01*
X101302994Y-63998048D01*
X101044057Y-63372918D01*
X100668138Y-62810315D01*
X100189685Y-62331862D01*
X99627082Y-61955943D01*
X99001952Y-61697006D01*
X98338318Y-61565000D01*
X97661682Y-61565000D01*
X96998048Y-61697006D01*
X96372918Y-61955943D01*
X95810315Y-62331862D01*
X95331862Y-62810315D01*
X94955943Y-63372918D01*
X94697006Y-63998048D01*
X94565000Y-64661682D01*
X92589537Y-64661682D01*
X92589978Y-61962336D01*
X92637654Y-61476104D01*
X92769474Y-61039496D01*
X92983587Y-60636805D01*
X93271838Y-60283375D01*
X93623251Y-59992662D01*
X94024432Y-59775744D01*
X94460114Y-59640878D01*
X94944362Y-59589981D01*
X171037766Y-59578938D01*
X171524100Y-59626624D01*
G37*
%TD.AperFunction*%
D25*
X103208790Y-94593593D02*
X103165000Y-94813740D01*
X103165000Y-95106260D01*
X103222068Y-95393158D01*
X103334010Y-95663411D01*
X103496525Y-95906632D01*
X103628380Y-96038487D01*
X103555820Y-96060498D01*
X103445506Y-96119463D01*
X103348815Y-96198815D01*
X103269463Y-96295506D01*
X103210498Y-96405820D01*
X103174188Y-96525518D01*
X103161928Y-96650000D01*
X103161928Y-98350000D01*
X103174188Y-98474482D01*
X103210498Y-98594180D01*
X103269463Y-98704494D01*
X103348815Y-98801185D01*
X103445506Y-98880537D01*
X103555820Y-98939502D01*
X103675518Y-98975812D01*
X103800000Y-98988072D01*
X105063271Y-98988072D01*
X110650000Y-104574802D01*
X110650001Y-110664028D01*
X110559943Y-110724203D01*
X110374203Y-110909943D01*
X110228268Y-111128351D01*
X110140000Y-111341448D01*
X110051732Y-111128351D01*
X109905797Y-110909943D01*
X109720057Y-110724203D01*
X109501649Y-110578268D01*
X109258968Y-110477746D01*
X109001338Y-110426500D01*
X108738662Y-110426500D01*
X108481032Y-110477746D01*
X108238351Y-110578268D01*
X108019943Y-110724203D01*
X107834203Y-110909943D01*
X107688268Y-111128351D01*
X107587746Y-111371032D01*
X107536500Y-111628662D01*
X107536500Y-111891338D01*
X107587746Y-112148968D01*
X107688268Y-112391649D01*
X107834203Y-112610057D01*
X108019943Y-112795797D01*
X108238351Y-112941732D01*
X108481032Y-113042254D01*
X108738662Y-113093500D01*
X109001338Y-113093500D01*
X109258968Y-113042254D01*
X109501649Y-112941732D01*
X109720057Y-112795797D01*
X109905797Y-112610057D01*
X110051732Y-112391649D01*
X110140000Y-112178552D01*
X110228268Y-112391649D01*
X110374203Y-112610057D01*
X110559943Y-112795797D01*
X110778351Y-112941732D01*
X111021032Y-113042254D01*
X111278662Y-113093500D01*
X111541338Y-113093500D01*
X111798968Y-113042254D01*
X112041649Y-112941732D01*
X112260057Y-112795797D01*
X112445797Y-112610057D01*
X112591732Y-112391649D01*
X112680000Y-112178552D01*
X112768268Y-112391649D01*
X112914203Y-112610057D01*
X113099943Y-112795797D01*
X113318351Y-112941732D01*
X113561032Y-113042254D01*
X113818662Y-113093500D01*
X114081338Y-113093500D01*
X114338968Y-113042254D01*
X114460000Y-112992121D01*
X114460000Y-113204029D01*
X114369943Y-113264203D01*
X114184203Y-113449943D01*
X114038268Y-113668351D01*
X113950000Y-113881448D01*
X113861732Y-113668351D01*
X113715797Y-113449943D01*
X113530057Y-113264203D01*
X113311649Y-113118268D01*
X113068968Y-113017746D01*
X112811338Y-112966500D01*
X112548662Y-112966500D01*
X112291032Y-113017746D01*
X112048351Y-113118268D01*
X111829943Y-113264203D01*
X111644203Y-113449943D01*
X111498268Y-113668351D01*
X111410000Y-113881448D01*
X111321732Y-113668351D01*
X111175797Y-113449943D01*
X110990057Y-113264203D01*
X110771649Y-113118268D01*
X110528968Y-113017746D01*
X110271338Y-112966500D01*
X110008662Y-112966500D01*
X109751032Y-113017746D01*
X109508351Y-113118268D01*
X109289943Y-113264203D01*
X109104203Y-113449943D01*
X108958268Y-113668351D01*
X108870000Y-113881448D01*
X108781732Y-113668351D01*
X108635797Y-113449943D01*
X108450057Y-113264203D01*
X108231649Y-113118268D01*
X107988968Y-113017746D01*
X107731338Y-112966500D01*
X107468662Y-112966500D01*
X107211032Y-113017746D01*
X106968351Y-113118268D01*
X106749943Y-113264203D01*
X106564203Y-113449943D01*
X106461710Y-113603335D01*
X98258375Y-105400000D01*
X102761928Y-105400000D01*
X102774188Y-105524482D01*
X102810498Y-105644180D01*
X102869463Y-105754494D01*
X102948815Y-105851185D01*
X103045506Y-105930537D01*
X103155820Y-105989502D01*
X103275518Y-106025812D01*
X103400000Y-106038072D01*
X104014250Y-106035000D01*
X104173000Y-105876250D01*
X104173000Y-104627000D01*
X102923750Y-104627000D01*
X102765000Y-104785750D01*
X102761928Y-105400000D01*
X98258375Y-105400000D01*
X97739917Y-104881542D01*
X98008665Y-104935000D01*
X98291335Y-104935000D01*
X98568574Y-104879853D01*
X98829727Y-104771680D01*
X99064759Y-104614637D01*
X99264637Y-104414759D01*
X99421680Y-104179727D01*
X99529853Y-103918574D01*
X99585000Y-103641335D01*
X99585000Y-103600000D01*
X102761928Y-103600000D01*
X102765000Y-104214250D01*
X102923750Y-104373000D01*
X104173000Y-104373000D01*
X104173000Y-103123750D01*
X104427000Y-103123750D01*
X104427000Y-104373000D01*
X104447000Y-104373000D01*
X104447000Y-104627000D01*
X104427000Y-104627000D01*
X104427000Y-105876250D01*
X104585750Y-106035000D01*
X105200000Y-106038072D01*
X105324482Y-106025812D01*
X105444180Y-105989502D01*
X105554494Y-105930537D01*
X105651185Y-105851185D01*
X105730537Y-105754494D01*
X105789502Y-105644180D01*
X105795056Y-105625873D01*
X105861495Y-105692312D01*
X106112905Y-105860299D01*
X106392257Y-105976011D01*
X106688816Y-106035000D01*
X106991184Y-106035000D01*
X107287743Y-105976011D01*
X107567095Y-105860299D01*
X107818505Y-105692312D01*
X108032312Y-105478505D01*
X108200299Y-105227095D01*
X108316011Y-104947743D01*
X108375000Y-104651184D01*
X108375000Y-104348816D01*
X108316011Y-104052257D01*
X108200299Y-103772905D01*
X108032312Y-103521495D01*
X107818505Y-103307688D01*
X107567095Y-103139701D01*
X107287743Y-103023989D01*
X106991184Y-102965000D01*
X106688816Y-102965000D01*
X106392257Y-103023989D01*
X106112905Y-103139701D01*
X105861495Y-103307688D01*
X105795056Y-103374127D01*
X105789502Y-103355820D01*
X105730537Y-103245506D01*
X105651185Y-103148815D01*
X105554494Y-103069463D01*
X105444180Y-103010498D01*
X105324482Y-102974188D01*
X105200000Y-102961928D01*
X104585750Y-102965000D01*
X104427000Y-103123750D01*
X104173000Y-103123750D01*
X104014250Y-102965000D01*
X103400000Y-102961928D01*
X103275518Y-102974188D01*
X103155820Y-103010498D01*
X103045506Y-103069463D01*
X102948815Y-103148815D01*
X102869463Y-103245506D01*
X102810498Y-103355820D01*
X102774188Y-103475518D01*
X102761928Y-103600000D01*
X99585000Y-103600000D01*
X99585000Y-103358665D01*
X99529853Y-103081426D01*
X99421680Y-102820273D01*
X99264637Y-102585241D01*
X99064759Y-102385363D01*
X98829727Y-102228320D01*
X98568574Y-102120147D01*
X98291335Y-102065000D01*
X98008665Y-102065000D01*
X97731426Y-102120147D01*
X97684989Y-102139382D01*
X97684989Y-94700618D01*
X97731426Y-94719853D01*
X98008665Y-94775000D01*
X98291335Y-94775000D01*
X98568574Y-94719853D01*
X98829727Y-94611680D01*
X99064759Y-94454637D01*
X99264637Y-94254759D01*
X99421680Y-94019727D01*
X99529853Y-93758574D01*
X99585000Y-93481335D01*
X99585000Y-93198665D01*
X99529853Y-92921426D01*
X99421680Y-92660273D01*
X99264637Y-92425241D01*
X99064759Y-92225363D01*
X98829727Y-92068320D01*
X98568574Y-91960147D01*
X98291335Y-91905000D01*
X98008665Y-91905000D01*
X97731426Y-91960147D01*
X97684989Y-91979382D01*
X97684989Y-89069790D01*
X103208790Y-94593593D01*
%TA.AperFunction,Conductor*%
D26*
G36*
X103208790Y-94593593D02*
G01*
X103165000Y-94813740D01*
X103165000Y-95106260D01*
X103222068Y-95393158D01*
X103334010Y-95663411D01*
X103496525Y-95906632D01*
X103628380Y-96038487D01*
X103555820Y-96060498D01*
X103445506Y-96119463D01*
X103348815Y-96198815D01*
X103269463Y-96295506D01*
X103210498Y-96405820D01*
X103174188Y-96525518D01*
X103161928Y-96650000D01*
X103161928Y-98350000D01*
X103174188Y-98474482D01*
X103210498Y-98594180D01*
X103269463Y-98704494D01*
X103348815Y-98801185D01*
X103445506Y-98880537D01*
X103555820Y-98939502D01*
X103675518Y-98975812D01*
X103800000Y-98988072D01*
X105063271Y-98988072D01*
X110650000Y-104574802D01*
X110650001Y-110664028D01*
X110559943Y-110724203D01*
X110374203Y-110909943D01*
X110228268Y-111128351D01*
X110140000Y-111341448D01*
X110051732Y-111128351D01*
X109905797Y-110909943D01*
X109720057Y-110724203D01*
X109501649Y-110578268D01*
X109258968Y-110477746D01*
X109001338Y-110426500D01*
X108738662Y-110426500D01*
X108481032Y-110477746D01*
X108238351Y-110578268D01*
X108019943Y-110724203D01*
X107834203Y-110909943D01*
X107688268Y-111128351D01*
X107587746Y-111371032D01*
X107536500Y-111628662D01*
X107536500Y-111891338D01*
X107587746Y-112148968D01*
X107688268Y-112391649D01*
X107834203Y-112610057D01*
X108019943Y-112795797D01*
X108238351Y-112941732D01*
X108481032Y-113042254D01*
X108738662Y-113093500D01*
X109001338Y-113093500D01*
X109258968Y-113042254D01*
X109501649Y-112941732D01*
X109720057Y-112795797D01*
X109905797Y-112610057D01*
X110051732Y-112391649D01*
X110140000Y-112178552D01*
X110228268Y-112391649D01*
X110374203Y-112610057D01*
X110559943Y-112795797D01*
X110778351Y-112941732D01*
X111021032Y-113042254D01*
X111278662Y-113093500D01*
X111541338Y-113093500D01*
X111798968Y-113042254D01*
X112041649Y-112941732D01*
X112260057Y-112795797D01*
X112445797Y-112610057D01*
X112591732Y-112391649D01*
X112680000Y-112178552D01*
X112768268Y-112391649D01*
X112914203Y-112610057D01*
X113099943Y-112795797D01*
X113318351Y-112941732D01*
X113561032Y-113042254D01*
X113818662Y-113093500D01*
X114081338Y-113093500D01*
X114338968Y-113042254D01*
X114460000Y-112992121D01*
X114460000Y-113204029D01*
X114369943Y-113264203D01*
X114184203Y-113449943D01*
X114038268Y-113668351D01*
X113950000Y-113881448D01*
X113861732Y-113668351D01*
X113715797Y-113449943D01*
X113530057Y-113264203D01*
X113311649Y-113118268D01*
X113068968Y-113017746D01*
X112811338Y-112966500D01*
X112548662Y-112966500D01*
X112291032Y-113017746D01*
X112048351Y-113118268D01*
X111829943Y-113264203D01*
X111644203Y-113449943D01*
X111498268Y-113668351D01*
X111410000Y-113881448D01*
X111321732Y-113668351D01*
X111175797Y-113449943D01*
X110990057Y-113264203D01*
X110771649Y-113118268D01*
X110528968Y-113017746D01*
X110271338Y-112966500D01*
X110008662Y-112966500D01*
X109751032Y-113017746D01*
X109508351Y-113118268D01*
X109289943Y-113264203D01*
X109104203Y-113449943D01*
X108958268Y-113668351D01*
X108870000Y-113881448D01*
X108781732Y-113668351D01*
X108635797Y-113449943D01*
X108450057Y-113264203D01*
X108231649Y-113118268D01*
X107988968Y-113017746D01*
X107731338Y-112966500D01*
X107468662Y-112966500D01*
X107211032Y-113017746D01*
X106968351Y-113118268D01*
X106749943Y-113264203D01*
X106564203Y-113449943D01*
X106461710Y-113603335D01*
X98258375Y-105400000D01*
X102761928Y-105400000D01*
X102774188Y-105524482D01*
X102810498Y-105644180D01*
X102869463Y-105754494D01*
X102948815Y-105851185D01*
X103045506Y-105930537D01*
X103155820Y-105989502D01*
X103275518Y-106025812D01*
X103400000Y-106038072D01*
X104014250Y-106035000D01*
X104173000Y-105876250D01*
X104173000Y-104627000D01*
X102923750Y-104627000D01*
X102765000Y-104785750D01*
X102761928Y-105400000D01*
X98258375Y-105400000D01*
X97739917Y-104881542D01*
X98008665Y-104935000D01*
X98291335Y-104935000D01*
X98568574Y-104879853D01*
X98829727Y-104771680D01*
X99064759Y-104614637D01*
X99264637Y-104414759D01*
X99421680Y-104179727D01*
X99529853Y-103918574D01*
X99585000Y-103641335D01*
X99585000Y-103600000D01*
X102761928Y-103600000D01*
X102765000Y-104214250D01*
X102923750Y-104373000D01*
X104173000Y-104373000D01*
X104173000Y-103123750D01*
X104427000Y-103123750D01*
X104427000Y-104373000D01*
X104447000Y-104373000D01*
X104447000Y-104627000D01*
X104427000Y-104627000D01*
X104427000Y-105876250D01*
X104585750Y-106035000D01*
X105200000Y-106038072D01*
X105324482Y-106025812D01*
X105444180Y-105989502D01*
X105554494Y-105930537D01*
X105651185Y-105851185D01*
X105730537Y-105754494D01*
X105789502Y-105644180D01*
X105795056Y-105625873D01*
X105861495Y-105692312D01*
X106112905Y-105860299D01*
X106392257Y-105976011D01*
X106688816Y-106035000D01*
X106991184Y-106035000D01*
X107287743Y-105976011D01*
X107567095Y-105860299D01*
X107818505Y-105692312D01*
X108032312Y-105478505D01*
X108200299Y-105227095D01*
X108316011Y-104947743D01*
X108375000Y-104651184D01*
X108375000Y-104348816D01*
X108316011Y-104052257D01*
X108200299Y-103772905D01*
X108032312Y-103521495D01*
X107818505Y-103307688D01*
X107567095Y-103139701D01*
X107287743Y-103023989D01*
X106991184Y-102965000D01*
X106688816Y-102965000D01*
X106392257Y-103023989D01*
X106112905Y-103139701D01*
X105861495Y-103307688D01*
X105795056Y-103374127D01*
X105789502Y-103355820D01*
X105730537Y-103245506D01*
X105651185Y-103148815D01*
X105554494Y-103069463D01*
X105444180Y-103010498D01*
X105324482Y-102974188D01*
X105200000Y-102961928D01*
X104585750Y-102965000D01*
X104427000Y-103123750D01*
X104173000Y-103123750D01*
X104014250Y-102965000D01*
X103400000Y-102961928D01*
X103275518Y-102974188D01*
X103155820Y-103010498D01*
X103045506Y-103069463D01*
X102948815Y-103148815D01*
X102869463Y-103245506D01*
X102810498Y-103355820D01*
X102774188Y-103475518D01*
X102761928Y-103600000D01*
X99585000Y-103600000D01*
X99585000Y-103358665D01*
X99529853Y-103081426D01*
X99421680Y-102820273D01*
X99264637Y-102585241D01*
X99064759Y-102385363D01*
X98829727Y-102228320D01*
X98568574Y-102120147D01*
X98291335Y-102065000D01*
X98008665Y-102065000D01*
X97731426Y-102120147D01*
X97684989Y-102139382D01*
X97684989Y-94700618D01*
X97731426Y-94719853D01*
X98008665Y-94775000D01*
X98291335Y-94775000D01*
X98568574Y-94719853D01*
X98829727Y-94611680D01*
X99064759Y-94454637D01*
X99264637Y-94254759D01*
X99421680Y-94019727D01*
X99529853Y-93758574D01*
X99585000Y-93481335D01*
X99585000Y-93198665D01*
X99529853Y-92921426D01*
X99421680Y-92660273D01*
X99264637Y-92425241D01*
X99064759Y-92225363D01*
X98829727Y-92068320D01*
X98568574Y-91960147D01*
X98291335Y-91905000D01*
X98008665Y-91905000D01*
X97731426Y-91960147D01*
X97684989Y-91979382D01*
X97684989Y-89069790D01*
X103208790Y-94593593D01*
G37*
%TD.AperFunction*%
D25*
X164075001Y-72085158D02*
X164075000Y-76318526D01*
X163913368Y-76426525D01*
X163706525Y-76633368D01*
X163544010Y-76876589D01*
X163432068Y-77146842D01*
X163375000Y-77433740D01*
X163375000Y-77726260D01*
X163432068Y-78013158D01*
X163544010Y-78283411D01*
X163706525Y-78526632D01*
X163913368Y-78733475D01*
X164087760Y-78850000D01*
X163913368Y-78966525D01*
X163706525Y-79173368D01*
X163544010Y-79416589D01*
X163432068Y-79686842D01*
X163375000Y-79973740D01*
X163375000Y-80266260D01*
X163432068Y-80553158D01*
X163482536Y-80674999D01*
X157815157Y-80674999D01*
X157123073Y-79982915D01*
X157123073Y-78755001D01*
X157110813Y-78630519D01*
X157074503Y-78510821D01*
X157015538Y-78400507D01*
X156936186Y-78303816D01*
X156839495Y-78224464D01*
X156729181Y-78165499D01*
X156609483Y-78129189D01*
X156485001Y-78116929D01*
X154785001Y-78116929D01*
X154660519Y-78129189D01*
X154540821Y-78165499D01*
X154430507Y-78224464D01*
X154333816Y-78303816D01*
X154254464Y-78400507D01*
X154195499Y-78510821D01*
X154159189Y-78630519D01*
X154146929Y-78755001D01*
X154146929Y-80160000D01*
X153420158Y-80160000D01*
X153188072Y-79927914D01*
X153188072Y-78700000D01*
X153175812Y-78575518D01*
X153139502Y-78455820D01*
X153080537Y-78345506D01*
X153001185Y-78248815D01*
X152904494Y-78169463D01*
X152794180Y-78110498D01*
X152674482Y-78074188D01*
X152550000Y-78061928D01*
X150850000Y-78061928D01*
X150810000Y-78065868D01*
X150810000Y-69318178D01*
X150996632Y-69193475D01*
X151203475Y-68986632D01*
X151365990Y-68743411D01*
X151477932Y-68473158D01*
X151535000Y-68186260D01*
X151535000Y-67893740D01*
X151477932Y-67606842D01*
X151365990Y-67336589D01*
X151203475Y-67093368D01*
X151016392Y-66906285D01*
X151143386Y-66838405D01*
X151277962Y-66727962D01*
X151388405Y-66593386D01*
X151470472Y-66439850D01*
X151521008Y-66273254D01*
X151538072Y-66100000D01*
X151538072Y-64900000D01*
X151521008Y-64726746D01*
X151470472Y-64560150D01*
X151388405Y-64406614D01*
X151277962Y-64272038D01*
X151143386Y-64161595D01*
X150989850Y-64079528D01*
X150823254Y-64028992D01*
X150650000Y-64011928D01*
X149450000Y-64011928D01*
X149276746Y-64028992D01*
X149110150Y-64079528D01*
X148956614Y-64161595D01*
X148822038Y-64272038D01*
X148711595Y-64406614D01*
X148643715Y-64533608D01*
X148456632Y-64346525D01*
X148213411Y-64184010D01*
X147943158Y-64072068D01*
X147656260Y-64015000D01*
X147363740Y-64015000D01*
X147076842Y-64072068D01*
X146806589Y-64184010D01*
X146563368Y-64346525D01*
X146356525Y-64553368D01*
X146240000Y-64727760D01*
X146123475Y-64553368D01*
X145916632Y-64346525D01*
X145673411Y-64184010D01*
X145403158Y-64072068D01*
X145116260Y-64015000D01*
X144823740Y-64015000D01*
X144536842Y-64072068D01*
X144266589Y-64184010D01*
X144023368Y-64346525D01*
X143816525Y-64553368D01*
X143700000Y-64727760D01*
X143583475Y-64553368D01*
X143376632Y-64346525D01*
X143133411Y-64184010D01*
X142863158Y-64072068D01*
X142576260Y-64015000D01*
X142283740Y-64015000D01*
X141996842Y-64072068D01*
X141726589Y-64184010D01*
X141483368Y-64346525D01*
X141276525Y-64553368D01*
X141160000Y-64727760D01*
X141043475Y-64553368D01*
X140836632Y-64346525D01*
X140593411Y-64184010D01*
X140323158Y-64072068D01*
X140036260Y-64015000D01*
X139743740Y-64015000D01*
X139456842Y-64072068D01*
X139186589Y-64184010D01*
X138943368Y-64346525D01*
X138736525Y-64553368D01*
X138620000Y-64727760D01*
X138503475Y-64553368D01*
X138296632Y-64346525D01*
X138053411Y-64184010D01*
X137783158Y-64072068D01*
X137496260Y-64015000D01*
X137203740Y-64015000D01*
X136916842Y-64072068D01*
X136646589Y-64184010D01*
X136403368Y-64346525D01*
X136196525Y-64553368D01*
X136071822Y-64740000D01*
X135011921Y-64740000D01*
X134974588Y-64736323D01*
X134937255Y-64740000D01*
X134825602Y-64750997D01*
X134682341Y-64794454D01*
X134550312Y-64865026D01*
X134434587Y-64959999D01*
X134410789Y-64988997D01*
X130078989Y-69320798D01*
X130049991Y-69344596D01*
X130026193Y-69373594D01*
X130026192Y-69373595D01*
X129955017Y-69460321D01*
X129884445Y-69592351D01*
X129840989Y-69735612D01*
X129826315Y-69884597D01*
X129829992Y-69921929D01*
X129829990Y-92797287D01*
X113438998Y-109188280D01*
X113410000Y-109212078D01*
X113386202Y-109241076D01*
X113386201Y-109241077D01*
X113315026Y-109327803D01*
X113244454Y-109459833D01*
X113200998Y-109603094D01*
X113186324Y-109752079D01*
X113190001Y-109789411D01*
X113190001Y-110664029D01*
X113099943Y-110724203D01*
X112914203Y-110909943D01*
X112768268Y-111128351D01*
X112680000Y-111341448D01*
X112591732Y-111128351D01*
X112445797Y-110909943D01*
X112260057Y-110724203D01*
X112170000Y-110664029D01*
X112170000Y-104297325D01*
X112173676Y-104260000D01*
X112170000Y-104222675D01*
X112170000Y-104222667D01*
X112159003Y-104111014D01*
X112115546Y-103967753D01*
X112044974Y-103835724D01*
X111950001Y-103719999D01*
X111921004Y-103696202D01*
X107209801Y-98985000D01*
X107336260Y-98985000D01*
X107623158Y-98927932D01*
X107893411Y-98815990D01*
X108136632Y-98653475D01*
X108343475Y-98446632D01*
X108505990Y-98203411D01*
X108617932Y-97933158D01*
X108675000Y-97646260D01*
X108675000Y-97353740D01*
X108617932Y-97066842D01*
X108505990Y-96796589D01*
X108343475Y-96553368D01*
X108136632Y-96346525D01*
X107962240Y-96230000D01*
X108136632Y-96113475D01*
X108343475Y-95906632D01*
X108505990Y-95663411D01*
X108617932Y-95393158D01*
X108675000Y-95106260D01*
X108675000Y-94813740D01*
X108617932Y-94526842D01*
X108505990Y-94256589D01*
X108343475Y-94013368D01*
X108136632Y-93806525D01*
X107893411Y-93644010D01*
X107623158Y-93532068D01*
X107336260Y-93475000D01*
X107043740Y-93475000D01*
X106756842Y-93532068D01*
X106486589Y-93644010D01*
X106243368Y-93806525D01*
X106036525Y-94013368D01*
X105920000Y-94187760D01*
X105803475Y-94013368D01*
X105596632Y-93806525D01*
X105353411Y-93644010D01*
X105083158Y-93532068D01*
X104796260Y-93475000D01*
X104503740Y-93475000D01*
X104283593Y-93518790D01*
X98184999Y-87420198D01*
X98184999Y-86651544D01*
X98453740Y-86705000D01*
X98746260Y-86705000D01*
X99033158Y-86647932D01*
X99303411Y-86535990D01*
X99546632Y-86373475D01*
X99753475Y-86166632D01*
X99870000Y-85992240D01*
X99986525Y-86166632D01*
X100193368Y-86373475D01*
X100436589Y-86535990D01*
X100706842Y-86647932D01*
X100993740Y-86705000D01*
X101286260Y-86705000D01*
X101573158Y-86647932D01*
X101843411Y-86535990D01*
X102086632Y-86373475D01*
X102293475Y-86166632D01*
X102455990Y-85923411D01*
X102567932Y-85653158D01*
X102625000Y-85366260D01*
X102625000Y-85073740D01*
X102587075Y-84883082D01*
X102810157Y-84660000D01*
X110141928Y-84660000D01*
X110141928Y-86360000D01*
X110154188Y-86484482D01*
X110190498Y-86604180D01*
X110249463Y-86714494D01*
X110328815Y-86811185D01*
X110425506Y-86890537D01*
X110535820Y-86949502D01*
X110655518Y-86985812D01*
X110780000Y-86998072D01*
X112480000Y-86998072D01*
X112604482Y-86985812D01*
X112724180Y-86949502D01*
X112834494Y-86890537D01*
X112931185Y-86811185D01*
X113010537Y-86714494D01*
X113069502Y-86604180D01*
X113091513Y-86531620D01*
X113223368Y-86663475D01*
X113466589Y-86825990D01*
X113736842Y-86937932D01*
X114023740Y-86995000D01*
X114316260Y-86995000D01*
X114603158Y-86937932D01*
X114873411Y-86825990D01*
X115116632Y-86663475D01*
X115323475Y-86456632D01*
X115440000Y-86282240D01*
X115556525Y-86456632D01*
X115763368Y-86663475D01*
X116006589Y-86825990D01*
X116276842Y-86937932D01*
X116563740Y-86995000D01*
X116856260Y-86995000D01*
X117046918Y-86957075D01*
X117327654Y-87237811D01*
X117352237Y-87267765D01*
X117471768Y-87365863D01*
X117608141Y-87438755D01*
X117756114Y-87483643D01*
X117831027Y-87491021D01*
X117871440Y-87495001D01*
X117871445Y-87495001D01*
X117910001Y-87498798D01*
X117948557Y-87495001D01*
X124801446Y-87495001D01*
X124839999Y-87498798D01*
X124878552Y-87495001D01*
X124878560Y-87495001D01*
X124993886Y-87483642D01*
X125141859Y-87438755D01*
X125278232Y-87365863D01*
X125397763Y-87267765D01*
X125422346Y-87237811D01*
X125905157Y-86755000D01*
X125931939Y-86755000D01*
X126131898Y-86715226D01*
X126320256Y-86637205D01*
X126489774Y-86523937D01*
X126633937Y-86379774D01*
X126747205Y-86210256D01*
X126825226Y-86021898D01*
X126865000Y-85821939D01*
X126865000Y-85618061D01*
X126825226Y-85418102D01*
X126747205Y-85229744D01*
X126648820Y-85082500D01*
X126747205Y-84935256D01*
X126825226Y-84746898D01*
X126865000Y-84546939D01*
X126865000Y-84343061D01*
X126825226Y-84143102D01*
X126747205Y-83954744D01*
X126648820Y-83807500D01*
X126747205Y-83660256D01*
X126825226Y-83471898D01*
X126865000Y-83271939D01*
X126865000Y-83068061D01*
X126825226Y-82868102D01*
X126747205Y-82679744D01*
X126633937Y-82510226D01*
X126489774Y-82366063D01*
X126320256Y-82252795D01*
X126131898Y-82174774D01*
X125931939Y-82135000D01*
X125905158Y-82135000D01*
X125012346Y-81242189D01*
X124987763Y-81212235D01*
X124868232Y-81114137D01*
X124731859Y-81041245D01*
X124583886Y-80996358D01*
X124468560Y-80984999D01*
X124468552Y-80984999D01*
X124429999Y-80981202D01*
X124391446Y-80984999D01*
X118823422Y-80984999D01*
X118929774Y-80913937D01*
X119073937Y-80769774D01*
X119187205Y-80600256D01*
X119265226Y-80411898D01*
X119276535Y-80355043D01*
X119746579Y-79885000D01*
X123365479Y-79885000D01*
X123385363Y-79914759D01*
X123585241Y-80114637D01*
X123820273Y-80271680D01*
X124081426Y-80379853D01*
X124358665Y-80435000D01*
X124641335Y-80435000D01*
X124918574Y-80379853D01*
X125179727Y-80271680D01*
X125414759Y-80114637D01*
X125614637Y-79914759D01*
X125771680Y-79679727D01*
X125879853Y-79418574D01*
X125935000Y-79141335D01*
X125935000Y-78858665D01*
X125879853Y-78581426D01*
X125771680Y-78320273D01*
X125614637Y-78085241D01*
X125414759Y-77885363D01*
X125179727Y-77728320D01*
X124918574Y-77620147D01*
X124641335Y-77565000D01*
X124358665Y-77565000D01*
X124081426Y-77620147D01*
X123820273Y-77728320D01*
X123585241Y-77885363D01*
X123385363Y-78085241D01*
X123365479Y-78115000D01*
X119423466Y-78115000D01*
X119379999Y-78110719D01*
X119336533Y-78115000D01*
X119336523Y-78115000D01*
X119206510Y-78127805D01*
X119039687Y-78178411D01*
X118885941Y-78260589D01*
X118885939Y-78260590D01*
X118885940Y-78260590D01*
X118784953Y-78343468D01*
X118784951Y-78343470D01*
X118751183Y-78371183D01*
X118723470Y-78404951D01*
X118024957Y-79103465D01*
X117968102Y-79114774D01*
X117779744Y-79192795D01*
X117731546Y-79225000D01*
X113331388Y-79225000D01*
X113287919Y-79220719D01*
X113244450Y-79225000D01*
X113244442Y-79225000D01*
X113114429Y-79237805D01*
X112947605Y-79288411D01*
X112793860Y-79370589D01*
X112692872Y-79453468D01*
X112692870Y-79453470D01*
X112659102Y-79481183D01*
X112631389Y-79514951D01*
X111034951Y-81111390D01*
X111001184Y-81139102D01*
X110973471Y-81172870D01*
X110973468Y-81172873D01*
X110890590Y-81273860D01*
X110808412Y-81427606D01*
X110757805Y-81594429D01*
X110740719Y-81767919D01*
X110741669Y-81777569D01*
X110683368Y-81816525D01*
X110476525Y-82023368D01*
X110314010Y-82266589D01*
X110202068Y-82536842D01*
X110145000Y-82823740D01*
X110145000Y-83116260D01*
X110202068Y-83403158D01*
X110314010Y-83673411D01*
X110476525Y-83916632D01*
X110608380Y-84048487D01*
X110535820Y-84070498D01*
X110425506Y-84129463D01*
X110328815Y-84208815D01*
X110249463Y-84305506D01*
X110190498Y-84415820D01*
X110154188Y-84535518D01*
X110141928Y-84660000D01*
X102810157Y-84660000D01*
X112111492Y-75358665D01*
X123065000Y-75358665D01*
X123065000Y-75641335D01*
X123120147Y-75918574D01*
X123228320Y-76179727D01*
X123385363Y-76414759D01*
X123585241Y-76614637D01*
X123820273Y-76771680D01*
X124081426Y-76879853D01*
X124358665Y-76935000D01*
X124641335Y-76935000D01*
X124918574Y-76879853D01*
X125179727Y-76771680D01*
X125414759Y-76614637D01*
X125614637Y-76414759D01*
X125771680Y-76179727D01*
X125879853Y-75918574D01*
X125935000Y-75641335D01*
X125935000Y-75358665D01*
X125879853Y-75081426D01*
X125771680Y-74820273D01*
X125614637Y-74585241D01*
X125414759Y-74385363D01*
X125179727Y-74228320D01*
X124918574Y-74120147D01*
X124641335Y-74065000D01*
X124358665Y-74065000D01*
X124081426Y-74120147D01*
X123820273Y-74228320D01*
X123585241Y-74385363D01*
X123385363Y-74585241D01*
X123228320Y-74820273D01*
X123120147Y-75081426D01*
X123065000Y-75358665D01*
X112111492Y-75358665D01*
X116100000Y-71370158D01*
X117525000Y-72795158D01*
X117525000Y-72821939D01*
X117564774Y-73021898D01*
X117642795Y-73210256D01*
X117756063Y-73379774D01*
X117900226Y-73523937D01*
X118069744Y-73637205D01*
X118258102Y-73715226D01*
X118458061Y-73755000D01*
X118661939Y-73755000D01*
X118861898Y-73715226D01*
X119050256Y-73637205D01*
X119219774Y-73523937D01*
X119238711Y-73505000D01*
X120857449Y-73505000D01*
X120896002Y-73508797D01*
X120934555Y-73505000D01*
X120934563Y-73505000D01*
X121049889Y-73493641D01*
X121197862Y-73448754D01*
X121334235Y-73375862D01*
X121453766Y-73277764D01*
X121478349Y-73247810D01*
X132701159Y-62025000D01*
X154014843Y-62025000D01*
X164075001Y-72085158D01*
%TA.AperFunction,Conductor*%
D26*
G36*
X164075001Y-72085158D02*
G01*
X164075000Y-76318526D01*
X163913368Y-76426525D01*
X163706525Y-76633368D01*
X163544010Y-76876589D01*
X163432068Y-77146842D01*
X163375000Y-77433740D01*
X163375000Y-77726260D01*
X163432068Y-78013158D01*
X163544010Y-78283411D01*
X163706525Y-78526632D01*
X163913368Y-78733475D01*
X164087760Y-78850000D01*
X163913368Y-78966525D01*
X163706525Y-79173368D01*
X163544010Y-79416589D01*
X163432068Y-79686842D01*
X163375000Y-79973740D01*
X163375000Y-80266260D01*
X163432068Y-80553158D01*
X163482536Y-80674999D01*
X157815157Y-80674999D01*
X157123073Y-79982915D01*
X157123073Y-78755001D01*
X157110813Y-78630519D01*
X157074503Y-78510821D01*
X157015538Y-78400507D01*
X156936186Y-78303816D01*
X156839495Y-78224464D01*
X156729181Y-78165499D01*
X156609483Y-78129189D01*
X156485001Y-78116929D01*
X154785001Y-78116929D01*
X154660519Y-78129189D01*
X154540821Y-78165499D01*
X154430507Y-78224464D01*
X154333816Y-78303816D01*
X154254464Y-78400507D01*
X154195499Y-78510821D01*
X154159189Y-78630519D01*
X154146929Y-78755001D01*
X154146929Y-80160000D01*
X153420158Y-80160000D01*
X153188072Y-79927914D01*
X153188072Y-78700000D01*
X153175812Y-78575518D01*
X153139502Y-78455820D01*
X153080537Y-78345506D01*
X153001185Y-78248815D01*
X152904494Y-78169463D01*
X152794180Y-78110498D01*
X152674482Y-78074188D01*
X152550000Y-78061928D01*
X150850000Y-78061928D01*
X150810000Y-78065868D01*
X150810000Y-69318178D01*
X150996632Y-69193475D01*
X151203475Y-68986632D01*
X151365990Y-68743411D01*
X151477932Y-68473158D01*
X151535000Y-68186260D01*
X151535000Y-67893740D01*
X151477932Y-67606842D01*
X151365990Y-67336589D01*
X151203475Y-67093368D01*
X151016392Y-66906285D01*
X151143386Y-66838405D01*
X151277962Y-66727962D01*
X151388405Y-66593386D01*
X151470472Y-66439850D01*
X151521008Y-66273254D01*
X151538072Y-66100000D01*
X151538072Y-64900000D01*
X151521008Y-64726746D01*
X151470472Y-64560150D01*
X151388405Y-64406614D01*
X151277962Y-64272038D01*
X151143386Y-64161595D01*
X150989850Y-64079528D01*
X150823254Y-64028992D01*
X150650000Y-64011928D01*
X149450000Y-64011928D01*
X149276746Y-64028992D01*
X149110150Y-64079528D01*
X148956614Y-64161595D01*
X148822038Y-64272038D01*
X148711595Y-64406614D01*
X148643715Y-64533608D01*
X148456632Y-64346525D01*
X148213411Y-64184010D01*
X147943158Y-64072068D01*
X147656260Y-64015000D01*
X147363740Y-64015000D01*
X147076842Y-64072068D01*
X146806589Y-64184010D01*
X146563368Y-64346525D01*
X146356525Y-64553368D01*
X146240000Y-64727760D01*
X146123475Y-64553368D01*
X145916632Y-64346525D01*
X145673411Y-64184010D01*
X145403158Y-64072068D01*
X145116260Y-64015000D01*
X144823740Y-64015000D01*
X144536842Y-64072068D01*
X144266589Y-64184010D01*
X144023368Y-64346525D01*
X143816525Y-64553368D01*
X143700000Y-64727760D01*
X143583475Y-64553368D01*
X143376632Y-64346525D01*
X143133411Y-64184010D01*
X142863158Y-64072068D01*
X142576260Y-64015000D01*
X142283740Y-64015000D01*
X141996842Y-64072068D01*
X141726589Y-64184010D01*
X141483368Y-64346525D01*
X141276525Y-64553368D01*
X141160000Y-64727760D01*
X141043475Y-64553368D01*
X140836632Y-64346525D01*
X140593411Y-64184010D01*
X140323158Y-64072068D01*
X140036260Y-64015000D01*
X139743740Y-64015000D01*
X139456842Y-64072068D01*
X139186589Y-64184010D01*
X138943368Y-64346525D01*
X138736525Y-64553368D01*
X138620000Y-64727760D01*
X138503475Y-64553368D01*
X138296632Y-64346525D01*
X138053411Y-64184010D01*
X137783158Y-64072068D01*
X137496260Y-64015000D01*
X137203740Y-64015000D01*
X136916842Y-64072068D01*
X136646589Y-64184010D01*
X136403368Y-64346525D01*
X136196525Y-64553368D01*
X136071822Y-64740000D01*
X135011921Y-64740000D01*
X134974588Y-64736323D01*
X134937255Y-64740000D01*
X134825602Y-64750997D01*
X134682341Y-64794454D01*
X134550312Y-64865026D01*
X134434587Y-64959999D01*
X134410789Y-64988997D01*
X130078989Y-69320798D01*
X130049991Y-69344596D01*
X130026193Y-69373594D01*
X130026192Y-69373595D01*
X129955017Y-69460321D01*
X129884445Y-69592351D01*
X129840989Y-69735612D01*
X129826315Y-69884597D01*
X129829992Y-69921929D01*
X129829990Y-92797287D01*
X113438998Y-109188280D01*
X113410000Y-109212078D01*
X113386202Y-109241076D01*
X113386201Y-109241077D01*
X113315026Y-109327803D01*
X113244454Y-109459833D01*
X113200998Y-109603094D01*
X113186324Y-109752079D01*
X113190001Y-109789411D01*
X113190001Y-110664029D01*
X113099943Y-110724203D01*
X112914203Y-110909943D01*
X112768268Y-111128351D01*
X112680000Y-111341448D01*
X112591732Y-111128351D01*
X112445797Y-110909943D01*
X112260057Y-110724203D01*
X112170000Y-110664029D01*
X112170000Y-104297325D01*
X112173676Y-104260000D01*
X112170000Y-104222675D01*
X112170000Y-104222667D01*
X112159003Y-104111014D01*
X112115546Y-103967753D01*
X112044974Y-103835724D01*
X111950001Y-103719999D01*
X111921004Y-103696202D01*
X107209801Y-98985000D01*
X107336260Y-98985000D01*
X107623158Y-98927932D01*
X107893411Y-98815990D01*
X108136632Y-98653475D01*
X108343475Y-98446632D01*
X108505990Y-98203411D01*
X108617932Y-97933158D01*
X108675000Y-97646260D01*
X108675000Y-97353740D01*
X108617932Y-97066842D01*
X108505990Y-96796589D01*
X108343475Y-96553368D01*
X108136632Y-96346525D01*
X107962240Y-96230000D01*
X108136632Y-96113475D01*
X108343475Y-95906632D01*
X108505990Y-95663411D01*
X108617932Y-95393158D01*
X108675000Y-95106260D01*
X108675000Y-94813740D01*
X108617932Y-94526842D01*
X108505990Y-94256589D01*
X108343475Y-94013368D01*
X108136632Y-93806525D01*
X107893411Y-93644010D01*
X107623158Y-93532068D01*
X107336260Y-93475000D01*
X107043740Y-93475000D01*
X106756842Y-93532068D01*
X106486589Y-93644010D01*
X106243368Y-93806525D01*
X106036525Y-94013368D01*
X105920000Y-94187760D01*
X105803475Y-94013368D01*
X105596632Y-93806525D01*
X105353411Y-93644010D01*
X105083158Y-93532068D01*
X104796260Y-93475000D01*
X104503740Y-93475000D01*
X104283593Y-93518790D01*
X98184999Y-87420198D01*
X98184999Y-86651544D01*
X98453740Y-86705000D01*
X98746260Y-86705000D01*
X99033158Y-86647932D01*
X99303411Y-86535990D01*
X99546632Y-86373475D01*
X99753475Y-86166632D01*
X99870000Y-85992240D01*
X99986525Y-86166632D01*
X100193368Y-86373475D01*
X100436589Y-86535990D01*
X100706842Y-86647932D01*
X100993740Y-86705000D01*
X101286260Y-86705000D01*
X101573158Y-86647932D01*
X101843411Y-86535990D01*
X102086632Y-86373475D01*
X102293475Y-86166632D01*
X102455990Y-85923411D01*
X102567932Y-85653158D01*
X102625000Y-85366260D01*
X102625000Y-85073740D01*
X102587075Y-84883082D01*
X102810157Y-84660000D01*
X110141928Y-84660000D01*
X110141928Y-86360000D01*
X110154188Y-86484482D01*
X110190498Y-86604180D01*
X110249463Y-86714494D01*
X110328815Y-86811185D01*
X110425506Y-86890537D01*
X110535820Y-86949502D01*
X110655518Y-86985812D01*
X110780000Y-86998072D01*
X112480000Y-86998072D01*
X112604482Y-86985812D01*
X112724180Y-86949502D01*
X112834494Y-86890537D01*
X112931185Y-86811185D01*
X113010537Y-86714494D01*
X113069502Y-86604180D01*
X113091513Y-86531620D01*
X113223368Y-86663475D01*
X113466589Y-86825990D01*
X113736842Y-86937932D01*
X114023740Y-86995000D01*
X114316260Y-86995000D01*
X114603158Y-86937932D01*
X114873411Y-86825990D01*
X115116632Y-86663475D01*
X115323475Y-86456632D01*
X115440000Y-86282240D01*
X115556525Y-86456632D01*
X115763368Y-86663475D01*
X116006589Y-86825990D01*
X116276842Y-86937932D01*
X116563740Y-86995000D01*
X116856260Y-86995000D01*
X117046918Y-86957075D01*
X117327654Y-87237811D01*
X117352237Y-87267765D01*
X117471768Y-87365863D01*
X117608141Y-87438755D01*
X117756114Y-87483643D01*
X117831027Y-87491021D01*
X117871440Y-87495001D01*
X117871445Y-87495001D01*
X117910001Y-87498798D01*
X117948557Y-87495001D01*
X124801446Y-87495001D01*
X124839999Y-87498798D01*
X124878552Y-87495001D01*
X124878560Y-87495001D01*
X124993886Y-87483642D01*
X125141859Y-87438755D01*
X125278232Y-87365863D01*
X125397763Y-87267765D01*
X125422346Y-87237811D01*
X125905157Y-86755000D01*
X125931939Y-86755000D01*
X126131898Y-86715226D01*
X126320256Y-86637205D01*
X126489774Y-86523937D01*
X126633937Y-86379774D01*
X126747205Y-86210256D01*
X126825226Y-86021898D01*
X126865000Y-85821939D01*
X126865000Y-85618061D01*
X126825226Y-85418102D01*
X126747205Y-85229744D01*
X126648820Y-85082500D01*
X126747205Y-84935256D01*
X126825226Y-84746898D01*
X126865000Y-84546939D01*
X126865000Y-84343061D01*
X126825226Y-84143102D01*
X126747205Y-83954744D01*
X126648820Y-83807500D01*
X126747205Y-83660256D01*
X126825226Y-83471898D01*
X126865000Y-83271939D01*
X126865000Y-83068061D01*
X126825226Y-82868102D01*
X126747205Y-82679744D01*
X126633937Y-82510226D01*
X126489774Y-82366063D01*
X126320256Y-82252795D01*
X126131898Y-82174774D01*
X125931939Y-82135000D01*
X125905158Y-82135000D01*
X125012346Y-81242189D01*
X124987763Y-81212235D01*
X124868232Y-81114137D01*
X124731859Y-81041245D01*
X124583886Y-80996358D01*
X124468560Y-80984999D01*
X124468552Y-80984999D01*
X124429999Y-80981202D01*
X124391446Y-80984999D01*
X118823422Y-80984999D01*
X118929774Y-80913937D01*
X119073937Y-80769774D01*
X119187205Y-80600256D01*
X119265226Y-80411898D01*
X119276535Y-80355043D01*
X119746579Y-79885000D01*
X123365479Y-79885000D01*
X123385363Y-79914759D01*
X123585241Y-80114637D01*
X123820273Y-80271680D01*
X124081426Y-80379853D01*
X124358665Y-80435000D01*
X124641335Y-80435000D01*
X124918574Y-80379853D01*
X125179727Y-80271680D01*
X125414759Y-80114637D01*
X125614637Y-79914759D01*
X125771680Y-79679727D01*
X125879853Y-79418574D01*
X125935000Y-79141335D01*
X125935000Y-78858665D01*
X125879853Y-78581426D01*
X125771680Y-78320273D01*
X125614637Y-78085241D01*
X125414759Y-77885363D01*
X125179727Y-77728320D01*
X124918574Y-77620147D01*
X124641335Y-77565000D01*
X124358665Y-77565000D01*
X124081426Y-77620147D01*
X123820273Y-77728320D01*
X123585241Y-77885363D01*
X123385363Y-78085241D01*
X123365479Y-78115000D01*
X119423466Y-78115000D01*
X119379999Y-78110719D01*
X119336533Y-78115000D01*
X119336523Y-78115000D01*
X119206510Y-78127805D01*
X119039687Y-78178411D01*
X118885941Y-78260589D01*
X118885939Y-78260590D01*
X118885940Y-78260590D01*
X118784953Y-78343468D01*
X118784951Y-78343470D01*
X118751183Y-78371183D01*
X118723470Y-78404951D01*
X118024957Y-79103465D01*
X117968102Y-79114774D01*
X117779744Y-79192795D01*
X117731546Y-79225000D01*
X113331388Y-79225000D01*
X113287919Y-79220719D01*
X113244450Y-79225000D01*
X113244442Y-79225000D01*
X113114429Y-79237805D01*
X112947605Y-79288411D01*
X112793860Y-79370589D01*
X112692872Y-79453468D01*
X112692870Y-79453470D01*
X112659102Y-79481183D01*
X112631389Y-79514951D01*
X111034951Y-81111390D01*
X111001184Y-81139102D01*
X110973471Y-81172870D01*
X110973468Y-81172873D01*
X110890590Y-81273860D01*
X110808412Y-81427606D01*
X110757805Y-81594429D01*
X110740719Y-81767919D01*
X110741669Y-81777569D01*
X110683368Y-81816525D01*
X110476525Y-82023368D01*
X110314010Y-82266589D01*
X110202068Y-82536842D01*
X110145000Y-82823740D01*
X110145000Y-83116260D01*
X110202068Y-83403158D01*
X110314010Y-83673411D01*
X110476525Y-83916632D01*
X110608380Y-84048487D01*
X110535820Y-84070498D01*
X110425506Y-84129463D01*
X110328815Y-84208815D01*
X110249463Y-84305506D01*
X110190498Y-84415820D01*
X110154188Y-84535518D01*
X110141928Y-84660000D01*
X102810157Y-84660000D01*
X112111492Y-75358665D01*
X123065000Y-75358665D01*
X123065000Y-75641335D01*
X123120147Y-75918574D01*
X123228320Y-76179727D01*
X123385363Y-76414759D01*
X123585241Y-76614637D01*
X123820273Y-76771680D01*
X124081426Y-76879853D01*
X124358665Y-76935000D01*
X124641335Y-76935000D01*
X124918574Y-76879853D01*
X125179727Y-76771680D01*
X125414759Y-76614637D01*
X125614637Y-76414759D01*
X125771680Y-76179727D01*
X125879853Y-75918574D01*
X125935000Y-75641335D01*
X125935000Y-75358665D01*
X125879853Y-75081426D01*
X125771680Y-74820273D01*
X125614637Y-74585241D01*
X125414759Y-74385363D01*
X125179727Y-74228320D01*
X124918574Y-74120147D01*
X124641335Y-74065000D01*
X124358665Y-74065000D01*
X124081426Y-74120147D01*
X123820273Y-74228320D01*
X123585241Y-74385363D01*
X123385363Y-74585241D01*
X123228320Y-74820273D01*
X123120147Y-75081426D01*
X123065000Y-75358665D01*
X112111492Y-75358665D01*
X116100000Y-71370158D01*
X117525000Y-72795158D01*
X117525000Y-72821939D01*
X117564774Y-73021898D01*
X117642795Y-73210256D01*
X117756063Y-73379774D01*
X117900226Y-73523937D01*
X118069744Y-73637205D01*
X118258102Y-73715226D01*
X118458061Y-73755000D01*
X118661939Y-73755000D01*
X118861898Y-73715226D01*
X119050256Y-73637205D01*
X119219774Y-73523937D01*
X119238711Y-73505000D01*
X120857449Y-73505000D01*
X120896002Y-73508797D01*
X120934555Y-73505000D01*
X120934563Y-73505000D01*
X121049889Y-73493641D01*
X121197862Y-73448754D01*
X121334235Y-73375862D01*
X121453766Y-73277764D01*
X121478349Y-73247810D01*
X132701159Y-62025000D01*
X154014843Y-62025000D01*
X164075001Y-72085158D01*
G37*
%TD.AperFunction*%
D25*
X157544647Y-83315862D02*
X157681020Y-83388754D01*
X157794552Y-83423194D01*
X157828992Y-83433641D01*
X157843370Y-83435057D01*
X157944319Y-83445000D01*
X157944326Y-83445000D01*
X157982879Y-83448797D01*
X158021432Y-83445000D01*
X162964843Y-83445000D01*
X161722185Y-84687658D01*
X161692237Y-84712236D01*
X161667659Y-84742184D01*
X161667655Y-84742188D01*
X161635601Y-84781246D01*
X161594139Y-84831767D01*
X161567413Y-84881769D01*
X161521246Y-84968141D01*
X161476359Y-85116114D01*
X161461203Y-85270000D01*
X161465001Y-85308563D01*
X161465000Y-87231289D01*
X161446063Y-87250226D01*
X161332795Y-87419744D01*
X161254774Y-87608102D01*
X161215000Y-87808061D01*
X161215000Y-88011939D01*
X161254774Y-88211898D01*
X161332795Y-88400256D01*
X161446063Y-88569774D01*
X161590226Y-88713937D01*
X161759744Y-88827205D01*
X161948102Y-88905226D01*
X162148061Y-88945000D01*
X162351939Y-88945000D01*
X162551898Y-88905226D01*
X162740256Y-88827205D01*
X162909774Y-88713937D01*
X163053937Y-88569774D01*
X163167205Y-88400256D01*
X163245226Y-88211898D01*
X163285000Y-88011939D01*
X163285000Y-87808061D01*
X163245226Y-87608102D01*
X163167205Y-87419744D01*
X163053937Y-87250226D01*
X163035000Y-87231289D01*
X163035000Y-86228397D01*
X164011208Y-86228397D01*
X164088843Y-86477472D01*
X164352883Y-86603371D01*
X164636411Y-86675339D01*
X164928531Y-86690611D01*
X165218019Y-86648599D01*
X165493747Y-86550919D01*
X165631157Y-86477472D01*
X165708792Y-86228397D01*
X164860000Y-85379605D01*
X164011208Y-86228397D01*
X163035000Y-86228397D01*
X163035000Y-85595157D01*
X163369817Y-85260340D01*
X163369389Y-85268531D01*
X163411401Y-85558019D01*
X163509081Y-85833747D01*
X163582528Y-85971157D01*
X163831603Y-86048792D01*
X164680395Y-85200000D01*
X164666253Y-85185858D01*
X164845858Y-85006253D01*
X164860000Y-85020395D01*
X165708792Y-84171603D01*
X165633271Y-83929311D01*
X165806632Y-83813475D01*
X166013475Y-83606632D01*
X166130000Y-83432240D01*
X166246525Y-83606632D01*
X166433608Y-83793715D01*
X166306614Y-83861595D01*
X166172038Y-83972038D01*
X166061595Y-84106614D01*
X165979528Y-84260150D01*
X165946420Y-84369293D01*
X165888397Y-84351208D01*
X165039605Y-85200000D01*
X165888397Y-86048792D01*
X165946420Y-86030707D01*
X165979528Y-86139850D01*
X166061595Y-86293386D01*
X166172038Y-86427962D01*
X166306614Y-86538405D01*
X166460150Y-86620472D01*
X166626746Y-86671008D01*
X166800000Y-86688072D01*
X167815002Y-86688072D01*
X167815002Y-88023198D01*
X165650956Y-90187245D01*
X165579774Y-90116063D01*
X165410256Y-90002795D01*
X165221898Y-89924774D01*
X165021939Y-89885000D01*
X164818061Y-89885000D01*
X164618102Y-89924774D01*
X164429744Y-90002795D01*
X164381546Y-90035000D01*
X159116579Y-90035000D01*
X157656535Y-88574957D01*
X157645226Y-88518102D01*
X157567205Y-88329744D01*
X157535000Y-88281546D01*
X157535000Y-83307945D01*
X157544647Y-83315862D01*
%TA.AperFunction,Conductor*%
D26*
G36*
X157544647Y-83315862D02*
G01*
X157681020Y-83388754D01*
X157794552Y-83423194D01*
X157828992Y-83433641D01*
X157843370Y-83435057D01*
X157944319Y-83445000D01*
X157944326Y-83445000D01*
X157982879Y-83448797D01*
X158021432Y-83445000D01*
X162964843Y-83445000D01*
X161722185Y-84687658D01*
X161692237Y-84712236D01*
X161667659Y-84742184D01*
X161667655Y-84742188D01*
X161635601Y-84781246D01*
X161594139Y-84831767D01*
X161567413Y-84881769D01*
X161521246Y-84968141D01*
X161476359Y-85116114D01*
X161461203Y-85270000D01*
X161465001Y-85308563D01*
X161465000Y-87231289D01*
X161446063Y-87250226D01*
X161332795Y-87419744D01*
X161254774Y-87608102D01*
X161215000Y-87808061D01*
X161215000Y-88011939D01*
X161254774Y-88211898D01*
X161332795Y-88400256D01*
X161446063Y-88569774D01*
X161590226Y-88713937D01*
X161759744Y-88827205D01*
X161948102Y-88905226D01*
X162148061Y-88945000D01*
X162351939Y-88945000D01*
X162551898Y-88905226D01*
X162740256Y-88827205D01*
X162909774Y-88713937D01*
X163053937Y-88569774D01*
X163167205Y-88400256D01*
X163245226Y-88211898D01*
X163285000Y-88011939D01*
X163285000Y-87808061D01*
X163245226Y-87608102D01*
X163167205Y-87419744D01*
X163053937Y-87250226D01*
X163035000Y-87231289D01*
X163035000Y-86228397D01*
X164011208Y-86228397D01*
X164088843Y-86477472D01*
X164352883Y-86603371D01*
X164636411Y-86675339D01*
X164928531Y-86690611D01*
X165218019Y-86648599D01*
X165493747Y-86550919D01*
X165631157Y-86477472D01*
X165708792Y-86228397D01*
X164860000Y-85379605D01*
X164011208Y-86228397D01*
X163035000Y-86228397D01*
X163035000Y-85595157D01*
X163369817Y-85260340D01*
X163369389Y-85268531D01*
X163411401Y-85558019D01*
X163509081Y-85833747D01*
X163582528Y-85971157D01*
X163831603Y-86048792D01*
X164680395Y-85200000D01*
X164666253Y-85185858D01*
X164845858Y-85006253D01*
X164860000Y-85020395D01*
X165708792Y-84171603D01*
X165633271Y-83929311D01*
X165806632Y-83813475D01*
X166013475Y-83606632D01*
X166130000Y-83432240D01*
X166246525Y-83606632D01*
X166433608Y-83793715D01*
X166306614Y-83861595D01*
X166172038Y-83972038D01*
X166061595Y-84106614D01*
X165979528Y-84260150D01*
X165946420Y-84369293D01*
X165888397Y-84351208D01*
X165039605Y-85200000D01*
X165888397Y-86048792D01*
X165946420Y-86030707D01*
X165979528Y-86139850D01*
X166061595Y-86293386D01*
X166172038Y-86427962D01*
X166306614Y-86538405D01*
X166460150Y-86620472D01*
X166626746Y-86671008D01*
X166800000Y-86688072D01*
X167815002Y-86688072D01*
X167815002Y-88023198D01*
X165650956Y-90187245D01*
X165579774Y-90116063D01*
X165410256Y-90002795D01*
X165221898Y-89924774D01*
X165021939Y-89885000D01*
X164818061Y-89885000D01*
X164618102Y-89924774D01*
X164429744Y-90002795D01*
X164381546Y-90035000D01*
X159116579Y-90035000D01*
X157656535Y-88574957D01*
X157645226Y-88518102D01*
X157567205Y-88329744D01*
X157535000Y-88281546D01*
X157535000Y-83307945D01*
X157544647Y-83315862D01*
G37*
%TD.AperFunction*%
D25*
X154150001Y-81998741D02*
X154150001Y-82291261D01*
X154164462Y-82363961D01*
X152166274Y-84362150D01*
X152051898Y-84314774D01*
X151851939Y-84275000D01*
X151648061Y-84275000D01*
X151448102Y-84314774D01*
X151259744Y-84392795D01*
X151090226Y-84506063D01*
X150946063Y-84650226D01*
X150832795Y-84819744D01*
X150810000Y-84874776D01*
X150810000Y-83277386D01*
X150818645Y-83285178D01*
X151068748Y-83434157D01*
X151343109Y-83531481D01*
X151573000Y-83410814D01*
X151573000Y-82217000D01*
X151827000Y-82217000D01*
X151827000Y-83410814D01*
X152056891Y-83531481D01*
X152331252Y-83434157D01*
X152581355Y-83285178D01*
X152797588Y-83090269D01*
X152971641Y-82856920D01*
X153096825Y-82594099D01*
X153141476Y-82446890D01*
X153020155Y-82217000D01*
X151827000Y-82217000D01*
X151573000Y-82217000D01*
X151553000Y-82217000D01*
X151553000Y-81963000D01*
X151573000Y-81963000D01*
X151573000Y-81943000D01*
X151827000Y-81943000D01*
X151827000Y-81963000D01*
X153020155Y-81963000D01*
X153141476Y-81733110D01*
X153140533Y-81730000D01*
X154203457Y-81730000D01*
X154150001Y-81998741D01*
%TA.AperFunction,Conductor*%
D26*
G36*
X154150001Y-81998741D02*
G01*
X154150001Y-82291261D01*
X154164462Y-82363961D01*
X152166274Y-84362150D01*
X152051898Y-84314774D01*
X151851939Y-84275000D01*
X151648061Y-84275000D01*
X151448102Y-84314774D01*
X151259744Y-84392795D01*
X151090226Y-84506063D01*
X150946063Y-84650226D01*
X150832795Y-84819744D01*
X150810000Y-84874776D01*
X150810000Y-83277386D01*
X150818645Y-83285178D01*
X151068748Y-83434157D01*
X151343109Y-83531481D01*
X151573000Y-83410814D01*
X151573000Y-82217000D01*
X151827000Y-82217000D01*
X151827000Y-83410814D01*
X152056891Y-83531481D01*
X152331252Y-83434157D01*
X152581355Y-83285178D01*
X152797588Y-83090269D01*
X152971641Y-82856920D01*
X153096825Y-82594099D01*
X153141476Y-82446890D01*
X153020155Y-82217000D01*
X151827000Y-82217000D01*
X151573000Y-82217000D01*
X151553000Y-82217000D01*
X151553000Y-81963000D01*
X151573000Y-81963000D01*
X151573000Y-81943000D01*
X151827000Y-81943000D01*
X151827000Y-81963000D01*
X153020155Y-81963000D01*
X153141476Y-81733110D01*
X153140533Y-81730000D01*
X154203457Y-81730000D01*
X154150001Y-81998741D01*
G37*
%TD.AperFunction*%
D25*
X113902174Y-64891667D02*
X113872226Y-64916245D01*
X113847648Y-64946193D01*
X113847644Y-64946197D01*
X113814679Y-64986365D01*
X113774128Y-65035776D01*
X113757523Y-65066842D01*
X113701235Y-65172150D01*
X113656348Y-65320123D01*
X113641192Y-65474009D01*
X113644990Y-65512572D01*
X113644989Y-68300855D01*
X102471591Y-79474254D01*
X102455990Y-79436589D01*
X102293475Y-79193368D01*
X102086632Y-78986525D01*
X101913271Y-78870689D01*
X101988792Y-78628397D01*
X101140000Y-77779605D01*
X101125858Y-77793748D01*
X100946253Y-77614143D01*
X100960395Y-77600000D01*
X101319605Y-77600000D01*
X102168397Y-78448792D01*
X102417472Y-78371157D01*
X102543371Y-78107117D01*
X102615339Y-77823589D01*
X102630611Y-77531469D01*
X102588599Y-77241981D01*
X102490919Y-76966253D01*
X102417472Y-76828843D01*
X102168397Y-76751208D01*
X101319605Y-77600000D01*
X100960395Y-77600000D01*
X100946253Y-77585858D01*
X101125858Y-77406253D01*
X101140000Y-77420395D01*
X101988792Y-76571603D01*
X101911157Y-76322528D01*
X101803134Y-76271021D01*
X113439166Y-64634989D01*
X114158852Y-64634989D01*
X113902174Y-64891667D01*
%TA.AperFunction,Conductor*%
D26*
G36*
X113902174Y-64891667D02*
G01*
X113872226Y-64916245D01*
X113847648Y-64946193D01*
X113847644Y-64946197D01*
X113814679Y-64986365D01*
X113774128Y-65035776D01*
X113757523Y-65066842D01*
X113701235Y-65172150D01*
X113656348Y-65320123D01*
X113641192Y-65474009D01*
X113644990Y-65512572D01*
X113644989Y-68300855D01*
X102471591Y-79474254D01*
X102455990Y-79436589D01*
X102293475Y-79193368D01*
X102086632Y-78986525D01*
X101913271Y-78870689D01*
X101988792Y-78628397D01*
X101140000Y-77779605D01*
X101125858Y-77793748D01*
X100946253Y-77614143D01*
X100960395Y-77600000D01*
X101319605Y-77600000D01*
X102168397Y-78448792D01*
X102417472Y-78371157D01*
X102543371Y-78107117D01*
X102615339Y-77823589D01*
X102630611Y-77531469D01*
X102588599Y-77241981D01*
X102490919Y-76966253D01*
X102417472Y-76828843D01*
X102168397Y-76751208D01*
X101319605Y-77600000D01*
X100960395Y-77600000D01*
X100946253Y-77585858D01*
X101125858Y-77406253D01*
X101140000Y-77420395D01*
X101988792Y-76571603D01*
X101911157Y-76322528D01*
X101803134Y-76271021D01*
X113439166Y-64634989D01*
X114158852Y-64634989D01*
X113902174Y-64891667D01*
G37*
%TD.AperFunction*%
D25*
X122810150Y-66970472D02*
X122919293Y-67003580D01*
X122901208Y-67061603D01*
X123750000Y-67910395D01*
X123764143Y-67896253D01*
X123943748Y-68075858D01*
X123929605Y-68090000D01*
X123943748Y-68104143D01*
X123764143Y-68283748D01*
X123750000Y-68269605D01*
X122901208Y-69118397D01*
X122978843Y-69367472D01*
X123086866Y-69418979D01*
X120570845Y-71935000D01*
X119238711Y-71935000D01*
X119219774Y-71916063D01*
X119050256Y-71802795D01*
X118861898Y-71724774D01*
X118661939Y-71685000D01*
X118635158Y-71685000D01*
X116915000Y-69964843D01*
X116915000Y-69351474D01*
X117076632Y-69243475D01*
X117283475Y-69036632D01*
X117400000Y-68862240D01*
X117516525Y-69036632D01*
X117723368Y-69243475D01*
X117966589Y-69405990D01*
X118236842Y-69517932D01*
X118523740Y-69575000D01*
X118816260Y-69575000D01*
X119103158Y-69517932D01*
X119373411Y-69405990D01*
X119616632Y-69243475D01*
X119823475Y-69036632D01*
X119940000Y-68862240D01*
X120056525Y-69036632D01*
X120263368Y-69243475D01*
X120506589Y-69405990D01*
X120776842Y-69517932D01*
X121063740Y-69575000D01*
X121356260Y-69575000D01*
X121643158Y-69517932D01*
X121913411Y-69405990D01*
X122156632Y-69243475D01*
X122363475Y-69036632D01*
X122479311Y-68863271D01*
X122721603Y-68938792D01*
X123570395Y-68090000D01*
X122721603Y-67241208D01*
X122529306Y-67301146D01*
X122543642Y-67253887D01*
X122554526Y-67143368D01*
X122555000Y-67138560D01*
X122555000Y-67138556D01*
X122556464Y-67123694D01*
X122744680Y-66935478D01*
X122810150Y-66970472D01*
%TA.AperFunction,Conductor*%
D26*
G36*
X122810150Y-66970472D02*
G01*
X122919293Y-67003580D01*
X122901208Y-67061603D01*
X123750000Y-67910395D01*
X123764143Y-67896253D01*
X123943748Y-68075858D01*
X123929605Y-68090000D01*
X123943748Y-68104143D01*
X123764143Y-68283748D01*
X123750000Y-68269605D01*
X122901208Y-69118397D01*
X122978843Y-69367472D01*
X123086866Y-69418979D01*
X120570845Y-71935000D01*
X119238711Y-71935000D01*
X119219774Y-71916063D01*
X119050256Y-71802795D01*
X118861898Y-71724774D01*
X118661939Y-71685000D01*
X118635158Y-71685000D01*
X116915000Y-69964843D01*
X116915000Y-69351474D01*
X117076632Y-69243475D01*
X117283475Y-69036632D01*
X117400000Y-68862240D01*
X117516525Y-69036632D01*
X117723368Y-69243475D01*
X117966589Y-69405990D01*
X118236842Y-69517932D01*
X118523740Y-69575000D01*
X118816260Y-69575000D01*
X119103158Y-69517932D01*
X119373411Y-69405990D01*
X119616632Y-69243475D01*
X119823475Y-69036632D01*
X119940000Y-68862240D01*
X120056525Y-69036632D01*
X120263368Y-69243475D01*
X120506589Y-69405990D01*
X120776842Y-69517932D01*
X121063740Y-69575000D01*
X121356260Y-69575000D01*
X121643158Y-69517932D01*
X121913411Y-69405990D01*
X122156632Y-69243475D01*
X122363475Y-69036632D01*
X122479311Y-68863271D01*
X122721603Y-68938792D01*
X123570395Y-68090000D01*
X122721603Y-67241208D01*
X122529306Y-67301146D01*
X122543642Y-67253887D01*
X122554526Y-67143368D01*
X122555000Y-67138560D01*
X122555000Y-67138556D01*
X122556464Y-67123694D01*
X122744680Y-66935478D01*
X122810150Y-66970472D01*
G37*
%TD.AperFunction*%
%TD*%
M02*
