M48
; DRILL file {KiCad 5.1.10} date Fri Nov 19 19:09:27 2021
; FORMAT={-:-/ absolute / inch / decimal}
; #@! TF.CreationDate,2021-11-19T19:09:27+01:00
; #@! TF.GenerationSoftware,Kicad,Pcbnew,5.1.10
FMAT,2
INCH
T1C0.0157
T2C0.0236
T3C0.0315
T4C0.0350
T5C0.0354
T6C0.0394
T7C0.1260
T8C0.0630
T9C0.1260
%
G90
G05
T1
X4.1016Y-4.2575
X4.1461Y-2.9382
X4.1689Y-3.5587
X4.3925Y-2.8634
X4.402Y-3.0063
X4.437Y-4.5937
X4.6563Y-3.1539
X4.6677Y-2.863
X4.7874Y-4.1181
X4.8346Y-4.2126
X4.8724Y-2.4508
X4.9406Y-2.6335
X4.9539Y-3.2744
X4.9539Y-3.3246
X4.9539Y-3.3748
X4.9681Y-2.7114
X5.1043Y-2.7142
X5.1969Y-2.9252
X5.5331Y-2.8681
X5.6492Y-3.15
X5.6646Y-3.4744
X5.7283Y-4.0984
X5.7283Y-4.1417
X5.7409Y-3.1496
X5.7476Y-2.8697
X5.7874Y-2.8701
X5.8268Y-2.8701
X5.9744Y-3.3587
X6.1673Y-3.4969
X6.3878Y-3.461
X6.4929Y-3.5795
X6.676Y-3.1079
X6.7142Y-3.4598
T2
X5.6969Y-3.3268
X5.6969Y-3.3858
T3
X3.8642Y-3.6748
X3.8642Y-4.0748
X4.9016Y-2.9724
X4.9016Y-3.1102
X5.3016Y-2.9724
X5.3016Y-3.1102
T4
X4.2362Y-4.5
X4.2862Y-4.4
X4.3362Y-4.5
X4.3862Y-4.4
X4.4362Y-4.5
X4.4862Y-4.4
X4.5362Y-4.5
X4.5862Y-4.4
X4.7862Y-4.5
X4.8362Y-4.4
X4.8862Y-4.5
X4.9362Y-4.4
X4.9862Y-4.5
X5.0362Y-4.4
X5.0862Y-4.5
X5.1362Y-4.4
X5.3362Y-4.5
X5.3862Y-4.4
X5.4362Y-4.5
X5.4862Y-4.4
X5.5362Y-4.5
X5.5862Y-4.4
X5.6362Y-4.5
X5.6862Y-4.4
X5.8862Y-4.5
X5.9362Y-4.4
X5.9862Y-4.5
X6.0362Y-4.4
X6.0862Y-4.5
X6.1362Y-4.4
X6.1862Y-4.5
X6.2362Y-4.4
T5
X4.1063Y-4.1142
X4.2063Y-4.1142
T6
X3.8819Y-3.0551
X3.8819Y-3.1551
X3.8819Y-3.2551
X3.8819Y-3.3551
X3.9819Y-3.0551
X3.9819Y-3.1551
X3.9819Y-3.2551
X3.9819Y-3.3551
X4.1201Y-3.7386
X4.1201Y-3.8386
X4.2201Y-3.7386
X4.2201Y-3.8386
X4.3949Y-3.2665
X4.3949Y-3.3665
X4.4949Y-3.2665
X4.4949Y-3.3665
X4.572Y-2.5807
X4.572Y-2.6807
X4.5949Y-3.2665
X4.5949Y-3.3665
X4.672Y-2.5807
X4.672Y-2.6807
X4.6949Y-3.2665
X4.6949Y-3.3665
X4.772Y-2.5807
X4.772Y-2.6807
X4.872Y-2.5807
X4.872Y-2.6807
X5.4075Y-2.5787
X5.4075Y-2.6787
X5.5075Y-2.5787
X5.5075Y-2.6787
X5.6075Y-2.5787
X5.6075Y-2.6787
X5.7075Y-2.5787
X5.7075Y-2.6787
X5.8075Y-2.5787
X5.8075Y-2.6787
X5.9075Y-2.5787
X5.9075Y-2.6787
X5.9724Y-3.1319
X5.9724Y-3.2319
X6.1274Y-3.1341
X6.1274Y-3.2341
X6.2598Y-3.7386
X6.2598Y-3.8386
X6.3598Y-3.7386
X6.3598Y-3.8386
X6.4906Y-3.0543
X6.4906Y-3.1543
X6.4906Y-3.2543
X6.4906Y-3.3543
X6.5906Y-3.0543
X6.5906Y-3.1543
X6.5906Y-3.2543
X6.5906Y-3.3543
T7
X3.8583Y-2.5591
X3.8583Y-4.7244
X6.6142Y-2.5591
X6.6142Y-4.7244
T8
X4.0772Y-4.895
X4.6862Y-4.35
X5.2362Y-4.35
X5.7862Y-4.35
X6.3952Y-4.895
T9
X4.1862Y-4.75
X6.2862Y-4.75
T0
M30
