%TF.GenerationSoftware,KiCad,Pcbnew,(6.0.4)*%
%TF.CreationDate,2022-04-04T21:54:52+02:00*%
%TF.ProjectId,MCU_INTERFACE_BOARD,4d43555f-494e-4544-9552-464143455f42,rev?*%
%TF.SameCoordinates,Original*%
%TF.FileFunction,Legend,Bot*%
%TF.FilePolarity,Positive*%
%FSLAX46Y46*%
G04 Gerber Fmt 4.6, Leading zero omitted, Abs format (unit mm)*
G04 Created by KiCad (PCBNEW (6.0.4)) date 2022-04-04 21:54:52*
%MOMM*%
%LPD*%
G01*
G04 APERTURE LIST*
G04 Aperture macros list*
%AMRoundRect*
0 Rectangle with rounded corners*
0 $1 Rounding radius*
0 $2 $3 $4 $5 $6 $7 $8 $9 X,Y pos of 4 corners*
0 Add a 4 corners polygon primitive as box body*
4,1,4,$2,$3,$4,$5,$6,$7,$8,$9,$2,$3,0*
0 Add four circle primitives for the rounded corners*
1,1,$1+$1,$2,$3*
1,1,$1+$1,$4,$5*
1,1,$1+$1,$6,$7*
1,1,$1+$1,$8,$9*
0 Add four rect primitives between the rounded corners*
20,1,$1+$1,$2,$3,$4,$5,0*
20,1,$1+$1,$4,$5,$6,$7,0*
20,1,$1+$1,$6,$7,$8,$9,0*
20,1,$1+$1,$8,$9,$2,$3,0*%
G04 Aperture macros list end*
%ADD10C,0.150000*%
%ADD11C,0.070000*%
%ADD12C,0.180000*%
%ADD13C,0.120000*%
%ADD14C,0.110000*%
%ADD15C,0.125000*%
%ADD16R,2.400000X2.400000*%
%ADD17C,2.400000*%
%ADD18C,5.600000*%
%ADD19R,1.700000X1.700000*%
%ADD20O,1.700000X1.700000*%
%ADD21RoundRect,0.250000X-0.600000X-0.600000X0.600000X-0.600000X0.600000X0.600000X-0.600000X0.600000X0*%
%ADD22C,1.700000*%
%ADD23RoundRect,0.250000X0.600000X0.600000X-0.600000X0.600000X-0.600000X-0.600000X0.600000X-0.600000X0*%
%ADD24C,1.600000*%
%ADD25O,1.600000X1.600000*%
%ADD26R,1.800000X1.800000*%
%ADD27C,1.800000*%
G04 APERTURE END LIST*
D10*
X104947619Y-132042857D02*
X104947619Y-132614285D01*
X104947619Y-132328571D02*
X105947619Y-132328571D01*
X105804761Y-132423809D01*
X105709523Y-132519047D01*
X105661904Y-132614285D01*
X104947619Y-131090476D02*
X104947619Y-131661904D01*
X104947619Y-131376190D02*
X105947619Y-131376190D01*
X105804761Y-131471428D01*
X105709523Y-131566666D01*
X105661904Y-131661904D01*
X105042857Y-130661904D02*
X104995238Y-130614285D01*
X104947619Y-130661904D01*
X104995238Y-130709523D01*
X105042857Y-130661904D01*
X104947619Y-130661904D01*
X105519047Y-130042857D02*
X105566666Y-130138095D01*
X105614285Y-130185714D01*
X105709523Y-130233333D01*
X105757142Y-130233333D01*
X105852380Y-130185714D01*
X105900000Y-130138095D01*
X105947619Y-130042857D01*
X105947619Y-129852380D01*
X105900000Y-129757142D01*
X105852380Y-129709523D01*
X105757142Y-129661904D01*
X105709523Y-129661904D01*
X105614285Y-129709523D01*
X105566666Y-129757142D01*
X105519047Y-129852380D01*
X105519047Y-130042857D01*
X105471428Y-130138095D01*
X105423809Y-130185714D01*
X105328571Y-130233333D01*
X105138095Y-130233333D01*
X105042857Y-130185714D01*
X104995238Y-130138095D01*
X104947619Y-130042857D01*
X104947619Y-129852380D01*
X104995238Y-129757142D01*
X105042857Y-129709523D01*
X105138095Y-129661904D01*
X105328571Y-129661904D01*
X105423809Y-129709523D01*
X105471428Y-129757142D01*
X105519047Y-129852380D01*
X104947619Y-128471428D02*
X105614285Y-128471428D01*
X105519047Y-128471428D02*
X105566666Y-128423809D01*
X105614285Y-128328571D01*
X105614285Y-128185714D01*
X105566666Y-128090476D01*
X105471428Y-128042857D01*
X104947619Y-128042857D01*
X105471428Y-128042857D02*
X105566666Y-127995238D01*
X105614285Y-127900000D01*
X105614285Y-127757142D01*
X105566666Y-127661904D01*
X105471428Y-127614285D01*
X104947619Y-127614285D01*
X104947619Y-127138095D02*
X105614285Y-127138095D01*
X105519047Y-127138095D02*
X105566666Y-127090476D01*
X105614285Y-126995238D01*
X105614285Y-126852380D01*
X105566666Y-126757142D01*
X105471428Y-126709523D01*
X104947619Y-126709523D01*
X105471428Y-126709523D02*
X105566666Y-126661904D01*
X105614285Y-126566666D01*
X105614285Y-126423809D01*
X105566666Y-126328571D01*
X105471428Y-126280952D01*
X104947619Y-126280952D01*
X105947619Y-125185714D02*
X105947619Y-124614285D01*
X104947619Y-124900000D02*
X105947619Y-124900000D01*
X105947619Y-124090476D02*
X105947619Y-123900000D01*
X105900000Y-123804761D01*
X105804761Y-123709523D01*
X105614285Y-123661904D01*
X105280952Y-123661904D01*
X105090476Y-123709523D01*
X104995238Y-123804761D01*
X104947619Y-123900000D01*
X104947619Y-124090476D01*
X104995238Y-124185714D01*
X105090476Y-124280952D01*
X105280952Y-124328571D01*
X105614285Y-124328571D01*
X105804761Y-124280952D01*
X105900000Y-124185714D01*
X105947619Y-124090476D01*
X105471428Y-122138095D02*
X105471428Y-122471428D01*
X104947619Y-122471428D02*
X105947619Y-122471428D01*
X105947619Y-121995238D01*
X104947619Y-121042857D02*
X105423809Y-121376190D01*
X104947619Y-121614285D02*
X105947619Y-121614285D01*
X105947619Y-121233333D01*
X105900000Y-121138095D01*
X105852380Y-121090476D01*
X105757142Y-121042857D01*
X105614285Y-121042857D01*
X105519047Y-121090476D01*
X105471428Y-121138095D01*
X105423809Y-121233333D01*
X105423809Y-121614285D01*
X105947619Y-120423809D02*
X105947619Y-120233333D01*
X105900000Y-120138095D01*
X105804761Y-120042857D01*
X105614285Y-119995238D01*
X105280952Y-119995238D01*
X105090476Y-120042857D01*
X104995238Y-120138095D01*
X104947619Y-120233333D01*
X104947619Y-120423809D01*
X104995238Y-120519047D01*
X105090476Y-120614285D01*
X105280952Y-120661904D01*
X105614285Y-120661904D01*
X105804761Y-120614285D01*
X105900000Y-120519047D01*
X105947619Y-120423809D01*
X104947619Y-119566666D02*
X105947619Y-119566666D01*
X104947619Y-118995238D01*
X105947619Y-118995238D01*
X105947619Y-118661904D02*
X105947619Y-118090476D01*
X104947619Y-118376190D02*
X105947619Y-118376190D01*
D11*
X171447619Y-132952380D02*
X171447619Y-133666666D01*
X171466666Y-133809523D01*
X171504761Y-133904761D01*
X171561904Y-133952380D01*
X171600000Y-133952380D01*
X171066666Y-133952380D02*
X171257142Y-133952380D01*
X171257142Y-132952380D01*
X170704761Y-133857142D02*
X170723809Y-133904761D01*
X170780952Y-133952380D01*
X170819047Y-133952380D01*
X170876190Y-133904761D01*
X170914285Y-133809523D01*
X170933333Y-133714285D01*
X170952380Y-133523809D01*
X170952380Y-133380952D01*
X170933333Y-133190476D01*
X170914285Y-133095238D01*
X170876190Y-133000000D01*
X170819047Y-132952380D01*
X170780952Y-132952380D01*
X170723809Y-133000000D01*
X170704761Y-133047619D01*
X170419047Y-132952380D02*
X170419047Y-133666666D01*
X170438095Y-133809523D01*
X170476190Y-133904761D01*
X170533333Y-133952380D01*
X170571428Y-133952380D01*
X170038095Y-133952380D02*
X170228571Y-133952380D01*
X170228571Y-132952380D01*
X169676190Y-133857142D02*
X169695238Y-133904761D01*
X169752380Y-133952380D01*
X169790476Y-133952380D01*
X169847619Y-133904761D01*
X169885714Y-133809523D01*
X169904761Y-133714285D01*
X169923809Y-133523809D01*
X169923809Y-133380952D01*
X169904761Y-133190476D01*
X169885714Y-133095238D01*
X169847619Y-133000000D01*
X169790476Y-132952380D01*
X169752380Y-132952380D01*
X169695238Y-133000000D01*
X169676190Y-133047619D01*
X169390476Y-132952380D02*
X169390476Y-133666666D01*
X169409523Y-133809523D01*
X169447619Y-133904761D01*
X169504761Y-133952380D01*
X169542857Y-133952380D01*
X169009523Y-133952380D02*
X169200000Y-133952380D01*
X169200000Y-132952380D01*
X168647619Y-133857142D02*
X168666666Y-133904761D01*
X168723809Y-133952380D01*
X168761904Y-133952380D01*
X168819047Y-133904761D01*
X168857142Y-133809523D01*
X168876190Y-133714285D01*
X168895238Y-133523809D01*
X168895238Y-133380952D01*
X168876190Y-133190476D01*
X168857142Y-133095238D01*
X168819047Y-133000000D01*
X168761904Y-132952380D01*
X168723809Y-132952380D01*
X168666666Y-133000000D01*
X168647619Y-133047619D01*
X168361904Y-132952380D02*
X168361904Y-133666666D01*
X168380952Y-133809523D01*
X168419047Y-133904761D01*
X168476190Y-133952380D01*
X168514285Y-133952380D01*
X167980952Y-133952380D02*
X168171428Y-133952380D01*
X168171428Y-132952380D01*
X167619047Y-133857142D02*
X167638095Y-133904761D01*
X167695238Y-133952380D01*
X167733333Y-133952380D01*
X167790476Y-133904761D01*
X167828571Y-133809523D01*
X167847619Y-133714285D01*
X167866666Y-133523809D01*
X167866666Y-133380952D01*
X167847619Y-133190476D01*
X167828571Y-133095238D01*
X167790476Y-133000000D01*
X167733333Y-132952380D01*
X167695238Y-132952380D01*
X167638095Y-133000000D01*
X167619047Y-133047619D01*
D12*
X125717500Y-96857500D02*
X125784166Y-96981309D01*
X125784166Y-97167023D01*
X125717500Y-97352738D01*
X125584166Y-97476547D01*
X125450833Y-97538452D01*
X125184166Y-97600357D01*
X124984166Y-97600357D01*
X124717500Y-97538452D01*
X124584166Y-97476547D01*
X124450833Y-97352738D01*
X124384166Y-97167023D01*
X124384166Y-97043214D01*
X124450833Y-96857500D01*
X124517500Y-96795595D01*
X124984166Y-96795595D01*
X124984166Y-97043214D01*
X124384166Y-96238452D02*
X125784166Y-96238452D01*
X125784166Y-95743214D01*
X125717500Y-95619404D01*
X125650833Y-95557500D01*
X125517500Y-95495595D01*
X125317500Y-95495595D01*
X125184166Y-95557500D01*
X125117500Y-95619404D01*
X125050833Y-95743214D01*
X125050833Y-96238452D01*
X124384166Y-94938452D02*
X125784166Y-94938452D01*
X125784166Y-94071785D02*
X125784166Y-93824166D01*
X125717500Y-93700357D01*
X125584166Y-93576547D01*
X125317500Y-93514642D01*
X124850833Y-93514642D01*
X124584166Y-93576547D01*
X124450833Y-93700357D01*
X124384166Y-93824166D01*
X124384166Y-94071785D01*
X124450833Y-94195595D01*
X124584166Y-94319404D01*
X124850833Y-94381309D01*
X125317500Y-94381309D01*
X125584166Y-94319404D01*
X125717500Y-94195595D01*
X125784166Y-94071785D01*
X131407142Y-130500000D02*
X131221428Y-130566666D01*
X131159523Y-130633333D01*
X131097619Y-130766666D01*
X131097619Y-130966666D01*
X131159523Y-131100000D01*
X131221428Y-131166666D01*
X131345238Y-131233333D01*
X131840476Y-131233333D01*
X131840476Y-129833333D01*
X131407142Y-129833333D01*
X131283333Y-129900000D01*
X131221428Y-129966666D01*
X131159523Y-130100000D01*
X131159523Y-130233333D01*
X131221428Y-130366666D01*
X131283333Y-130433333D01*
X131407142Y-130500000D01*
X131840476Y-130500000D01*
X130540476Y-129833333D02*
X130540476Y-130966666D01*
X130478571Y-131100000D01*
X130416666Y-131166666D01*
X130292857Y-131233333D01*
X130045238Y-131233333D01*
X129921428Y-131166666D01*
X129859523Y-131100000D01*
X129797619Y-130966666D01*
X129797619Y-129833333D01*
X129240476Y-131166666D02*
X129054761Y-131233333D01*
X128745238Y-131233333D01*
X128621428Y-131166666D01*
X128559523Y-131100000D01*
X128497619Y-130966666D01*
X128497619Y-130833333D01*
X128559523Y-130700000D01*
X128621428Y-130633333D01*
X128745238Y-130566666D01*
X128992857Y-130500000D01*
X129116666Y-130433333D01*
X129178571Y-130366666D01*
X129240476Y-130233333D01*
X129240476Y-130100000D01*
X129178571Y-129966666D01*
X129116666Y-129900000D01*
X128992857Y-129833333D01*
X128683333Y-129833333D01*
X128497619Y-129900000D01*
X139916666Y-116500000D02*
X139978571Y-116566666D01*
X140164285Y-116633333D01*
X140288095Y-116633333D01*
X140473809Y-116566666D01*
X140597619Y-116433333D01*
X140659523Y-116300000D01*
X140721428Y-116033333D01*
X140721428Y-115833333D01*
X140659523Y-115566666D01*
X140597619Y-115433333D01*
X140473809Y-115300000D01*
X140288095Y-115233333D01*
X140164285Y-115233333D01*
X139978571Y-115300000D01*
X139916666Y-115366666D01*
X139111904Y-115233333D02*
X138864285Y-115233333D01*
X138740476Y-115300000D01*
X138616666Y-115433333D01*
X138554761Y-115700000D01*
X138554761Y-116166666D01*
X138616666Y-116433333D01*
X138740476Y-116566666D01*
X138864285Y-116633333D01*
X139111904Y-116633333D01*
X139235714Y-116566666D01*
X139359523Y-116433333D01*
X139421428Y-116166666D01*
X139421428Y-115700000D01*
X139359523Y-115433333D01*
X139235714Y-115300000D01*
X139111904Y-115233333D01*
X137997619Y-116633333D02*
X137997619Y-115233333D01*
X137254761Y-116633333D01*
X137254761Y-115233333D01*
X136635714Y-116633333D02*
X136635714Y-115233333D01*
X135892857Y-116633333D01*
X135892857Y-115233333D01*
X135273809Y-115900000D02*
X134840476Y-115900000D01*
X134654761Y-116633333D02*
X135273809Y-116633333D01*
X135273809Y-115233333D01*
X134654761Y-115233333D01*
X133354761Y-116500000D02*
X133416666Y-116566666D01*
X133602380Y-116633333D01*
X133726190Y-116633333D01*
X133911904Y-116566666D01*
X134035714Y-116433333D01*
X134097619Y-116300000D01*
X134159523Y-116033333D01*
X134159523Y-115833333D01*
X134097619Y-115566666D01*
X134035714Y-115433333D01*
X133911904Y-115300000D01*
X133726190Y-115233333D01*
X133602380Y-115233333D01*
X133416666Y-115300000D01*
X133354761Y-115366666D01*
X132983333Y-115233333D02*
X132240476Y-115233333D01*
X132611904Y-116633333D02*
X132611904Y-115233333D01*
X131559523Y-115233333D02*
X131311904Y-115233333D01*
X131188095Y-115300000D01*
X131064285Y-115433333D01*
X131002380Y-115700000D01*
X131002380Y-116166666D01*
X131064285Y-116433333D01*
X131188095Y-116566666D01*
X131311904Y-116633333D01*
X131559523Y-116633333D01*
X131683333Y-116566666D01*
X131807142Y-116433333D01*
X131869047Y-116166666D01*
X131869047Y-115700000D01*
X131807142Y-115433333D01*
X131683333Y-115300000D01*
X131559523Y-115233333D01*
X129702380Y-116633333D02*
X130135714Y-115966666D01*
X130445238Y-116633333D02*
X130445238Y-115233333D01*
X129950000Y-115233333D01*
X129826190Y-115300000D01*
X129764285Y-115366666D01*
X129702380Y-115500000D01*
X129702380Y-115700000D01*
X129764285Y-115833333D01*
X129826190Y-115900000D01*
X129950000Y-115966666D01*
X130445238Y-115966666D01*
X128154761Y-116633333D02*
X128154761Y-115233333D01*
X127659523Y-115233333D01*
X127535714Y-115300000D01*
X127473809Y-115366666D01*
X127411904Y-115500000D01*
X127411904Y-115700000D01*
X127473809Y-115833333D01*
X127535714Y-115900000D01*
X127659523Y-115966666D01*
X128154761Y-115966666D01*
X126854761Y-116633333D02*
X126854761Y-115233333D01*
X126235714Y-116633333D02*
X126235714Y-115233333D01*
X125492857Y-116633333D01*
X125492857Y-115233333D01*
X124626190Y-115233333D02*
X124378571Y-115233333D01*
X124254761Y-115300000D01*
X124130952Y-115433333D01*
X124069047Y-115700000D01*
X124069047Y-116166666D01*
X124130952Y-116433333D01*
X124254761Y-116566666D01*
X124378571Y-116633333D01*
X124626190Y-116633333D01*
X124750000Y-116566666D01*
X124873809Y-116433333D01*
X124935714Y-116166666D01*
X124935714Y-115700000D01*
X124873809Y-115433333D01*
X124750000Y-115300000D01*
X124626190Y-115233333D01*
X123511904Y-115233333D02*
X123511904Y-116366666D01*
X123450000Y-116500000D01*
X123388095Y-116566666D01*
X123264285Y-116633333D01*
X123016666Y-116633333D01*
X122892857Y-116566666D01*
X122830952Y-116500000D01*
X122769047Y-116366666D01*
X122769047Y-115233333D01*
X122335714Y-115233333D02*
X121592857Y-115233333D01*
X121964285Y-116633333D02*
X121964285Y-115233333D01*
X121221428Y-116566666D02*
X121035714Y-116633333D01*
X120726190Y-116633333D01*
X120602380Y-116566666D01*
X120540476Y-116500000D01*
X120478571Y-116366666D01*
X120478571Y-116233333D01*
X120540476Y-116100000D01*
X120602380Y-116033333D01*
X120726190Y-115966666D01*
X120973809Y-115900000D01*
X121097619Y-115833333D01*
X121159523Y-115766666D01*
X121221428Y-115633333D01*
X121221428Y-115500000D01*
X121159523Y-115366666D01*
X121097619Y-115300000D01*
X120973809Y-115233333D01*
X120664285Y-115233333D01*
X120478571Y-115300000D01*
D10*
X172952380Y-97404761D02*
X172952380Y-96928571D01*
X173428571Y-96880952D01*
X173380952Y-96928571D01*
X173333333Y-97023809D01*
X173333333Y-97261904D01*
X173380952Y-97357142D01*
X173428571Y-97404761D01*
X173523809Y-97452380D01*
X173761904Y-97452380D01*
X173857142Y-97404761D01*
X173904761Y-97357142D01*
X173952380Y-97261904D01*
X173952380Y-97023809D01*
X173904761Y-96928571D01*
X173857142Y-96880952D01*
X172952380Y-98357142D02*
X172952380Y-97880952D01*
X173428571Y-97833333D01*
X173380952Y-97880952D01*
X173333333Y-97976190D01*
X173333333Y-98214285D01*
X173380952Y-98309523D01*
X173428571Y-98357142D01*
X173523809Y-98404761D01*
X173761904Y-98404761D01*
X173857142Y-98357142D01*
X173904761Y-98309523D01*
X173952380Y-98214285D01*
X173952380Y-97976190D01*
X173904761Y-97880952D01*
X173857142Y-97833333D01*
X173857142Y-98833333D02*
X173904761Y-98880952D01*
X173952380Y-98833333D01*
X173904761Y-98785714D01*
X173857142Y-98833333D01*
X173952380Y-98833333D01*
X172952380Y-99500000D02*
X172952380Y-99595238D01*
X173000000Y-99690476D01*
X173047619Y-99738095D01*
X173142857Y-99785714D01*
X173333333Y-99833333D01*
X173571428Y-99833333D01*
X173761904Y-99785714D01*
X173857142Y-99738095D01*
X173904761Y-99690476D01*
X173952380Y-99595238D01*
X173952380Y-99500000D01*
X173904761Y-99404761D01*
X173857142Y-99357142D01*
X173761904Y-99309523D01*
X173571428Y-99261904D01*
X173333333Y-99261904D01*
X173142857Y-99309523D01*
X173047619Y-99357142D01*
X173000000Y-99404761D01*
X172952380Y-99500000D01*
X172952380Y-100452380D02*
X172952380Y-100547619D01*
X173000000Y-100642857D01*
X173047619Y-100690476D01*
X173142857Y-100738095D01*
X173333333Y-100785714D01*
X173571428Y-100785714D01*
X173761904Y-100738095D01*
X173857142Y-100690476D01*
X173904761Y-100642857D01*
X173952380Y-100547619D01*
X173952380Y-100452380D01*
X173904761Y-100357142D01*
X173857142Y-100309523D01*
X173761904Y-100261904D01*
X173571428Y-100214285D01*
X173333333Y-100214285D01*
X173142857Y-100261904D01*
X173047619Y-100309523D01*
X173000000Y-100357142D01*
X172952380Y-100452380D01*
X172952380Y-101404761D02*
X172952380Y-101500000D01*
X173000000Y-101595238D01*
X173047619Y-101642857D01*
X173142857Y-101690476D01*
X173333333Y-101738095D01*
X173571428Y-101738095D01*
X173761904Y-101690476D01*
X173857142Y-101642857D01*
X173904761Y-101595238D01*
X173952380Y-101500000D01*
X173952380Y-101404761D01*
X173904761Y-101309523D01*
X173857142Y-101261904D01*
X173761904Y-101214285D01*
X173571428Y-101166666D01*
X173333333Y-101166666D01*
X173142857Y-101214285D01*
X173047619Y-101261904D01*
X173000000Y-101309523D01*
X172952380Y-101404761D01*
X172952380Y-102357142D02*
X172952380Y-102452380D01*
X173000000Y-102547619D01*
X173047619Y-102595238D01*
X173142857Y-102642857D01*
X173333333Y-102690476D01*
X173571428Y-102690476D01*
X173761904Y-102642857D01*
X173857142Y-102595238D01*
X173904761Y-102547619D01*
X173952380Y-102452380D01*
X173952380Y-102357142D01*
X173904761Y-102261904D01*
X173857142Y-102214285D01*
X173761904Y-102166666D01*
X173571428Y-102119047D01*
X173333333Y-102119047D01*
X173142857Y-102166666D01*
X173047619Y-102214285D01*
X173000000Y-102261904D01*
X172952380Y-102357142D01*
X173952380Y-103880952D02*
X173285714Y-103880952D01*
X173380952Y-103880952D02*
X173333333Y-103928571D01*
X173285714Y-104023809D01*
X173285714Y-104166666D01*
X173333333Y-104261904D01*
X173428571Y-104309523D01*
X173952380Y-104309523D01*
X173428571Y-104309523D02*
X173333333Y-104357142D01*
X173285714Y-104452380D01*
X173285714Y-104595238D01*
X173333333Y-104690476D01*
X173428571Y-104738095D01*
X173952380Y-104738095D01*
X173952380Y-105214285D02*
X173285714Y-105214285D01*
X173380952Y-105214285D02*
X173333333Y-105261904D01*
X173285714Y-105357142D01*
X173285714Y-105500000D01*
X173333333Y-105595238D01*
X173428571Y-105642857D01*
X173952380Y-105642857D01*
X173428571Y-105642857D02*
X173333333Y-105690476D01*
X173285714Y-105785714D01*
X173285714Y-105928571D01*
X173333333Y-106023809D01*
X173428571Y-106071428D01*
X173952380Y-106071428D01*
D13*
X169900000Y-74000000D02*
X174186420Y-74000000D01*
X169900000Y-129000000D02*
X174186420Y-129000000D01*
X173600000Y-74000000D02*
X173600000Y-96115476D01*
X173600000Y-106884524D02*
X173600000Y-129000000D01*
X173600000Y-74000000D02*
X173013579Y-75126504D01*
X173600000Y-74000000D02*
X174186421Y-75126504D01*
X173600000Y-129000000D02*
X174186421Y-127873496D01*
X173600000Y-129000000D02*
X173013579Y-127873496D01*
D10*
X143542857Y-69652380D02*
X143733333Y-69652380D01*
X143828571Y-69700000D01*
X143876190Y-69747619D01*
X143971428Y-69890476D01*
X144019047Y-70080952D01*
X144019047Y-70461904D01*
X143971428Y-70557142D01*
X143923809Y-70604761D01*
X143828571Y-70652380D01*
X143638095Y-70652380D01*
X143542857Y-70604761D01*
X143495238Y-70557142D01*
X143447619Y-70461904D01*
X143447619Y-70223809D01*
X143495238Y-70128571D01*
X143542857Y-70080952D01*
X143638095Y-70033333D01*
X143828571Y-70033333D01*
X143923809Y-70080952D01*
X143971428Y-70128571D01*
X144019047Y-70223809D01*
X142828571Y-69652380D02*
X142733333Y-69652380D01*
X142638095Y-69700000D01*
X142590476Y-69747619D01*
X142542857Y-69842857D01*
X142495238Y-70033333D01*
X142495238Y-70271428D01*
X142542857Y-70461904D01*
X142590476Y-70557142D01*
X142638095Y-70604761D01*
X142733333Y-70652380D01*
X142828571Y-70652380D01*
X142923809Y-70604761D01*
X142971428Y-70557142D01*
X143019047Y-70461904D01*
X143066666Y-70271428D01*
X143066666Y-70033333D01*
X143019047Y-69842857D01*
X142971428Y-69747619D01*
X142923809Y-69700000D01*
X142828571Y-69652380D01*
X142066666Y-70557142D02*
X142019047Y-70604761D01*
X142066666Y-70652380D01*
X142114285Y-70604761D01*
X142066666Y-70557142D01*
X142066666Y-70652380D01*
X141400000Y-69652380D02*
X141304761Y-69652380D01*
X141209523Y-69700000D01*
X141161904Y-69747619D01*
X141114285Y-69842857D01*
X141066666Y-70033333D01*
X141066666Y-70271428D01*
X141114285Y-70461904D01*
X141161904Y-70557142D01*
X141209523Y-70604761D01*
X141304761Y-70652380D01*
X141400000Y-70652380D01*
X141495238Y-70604761D01*
X141542857Y-70557142D01*
X141590476Y-70461904D01*
X141638095Y-70271428D01*
X141638095Y-70033333D01*
X141590476Y-69842857D01*
X141542857Y-69747619D01*
X141495238Y-69700000D01*
X141400000Y-69652380D01*
X140447619Y-69652380D02*
X140352380Y-69652380D01*
X140257142Y-69700000D01*
X140209523Y-69747619D01*
X140161904Y-69842857D01*
X140114285Y-70033333D01*
X140114285Y-70271428D01*
X140161904Y-70461904D01*
X140209523Y-70557142D01*
X140257142Y-70604761D01*
X140352380Y-70652380D01*
X140447619Y-70652380D01*
X140542857Y-70604761D01*
X140590476Y-70557142D01*
X140638095Y-70461904D01*
X140685714Y-70271428D01*
X140685714Y-70033333D01*
X140638095Y-69842857D01*
X140590476Y-69747619D01*
X140542857Y-69700000D01*
X140447619Y-69652380D01*
X139495238Y-69652380D02*
X139400000Y-69652380D01*
X139304761Y-69700000D01*
X139257142Y-69747619D01*
X139209523Y-69842857D01*
X139161904Y-70033333D01*
X139161904Y-70271428D01*
X139209523Y-70461904D01*
X139257142Y-70557142D01*
X139304761Y-70604761D01*
X139400000Y-70652380D01*
X139495238Y-70652380D01*
X139590476Y-70604761D01*
X139638095Y-70557142D01*
X139685714Y-70461904D01*
X139733333Y-70271428D01*
X139733333Y-70033333D01*
X139685714Y-69842857D01*
X139638095Y-69747619D01*
X139590476Y-69700000D01*
X139495238Y-69652380D01*
X138542857Y-69652380D02*
X138447619Y-69652380D01*
X138352380Y-69700000D01*
X138304761Y-69747619D01*
X138257142Y-69842857D01*
X138209523Y-70033333D01*
X138209523Y-70271428D01*
X138257142Y-70461904D01*
X138304761Y-70557142D01*
X138352380Y-70604761D01*
X138447619Y-70652380D01*
X138542857Y-70652380D01*
X138638095Y-70604761D01*
X138685714Y-70557142D01*
X138733333Y-70461904D01*
X138780952Y-70271428D01*
X138780952Y-70033333D01*
X138733333Y-69842857D01*
X138685714Y-69747619D01*
X138638095Y-69700000D01*
X138542857Y-69652380D01*
X137019047Y-70652380D02*
X137019047Y-69985714D01*
X137019047Y-70080952D02*
X136971428Y-70033333D01*
X136876190Y-69985714D01*
X136733333Y-69985714D01*
X136638095Y-70033333D01*
X136590476Y-70128571D01*
X136590476Y-70652380D01*
X136590476Y-70128571D02*
X136542857Y-70033333D01*
X136447619Y-69985714D01*
X136304761Y-69985714D01*
X136209523Y-70033333D01*
X136161904Y-70128571D01*
X136161904Y-70652380D01*
X135685714Y-70652380D02*
X135685714Y-69985714D01*
X135685714Y-70080952D02*
X135638095Y-70033333D01*
X135542857Y-69985714D01*
X135400000Y-69985714D01*
X135304761Y-70033333D01*
X135257142Y-70128571D01*
X135257142Y-70652380D01*
X135257142Y-70128571D02*
X135209523Y-70033333D01*
X135114285Y-69985714D01*
X134971428Y-69985714D01*
X134876190Y-70033333D01*
X134828571Y-70128571D01*
X134828571Y-70652380D01*
D13*
X109400000Y-73500000D02*
X109400000Y-69613580D01*
X169400000Y-73500000D02*
X169400000Y-69613580D01*
X109400000Y-70200000D02*
X134015476Y-70200000D01*
X144784524Y-70200000D02*
X169400000Y-70200000D01*
X109400000Y-70200000D02*
X110526504Y-70786421D01*
X109400000Y-70200000D02*
X110526504Y-69613579D01*
X169400000Y-70200000D02*
X168273496Y-69613579D01*
X169400000Y-70200000D02*
X168273496Y-70786421D01*
D14*
X133967500Y-98391891D02*
X134005595Y-98439510D01*
X134005595Y-98510939D01*
X133967500Y-98582367D01*
X133891309Y-98629986D01*
X133815119Y-98653796D01*
X133662738Y-98677606D01*
X133548452Y-98677606D01*
X133396071Y-98653796D01*
X133319880Y-98629986D01*
X133243690Y-98582367D01*
X133205595Y-98510939D01*
X133205595Y-98463320D01*
X133243690Y-98391891D01*
X133281785Y-98368082D01*
X133548452Y-98368082D01*
X133548452Y-98463320D01*
X133205595Y-98153796D02*
X134005595Y-98153796D01*
X134005595Y-97963320D01*
X133967500Y-97915701D01*
X133929404Y-97891891D01*
X133853214Y-97868082D01*
X133738928Y-97868082D01*
X133662738Y-97891891D01*
X133624642Y-97915701D01*
X133586547Y-97963320D01*
X133586547Y-98153796D01*
X133205595Y-97653796D02*
X134005595Y-97653796D01*
X134005595Y-97463320D02*
X134005595Y-97153796D01*
X133700833Y-97320463D01*
X133700833Y-97249034D01*
X133662738Y-97201415D01*
X133624642Y-97177606D01*
X133548452Y-97153796D01*
X133357976Y-97153796D01*
X133281785Y-97177606D01*
X133243690Y-97201415D01*
X133205595Y-97249034D01*
X133205595Y-97391891D01*
X133243690Y-97439510D01*
X133281785Y-97463320D01*
X134005595Y-96701415D02*
X134005595Y-96939510D01*
X133624642Y-96963320D01*
X133662738Y-96939510D01*
X133700833Y-96891891D01*
X133700833Y-96772844D01*
X133662738Y-96725225D01*
X133624642Y-96701415D01*
X133548452Y-96677606D01*
X133357976Y-96677606D01*
X133281785Y-96701415D01*
X133243690Y-96725225D01*
X133205595Y-96772844D01*
X133205595Y-96891891D01*
X133243690Y-96939510D01*
X133281785Y-96963320D01*
X133967500Y-101321785D02*
X134005595Y-101369404D01*
X134005595Y-101440833D01*
X133967500Y-101512261D01*
X133891309Y-101559880D01*
X133815119Y-101583690D01*
X133662738Y-101607500D01*
X133548452Y-101607500D01*
X133396071Y-101583690D01*
X133319880Y-101559880D01*
X133243690Y-101512261D01*
X133205595Y-101440833D01*
X133205595Y-101393214D01*
X133243690Y-101321785D01*
X133281785Y-101297976D01*
X133548452Y-101297976D01*
X133548452Y-101393214D01*
X133205595Y-101083690D02*
X134005595Y-101083690D01*
X134005595Y-100893214D01*
X133967500Y-100845595D01*
X133929404Y-100821785D01*
X133853214Y-100797976D01*
X133738928Y-100797976D01*
X133662738Y-100821785D01*
X133624642Y-100845595D01*
X133586547Y-100893214D01*
X133586547Y-101083690D01*
X133205595Y-100583690D02*
X134005595Y-100583690D01*
X134005595Y-100393214D02*
X134005595Y-100083690D01*
X133700833Y-100250357D01*
X133700833Y-100178928D01*
X133662738Y-100131309D01*
X133624642Y-100107500D01*
X133548452Y-100083690D01*
X133357976Y-100083690D01*
X133281785Y-100107500D01*
X133243690Y-100131309D01*
X133205595Y-100178928D01*
X133205595Y-100321785D01*
X133243690Y-100369404D01*
X133281785Y-100393214D01*
X134005595Y-99655119D02*
X134005595Y-99750357D01*
X133967500Y-99797976D01*
X133929404Y-99821785D01*
X133815119Y-99869404D01*
X133662738Y-99893214D01*
X133357976Y-99893214D01*
X133281785Y-99869404D01*
X133243690Y-99845595D01*
X133205595Y-99797976D01*
X133205595Y-99702738D01*
X133243690Y-99655119D01*
X133281785Y-99631309D01*
X133357976Y-99607500D01*
X133548452Y-99607500D01*
X133624642Y-99631309D01*
X133662738Y-99655119D01*
X133700833Y-99702738D01*
X133700833Y-99797976D01*
X133662738Y-99845595D01*
X133624642Y-99869404D01*
X133548452Y-99893214D01*
X133967500Y-83194801D02*
X134005595Y-83242420D01*
X134005595Y-83313849D01*
X133967500Y-83385277D01*
X133891309Y-83432896D01*
X133815119Y-83456706D01*
X133662738Y-83480515D01*
X133548452Y-83480515D01*
X133396071Y-83456706D01*
X133319880Y-83432896D01*
X133243690Y-83385277D01*
X133205595Y-83313849D01*
X133205595Y-83266230D01*
X133243690Y-83194801D01*
X133281785Y-83170991D01*
X133548452Y-83170991D01*
X133548452Y-83266230D01*
X133205595Y-82956706D02*
X134005595Y-82956706D01*
X134005595Y-82766230D01*
X133967500Y-82718611D01*
X133929404Y-82694801D01*
X133853214Y-82670991D01*
X133738928Y-82670991D01*
X133662738Y-82694801D01*
X133624642Y-82718611D01*
X133586547Y-82766230D01*
X133586547Y-82956706D01*
X133205595Y-82456706D02*
X134005595Y-82456706D01*
X134005595Y-82123372D02*
X134005595Y-82028134D01*
X133967500Y-81980515D01*
X133891309Y-81932896D01*
X133738928Y-81909087D01*
X133472261Y-81909087D01*
X133319880Y-81932896D01*
X133243690Y-81980515D01*
X133205595Y-82028134D01*
X133205595Y-82123372D01*
X133243690Y-82170991D01*
X133319880Y-82218611D01*
X133472261Y-82242420D01*
X133738928Y-82242420D01*
X133891309Y-82218611D01*
X133967500Y-82170991D01*
X134005595Y-82123372D01*
X133205595Y-81432896D02*
X133205595Y-81718611D01*
X133205595Y-81575753D02*
X134005595Y-81575753D01*
X133891309Y-81623372D01*
X133815119Y-81670991D01*
X133777023Y-81718611D01*
X134005595Y-81266230D02*
X134005595Y-80956706D01*
X133700833Y-81123372D01*
X133700833Y-81051944D01*
X133662738Y-81004325D01*
X133624642Y-80980515D01*
X133548452Y-80956706D01*
X133357976Y-80956706D01*
X133281785Y-80980515D01*
X133243690Y-81004325D01*
X133205595Y-81051944D01*
X133205595Y-81194801D01*
X133243690Y-81242420D01*
X133281785Y-81266230D01*
X133967500Y-107229192D02*
X134005595Y-107276811D01*
X134005595Y-107348239D01*
X133967500Y-107419668D01*
X133891309Y-107467287D01*
X133815119Y-107491097D01*
X133662738Y-107514906D01*
X133548452Y-107514906D01*
X133396071Y-107491097D01*
X133319880Y-107467287D01*
X133243690Y-107419668D01*
X133205595Y-107348239D01*
X133205595Y-107300620D01*
X133243690Y-107229192D01*
X133281785Y-107205382D01*
X133548452Y-107205382D01*
X133548452Y-107300620D01*
X133205595Y-106991097D02*
X134005595Y-106991097D01*
X134005595Y-106800620D01*
X133967500Y-106753001D01*
X133929404Y-106729192D01*
X133853214Y-106705382D01*
X133738928Y-106705382D01*
X133662738Y-106729192D01*
X133624642Y-106753001D01*
X133586547Y-106800620D01*
X133586547Y-106991097D01*
X133205595Y-106491097D02*
X134005595Y-106491097D01*
X134005595Y-106157763D02*
X134005595Y-106062525D01*
X133967500Y-106014906D01*
X133891309Y-105967287D01*
X133738928Y-105943477D01*
X133472261Y-105943477D01*
X133319880Y-105967287D01*
X133243690Y-106014906D01*
X133205595Y-106062525D01*
X133205595Y-106157763D01*
X133243690Y-106205382D01*
X133319880Y-106253001D01*
X133472261Y-106276811D01*
X133738928Y-106276811D01*
X133891309Y-106253001D01*
X133967500Y-106205382D01*
X134005595Y-106157763D01*
X134005595Y-105491097D02*
X134005595Y-105729192D01*
X133624642Y-105753001D01*
X133662738Y-105729192D01*
X133700833Y-105681573D01*
X133700833Y-105562525D01*
X133662738Y-105514906D01*
X133624642Y-105491097D01*
X133548452Y-105467287D01*
X133357976Y-105467287D01*
X133281785Y-105491097D01*
X133243690Y-105514906D01*
X133205595Y-105562525D01*
X133205595Y-105681573D01*
X133243690Y-105729192D01*
X133281785Y-105753001D01*
X130967500Y-93337662D02*
X131005595Y-93385281D01*
X131005595Y-93456709D01*
X130967500Y-93528138D01*
X130891309Y-93575757D01*
X130815119Y-93599567D01*
X130662738Y-93623376D01*
X130548452Y-93623376D01*
X130396071Y-93599567D01*
X130319880Y-93575757D01*
X130243690Y-93528138D01*
X130205595Y-93456709D01*
X130205595Y-93409090D01*
X130243690Y-93337662D01*
X130281785Y-93313852D01*
X130548452Y-93313852D01*
X130548452Y-93409090D01*
X130205595Y-93099567D02*
X131005595Y-93099567D01*
X131005595Y-92909090D01*
X130967500Y-92861471D01*
X130929404Y-92837662D01*
X130853214Y-92813852D01*
X130738928Y-92813852D01*
X130662738Y-92837662D01*
X130624642Y-92861471D01*
X130586547Y-92909090D01*
X130586547Y-93099567D01*
X130205595Y-92599567D02*
X131005595Y-92599567D01*
X131005595Y-92266233D02*
X131005595Y-92170995D01*
X130967500Y-92123376D01*
X130891309Y-92075757D01*
X130738928Y-92051947D01*
X130472261Y-92051947D01*
X130319880Y-92075757D01*
X130243690Y-92123376D01*
X130205595Y-92170995D01*
X130205595Y-92266233D01*
X130243690Y-92313852D01*
X130319880Y-92361471D01*
X130472261Y-92385281D01*
X130738928Y-92385281D01*
X130891309Y-92361471D01*
X130967500Y-92313852D01*
X131005595Y-92266233D01*
X131005595Y-91742424D02*
X131005595Y-91694805D01*
X130967500Y-91647186D01*
X130929404Y-91623376D01*
X130853214Y-91599567D01*
X130700833Y-91575757D01*
X130510357Y-91575757D01*
X130357976Y-91599567D01*
X130281785Y-91623376D01*
X130243690Y-91647186D01*
X130205595Y-91694805D01*
X130205595Y-91742424D01*
X130243690Y-91790043D01*
X130281785Y-91813852D01*
X130357976Y-91837662D01*
X130510357Y-91861471D01*
X130700833Y-91861471D01*
X130853214Y-91837662D01*
X130929404Y-91813852D01*
X130967500Y-91790043D01*
X131005595Y-91742424D01*
X130624642Y-97524169D02*
X130624642Y-97357502D01*
X130205595Y-97286074D02*
X130205595Y-97524169D01*
X131005595Y-97524169D01*
X131005595Y-97286074D01*
X130243690Y-97095598D02*
X130205595Y-97024169D01*
X130205595Y-96905121D01*
X130243690Y-96857502D01*
X130281785Y-96833693D01*
X130357976Y-96809883D01*
X130434166Y-96809883D01*
X130510357Y-96833693D01*
X130548452Y-96857502D01*
X130586547Y-96905121D01*
X130624642Y-97000360D01*
X130662738Y-97047979D01*
X130700833Y-97071788D01*
X130777023Y-97095598D01*
X130853214Y-97095598D01*
X130929404Y-97071788D01*
X130967500Y-97047979D01*
X131005595Y-97000360D01*
X131005595Y-96881312D01*
X130967500Y-96809883D01*
X130205595Y-96595598D02*
X131005595Y-96595598D01*
X131005595Y-96405121D01*
X130967500Y-96357502D01*
X130929404Y-96333693D01*
X130853214Y-96309883D01*
X130738928Y-96309883D01*
X130662738Y-96333693D01*
X130624642Y-96357502D01*
X130586547Y-96405121D01*
X130586547Y-96595598D01*
X130129404Y-96214645D02*
X130129404Y-95833693D01*
X130624642Y-95714645D02*
X130624642Y-95547979D01*
X130205595Y-95476550D02*
X130205595Y-95714645D01*
X131005595Y-95714645D01*
X131005595Y-95476550D01*
X130205595Y-95262264D02*
X131005595Y-95262264D01*
X130205595Y-94976550D01*
X131005595Y-94976550D01*
X130967500Y-104988452D02*
X131005595Y-105036071D01*
X131005595Y-105107500D01*
X130967500Y-105178928D01*
X130891309Y-105226547D01*
X130815119Y-105250357D01*
X130662738Y-105274166D01*
X130548452Y-105274166D01*
X130396071Y-105250357D01*
X130319880Y-105226547D01*
X130243690Y-105178928D01*
X130205595Y-105107500D01*
X130205595Y-105059880D01*
X130243690Y-104988452D01*
X130281785Y-104964642D01*
X130548452Y-104964642D01*
X130548452Y-105059880D01*
X130205595Y-104750357D02*
X131005595Y-104750357D01*
X130205595Y-104464642D01*
X131005595Y-104464642D01*
X130205595Y-104226547D02*
X131005595Y-104226547D01*
X131005595Y-104107500D01*
X130967500Y-104036071D01*
X130891309Y-103988452D01*
X130815119Y-103964642D01*
X130662738Y-103940833D01*
X130548452Y-103940833D01*
X130396071Y-103964642D01*
X130319880Y-103988452D01*
X130243690Y-104036071D01*
X130205595Y-104107500D01*
X130205595Y-104226547D01*
X130967500Y-86583696D02*
X131005595Y-86631315D01*
X131005595Y-86702743D01*
X130967500Y-86774172D01*
X130891309Y-86821791D01*
X130815119Y-86845601D01*
X130662738Y-86869410D01*
X130548452Y-86869410D01*
X130396071Y-86845601D01*
X130319880Y-86821791D01*
X130243690Y-86774172D01*
X130205595Y-86702743D01*
X130205595Y-86655124D01*
X130243690Y-86583696D01*
X130281785Y-86559886D01*
X130548452Y-86559886D01*
X130548452Y-86655124D01*
X130205595Y-86345601D02*
X131005595Y-86345601D01*
X131005595Y-86155124D01*
X130967500Y-86107505D01*
X130929404Y-86083696D01*
X130853214Y-86059886D01*
X130738928Y-86059886D01*
X130662738Y-86083696D01*
X130624642Y-86107505D01*
X130586547Y-86155124D01*
X130586547Y-86345601D01*
X130205595Y-85845601D02*
X131005595Y-85845601D01*
X131005595Y-85512267D02*
X131005595Y-85417029D01*
X130967500Y-85369410D01*
X130891309Y-85321791D01*
X130738928Y-85297981D01*
X130472261Y-85297981D01*
X130319880Y-85321791D01*
X130243690Y-85369410D01*
X130205595Y-85417029D01*
X130205595Y-85512267D01*
X130243690Y-85559886D01*
X130319880Y-85607505D01*
X130472261Y-85631315D01*
X130738928Y-85631315D01*
X130891309Y-85607505D01*
X130967500Y-85559886D01*
X131005595Y-85512267D01*
X130929404Y-85107505D02*
X130967500Y-85083696D01*
X131005595Y-85036077D01*
X131005595Y-84917029D01*
X130967500Y-84869410D01*
X130929404Y-84845601D01*
X130853214Y-84821791D01*
X130777023Y-84821791D01*
X130662738Y-84845601D01*
X130205595Y-85131315D01*
X130205595Y-84821791D01*
X133967500Y-90102209D02*
X134005595Y-90149828D01*
X134005595Y-90221257D01*
X133967500Y-90292685D01*
X133891309Y-90340304D01*
X133815119Y-90364114D01*
X133662738Y-90387923D01*
X133548452Y-90387923D01*
X133396071Y-90364114D01*
X133319880Y-90340304D01*
X133243690Y-90292685D01*
X133205595Y-90221257D01*
X133205595Y-90173638D01*
X133243690Y-90102209D01*
X133281785Y-90078399D01*
X133548452Y-90078399D01*
X133548452Y-90173638D01*
X133205595Y-89864114D02*
X134005595Y-89864114D01*
X134005595Y-89673638D01*
X133967500Y-89626019D01*
X133929404Y-89602209D01*
X133853214Y-89578399D01*
X133738928Y-89578399D01*
X133662738Y-89602209D01*
X133624642Y-89626019D01*
X133586547Y-89673638D01*
X133586547Y-89864114D01*
X133205595Y-89364114D02*
X134005595Y-89364114D01*
X134005595Y-89030780D02*
X134005595Y-88935542D01*
X133967500Y-88887923D01*
X133891309Y-88840304D01*
X133738928Y-88816495D01*
X133472261Y-88816495D01*
X133319880Y-88840304D01*
X133243690Y-88887923D01*
X133205595Y-88935542D01*
X133205595Y-89030780D01*
X133243690Y-89078399D01*
X133319880Y-89126019D01*
X133472261Y-89149828D01*
X133738928Y-89149828D01*
X133891309Y-89126019D01*
X133967500Y-89078399D01*
X134005595Y-89030780D01*
X133205595Y-88340304D02*
X133205595Y-88626019D01*
X133205595Y-88483161D02*
X134005595Y-88483161D01*
X133891309Y-88530780D01*
X133815119Y-88578399D01*
X133777023Y-88626019D01*
X134005595Y-87887923D02*
X134005595Y-88126019D01*
X133624642Y-88149828D01*
X133662738Y-88126019D01*
X133700833Y-88078399D01*
X133700833Y-87959352D01*
X133662738Y-87911733D01*
X133624642Y-87887923D01*
X133548452Y-87864114D01*
X133357976Y-87864114D01*
X133281785Y-87887923D01*
X133243690Y-87911733D01*
X133205595Y-87959352D01*
X133205595Y-88078399D01*
X133243690Y-88126019D01*
X133281785Y-88149828D01*
X131005595Y-108055912D02*
X131005595Y-107746388D01*
X130700833Y-107913055D01*
X130700833Y-107841626D01*
X130662738Y-107794007D01*
X130624642Y-107770197D01*
X130548452Y-107746388D01*
X130357976Y-107746388D01*
X130281785Y-107770197D01*
X130243690Y-107794007D01*
X130205595Y-107841626D01*
X130205595Y-107984483D01*
X130243690Y-108032102D01*
X130281785Y-108055912D01*
X130281785Y-107532102D02*
X130243690Y-107508293D01*
X130205595Y-107532102D01*
X130243690Y-107555912D01*
X130281785Y-107532102D01*
X130205595Y-107532102D01*
X131005595Y-107341626D02*
X131005595Y-107032102D01*
X130700833Y-107198769D01*
X130700833Y-107127340D01*
X130662738Y-107079721D01*
X130624642Y-107055912D01*
X130548452Y-107032102D01*
X130357976Y-107032102D01*
X130281785Y-107055912D01*
X130243690Y-107079721D01*
X130205595Y-107127340D01*
X130205595Y-107270197D01*
X130243690Y-107317817D01*
X130281785Y-107341626D01*
X131005595Y-106889245D02*
X130205595Y-106722578D01*
X131005595Y-106555912D01*
X133967500Y-110206706D02*
X134005595Y-110254325D01*
X134005595Y-110325753D01*
X133967500Y-110397182D01*
X133891309Y-110444801D01*
X133815119Y-110468611D01*
X133662738Y-110492420D01*
X133548452Y-110492420D01*
X133396071Y-110468611D01*
X133319880Y-110444801D01*
X133243690Y-110397182D01*
X133205595Y-110325753D01*
X133205595Y-110278134D01*
X133243690Y-110206706D01*
X133281785Y-110182896D01*
X133548452Y-110182896D01*
X133548452Y-110278134D01*
X133205595Y-109968611D02*
X134005595Y-109968611D01*
X134005595Y-109778134D01*
X133967500Y-109730515D01*
X133929404Y-109706706D01*
X133853214Y-109682896D01*
X133738928Y-109682896D01*
X133662738Y-109706706D01*
X133624642Y-109730515D01*
X133586547Y-109778134D01*
X133586547Y-109968611D01*
X133205595Y-109468611D02*
X134005595Y-109468611D01*
X134005595Y-109135277D02*
X134005595Y-109040039D01*
X133967500Y-108992420D01*
X133891309Y-108944801D01*
X133738928Y-108920991D01*
X133472261Y-108920991D01*
X133319880Y-108944801D01*
X133243690Y-108992420D01*
X133205595Y-109040039D01*
X133205595Y-109135277D01*
X133243690Y-109182896D01*
X133319880Y-109230515D01*
X133472261Y-109254325D01*
X133738928Y-109254325D01*
X133891309Y-109230515D01*
X133967500Y-109182896D01*
X134005595Y-109135277D01*
X133738928Y-108492420D02*
X133205595Y-108492420D01*
X134043690Y-108611468D02*
X133472261Y-108730515D01*
X133472261Y-108420991D01*
X133967500Y-86648505D02*
X134005595Y-86696124D01*
X134005595Y-86767553D01*
X133967500Y-86838981D01*
X133891309Y-86886600D01*
X133815119Y-86910410D01*
X133662738Y-86934219D01*
X133548452Y-86934219D01*
X133396071Y-86910410D01*
X133319880Y-86886600D01*
X133243690Y-86838981D01*
X133205595Y-86767553D01*
X133205595Y-86719934D01*
X133243690Y-86648505D01*
X133281785Y-86624695D01*
X133548452Y-86624695D01*
X133548452Y-86719934D01*
X133205595Y-86410410D02*
X134005595Y-86410410D01*
X134005595Y-86219934D01*
X133967500Y-86172315D01*
X133929404Y-86148505D01*
X133853214Y-86124695D01*
X133738928Y-86124695D01*
X133662738Y-86148505D01*
X133624642Y-86172315D01*
X133586547Y-86219934D01*
X133586547Y-86410410D01*
X133205595Y-85910410D02*
X134005595Y-85910410D01*
X134005595Y-85577076D02*
X134005595Y-85481838D01*
X133967500Y-85434219D01*
X133891309Y-85386600D01*
X133738928Y-85362791D01*
X133472261Y-85362791D01*
X133319880Y-85386600D01*
X133243690Y-85434219D01*
X133205595Y-85481838D01*
X133205595Y-85577076D01*
X133243690Y-85624695D01*
X133319880Y-85672315D01*
X133472261Y-85696124D01*
X133738928Y-85696124D01*
X133891309Y-85672315D01*
X133967500Y-85624695D01*
X134005595Y-85577076D01*
X133205595Y-84886600D02*
X133205595Y-85172315D01*
X133205595Y-85029457D02*
X134005595Y-85029457D01*
X133891309Y-85077076D01*
X133815119Y-85124695D01*
X133777023Y-85172315D01*
X133738928Y-84458029D02*
X133205595Y-84458029D01*
X134043690Y-84577076D02*
X133472261Y-84696124D01*
X133472261Y-84386600D01*
X130243690Y-100091628D02*
X130205595Y-100020200D01*
X130205595Y-99901152D01*
X130243690Y-99853533D01*
X130281785Y-99829724D01*
X130357976Y-99805914D01*
X130434166Y-99805914D01*
X130510357Y-99829724D01*
X130548452Y-99853533D01*
X130586547Y-99901152D01*
X130624642Y-99996390D01*
X130662738Y-100044009D01*
X130700833Y-100067819D01*
X130777023Y-100091628D01*
X130853214Y-100091628D01*
X130929404Y-100067819D01*
X130967500Y-100044009D01*
X131005595Y-99996390D01*
X131005595Y-99877343D01*
X130967500Y-99805914D01*
X130205595Y-99591628D02*
X131005595Y-99591628D01*
X131005595Y-99472581D01*
X130967500Y-99401152D01*
X130891309Y-99353533D01*
X130815119Y-99329724D01*
X130662738Y-99305914D01*
X130548452Y-99305914D01*
X130396071Y-99329724D01*
X130319880Y-99353533D01*
X130243690Y-99401152D01*
X130205595Y-99472581D01*
X130205595Y-99591628D01*
X130434166Y-99115438D02*
X130434166Y-98877343D01*
X130205595Y-99163057D02*
X131005595Y-98996390D01*
X130205595Y-98829724D01*
X131005595Y-109813856D02*
X131005595Y-110051951D01*
X130624642Y-110075760D01*
X130662738Y-110051951D01*
X130700833Y-110004332D01*
X130700833Y-109885284D01*
X130662738Y-109837665D01*
X130624642Y-109813856D01*
X130548452Y-109790046D01*
X130357976Y-109790046D01*
X130281785Y-109813856D01*
X130243690Y-109837665D01*
X130205595Y-109885284D01*
X130205595Y-110004332D01*
X130243690Y-110051951D01*
X130281785Y-110075760D01*
X131005595Y-109647189D02*
X130205595Y-109480522D01*
X131005595Y-109313856D01*
X130243690Y-102611469D02*
X130205595Y-102540040D01*
X130205595Y-102420992D01*
X130243690Y-102373373D01*
X130281785Y-102349564D01*
X130357976Y-102325754D01*
X130434166Y-102325754D01*
X130510357Y-102349564D01*
X130548452Y-102373373D01*
X130586547Y-102420992D01*
X130624642Y-102516231D01*
X130662738Y-102563850D01*
X130700833Y-102587659D01*
X130777023Y-102611469D01*
X130853214Y-102611469D01*
X130929404Y-102587659D01*
X130967500Y-102563850D01*
X131005595Y-102516231D01*
X131005595Y-102397183D01*
X130967500Y-102325754D01*
X130281785Y-101825754D02*
X130243690Y-101849564D01*
X130205595Y-101920992D01*
X130205595Y-101968611D01*
X130243690Y-102040040D01*
X130319880Y-102087659D01*
X130396071Y-102111469D01*
X130548452Y-102135278D01*
X130662738Y-102135278D01*
X130815119Y-102111469D01*
X130891309Y-102087659D01*
X130967500Y-102040040D01*
X131005595Y-101968611D01*
X131005595Y-101920992D01*
X130967500Y-101849564D01*
X130929404Y-101825754D01*
X130205595Y-101373373D02*
X130205595Y-101611469D01*
X131005595Y-101611469D01*
X133967500Y-104251679D02*
X134005595Y-104299298D01*
X134005595Y-104370727D01*
X133967500Y-104442155D01*
X133891309Y-104489774D01*
X133815119Y-104513584D01*
X133662738Y-104537394D01*
X133548452Y-104537394D01*
X133396071Y-104513584D01*
X133319880Y-104489774D01*
X133243690Y-104442155D01*
X133205595Y-104370727D01*
X133205595Y-104323108D01*
X133243690Y-104251679D01*
X133281785Y-104227870D01*
X133548452Y-104227870D01*
X133548452Y-104323108D01*
X133205595Y-104013584D02*
X134005595Y-104013584D01*
X134005595Y-103823108D01*
X133967500Y-103775489D01*
X133929404Y-103751679D01*
X133853214Y-103727870D01*
X133738928Y-103727870D01*
X133662738Y-103751679D01*
X133624642Y-103775489D01*
X133586547Y-103823108D01*
X133586547Y-104013584D01*
X133205595Y-103513584D02*
X134005595Y-103513584D01*
X134005595Y-103323108D02*
X134005595Y-103013584D01*
X133700833Y-103180251D01*
X133700833Y-103108822D01*
X133662738Y-103061203D01*
X133624642Y-103037394D01*
X133548452Y-103013584D01*
X133357976Y-103013584D01*
X133281785Y-103037394D01*
X133243690Y-103061203D01*
X133205595Y-103108822D01*
X133205595Y-103251679D01*
X133243690Y-103299298D01*
X133281785Y-103323108D01*
X133205595Y-102775489D02*
X133205595Y-102680251D01*
X133243690Y-102632632D01*
X133281785Y-102608822D01*
X133396071Y-102561203D01*
X133548452Y-102537394D01*
X133853214Y-102537394D01*
X133929404Y-102561203D01*
X133967500Y-102585013D01*
X134005595Y-102632632D01*
X134005595Y-102727870D01*
X133967500Y-102775489D01*
X133929404Y-102799298D01*
X133853214Y-102823108D01*
X133662738Y-102823108D01*
X133586547Y-102799298D01*
X133548452Y-102775489D01*
X133510357Y-102727870D01*
X133510357Y-102632632D01*
X133548452Y-102585013D01*
X133586547Y-102561203D01*
X133662738Y-102537394D01*
X130967500Y-83206713D02*
X131005595Y-83254332D01*
X131005595Y-83325760D01*
X130967500Y-83397189D01*
X130891309Y-83444808D01*
X130815119Y-83468618D01*
X130662738Y-83492427D01*
X130548452Y-83492427D01*
X130396071Y-83468618D01*
X130319880Y-83444808D01*
X130243690Y-83397189D01*
X130205595Y-83325760D01*
X130205595Y-83278141D01*
X130243690Y-83206713D01*
X130281785Y-83182903D01*
X130548452Y-83182903D01*
X130548452Y-83278141D01*
X130205595Y-82968618D02*
X131005595Y-82968618D01*
X131005595Y-82778141D01*
X130967500Y-82730522D01*
X130929404Y-82706713D01*
X130853214Y-82682903D01*
X130738928Y-82682903D01*
X130662738Y-82706713D01*
X130624642Y-82730522D01*
X130586547Y-82778141D01*
X130586547Y-82968618D01*
X130205595Y-82468618D02*
X131005595Y-82468618D01*
X131005595Y-82135284D02*
X131005595Y-82040046D01*
X130967500Y-81992427D01*
X130891309Y-81944808D01*
X130738928Y-81920998D01*
X130472261Y-81920998D01*
X130319880Y-81944808D01*
X130243690Y-81992427D01*
X130205595Y-82040046D01*
X130205595Y-82135284D01*
X130243690Y-82182903D01*
X130319880Y-82230522D01*
X130472261Y-82254332D01*
X130738928Y-82254332D01*
X130891309Y-82230522D01*
X130967500Y-82182903D01*
X131005595Y-82135284D01*
X131005595Y-81754332D02*
X131005595Y-81444808D01*
X130700833Y-81611475D01*
X130700833Y-81540046D01*
X130662738Y-81492427D01*
X130624642Y-81468618D01*
X130548452Y-81444808D01*
X130357976Y-81444808D01*
X130281785Y-81468618D01*
X130243690Y-81492427D01*
X130205595Y-81540046D01*
X130205595Y-81682903D01*
X130243690Y-81730522D01*
X130281785Y-81754332D01*
X133967500Y-95461997D02*
X134005595Y-95509616D01*
X134005595Y-95581045D01*
X133967500Y-95652473D01*
X133891309Y-95700092D01*
X133815119Y-95723902D01*
X133662738Y-95747712D01*
X133548452Y-95747712D01*
X133396071Y-95723902D01*
X133319880Y-95700092D01*
X133243690Y-95652473D01*
X133205595Y-95581045D01*
X133205595Y-95533426D01*
X133243690Y-95461997D01*
X133281785Y-95438188D01*
X133548452Y-95438188D01*
X133548452Y-95533426D01*
X133205595Y-95223902D02*
X134005595Y-95223902D01*
X134005595Y-95033426D01*
X133967500Y-94985807D01*
X133929404Y-94961997D01*
X133853214Y-94938188D01*
X133738928Y-94938188D01*
X133662738Y-94961997D01*
X133624642Y-94985807D01*
X133586547Y-95033426D01*
X133586547Y-95223902D01*
X133205595Y-94723902D02*
X134005595Y-94723902D01*
X134005595Y-94533426D02*
X134005595Y-94223902D01*
X133700833Y-94390569D01*
X133700833Y-94319140D01*
X133662738Y-94271521D01*
X133624642Y-94247712D01*
X133548452Y-94223902D01*
X133357976Y-94223902D01*
X133281785Y-94247712D01*
X133243690Y-94271521D01*
X133205595Y-94319140D01*
X133205595Y-94461997D01*
X133243690Y-94509616D01*
X133281785Y-94533426D01*
X133738928Y-93795331D02*
X133205595Y-93795331D01*
X134043690Y-93914378D02*
X133472261Y-94033426D01*
X133472261Y-93723902D01*
X134005595Y-92865437D02*
X134005595Y-92579722D01*
X133205595Y-92722579D02*
X134005595Y-92722579D01*
X133624642Y-92413056D02*
X133624642Y-92246389D01*
X133205595Y-92174960D02*
X133205595Y-92413056D01*
X134005595Y-92413056D01*
X134005595Y-92174960D01*
X133243690Y-91984484D02*
X133205595Y-91913056D01*
X133205595Y-91794008D01*
X133243690Y-91746389D01*
X133281785Y-91722579D01*
X133357976Y-91698770D01*
X133434166Y-91698770D01*
X133510357Y-91722579D01*
X133548452Y-91746389D01*
X133586547Y-91794008D01*
X133624642Y-91889246D01*
X133662738Y-91936865D01*
X133700833Y-91960675D01*
X133777023Y-91984484D01*
X133853214Y-91984484D01*
X133929404Y-91960675D01*
X133967500Y-91936865D01*
X134005595Y-91889246D01*
X134005595Y-91770198D01*
X133967500Y-91698770D01*
X134005595Y-91555913D02*
X134005595Y-91270198D01*
X133205595Y-91413056D02*
X134005595Y-91413056D01*
X130967500Y-89960679D02*
X131005595Y-90008298D01*
X131005595Y-90079726D01*
X130967500Y-90151155D01*
X130891309Y-90198774D01*
X130815119Y-90222584D01*
X130662738Y-90246393D01*
X130548452Y-90246393D01*
X130396071Y-90222584D01*
X130319880Y-90198774D01*
X130243690Y-90151155D01*
X130205595Y-90079726D01*
X130205595Y-90032107D01*
X130243690Y-89960679D01*
X130281785Y-89936869D01*
X130548452Y-89936869D01*
X130548452Y-90032107D01*
X130205595Y-89722584D02*
X131005595Y-89722584D01*
X131005595Y-89532107D01*
X130967500Y-89484488D01*
X130929404Y-89460679D01*
X130853214Y-89436869D01*
X130738928Y-89436869D01*
X130662738Y-89460679D01*
X130624642Y-89484488D01*
X130586547Y-89532107D01*
X130586547Y-89722584D01*
X130205595Y-89222584D02*
X131005595Y-89222584D01*
X131005595Y-88889250D02*
X131005595Y-88794012D01*
X130967500Y-88746393D01*
X130891309Y-88698774D01*
X130738928Y-88674964D01*
X130472261Y-88674964D01*
X130319880Y-88698774D01*
X130243690Y-88746393D01*
X130205595Y-88794012D01*
X130205595Y-88889250D01*
X130243690Y-88936869D01*
X130319880Y-88984488D01*
X130472261Y-89008298D01*
X130738928Y-89008298D01*
X130891309Y-88984488D01*
X130967500Y-88936869D01*
X131005595Y-88889250D01*
X130205595Y-88198774D02*
X130205595Y-88484488D01*
X130205595Y-88341631D02*
X131005595Y-88341631D01*
X130891309Y-88389250D01*
X130815119Y-88436869D01*
X130777023Y-88484488D01*
D15*
X129746428Y-125329285D02*
X129317857Y-125329285D01*
X129532142Y-126079285D02*
X129532142Y-125329285D01*
X129067857Y-125686428D02*
X128817857Y-125686428D01*
X128710714Y-126079285D02*
X129067857Y-126079285D01*
X129067857Y-125329285D01*
X128710714Y-125329285D01*
X128425000Y-126043571D02*
X128317857Y-126079285D01*
X128139285Y-126079285D01*
X128067857Y-126043571D01*
X128032142Y-126007857D01*
X127996428Y-125936428D01*
X127996428Y-125865000D01*
X128032142Y-125793571D01*
X128067857Y-125757857D01*
X128139285Y-125722142D01*
X128282142Y-125686428D01*
X128353571Y-125650714D01*
X128389285Y-125615000D01*
X128425000Y-125543571D01*
X128425000Y-125472142D01*
X128389285Y-125400714D01*
X128353571Y-125365000D01*
X128282142Y-125329285D01*
X128103571Y-125329285D01*
X127996428Y-125365000D01*
X127782142Y-125329285D02*
X127353571Y-125329285D01*
X127567857Y-126079285D02*
X127567857Y-125329285D01*
X137550000Y-125329285D02*
X137300000Y-126079285D01*
X137050000Y-125329285D01*
X136371428Y-126007857D02*
X136407142Y-126043571D01*
X136514285Y-126079285D01*
X136585714Y-126079285D01*
X136692857Y-126043571D01*
X136764285Y-125972142D01*
X136800000Y-125900714D01*
X136835714Y-125757857D01*
X136835714Y-125650714D01*
X136800000Y-125507857D01*
X136764285Y-125436428D01*
X136692857Y-125365000D01*
X136585714Y-125329285D01*
X136514285Y-125329285D01*
X136407142Y-125365000D01*
X136371428Y-125400714D01*
X135621428Y-126007857D02*
X135657142Y-126043571D01*
X135764285Y-126079285D01*
X135835714Y-126079285D01*
X135942857Y-126043571D01*
X136014285Y-125972142D01*
X136050000Y-125900714D01*
X136085714Y-125757857D01*
X136085714Y-125650714D01*
X136050000Y-125507857D01*
X136014285Y-125436428D01*
X135942857Y-125365000D01*
X135835714Y-125329285D01*
X135764285Y-125329285D01*
X135657142Y-125365000D01*
X135621428Y-125400714D01*
X137121428Y-122825000D02*
X137192857Y-122789285D01*
X137300000Y-122789285D01*
X137407142Y-122825000D01*
X137478571Y-122896428D01*
X137514285Y-122967857D01*
X137550000Y-123110714D01*
X137550000Y-123217857D01*
X137514285Y-123360714D01*
X137478571Y-123432142D01*
X137407142Y-123503571D01*
X137300000Y-123539285D01*
X137228571Y-123539285D01*
X137121428Y-123503571D01*
X137085714Y-123467857D01*
X137085714Y-123217857D01*
X137228571Y-123217857D01*
X136764285Y-123539285D02*
X136764285Y-122789285D01*
X136335714Y-123539285D01*
X136335714Y-122789285D01*
X135978571Y-123539285D02*
X135978571Y-122789285D01*
X135800000Y-122789285D01*
X135692857Y-122825000D01*
X135621428Y-122896428D01*
X135585714Y-122967857D01*
X135550000Y-123110714D01*
X135550000Y-123217857D01*
X135585714Y-123360714D01*
X135621428Y-123432142D01*
X135692857Y-123503571D01*
X135800000Y-123539285D01*
X135978571Y-123539285D01*
X125460714Y-126043571D02*
X125353571Y-126079285D01*
X125175000Y-126079285D01*
X125103571Y-126043571D01*
X125067857Y-126007857D01*
X125032142Y-125936428D01*
X125032142Y-125865000D01*
X125067857Y-125793571D01*
X125103571Y-125757857D01*
X125175000Y-125722142D01*
X125317857Y-125686428D01*
X125389285Y-125650714D01*
X125425000Y-125615000D01*
X125460714Y-125543571D01*
X125460714Y-125472142D01*
X125425000Y-125400714D01*
X125389285Y-125365000D01*
X125317857Y-125329285D01*
X125139285Y-125329285D01*
X125032142Y-125365000D01*
X124710714Y-126079285D02*
X124710714Y-125329285D01*
X124532142Y-125329285D01*
X124425000Y-125365000D01*
X124353571Y-125436428D01*
X124317857Y-125507857D01*
X124282142Y-125650714D01*
X124282142Y-125757857D01*
X124317857Y-125900714D01*
X124353571Y-125972142D01*
X124425000Y-126043571D01*
X124532142Y-126079285D01*
X124710714Y-126079285D01*
X123996428Y-125865000D02*
X123639285Y-125865000D01*
X124067857Y-126079285D02*
X123817857Y-125329285D01*
X123567857Y-126079285D01*
X133646428Y-126079285D02*
X133646428Y-125329285D01*
X133360714Y-125329285D01*
X133289285Y-125365000D01*
X133253571Y-125400714D01*
X133217857Y-125472142D01*
X133217857Y-125579285D01*
X133253571Y-125650714D01*
X133289285Y-125686428D01*
X133360714Y-125722142D01*
X133646428Y-125722142D01*
X132896428Y-125329285D02*
X132896428Y-125936428D01*
X132860714Y-126007857D01*
X132825000Y-126043571D01*
X132753571Y-126079285D01*
X132610714Y-126079285D01*
X132539285Y-126043571D01*
X132503571Y-126007857D01*
X132467857Y-125936428D01*
X132467857Y-125329285D01*
X131753571Y-126079285D02*
X132110714Y-126079285D01*
X132110714Y-125329285D01*
X131146428Y-126079285D02*
X131503571Y-126079285D01*
X131503571Y-125329285D01*
X133889285Y-123539285D02*
X133889285Y-122789285D01*
X133603571Y-122789285D01*
X133532142Y-122825000D01*
X133496428Y-122860714D01*
X133460714Y-122932142D01*
X133460714Y-123039285D01*
X133496428Y-123110714D01*
X133532142Y-123146428D01*
X133603571Y-123182142D01*
X133889285Y-123182142D01*
X133139285Y-122789285D02*
X133139285Y-123396428D01*
X133103571Y-123467857D01*
X133067857Y-123503571D01*
X132996428Y-123539285D01*
X132853571Y-123539285D01*
X132782142Y-123503571D01*
X132746428Y-123467857D01*
X132710714Y-123396428D01*
X132710714Y-122789285D01*
X132389285Y-123503571D02*
X132282142Y-123539285D01*
X132103571Y-123539285D01*
X132032142Y-123503571D01*
X131996428Y-123467857D01*
X131960714Y-123396428D01*
X131960714Y-123325000D01*
X131996428Y-123253571D01*
X132032142Y-123217857D01*
X132103571Y-123182142D01*
X132246428Y-123146428D01*
X132317857Y-123110714D01*
X132353571Y-123075000D01*
X132389285Y-123003571D01*
X132389285Y-122932142D01*
X132353571Y-122860714D01*
X132317857Y-122825000D01*
X132246428Y-122789285D01*
X132067857Y-122789285D01*
X131960714Y-122825000D01*
X131639285Y-123539285D02*
X131639285Y-122789285D01*
X131639285Y-123146428D02*
X131210714Y-123146428D01*
X131210714Y-123539285D02*
X131210714Y-122789285D01*
X125442857Y-123503571D02*
X125335714Y-123539285D01*
X125157142Y-123539285D01*
X125085714Y-123503571D01*
X125050000Y-123467857D01*
X125014285Y-123396428D01*
X125014285Y-123325000D01*
X125050000Y-123253571D01*
X125085714Y-123217857D01*
X125157142Y-123182142D01*
X125300000Y-123146428D01*
X125371428Y-123110714D01*
X125407142Y-123075000D01*
X125442857Y-123003571D01*
X125442857Y-122932142D01*
X125407142Y-122860714D01*
X125371428Y-122825000D01*
X125300000Y-122789285D01*
X125121428Y-122789285D01*
X125014285Y-122825000D01*
X124264285Y-123467857D02*
X124300000Y-123503571D01*
X124407142Y-123539285D01*
X124478571Y-123539285D01*
X124585714Y-123503571D01*
X124657142Y-123432142D01*
X124692857Y-123360714D01*
X124728571Y-123217857D01*
X124728571Y-123110714D01*
X124692857Y-122967857D01*
X124657142Y-122896428D01*
X124585714Y-122825000D01*
X124478571Y-122789285D01*
X124407142Y-122789285D01*
X124300000Y-122825000D01*
X124264285Y-122860714D01*
X123585714Y-123539285D02*
X123942857Y-123539285D01*
X123942857Y-122789285D01*
X129539285Y-123539285D02*
X129789285Y-123182142D01*
X129967857Y-123539285D02*
X129967857Y-122789285D01*
X129682142Y-122789285D01*
X129610714Y-122825000D01*
X129575000Y-122860714D01*
X129539285Y-122932142D01*
X129539285Y-123039285D01*
X129575000Y-123110714D01*
X129610714Y-123146428D01*
X129682142Y-123182142D01*
X129967857Y-123182142D01*
X129217857Y-123146428D02*
X128967857Y-123146428D01*
X128860714Y-123539285D02*
X129217857Y-123539285D01*
X129217857Y-122789285D01*
X128860714Y-122789285D01*
X128575000Y-123503571D02*
X128467857Y-123539285D01*
X128289285Y-123539285D01*
X128217857Y-123503571D01*
X128182142Y-123467857D01*
X128146428Y-123396428D01*
X128146428Y-123325000D01*
X128182142Y-123253571D01*
X128217857Y-123217857D01*
X128289285Y-123182142D01*
X128432142Y-123146428D01*
X128503571Y-123110714D01*
X128539285Y-123075000D01*
X128575000Y-123003571D01*
X128575000Y-122932142D01*
X128539285Y-122860714D01*
X128503571Y-122825000D01*
X128432142Y-122789285D01*
X128253571Y-122789285D01*
X128146428Y-122825000D01*
X127825000Y-123146428D02*
X127575000Y-123146428D01*
X127467857Y-123539285D02*
X127825000Y-123539285D01*
X127825000Y-122789285D01*
X127467857Y-122789285D01*
X127253571Y-122789285D02*
X126825000Y-122789285D01*
X127039285Y-123539285D02*
X127039285Y-122789285D01*
D13*
X128767500Y-97687500D02*
X127457500Y-97687500D01*
X135267500Y-110977500D02*
X128767500Y-110977500D01*
X136577500Y-112277500D02*
X127457500Y-112277500D01*
X127457500Y-112277500D02*
X127457500Y-78997500D01*
X127457500Y-93587500D02*
X128767500Y-93587500D01*
X126067500Y-84707500D02*
X127067500Y-84207500D01*
X128767500Y-110977500D02*
X128767500Y-97687500D01*
X136577500Y-78997500D02*
X136577500Y-112277500D01*
X126067500Y-83707500D02*
X126067500Y-84707500D01*
X128767500Y-80297500D02*
X135267500Y-80297500D01*
X135267500Y-80297500D02*
X135267500Y-110977500D01*
X127457500Y-78997500D02*
X136577500Y-78997500D01*
X128767500Y-97687500D02*
X128767500Y-97687500D01*
X127067500Y-84207500D02*
X126067500Y-83707500D01*
X128767500Y-93587500D02*
X128767500Y-80297500D01*
X132410000Y-127720000D02*
X132410000Y-127720000D01*
X122640000Y-127720000D02*
X122640000Y-121220000D01*
X121340000Y-119910000D02*
X139380000Y-119910000D01*
X121340000Y-129030000D02*
X121340000Y-119910000D01*
X128310000Y-129030000D02*
X128310000Y-127720000D01*
X132410000Y-127720000D02*
X132410000Y-129030000D01*
X139380000Y-119910000D02*
X139380000Y-129030000D01*
X139380000Y-129030000D02*
X121340000Y-129030000D01*
X138080000Y-121220000D02*
X138080000Y-127720000D01*
X128310000Y-127720000D02*
X122640000Y-127720000D01*
X122640000Y-121220000D02*
X138080000Y-121220000D01*
X138080000Y-127720000D02*
X132410000Y-127720000D01*
%LPC*%
D16*
X110250000Y-85250000D03*
D17*
X110250000Y-81750000D03*
D18*
X109400000Y-74000000D03*
X169400000Y-74000000D03*
X109400000Y-129000000D03*
X169400000Y-129000000D03*
D19*
X143200000Y-88100000D03*
D20*
X143200000Y-90640000D03*
X143200000Y-93180000D03*
X143200000Y-95720000D03*
X143200000Y-98260000D03*
X143200000Y-100800000D03*
X143200000Y-103340000D03*
X143200000Y-105880000D03*
X143200000Y-108420000D03*
X143200000Y-110960000D03*
D19*
X117800000Y-88060000D03*
D20*
X117800000Y-90600000D03*
X117800000Y-93140000D03*
X117800000Y-95680000D03*
X117800000Y-98220000D03*
X117800000Y-100760000D03*
X117800000Y-103300000D03*
X117800000Y-105840000D03*
X117800000Y-108380000D03*
X117800000Y-110920000D03*
D21*
X151500000Y-92500000D03*
D22*
X154040000Y-92500000D03*
X151500000Y-95040000D03*
X154040000Y-95040000D03*
X151500000Y-97580000D03*
X154040000Y-97580000D03*
X151500000Y-100120000D03*
X154040000Y-100120000D03*
X151500000Y-102660000D03*
X154040000Y-102660000D03*
X151500000Y-105200000D03*
X154040000Y-105200000D03*
X151500000Y-107740000D03*
X154040000Y-107740000D03*
X151500000Y-110280000D03*
X154040000Y-110280000D03*
X151500000Y-112820000D03*
X154040000Y-112820000D03*
X151500000Y-115360000D03*
X154040000Y-115360000D03*
D23*
X167600000Y-93700000D03*
D22*
X165060000Y-93700000D03*
X167600000Y-91160000D03*
X165060000Y-91160000D03*
X167600000Y-88620000D03*
X165060000Y-88620000D03*
X167600000Y-86080000D03*
X165060000Y-86080000D03*
D23*
X167600000Y-115400000D03*
D22*
X165060000Y-115400000D03*
X167600000Y-112860000D03*
X165060000Y-112860000D03*
X167600000Y-110320000D03*
X165060000Y-110320000D03*
X167600000Y-107780000D03*
X165060000Y-107780000D03*
D24*
X160020000Y-124900000D03*
D25*
X149860000Y-124900000D03*
D24*
X160000000Y-128000000D03*
D25*
X149840000Y-128000000D03*
D24*
X110800000Y-106855000D03*
D25*
X110800000Y-96695000D03*
D26*
X112700000Y-120500000D03*
D27*
X110160000Y-120500000D03*
D24*
X138000000Y-107560000D03*
D25*
X138000000Y-97400000D03*
D24*
X159980000Y-131100000D03*
D25*
X149820000Y-131100000D03*
M02*
