%TF.GenerationSoftware,KiCad,Pcbnew,(6.0.4)*%
%TF.CreationDate,2022-04-04T21:54:51+02:00*%
%TF.ProjectId,MCU_INTERFACE_BOARD,4d43555f-494e-4544-9552-464143455f42,rev?*%
%TF.SameCoordinates,Original*%
%TF.FileFunction,Copper,L1,Top*%
%TF.FilePolarity,Positive*%
%FSLAX46Y46*%
G04 Gerber Fmt 4.6, Leading zero omitted, Abs format (unit mm)*
G04 Created by KiCad (PCBNEW (6.0.4)) date 2022-04-04 21:54:51*
%MOMM*%
%LPD*%
G01*
G04 APERTURE LIST*
G04 Aperture macros list*
%AMRoundRect*
0 Rectangle with rounded corners*
0 $1 Rounding radius*
0 $2 $3 $4 $5 $6 $7 $8 $9 X,Y pos of 4 corners*
0 Add a 4 corners polygon primitive as box body*
4,1,4,$2,$3,$4,$5,$6,$7,$8,$9,$2,$3,0*
0 Add four circle primitives for the rounded corners*
1,1,$1+$1,$2,$3*
1,1,$1+$1,$4,$5*
1,1,$1+$1,$6,$7*
1,1,$1+$1,$8,$9*
0 Add four rect primitives between the rounded corners*
20,1,$1+$1,$2,$3,$4,$5,0*
20,1,$1+$1,$4,$5,$6,$7,0*
20,1,$1+$1,$6,$7,$8,$9,0*
20,1,$1+$1,$8,$9,$2,$3,0*%
G04 Aperture macros list end*
%TA.AperFunction,ComponentPad*%
%ADD10R,2.400000X2.400000*%
%TD*%
%TA.AperFunction,ComponentPad*%
%ADD11C,2.400000*%
%TD*%
%TA.AperFunction,ComponentPad*%
%ADD12C,5.600000*%
%TD*%
%TA.AperFunction,ComponentPad*%
%ADD13R,1.700000X1.700000*%
%TD*%
%TA.AperFunction,ComponentPad*%
%ADD14O,1.700000X1.700000*%
%TD*%
%TA.AperFunction,ComponentPad*%
%ADD15RoundRect,0.250000X-0.600000X-0.600000X0.600000X-0.600000X0.600000X0.600000X-0.600000X0.600000X0*%
%TD*%
%TA.AperFunction,ComponentPad*%
%ADD16C,1.700000*%
%TD*%
%TA.AperFunction,SMDPad,CuDef*%
%ADD17RoundRect,0.243750X0.243750X0.456250X-0.243750X0.456250X-0.243750X-0.456250X0.243750X-0.456250X0*%
%TD*%
%TA.AperFunction,ComponentPad*%
%ADD18RoundRect,0.250000X0.600000X0.600000X-0.600000X0.600000X-0.600000X-0.600000X0.600000X-0.600000X0*%
%TD*%
%TA.AperFunction,ComponentPad*%
%ADD19C,1.600000*%
%TD*%
%TA.AperFunction,ComponentPad*%
%ADD20O,1.600000X1.600000*%
%TD*%
%TA.AperFunction,SMDPad,CuDef*%
%ADD21RoundRect,0.200000X0.275000X-0.200000X0.275000X0.200000X-0.275000X0.200000X-0.275000X-0.200000X0*%
%TD*%
%TA.AperFunction,SMDPad,CuDef*%
%ADD22RoundRect,0.200000X-0.200000X-0.275000X0.200000X-0.275000X0.200000X0.275000X-0.200000X0.275000X0*%
%TD*%
%TA.AperFunction,ComponentPad*%
%ADD23R,1.800000X1.800000*%
%TD*%
%TA.AperFunction,ComponentPad*%
%ADD24C,1.800000*%
%TD*%
%TA.AperFunction,SMDPad,CuDef*%
%ADD25RoundRect,0.200000X-0.275000X0.200000X-0.275000X-0.200000X0.275000X-0.200000X0.275000X0.200000X0*%
%TD*%
%TA.AperFunction,ViaPad*%
%ADD26C,0.800000*%
%TD*%
%TA.AperFunction,Conductor*%
%ADD27C,0.300000*%
%TD*%
%TA.AperFunction,Conductor*%
%ADD28C,0.500000*%
%TD*%
%TA.AperFunction,Conductor*%
%ADD29C,0.250000*%
%TD*%
%TA.AperFunction,Conductor*%
%ADD30C,0.400000*%
%TD*%
G04 APERTURE END LIST*
D10*
X110250000Y-85250000D03*
D11*
X110250000Y-81750000D03*
D12*
X109400000Y-74000000D03*
X169400000Y-74000000D03*
X109400000Y-129000000D03*
X169400000Y-129000000D03*
D13*
X143200000Y-88100000D03*
D14*
X143200000Y-90640000D03*
X143200000Y-93180000D03*
X143200000Y-95720000D03*
X143200000Y-98260000D03*
X143200000Y-100800000D03*
X143200000Y-103340000D03*
X143200000Y-105880000D03*
X143200000Y-108420000D03*
X143200000Y-110960000D03*
D13*
X117800000Y-88060000D03*
D14*
X117800000Y-90600000D03*
X117800000Y-93140000D03*
X117800000Y-95680000D03*
X117800000Y-98220000D03*
X117800000Y-100760000D03*
X117800000Y-103300000D03*
X117800000Y-105840000D03*
X117800000Y-108380000D03*
X117800000Y-110920000D03*
D15*
X151500000Y-92500000D03*
D16*
X154040000Y-92500000D03*
X151500000Y-95040000D03*
X154040000Y-95040000D03*
X151500000Y-97580000D03*
X154040000Y-97580000D03*
X151500000Y-100120000D03*
X154040000Y-100120000D03*
X151500000Y-102660000D03*
X154040000Y-102660000D03*
X151500000Y-105200000D03*
X154040000Y-105200000D03*
X151500000Y-107740000D03*
X154040000Y-107740000D03*
X151500000Y-110280000D03*
X154040000Y-110280000D03*
X151500000Y-112820000D03*
X154040000Y-112820000D03*
X151500000Y-115360000D03*
X154040000Y-115360000D03*
D17*
X112337500Y-114600000D03*
X110462500Y-114600000D03*
D18*
X167600000Y-93700000D03*
D16*
X165060000Y-93700000D03*
X167600000Y-91160000D03*
X165060000Y-91160000D03*
X167600000Y-88620000D03*
X165060000Y-88620000D03*
X167600000Y-86080000D03*
X165060000Y-86080000D03*
D18*
X167600000Y-115400000D03*
D16*
X165060000Y-115400000D03*
X167600000Y-112860000D03*
X165060000Y-112860000D03*
X167600000Y-110320000D03*
X165060000Y-110320000D03*
X167600000Y-107780000D03*
X165060000Y-107780000D03*
D19*
X160020000Y-124900000D03*
D20*
X149860000Y-124900000D03*
D19*
X160000000Y-128000000D03*
D20*
X149840000Y-128000000D03*
D19*
X110800000Y-106855000D03*
D20*
X110800000Y-96695000D03*
D21*
X110800000Y-102705000D03*
X110800000Y-101055000D03*
D22*
X154075000Y-131100000D03*
X155725000Y-131100000D03*
D23*
X112700000Y-120500000D03*
D24*
X110160000Y-120500000D03*
D19*
X138000000Y-107560000D03*
D20*
X138000000Y-97400000D03*
D19*
X159980000Y-131100000D03*
D20*
X149820000Y-131100000D03*
D22*
X154095000Y-128000000D03*
X155745000Y-128000000D03*
D25*
X138000000Y-101655000D03*
X138000000Y-103305000D03*
D22*
X154100000Y-124900000D03*
X155750000Y-124900000D03*
D26*
X156600000Y-91400000D03*
X156600000Y-88200000D03*
X152700000Y-124900000D03*
X152800000Y-128000000D03*
D27*
X110462500Y-114600000D02*
X110160000Y-114902500D01*
X110160000Y-114902500D02*
X110160000Y-120500000D01*
X110800000Y-106855000D02*
X110800000Y-114262500D01*
X110800000Y-114262500D02*
X110462500Y-114600000D01*
D28*
X110800000Y-106960000D02*
X110800000Y-102705000D01*
X152700000Y-124900000D02*
X154100000Y-124900000D01*
D29*
X149860000Y-124900000D02*
X149860000Y-122980000D01*
X149860000Y-122980000D02*
X165060000Y-107780000D01*
X151434031Y-123945969D02*
X165060000Y-110320000D01*
D28*
X149820000Y-131100000D02*
X154075000Y-131100000D01*
D29*
X149820000Y-131100000D02*
X151434031Y-129485969D01*
X151434031Y-129485969D02*
X151434031Y-123945969D01*
X164718990Y-109000000D02*
X166380000Y-109000000D01*
X163655001Y-103835001D02*
X167600000Y-107780000D01*
X149840000Y-128000000D02*
X150984511Y-126855489D01*
X150984511Y-126855489D02*
X150984511Y-122734479D01*
X166380000Y-109000000D02*
X167600000Y-107780000D01*
X150984511Y-122734479D02*
X164718990Y-109000000D01*
X153475999Y-103835001D02*
X163655001Y-103835001D01*
X152300998Y-102660000D02*
X153475999Y-103835001D01*
X151500000Y-102660000D02*
X152300998Y-102660000D01*
D28*
X152800000Y-128000000D02*
X154095000Y-128000000D01*
D29*
X146165489Y-106565489D02*
X144300000Y-104700000D01*
X144300000Y-104700000D02*
X139395000Y-104700000D01*
X138000000Y-120870300D02*
X149429700Y-132300000D01*
X166424999Y-111495001D02*
X167600000Y-110320000D01*
X138000000Y-107560000D02*
X138000000Y-120870300D01*
D28*
X138000000Y-107560000D02*
X138000000Y-103305000D01*
D29*
X160370300Y-132300000D02*
X169475011Y-123195289D01*
X154040000Y-107740000D02*
X152865489Y-106565489D01*
X168164001Y-114035001D02*
X167035999Y-114035001D01*
X167600000Y-88620000D02*
X169475011Y-90495011D01*
X166424999Y-113424001D02*
X166424999Y-111495001D01*
X169475011Y-123195289D02*
X169475011Y-112175011D01*
X169475011Y-112723991D02*
X168164001Y-114035001D01*
X149429700Y-132300000D02*
X160370300Y-132300000D01*
X152865489Y-106565489D02*
X146165489Y-106565489D01*
X139395000Y-104700000D02*
X138000000Y-103305000D01*
X169475011Y-90495011D02*
X169475011Y-112723991D01*
X167035999Y-114035001D02*
X166424999Y-113424001D01*
D28*
X168900001Y-111559999D02*
X168900001Y-94589965D01*
D30*
X151500000Y-92500000D02*
X154090001Y-89909999D01*
D28*
X168900010Y-92460010D02*
X167600000Y-91160000D01*
D30*
X154090001Y-89909999D02*
X166349999Y-89909999D01*
D28*
X110800000Y-101055000D02*
X110800000Y-96800000D01*
X168900010Y-94589956D02*
X168900010Y-92460010D01*
D27*
X110800000Y-96695000D02*
X110800000Y-95060000D01*
X110800000Y-95060000D02*
X117800000Y-88060000D01*
D28*
X167600000Y-112860000D02*
X168900001Y-111559999D01*
D30*
X166349999Y-89909999D02*
X167600000Y-91160000D01*
D28*
X168900001Y-94589965D02*
X168900010Y-94589956D01*
D29*
X143200000Y-110960000D02*
X146235001Y-113995001D01*
X152675001Y-113995001D02*
X154040000Y-115360000D01*
X146235001Y-113995001D02*
X152675001Y-113995001D01*
X143200000Y-108420000D02*
X146424999Y-111644999D01*
X152864999Y-111644999D02*
X154040000Y-112820000D01*
X146424999Y-111644999D02*
X152864999Y-111644999D01*
X146235001Y-108915001D02*
X152675001Y-108915001D01*
X143200000Y-105880000D02*
X146235001Y-108915001D01*
X152675001Y-108915001D02*
X154040000Y-110280000D01*
X143200000Y-96099002D02*
X151125997Y-104024999D01*
X152864999Y-104024999D02*
X154040000Y-105200000D01*
X143200000Y-95720000D02*
X143200000Y-96099002D01*
X151125997Y-104024999D02*
X152864999Y-104024999D01*
X152864999Y-101484999D02*
X154040000Y-102660000D01*
X151184999Y-101484999D02*
X152864999Y-101484999D01*
X143200000Y-93180000D02*
X143200000Y-93500000D01*
X143200000Y-93500000D02*
X151184999Y-101484999D01*
X151125997Y-98944999D02*
X152864999Y-98944999D01*
X152864999Y-98944999D02*
X154040000Y-100120000D01*
X143200000Y-90640000D02*
X143200000Y-91019002D01*
X143200000Y-91019002D02*
X151125997Y-98944999D01*
X144375001Y-89654003D02*
X151125997Y-96404999D01*
X152864999Y-96404999D02*
X154040000Y-97580000D01*
X144375001Y-89275001D02*
X144375001Y-89654003D01*
X143200000Y-88100000D02*
X144375001Y-89275001D01*
X151125997Y-96404999D02*
X152864999Y-96404999D01*
D28*
X155750000Y-124900000D02*
X160020000Y-124900000D01*
D30*
X166349999Y-94950001D02*
X167600000Y-93700000D01*
X159980000Y-131100000D02*
X159980000Y-124940000D01*
X160020000Y-122980000D02*
X167600000Y-115400000D01*
X163299997Y-93789999D02*
X164459999Y-94950001D01*
X159980000Y-124940000D02*
X160020000Y-124900000D01*
D28*
X155745000Y-128000000D02*
X160000000Y-128000000D01*
D30*
X151500000Y-95040000D02*
X152750001Y-93789999D01*
X152750001Y-93789999D02*
X163299997Y-93789999D01*
X160020000Y-124900000D02*
X160020000Y-122980000D01*
X164459999Y-94950001D02*
X166349999Y-94950001D01*
D28*
X155725000Y-131100000D02*
X159980000Y-131100000D01*
X138000000Y-97400000D02*
X138000000Y-101655000D01*
D29*
X139685000Y-103340000D02*
X138000000Y-101655000D01*
X143200000Y-103340000D02*
X139685000Y-103340000D01*
%TA.AperFunction,Conductor*%
G36*
X172440070Y-68428943D02*
G01*
X172454847Y-68431243D01*
X172454848Y-68431243D01*
X172463724Y-68432625D01*
X172480923Y-68430376D01*
X172504863Y-68429543D01*
X172762839Y-68445148D01*
X172777943Y-68446982D01*
X173059012Y-68498489D01*
X173073785Y-68502130D01*
X173346607Y-68587145D01*
X173360825Y-68592537D01*
X173621410Y-68709817D01*
X173634866Y-68716880D01*
X173879415Y-68864714D01*
X173891935Y-68873356D01*
X174012532Y-68967838D01*
X174116883Y-69049592D01*
X174128271Y-69059682D01*
X174330318Y-69261729D01*
X174340408Y-69273117D01*
X174516643Y-69498063D01*
X174525285Y-69510584D01*
X174673120Y-69755134D01*
X174680183Y-69768590D01*
X174739325Y-69899998D01*
X174797461Y-70029171D01*
X174802857Y-70043398D01*
X174887870Y-70316215D01*
X174891511Y-70330988D01*
X174943018Y-70612057D01*
X174944852Y-70627161D01*
X174960019Y-70877904D01*
X174958758Y-70904716D01*
X174958756Y-70904852D01*
X174957375Y-70913724D01*
X174958539Y-70922626D01*
X174958539Y-70922628D01*
X174961502Y-70945282D01*
X174962566Y-70961620D01*
X174962169Y-97366411D01*
X174961649Y-132020635D01*
X174960149Y-132040018D01*
X174957839Y-132054851D01*
X174957839Y-132054855D01*
X174956458Y-132063724D01*
X174958707Y-132080919D01*
X174959540Y-132104863D01*
X174943942Y-132362728D01*
X174942108Y-132377832D01*
X174890620Y-132658793D01*
X174886979Y-132673566D01*
X174804510Y-132938220D01*
X174801999Y-132946277D01*
X174796611Y-132960486D01*
X174679365Y-133220998D01*
X174672309Y-133234440D01*
X174563567Y-133414321D01*
X174524531Y-133478894D01*
X174515888Y-133491416D01*
X174339722Y-133716275D01*
X174329632Y-133727663D01*
X174127663Y-133929632D01*
X174116275Y-133939722D01*
X173891416Y-134115888D01*
X173878895Y-134124530D01*
X173634440Y-134272309D01*
X173620998Y-134279365D01*
X173360486Y-134396611D01*
X173346282Y-134401997D01*
X173084932Y-134483437D01*
X173073566Y-134486979D01*
X173058793Y-134490620D01*
X172777832Y-134542108D01*
X172762727Y-134543942D01*
X172512095Y-134559102D01*
X172485284Y-134557841D01*
X172485148Y-134557839D01*
X172476276Y-134556458D01*
X172467374Y-134557622D01*
X172467369Y-134557622D01*
X172444667Y-134560591D01*
X172428350Y-134561655D01*
X150881409Y-134564864D01*
X106369331Y-134571493D01*
X106349929Y-134569992D01*
X106335151Y-134567690D01*
X106335144Y-134567690D01*
X106326276Y-134566309D01*
X106309077Y-134568558D01*
X106285137Y-134569391D01*
X106027290Y-134553794D01*
X106012186Y-134551960D01*
X105940214Y-134538771D01*
X105731240Y-134500475D01*
X105716473Y-134496836D01*
X105684841Y-134486979D01*
X105443769Y-134411858D01*
X105429555Y-134406466D01*
X105169092Y-134289242D01*
X105155621Y-134282172D01*
X105139298Y-134272304D01*
X105113063Y-134256445D01*
X104911187Y-134134405D01*
X104898666Y-134125762D01*
X104673829Y-133949615D01*
X104662440Y-133939525D01*
X104460475Y-133737560D01*
X104450385Y-133726171D01*
X104274238Y-133501334D01*
X104265595Y-133488813D01*
X104117828Y-133244379D01*
X104110757Y-133230906D01*
X104106288Y-133220976D01*
X103993534Y-132970445D01*
X103988141Y-132956227D01*
X103985041Y-132946277D01*
X103903164Y-132683526D01*
X103899523Y-132668754D01*
X103848040Y-132387814D01*
X103846206Y-132372710D01*
X103831269Y-132125768D01*
X103832520Y-132102216D01*
X103832334Y-132102199D01*
X103832769Y-132097350D01*
X103833576Y-132092552D01*
X103833729Y-132080000D01*
X103829779Y-132052422D01*
X103828507Y-132034546D01*
X103828508Y-132033488D01*
X103829005Y-128988434D01*
X106086661Y-128988434D01*
X106086833Y-128991829D01*
X106086833Y-128991830D01*
X106091668Y-129087282D01*
X106104792Y-129346340D01*
X106105329Y-129349695D01*
X106105330Y-129349701D01*
X106123319Y-129462008D01*
X106161470Y-129700195D01*
X106256033Y-130045859D01*
X106387374Y-130379288D01*
X106418151Y-130437909D01*
X106497443Y-130588938D01*
X106553957Y-130696582D01*
X106555858Y-130699411D01*
X106555864Y-130699421D01*
X106739569Y-130972800D01*
X106753834Y-130994029D01*
X106984665Y-131268150D01*
X107243751Y-131515738D01*
X107528061Y-131733897D01*
X107560056Y-131753350D01*
X107831355Y-131918303D01*
X107831360Y-131918306D01*
X107834270Y-131920075D01*
X107837358Y-131921521D01*
X107837357Y-131921521D01*
X108155710Y-132070649D01*
X108155720Y-132070653D01*
X108158794Y-132072093D01*
X108162012Y-132073195D01*
X108162015Y-132073196D01*
X108494615Y-132187071D01*
X108494623Y-132187073D01*
X108497838Y-132188174D01*
X108847435Y-132266959D01*
X108899728Y-132272917D01*
X109200114Y-132307142D01*
X109200122Y-132307142D01*
X109203497Y-132307527D01*
X109206901Y-132307545D01*
X109206904Y-132307545D01*
X109401227Y-132308562D01*
X109561857Y-132309403D01*
X109565243Y-132309053D01*
X109565245Y-132309053D01*
X109914932Y-132272917D01*
X109914941Y-132272916D01*
X109918324Y-132272566D01*
X109921657Y-132271852D01*
X109921660Y-132271851D01*
X110094186Y-132234864D01*
X110268727Y-132197446D01*
X110608968Y-132084922D01*
X110935066Y-131936311D01*
X111029052Y-131880506D01*
X111240262Y-131755099D01*
X111240267Y-131755096D01*
X111243207Y-131753350D01*
X111529786Y-131538180D01*
X111791451Y-131293319D01*
X112025140Y-131021630D01*
X112131750Y-130866512D01*
X112226190Y-130729101D01*
X112226195Y-130729094D01*
X112228120Y-130726292D01*
X112229732Y-130723298D01*
X112229737Y-130723290D01*
X112364567Y-130472884D01*
X112398017Y-130410760D01*
X112513951Y-130125248D01*
X112531562Y-130081877D01*
X112531564Y-130081872D01*
X112532842Y-130078724D01*
X112543142Y-130042568D01*
X112583028Y-129902545D01*
X112631020Y-129734070D01*
X112663211Y-129545745D01*
X112690829Y-129384175D01*
X112690829Y-129384173D01*
X112691401Y-129380828D01*
X112693511Y-129346340D01*
X112713168Y-129024928D01*
X112713278Y-129023131D01*
X112713326Y-129009357D01*
X112713353Y-129001819D01*
X112713353Y-129001806D01*
X112713359Y-129000000D01*
X112693979Y-128642159D01*
X112636066Y-128288505D01*
X112540297Y-127943173D01*
X112537243Y-127935497D01*
X112409052Y-127613369D01*
X112407793Y-127610205D01*
X112373679Y-127545775D01*
X112241702Y-127296513D01*
X112241698Y-127296506D01*
X112240103Y-127293494D01*
X112039190Y-126996746D01*
X112036694Y-126993802D01*
X111912303Y-126847126D01*
X111807403Y-126723432D01*
X111547454Y-126476750D01*
X111298764Y-126287299D01*
X111265091Y-126261647D01*
X111265089Y-126261646D01*
X111262384Y-126259585D01*
X111259472Y-126257828D01*
X111259467Y-126257825D01*
X110958443Y-126076236D01*
X110958437Y-126076233D01*
X110955528Y-126074478D01*
X110630475Y-125923593D01*
X110460751Y-125866145D01*
X110294255Y-125809789D01*
X110294250Y-125809788D01*
X110291028Y-125808697D01*
X110018133Y-125748197D01*
X109944493Y-125731871D01*
X109944487Y-125731870D01*
X109941158Y-125731132D01*
X109937769Y-125730758D01*
X109937764Y-125730757D01*
X109588338Y-125692180D01*
X109588333Y-125692180D01*
X109584957Y-125691807D01*
X109581558Y-125691801D01*
X109581557Y-125691801D01*
X109412080Y-125691505D01*
X109226592Y-125691182D01*
X109113413Y-125703277D01*
X108873639Y-125728901D01*
X108873631Y-125728902D01*
X108870256Y-125729263D01*
X108520117Y-125805606D01*
X108180271Y-125919317D01*
X108177178Y-125920739D01*
X108177177Y-125920740D01*
X108170974Y-125923593D01*
X107854694Y-126069066D01*
X107851760Y-126070822D01*
X107851758Y-126070823D01*
X107649087Y-126192119D01*
X107547193Y-126253101D01*
X107544467Y-126255163D01*
X107544465Y-126255164D01*
X107521755Y-126272340D01*
X107261367Y-126469270D01*
X107000559Y-126715043D01*
X106998347Y-126717633D01*
X106998345Y-126717635D01*
X106958495Y-126764293D01*
X106767819Y-126987546D01*
X106765900Y-126990358D01*
X106765897Y-126990363D01*
X106672624Y-127127097D01*
X106565871Y-127283591D01*
X106397077Y-127599714D01*
X106263411Y-127932218D01*
X106262491Y-127935492D01*
X106262489Y-127935497D01*
X106178752Y-128233402D01*
X106166437Y-128277213D01*
X106107290Y-128630663D01*
X106086661Y-128988434D01*
X103829005Y-128988434D01*
X103830396Y-120465469D01*
X108747095Y-120465469D01*
X108760427Y-120696697D01*
X108761564Y-120701743D01*
X108761565Y-120701749D01*
X108793741Y-120844523D01*
X108811346Y-120922642D01*
X108813288Y-120927424D01*
X108813289Y-120927428D01*
X108896540Y-121132450D01*
X108898484Y-121137237D01*
X109019501Y-121334719D01*
X109171147Y-121509784D01*
X109349349Y-121657730D01*
X109549322Y-121774584D01*
X109765694Y-121857209D01*
X109770760Y-121858240D01*
X109770761Y-121858240D01*
X109823846Y-121869040D01*
X109992656Y-121903385D01*
X110123324Y-121908176D01*
X110218949Y-121911683D01*
X110218953Y-121911683D01*
X110224113Y-121911872D01*
X110229233Y-121911216D01*
X110229235Y-121911216D01*
X110328668Y-121898478D01*
X110453847Y-121882442D01*
X110458795Y-121880957D01*
X110458802Y-121880956D01*
X110670747Y-121817369D01*
X110675690Y-121815886D01*
X110756236Y-121776427D01*
X110879049Y-121716262D01*
X110879052Y-121716260D01*
X110883684Y-121713991D01*
X111072243Y-121579494D01*
X111075898Y-121575852D01*
X111075906Y-121575845D01*
X111117697Y-121534199D01*
X111180068Y-121500282D01*
X111250875Y-121505470D01*
X111307637Y-121548116D01*
X111324619Y-121579218D01*
X111346677Y-121638056D01*
X111355214Y-121653649D01*
X111431715Y-121755724D01*
X111444276Y-121768285D01*
X111546351Y-121844786D01*
X111561946Y-121853324D01*
X111682394Y-121898478D01*
X111697649Y-121902105D01*
X111748514Y-121907631D01*
X111755328Y-121908000D01*
X112427885Y-121908000D01*
X112443124Y-121903525D01*
X112444329Y-121902135D01*
X112446000Y-121894452D01*
X112446000Y-121889884D01*
X112954000Y-121889884D01*
X112958475Y-121905123D01*
X112959865Y-121906328D01*
X112967548Y-121907999D01*
X113644669Y-121907999D01*
X113651490Y-121907629D01*
X113702352Y-121902105D01*
X113717604Y-121898479D01*
X113838054Y-121853324D01*
X113853649Y-121844786D01*
X113955724Y-121768285D01*
X113968285Y-121755724D01*
X114044786Y-121653649D01*
X114053324Y-121638054D01*
X114098478Y-121517606D01*
X114102105Y-121502351D01*
X114107631Y-121451486D01*
X114108000Y-121444672D01*
X114108000Y-120772115D01*
X114103525Y-120756876D01*
X114102135Y-120755671D01*
X114094452Y-120754000D01*
X112972115Y-120754000D01*
X112956876Y-120758475D01*
X112955671Y-120759865D01*
X112954000Y-120767548D01*
X112954000Y-121889884D01*
X112446000Y-121889884D01*
X112446000Y-120227885D01*
X112954000Y-120227885D01*
X112958475Y-120243124D01*
X112959865Y-120244329D01*
X112967548Y-120246000D01*
X114089884Y-120246000D01*
X114105123Y-120241525D01*
X114106328Y-120240135D01*
X114107999Y-120232452D01*
X114107999Y-119555331D01*
X114107629Y-119548510D01*
X114102105Y-119497648D01*
X114098479Y-119482396D01*
X114053324Y-119361946D01*
X114044786Y-119346351D01*
X113968285Y-119244276D01*
X113955724Y-119231715D01*
X113853649Y-119155214D01*
X113838054Y-119146676D01*
X113717606Y-119101522D01*
X113702351Y-119097895D01*
X113651486Y-119092369D01*
X113644672Y-119092000D01*
X112972115Y-119092000D01*
X112956876Y-119096475D01*
X112955671Y-119097865D01*
X112954000Y-119105548D01*
X112954000Y-120227885D01*
X112446000Y-120227885D01*
X112446000Y-119110116D01*
X112441525Y-119094877D01*
X112440135Y-119093672D01*
X112432452Y-119092001D01*
X111755331Y-119092001D01*
X111748510Y-119092371D01*
X111697648Y-119097895D01*
X111682396Y-119101521D01*
X111561946Y-119146676D01*
X111546351Y-119155214D01*
X111444276Y-119231715D01*
X111431715Y-119244276D01*
X111355214Y-119346351D01*
X111346675Y-119361948D01*
X111325934Y-119417275D01*
X111283293Y-119474040D01*
X111216731Y-119498740D01*
X111147383Y-119483533D01*
X111124388Y-119466909D01*
X111123887Y-119466358D01*
X110942123Y-119322810D01*
X110883605Y-119290506D01*
X110833636Y-119240075D01*
X110818500Y-119180199D01*
X110818500Y-115902629D01*
X110838502Y-115834508D01*
X110892158Y-115788015D01*
X110904624Y-115783105D01*
X110966098Y-115762596D01*
X111027526Y-115742102D01*
X111176689Y-115649797D01*
X111300617Y-115525653D01*
X111302614Y-115522413D01*
X111359352Y-115482186D01*
X111430275Y-115478953D01*
X111491687Y-115514578D01*
X111499066Y-115523078D01*
X111505782Y-115531552D01*
X111619479Y-115645051D01*
X111630890Y-115654063D01*
X111767654Y-115738365D01*
X111780832Y-115744509D01*
X111933740Y-115795227D01*
X111947106Y-115798093D01*
X112040601Y-115807672D01*
X112047016Y-115808000D01*
X112065385Y-115808000D01*
X112080624Y-115803525D01*
X112081829Y-115802135D01*
X112083500Y-115794452D01*
X112083500Y-115789884D01*
X112591500Y-115789884D01*
X112595975Y-115805123D01*
X112597365Y-115806328D01*
X112605048Y-115807999D01*
X112627933Y-115807999D01*
X112634452Y-115807662D01*
X112729170Y-115797834D01*
X112742564Y-115794942D01*
X112895365Y-115743964D01*
X112908543Y-115737790D01*
X113045149Y-115653256D01*
X113056550Y-115644220D01*
X113170051Y-115530521D01*
X113179063Y-115519110D01*
X113263365Y-115382346D01*
X113269509Y-115369168D01*
X113320227Y-115216260D01*
X113323093Y-115202894D01*
X113332672Y-115109399D01*
X113333000Y-115102984D01*
X113333000Y-114872115D01*
X113328525Y-114856876D01*
X113327135Y-114855671D01*
X113319452Y-114854000D01*
X112609615Y-114854000D01*
X112594376Y-114858475D01*
X112593171Y-114859865D01*
X112591500Y-114867548D01*
X112591500Y-115789884D01*
X112083500Y-115789884D01*
X112083500Y-114327885D01*
X112591500Y-114327885D01*
X112595975Y-114343124D01*
X112597365Y-114344329D01*
X112605048Y-114346000D01*
X113314884Y-114346000D01*
X113330123Y-114341525D01*
X113331328Y-114340135D01*
X113332999Y-114332452D01*
X113332999Y-114097067D01*
X113332662Y-114090548D01*
X113322834Y-113995830D01*
X113319942Y-113982436D01*
X113268964Y-113829635D01*
X113262790Y-113816457D01*
X113178256Y-113679851D01*
X113169220Y-113668450D01*
X113055521Y-113554949D01*
X113044110Y-113545937D01*
X112907346Y-113461635D01*
X112894168Y-113455491D01*
X112741260Y-113404773D01*
X112727894Y-113401907D01*
X112634399Y-113392328D01*
X112627984Y-113392000D01*
X112609615Y-113392000D01*
X112594376Y-113396475D01*
X112593171Y-113397865D01*
X112591500Y-113405548D01*
X112591500Y-114327885D01*
X112083500Y-114327885D01*
X112083500Y-113410116D01*
X112079025Y-113394877D01*
X112077635Y-113393672D01*
X112069952Y-113392001D01*
X112047067Y-113392001D01*
X112040548Y-113392338D01*
X111945830Y-113402166D01*
X111932436Y-113405058D01*
X111779635Y-113456036D01*
X111766456Y-113462210D01*
X111650803Y-113533778D01*
X111582351Y-113552616D01*
X111514581Y-113531455D01*
X111469010Y-113477014D01*
X111458500Y-113426634D01*
X111458500Y-110886695D01*
X116437251Y-110886695D01*
X116437548Y-110891848D01*
X116437548Y-110891851D01*
X116442993Y-110986277D01*
X116450110Y-111109715D01*
X116451247Y-111114761D01*
X116451248Y-111114767D01*
X116463051Y-111167137D01*
X116499222Y-111327639D01*
X116583266Y-111534616D01*
X116699987Y-111725088D01*
X116846250Y-111893938D01*
X117018126Y-112036632D01*
X117211000Y-112149338D01*
X117215825Y-112151180D01*
X117215826Y-112151181D01*
X117253075Y-112165405D01*
X117419692Y-112229030D01*
X117424760Y-112230061D01*
X117424763Y-112230062D01*
X117532017Y-112251883D01*
X117638597Y-112273567D01*
X117643772Y-112273757D01*
X117643774Y-112273757D01*
X117856673Y-112281564D01*
X117856677Y-112281564D01*
X117861837Y-112281753D01*
X117866957Y-112281097D01*
X117866959Y-112281097D01*
X118078288Y-112254025D01*
X118078289Y-112254025D01*
X118083416Y-112253368D01*
X118088366Y-112251883D01*
X118292429Y-112190661D01*
X118292434Y-112190659D01*
X118297384Y-112189174D01*
X118497994Y-112090896D01*
X118679860Y-111961173D01*
X118707191Y-111933938D01*
X118814633Y-111826870D01*
X118838096Y-111803489D01*
X118897594Y-111720689D01*
X118965435Y-111626277D01*
X118968453Y-111622077D01*
X118994276Y-111569829D01*
X119065136Y-111426453D01*
X119065137Y-111426451D01*
X119067430Y-111421811D01*
X119132370Y-111208069D01*
X119161529Y-110986590D01*
X119161639Y-110982077D01*
X119163074Y-110923365D01*
X119163074Y-110923361D01*
X119163156Y-110920000D01*
X119144852Y-110697361D01*
X119090431Y-110480702D01*
X119001354Y-110275840D01*
X118961906Y-110214862D01*
X118882822Y-110092617D01*
X118882820Y-110092614D01*
X118880014Y-110088277D01*
X118729670Y-109923051D01*
X118725619Y-109919852D01*
X118725615Y-109919848D01*
X118558414Y-109787800D01*
X118558410Y-109787798D01*
X118554359Y-109784598D01*
X118513053Y-109761796D01*
X118463084Y-109711364D01*
X118448312Y-109641921D01*
X118473428Y-109575516D01*
X118500780Y-109548909D01*
X118546636Y-109516200D01*
X118679860Y-109421173D01*
X118707191Y-109393938D01*
X118814633Y-109286870D01*
X118838096Y-109263489D01*
X118897594Y-109180689D01*
X118965435Y-109086277D01*
X118968453Y-109082077D01*
X118994276Y-109029829D01*
X119065136Y-108886453D01*
X119065137Y-108886451D01*
X119067430Y-108881811D01*
X119123421Y-108697523D01*
X119130865Y-108673023D01*
X119130865Y-108673021D01*
X119132370Y-108668069D01*
X119161529Y-108446590D01*
X119161639Y-108442077D01*
X119163074Y-108383365D01*
X119163074Y-108383361D01*
X119163156Y-108380000D01*
X119144852Y-108157361D01*
X119090431Y-107940702D01*
X119001354Y-107735840D01*
X118961906Y-107674862D01*
X118887598Y-107560000D01*
X136686502Y-107560000D01*
X136706457Y-107788087D01*
X136707881Y-107793400D01*
X136707881Y-107793402D01*
X136753740Y-107964547D01*
X136765716Y-108009243D01*
X136768039Y-108014224D01*
X136768039Y-108014225D01*
X136860151Y-108211762D01*
X136860154Y-108211767D01*
X136862477Y-108216749D01*
X136907817Y-108281501D01*
X136977881Y-108381562D01*
X136993802Y-108404300D01*
X137155700Y-108566198D01*
X137160208Y-108569355D01*
X137160211Y-108569357D01*
X137312771Y-108676181D01*
X137357099Y-108731638D01*
X137366500Y-108779394D01*
X137366500Y-120791533D01*
X137365973Y-120802716D01*
X137364298Y-120810209D01*
X137364547Y-120818135D01*
X137364547Y-120818136D01*
X137366438Y-120878286D01*
X137366500Y-120882245D01*
X137366500Y-120910156D01*
X137366997Y-120914090D01*
X137366997Y-120914091D01*
X137367005Y-120914156D01*
X137367938Y-120925993D01*
X137369327Y-120970189D01*
X137374978Y-120989639D01*
X137378987Y-121009000D01*
X137381526Y-121029097D01*
X137384445Y-121036468D01*
X137384445Y-121036470D01*
X137397804Y-121070212D01*
X137401649Y-121081442D01*
X137413982Y-121123893D01*
X137418015Y-121130712D01*
X137418017Y-121130717D01*
X137424293Y-121141328D01*
X137432988Y-121159076D01*
X137440448Y-121177917D01*
X137445110Y-121184333D01*
X137445110Y-121184334D01*
X137466436Y-121213687D01*
X137472952Y-121223607D01*
X137495458Y-121261662D01*
X137509779Y-121275983D01*
X137522619Y-121291016D01*
X137534528Y-121307407D01*
X137540634Y-121312458D01*
X137568605Y-121335598D01*
X137577384Y-121343588D01*
X148926048Y-132692253D01*
X148933588Y-132700539D01*
X148937700Y-132707018D01*
X148943477Y-132712443D01*
X148987351Y-132753643D01*
X148990193Y-132756398D01*
X149009930Y-132776135D01*
X149013127Y-132778615D01*
X149022147Y-132786318D01*
X149054379Y-132816586D01*
X149061325Y-132820405D01*
X149061328Y-132820407D01*
X149072134Y-132826348D01*
X149088653Y-132837199D01*
X149104659Y-132849614D01*
X149111928Y-132852759D01*
X149111932Y-132852762D01*
X149145237Y-132867174D01*
X149155887Y-132872391D01*
X149194640Y-132893695D01*
X149202315Y-132895666D01*
X149202316Y-132895666D01*
X149214262Y-132898733D01*
X149232967Y-132905137D01*
X149251555Y-132913181D01*
X149259378Y-132914420D01*
X149259388Y-132914423D01*
X149295224Y-132920099D01*
X149306844Y-132922505D01*
X149338659Y-132930673D01*
X149349670Y-132933500D01*
X149369924Y-132933500D01*
X149389634Y-132935051D01*
X149409643Y-132938220D01*
X149417535Y-132937474D01*
X149436280Y-132935702D01*
X149453662Y-132934059D01*
X149465519Y-132933500D01*
X160291533Y-132933500D01*
X160302716Y-132934027D01*
X160310209Y-132935702D01*
X160318135Y-132935453D01*
X160318136Y-132935453D01*
X160378286Y-132933562D01*
X160382245Y-132933500D01*
X160410156Y-132933500D01*
X160414091Y-132933003D01*
X160414156Y-132932995D01*
X160425993Y-132932062D01*
X160458251Y-132931048D01*
X160462270Y-132930922D01*
X160470189Y-132930673D01*
X160489643Y-132925021D01*
X160509000Y-132921013D01*
X160521230Y-132919468D01*
X160521231Y-132919468D01*
X160529097Y-132918474D01*
X160536468Y-132915555D01*
X160536470Y-132915555D01*
X160570212Y-132902196D01*
X160581442Y-132898351D01*
X160616283Y-132888229D01*
X160616284Y-132888229D01*
X160623893Y-132886018D01*
X160630712Y-132881985D01*
X160630717Y-132881983D01*
X160641328Y-132875707D01*
X160659076Y-132867012D01*
X160677917Y-132859552D01*
X160713687Y-132833564D01*
X160723607Y-132827048D01*
X160754835Y-132808580D01*
X160754838Y-132808578D01*
X160761662Y-132804542D01*
X160775983Y-132790221D01*
X160791017Y-132777380D01*
X160800994Y-132770131D01*
X160807407Y-132765472D01*
X160835598Y-132731395D01*
X160843588Y-132722616D01*
X166290667Y-127275538D01*
X166352979Y-127241512D01*
X166423794Y-127246577D01*
X166480630Y-127289124D01*
X166505441Y-127355644D01*
X166490910Y-127423980D01*
X166397077Y-127599714D01*
X166263411Y-127932218D01*
X166262491Y-127935492D01*
X166262489Y-127935497D01*
X166178752Y-128233402D01*
X166166437Y-128277213D01*
X166107290Y-128630663D01*
X166086661Y-128988434D01*
X166086833Y-128991829D01*
X166086833Y-128991830D01*
X166091668Y-129087282D01*
X166104792Y-129346340D01*
X166105329Y-129349695D01*
X166105330Y-129349701D01*
X166123319Y-129462008D01*
X166161470Y-129700195D01*
X166256033Y-130045859D01*
X166387374Y-130379288D01*
X166418151Y-130437909D01*
X166497443Y-130588938D01*
X166553957Y-130696582D01*
X166555858Y-130699411D01*
X166555864Y-130699421D01*
X166739569Y-130972800D01*
X166753834Y-130994029D01*
X166984665Y-131268150D01*
X167243751Y-131515738D01*
X167528061Y-131733897D01*
X167560056Y-131753350D01*
X167831355Y-131918303D01*
X167831360Y-131918306D01*
X167834270Y-131920075D01*
X167837358Y-131921521D01*
X167837357Y-131921521D01*
X168155710Y-132070649D01*
X168155720Y-132070653D01*
X168158794Y-132072093D01*
X168162012Y-132073195D01*
X168162015Y-132073196D01*
X168494615Y-132187071D01*
X168494623Y-132187073D01*
X168497838Y-132188174D01*
X168847435Y-132266959D01*
X168899728Y-132272917D01*
X169200114Y-132307142D01*
X169200122Y-132307142D01*
X169203497Y-132307527D01*
X169206901Y-132307545D01*
X169206904Y-132307545D01*
X169401227Y-132308562D01*
X169561857Y-132309403D01*
X169565243Y-132309053D01*
X169565245Y-132309053D01*
X169914932Y-132272917D01*
X169914941Y-132272916D01*
X169918324Y-132272566D01*
X169921657Y-132271852D01*
X169921660Y-132271851D01*
X170094186Y-132234864D01*
X170268727Y-132197446D01*
X170608968Y-132084922D01*
X170935066Y-131936311D01*
X171029052Y-131880506D01*
X171240262Y-131755099D01*
X171240267Y-131755096D01*
X171243207Y-131753350D01*
X171529786Y-131538180D01*
X171791451Y-131293319D01*
X172025140Y-131021630D01*
X172131750Y-130866512D01*
X172226190Y-130729101D01*
X172226195Y-130729094D01*
X172228120Y-130726292D01*
X172229732Y-130723298D01*
X172229737Y-130723290D01*
X172364567Y-130472884D01*
X172398017Y-130410760D01*
X172513951Y-130125248D01*
X172531562Y-130081877D01*
X172531564Y-130081872D01*
X172532842Y-130078724D01*
X172543142Y-130042568D01*
X172583028Y-129902545D01*
X172631020Y-129734070D01*
X172663211Y-129545745D01*
X172690829Y-129384175D01*
X172690829Y-129384173D01*
X172691401Y-129380828D01*
X172693511Y-129346340D01*
X172713168Y-129024928D01*
X172713278Y-129023131D01*
X172713326Y-129009357D01*
X172713353Y-129001819D01*
X172713353Y-129001806D01*
X172713359Y-129000000D01*
X172693979Y-128642159D01*
X172636066Y-128288505D01*
X172540297Y-127943173D01*
X172537243Y-127935497D01*
X172409052Y-127613369D01*
X172407793Y-127610205D01*
X172373679Y-127545775D01*
X172241702Y-127296513D01*
X172241698Y-127296506D01*
X172240103Y-127293494D01*
X172039190Y-126996746D01*
X172036694Y-126993802D01*
X171912303Y-126847126D01*
X171807403Y-126723432D01*
X171547454Y-126476750D01*
X171298764Y-126287299D01*
X171265091Y-126261647D01*
X171265089Y-126261646D01*
X171262384Y-126259585D01*
X171259472Y-126257828D01*
X171259467Y-126257825D01*
X170958443Y-126076236D01*
X170958437Y-126076233D01*
X170955528Y-126074478D01*
X170630475Y-125923593D01*
X170460751Y-125866145D01*
X170294255Y-125809789D01*
X170294250Y-125809788D01*
X170291028Y-125808697D01*
X170018133Y-125748197D01*
X169944493Y-125731871D01*
X169944487Y-125731870D01*
X169941158Y-125731132D01*
X169937769Y-125730758D01*
X169937764Y-125730757D01*
X169588338Y-125692180D01*
X169588333Y-125692180D01*
X169584957Y-125691807D01*
X169581558Y-125691801D01*
X169581557Y-125691801D01*
X169412080Y-125691505D01*
X169226592Y-125691182D01*
X169113413Y-125703277D01*
X168873639Y-125728901D01*
X168873631Y-125728902D01*
X168870256Y-125729263D01*
X168520117Y-125805606D01*
X168180271Y-125919317D01*
X168177178Y-125920739D01*
X168177177Y-125920740D01*
X168170974Y-125923593D01*
X167854694Y-126069066D01*
X167851760Y-126070822D01*
X167851758Y-126070823D01*
X167838398Y-126078819D01*
X167769675Y-126096639D01*
X167702226Y-126074475D01*
X167657468Y-126019364D01*
X167649610Y-125948804D01*
X167684597Y-125881608D01*
X169867264Y-123698941D01*
X169875550Y-123691401D01*
X169882029Y-123687289D01*
X169928655Y-123637637D01*
X169931409Y-123634796D01*
X169951146Y-123615059D01*
X169953626Y-123611862D01*
X169961331Y-123602840D01*
X169986170Y-123576389D01*
X169991597Y-123570610D01*
X169995416Y-123563664D01*
X169995418Y-123563661D01*
X170001359Y-123552855D01*
X170012210Y-123536336D01*
X170019769Y-123526590D01*
X170024625Y-123520330D01*
X170027770Y-123513061D01*
X170027773Y-123513057D01*
X170042185Y-123479752D01*
X170047402Y-123469102D01*
X170068706Y-123430349D01*
X170073744Y-123410726D01*
X170080148Y-123392023D01*
X170085044Y-123380709D01*
X170085044Y-123380708D01*
X170088192Y-123373434D01*
X170089431Y-123365611D01*
X170089434Y-123365601D01*
X170095110Y-123329765D01*
X170097516Y-123318145D01*
X170106539Y-123283000D01*
X170106539Y-123282999D01*
X170108511Y-123275319D01*
X170108511Y-123255065D01*
X170110062Y-123235354D01*
X170111991Y-123223175D01*
X170113231Y-123215346D01*
X170109070Y-123171327D01*
X170108511Y-123159470D01*
X170108511Y-112783767D01*
X170110062Y-112764056D01*
X170111991Y-112751877D01*
X170113231Y-112744048D01*
X170109070Y-112700029D01*
X170108511Y-112688172D01*
X170108511Y-90573778D01*
X170109038Y-90562595D01*
X170110713Y-90555102D01*
X170108573Y-90487025D01*
X170108511Y-90483066D01*
X170108511Y-90455155D01*
X170108006Y-90451155D01*
X170107073Y-90439312D01*
X170105933Y-90403041D01*
X170105684Y-90395122D01*
X170100032Y-90375668D01*
X170096024Y-90356311D01*
X170094479Y-90344081D01*
X170094479Y-90344080D01*
X170093485Y-90336214D01*
X170090566Y-90328841D01*
X170077207Y-90295099D01*
X170073362Y-90283869D01*
X170063240Y-90249028D01*
X170063240Y-90249027D01*
X170061029Y-90241418D01*
X170056996Y-90234599D01*
X170056994Y-90234594D01*
X170050718Y-90223983D01*
X170042023Y-90206235D01*
X170034563Y-90187394D01*
X170008575Y-90151624D01*
X170002059Y-90141704D01*
X169983591Y-90110476D01*
X169983589Y-90110473D01*
X169979553Y-90103649D01*
X169965232Y-90089328D01*
X169952391Y-90074294D01*
X169945142Y-90064317D01*
X169940483Y-90057904D01*
X169906406Y-90029713D01*
X169897637Y-90021733D01*
X168951216Y-89075311D01*
X168917192Y-89013001D01*
X168919755Y-88949589D01*
X168930865Y-88913022D01*
X168932370Y-88908069D01*
X168961529Y-88686590D01*
X168963156Y-88620000D01*
X168944852Y-88397361D01*
X168890431Y-88180702D01*
X168801354Y-87975840D01*
X168680014Y-87788277D01*
X168529670Y-87623051D01*
X168525619Y-87619852D01*
X168525615Y-87619848D01*
X168358414Y-87487800D01*
X168358410Y-87487798D01*
X168354359Y-87484598D01*
X168313053Y-87461796D01*
X168263084Y-87411364D01*
X168248312Y-87341921D01*
X168273428Y-87275516D01*
X168300780Y-87248909D01*
X168366732Y-87201866D01*
X168479860Y-87121173D01*
X168638096Y-86963489D01*
X168697594Y-86880689D01*
X168765435Y-86786277D01*
X168768453Y-86782077D01*
X168785591Y-86747402D01*
X168865136Y-86586453D01*
X168865137Y-86586451D01*
X168867430Y-86581811D01*
X168932370Y-86368069D01*
X168961529Y-86146590D01*
X168963156Y-86080000D01*
X168944852Y-85857361D01*
X168890431Y-85640702D01*
X168801354Y-85435840D01*
X168680014Y-85248277D01*
X168529670Y-85083051D01*
X168525619Y-85079852D01*
X168525615Y-85079848D01*
X168358414Y-84947800D01*
X168358410Y-84947798D01*
X168354359Y-84944598D01*
X168158789Y-84836638D01*
X168153920Y-84834914D01*
X168153916Y-84834912D01*
X167953087Y-84763795D01*
X167953083Y-84763794D01*
X167948212Y-84762069D01*
X167943119Y-84761162D01*
X167943116Y-84761161D01*
X167733373Y-84723800D01*
X167733367Y-84723799D01*
X167728284Y-84722894D01*
X167654452Y-84721992D01*
X167510081Y-84720228D01*
X167510079Y-84720228D01*
X167504911Y-84720165D01*
X167284091Y-84753955D01*
X167071756Y-84823357D01*
X166873607Y-84926507D01*
X166869474Y-84929610D01*
X166869471Y-84929612D01*
X166845247Y-84947800D01*
X166694965Y-85060635D01*
X166540629Y-85222138D01*
X166433201Y-85379621D01*
X166378293Y-85424621D01*
X166307768Y-85432792D01*
X166244021Y-85401538D01*
X166223324Y-85377054D01*
X166142822Y-85252617D01*
X166142820Y-85252614D01*
X166140014Y-85248277D01*
X165989670Y-85083051D01*
X165985619Y-85079852D01*
X165985615Y-85079848D01*
X165818414Y-84947800D01*
X165818410Y-84947798D01*
X165814359Y-84944598D01*
X165618789Y-84836638D01*
X165613920Y-84834914D01*
X165613916Y-84834912D01*
X165413087Y-84763795D01*
X165413083Y-84763794D01*
X165408212Y-84762069D01*
X165403119Y-84761162D01*
X165403116Y-84761161D01*
X165193373Y-84723800D01*
X165193367Y-84723799D01*
X165188284Y-84722894D01*
X165114452Y-84721992D01*
X164970081Y-84720228D01*
X164970079Y-84720228D01*
X164964911Y-84720165D01*
X164744091Y-84753955D01*
X164531756Y-84823357D01*
X164333607Y-84926507D01*
X164329474Y-84929610D01*
X164329471Y-84929612D01*
X164305247Y-84947800D01*
X164154965Y-85060635D01*
X164000629Y-85222138D01*
X163874743Y-85406680D01*
X163780688Y-85609305D01*
X163720989Y-85824570D01*
X163697251Y-86046695D01*
X163697548Y-86051848D01*
X163697548Y-86051851D01*
X163703011Y-86146590D01*
X163710110Y-86269715D01*
X163711247Y-86274761D01*
X163711248Y-86274767D01*
X163731119Y-86362939D01*
X163759222Y-86487639D01*
X163843266Y-86694616D01*
X163881025Y-86756233D01*
X163957291Y-86880688D01*
X163959987Y-86885088D01*
X164106250Y-87053938D01*
X164278126Y-87196632D01*
X164348595Y-87237811D01*
X164351445Y-87239476D01*
X164400169Y-87291114D01*
X164413240Y-87360897D01*
X164386509Y-87426669D01*
X164346055Y-87460027D01*
X164333607Y-87466507D01*
X164329474Y-87469610D01*
X164329471Y-87469612D01*
X164305247Y-87487800D01*
X164154965Y-87600635D01*
X164000629Y-87762138D01*
X163874743Y-87946680D01*
X163780688Y-88149305D01*
X163720989Y-88364570D01*
X163697251Y-88586695D01*
X163697548Y-88591848D01*
X163697548Y-88591851D01*
X163703011Y-88686590D01*
X163710110Y-88809715D01*
X163711247Y-88814761D01*
X163711248Y-88814767D01*
X163728306Y-88890458D01*
X163759222Y-89027639D01*
X163761166Y-89032427D01*
X163762714Y-89037367D01*
X163760418Y-89038086D01*
X163766496Y-89098774D01*
X163734255Y-89162027D01*
X163672934Y-89197809D01*
X163642664Y-89201499D01*
X154118928Y-89201499D01*
X154110359Y-89201207D01*
X154060226Y-89197789D01*
X154060222Y-89197789D01*
X154052649Y-89197273D01*
X153989682Y-89208263D01*
X153983170Y-89209223D01*
X153919759Y-89216897D01*
X153912658Y-89219580D01*
X153910049Y-89220221D01*
X153893729Y-89224686D01*
X153891196Y-89225451D01*
X153883718Y-89226756D01*
X153825191Y-89252447D01*
X153819109Y-89254929D01*
X153798754Y-89262621D01*
X153766450Y-89274827D01*
X153766448Y-89274828D01*
X153759345Y-89277512D01*
X153753086Y-89281813D01*
X153750721Y-89283050D01*
X153735949Y-89291272D01*
X153733657Y-89292627D01*
X153726696Y-89295683D01*
X153720669Y-89300308D01*
X153720665Y-89300310D01*
X153675988Y-89334592D01*
X153670663Y-89338461D01*
X153618020Y-89374642D01*
X153612968Y-89380312D01*
X153612967Y-89380313D01*
X153576574Y-89421160D01*
X153571593Y-89426436D01*
X151893435Y-91104595D01*
X151831123Y-91138620D01*
X151804340Y-91141500D01*
X150849600Y-91141500D01*
X150846354Y-91141837D01*
X150846350Y-91141837D01*
X150750692Y-91151762D01*
X150750688Y-91151763D01*
X150743834Y-91152474D01*
X150737298Y-91154655D01*
X150737296Y-91154655D01*
X150657849Y-91181161D01*
X150576054Y-91208450D01*
X150425652Y-91301522D01*
X150420479Y-91306704D01*
X150362686Y-91364598D01*
X150300695Y-91426697D01*
X150296855Y-91432927D01*
X150296854Y-91432928D01*
X150213817Y-91567639D01*
X150207885Y-91577262D01*
X150205581Y-91584209D01*
X150160793Y-91719242D01*
X150152203Y-91745139D01*
X150151503Y-91751975D01*
X150151502Y-91751978D01*
X150149734Y-91769232D01*
X150141500Y-91849600D01*
X150141500Y-93150400D01*
X150141837Y-93153646D01*
X150141837Y-93153650D01*
X150144522Y-93179523D01*
X150152474Y-93256166D01*
X150208450Y-93423946D01*
X150301522Y-93574348D01*
X150426697Y-93699305D01*
X150432927Y-93703145D01*
X150432928Y-93703146D01*
X150523206Y-93758794D01*
X150577262Y-93792115D01*
X150584209Y-93794419D01*
X150586276Y-93795383D01*
X150639561Y-93842299D01*
X150659023Y-93910576D01*
X150638482Y-93978536D01*
X150608681Y-94010337D01*
X150594965Y-94020635D01*
X150591393Y-94024373D01*
X150467578Y-94153938D01*
X150440629Y-94182138D01*
X150437715Y-94186410D01*
X150437714Y-94186411D01*
X150388313Y-94258831D01*
X150314743Y-94366680D01*
X150285661Y-94429332D01*
X150238838Y-94482698D01*
X150170595Y-94502279D01*
X150102600Y-94481856D01*
X150082279Y-94465376D01*
X145046646Y-89429743D01*
X145012620Y-89367431D01*
X145010683Y-89335176D01*
X145010702Y-89335092D01*
X145008563Y-89267033D01*
X145008501Y-89263076D01*
X145008501Y-89235145D01*
X145007995Y-89231139D01*
X145007062Y-89219293D01*
X145006716Y-89208261D01*
X145005674Y-89175111D01*
X145000023Y-89155659D01*
X144996015Y-89136307D01*
X144994468Y-89124064D01*
X144993475Y-89116204D01*
X144990557Y-89108833D01*
X144977201Y-89075098D01*
X144973356Y-89063871D01*
X144972323Y-89060316D01*
X144961019Y-89021408D01*
X144956985Y-89014586D01*
X144956982Y-89014580D01*
X144950707Y-89003969D01*
X144942011Y-88986219D01*
X144937473Y-88974757D01*
X144937470Y-88974752D01*
X144934553Y-88967384D01*
X144908574Y-88931626D01*
X144902058Y-88921708D01*
X144883576Y-88890458D01*
X144879543Y-88883638D01*
X144865219Y-88869314D01*
X144852377Y-88854279D01*
X144840473Y-88837894D01*
X144806407Y-88809712D01*
X144797628Y-88801723D01*
X144595405Y-88599500D01*
X144561379Y-88537188D01*
X144558500Y-88510405D01*
X144558500Y-87201866D01*
X144551745Y-87139684D01*
X144500615Y-87003295D01*
X144413261Y-86886739D01*
X144296705Y-86799385D01*
X144160316Y-86748255D01*
X144098134Y-86741500D01*
X142301866Y-86741500D01*
X142239684Y-86748255D01*
X142103295Y-86799385D01*
X141986739Y-86886739D01*
X141899385Y-87003295D01*
X141848255Y-87139684D01*
X141841500Y-87201866D01*
X141841500Y-88998134D01*
X141848255Y-89060316D01*
X141899385Y-89196705D01*
X141986739Y-89313261D01*
X142103295Y-89400615D01*
X142111704Y-89403767D01*
X142111705Y-89403768D01*
X142220451Y-89444535D01*
X142277216Y-89487176D01*
X142301916Y-89553738D01*
X142286709Y-89623087D01*
X142267316Y-89649568D01*
X142140629Y-89782138D01*
X142014743Y-89966680D01*
X142012564Y-89971375D01*
X141931126Y-90146819D01*
X141920688Y-90169305D01*
X141860989Y-90384570D01*
X141837251Y-90606695D01*
X141837548Y-90611848D01*
X141837548Y-90611851D01*
X141847138Y-90778171D01*
X141850110Y-90829715D01*
X141851247Y-90834761D01*
X141851248Y-90834767D01*
X141868158Y-90909800D01*
X141899222Y-91047639D01*
X141983266Y-91254616D01*
X142016140Y-91308262D01*
X142085543Y-91421517D01*
X142099987Y-91445088D01*
X142246250Y-91613938D01*
X142418126Y-91756632D01*
X142442536Y-91770896D01*
X142491445Y-91799476D01*
X142540169Y-91851114D01*
X142553240Y-91920897D01*
X142526509Y-91986669D01*
X142486055Y-92020027D01*
X142473607Y-92026507D01*
X142469474Y-92029610D01*
X142469471Y-92029612D01*
X142312805Y-92147240D01*
X142294965Y-92160635D01*
X142291393Y-92164373D01*
X142174469Y-92286727D01*
X142140629Y-92322138D01*
X142014743Y-92506680D01*
X141920688Y-92709305D01*
X141860989Y-92924570D01*
X141837251Y-93146695D01*
X141837548Y-93151848D01*
X141837548Y-93151851D01*
X141849812Y-93364547D01*
X141850110Y-93369715D01*
X141851247Y-93374761D01*
X141851248Y-93374767D01*
X141872275Y-93468069D01*
X141899222Y-93587639D01*
X141983266Y-93794616D01*
X141985965Y-93799020D01*
X142090812Y-93970115D01*
X142099987Y-93985088D01*
X142246250Y-94153938D01*
X142418126Y-94296632D01*
X142438677Y-94308641D01*
X142491445Y-94339476D01*
X142540169Y-94391114D01*
X142553240Y-94460897D01*
X142526509Y-94526669D01*
X142486055Y-94560027D01*
X142473607Y-94566507D01*
X142469474Y-94569610D01*
X142469471Y-94569612D01*
X142299100Y-94697530D01*
X142294965Y-94700635D01*
X142291393Y-94704373D01*
X142174771Y-94826411D01*
X142140629Y-94862138D01*
X142137715Y-94866410D01*
X142137714Y-94866411D01*
X142131975Y-94874824D01*
X142014743Y-95046680D01*
X141994146Y-95091053D01*
X141941435Y-95204610D01*
X141920688Y-95249305D01*
X141860989Y-95464570D01*
X141837251Y-95686695D01*
X141837548Y-95691848D01*
X141837548Y-95691851D01*
X141846707Y-95850700D01*
X141850110Y-95909715D01*
X141851247Y-95914761D01*
X141851248Y-95914767D01*
X141863261Y-95968069D01*
X141899222Y-96127639D01*
X141983266Y-96334616D01*
X141985965Y-96339020D01*
X142067696Y-96472393D01*
X142099987Y-96525088D01*
X142246250Y-96693938D01*
X142418126Y-96836632D01*
X142422993Y-96839476D01*
X142491445Y-96879476D01*
X142540169Y-96931114D01*
X142553240Y-97000897D01*
X142526509Y-97066669D01*
X142486055Y-97100027D01*
X142473607Y-97106507D01*
X142469474Y-97109610D01*
X142469471Y-97109612D01*
X142313298Y-97226870D01*
X142294965Y-97240635D01*
X142291393Y-97244373D01*
X142174771Y-97366411D01*
X142140629Y-97402138D01*
X142014743Y-97586680D01*
X141988489Y-97643240D01*
X141933699Y-97761276D01*
X141920688Y-97789305D01*
X141860989Y-98004570D01*
X141837251Y-98226695D01*
X141837548Y-98231848D01*
X141837548Y-98231851D01*
X141844531Y-98352963D01*
X141850110Y-98449715D01*
X141851247Y-98454761D01*
X141851248Y-98454767D01*
X141868624Y-98531867D01*
X141899222Y-98667639D01*
X141983266Y-98874616D01*
X141985965Y-98879020D01*
X142049135Y-98982104D01*
X142099987Y-99065088D01*
X142246250Y-99233938D01*
X142418126Y-99376632D01*
X142422993Y-99379476D01*
X142491445Y-99419476D01*
X142540169Y-99471114D01*
X142553240Y-99540897D01*
X142526509Y-99606669D01*
X142486055Y-99640027D01*
X142473607Y-99646507D01*
X142469474Y-99649610D01*
X142469471Y-99649612D01*
X142313298Y-99766870D01*
X142294965Y-99780635D01*
X142291393Y-99784373D01*
X142174771Y-99906411D01*
X142140629Y-99942138D01*
X142014743Y-100126680D01*
X141999003Y-100160590D01*
X141941435Y-100284610D01*
X141920688Y-100329305D01*
X141860989Y-100544570D01*
X141837251Y-100766695D01*
X141837548Y-100771848D01*
X141837548Y-100771851D01*
X141847506Y-100944547D01*
X141850110Y-100989715D01*
X141851247Y-100994761D01*
X141851248Y-100994767D01*
X141863261Y-101048069D01*
X141899222Y-101207639D01*
X141940279Y-101308751D01*
X141976668Y-101398366D01*
X141983266Y-101414616D01*
X141985965Y-101419020D01*
X142049135Y-101522104D01*
X142099987Y-101605088D01*
X142246250Y-101773938D01*
X142418126Y-101916632D01*
X142484668Y-101955516D01*
X142491445Y-101959476D01*
X142540169Y-102011114D01*
X142553240Y-102080897D01*
X142526509Y-102146669D01*
X142486055Y-102180027D01*
X142473607Y-102186507D01*
X142469474Y-102189610D01*
X142469471Y-102189612D01*
X142313298Y-102306870D01*
X142294965Y-102320635D01*
X142249168Y-102368559D01*
X142168267Y-102453217D01*
X142140629Y-102482138D01*
X142137715Y-102486410D01*
X142137714Y-102486411D01*
X142025095Y-102651504D01*
X141970184Y-102696507D01*
X141921007Y-102706500D01*
X139999595Y-102706500D01*
X139931474Y-102686498D01*
X139910499Y-102669595D01*
X139020404Y-101779499D01*
X138986379Y-101717187D01*
X138983500Y-101690404D01*
X138983499Y-101401249D01*
X138983499Y-101398366D01*
X138983234Y-101395474D01*
X138977364Y-101331592D01*
X138976753Y-101324938D01*
X138955418Y-101256857D01*
X138927744Y-101168550D01*
X138927743Y-101168548D01*
X138925472Y-101161301D01*
X138836639Y-101014619D01*
X138795405Y-100973385D01*
X138761379Y-100911073D01*
X138758500Y-100884290D01*
X138758500Y-98531867D01*
X138778502Y-98463746D01*
X138812228Y-98428655D01*
X138844300Y-98406198D01*
X139006198Y-98244300D01*
X139022120Y-98221562D01*
X139134366Y-98061257D01*
X139137523Y-98056749D01*
X139139846Y-98051767D01*
X139139849Y-98051762D01*
X139231961Y-97854225D01*
X139231961Y-97854224D01*
X139234284Y-97849243D01*
X139250345Y-97789305D01*
X139292119Y-97633402D01*
X139292119Y-97633400D01*
X139293543Y-97628087D01*
X139313498Y-97400000D01*
X139293543Y-97171913D01*
X139283908Y-97135954D01*
X139235707Y-96956067D01*
X139235706Y-96956065D01*
X139234284Y-96950757D01*
X139225301Y-96931492D01*
X139139849Y-96748238D01*
X139139846Y-96748233D01*
X139137523Y-96743251D01*
X139026917Y-96585289D01*
X139009357Y-96560211D01*
X139009355Y-96560208D01*
X139006198Y-96555700D01*
X138844300Y-96393802D01*
X138839792Y-96390645D01*
X138839789Y-96390643D01*
X138720684Y-96307245D01*
X138656749Y-96262477D01*
X138651767Y-96260154D01*
X138651762Y-96260151D01*
X138454225Y-96168039D01*
X138454224Y-96168039D01*
X138449243Y-96165716D01*
X138443935Y-96164294D01*
X138443933Y-96164293D01*
X138233402Y-96107881D01*
X138233400Y-96107881D01*
X138228087Y-96106457D01*
X138000000Y-96086502D01*
X137771913Y-96106457D01*
X137766600Y-96107881D01*
X137766598Y-96107881D01*
X137556067Y-96164293D01*
X137556065Y-96164294D01*
X137550757Y-96165716D01*
X137545776Y-96168039D01*
X137545775Y-96168039D01*
X137348238Y-96260151D01*
X137348233Y-96260154D01*
X137343251Y-96262477D01*
X137279316Y-96307245D01*
X137160211Y-96390643D01*
X137160208Y-96390645D01*
X137155700Y-96393802D01*
X136993802Y-96555700D01*
X136990645Y-96560208D01*
X136990643Y-96560211D01*
X136973083Y-96585289D01*
X136862477Y-96743251D01*
X136860154Y-96748233D01*
X136860151Y-96748238D01*
X136774699Y-96931492D01*
X136765716Y-96950757D01*
X136764294Y-96956065D01*
X136764293Y-96956067D01*
X136716092Y-97135954D01*
X136706457Y-97171913D01*
X136686502Y-97400000D01*
X136706457Y-97628087D01*
X136707881Y-97633400D01*
X136707881Y-97633402D01*
X136749656Y-97789305D01*
X136765716Y-97849243D01*
X136768039Y-97854224D01*
X136768039Y-97854225D01*
X136860151Y-98051762D01*
X136860154Y-98051767D01*
X136862477Y-98056749D01*
X136865634Y-98061257D01*
X136977881Y-98221562D01*
X136993802Y-98244300D01*
X137155700Y-98406198D01*
X137187771Y-98428655D01*
X137232099Y-98484110D01*
X137241500Y-98531867D01*
X137241500Y-100884290D01*
X137221498Y-100952411D01*
X137204595Y-100973385D01*
X137163361Y-101014619D01*
X137074528Y-101161301D01*
X137023247Y-101324938D01*
X137016500Y-101398365D01*
X137016501Y-101911634D01*
X137016764Y-101914492D01*
X137016764Y-101914501D01*
X137019416Y-101943361D01*
X137023247Y-101985062D01*
X137025246Y-101991440D01*
X137025246Y-101991441D01*
X137069096Y-102131364D01*
X137074528Y-102148699D01*
X137163361Y-102295381D01*
X137258885Y-102390905D01*
X137292911Y-102453217D01*
X137287846Y-102524032D01*
X137258885Y-102569095D01*
X137163361Y-102664619D01*
X137074528Y-102811301D01*
X137072257Y-102818548D01*
X137072256Y-102818550D01*
X137057474Y-102865720D01*
X137023247Y-102974938D01*
X137016500Y-103048365D01*
X137016501Y-103561634D01*
X137023247Y-103635062D01*
X137074528Y-103798699D01*
X137163361Y-103945381D01*
X137204595Y-103986615D01*
X137238621Y-104048927D01*
X137241500Y-104075710D01*
X137241500Y-106428133D01*
X137221498Y-106496254D01*
X137187772Y-106531345D01*
X137155700Y-106553802D01*
X136993802Y-106715700D01*
X136990645Y-106720208D01*
X136990643Y-106720211D01*
X136971976Y-106746870D01*
X136862477Y-106903251D01*
X136860154Y-106908233D01*
X136860151Y-106908238D01*
X136768039Y-107105775D01*
X136765716Y-107110757D01*
X136764294Y-107116065D01*
X136764293Y-107116067D01*
X136722337Y-107272647D01*
X136706457Y-107331913D01*
X136686502Y-107560000D01*
X118887598Y-107560000D01*
X118882822Y-107552617D01*
X118882820Y-107552614D01*
X118880014Y-107548277D01*
X118729670Y-107383051D01*
X118725619Y-107379852D01*
X118725615Y-107379848D01*
X118558414Y-107247800D01*
X118558410Y-107247798D01*
X118554359Y-107244598D01*
X118513053Y-107221796D01*
X118463084Y-107171364D01*
X118448312Y-107101921D01*
X118473428Y-107035516D01*
X118500780Y-107008909D01*
X118563758Y-106963987D01*
X118679860Y-106881173D01*
X118700631Y-106860475D01*
X118814633Y-106746870D01*
X118838096Y-106723489D01*
X118897594Y-106640689D01*
X118965435Y-106546277D01*
X118968453Y-106542077D01*
X118992351Y-106493724D01*
X119065136Y-106346453D01*
X119065137Y-106346451D01*
X119067430Y-106341811D01*
X119132370Y-106128069D01*
X119161529Y-105906590D01*
X119162846Y-105852699D01*
X119163074Y-105843365D01*
X119163074Y-105843361D01*
X119163156Y-105840000D01*
X119144852Y-105617361D01*
X119090431Y-105400702D01*
X119001354Y-105195840D01*
X118961906Y-105134862D01*
X118882822Y-105012617D01*
X118882820Y-105012614D01*
X118880014Y-105008277D01*
X118729670Y-104843051D01*
X118725619Y-104839852D01*
X118725615Y-104839848D01*
X118558414Y-104707800D01*
X118558410Y-104707798D01*
X118554359Y-104704598D01*
X118513053Y-104681796D01*
X118463084Y-104631364D01*
X118448312Y-104561921D01*
X118473428Y-104495516D01*
X118500780Y-104468909D01*
X118544603Y-104437650D01*
X118679860Y-104341173D01*
X118733594Y-104287627D01*
X118834435Y-104187137D01*
X118838096Y-104183489D01*
X118858394Y-104155242D01*
X118965435Y-104006277D01*
X118968453Y-104002077D01*
X118979683Y-103979356D01*
X119065136Y-103806453D01*
X119065137Y-103806451D01*
X119067430Y-103801811D01*
X119132370Y-103588069D01*
X119161529Y-103366590D01*
X119162047Y-103345381D01*
X119163074Y-103303365D01*
X119163074Y-103303361D01*
X119163156Y-103300000D01*
X119144852Y-103077361D01*
X119090431Y-102860702D01*
X119001354Y-102655840D01*
X118903420Y-102504457D01*
X118882822Y-102472617D01*
X118882820Y-102472614D01*
X118880014Y-102468277D01*
X118729670Y-102303051D01*
X118725619Y-102299852D01*
X118725615Y-102299848D01*
X118558414Y-102167800D01*
X118558410Y-102167798D01*
X118554359Y-102164598D01*
X118513053Y-102141796D01*
X118463084Y-102091364D01*
X118448312Y-102021921D01*
X118473428Y-101955516D01*
X118500780Y-101928909D01*
X118569348Y-101880000D01*
X118679860Y-101801173D01*
X118707191Y-101773938D01*
X118764140Y-101717187D01*
X118838096Y-101643489D01*
X118847277Y-101630713D01*
X118965435Y-101466277D01*
X118968453Y-101462077D01*
X118994276Y-101409829D01*
X119065136Y-101266453D01*
X119065137Y-101266451D01*
X119067430Y-101261811D01*
X119132370Y-101048069D01*
X119161529Y-100826590D01*
X119161753Y-100817438D01*
X119163074Y-100763365D01*
X119163074Y-100763361D01*
X119163156Y-100760000D01*
X119144852Y-100537361D01*
X119090431Y-100320702D01*
X119001354Y-100115840D01*
X118903420Y-99964457D01*
X118882822Y-99932617D01*
X118882820Y-99932614D01*
X118880014Y-99928277D01*
X118729670Y-99763051D01*
X118725619Y-99759852D01*
X118725615Y-99759848D01*
X118558414Y-99627800D01*
X118558410Y-99627798D01*
X118554359Y-99624598D01*
X118513053Y-99601796D01*
X118463084Y-99551364D01*
X118448312Y-99481921D01*
X118473428Y-99415516D01*
X118500780Y-99388909D01*
X118544603Y-99357650D01*
X118679860Y-99261173D01*
X118707191Y-99233938D01*
X118816582Y-99124928D01*
X118838096Y-99103489D01*
X118897594Y-99020689D01*
X118965435Y-98926277D01*
X118968453Y-98922077D01*
X118994276Y-98869829D01*
X119065136Y-98726453D01*
X119065137Y-98726451D01*
X119067430Y-98721811D01*
X119125140Y-98531867D01*
X119130865Y-98513023D01*
X119130865Y-98513021D01*
X119132370Y-98508069D01*
X119161529Y-98286590D01*
X119162562Y-98244300D01*
X119163074Y-98223365D01*
X119163074Y-98223361D01*
X119163156Y-98220000D01*
X119144852Y-97997361D01*
X119090431Y-97780702D01*
X119001354Y-97575840D01*
X118961906Y-97514862D01*
X118882822Y-97392617D01*
X118882820Y-97392614D01*
X118880014Y-97388277D01*
X118729670Y-97223051D01*
X118725619Y-97219852D01*
X118725615Y-97219848D01*
X118558414Y-97087800D01*
X118558410Y-97087798D01*
X118554359Y-97084598D01*
X118513053Y-97061796D01*
X118463084Y-97011364D01*
X118448312Y-96941921D01*
X118473428Y-96875516D01*
X118500780Y-96848909D01*
X118564445Y-96803497D01*
X118679860Y-96721173D01*
X118700631Y-96700475D01*
X118816220Y-96585289D01*
X118838096Y-96563489D01*
X118897594Y-96480689D01*
X118965435Y-96386277D01*
X118968453Y-96382077D01*
X118994276Y-96329829D01*
X119065136Y-96186453D01*
X119065137Y-96186451D01*
X119067430Y-96181811D01*
X119132370Y-95968069D01*
X119161529Y-95746590D01*
X119162846Y-95692699D01*
X119163074Y-95683365D01*
X119163074Y-95683361D01*
X119163156Y-95680000D01*
X119144852Y-95457361D01*
X119090431Y-95240702D01*
X119001354Y-95035840D01*
X118892481Y-94867548D01*
X118882822Y-94852617D01*
X118882820Y-94852614D01*
X118880014Y-94848277D01*
X118729670Y-94683051D01*
X118725619Y-94679852D01*
X118725615Y-94679848D01*
X118558414Y-94547800D01*
X118558410Y-94547798D01*
X118554359Y-94544598D01*
X118512569Y-94521529D01*
X118462598Y-94471097D01*
X118447826Y-94401654D01*
X118472942Y-94335248D01*
X118500294Y-94308641D01*
X118675328Y-94183792D01*
X118683200Y-94177139D01*
X118834052Y-94026812D01*
X118840730Y-94018965D01*
X118965003Y-93846020D01*
X118970313Y-93837183D01*
X119064670Y-93646267D01*
X119068469Y-93636672D01*
X119130377Y-93432910D01*
X119132555Y-93422837D01*
X119133986Y-93411962D01*
X119131775Y-93397778D01*
X119118617Y-93394000D01*
X116483225Y-93394000D01*
X116469694Y-93397973D01*
X116468257Y-93407966D01*
X116498565Y-93542446D01*
X116501645Y-93552275D01*
X116581770Y-93749603D01*
X116586413Y-93758794D01*
X116697694Y-93940388D01*
X116703777Y-93948699D01*
X116843213Y-94109667D01*
X116850580Y-94116883D01*
X117014434Y-94252916D01*
X117022881Y-94258831D01*
X117091969Y-94299203D01*
X117140693Y-94350842D01*
X117153764Y-94420625D01*
X117127033Y-94486396D01*
X117086584Y-94519752D01*
X117073607Y-94526507D01*
X117069474Y-94529610D01*
X117069471Y-94529612D01*
X116899100Y-94657530D01*
X116894965Y-94660635D01*
X116740629Y-94822138D01*
X116614743Y-95006680D01*
X116520688Y-95209305D01*
X116460989Y-95424570D01*
X116460440Y-95429707D01*
X116459465Y-95438831D01*
X116437251Y-95646695D01*
X116437548Y-95651848D01*
X116437548Y-95651851D01*
X116442993Y-95746277D01*
X116450110Y-95869715D01*
X116451247Y-95874761D01*
X116451248Y-95874767D01*
X116463051Y-95927137D01*
X116499222Y-96087639D01*
X116583266Y-96294616D01*
X116607778Y-96334616D01*
X116692208Y-96472393D01*
X116699987Y-96485088D01*
X116846250Y-96653938D01*
X117018126Y-96796632D01*
X117080922Y-96833327D01*
X117091445Y-96839476D01*
X117140169Y-96891114D01*
X117153240Y-96960897D01*
X117126509Y-97026669D01*
X117086055Y-97060027D01*
X117073607Y-97066507D01*
X117069474Y-97069610D01*
X117069471Y-97069612D01*
X116940298Y-97166598D01*
X116894965Y-97200635D01*
X116740629Y-97362138D01*
X116737715Y-97366410D01*
X116737714Y-97366411D01*
X116710428Y-97406411D01*
X116614743Y-97546680D01*
X116520688Y-97749305D01*
X116460989Y-97964570D01*
X116437251Y-98186695D01*
X116437548Y-98191848D01*
X116437548Y-98191851D01*
X116449812Y-98404547D01*
X116450110Y-98409715D01*
X116451247Y-98414761D01*
X116451248Y-98414767D01*
X116463051Y-98467137D01*
X116499222Y-98627639D01*
X116583266Y-98834616D01*
X116699987Y-99025088D01*
X116846250Y-99193938D01*
X117018126Y-99336632D01*
X117080922Y-99373327D01*
X117091445Y-99379476D01*
X117140169Y-99431114D01*
X117153240Y-99500897D01*
X117126509Y-99566669D01*
X117086055Y-99600027D01*
X117073607Y-99606507D01*
X117069474Y-99609610D01*
X117069471Y-99609612D01*
X116991972Y-99667800D01*
X116894965Y-99740635D01*
X116740629Y-99902138D01*
X116614743Y-100086680D01*
X116520688Y-100289305D01*
X116460989Y-100504570D01*
X116437251Y-100726695D01*
X116437548Y-100731848D01*
X116437548Y-100731851D01*
X116442993Y-100826277D01*
X116450110Y-100949715D01*
X116451247Y-100954761D01*
X116451248Y-100954767D01*
X116463051Y-101007137D01*
X116499222Y-101167639D01*
X116583266Y-101374616D01*
X116607778Y-101414616D01*
X116685502Y-101541450D01*
X116699987Y-101565088D01*
X116846250Y-101733938D01*
X117018126Y-101876632D01*
X117073091Y-101908751D01*
X117091445Y-101919476D01*
X117140169Y-101971114D01*
X117153240Y-102040897D01*
X117126509Y-102106669D01*
X117086055Y-102140027D01*
X117073607Y-102146507D01*
X117069474Y-102149610D01*
X117069471Y-102149612D01*
X116974788Y-102220702D01*
X116894965Y-102280635D01*
X116891393Y-102284373D01*
X116798480Y-102381601D01*
X116740629Y-102442138D01*
X116737715Y-102446410D01*
X116737714Y-102446411D01*
X116734414Y-102451249D01*
X116614743Y-102626680D01*
X116520688Y-102829305D01*
X116460989Y-103044570D01*
X116437251Y-103266695D01*
X116437548Y-103271848D01*
X116437548Y-103271851D01*
X116443011Y-103366590D01*
X116450110Y-103489715D01*
X116451247Y-103494761D01*
X116451248Y-103494767D01*
X116465668Y-103558751D01*
X116499222Y-103707639D01*
X116583266Y-103914616D01*
X116622939Y-103979356D01*
X116693722Y-104094864D01*
X116699987Y-104105088D01*
X116846250Y-104273938D01*
X117018126Y-104416632D01*
X117088595Y-104457811D01*
X117091445Y-104459476D01*
X117140169Y-104511114D01*
X117153240Y-104580897D01*
X117126509Y-104646669D01*
X117086055Y-104680027D01*
X117073607Y-104686507D01*
X117069474Y-104689610D01*
X117069471Y-104689612D01*
X116981104Y-104755960D01*
X116894965Y-104820635D01*
X116740629Y-104982138D01*
X116614743Y-105166680D01*
X116574785Y-105252762D01*
X116535693Y-105336980D01*
X116520688Y-105369305D01*
X116460989Y-105584570D01*
X116437251Y-105806695D01*
X116437548Y-105811848D01*
X116437548Y-105811851D01*
X116442993Y-105906277D01*
X116450110Y-106029715D01*
X116451247Y-106034761D01*
X116451248Y-106034767D01*
X116471119Y-106122939D01*
X116499222Y-106247639D01*
X116537461Y-106341811D01*
X116570360Y-106422831D01*
X116583266Y-106454616D01*
X116607231Y-106493724D01*
X116692208Y-106632393D01*
X116699987Y-106645088D01*
X116846250Y-106813938D01*
X117018126Y-106956632D01*
X117030713Y-106963987D01*
X117091445Y-106999476D01*
X117140169Y-107051114D01*
X117153240Y-107120897D01*
X117126509Y-107186669D01*
X117086055Y-107220027D01*
X117073607Y-107226507D01*
X117069474Y-107229610D01*
X117069471Y-107229612D01*
X116899100Y-107357530D01*
X116894965Y-107360635D01*
X116740629Y-107522138D01*
X116737715Y-107526410D01*
X116737714Y-107526411D01*
X116710428Y-107566411D01*
X116614743Y-107706680D01*
X116520688Y-107909305D01*
X116460989Y-108124570D01*
X116437251Y-108346695D01*
X116437548Y-108351848D01*
X116437548Y-108351851D01*
X116449812Y-108564547D01*
X116450110Y-108569715D01*
X116451247Y-108574761D01*
X116451248Y-108574767D01*
X116463051Y-108627137D01*
X116499222Y-108787639D01*
X116583266Y-108994616D01*
X116699987Y-109185088D01*
X116846250Y-109353938D01*
X117018126Y-109496632D01*
X117072118Y-109528182D01*
X117091445Y-109539476D01*
X117140169Y-109591114D01*
X117153240Y-109660897D01*
X117126509Y-109726669D01*
X117086055Y-109760027D01*
X117073607Y-109766507D01*
X117069474Y-109769610D01*
X117069471Y-109769612D01*
X116981112Y-109835954D01*
X116894965Y-109900635D01*
X116740629Y-110062138D01*
X116614743Y-110246680D01*
X116520688Y-110449305D01*
X116460989Y-110664570D01*
X116437251Y-110886695D01*
X111458500Y-110886695D01*
X111458500Y-108056888D01*
X111478502Y-107988767D01*
X111512228Y-107953676D01*
X111582301Y-107904610D01*
X111639789Y-107864357D01*
X111639792Y-107864355D01*
X111644300Y-107861198D01*
X111806198Y-107699300D01*
X111937523Y-107511749D01*
X111939846Y-107506767D01*
X111939849Y-107506762D01*
X112031961Y-107309225D01*
X112031961Y-107309224D01*
X112034284Y-107304243D01*
X112043564Y-107269612D01*
X112092119Y-107088402D01*
X112092119Y-107088400D01*
X112093543Y-107083087D01*
X112113498Y-106855000D01*
X112093543Y-106626913D01*
X112087564Y-106604598D01*
X112035707Y-106411067D01*
X112035706Y-106411065D01*
X112034284Y-106405757D01*
X112009324Y-106352230D01*
X111939849Y-106203238D01*
X111939846Y-106203233D01*
X111937523Y-106198251D01*
X111843902Y-106064547D01*
X111809357Y-106015211D01*
X111809355Y-106015208D01*
X111806198Y-106010700D01*
X111644300Y-105848802D01*
X111612229Y-105826345D01*
X111567901Y-105770890D01*
X111558500Y-105723133D01*
X111558500Y-103475710D01*
X111578502Y-103407589D01*
X111595405Y-103386615D01*
X111636639Y-103345381D01*
X111725472Y-103198699D01*
X111776753Y-103035062D01*
X111783500Y-102961635D01*
X111783499Y-102448366D01*
X111783234Y-102445474D01*
X111777364Y-102381592D01*
X111776753Y-102374938D01*
X111766760Y-102343051D01*
X111727744Y-102218550D01*
X111727743Y-102218548D01*
X111725472Y-102211301D01*
X111636639Y-102064619D01*
X111541115Y-101969095D01*
X111507089Y-101906783D01*
X111512154Y-101835968D01*
X111541115Y-101790905D01*
X111636639Y-101695381D01*
X111725472Y-101548699D01*
X111732022Y-101527800D01*
X111766111Y-101419020D01*
X111776753Y-101385062D01*
X111783500Y-101311635D01*
X111783499Y-100798366D01*
X111783234Y-100795474D01*
X111777364Y-100731592D01*
X111776753Y-100724938D01*
X111744435Y-100621811D01*
X111727744Y-100568550D01*
X111727743Y-100568548D01*
X111725472Y-100561301D01*
X111636639Y-100414619D01*
X111595405Y-100373385D01*
X111561379Y-100311073D01*
X111558500Y-100284290D01*
X111558500Y-97826867D01*
X111578502Y-97758746D01*
X111612228Y-97723655D01*
X111644300Y-97701198D01*
X111806198Y-97539300D01*
X111937523Y-97351749D01*
X111939846Y-97346767D01*
X111939849Y-97346762D01*
X112031961Y-97149225D01*
X112031961Y-97149224D01*
X112034284Y-97144243D01*
X112043564Y-97109612D01*
X112092119Y-96928402D01*
X112092119Y-96928400D01*
X112093543Y-96923087D01*
X112113498Y-96695000D01*
X112093543Y-96466913D01*
X112087564Y-96444598D01*
X112035707Y-96251067D01*
X112035706Y-96251065D01*
X112034284Y-96245757D01*
X112017102Y-96208909D01*
X111939849Y-96043238D01*
X111939846Y-96043233D01*
X111937523Y-96038251D01*
X111823050Y-95874767D01*
X111809357Y-95855211D01*
X111809355Y-95855208D01*
X111806198Y-95850700D01*
X111644300Y-95688802D01*
X111639792Y-95685645D01*
X111639789Y-95685643D01*
X111577851Y-95642274D01*
X111512228Y-95596324D01*
X111467901Y-95540868D01*
X111458500Y-95493112D01*
X111458500Y-95384950D01*
X111478502Y-95316829D01*
X111495405Y-95295855D01*
X116226947Y-90564313D01*
X116289259Y-90530287D01*
X116360074Y-90535352D01*
X116416910Y-90577899D01*
X116441832Y-90646154D01*
X116450110Y-90789715D01*
X116451247Y-90794761D01*
X116451248Y-90794767D01*
X116460263Y-90834767D01*
X116499222Y-91007639D01*
X116583266Y-91214616D01*
X116634019Y-91297438D01*
X116673645Y-91362101D01*
X116699987Y-91405088D01*
X116846250Y-91573938D01*
X117018126Y-91716632D01*
X117055739Y-91738611D01*
X117091955Y-91759774D01*
X117140679Y-91811412D01*
X117153750Y-91881195D01*
X117127019Y-91946967D01*
X117086562Y-91980327D01*
X117078457Y-91984546D01*
X117069738Y-91990036D01*
X116899433Y-92117905D01*
X116891726Y-92124748D01*
X116744590Y-92278717D01*
X116738104Y-92286727D01*
X116618098Y-92462649D01*
X116613000Y-92471623D01*
X116523338Y-92664783D01*
X116519775Y-92674470D01*
X116464389Y-92874183D01*
X116465912Y-92882607D01*
X116478292Y-92886000D01*
X119118344Y-92886000D01*
X119131875Y-92882027D01*
X119133180Y-92872947D01*
X119091214Y-92705875D01*
X119087894Y-92696124D01*
X119002972Y-92500814D01*
X118998105Y-92491739D01*
X118882426Y-92312926D01*
X118876136Y-92304757D01*
X118732806Y-92147240D01*
X118725273Y-92140215D01*
X118558139Y-92008222D01*
X118549556Y-92002520D01*
X118512602Y-91982120D01*
X118462631Y-91931687D01*
X118447859Y-91862245D01*
X118472975Y-91795839D01*
X118500327Y-91769232D01*
X118543256Y-91738611D01*
X118679860Y-91641173D01*
X118707191Y-91613938D01*
X118814633Y-91506870D01*
X118838096Y-91483489D01*
X118897594Y-91400689D01*
X118965435Y-91306277D01*
X118968453Y-91302077D01*
X118991764Y-91254912D01*
X119065136Y-91106453D01*
X119065137Y-91106451D01*
X119067430Y-91101811D01*
X119125768Y-90909800D01*
X119130865Y-90893023D01*
X119130865Y-90893021D01*
X119132370Y-90888069D01*
X119161529Y-90666590D01*
X119162704Y-90618499D01*
X119163074Y-90603365D01*
X119163074Y-90603361D01*
X119163156Y-90600000D01*
X119144852Y-90377361D01*
X119090431Y-90160702D01*
X119001354Y-89955840D01*
X118961906Y-89894862D01*
X118882822Y-89772617D01*
X118882820Y-89772614D01*
X118880014Y-89768277D01*
X118876532Y-89764450D01*
X118732798Y-89606488D01*
X118701746Y-89542642D01*
X118710141Y-89472143D01*
X118755317Y-89417375D01*
X118781761Y-89403706D01*
X118888297Y-89363767D01*
X118896705Y-89360615D01*
X119013261Y-89273261D01*
X119100615Y-89156705D01*
X119151745Y-89020316D01*
X119158500Y-88958134D01*
X119158500Y-87161866D01*
X119151745Y-87099684D01*
X119100615Y-86963295D01*
X119013261Y-86846739D01*
X118896705Y-86759385D01*
X118760316Y-86708255D01*
X118698134Y-86701500D01*
X116901866Y-86701500D01*
X116839684Y-86708255D01*
X116703295Y-86759385D01*
X116586739Y-86846739D01*
X116499385Y-86963295D01*
X116448255Y-87099684D01*
X116441500Y-87161866D01*
X116441500Y-88435050D01*
X116421498Y-88503171D01*
X116404595Y-88524145D01*
X110392395Y-94536345D01*
X110383615Y-94544335D01*
X110383613Y-94544337D01*
X110376920Y-94548584D01*
X110371494Y-94554362D01*
X110371493Y-94554363D01*
X110328396Y-94600257D01*
X110325641Y-94603099D01*
X110305073Y-94623667D01*
X110302356Y-94627170D01*
X110294648Y-94636195D01*
X110263028Y-94669867D01*
X110259207Y-94676818D01*
X110259206Y-94676819D01*
X110252697Y-94688658D01*
X110241843Y-94705182D01*
X110234018Y-94715271D01*
X110228696Y-94722132D01*
X110225549Y-94729404D01*
X110225548Y-94729406D01*
X110210346Y-94764535D01*
X110205124Y-94775195D01*
X110182876Y-94815663D01*
X110177541Y-94836441D01*
X110171142Y-94855131D01*
X110162620Y-94874824D01*
X110161380Y-94882655D01*
X110155394Y-94920448D01*
X110152987Y-94932071D01*
X110141500Y-94976812D01*
X110141500Y-94998259D01*
X110139949Y-95017969D01*
X110136594Y-95039152D01*
X110137340Y-95047043D01*
X110140941Y-95085138D01*
X110141500Y-95096996D01*
X110141500Y-95493112D01*
X110121498Y-95561233D01*
X110087772Y-95596324D01*
X110022149Y-95642274D01*
X109960211Y-95685643D01*
X109960208Y-95685645D01*
X109955700Y-95688802D01*
X109793802Y-95850700D01*
X109790645Y-95855208D01*
X109790643Y-95855211D01*
X109776950Y-95874767D01*
X109662477Y-96038251D01*
X109660154Y-96043233D01*
X109660151Y-96043238D01*
X109582898Y-96208909D01*
X109565716Y-96245757D01*
X109564294Y-96251065D01*
X109564293Y-96251067D01*
X109512436Y-96444598D01*
X109506457Y-96466913D01*
X109486502Y-96695000D01*
X109506457Y-96923087D01*
X109507881Y-96928400D01*
X109507881Y-96928402D01*
X109556437Y-97109612D01*
X109565716Y-97144243D01*
X109568039Y-97149224D01*
X109568039Y-97149225D01*
X109660151Y-97346762D01*
X109660154Y-97346767D01*
X109662477Y-97351749D01*
X109793802Y-97539300D01*
X109955700Y-97701198D01*
X109987771Y-97723655D01*
X110032099Y-97779110D01*
X110041500Y-97826867D01*
X110041500Y-100284290D01*
X110021498Y-100352411D01*
X110004595Y-100373385D01*
X109963361Y-100414619D01*
X109874528Y-100561301D01*
X109872257Y-100568548D01*
X109872256Y-100568550D01*
X109859994Y-100607680D01*
X109823247Y-100724938D01*
X109816500Y-100798365D01*
X109816501Y-101311634D01*
X109816764Y-101314492D01*
X109816764Y-101314501D01*
X109818335Y-101331601D01*
X109823247Y-101385062D01*
X109825246Y-101391440D01*
X109825246Y-101391441D01*
X109867979Y-101527800D01*
X109874528Y-101548699D01*
X109963361Y-101695381D01*
X110058885Y-101790905D01*
X110092911Y-101853217D01*
X110087846Y-101924032D01*
X110058885Y-101969095D01*
X109963361Y-102064619D01*
X109874528Y-102211301D01*
X109872257Y-102218548D01*
X109872256Y-102218550D01*
X109851483Y-102284836D01*
X109823247Y-102374938D01*
X109816500Y-102448365D01*
X109816501Y-102961634D01*
X109816764Y-102964492D01*
X109816764Y-102964501D01*
X109817723Y-102974938D01*
X109823247Y-103035062D01*
X109874528Y-103198699D01*
X109963361Y-103345381D01*
X110004595Y-103386615D01*
X110038621Y-103448927D01*
X110041500Y-103475710D01*
X110041500Y-105723133D01*
X110021498Y-105791254D01*
X109987772Y-105826345D01*
X109955700Y-105848802D01*
X109793802Y-106010700D01*
X109790645Y-106015208D01*
X109790643Y-106015211D01*
X109756098Y-106064547D01*
X109662477Y-106198251D01*
X109660154Y-106203233D01*
X109660151Y-106203238D01*
X109590676Y-106352230D01*
X109565716Y-106405757D01*
X109564294Y-106411065D01*
X109564293Y-106411067D01*
X109512436Y-106604598D01*
X109506457Y-106626913D01*
X109486502Y-106855000D01*
X109506457Y-107083087D01*
X109507881Y-107088400D01*
X109507881Y-107088402D01*
X109556437Y-107269612D01*
X109565716Y-107304243D01*
X109568039Y-107309224D01*
X109568039Y-107309225D01*
X109660151Y-107506762D01*
X109660154Y-107506767D01*
X109662477Y-107511749D01*
X109793802Y-107699300D01*
X109955700Y-107861198D01*
X109960208Y-107864355D01*
X109960211Y-107864357D01*
X110017699Y-107904610D01*
X110087772Y-107953676D01*
X110132099Y-108009132D01*
X110141500Y-108056888D01*
X110141500Y-113285694D01*
X110121498Y-113353815D01*
X110067842Y-113400308D01*
X110055376Y-113405218D01*
X109897474Y-113457898D01*
X109748311Y-113550203D01*
X109624383Y-113674347D01*
X109620543Y-113680577D01*
X109620542Y-113680578D01*
X109604171Y-113707137D01*
X109532339Y-113823671D01*
X109530034Y-113830619D01*
X109530034Y-113830620D01*
X109479679Y-113982436D01*
X109477115Y-113990165D01*
X109466500Y-114093769D01*
X109466501Y-115106230D01*
X109477384Y-115211129D01*
X109479563Y-115217660D01*
X109479564Y-115217665D01*
X109495024Y-115264003D01*
X109501500Y-115303879D01*
X109501500Y-119178334D01*
X109481498Y-119246455D01*
X109433681Y-119290096D01*
X109406872Y-119304052D01*
X109402739Y-119307155D01*
X109402736Y-119307157D01*
X109256073Y-119417275D01*
X109221655Y-119443117D01*
X109061639Y-119610564D01*
X108931119Y-119801899D01*
X108833602Y-120011981D01*
X108771707Y-120235169D01*
X108747095Y-120465469D01*
X103830396Y-120465469D01*
X103835941Y-86498134D01*
X108541500Y-86498134D01*
X108548255Y-86560316D01*
X108599385Y-86696705D01*
X108686739Y-86813261D01*
X108803295Y-86900615D01*
X108939684Y-86951745D01*
X109001866Y-86958500D01*
X111498134Y-86958500D01*
X111560316Y-86951745D01*
X111696705Y-86900615D01*
X111813261Y-86813261D01*
X111900615Y-86696705D01*
X111951745Y-86560316D01*
X111958500Y-86498134D01*
X111958500Y-84001866D01*
X111951745Y-83939684D01*
X111900615Y-83803295D01*
X111813261Y-83686739D01*
X111696705Y-83599385D01*
X111560316Y-83548255D01*
X111498134Y-83541500D01*
X111019696Y-83541500D01*
X110951575Y-83521498D01*
X110905082Y-83467842D01*
X110894978Y-83397568D01*
X110924472Y-83332988D01*
X110969958Y-83299733D01*
X111036573Y-83271113D01*
X111044856Y-83266800D01*
X111252777Y-83138135D01*
X111254620Y-83136796D01*
X111262038Y-83125541D01*
X111255974Y-83115184D01*
X110262812Y-82122022D01*
X110248868Y-82114408D01*
X110247035Y-82114539D01*
X110240420Y-82118790D01*
X109248044Y-83111166D01*
X109241386Y-83123359D01*
X109250099Y-83134879D01*
X109338586Y-83199760D01*
X109346505Y-83204708D01*
X109535213Y-83303992D01*
X109586186Y-83353411D01*
X109602349Y-83422544D01*
X109578570Y-83489440D01*
X109522399Y-83532860D01*
X109476546Y-83541500D01*
X109001866Y-83541500D01*
X108939684Y-83548255D01*
X108803295Y-83599385D01*
X108686739Y-83686739D01*
X108599385Y-83803295D01*
X108548255Y-83939684D01*
X108541500Y-84001866D01*
X108541500Y-86498134D01*
X103835941Y-86498134D01*
X103836723Y-81709835D01*
X108538022Y-81709835D01*
X108549754Y-81954064D01*
X108550891Y-81963324D01*
X108598593Y-82203143D01*
X108601082Y-82212118D01*
X108683708Y-82442250D01*
X108687505Y-82450778D01*
X108803234Y-82666160D01*
X108808245Y-82674027D01*
X108865173Y-82750263D01*
X108876431Y-82758712D01*
X108888850Y-82751940D01*
X109877978Y-81762812D01*
X109884356Y-81751132D01*
X110614408Y-81751132D01*
X110614539Y-81752965D01*
X110618790Y-81759580D01*
X111613732Y-82754522D01*
X111626112Y-82761282D01*
X111634453Y-82755038D01*
X111752700Y-82571202D01*
X111757147Y-82563011D01*
X111857572Y-82340076D01*
X111860767Y-82331298D01*
X111927135Y-82095973D01*
X111928993Y-82086844D01*
X111960044Y-81842770D01*
X111960525Y-81836483D01*
X111962706Y-81753160D01*
X111962555Y-81746851D01*
X111944321Y-81501486D01*
X111942944Y-81492280D01*
X111888979Y-81253786D01*
X111886255Y-81244875D01*
X111797633Y-81016983D01*
X111793619Y-81008567D01*
X111672284Y-80796276D01*
X111667074Y-80788553D01*
X111635787Y-80748865D01*
X111623863Y-80740395D01*
X111612328Y-80746882D01*
X110622022Y-81737188D01*
X110614408Y-81751132D01*
X109884356Y-81751132D01*
X109885592Y-81748868D01*
X109885461Y-81747035D01*
X109881210Y-81740420D01*
X108886828Y-80746038D01*
X108873520Y-80738771D01*
X108863481Y-80745893D01*
X108858581Y-80751784D01*
X108853168Y-80759373D01*
X108726322Y-80968409D01*
X108722084Y-80976726D01*
X108627529Y-81202214D01*
X108624572Y-81211052D01*
X108564384Y-81448042D01*
X108562763Y-81457232D01*
X108538267Y-81700510D01*
X108538022Y-81709835D01*
X103836723Y-81709835D01*
X103836941Y-80374917D01*
X109239330Y-80374917D01*
X109243903Y-80384693D01*
X110237188Y-81377978D01*
X110251132Y-81385592D01*
X110252965Y-81385461D01*
X110259580Y-81381210D01*
X111252488Y-80388302D01*
X111258872Y-80376612D01*
X111249460Y-80364502D01*
X111123144Y-80276873D01*
X111115116Y-80272145D01*
X110895810Y-80163995D01*
X110887177Y-80160507D01*
X110654288Y-80085958D01*
X110645238Y-80083785D01*
X110403891Y-80044480D01*
X110394602Y-80043668D01*
X110150114Y-80040467D01*
X110140803Y-80041037D01*
X109898522Y-80074010D01*
X109889403Y-80075948D01*
X109654668Y-80144367D01*
X109645915Y-80147639D01*
X109423869Y-80250004D01*
X109415714Y-80254524D01*
X109248468Y-80364175D01*
X109239330Y-80374917D01*
X103836941Y-80374917D01*
X103837984Y-73988434D01*
X106086661Y-73988434D01*
X106104792Y-74346340D01*
X106105329Y-74349695D01*
X106105330Y-74349701D01*
X106110316Y-74380828D01*
X106161470Y-74700195D01*
X106256033Y-75045859D01*
X106387374Y-75379288D01*
X106553957Y-75696582D01*
X106555858Y-75699411D01*
X106555864Y-75699421D01*
X106739569Y-75972800D01*
X106753834Y-75994029D01*
X106984665Y-76268150D01*
X107243751Y-76515738D01*
X107528061Y-76733897D01*
X107560056Y-76753350D01*
X107831355Y-76918303D01*
X107831360Y-76918306D01*
X107834270Y-76920075D01*
X107837358Y-76921521D01*
X107837357Y-76921521D01*
X108155710Y-77070649D01*
X108155720Y-77070653D01*
X108158794Y-77072093D01*
X108162012Y-77073195D01*
X108162015Y-77073196D01*
X108494615Y-77187071D01*
X108494623Y-77187073D01*
X108497838Y-77188174D01*
X108847435Y-77266959D01*
X108899728Y-77272917D01*
X109200114Y-77307142D01*
X109200122Y-77307142D01*
X109203497Y-77307527D01*
X109206901Y-77307545D01*
X109206904Y-77307545D01*
X109401227Y-77308562D01*
X109561857Y-77309403D01*
X109565243Y-77309053D01*
X109565245Y-77309053D01*
X109914932Y-77272917D01*
X109914941Y-77272916D01*
X109918324Y-77272566D01*
X109921657Y-77271852D01*
X109921660Y-77271851D01*
X110094186Y-77234864D01*
X110268727Y-77197446D01*
X110608968Y-77084922D01*
X110935066Y-76936311D01*
X111029052Y-76880506D01*
X111240262Y-76755099D01*
X111240267Y-76755096D01*
X111243207Y-76753350D01*
X111529786Y-76538180D01*
X111791451Y-76293319D01*
X112025140Y-76021630D01*
X112131750Y-75866512D01*
X112226190Y-75729101D01*
X112226195Y-75729094D01*
X112228120Y-75726292D01*
X112229732Y-75723298D01*
X112229737Y-75723290D01*
X112396395Y-75413772D01*
X112398017Y-75410760D01*
X112532842Y-75078724D01*
X112543142Y-75042568D01*
X112563527Y-74971006D01*
X112631020Y-74734070D01*
X112691401Y-74380828D01*
X112693511Y-74346340D01*
X112713168Y-74024928D01*
X112713278Y-74023131D01*
X112713359Y-74000000D01*
X112712733Y-73988434D01*
X166086661Y-73988434D01*
X166104792Y-74346340D01*
X166105329Y-74349695D01*
X166105330Y-74349701D01*
X166110316Y-74380828D01*
X166161470Y-74700195D01*
X166256033Y-75045859D01*
X166387374Y-75379288D01*
X166553957Y-75696582D01*
X166555858Y-75699411D01*
X166555864Y-75699421D01*
X166739569Y-75972800D01*
X166753834Y-75994029D01*
X166984665Y-76268150D01*
X167243751Y-76515738D01*
X167528061Y-76733897D01*
X167560056Y-76753350D01*
X167831355Y-76918303D01*
X167831360Y-76918306D01*
X167834270Y-76920075D01*
X167837358Y-76921521D01*
X167837357Y-76921521D01*
X168155710Y-77070649D01*
X168155720Y-77070653D01*
X168158794Y-77072093D01*
X168162012Y-77073195D01*
X168162015Y-77073196D01*
X168494615Y-77187071D01*
X168494623Y-77187073D01*
X168497838Y-77188174D01*
X168847435Y-77266959D01*
X168899728Y-77272917D01*
X169200114Y-77307142D01*
X169200122Y-77307142D01*
X169203497Y-77307527D01*
X169206901Y-77307545D01*
X169206904Y-77307545D01*
X169401227Y-77308562D01*
X169561857Y-77309403D01*
X169565243Y-77309053D01*
X169565245Y-77309053D01*
X169914932Y-77272917D01*
X169914941Y-77272916D01*
X169918324Y-77272566D01*
X169921657Y-77271852D01*
X169921660Y-77271851D01*
X170094186Y-77234864D01*
X170268727Y-77197446D01*
X170608968Y-77084922D01*
X170935066Y-76936311D01*
X171029052Y-76880506D01*
X171240262Y-76755099D01*
X171240267Y-76755096D01*
X171243207Y-76753350D01*
X171529786Y-76538180D01*
X171791451Y-76293319D01*
X172025140Y-76021630D01*
X172131750Y-75866512D01*
X172226190Y-75729101D01*
X172226195Y-75729094D01*
X172228120Y-75726292D01*
X172229732Y-75723298D01*
X172229737Y-75723290D01*
X172396395Y-75413772D01*
X172398017Y-75410760D01*
X172532842Y-75078724D01*
X172543142Y-75042568D01*
X172563527Y-74971006D01*
X172631020Y-74734070D01*
X172691401Y-74380828D01*
X172693511Y-74346340D01*
X172713168Y-74024928D01*
X172713278Y-74023131D01*
X172713359Y-74000000D01*
X172693979Y-73642159D01*
X172636066Y-73288505D01*
X172540297Y-72943173D01*
X172537243Y-72935497D01*
X172409052Y-72613369D01*
X172407793Y-72610205D01*
X172377768Y-72553498D01*
X172241702Y-72296513D01*
X172241698Y-72296506D01*
X172240103Y-72293494D01*
X172039190Y-71996746D01*
X171807403Y-71723432D01*
X171547454Y-71476750D01*
X171262384Y-71259585D01*
X171259472Y-71257828D01*
X171259467Y-71257825D01*
X170958443Y-71076236D01*
X170958437Y-71076233D01*
X170955528Y-71074478D01*
X170660851Y-70937693D01*
X170633571Y-70925030D01*
X170633569Y-70925029D01*
X170630475Y-70923593D01*
X170460751Y-70866145D01*
X170294255Y-70809789D01*
X170294250Y-70809788D01*
X170291028Y-70808697D01*
X170092681Y-70764724D01*
X169944493Y-70731871D01*
X169944487Y-70731870D01*
X169941158Y-70731132D01*
X169937769Y-70730758D01*
X169937764Y-70730757D01*
X169588338Y-70692180D01*
X169588333Y-70692180D01*
X169584957Y-70691807D01*
X169581558Y-70691801D01*
X169581557Y-70691801D01*
X169412080Y-70691505D01*
X169226592Y-70691182D01*
X169113413Y-70703277D01*
X168873639Y-70728901D01*
X168873631Y-70728902D01*
X168870256Y-70729263D01*
X168520117Y-70805606D01*
X168180271Y-70919317D01*
X168177178Y-70920739D01*
X168177177Y-70920740D01*
X168086615Y-70962394D01*
X167854694Y-71069066D01*
X167547193Y-71253101D01*
X167544467Y-71255163D01*
X167544465Y-71255164D01*
X167538620Y-71259585D01*
X167261367Y-71469270D01*
X167000559Y-71715043D01*
X166767819Y-71987546D01*
X166765900Y-71990358D01*
X166765897Y-71990363D01*
X166672624Y-72127097D01*
X166565871Y-72283591D01*
X166397077Y-72599714D01*
X166263411Y-72932218D01*
X166262491Y-72935492D01*
X166262489Y-72935497D01*
X166260332Y-72943173D01*
X166166437Y-73277213D01*
X166107290Y-73630663D01*
X166086661Y-73988434D01*
X112712733Y-73988434D01*
X112693979Y-73642159D01*
X112636066Y-73288505D01*
X112540297Y-72943173D01*
X112537243Y-72935497D01*
X112409052Y-72613369D01*
X112407793Y-72610205D01*
X112377768Y-72553498D01*
X112241702Y-72296513D01*
X112241698Y-72296506D01*
X112240103Y-72293494D01*
X112039190Y-71996746D01*
X111807403Y-71723432D01*
X111547454Y-71476750D01*
X111262384Y-71259585D01*
X111259472Y-71257828D01*
X111259467Y-71257825D01*
X110958443Y-71076236D01*
X110958437Y-71076233D01*
X110955528Y-71074478D01*
X110660851Y-70937693D01*
X110633571Y-70925030D01*
X110633569Y-70925029D01*
X110630475Y-70923593D01*
X110460751Y-70866145D01*
X110294255Y-70809789D01*
X110294250Y-70809788D01*
X110291028Y-70808697D01*
X110092681Y-70764724D01*
X109944493Y-70731871D01*
X109944487Y-70731870D01*
X109941158Y-70731132D01*
X109937769Y-70730758D01*
X109937764Y-70730757D01*
X109588338Y-70692180D01*
X109588333Y-70692180D01*
X109584957Y-70691807D01*
X109581558Y-70691801D01*
X109581557Y-70691801D01*
X109412080Y-70691505D01*
X109226592Y-70691182D01*
X109113413Y-70703277D01*
X108873639Y-70728901D01*
X108873631Y-70728902D01*
X108870256Y-70729263D01*
X108520117Y-70805606D01*
X108180271Y-70919317D01*
X108177178Y-70920739D01*
X108177177Y-70920740D01*
X108086615Y-70962394D01*
X107854694Y-71069066D01*
X107547193Y-71253101D01*
X107544467Y-71255163D01*
X107544465Y-71255164D01*
X107538620Y-71259585D01*
X107261367Y-71469270D01*
X107000559Y-71715043D01*
X106767819Y-71987546D01*
X106765900Y-71990358D01*
X106765897Y-71990363D01*
X106672624Y-72127097D01*
X106565871Y-72283591D01*
X106397077Y-72599714D01*
X106263411Y-72932218D01*
X106262491Y-72935492D01*
X106262489Y-72935497D01*
X106260332Y-72943173D01*
X106166437Y-73277213D01*
X106107290Y-73630663D01*
X106086661Y-73988434D01*
X103837984Y-73988434D01*
X103838475Y-70983277D01*
X103840222Y-70962394D01*
X103842753Y-70947352D01*
X103842754Y-70947345D01*
X103843560Y-70942552D01*
X103843713Y-70930000D01*
X103843024Y-70925186D01*
X103843023Y-70925177D01*
X103841853Y-70917006D01*
X103840811Y-70891541D01*
X103856190Y-70637289D01*
X103858024Y-70622184D01*
X103909509Y-70341239D01*
X103913150Y-70326466D01*
X103998125Y-70053770D01*
X104003521Y-70039543D01*
X104061688Y-69910303D01*
X104120744Y-69779085D01*
X104127814Y-69765614D01*
X104275582Y-69521178D01*
X104284224Y-69508657D01*
X104292524Y-69498063D01*
X104460381Y-69283808D01*
X104470464Y-69272428D01*
X104672428Y-69070464D01*
X104683808Y-69060381D01*
X104908662Y-68884221D01*
X104921178Y-68875582D01*
X105165614Y-68727814D01*
X105179087Y-68720743D01*
X105439547Y-68603519D01*
X105453765Y-68598127D01*
X105726466Y-68513150D01*
X105741239Y-68509509D01*
X106022184Y-68458024D01*
X106037289Y-68456190D01*
X106287905Y-68441031D01*
X106314716Y-68442292D01*
X106314852Y-68442294D01*
X106323724Y-68443675D01*
X106355342Y-68439541D01*
X106371650Y-68438478D01*
X172420667Y-68427443D01*
X172440070Y-68428943D01*
G37*
%TD.AperFunction*%
%TA.AperFunction,Conductor*%
G36*
X165104032Y-112560924D02*
G01*
X165149095Y-112589885D01*
X165330115Y-112770905D01*
X165364141Y-112833217D01*
X165359076Y-112904032D01*
X165330115Y-112949095D01*
X164306737Y-113972473D01*
X164299977Y-113984853D01*
X164305258Y-113991907D01*
X164352479Y-114019501D01*
X164401203Y-114071139D01*
X164414274Y-114140922D01*
X164387543Y-114206694D01*
X164347087Y-114240053D01*
X164338466Y-114244541D01*
X164329734Y-114250039D01*
X164309677Y-114265099D01*
X164301223Y-114276427D01*
X164307968Y-114288758D01*
X165047188Y-115027978D01*
X165061132Y-115035592D01*
X165062965Y-115035461D01*
X165069580Y-115031210D01*
X165813389Y-114287401D01*
X165820410Y-114274544D01*
X165813611Y-114265213D01*
X165809554Y-114262518D01*
X165772116Y-114241851D01*
X165722146Y-114191419D01*
X165707374Y-114121976D01*
X165732490Y-114055571D01*
X165759841Y-114028965D01*
X165891422Y-113935109D01*
X165958496Y-113911835D01*
X166027504Y-113928518D01*
X166053686Y-113948592D01*
X166342126Y-114237032D01*
X166376152Y-114299344D01*
X166371087Y-114370159D01*
X166360291Y-114392243D01*
X166323818Y-114451414D01*
X166307885Y-114477262D01*
X166305581Y-114484209D01*
X166283236Y-114551577D01*
X166242806Y-114609937D01*
X166216330Y-114626366D01*
X166172811Y-114646399D01*
X164306737Y-116512473D01*
X164299977Y-116524853D01*
X164305258Y-116531907D01*
X164466756Y-116626279D01*
X164476042Y-116630729D01*
X164675001Y-116706703D01*
X164684899Y-116709579D01*
X164893595Y-116752038D01*
X164903823Y-116753257D01*
X164943818Y-116754724D01*
X165011160Y-116777208D01*
X165055656Y-116832532D01*
X165063178Y-116903129D01*
X165028296Y-116969734D01*
X159539480Y-122458550D01*
X159533215Y-122464404D01*
X159489615Y-122502439D01*
X159485248Y-122508653D01*
X159452872Y-122554719D01*
X159448939Y-122560014D01*
X159409524Y-122610282D01*
X159406401Y-122617198D01*
X159405017Y-122619484D01*
X159396643Y-122634165D01*
X159395378Y-122636525D01*
X159391010Y-122642739D01*
X159388250Y-122649818D01*
X159388249Y-122649820D01*
X159367798Y-122702275D01*
X159365247Y-122708344D01*
X159338955Y-122766573D01*
X159337571Y-122774040D01*
X159336770Y-122776595D01*
X159332141Y-122792848D01*
X159331478Y-122795428D01*
X159328718Y-122802509D01*
X159327727Y-122810040D01*
X159327726Y-122810042D01*
X159320379Y-122865852D01*
X159319348Y-122872359D01*
X159307704Y-122935186D01*
X159308141Y-122942766D01*
X159308141Y-122942767D01*
X159311291Y-122997392D01*
X159311500Y-123004646D01*
X159311500Y-123733122D01*
X159291498Y-123801243D01*
X159257771Y-123836335D01*
X159180211Y-123890643D01*
X159180208Y-123890645D01*
X159175700Y-123893802D01*
X159013802Y-124055700D01*
X158991345Y-124087771D01*
X158935890Y-124132099D01*
X158888133Y-124141500D01*
X156520710Y-124141500D01*
X156452589Y-124121498D01*
X156431615Y-124104595D01*
X156390381Y-124063361D01*
X156243699Y-123974528D01*
X156236452Y-123972257D01*
X156236450Y-123972256D01*
X156170164Y-123951483D01*
X156080062Y-123923247D01*
X156006635Y-123916500D01*
X156003737Y-123916500D01*
X155749335Y-123916501D01*
X155493366Y-123916501D01*
X155490508Y-123916764D01*
X155490499Y-123916764D01*
X155454996Y-123920026D01*
X155419938Y-123923247D01*
X155413560Y-123925246D01*
X155413559Y-123925246D01*
X155263550Y-123972256D01*
X155263548Y-123972257D01*
X155256301Y-123974528D01*
X155109619Y-124063361D01*
X155014095Y-124158885D01*
X154951783Y-124192911D01*
X154880968Y-124187846D01*
X154835905Y-124158885D01*
X154740381Y-124063361D01*
X154593699Y-123974528D01*
X154586452Y-123972257D01*
X154586450Y-123972256D01*
X154520164Y-123951483D01*
X154430062Y-123923247D01*
X154356635Y-123916500D01*
X154353737Y-123916500D01*
X154099335Y-123916501D01*
X153843366Y-123916501D01*
X153840508Y-123916764D01*
X153840499Y-123916764D01*
X153804996Y-123920026D01*
X153769938Y-123923247D01*
X153763560Y-123925246D01*
X153763559Y-123925246D01*
X153613550Y-123972256D01*
X153613548Y-123972257D01*
X153606301Y-123974528D01*
X153459619Y-124063361D01*
X153418385Y-124104595D01*
X153356073Y-124138621D01*
X153329290Y-124141500D01*
X153242587Y-124141500D01*
X153168528Y-124117437D01*
X153162098Y-124112765D01*
X153162091Y-124112761D01*
X153156752Y-124108882D01*
X153150724Y-124106198D01*
X153150722Y-124106197D01*
X152988319Y-124033891D01*
X152988318Y-124033891D01*
X152982288Y-124031206D01*
X152888887Y-124011353D01*
X152801944Y-123992872D01*
X152801939Y-123992872D01*
X152795487Y-123991500D01*
X152604513Y-123991500D01*
X152599394Y-123992588D01*
X152530054Y-123979905D01*
X152478208Y-123931401D01*
X152460817Y-123862568D01*
X152483400Y-123795259D01*
X152497630Y-123778274D01*
X160904041Y-115371863D01*
X163698050Y-115371863D01*
X163710309Y-115584477D01*
X163711745Y-115594697D01*
X163758565Y-115802446D01*
X163761645Y-115812275D01*
X163841770Y-116009603D01*
X163846413Y-116018794D01*
X163926460Y-116149420D01*
X163936916Y-116158880D01*
X163945694Y-116155096D01*
X164687978Y-115412812D01*
X164695592Y-115398868D01*
X164695461Y-115397035D01*
X164691210Y-115390420D01*
X163949849Y-114649059D01*
X163938313Y-114642759D01*
X163926031Y-114652382D01*
X163878089Y-114722662D01*
X163873004Y-114731613D01*
X163783338Y-114924783D01*
X163779775Y-114934470D01*
X163722864Y-115139681D01*
X163720933Y-115149800D01*
X163698302Y-115361574D01*
X163698050Y-115371863D01*
X160904041Y-115371863D01*
X163485493Y-112790411D01*
X163547805Y-112756385D01*
X163618620Y-112761450D01*
X163675456Y-112803997D01*
X163700379Y-112872253D01*
X163710309Y-113044477D01*
X163711745Y-113054697D01*
X163758565Y-113262446D01*
X163761645Y-113272275D01*
X163841770Y-113469603D01*
X163846413Y-113478794D01*
X163926460Y-113609420D01*
X163936916Y-113618880D01*
X163945694Y-113615096D01*
X164970905Y-112589885D01*
X165033217Y-112555859D01*
X165104032Y-112560924D01*
G37*
%TD.AperFunction*%
%TA.AperFunction,Conductor*%
G36*
X163703266Y-90638501D02*
G01*
X163749759Y-90692157D01*
X163759863Y-90762431D01*
X163756562Y-90778171D01*
X163722864Y-90899682D01*
X163720933Y-90909800D01*
X163698302Y-91121574D01*
X163698050Y-91131863D01*
X163710309Y-91344477D01*
X163711745Y-91354697D01*
X163758565Y-91562446D01*
X163761645Y-91572275D01*
X163841770Y-91769603D01*
X163846413Y-91778794D01*
X163926460Y-91909420D01*
X163936916Y-91918880D01*
X163945694Y-91915096D01*
X164970905Y-90889885D01*
X165033217Y-90855859D01*
X165104032Y-90860924D01*
X165149095Y-90889885D01*
X166170474Y-91911264D01*
X166182484Y-91917823D01*
X166194223Y-91908855D01*
X166228022Y-91861819D01*
X166229277Y-91862721D01*
X166276391Y-91819355D01*
X166346330Y-91807148D01*
X166411767Y-91834691D01*
X166439580Y-91866513D01*
X166497287Y-91960683D01*
X166497291Y-91960688D01*
X166499987Y-91965088D01*
X166646250Y-92133938D01*
X166716344Y-92192131D01*
X166755979Y-92251033D01*
X166757477Y-92322014D01*
X166720363Y-92382537D01*
X166689312Y-92403175D01*
X166682996Y-92406134D01*
X166676054Y-92408450D01*
X166525652Y-92501522D01*
X166400695Y-92626697D01*
X166396855Y-92632927D01*
X166396854Y-92632928D01*
X166352669Y-92704610D01*
X166307885Y-92777262D01*
X166302658Y-92793022D01*
X166283236Y-92851577D01*
X166242806Y-92909937D01*
X166216330Y-92926366D01*
X166172811Y-92946399D01*
X165149095Y-93970115D01*
X165086783Y-94004141D01*
X165015968Y-93999076D01*
X164970905Y-93970115D01*
X163949849Y-92949059D01*
X163938313Y-92942759D01*
X163926031Y-92952382D01*
X163878089Y-93022662D01*
X163873007Y-93031608D01*
X163833517Y-93116682D01*
X163786692Y-93170048D01*
X163718449Y-93189629D01*
X163667377Y-93178467D01*
X163663462Y-93176700D01*
X163645826Y-93166639D01*
X163643474Y-93165378D01*
X163637258Y-93161009D01*
X163630179Y-93158249D01*
X163630177Y-93158248D01*
X163577722Y-93137797D01*
X163571653Y-93135246D01*
X163513424Y-93108954D01*
X163505957Y-93107570D01*
X163503402Y-93106769D01*
X163487149Y-93102140D01*
X163484569Y-93101477D01*
X163477488Y-93098717D01*
X163469957Y-93097726D01*
X163469955Y-93097725D01*
X163440336Y-93093826D01*
X163414136Y-93090377D01*
X163407638Y-93089347D01*
X163344811Y-93077703D01*
X163337231Y-93078140D01*
X163337230Y-93078140D01*
X163282605Y-93081290D01*
X163275351Y-93081499D01*
X155453187Y-93081499D01*
X155385066Y-93061497D01*
X155338573Y-93007841D01*
X155328469Y-92937567D01*
X155332629Y-92918870D01*
X155335344Y-92909937D01*
X155372370Y-92788069D01*
X155401529Y-92566590D01*
X155401611Y-92563240D01*
X155403074Y-92503365D01*
X155403074Y-92503361D01*
X155403156Y-92500000D01*
X155385468Y-92284853D01*
X164299977Y-92284853D01*
X164305258Y-92291907D01*
X164352479Y-92319501D01*
X164401203Y-92371139D01*
X164414274Y-92440922D01*
X164387543Y-92506694D01*
X164347087Y-92540053D01*
X164338466Y-92544541D01*
X164329734Y-92550039D01*
X164309677Y-92565099D01*
X164301223Y-92576427D01*
X164307968Y-92588758D01*
X165047188Y-93327978D01*
X165061132Y-93335592D01*
X165062965Y-93335461D01*
X165069580Y-93331210D01*
X165813389Y-92587401D01*
X165820410Y-92574544D01*
X165813611Y-92565213D01*
X165809559Y-92562521D01*
X165772116Y-92541852D01*
X165722145Y-92491420D01*
X165707373Y-92421977D01*
X165732489Y-92355572D01*
X165759840Y-92328965D01*
X165809247Y-92293723D01*
X165817648Y-92283023D01*
X165810660Y-92269870D01*
X165072812Y-91532022D01*
X165058868Y-91524408D01*
X165057035Y-91524539D01*
X165050420Y-91528790D01*
X164306737Y-92272473D01*
X164299977Y-92284853D01*
X155385468Y-92284853D01*
X155384852Y-92277361D01*
X155330431Y-92060702D01*
X155241354Y-91855840D01*
X155178862Y-91759242D01*
X155122822Y-91672617D01*
X155122820Y-91672614D01*
X155120014Y-91668277D01*
X154969670Y-91503051D01*
X154965619Y-91499852D01*
X154965615Y-91499848D01*
X154798414Y-91367800D01*
X154798410Y-91367798D01*
X154794359Y-91364598D01*
X154776424Y-91354697D01*
X154692306Y-91308262D01*
X154598789Y-91256638D01*
X154593920Y-91254914D01*
X154593916Y-91254912D01*
X154393087Y-91183795D01*
X154393083Y-91183794D01*
X154388212Y-91182069D01*
X154383119Y-91181162D01*
X154383116Y-91181161D01*
X154173373Y-91143800D01*
X154173367Y-91143799D01*
X154168284Y-91142894D01*
X154161801Y-91142815D01*
X154161290Y-91142658D01*
X154157961Y-91142343D01*
X154158026Y-91141656D01*
X154093930Y-91121985D01*
X154048093Y-91067767D01*
X154038846Y-90997375D01*
X154069123Y-90933158D01*
X154074241Y-90927729D01*
X154346566Y-90655404D01*
X154408878Y-90621378D01*
X154435661Y-90618499D01*
X163635145Y-90618499D01*
X163703266Y-90638501D01*
G37*
%TD.AperFunction*%
M02*
