%TF.GenerationSoftware,KiCad,Pcbnew,(6.0.4)*%
%TF.CreationDate,2022-04-04T21:54:52+02:00*%
%TF.ProjectId,MCU_INTERFACE_BOARD,4d43555f-494e-4544-9552-464143455f42,rev?*%
%TF.SameCoordinates,Original*%
%TF.FileFunction,Soldermask,Top*%
%TF.FilePolarity,Negative*%
%FSLAX46Y46*%
G04 Gerber Fmt 4.6, Leading zero omitted, Abs format (unit mm)*
G04 Created by KiCad (PCBNEW (6.0.4)) date 2022-04-04 21:54:52*
%MOMM*%
%LPD*%
G01*
G04 APERTURE LIST*
G04 Aperture macros list*
%AMRoundRect*
0 Rectangle with rounded corners*
0 $1 Rounding radius*
0 $2 $3 $4 $5 $6 $7 $8 $9 X,Y pos of 4 corners*
0 Add a 4 corners polygon primitive as box body*
4,1,4,$2,$3,$4,$5,$6,$7,$8,$9,$2,$3,0*
0 Add four circle primitives for the rounded corners*
1,1,$1+$1,$2,$3*
1,1,$1+$1,$4,$5*
1,1,$1+$1,$6,$7*
1,1,$1+$1,$8,$9*
0 Add four rect primitives between the rounded corners*
20,1,$1+$1,$2,$3,$4,$5,0*
20,1,$1+$1,$4,$5,$6,$7,0*
20,1,$1+$1,$6,$7,$8,$9,0*
20,1,$1+$1,$8,$9,$2,$3,0*%
G04 Aperture macros list end*
%ADD10R,2.400000X2.400000*%
%ADD11C,2.400000*%
%ADD12C,5.600000*%
%ADD13R,1.700000X1.700000*%
%ADD14O,1.700000X1.700000*%
%ADD15RoundRect,0.250000X-0.600000X-0.600000X0.600000X-0.600000X0.600000X0.600000X-0.600000X0.600000X0*%
%ADD16C,1.700000*%
%ADD17RoundRect,0.243750X0.243750X0.456250X-0.243750X0.456250X-0.243750X-0.456250X0.243750X-0.456250X0*%
%ADD18RoundRect,0.250000X0.600000X0.600000X-0.600000X0.600000X-0.600000X-0.600000X0.600000X-0.600000X0*%
%ADD19C,1.600000*%
%ADD20O,1.600000X1.600000*%
%ADD21RoundRect,0.200000X0.275000X-0.200000X0.275000X0.200000X-0.275000X0.200000X-0.275000X-0.200000X0*%
%ADD22RoundRect,0.200000X-0.200000X-0.275000X0.200000X-0.275000X0.200000X0.275000X-0.200000X0.275000X0*%
%ADD23R,1.800000X1.800000*%
%ADD24C,1.800000*%
%ADD25RoundRect,0.200000X-0.275000X0.200000X-0.275000X-0.200000X0.275000X-0.200000X0.275000X0.200000X0*%
G04 APERTURE END LIST*
D10*
X110250000Y-85250000D03*
D11*
X110250000Y-81750000D03*
D12*
X109400000Y-74000000D03*
X169400000Y-74000000D03*
X109400000Y-129000000D03*
X169400000Y-129000000D03*
D13*
X143200000Y-88100000D03*
D14*
X143200000Y-90640000D03*
X143200000Y-93180000D03*
X143200000Y-95720000D03*
X143200000Y-98260000D03*
X143200000Y-100800000D03*
X143200000Y-103340000D03*
X143200000Y-105880000D03*
X143200000Y-108420000D03*
X143200000Y-110960000D03*
D13*
X117800000Y-88060000D03*
D14*
X117800000Y-90600000D03*
X117800000Y-93140000D03*
X117800000Y-95680000D03*
X117800000Y-98220000D03*
X117800000Y-100760000D03*
X117800000Y-103300000D03*
X117800000Y-105840000D03*
X117800000Y-108380000D03*
X117800000Y-110920000D03*
D15*
X151500000Y-92500000D03*
D16*
X154040000Y-92500000D03*
X151500000Y-95040000D03*
X154040000Y-95040000D03*
X151500000Y-97580000D03*
X154040000Y-97580000D03*
X151500000Y-100120000D03*
X154040000Y-100120000D03*
X151500000Y-102660000D03*
X154040000Y-102660000D03*
X151500000Y-105200000D03*
X154040000Y-105200000D03*
X151500000Y-107740000D03*
X154040000Y-107740000D03*
X151500000Y-110280000D03*
X154040000Y-110280000D03*
X151500000Y-112820000D03*
X154040000Y-112820000D03*
X151500000Y-115360000D03*
X154040000Y-115360000D03*
D17*
X112337500Y-114600000D03*
X110462500Y-114600000D03*
D18*
X167600000Y-93700000D03*
D16*
X165060000Y-93700000D03*
X167600000Y-91160000D03*
X165060000Y-91160000D03*
X167600000Y-88620000D03*
X165060000Y-88620000D03*
X167600000Y-86080000D03*
X165060000Y-86080000D03*
D18*
X167600000Y-115400000D03*
D16*
X165060000Y-115400000D03*
X167600000Y-112860000D03*
X165060000Y-112860000D03*
X167600000Y-110320000D03*
X165060000Y-110320000D03*
X167600000Y-107780000D03*
X165060000Y-107780000D03*
D19*
X160020000Y-124900000D03*
D20*
X149860000Y-124900000D03*
D19*
X160000000Y-128000000D03*
D20*
X149840000Y-128000000D03*
D19*
X110800000Y-106855000D03*
D20*
X110800000Y-96695000D03*
D21*
X110800000Y-102705000D03*
X110800000Y-101055000D03*
D22*
X154075000Y-131100000D03*
X155725000Y-131100000D03*
D23*
X112700000Y-120500000D03*
D24*
X110160000Y-120500000D03*
D19*
X138000000Y-107560000D03*
D20*
X138000000Y-97400000D03*
D19*
X159980000Y-131100000D03*
D20*
X149820000Y-131100000D03*
D22*
X154095000Y-128000000D03*
X155745000Y-128000000D03*
D25*
X138000000Y-101655000D03*
X138000000Y-103305000D03*
D22*
X154100000Y-124900000D03*
X155750000Y-124900000D03*
M02*
