M48
; DRILL file {KiCad (6.0.4)} date Mon 04 Apr 2022 09:55:08 PM CEST
; FORMAT={-:-/ absolute / metric / decimal}
; #@! TF.CreationDate,2022-04-04T21:55:08+02:00
; #@! TF.GenerationSoftware,Kicad,Pcbnew,(6.0.4)
; #@! TF.FileFunction,Plated,1,2,PTH
FMAT,2
METRIC
; #@! TA.AperFunction,Plated,PTH,ViaDrill
T1C0.400
; #@! TA.AperFunction,Plated,PTH,ComponentDrill
T2C0.800
; #@! TA.AperFunction,Plated,PTH,ComponentDrill
T3C0.900
; #@! TA.AperFunction,Plated,PTH,ComponentDrill
T4C1.000
; #@! TA.AperFunction,Plated,PTH,ComponentDrill
T5C1.200
; #@! TA.AperFunction,Plated,PTH,ComponentDrill
T6C3.200
%
G90
G05
T1
X152.7Y-124.9
X152.8Y-128.0
X156.6Y-88.2
X156.6Y-91.4
T2
X110.8Y-96.695
X110.8Y-106.855
X138.0Y-97.4
X138.0Y-107.56
X149.82Y-131.1
X149.84Y-128.0
X149.86Y-124.9
X159.98Y-131.1
X160.0Y-128.0
X160.02Y-124.9
T3
X110.16Y-120.5
X112.7Y-120.5
T4
X117.8Y-88.06
X117.8Y-90.6
X117.8Y-93.14
X117.8Y-95.68
X117.8Y-98.22
X117.8Y-100.76
X117.8Y-103.3
X117.8Y-105.84
X117.8Y-108.38
X117.8Y-110.92
X143.2Y-88.1
X143.2Y-90.64
X143.2Y-93.18
X143.2Y-95.72
X143.2Y-98.26
X143.2Y-100.8
X143.2Y-103.34
X143.2Y-105.88
X143.2Y-108.42
X143.2Y-110.96
X151.5Y-92.5
X151.5Y-95.04
X151.5Y-97.58
X151.5Y-100.12
X151.5Y-102.66
X151.5Y-105.2
X151.5Y-107.74
X151.5Y-110.28
X151.5Y-112.82
X151.5Y-115.36
X154.04Y-92.5
X154.04Y-95.04
X154.04Y-97.58
X154.04Y-100.12
X154.04Y-102.66
X154.04Y-105.2
X154.04Y-107.74
X154.04Y-110.28
X154.04Y-112.82
X154.04Y-115.36
X165.06Y-86.08
X165.06Y-88.62
X165.06Y-91.16
X165.06Y-93.7
X165.06Y-107.78
X165.06Y-110.32
X165.06Y-112.86
X165.06Y-115.4
X167.6Y-86.08
X167.6Y-88.62
X167.6Y-91.16
X167.6Y-93.7
X167.6Y-107.78
X167.6Y-110.32
X167.6Y-112.86
X167.6Y-115.4
T5
X110.25Y-81.75
X110.25Y-85.25
T6
X109.4Y-74.0
X109.4Y-129.0
X169.4Y-74.0
X169.4Y-129.0
T0
M30
