%TF.GenerationSoftware,KiCad,Pcbnew,(6.0.4)*%
%TF.CreationDate,2022-04-04T21:54:51+02:00*%
%TF.ProjectId,MCU_INTERFACE_BOARD,4d43555f-494e-4544-9552-464143455f42,rev?*%
%TF.SameCoordinates,Original*%
%TF.FileFunction,Copper,L2,Bot*%
%TF.FilePolarity,Positive*%
%FSLAX46Y46*%
G04 Gerber Fmt 4.6, Leading zero omitted, Abs format (unit mm)*
G04 Created by KiCad (PCBNEW (6.0.4)) date 2022-04-04 21:54:51*
%MOMM*%
%LPD*%
G01*
G04 APERTURE LIST*
G04 Aperture macros list*
%AMRoundRect*
0 Rectangle with rounded corners*
0 $1 Rounding radius*
0 $2 $3 $4 $5 $6 $7 $8 $9 X,Y pos of 4 corners*
0 Add a 4 corners polygon primitive as box body*
4,1,4,$2,$3,$4,$5,$6,$7,$8,$9,$2,$3,0*
0 Add four circle primitives for the rounded corners*
1,1,$1+$1,$2,$3*
1,1,$1+$1,$4,$5*
1,1,$1+$1,$6,$7*
1,1,$1+$1,$8,$9*
0 Add four rect primitives between the rounded corners*
20,1,$1+$1,$2,$3,$4,$5,0*
20,1,$1+$1,$4,$5,$6,$7,0*
20,1,$1+$1,$6,$7,$8,$9,0*
20,1,$1+$1,$8,$9,$2,$3,0*%
G04 Aperture macros list end*
%TA.AperFunction,ComponentPad*%
%ADD10R,2.400000X2.400000*%
%TD*%
%TA.AperFunction,ComponentPad*%
%ADD11C,2.400000*%
%TD*%
%TA.AperFunction,ComponentPad*%
%ADD12C,5.600000*%
%TD*%
%TA.AperFunction,ComponentPad*%
%ADD13R,1.700000X1.700000*%
%TD*%
%TA.AperFunction,ComponentPad*%
%ADD14O,1.700000X1.700000*%
%TD*%
%TA.AperFunction,ComponentPad*%
%ADD15RoundRect,0.250000X-0.600000X-0.600000X0.600000X-0.600000X0.600000X0.600000X-0.600000X0.600000X0*%
%TD*%
%TA.AperFunction,ComponentPad*%
%ADD16C,1.700000*%
%TD*%
%TA.AperFunction,ComponentPad*%
%ADD17RoundRect,0.250000X0.600000X0.600000X-0.600000X0.600000X-0.600000X-0.600000X0.600000X-0.600000X0*%
%TD*%
%TA.AperFunction,ComponentPad*%
%ADD18C,1.600000*%
%TD*%
%TA.AperFunction,ComponentPad*%
%ADD19O,1.600000X1.600000*%
%TD*%
%TA.AperFunction,ComponentPad*%
%ADD20R,1.800000X1.800000*%
%TD*%
%TA.AperFunction,ComponentPad*%
%ADD21C,1.800000*%
%TD*%
%TA.AperFunction,ViaPad*%
%ADD22C,0.800000*%
%TD*%
%TA.AperFunction,Conductor*%
%ADD23C,0.250000*%
%TD*%
%TA.AperFunction,Conductor*%
%ADD24C,0.400000*%
%TD*%
%TA.AperFunction,Conductor*%
%ADD25C,0.500000*%
%TD*%
G04 APERTURE END LIST*
D10*
X110250000Y-85250000D03*
D11*
X110250000Y-81750000D03*
D12*
X109400000Y-74000000D03*
X169400000Y-74000000D03*
X109400000Y-129000000D03*
X169400000Y-129000000D03*
D13*
X143200000Y-88100000D03*
D14*
X143200000Y-90640000D03*
X143200000Y-93180000D03*
X143200000Y-95720000D03*
X143200000Y-98260000D03*
X143200000Y-100800000D03*
X143200000Y-103340000D03*
X143200000Y-105880000D03*
X143200000Y-108420000D03*
X143200000Y-110960000D03*
D13*
X117800000Y-88060000D03*
D14*
X117800000Y-90600000D03*
X117800000Y-93140000D03*
X117800000Y-95680000D03*
X117800000Y-98220000D03*
X117800000Y-100760000D03*
X117800000Y-103300000D03*
X117800000Y-105840000D03*
X117800000Y-108380000D03*
X117800000Y-110920000D03*
D15*
X151500000Y-92500000D03*
D16*
X154040000Y-92500000D03*
X151500000Y-95040000D03*
X154040000Y-95040000D03*
X151500000Y-97580000D03*
X154040000Y-97580000D03*
X151500000Y-100120000D03*
X154040000Y-100120000D03*
X151500000Y-102660000D03*
X154040000Y-102660000D03*
X151500000Y-105200000D03*
X154040000Y-105200000D03*
X151500000Y-107740000D03*
X154040000Y-107740000D03*
X151500000Y-110280000D03*
X154040000Y-110280000D03*
X151500000Y-112820000D03*
X154040000Y-112820000D03*
X151500000Y-115360000D03*
X154040000Y-115360000D03*
D17*
X167600000Y-93700000D03*
D16*
X165060000Y-93700000D03*
X167600000Y-91160000D03*
X165060000Y-91160000D03*
X167600000Y-88620000D03*
X165060000Y-88620000D03*
X167600000Y-86080000D03*
X165060000Y-86080000D03*
D17*
X167600000Y-115400000D03*
D16*
X165060000Y-115400000D03*
X167600000Y-112860000D03*
X165060000Y-112860000D03*
X167600000Y-110320000D03*
X165060000Y-110320000D03*
X167600000Y-107780000D03*
X165060000Y-107780000D03*
D18*
X160020000Y-124900000D03*
D19*
X149860000Y-124900000D03*
D18*
X160000000Y-128000000D03*
D19*
X149840000Y-128000000D03*
D18*
X110800000Y-106855000D03*
D19*
X110800000Y-96695000D03*
D20*
X112700000Y-120500000D03*
D21*
X110160000Y-120500000D03*
D18*
X138000000Y-107560000D03*
D19*
X138000000Y-97400000D03*
D18*
X159980000Y-131100000D03*
D19*
X149820000Y-131100000D03*
D22*
X156600000Y-91400000D03*
X156600000Y-88200000D03*
X152700000Y-124900000D03*
X152800000Y-128000000D03*
D23*
X119015001Y-94355001D02*
X148275001Y-94355001D01*
D24*
X156600000Y-88200000D02*
X156600000Y-91400000D01*
D23*
X117800000Y-93140000D02*
X119015001Y-94355001D01*
X148275001Y-94355001D02*
X151500000Y-97580000D01*
X153665997Y-93675001D02*
X157464999Y-93675001D01*
X152864999Y-98755001D02*
X152864999Y-94475999D01*
X165060000Y-107780000D02*
X165060000Y-96460000D01*
X143200000Y-98260000D02*
X149640000Y-98260000D01*
D25*
X149860000Y-124900000D02*
X152700000Y-124900000D01*
D23*
X151500000Y-100120000D02*
X152864999Y-98755001D01*
X165060000Y-96460000D02*
X159870000Y-91270000D01*
X149640000Y-98260000D02*
X151500000Y-100120000D01*
X159870000Y-91270000D02*
X165060000Y-86080000D01*
X157464999Y-93675001D02*
X159870000Y-91270000D01*
X152864999Y-94475999D02*
X153665997Y-93675001D01*
X164495999Y-116575001D02*
X163884999Y-115964001D01*
X169225011Y-115788179D02*
X168438189Y-116575001D01*
X168438189Y-116575001D02*
X164495999Y-116575001D01*
X166424999Y-87255001D02*
X166424999Y-85515999D01*
X169225011Y-85966009D02*
X169225011Y-115788179D01*
X168164001Y-84904999D02*
X169225011Y-85966009D01*
X163884999Y-115964001D02*
X163884999Y-111495001D01*
X167035999Y-84904999D02*
X168164001Y-84904999D01*
X163884999Y-111495001D02*
X165060000Y-110320000D01*
X165060000Y-88620000D02*
X166424999Y-87255001D01*
X166424999Y-85515999D02*
X167035999Y-84904999D01*
D25*
X149840000Y-128000000D02*
X152700000Y-128000000D01*
D23*
X167600000Y-107780000D02*
X168775001Y-106604999D01*
X149640000Y-100800000D02*
X151500000Y-102660000D01*
X143200000Y-100800000D02*
X149640000Y-100800000D01*
X168775001Y-87255001D02*
X167600000Y-86080000D01*
D25*
X152700000Y-128000000D02*
X152800000Y-128100000D01*
D23*
X168775001Y-106604999D02*
X168775001Y-87255001D01*
X117800000Y-88060000D02*
X119015001Y-89275001D01*
D25*
X141800001Y-86799999D02*
X145799999Y-86799999D01*
X145799999Y-86799999D02*
X151500000Y-92500000D01*
D23*
X117800000Y-110920000D02*
X123415001Y-116535001D01*
X155215001Y-96215001D02*
X154040000Y-95040000D01*
X155215001Y-115924001D02*
X155215001Y-96215001D01*
X123415001Y-116535001D02*
X154604001Y-116535001D01*
X154604001Y-116535001D02*
X155215001Y-115924001D01*
X116624999Y-86949999D02*
X116624999Y-107204999D01*
D25*
X138517500Y-88357500D02*
X140517501Y-86357499D01*
D23*
X154040000Y-92500000D02*
X147764989Y-86224989D01*
X116624999Y-107204999D02*
X117800000Y-108380000D01*
X117350009Y-86224989D02*
X116624999Y-86949999D01*
X147764989Y-86224989D02*
X117350009Y-86224989D01*
X127320000Y-115360000D02*
X151500000Y-115360000D01*
X117800000Y-105840000D02*
X127320000Y-115360000D01*
X117800000Y-103300000D02*
X127320000Y-112820000D01*
X127320000Y-112820000D02*
X151500000Y-112820000D01*
X126635001Y-109595001D02*
X150815001Y-109595001D01*
X117800000Y-100760000D02*
X126635001Y-109595001D01*
X150815001Y-109595001D02*
X151500000Y-110280000D01*
X124095001Y-104515001D02*
X148275001Y-104515001D01*
X117800000Y-98220000D02*
X124095001Y-104515001D01*
X148275001Y-104515001D02*
X151500000Y-107740000D01*
X117800000Y-95680000D02*
X124284999Y-102164999D01*
X148464999Y-102164999D02*
X151500000Y-105200000D01*
X124284999Y-102164999D02*
X148464999Y-102164999D01*
D24*
X166349999Y-94950001D02*
X166349999Y-114149999D01*
X166349999Y-114149999D02*
X167600000Y-115400000D01*
X119129999Y-91929999D02*
X148389999Y-91929999D01*
X117800000Y-90600000D02*
X119129999Y-91929999D01*
X167600000Y-93700000D02*
X166349999Y-94950001D01*
X148389999Y-91929999D02*
X151500000Y-95040000D01*
%TA.AperFunction,Conductor*%
G36*
X172440070Y-68428943D02*
G01*
X172454847Y-68431243D01*
X172454848Y-68431243D01*
X172463724Y-68432625D01*
X172480923Y-68430376D01*
X172504863Y-68429543D01*
X172762839Y-68445148D01*
X172777943Y-68446982D01*
X173059012Y-68498489D01*
X173073785Y-68502130D01*
X173346607Y-68587145D01*
X173360825Y-68592537D01*
X173621410Y-68709817D01*
X173634866Y-68716880D01*
X173879415Y-68864714D01*
X173891935Y-68873356D01*
X174012532Y-68967838D01*
X174116883Y-69049592D01*
X174128271Y-69059682D01*
X174330318Y-69261729D01*
X174340408Y-69273117D01*
X174516643Y-69498063D01*
X174525285Y-69510584D01*
X174673120Y-69755134D01*
X174680183Y-69768590D01*
X174739325Y-69899998D01*
X174797461Y-70029171D01*
X174802857Y-70043398D01*
X174887870Y-70316215D01*
X174891511Y-70330988D01*
X174943018Y-70612057D01*
X174944852Y-70627161D01*
X174960019Y-70877904D01*
X174958758Y-70904716D01*
X174958756Y-70904852D01*
X174957375Y-70913724D01*
X174958539Y-70922626D01*
X174958539Y-70922628D01*
X174961502Y-70945282D01*
X174962566Y-70961620D01*
X174962199Y-95369589D01*
X174961649Y-132020635D01*
X174960149Y-132040018D01*
X174957839Y-132054851D01*
X174957839Y-132054855D01*
X174956458Y-132063724D01*
X174958707Y-132080919D01*
X174959540Y-132104863D01*
X174943942Y-132362728D01*
X174942108Y-132377832D01*
X174890620Y-132658793D01*
X174886979Y-132673566D01*
X174858394Y-132765300D01*
X174801999Y-132946277D01*
X174796611Y-132960486D01*
X174679365Y-133220998D01*
X174672309Y-133234440D01*
X174563567Y-133414321D01*
X174524531Y-133478894D01*
X174515888Y-133491416D01*
X174339722Y-133716275D01*
X174329632Y-133727663D01*
X174127663Y-133929632D01*
X174116275Y-133939722D01*
X173891416Y-134115888D01*
X173878895Y-134124530D01*
X173634440Y-134272309D01*
X173620998Y-134279365D01*
X173360486Y-134396611D01*
X173346282Y-134401997D01*
X173084932Y-134483437D01*
X173073566Y-134486979D01*
X173058793Y-134490620D01*
X172777832Y-134542108D01*
X172762727Y-134543942D01*
X172512095Y-134559102D01*
X172485284Y-134557841D01*
X172485148Y-134557839D01*
X172476276Y-134556458D01*
X172467374Y-134557622D01*
X172467369Y-134557622D01*
X172444667Y-134560591D01*
X172428350Y-134561655D01*
X150881409Y-134564864D01*
X106369331Y-134571493D01*
X106349929Y-134569992D01*
X106335151Y-134567690D01*
X106335144Y-134567690D01*
X106326276Y-134566309D01*
X106309077Y-134568558D01*
X106285137Y-134569391D01*
X106027290Y-134553794D01*
X106012186Y-134551960D01*
X105940214Y-134538771D01*
X105731240Y-134500475D01*
X105716473Y-134496836D01*
X105684841Y-134486979D01*
X105443769Y-134411858D01*
X105429555Y-134406466D01*
X105169092Y-134289242D01*
X105155621Y-134282172D01*
X105139298Y-134272304D01*
X105113063Y-134256445D01*
X104911187Y-134134405D01*
X104898666Y-134125762D01*
X104673829Y-133949615D01*
X104662440Y-133939525D01*
X104460475Y-133737560D01*
X104450385Y-133726171D01*
X104274238Y-133501334D01*
X104265595Y-133488813D01*
X104117828Y-133244379D01*
X104110757Y-133230906D01*
X104106288Y-133220976D01*
X103993534Y-132970445D01*
X103988141Y-132956227D01*
X103985041Y-132946277D01*
X103903164Y-132683526D01*
X103899523Y-132668754D01*
X103848040Y-132387814D01*
X103846206Y-132372710D01*
X103831269Y-132125768D01*
X103832520Y-132102216D01*
X103832334Y-132102199D01*
X103832769Y-132097350D01*
X103833576Y-132092552D01*
X103833729Y-132080000D01*
X103829779Y-132052422D01*
X103828507Y-132034546D01*
X103828508Y-132033488D01*
X103829005Y-128988434D01*
X106086661Y-128988434D01*
X106104792Y-129346340D01*
X106105329Y-129349695D01*
X106105330Y-129349701D01*
X106110316Y-129380828D01*
X106161470Y-129700195D01*
X106256033Y-130045859D01*
X106387374Y-130379288D01*
X106418151Y-130437909D01*
X106527283Y-130645775D01*
X106553957Y-130696582D01*
X106555858Y-130699411D01*
X106555864Y-130699421D01*
X106739569Y-130972800D01*
X106753834Y-130994029D01*
X106984665Y-131268150D01*
X107243751Y-131515738D01*
X107528061Y-131733897D01*
X107557444Y-131751762D01*
X107831355Y-131918303D01*
X107831360Y-131918306D01*
X107834270Y-131920075D01*
X107837358Y-131921521D01*
X107837357Y-131921521D01*
X108155710Y-132070649D01*
X108155720Y-132070653D01*
X108158794Y-132072093D01*
X108162012Y-132073195D01*
X108162015Y-132073196D01*
X108494615Y-132187071D01*
X108494623Y-132187073D01*
X108497838Y-132188174D01*
X108847435Y-132266959D01*
X108899728Y-132272917D01*
X109200114Y-132307142D01*
X109200122Y-132307142D01*
X109203497Y-132307527D01*
X109206901Y-132307545D01*
X109206904Y-132307545D01*
X109401227Y-132308562D01*
X109561857Y-132309403D01*
X109565243Y-132309053D01*
X109565245Y-132309053D01*
X109914932Y-132272917D01*
X109914941Y-132272916D01*
X109918324Y-132272566D01*
X109921657Y-132271852D01*
X109921660Y-132271851D01*
X110096511Y-132234366D01*
X110268727Y-132197446D01*
X110608968Y-132084922D01*
X110935066Y-131936311D01*
X111029052Y-131880506D01*
X111240262Y-131755099D01*
X111240267Y-131755096D01*
X111243207Y-131753350D01*
X111529786Y-131538180D01*
X111791451Y-131293319D01*
X111957731Y-131100000D01*
X148506502Y-131100000D01*
X148526457Y-131328087D01*
X148527881Y-131333400D01*
X148527881Y-131333402D01*
X148582752Y-131538180D01*
X148585716Y-131549243D01*
X148588039Y-131554224D01*
X148588039Y-131554225D01*
X148680151Y-131751762D01*
X148680154Y-131751767D01*
X148682477Y-131756749D01*
X148685634Y-131761257D01*
X148806985Y-131934564D01*
X148813802Y-131944300D01*
X148975700Y-132106198D01*
X148980208Y-132109355D01*
X148980211Y-132109357D01*
X149058389Y-132164098D01*
X149163251Y-132237523D01*
X149168233Y-132239846D01*
X149168238Y-132239849D01*
X149317399Y-132309403D01*
X149370757Y-132334284D01*
X149376065Y-132335706D01*
X149376067Y-132335707D01*
X149586598Y-132392119D01*
X149586600Y-132392119D01*
X149591913Y-132393543D01*
X149820000Y-132413498D01*
X150048087Y-132393543D01*
X150053400Y-132392119D01*
X150053402Y-132392119D01*
X150263933Y-132335707D01*
X150263935Y-132335706D01*
X150269243Y-132334284D01*
X150322601Y-132309403D01*
X150471762Y-132239849D01*
X150471767Y-132239846D01*
X150476749Y-132237523D01*
X150581611Y-132164098D01*
X150659789Y-132109357D01*
X150659792Y-132109355D01*
X150664300Y-132106198D01*
X150826198Y-131944300D01*
X150833016Y-131934564D01*
X150954366Y-131761257D01*
X150957523Y-131756749D01*
X150959846Y-131751767D01*
X150959849Y-131751762D01*
X151051961Y-131554225D01*
X151051961Y-131554224D01*
X151054284Y-131549243D01*
X151057249Y-131538180D01*
X151112119Y-131333402D01*
X151112119Y-131333400D01*
X151113543Y-131328087D01*
X151133498Y-131100000D01*
X158666502Y-131100000D01*
X158686457Y-131328087D01*
X158687881Y-131333400D01*
X158687881Y-131333402D01*
X158742752Y-131538180D01*
X158745716Y-131549243D01*
X158748039Y-131554224D01*
X158748039Y-131554225D01*
X158840151Y-131751762D01*
X158840154Y-131751767D01*
X158842477Y-131756749D01*
X158845634Y-131761257D01*
X158966985Y-131934564D01*
X158973802Y-131944300D01*
X159135700Y-132106198D01*
X159140208Y-132109355D01*
X159140211Y-132109357D01*
X159218389Y-132164098D01*
X159323251Y-132237523D01*
X159328233Y-132239846D01*
X159328238Y-132239849D01*
X159477399Y-132309403D01*
X159530757Y-132334284D01*
X159536065Y-132335706D01*
X159536067Y-132335707D01*
X159746598Y-132392119D01*
X159746600Y-132392119D01*
X159751913Y-132393543D01*
X159980000Y-132413498D01*
X160208087Y-132393543D01*
X160213400Y-132392119D01*
X160213402Y-132392119D01*
X160423933Y-132335707D01*
X160423935Y-132335706D01*
X160429243Y-132334284D01*
X160482601Y-132309403D01*
X160631762Y-132239849D01*
X160631767Y-132239846D01*
X160636749Y-132237523D01*
X160741611Y-132164098D01*
X160819789Y-132109357D01*
X160819792Y-132109355D01*
X160824300Y-132106198D01*
X160986198Y-131944300D01*
X160993016Y-131934564D01*
X161114366Y-131761257D01*
X161117523Y-131756749D01*
X161119846Y-131751767D01*
X161119849Y-131751762D01*
X161211961Y-131554225D01*
X161211961Y-131554224D01*
X161214284Y-131549243D01*
X161217249Y-131538180D01*
X161272119Y-131333402D01*
X161272119Y-131333400D01*
X161273543Y-131328087D01*
X161293498Y-131100000D01*
X161273543Y-130871913D01*
X161272119Y-130866598D01*
X161215707Y-130656067D01*
X161215706Y-130656065D01*
X161214284Y-130650757D01*
X161211961Y-130645775D01*
X161119849Y-130448238D01*
X161119846Y-130448233D01*
X161117523Y-130443251D01*
X160986198Y-130255700D01*
X160824300Y-130093802D01*
X160819792Y-130090645D01*
X160819789Y-130090643D01*
X160741611Y-130035902D01*
X160636749Y-129962477D01*
X160631767Y-129960154D01*
X160631762Y-129960151D01*
X160434225Y-129868039D01*
X160434224Y-129868039D01*
X160429243Y-129865716D01*
X160423935Y-129864294D01*
X160423933Y-129864293D01*
X160213402Y-129807881D01*
X160213400Y-129807881D01*
X160208087Y-129806457D01*
X159980000Y-129786502D01*
X159751913Y-129806457D01*
X159746600Y-129807881D01*
X159746598Y-129807881D01*
X159536067Y-129864293D01*
X159536065Y-129864294D01*
X159530757Y-129865716D01*
X159525776Y-129868039D01*
X159525775Y-129868039D01*
X159328238Y-129960151D01*
X159328233Y-129960154D01*
X159323251Y-129962477D01*
X159218389Y-130035902D01*
X159140211Y-130090643D01*
X159140208Y-130090645D01*
X159135700Y-130093802D01*
X158973802Y-130255700D01*
X158842477Y-130443251D01*
X158840154Y-130448233D01*
X158840151Y-130448238D01*
X158748039Y-130645775D01*
X158745716Y-130650757D01*
X158744294Y-130656065D01*
X158744293Y-130656067D01*
X158687881Y-130866598D01*
X158686457Y-130871913D01*
X158666502Y-131100000D01*
X151133498Y-131100000D01*
X151113543Y-130871913D01*
X151112119Y-130866598D01*
X151055707Y-130656067D01*
X151055706Y-130656065D01*
X151054284Y-130650757D01*
X151051961Y-130645775D01*
X150959849Y-130448238D01*
X150959846Y-130448233D01*
X150957523Y-130443251D01*
X150826198Y-130255700D01*
X150664300Y-130093802D01*
X150659792Y-130090645D01*
X150659789Y-130090643D01*
X150581611Y-130035902D01*
X150476749Y-129962477D01*
X150471767Y-129960154D01*
X150471762Y-129960151D01*
X150274225Y-129868039D01*
X150274224Y-129868039D01*
X150269243Y-129865716D01*
X150263935Y-129864294D01*
X150263933Y-129864293D01*
X150053402Y-129807881D01*
X150053400Y-129807881D01*
X150048087Y-129806457D01*
X149820000Y-129786502D01*
X149591913Y-129806457D01*
X149586600Y-129807881D01*
X149586598Y-129807881D01*
X149376067Y-129864293D01*
X149376065Y-129864294D01*
X149370757Y-129865716D01*
X149365776Y-129868039D01*
X149365775Y-129868039D01*
X149168238Y-129960151D01*
X149168233Y-129960154D01*
X149163251Y-129962477D01*
X149058389Y-130035902D01*
X148980211Y-130090643D01*
X148980208Y-130090645D01*
X148975700Y-130093802D01*
X148813802Y-130255700D01*
X148682477Y-130443251D01*
X148680154Y-130448233D01*
X148680151Y-130448238D01*
X148588039Y-130645775D01*
X148585716Y-130650757D01*
X148584294Y-130656065D01*
X148584293Y-130656067D01*
X148527881Y-130866598D01*
X148526457Y-130871913D01*
X148506502Y-131100000D01*
X111957731Y-131100000D01*
X112025140Y-131021630D01*
X112131750Y-130866512D01*
X112226190Y-130729101D01*
X112226195Y-130729094D01*
X112228120Y-130726292D01*
X112229732Y-130723298D01*
X112229737Y-130723290D01*
X112396395Y-130413772D01*
X112398017Y-130410760D01*
X112525137Y-130097699D01*
X112531562Y-130081877D01*
X112531564Y-130081872D01*
X112532842Y-130078724D01*
X112543142Y-130042568D01*
X112566619Y-129960151D01*
X112631020Y-129734070D01*
X112691401Y-129380828D01*
X112693511Y-129346340D01*
X112713168Y-129024928D01*
X112713278Y-129023131D01*
X112713326Y-129009357D01*
X112713353Y-129001819D01*
X112713353Y-129001806D01*
X112713359Y-129000000D01*
X112693979Y-128642159D01*
X112636066Y-128288505D01*
X112556057Y-128000000D01*
X148526502Y-128000000D01*
X148546457Y-128228087D01*
X148547881Y-128233400D01*
X148547881Y-128233402D01*
X148583216Y-128365271D01*
X148605716Y-128449243D01*
X148608039Y-128454224D01*
X148608039Y-128454225D01*
X148700151Y-128651762D01*
X148700154Y-128651767D01*
X148702477Y-128656749D01*
X148773724Y-128758500D01*
X148798444Y-128793803D01*
X148833802Y-128844300D01*
X148995700Y-129006198D01*
X149000208Y-129009355D01*
X149000211Y-129009357D01*
X149022449Y-129024928D01*
X149183251Y-129137523D01*
X149188233Y-129139846D01*
X149188238Y-129139849D01*
X149385775Y-129231961D01*
X149390757Y-129234284D01*
X149396065Y-129235706D01*
X149396067Y-129235707D01*
X149606598Y-129292119D01*
X149606600Y-129292119D01*
X149611913Y-129293543D01*
X149840000Y-129313498D01*
X150068087Y-129293543D01*
X150073400Y-129292119D01*
X150073402Y-129292119D01*
X150283933Y-129235707D01*
X150283935Y-129235706D01*
X150289243Y-129234284D01*
X150294225Y-129231961D01*
X150491762Y-129139849D01*
X150491767Y-129139846D01*
X150496749Y-129137523D01*
X150657551Y-129024928D01*
X150679789Y-129009357D01*
X150679792Y-129009355D01*
X150684300Y-129006198D01*
X150846198Y-128844300D01*
X150868655Y-128812229D01*
X150924110Y-128767901D01*
X150971867Y-128758500D01*
X152257413Y-128758500D01*
X152331472Y-128782563D01*
X152337902Y-128787235D01*
X152337909Y-128787239D01*
X152343248Y-128791118D01*
X152349276Y-128793802D01*
X152349278Y-128793803D01*
X152462697Y-128844300D01*
X152517712Y-128868794D01*
X152611113Y-128888647D01*
X152698056Y-128907128D01*
X152698061Y-128907128D01*
X152704513Y-128908500D01*
X152895487Y-128908500D01*
X152901939Y-128907128D01*
X152901944Y-128907128D01*
X152988887Y-128888647D01*
X153082288Y-128868794D01*
X153137303Y-128844300D01*
X153250722Y-128793803D01*
X153250724Y-128793802D01*
X153256752Y-128791118D01*
X153262097Y-128787235D01*
X153312157Y-128750864D01*
X153411253Y-128678866D01*
X153447333Y-128638795D01*
X153534621Y-128541852D01*
X153534622Y-128541851D01*
X153539040Y-128536944D01*
X153634527Y-128371556D01*
X153693542Y-128189928D01*
X153713504Y-128000000D01*
X158686502Y-128000000D01*
X158706457Y-128228087D01*
X158707881Y-128233400D01*
X158707881Y-128233402D01*
X158743216Y-128365271D01*
X158765716Y-128449243D01*
X158768039Y-128454224D01*
X158768039Y-128454225D01*
X158860151Y-128651762D01*
X158860154Y-128651767D01*
X158862477Y-128656749D01*
X158933724Y-128758500D01*
X158958444Y-128793803D01*
X158993802Y-128844300D01*
X159155700Y-129006198D01*
X159160208Y-129009355D01*
X159160211Y-129009357D01*
X159182449Y-129024928D01*
X159343251Y-129137523D01*
X159348233Y-129139846D01*
X159348238Y-129139849D01*
X159545775Y-129231961D01*
X159550757Y-129234284D01*
X159556065Y-129235706D01*
X159556067Y-129235707D01*
X159766598Y-129292119D01*
X159766600Y-129292119D01*
X159771913Y-129293543D01*
X160000000Y-129313498D01*
X160228087Y-129293543D01*
X160233400Y-129292119D01*
X160233402Y-129292119D01*
X160443933Y-129235707D01*
X160443935Y-129235706D01*
X160449243Y-129234284D01*
X160454225Y-129231961D01*
X160651762Y-129139849D01*
X160651767Y-129139846D01*
X160656749Y-129137523D01*
X160817551Y-129024928D01*
X160839789Y-129009357D01*
X160839792Y-129009355D01*
X160844300Y-129006198D01*
X160862064Y-128988434D01*
X166086661Y-128988434D01*
X166104792Y-129346340D01*
X166105329Y-129349695D01*
X166105330Y-129349701D01*
X166110316Y-129380828D01*
X166161470Y-129700195D01*
X166256033Y-130045859D01*
X166387374Y-130379288D01*
X166418151Y-130437909D01*
X166527283Y-130645775D01*
X166553957Y-130696582D01*
X166555858Y-130699411D01*
X166555864Y-130699421D01*
X166739569Y-130972800D01*
X166753834Y-130994029D01*
X166984665Y-131268150D01*
X167243751Y-131515738D01*
X167528061Y-131733897D01*
X167557444Y-131751762D01*
X167831355Y-131918303D01*
X167831360Y-131918306D01*
X167834270Y-131920075D01*
X167837358Y-131921521D01*
X167837357Y-131921521D01*
X168155710Y-132070649D01*
X168155720Y-132070653D01*
X168158794Y-132072093D01*
X168162012Y-132073195D01*
X168162015Y-132073196D01*
X168494615Y-132187071D01*
X168494623Y-132187073D01*
X168497838Y-132188174D01*
X168847435Y-132266959D01*
X168899728Y-132272917D01*
X169200114Y-132307142D01*
X169200122Y-132307142D01*
X169203497Y-132307527D01*
X169206901Y-132307545D01*
X169206904Y-132307545D01*
X169401227Y-132308562D01*
X169561857Y-132309403D01*
X169565243Y-132309053D01*
X169565245Y-132309053D01*
X169914932Y-132272917D01*
X169914941Y-132272916D01*
X169918324Y-132272566D01*
X169921657Y-132271852D01*
X169921660Y-132271851D01*
X170096511Y-132234366D01*
X170268727Y-132197446D01*
X170608968Y-132084922D01*
X170935066Y-131936311D01*
X171029052Y-131880506D01*
X171240262Y-131755099D01*
X171240267Y-131755096D01*
X171243207Y-131753350D01*
X171529786Y-131538180D01*
X171791451Y-131293319D01*
X172025140Y-131021630D01*
X172131750Y-130866512D01*
X172226190Y-130729101D01*
X172226195Y-130729094D01*
X172228120Y-130726292D01*
X172229732Y-130723298D01*
X172229737Y-130723290D01*
X172396395Y-130413772D01*
X172398017Y-130410760D01*
X172525137Y-130097699D01*
X172531562Y-130081877D01*
X172531564Y-130081872D01*
X172532842Y-130078724D01*
X172543142Y-130042568D01*
X172566619Y-129960151D01*
X172631020Y-129734070D01*
X172691401Y-129380828D01*
X172693511Y-129346340D01*
X172713168Y-129024928D01*
X172713278Y-129023131D01*
X172713326Y-129009357D01*
X172713353Y-129001819D01*
X172713353Y-129001806D01*
X172713359Y-129000000D01*
X172693979Y-128642159D01*
X172636066Y-128288505D01*
X172540297Y-127943173D01*
X172537243Y-127935497D01*
X172409052Y-127613369D01*
X172407793Y-127610205D01*
X172327283Y-127458148D01*
X172241702Y-127296513D01*
X172241698Y-127296506D01*
X172240103Y-127293494D01*
X172039190Y-126996746D01*
X172036694Y-126993802D01*
X171843262Y-126765716D01*
X171807403Y-126723432D01*
X171547454Y-126476750D01*
X171262384Y-126259585D01*
X171259472Y-126257828D01*
X171259467Y-126257825D01*
X170958443Y-126076236D01*
X170958437Y-126076233D01*
X170955528Y-126074478D01*
X170630475Y-125923593D01*
X170460751Y-125866145D01*
X170294255Y-125809789D01*
X170294250Y-125809788D01*
X170291028Y-125808697D01*
X170018133Y-125748197D01*
X169944493Y-125731871D01*
X169944487Y-125731870D01*
X169941158Y-125731132D01*
X169937769Y-125730758D01*
X169937764Y-125730757D01*
X169588338Y-125692180D01*
X169588333Y-125692180D01*
X169584957Y-125691807D01*
X169581558Y-125691801D01*
X169581557Y-125691801D01*
X169412080Y-125691505D01*
X169226592Y-125691182D01*
X169113413Y-125703277D01*
X168873639Y-125728901D01*
X168873631Y-125728902D01*
X168870256Y-125729263D01*
X168520117Y-125805606D01*
X168180271Y-125919317D01*
X168177178Y-125920739D01*
X168177177Y-125920740D01*
X168170974Y-125923593D01*
X167854694Y-126069066D01*
X167851760Y-126070822D01*
X167851758Y-126070823D01*
X167649087Y-126192119D01*
X167547193Y-126253101D01*
X167544467Y-126255163D01*
X167544465Y-126255164D01*
X167538620Y-126259585D01*
X167261367Y-126469270D01*
X167000559Y-126715043D01*
X166767819Y-126987546D01*
X166765900Y-126990358D01*
X166765897Y-126990363D01*
X166672624Y-127127097D01*
X166565871Y-127283591D01*
X166397077Y-127599714D01*
X166263411Y-127932218D01*
X166262491Y-127935492D01*
X166262489Y-127935497D01*
X166178752Y-128233402D01*
X166166437Y-128277213D01*
X166107290Y-128630663D01*
X166086661Y-128988434D01*
X160862064Y-128988434D01*
X161006198Y-128844300D01*
X161041557Y-128793803D01*
X161066276Y-128758500D01*
X161137523Y-128656749D01*
X161139846Y-128651767D01*
X161139849Y-128651762D01*
X161231961Y-128454225D01*
X161231961Y-128454224D01*
X161234284Y-128449243D01*
X161256785Y-128365271D01*
X161292119Y-128233402D01*
X161292119Y-128233400D01*
X161293543Y-128228087D01*
X161313498Y-128000000D01*
X161293543Y-127771913D01*
X161292119Y-127766598D01*
X161235707Y-127556067D01*
X161235706Y-127556065D01*
X161234284Y-127550757D01*
X161191100Y-127458148D01*
X161139849Y-127348238D01*
X161139846Y-127348233D01*
X161137523Y-127343251D01*
X161049427Y-127217437D01*
X161009357Y-127160211D01*
X161009355Y-127160208D01*
X161006198Y-127155700D01*
X160844300Y-126993802D01*
X160839792Y-126990645D01*
X160839789Y-126990643D01*
X160761611Y-126935902D01*
X160656749Y-126862477D01*
X160651767Y-126860154D01*
X160651762Y-126860151D01*
X160454225Y-126768039D01*
X160454224Y-126768039D01*
X160449243Y-126765716D01*
X160443935Y-126764294D01*
X160443933Y-126764293D01*
X160233402Y-126707881D01*
X160233400Y-126707881D01*
X160228087Y-126706457D01*
X160000000Y-126686502D01*
X159771913Y-126706457D01*
X159766600Y-126707881D01*
X159766598Y-126707881D01*
X159556067Y-126764293D01*
X159556065Y-126764294D01*
X159550757Y-126765716D01*
X159545776Y-126768039D01*
X159545775Y-126768039D01*
X159348238Y-126860151D01*
X159348233Y-126860154D01*
X159343251Y-126862477D01*
X159238389Y-126935902D01*
X159160211Y-126990643D01*
X159160208Y-126990645D01*
X159155700Y-126993802D01*
X158993802Y-127155700D01*
X158990645Y-127160208D01*
X158990643Y-127160211D01*
X158950573Y-127217437D01*
X158862477Y-127343251D01*
X158860154Y-127348233D01*
X158860151Y-127348238D01*
X158808900Y-127458148D01*
X158765716Y-127550757D01*
X158764294Y-127556065D01*
X158764293Y-127556067D01*
X158707881Y-127766598D01*
X158706457Y-127771913D01*
X158686502Y-128000000D01*
X153713504Y-128000000D01*
X153693542Y-127810072D01*
X153634527Y-127628444D01*
X153625824Y-127613369D01*
X153542341Y-127468774D01*
X153539040Y-127463056D01*
X153411253Y-127321134D01*
X153301647Y-127241500D01*
X153262094Y-127212763D01*
X153262093Y-127212762D01*
X153256752Y-127208882D01*
X153250724Y-127206198D01*
X153250722Y-127206197D01*
X153088319Y-127133891D01*
X153088318Y-127133891D01*
X153082288Y-127131206D01*
X152988888Y-127111353D01*
X152901944Y-127092872D01*
X152901939Y-127092872D01*
X152895487Y-127091500D01*
X152704513Y-127091500D01*
X152698061Y-127092872D01*
X152698056Y-127092872D01*
X152611112Y-127111353D01*
X152517712Y-127131206D01*
X152511682Y-127133891D01*
X152511681Y-127133891D01*
X152349278Y-127206197D01*
X152349276Y-127206198D01*
X152343248Y-127208882D01*
X152337909Y-127212761D01*
X152337902Y-127212765D01*
X152331472Y-127217437D01*
X152257413Y-127241500D01*
X150971867Y-127241500D01*
X150903746Y-127221498D01*
X150868655Y-127187772D01*
X150846198Y-127155700D01*
X150684300Y-126993802D01*
X150679792Y-126990645D01*
X150679789Y-126990643D01*
X150601611Y-126935902D01*
X150496749Y-126862477D01*
X150491767Y-126860154D01*
X150491762Y-126860151D01*
X150294225Y-126768039D01*
X150294224Y-126768039D01*
X150289243Y-126765716D01*
X150283935Y-126764294D01*
X150283933Y-126764293D01*
X150073402Y-126707881D01*
X150073400Y-126707881D01*
X150068087Y-126706457D01*
X149840000Y-126686502D01*
X149611913Y-126706457D01*
X149606600Y-126707881D01*
X149606598Y-126707881D01*
X149396067Y-126764293D01*
X149396065Y-126764294D01*
X149390757Y-126765716D01*
X149385776Y-126768039D01*
X149385775Y-126768039D01*
X149188238Y-126860151D01*
X149188233Y-126860154D01*
X149183251Y-126862477D01*
X149078389Y-126935902D01*
X149000211Y-126990643D01*
X149000208Y-126990645D01*
X148995700Y-126993802D01*
X148833802Y-127155700D01*
X148830645Y-127160208D01*
X148830643Y-127160211D01*
X148790573Y-127217437D01*
X148702477Y-127343251D01*
X148700154Y-127348233D01*
X148700151Y-127348238D01*
X148648900Y-127458148D01*
X148605716Y-127550757D01*
X148604294Y-127556065D01*
X148604293Y-127556067D01*
X148547881Y-127766598D01*
X148546457Y-127771913D01*
X148526502Y-128000000D01*
X112556057Y-128000000D01*
X112540297Y-127943173D01*
X112537243Y-127935497D01*
X112409052Y-127613369D01*
X112407793Y-127610205D01*
X112327283Y-127458148D01*
X112241702Y-127296513D01*
X112241698Y-127296506D01*
X112240103Y-127293494D01*
X112039190Y-126996746D01*
X112036694Y-126993802D01*
X111843262Y-126765716D01*
X111807403Y-126723432D01*
X111547454Y-126476750D01*
X111262384Y-126259585D01*
X111259472Y-126257828D01*
X111259467Y-126257825D01*
X110958443Y-126076236D01*
X110958437Y-126076233D01*
X110955528Y-126074478D01*
X110630475Y-125923593D01*
X110460751Y-125866145D01*
X110294255Y-125809789D01*
X110294250Y-125809788D01*
X110291028Y-125808697D01*
X110018133Y-125748197D01*
X109944493Y-125731871D01*
X109944487Y-125731870D01*
X109941158Y-125731132D01*
X109937769Y-125730758D01*
X109937764Y-125730757D01*
X109588338Y-125692180D01*
X109588333Y-125692180D01*
X109584957Y-125691807D01*
X109581558Y-125691801D01*
X109581557Y-125691801D01*
X109412080Y-125691505D01*
X109226592Y-125691182D01*
X109113413Y-125703277D01*
X108873639Y-125728901D01*
X108873631Y-125728902D01*
X108870256Y-125729263D01*
X108520117Y-125805606D01*
X108180271Y-125919317D01*
X108177178Y-125920739D01*
X108177177Y-125920740D01*
X108170974Y-125923593D01*
X107854694Y-126069066D01*
X107851760Y-126070822D01*
X107851758Y-126070823D01*
X107649087Y-126192119D01*
X107547193Y-126253101D01*
X107544467Y-126255163D01*
X107544465Y-126255164D01*
X107538620Y-126259585D01*
X107261367Y-126469270D01*
X107000559Y-126715043D01*
X106767819Y-126987546D01*
X106765900Y-126990358D01*
X106765897Y-126990363D01*
X106672624Y-127127097D01*
X106565871Y-127283591D01*
X106397077Y-127599714D01*
X106263411Y-127932218D01*
X106262491Y-127935492D01*
X106262489Y-127935497D01*
X106178752Y-128233402D01*
X106166437Y-128277213D01*
X106107290Y-128630663D01*
X106086661Y-128988434D01*
X103829005Y-128988434D01*
X103829672Y-124900000D01*
X148546502Y-124900000D01*
X148566457Y-125128087D01*
X148567881Y-125133400D01*
X148567881Y-125133402D01*
X148603216Y-125265271D01*
X148625716Y-125349243D01*
X148628039Y-125354224D01*
X148628039Y-125354225D01*
X148720151Y-125551762D01*
X148720154Y-125551767D01*
X148722477Y-125556749D01*
X148793724Y-125658500D01*
X148844582Y-125731132D01*
X148853802Y-125744300D01*
X149015700Y-125906198D01*
X149020208Y-125909355D01*
X149020211Y-125909357D01*
X149098389Y-125964098D01*
X149203251Y-126037523D01*
X149208233Y-126039846D01*
X149208238Y-126039849D01*
X149405775Y-126131961D01*
X149410757Y-126134284D01*
X149416065Y-126135706D01*
X149416067Y-126135707D01*
X149626598Y-126192119D01*
X149626600Y-126192119D01*
X149631913Y-126193543D01*
X149860000Y-126213498D01*
X150088087Y-126193543D01*
X150093400Y-126192119D01*
X150093402Y-126192119D01*
X150303933Y-126135707D01*
X150303935Y-126135706D01*
X150309243Y-126134284D01*
X150314225Y-126131961D01*
X150511762Y-126039849D01*
X150511767Y-126039846D01*
X150516749Y-126037523D01*
X150621611Y-125964098D01*
X150699789Y-125909357D01*
X150699792Y-125909355D01*
X150704300Y-125906198D01*
X150866198Y-125744300D01*
X150888655Y-125712229D01*
X150944110Y-125667901D01*
X150991867Y-125658500D01*
X152157413Y-125658500D01*
X152231472Y-125682563D01*
X152237902Y-125687235D01*
X152237909Y-125687239D01*
X152243248Y-125691118D01*
X152249276Y-125693802D01*
X152249278Y-125693803D01*
X152362697Y-125744300D01*
X152417712Y-125768794D01*
X152511112Y-125788647D01*
X152598056Y-125807128D01*
X152598061Y-125807128D01*
X152604513Y-125808500D01*
X152795487Y-125808500D01*
X152801939Y-125807128D01*
X152801944Y-125807128D01*
X152888888Y-125788647D01*
X152982288Y-125768794D01*
X153037303Y-125744300D01*
X153150722Y-125693803D01*
X153150724Y-125693802D01*
X153156752Y-125691118D01*
X153162097Y-125687235D01*
X153212157Y-125650864D01*
X153311253Y-125578866D01*
X153439040Y-125436944D01*
X153534527Y-125271556D01*
X153593542Y-125089928D01*
X153613504Y-124900000D01*
X158706502Y-124900000D01*
X158726457Y-125128087D01*
X158727881Y-125133400D01*
X158727881Y-125133402D01*
X158763216Y-125265271D01*
X158785716Y-125349243D01*
X158788039Y-125354224D01*
X158788039Y-125354225D01*
X158880151Y-125551762D01*
X158880154Y-125551767D01*
X158882477Y-125556749D01*
X158953724Y-125658500D01*
X159004582Y-125731132D01*
X159013802Y-125744300D01*
X159175700Y-125906198D01*
X159180208Y-125909355D01*
X159180211Y-125909357D01*
X159258389Y-125964098D01*
X159363251Y-126037523D01*
X159368233Y-126039846D01*
X159368238Y-126039849D01*
X159565775Y-126131961D01*
X159570757Y-126134284D01*
X159576065Y-126135706D01*
X159576067Y-126135707D01*
X159786598Y-126192119D01*
X159786600Y-126192119D01*
X159791913Y-126193543D01*
X160020000Y-126213498D01*
X160248087Y-126193543D01*
X160253400Y-126192119D01*
X160253402Y-126192119D01*
X160463933Y-126135707D01*
X160463935Y-126135706D01*
X160469243Y-126134284D01*
X160474225Y-126131961D01*
X160671762Y-126039849D01*
X160671767Y-126039846D01*
X160676749Y-126037523D01*
X160781611Y-125964098D01*
X160859789Y-125909357D01*
X160859792Y-125909355D01*
X160864300Y-125906198D01*
X161026198Y-125744300D01*
X161035419Y-125731132D01*
X161086276Y-125658500D01*
X161157523Y-125556749D01*
X161159846Y-125551767D01*
X161159849Y-125551762D01*
X161251961Y-125354225D01*
X161251961Y-125354224D01*
X161254284Y-125349243D01*
X161276785Y-125265271D01*
X161312119Y-125133402D01*
X161312119Y-125133400D01*
X161313543Y-125128087D01*
X161333498Y-124900000D01*
X161313543Y-124671913D01*
X161312119Y-124666598D01*
X161255707Y-124456067D01*
X161255706Y-124456065D01*
X161254284Y-124450757D01*
X161211100Y-124358148D01*
X161159849Y-124248238D01*
X161159846Y-124248233D01*
X161157523Y-124243251D01*
X161069427Y-124117437D01*
X161029357Y-124060211D01*
X161029355Y-124060208D01*
X161026198Y-124055700D01*
X160864300Y-123893802D01*
X160859792Y-123890645D01*
X160859789Y-123890643D01*
X160781611Y-123835902D01*
X160676749Y-123762477D01*
X160671767Y-123760154D01*
X160671762Y-123760151D01*
X160474225Y-123668039D01*
X160474224Y-123668039D01*
X160469243Y-123665716D01*
X160463935Y-123664294D01*
X160463933Y-123664293D01*
X160253402Y-123607881D01*
X160253400Y-123607881D01*
X160248087Y-123606457D01*
X160020000Y-123586502D01*
X159791913Y-123606457D01*
X159786600Y-123607881D01*
X159786598Y-123607881D01*
X159576067Y-123664293D01*
X159576065Y-123664294D01*
X159570757Y-123665716D01*
X159565776Y-123668039D01*
X159565775Y-123668039D01*
X159368238Y-123760151D01*
X159368233Y-123760154D01*
X159363251Y-123762477D01*
X159258389Y-123835902D01*
X159180211Y-123890643D01*
X159180208Y-123890645D01*
X159175700Y-123893802D01*
X159013802Y-124055700D01*
X159010645Y-124060208D01*
X159010643Y-124060211D01*
X158970573Y-124117437D01*
X158882477Y-124243251D01*
X158880154Y-124248233D01*
X158880151Y-124248238D01*
X158828900Y-124358148D01*
X158785716Y-124450757D01*
X158784294Y-124456065D01*
X158784293Y-124456067D01*
X158727881Y-124666598D01*
X158726457Y-124671913D01*
X158706502Y-124900000D01*
X153613504Y-124900000D01*
X153593542Y-124710072D01*
X153534527Y-124528444D01*
X153439040Y-124363056D01*
X153311253Y-124221134D01*
X153201647Y-124141500D01*
X153162094Y-124112763D01*
X153162093Y-124112762D01*
X153156752Y-124108882D01*
X153150724Y-124106198D01*
X153150722Y-124106197D01*
X152988319Y-124033891D01*
X152988318Y-124033891D01*
X152982288Y-124031206D01*
X152888887Y-124011353D01*
X152801944Y-123992872D01*
X152801939Y-123992872D01*
X152795487Y-123991500D01*
X152604513Y-123991500D01*
X152598061Y-123992872D01*
X152598056Y-123992872D01*
X152511113Y-124011353D01*
X152417712Y-124031206D01*
X152411682Y-124033891D01*
X152411681Y-124033891D01*
X152249278Y-124106197D01*
X152249276Y-124106198D01*
X152243248Y-124108882D01*
X152237909Y-124112761D01*
X152237902Y-124112765D01*
X152231472Y-124117437D01*
X152157413Y-124141500D01*
X150991867Y-124141500D01*
X150923746Y-124121498D01*
X150888655Y-124087772D01*
X150866198Y-124055700D01*
X150704300Y-123893802D01*
X150699792Y-123890645D01*
X150699789Y-123890643D01*
X150621611Y-123835902D01*
X150516749Y-123762477D01*
X150511767Y-123760154D01*
X150511762Y-123760151D01*
X150314225Y-123668039D01*
X150314224Y-123668039D01*
X150309243Y-123665716D01*
X150303935Y-123664294D01*
X150303933Y-123664293D01*
X150093402Y-123607881D01*
X150093400Y-123607881D01*
X150088087Y-123606457D01*
X149860000Y-123586502D01*
X149631913Y-123606457D01*
X149626600Y-123607881D01*
X149626598Y-123607881D01*
X149416067Y-123664293D01*
X149416065Y-123664294D01*
X149410757Y-123665716D01*
X149405776Y-123668039D01*
X149405775Y-123668039D01*
X149208238Y-123760151D01*
X149208233Y-123760154D01*
X149203251Y-123762477D01*
X149098389Y-123835902D01*
X149020211Y-123890643D01*
X149020208Y-123890645D01*
X149015700Y-123893802D01*
X148853802Y-124055700D01*
X148850645Y-124060208D01*
X148850643Y-124060211D01*
X148810573Y-124117437D01*
X148722477Y-124243251D01*
X148720154Y-124248233D01*
X148720151Y-124248238D01*
X148668900Y-124358148D01*
X148625716Y-124450757D01*
X148624294Y-124456065D01*
X148624293Y-124456067D01*
X148567881Y-124666598D01*
X148566457Y-124671913D01*
X148546502Y-124900000D01*
X103829672Y-124900000D01*
X103830396Y-120465469D01*
X108747095Y-120465469D01*
X108760427Y-120696697D01*
X108761564Y-120701743D01*
X108761565Y-120701749D01*
X108793741Y-120844523D01*
X108811346Y-120922642D01*
X108898484Y-121137237D01*
X109019501Y-121334719D01*
X109171147Y-121509784D01*
X109349349Y-121657730D01*
X109549322Y-121774584D01*
X109765694Y-121857209D01*
X109770760Y-121858240D01*
X109770761Y-121858240D01*
X109823846Y-121869040D01*
X109992656Y-121903385D01*
X110122089Y-121908131D01*
X110218949Y-121911683D01*
X110218953Y-121911683D01*
X110224113Y-121911872D01*
X110229233Y-121911216D01*
X110229235Y-121911216D01*
X110303166Y-121901745D01*
X110453847Y-121882442D01*
X110458795Y-121880957D01*
X110458802Y-121880956D01*
X110670747Y-121817369D01*
X110675690Y-121815886D01*
X110756236Y-121776427D01*
X110879049Y-121716262D01*
X110879052Y-121716260D01*
X110883684Y-121713991D01*
X111072243Y-121579494D01*
X111117309Y-121534585D01*
X111179681Y-121500669D01*
X111250487Y-121505857D01*
X111307249Y-121548503D01*
X111324231Y-121579607D01*
X111349385Y-121646705D01*
X111436739Y-121763261D01*
X111553295Y-121850615D01*
X111689684Y-121901745D01*
X111751866Y-121908500D01*
X113648134Y-121908500D01*
X113710316Y-121901745D01*
X113846705Y-121850615D01*
X113963261Y-121763261D01*
X114050615Y-121646705D01*
X114101745Y-121510316D01*
X114108500Y-121448134D01*
X114108500Y-119551866D01*
X114101745Y-119489684D01*
X114050615Y-119353295D01*
X113963261Y-119236739D01*
X113846705Y-119149385D01*
X113710316Y-119098255D01*
X113648134Y-119091500D01*
X111751866Y-119091500D01*
X111689684Y-119098255D01*
X111553295Y-119149385D01*
X111436739Y-119236739D01*
X111349385Y-119353295D01*
X111346233Y-119361703D01*
X111346232Y-119361705D01*
X111325538Y-119416906D01*
X111282897Y-119473671D01*
X111216335Y-119498371D01*
X111146986Y-119483164D01*
X111124167Y-119466666D01*
X111123887Y-119466358D01*
X110991373Y-119361705D01*
X110946177Y-119326011D01*
X110946172Y-119326008D01*
X110942123Y-119322810D01*
X110937607Y-119320317D01*
X110937604Y-119320315D01*
X110743879Y-119213373D01*
X110743875Y-119213371D01*
X110739355Y-119210876D01*
X110734486Y-119209152D01*
X110734482Y-119209150D01*
X110525903Y-119135288D01*
X110525899Y-119135287D01*
X110521028Y-119133562D01*
X110515935Y-119132655D01*
X110515932Y-119132654D01*
X110298095Y-119093851D01*
X110298089Y-119093850D01*
X110293006Y-119092945D01*
X110220096Y-119092054D01*
X110066581Y-119090179D01*
X110066579Y-119090179D01*
X110061411Y-119090116D01*
X109832464Y-119125150D01*
X109612314Y-119197106D01*
X109607726Y-119199494D01*
X109607722Y-119199496D01*
X109411461Y-119301663D01*
X109406872Y-119304052D01*
X109402739Y-119307155D01*
X109402736Y-119307157D01*
X109225790Y-119440012D01*
X109221655Y-119443117D01*
X109061639Y-119610564D01*
X108931119Y-119801899D01*
X108833602Y-120011981D01*
X108771707Y-120235169D01*
X108747095Y-120465469D01*
X103830396Y-120465469D01*
X103832618Y-106855000D01*
X109486502Y-106855000D01*
X109506457Y-107083087D01*
X109507881Y-107088400D01*
X109507881Y-107088402D01*
X109560743Y-107285682D01*
X109565716Y-107304243D01*
X109568039Y-107309224D01*
X109568039Y-107309225D01*
X109660151Y-107506762D01*
X109660154Y-107506767D01*
X109662477Y-107511749D01*
X109793802Y-107699300D01*
X109955700Y-107861198D01*
X109960208Y-107864355D01*
X109960211Y-107864357D01*
X110038389Y-107919098D01*
X110143251Y-107992523D01*
X110148233Y-107994846D01*
X110148238Y-107994849D01*
X110345775Y-108086961D01*
X110350757Y-108089284D01*
X110356065Y-108090706D01*
X110356067Y-108090707D01*
X110566598Y-108147119D01*
X110566600Y-108147119D01*
X110571913Y-108148543D01*
X110800000Y-108168498D01*
X111028087Y-108148543D01*
X111033400Y-108147119D01*
X111033402Y-108147119D01*
X111243933Y-108090707D01*
X111243935Y-108090706D01*
X111249243Y-108089284D01*
X111254225Y-108086961D01*
X111451762Y-107994849D01*
X111451767Y-107994846D01*
X111456749Y-107992523D01*
X111561611Y-107919098D01*
X111639789Y-107864357D01*
X111639792Y-107864355D01*
X111644300Y-107861198D01*
X111806198Y-107699300D01*
X111937523Y-107511749D01*
X111939846Y-107506767D01*
X111939849Y-107506762D01*
X112031961Y-107309225D01*
X112031961Y-107309224D01*
X112034284Y-107304243D01*
X112039258Y-107285682D01*
X112092119Y-107088402D01*
X112092119Y-107088400D01*
X112093543Y-107083087D01*
X112113498Y-106855000D01*
X112093543Y-106626913D01*
X112087564Y-106604598D01*
X112035707Y-106411067D01*
X112035706Y-106411065D01*
X112034284Y-106405757D01*
X112029509Y-106395516D01*
X111939849Y-106203238D01*
X111939846Y-106203233D01*
X111937523Y-106198251D01*
X111806198Y-106010700D01*
X111644300Y-105848802D01*
X111639792Y-105845645D01*
X111639789Y-105845643D01*
X111561611Y-105790902D01*
X111456749Y-105717477D01*
X111451767Y-105715154D01*
X111451762Y-105715151D01*
X111254225Y-105623039D01*
X111254224Y-105623039D01*
X111249243Y-105620716D01*
X111243935Y-105619294D01*
X111243933Y-105619293D01*
X111033402Y-105562881D01*
X111033400Y-105562881D01*
X111028087Y-105561457D01*
X110800000Y-105541502D01*
X110571913Y-105561457D01*
X110566600Y-105562881D01*
X110566598Y-105562881D01*
X110356067Y-105619293D01*
X110356065Y-105619294D01*
X110350757Y-105620716D01*
X110345776Y-105623039D01*
X110345775Y-105623039D01*
X110148238Y-105715151D01*
X110148233Y-105715154D01*
X110143251Y-105717477D01*
X110038389Y-105790902D01*
X109960211Y-105845643D01*
X109960208Y-105845645D01*
X109955700Y-105848802D01*
X109793802Y-106010700D01*
X109662477Y-106198251D01*
X109660154Y-106203233D01*
X109660151Y-106203238D01*
X109570491Y-106395516D01*
X109565716Y-106405757D01*
X109564294Y-106411065D01*
X109564293Y-106411067D01*
X109512436Y-106604598D01*
X109506457Y-106626913D01*
X109486502Y-106855000D01*
X103832618Y-106855000D01*
X103834233Y-96961522D01*
X109517273Y-96961522D01*
X109564764Y-97138761D01*
X109568510Y-97149053D01*
X109660586Y-97346511D01*
X109666069Y-97356007D01*
X109791028Y-97534467D01*
X109798084Y-97542875D01*
X109952125Y-97696916D01*
X109960533Y-97703972D01*
X110138993Y-97828931D01*
X110148489Y-97834414D01*
X110345947Y-97926490D01*
X110356239Y-97930236D01*
X110528503Y-97976394D01*
X110542599Y-97976058D01*
X110546000Y-97968116D01*
X110546000Y-97962967D01*
X111054000Y-97962967D01*
X111057973Y-97976498D01*
X111066522Y-97977727D01*
X111243761Y-97930236D01*
X111254053Y-97926490D01*
X111451511Y-97834414D01*
X111461007Y-97828931D01*
X111639467Y-97703972D01*
X111647875Y-97696916D01*
X111801916Y-97542875D01*
X111808972Y-97534467D01*
X111933931Y-97356007D01*
X111939414Y-97346511D01*
X112031490Y-97149053D01*
X112035236Y-97138761D01*
X112081394Y-96966497D01*
X112081058Y-96952401D01*
X112073116Y-96949000D01*
X111072115Y-96949000D01*
X111056876Y-96953475D01*
X111055671Y-96954865D01*
X111054000Y-96962548D01*
X111054000Y-97962967D01*
X110546000Y-97962967D01*
X110546000Y-96967115D01*
X110541525Y-96951876D01*
X110540135Y-96950671D01*
X110532452Y-96949000D01*
X109532033Y-96949000D01*
X109518502Y-96952973D01*
X109517273Y-96961522D01*
X103834233Y-96961522D01*
X103834321Y-96423503D01*
X109518606Y-96423503D01*
X109518942Y-96437599D01*
X109526884Y-96441000D01*
X110527885Y-96441000D01*
X110543124Y-96436525D01*
X110544329Y-96435135D01*
X110546000Y-96427452D01*
X110546000Y-96422885D01*
X111054000Y-96422885D01*
X111058475Y-96438124D01*
X111059865Y-96439329D01*
X111067548Y-96441000D01*
X112067967Y-96441000D01*
X112081498Y-96437027D01*
X112082727Y-96428478D01*
X112035236Y-96251239D01*
X112031490Y-96240947D01*
X111939414Y-96043489D01*
X111933931Y-96033993D01*
X111808972Y-95855533D01*
X111801916Y-95847125D01*
X111647875Y-95693084D01*
X111639467Y-95686028D01*
X111461007Y-95561069D01*
X111451511Y-95555586D01*
X111254053Y-95463510D01*
X111243761Y-95459764D01*
X111071497Y-95413606D01*
X111057401Y-95413942D01*
X111054000Y-95421884D01*
X111054000Y-96422885D01*
X110546000Y-96422885D01*
X110546000Y-95427033D01*
X110542027Y-95413502D01*
X110533478Y-95412273D01*
X110356239Y-95459764D01*
X110345947Y-95463510D01*
X110148489Y-95555586D01*
X110138993Y-95561069D01*
X109960533Y-95686028D01*
X109952125Y-95693084D01*
X109798084Y-95847125D01*
X109791028Y-95855533D01*
X109666069Y-96033993D01*
X109660586Y-96043489D01*
X109568510Y-96240947D01*
X109564764Y-96251239D01*
X109518606Y-96423503D01*
X103834321Y-96423503D01*
X103835942Y-86494669D01*
X108542001Y-86494669D01*
X108542371Y-86501490D01*
X108547895Y-86552352D01*
X108551521Y-86567604D01*
X108596676Y-86688054D01*
X108605214Y-86703649D01*
X108681715Y-86805724D01*
X108694276Y-86818285D01*
X108796351Y-86894786D01*
X108811946Y-86903324D01*
X108932394Y-86948478D01*
X108947649Y-86952105D01*
X108998514Y-86957631D01*
X109005328Y-86958000D01*
X109977885Y-86958000D01*
X109993124Y-86953525D01*
X109994329Y-86952135D01*
X109996000Y-86944452D01*
X109996000Y-86939884D01*
X110504000Y-86939884D01*
X110508475Y-86955123D01*
X110509865Y-86956328D01*
X110517548Y-86957999D01*
X111494669Y-86957999D01*
X111501490Y-86957629D01*
X111552352Y-86952105D01*
X111567604Y-86948479D01*
X111617051Y-86929942D01*
X115986779Y-86929942D01*
X115987525Y-86937834D01*
X115990940Y-86973960D01*
X115991499Y-86985818D01*
X115991499Y-107126232D01*
X115990972Y-107137415D01*
X115989297Y-107144908D01*
X115989546Y-107152834D01*
X115989546Y-107152835D01*
X115991437Y-107212985D01*
X115991499Y-107216944D01*
X115991499Y-107244855D01*
X115991996Y-107248789D01*
X115991996Y-107248790D01*
X115992004Y-107248855D01*
X115992937Y-107260692D01*
X115994326Y-107304888D01*
X115997060Y-107314297D01*
X115999977Y-107324338D01*
X116003986Y-107343699D01*
X116006525Y-107363796D01*
X116009444Y-107371167D01*
X116009444Y-107371169D01*
X116022803Y-107404911D01*
X116026648Y-107416141D01*
X116029765Y-107426870D01*
X116038981Y-107458592D01*
X116043014Y-107465411D01*
X116043016Y-107465416D01*
X116049292Y-107476027D01*
X116057987Y-107493775D01*
X116065447Y-107512616D01*
X116070109Y-107519032D01*
X116070109Y-107519033D01*
X116091435Y-107548386D01*
X116097951Y-107558306D01*
X116120457Y-107596361D01*
X116134778Y-107610682D01*
X116147618Y-107625715D01*
X116159527Y-107642106D01*
X116165633Y-107647157D01*
X116193604Y-107670297D01*
X116202383Y-107678287D01*
X116449778Y-107925682D01*
X116483804Y-107987994D01*
X116482100Y-108048448D01*
X116460989Y-108124570D01*
X116460441Y-108129700D01*
X116460440Y-108129704D01*
X116456165Y-108169707D01*
X116437251Y-108346695D01*
X116437548Y-108351848D01*
X116437548Y-108351851D01*
X116449812Y-108564547D01*
X116450110Y-108569715D01*
X116451247Y-108574761D01*
X116451248Y-108574767D01*
X116463051Y-108627137D01*
X116499222Y-108787639D01*
X116583266Y-108994616D01*
X116623883Y-109060897D01*
X116688601Y-109166507D01*
X116699987Y-109185088D01*
X116846250Y-109353938D01*
X117018126Y-109496632D01*
X117088595Y-109537811D01*
X117091445Y-109539476D01*
X117140169Y-109591114D01*
X117153240Y-109660897D01*
X117126509Y-109726669D01*
X117086055Y-109760027D01*
X117073607Y-109766507D01*
X117069474Y-109769610D01*
X117069471Y-109769612D01*
X116899100Y-109897530D01*
X116894965Y-109900635D01*
X116740629Y-110062138D01*
X116737715Y-110066410D01*
X116737714Y-110066411D01*
X116725404Y-110084457D01*
X116614743Y-110246680D01*
X116520688Y-110449305D01*
X116460989Y-110664570D01*
X116437251Y-110886695D01*
X116437548Y-110891848D01*
X116437548Y-110891851D01*
X116443011Y-110986590D01*
X116450110Y-111109715D01*
X116451247Y-111114761D01*
X116451248Y-111114767D01*
X116462276Y-111163700D01*
X116499222Y-111327639D01*
X116525895Y-111393327D01*
X116576910Y-111518962D01*
X116583266Y-111534616D01*
X116630297Y-111611364D01*
X116697228Y-111720585D01*
X116699987Y-111725088D01*
X116846250Y-111893938D01*
X116939372Y-111971249D01*
X117001055Y-112022459D01*
X117018126Y-112036632D01*
X117211000Y-112149338D01*
X117419692Y-112229030D01*
X117424760Y-112230061D01*
X117424763Y-112230062D01*
X117532012Y-112251882D01*
X117638597Y-112273567D01*
X117643772Y-112273757D01*
X117643774Y-112273757D01*
X117856673Y-112281564D01*
X117856677Y-112281564D01*
X117861837Y-112281753D01*
X117866957Y-112281097D01*
X117866959Y-112281097D01*
X118078288Y-112254025D01*
X118078289Y-112254025D01*
X118083416Y-112253368D01*
X118088367Y-112251883D01*
X118088370Y-112251882D01*
X118129829Y-112239444D01*
X118200825Y-112239028D01*
X118255131Y-112271035D01*
X122911344Y-116927248D01*
X122918888Y-116935538D01*
X122923001Y-116942019D01*
X122928778Y-116947444D01*
X122972668Y-116988659D01*
X122975510Y-116991414D01*
X122995232Y-117011136D01*
X122998356Y-117013559D01*
X122998360Y-117013563D01*
X122998425Y-117013613D01*
X123007446Y-117021318D01*
X123039680Y-117051587D01*
X123046628Y-117055406D01*
X123046630Y-117055408D01*
X123057433Y-117061347D01*
X123073960Y-117072203D01*
X123083699Y-117079758D01*
X123083701Y-117079759D01*
X123089961Y-117084615D01*
X123130541Y-117102175D01*
X123141189Y-117107392D01*
X123172516Y-117124614D01*
X123179941Y-117128696D01*
X123187617Y-117130667D01*
X123187620Y-117130668D01*
X123199563Y-117133734D01*
X123218267Y-117140138D01*
X123222961Y-117142169D01*
X123236856Y-117148182D01*
X123244679Y-117149421D01*
X123244689Y-117149424D01*
X123280525Y-117155100D01*
X123292145Y-117157506D01*
X123323960Y-117165674D01*
X123334971Y-117168501D01*
X123355225Y-117168501D01*
X123374935Y-117170052D01*
X123394944Y-117173221D01*
X123402836Y-117172475D01*
X123421941Y-117170669D01*
X123438963Y-117169060D01*
X123450820Y-117168501D01*
X154525234Y-117168501D01*
X154536417Y-117169028D01*
X154543910Y-117170703D01*
X154551836Y-117170454D01*
X154551837Y-117170454D01*
X154611987Y-117168563D01*
X154615946Y-117168501D01*
X154643857Y-117168501D01*
X154647792Y-117168004D01*
X154647857Y-117167996D01*
X154659694Y-117167063D01*
X154691952Y-117166049D01*
X154695971Y-117165923D01*
X154703890Y-117165674D01*
X154723344Y-117160022D01*
X154742701Y-117156014D01*
X154754931Y-117154469D01*
X154754932Y-117154469D01*
X154762798Y-117153475D01*
X154770169Y-117150556D01*
X154770171Y-117150556D01*
X154803913Y-117137197D01*
X154815143Y-117133352D01*
X154849984Y-117123230D01*
X154849985Y-117123230D01*
X154857594Y-117121019D01*
X154864413Y-117116986D01*
X154864418Y-117116984D01*
X154875029Y-117110708D01*
X154892777Y-117102013D01*
X154911618Y-117094553D01*
X154947388Y-117068565D01*
X154957308Y-117062049D01*
X154988536Y-117043581D01*
X154988539Y-117043579D01*
X154995363Y-117039543D01*
X155009684Y-117025222D01*
X155024718Y-117012381D01*
X155026432Y-117011136D01*
X155041108Y-117000473D01*
X155069299Y-116966396D01*
X155077289Y-116957617D01*
X155607248Y-116427658D01*
X155615538Y-116420114D01*
X155622019Y-116416001D01*
X155642027Y-116394695D01*
X155668659Y-116366334D01*
X155671414Y-116363492D01*
X155691135Y-116343771D01*
X155693613Y-116340576D01*
X155701319Y-116331554D01*
X155726159Y-116305102D01*
X155731587Y-116299322D01*
X155739137Y-116285588D01*
X155741347Y-116281569D01*
X155752200Y-116265046D01*
X155759754Y-116255307D01*
X155764614Y-116249042D01*
X155782177Y-116208458D01*
X155787384Y-116197828D01*
X155808696Y-116159061D01*
X155810667Y-116151384D01*
X155810669Y-116151379D01*
X155813733Y-116139443D01*
X155820139Y-116120731D01*
X155820679Y-116119485D01*
X155828182Y-116102146D01*
X155829653Y-116092862D01*
X155835098Y-116058482D01*
X155837505Y-116046861D01*
X155846529Y-116011712D01*
X155846529Y-116011711D01*
X155848501Y-116004031D01*
X155848501Y-115983770D01*
X155850052Y-115964059D01*
X155851980Y-115951886D01*
X155853220Y-115944058D01*
X155849060Y-115900047D01*
X155848501Y-115888190D01*
X155848501Y-96293764D01*
X155849028Y-96282580D01*
X155850702Y-96275092D01*
X155848563Y-96207033D01*
X155848501Y-96203076D01*
X155848501Y-96175145D01*
X155847995Y-96171139D01*
X155847062Y-96159293D01*
X155845923Y-96123038D01*
X155845674Y-96115111D01*
X155840023Y-96095659D01*
X155836015Y-96076307D01*
X155834468Y-96064064D01*
X155833475Y-96056204D01*
X155830557Y-96048833D01*
X155817201Y-96015098D01*
X155813356Y-96003871D01*
X155812722Y-96001688D01*
X155801019Y-95961408D01*
X155796985Y-95954586D01*
X155796982Y-95954580D01*
X155790707Y-95943969D01*
X155782011Y-95926219D01*
X155777473Y-95914757D01*
X155777470Y-95914752D01*
X155774553Y-95907384D01*
X155748574Y-95871626D01*
X155742058Y-95861708D01*
X155723576Y-95830458D01*
X155719543Y-95823638D01*
X155705219Y-95809314D01*
X155692377Y-95794279D01*
X155680473Y-95777894D01*
X155646407Y-95749712D01*
X155637628Y-95741723D01*
X155391218Y-95495313D01*
X155357192Y-95433001D01*
X155359755Y-95369589D01*
X155370865Y-95333022D01*
X155372370Y-95328069D01*
X155401529Y-95106590D01*
X155401802Y-95095405D01*
X155403074Y-95043365D01*
X155403074Y-95043361D01*
X155403156Y-95040000D01*
X155384852Y-94817361D01*
X155330431Y-94600702D01*
X155280010Y-94484742D01*
X155271190Y-94414297D01*
X155301857Y-94350265D01*
X155362273Y-94312977D01*
X155395560Y-94308501D01*
X157386232Y-94308501D01*
X157397415Y-94309028D01*
X157404908Y-94310703D01*
X157412834Y-94310454D01*
X157412835Y-94310454D01*
X157472985Y-94308563D01*
X157476944Y-94308501D01*
X157504855Y-94308501D01*
X157508790Y-94308004D01*
X157508855Y-94307996D01*
X157520692Y-94307063D01*
X157552950Y-94306049D01*
X157556969Y-94305923D01*
X157564888Y-94305674D01*
X157584342Y-94300022D01*
X157603699Y-94296014D01*
X157615929Y-94294469D01*
X157615930Y-94294469D01*
X157623796Y-94293475D01*
X157631167Y-94290556D01*
X157631169Y-94290556D01*
X157664911Y-94277197D01*
X157676141Y-94273352D01*
X157710982Y-94263230D01*
X157710983Y-94263230D01*
X157718592Y-94261019D01*
X157725411Y-94256986D01*
X157725416Y-94256984D01*
X157736027Y-94250708D01*
X157753775Y-94242013D01*
X157772616Y-94234553D01*
X157808386Y-94208565D01*
X157818306Y-94202049D01*
X157849534Y-94183581D01*
X157849537Y-94183579D01*
X157856361Y-94179543D01*
X157870682Y-94165222D01*
X157885716Y-94152381D01*
X157895693Y-94145132D01*
X157902106Y-94140473D01*
X157930297Y-94106396D01*
X157938287Y-94097617D01*
X159780905Y-92254999D01*
X159843217Y-92220973D01*
X159914032Y-92226038D01*
X159959095Y-92254999D01*
X164389595Y-96685499D01*
X164423621Y-96747811D01*
X164426500Y-96774594D01*
X164426500Y-106501692D01*
X164406498Y-106569813D01*
X164358683Y-106613453D01*
X164333607Y-106626507D01*
X164329474Y-106629610D01*
X164329471Y-106629612D01*
X164173298Y-106746870D01*
X164154965Y-106760635D01*
X164000629Y-106922138D01*
X163874743Y-107106680D01*
X163848435Y-107163357D01*
X163783038Y-107304243D01*
X163780688Y-107309305D01*
X163720989Y-107524570D01*
X163697251Y-107746695D01*
X163697548Y-107751848D01*
X163697548Y-107751851D01*
X163699944Y-107793402D01*
X163710110Y-107969715D01*
X163711247Y-107974761D01*
X163711248Y-107974767D01*
X163735304Y-108081508D01*
X163759222Y-108187639D01*
X163799517Y-108286874D01*
X163840050Y-108386695D01*
X163843266Y-108394616D01*
X163872350Y-108442077D01*
X163947400Y-108564547D01*
X163959987Y-108585088D01*
X164106250Y-108753938D01*
X164278126Y-108896632D01*
X164333454Y-108928963D01*
X164351445Y-108939476D01*
X164400169Y-108991114D01*
X164413240Y-109060897D01*
X164386509Y-109126669D01*
X164346055Y-109160027D01*
X164333607Y-109166507D01*
X164329474Y-109169610D01*
X164329471Y-109169612D01*
X164173298Y-109286870D01*
X164154965Y-109300635D01*
X164000629Y-109462138D01*
X163874743Y-109646680D01*
X163827716Y-109747992D01*
X163809238Y-109787800D01*
X163780688Y-109849305D01*
X163720989Y-110064570D01*
X163697251Y-110286695D01*
X163697548Y-110291848D01*
X163697548Y-110291851D01*
X163704057Y-110404743D01*
X163710110Y-110509715D01*
X163711247Y-110514761D01*
X163711248Y-110514767D01*
X163743453Y-110657668D01*
X163738917Y-110728520D01*
X163709631Y-110774464D01*
X163492746Y-110991349D01*
X163484460Y-110998889D01*
X163477981Y-111003001D01*
X163472556Y-111008778D01*
X163431356Y-111052652D01*
X163428601Y-111055494D01*
X163408864Y-111075231D01*
X163406384Y-111078428D01*
X163398681Y-111087448D01*
X163368413Y-111119680D01*
X163364594Y-111126626D01*
X163364592Y-111126629D01*
X163358651Y-111137435D01*
X163347800Y-111153954D01*
X163335385Y-111169960D01*
X163332240Y-111177229D01*
X163332237Y-111177233D01*
X163317825Y-111210538D01*
X163312608Y-111221188D01*
X163291304Y-111259941D01*
X163289333Y-111267616D01*
X163289333Y-111267617D01*
X163286266Y-111279563D01*
X163279862Y-111298267D01*
X163271818Y-111316856D01*
X163270579Y-111324679D01*
X163270576Y-111324689D01*
X163264900Y-111360525D01*
X163262494Y-111372145D01*
X163253471Y-111407290D01*
X163251499Y-111414971D01*
X163251499Y-111435225D01*
X163249948Y-111454935D01*
X163246779Y-111474944D01*
X163247525Y-111482836D01*
X163250940Y-111518962D01*
X163251499Y-111530820D01*
X163251499Y-115885234D01*
X163250972Y-115896417D01*
X163249297Y-115903910D01*
X163249546Y-115911836D01*
X163249546Y-115911837D01*
X163251437Y-115971987D01*
X163251499Y-115975946D01*
X163251499Y-116003857D01*
X163251996Y-116007791D01*
X163251996Y-116007792D01*
X163252004Y-116007857D01*
X163252937Y-116019694D01*
X163254326Y-116063890D01*
X163256872Y-116072652D01*
X163259977Y-116083340D01*
X163263986Y-116102701D01*
X163266525Y-116122798D01*
X163269444Y-116130169D01*
X163269444Y-116130171D01*
X163282803Y-116163913D01*
X163286648Y-116175143D01*
X163296179Y-116207949D01*
X163298981Y-116217594D01*
X163303014Y-116224413D01*
X163303016Y-116224418D01*
X163309292Y-116235029D01*
X163317987Y-116252777D01*
X163325447Y-116271618D01*
X163330109Y-116278034D01*
X163330109Y-116278035D01*
X163351435Y-116307388D01*
X163357951Y-116317308D01*
X163375259Y-116346573D01*
X163380457Y-116355363D01*
X163394778Y-116369684D01*
X163407618Y-116384717D01*
X163419527Y-116401108D01*
X163444068Y-116421410D01*
X163453604Y-116429299D01*
X163462383Y-116437289D01*
X163992342Y-116967248D01*
X163999886Y-116975538D01*
X164003999Y-116982019D01*
X164009776Y-116987444D01*
X164053666Y-117028659D01*
X164056508Y-117031414D01*
X164076229Y-117051135D01*
X164079424Y-117053613D01*
X164088446Y-117061319D01*
X164120678Y-117091587D01*
X164127627Y-117095407D01*
X164138431Y-117101347D01*
X164154955Y-117112200D01*
X164170958Y-117124614D01*
X164211542Y-117142177D01*
X164222172Y-117147384D01*
X164260939Y-117168696D01*
X164268616Y-117170667D01*
X164268621Y-117170669D01*
X164280557Y-117173733D01*
X164299265Y-117180138D01*
X164317854Y-117188182D01*
X164325679Y-117189421D01*
X164325681Y-117189422D01*
X164361518Y-117195098D01*
X164373139Y-117197505D01*
X164404958Y-117205674D01*
X164415969Y-117208501D01*
X164436230Y-117208501D01*
X164455939Y-117210052D01*
X164475942Y-117213220D01*
X164483834Y-117212474D01*
X164489061Y-117211980D01*
X164519953Y-117209060D01*
X164531810Y-117208501D01*
X168359422Y-117208501D01*
X168370605Y-117209028D01*
X168378098Y-117210703D01*
X168386024Y-117210454D01*
X168386025Y-117210454D01*
X168446175Y-117208563D01*
X168450134Y-117208501D01*
X168478045Y-117208501D01*
X168481980Y-117208004D01*
X168482045Y-117207996D01*
X168493882Y-117207063D01*
X168526140Y-117206049D01*
X168530159Y-117205923D01*
X168538078Y-117205674D01*
X168557532Y-117200022D01*
X168576889Y-117196014D01*
X168589119Y-117194469D01*
X168589120Y-117194469D01*
X168596986Y-117193475D01*
X168604357Y-117190556D01*
X168604359Y-117190556D01*
X168638101Y-117177197D01*
X168649331Y-117173352D01*
X168684172Y-117163230D01*
X168684173Y-117163230D01*
X168691782Y-117161019D01*
X168698601Y-117156986D01*
X168698606Y-117156984D01*
X168709217Y-117150708D01*
X168726965Y-117142013D01*
X168745806Y-117134553D01*
X168759126Y-117124876D01*
X168781576Y-117108565D01*
X168791496Y-117102049D01*
X168822724Y-117083581D01*
X168822727Y-117083579D01*
X168829551Y-117079543D01*
X168843872Y-117065222D01*
X168858906Y-117052381D01*
X168860621Y-117051135D01*
X168875296Y-117040473D01*
X168903487Y-117006396D01*
X168911477Y-116997617D01*
X169617258Y-116291836D01*
X169625548Y-116284292D01*
X169632029Y-116280179D01*
X169678670Y-116230511D01*
X169681424Y-116227670D01*
X169701145Y-116207949D01*
X169703623Y-116204754D01*
X169711329Y-116195732D01*
X169736169Y-116169280D01*
X169741597Y-116163500D01*
X169751357Y-116145747D01*
X169762210Y-116129224D01*
X169769764Y-116119485D01*
X169774624Y-116113220D01*
X169792187Y-116072636D01*
X169797394Y-116062006D01*
X169818706Y-116023239D01*
X169820677Y-116015562D01*
X169820679Y-116015557D01*
X169823743Y-116003621D01*
X169830149Y-115984909D01*
X169835045Y-115973596D01*
X169838192Y-115966324D01*
X169845108Y-115922660D01*
X169847515Y-115911039D01*
X169856539Y-115875890D01*
X169856539Y-115875889D01*
X169858511Y-115868209D01*
X169858511Y-115847948D01*
X169860062Y-115828237D01*
X169861990Y-115816064D01*
X169863230Y-115808236D01*
X169859070Y-115764225D01*
X169858511Y-115752368D01*
X169858511Y-86044777D01*
X169859038Y-86033594D01*
X169860713Y-86026101D01*
X169858573Y-85958010D01*
X169858511Y-85954053D01*
X169858511Y-85926153D01*
X169858007Y-85922162D01*
X169857074Y-85910320D01*
X169855934Y-85874045D01*
X169855685Y-85866120D01*
X169853473Y-85858506D01*
X169853472Y-85858501D01*
X169850034Y-85846668D01*
X169846023Y-85827304D01*
X169844478Y-85815073D01*
X169843485Y-85807212D01*
X169840568Y-85799845D01*
X169840567Y-85799840D01*
X169827209Y-85766101D01*
X169823365Y-85754874D01*
X169819561Y-85741782D01*
X169811029Y-85712416D01*
X169800718Y-85694981D01*
X169792023Y-85677233D01*
X169784563Y-85658392D01*
X169764876Y-85631294D01*
X169758575Y-85622622D01*
X169752059Y-85612702D01*
X169733591Y-85581474D01*
X169733589Y-85581471D01*
X169729553Y-85574647D01*
X169715232Y-85560326D01*
X169702391Y-85545292D01*
X169695142Y-85535315D01*
X169690483Y-85528902D01*
X169656406Y-85500711D01*
X169647627Y-85492721D01*
X168667653Y-84512746D01*
X168660113Y-84504460D01*
X168656001Y-84497981D01*
X168606349Y-84451355D01*
X168603508Y-84448601D01*
X168583771Y-84428864D01*
X168580574Y-84426384D01*
X168571552Y-84418679D01*
X168558117Y-84406063D01*
X168539322Y-84388413D01*
X168532376Y-84384594D01*
X168532373Y-84384592D01*
X168521567Y-84378651D01*
X168505048Y-84367800D01*
X168504584Y-84367440D01*
X168489042Y-84355385D01*
X168481773Y-84352240D01*
X168481769Y-84352237D01*
X168448464Y-84337825D01*
X168437814Y-84332608D01*
X168399061Y-84311304D01*
X168379438Y-84306266D01*
X168360735Y-84299862D01*
X168349421Y-84294966D01*
X168349420Y-84294966D01*
X168342146Y-84291818D01*
X168334323Y-84290579D01*
X168334313Y-84290576D01*
X168298477Y-84284900D01*
X168286857Y-84282494D01*
X168251712Y-84273471D01*
X168251711Y-84273471D01*
X168244031Y-84271499D01*
X168223777Y-84271499D01*
X168204066Y-84269948D01*
X168201535Y-84269547D01*
X168184058Y-84266779D01*
X168176166Y-84267525D01*
X168140040Y-84270940D01*
X168128182Y-84271499D01*
X167114762Y-84271499D01*
X167103578Y-84270972D01*
X167096090Y-84269298D01*
X167088167Y-84269547D01*
X167028032Y-84271437D01*
X167024074Y-84271499D01*
X166996143Y-84271499D01*
X166992228Y-84271994D01*
X166992224Y-84271994D01*
X166992166Y-84272002D01*
X166992137Y-84272005D01*
X166980295Y-84272938D01*
X166936109Y-84274326D01*
X166918743Y-84279371D01*
X166916657Y-84279977D01*
X166897305Y-84283985D01*
X166885067Y-84285531D01*
X166885065Y-84285532D01*
X166877202Y-84286525D01*
X166836085Y-84302805D01*
X166824884Y-84306640D01*
X166782405Y-84318981D01*
X166775586Y-84323014D01*
X166775581Y-84323016D01*
X166764970Y-84329292D01*
X166747220Y-84337989D01*
X166728382Y-84345447D01*
X166721966Y-84350108D01*
X166721965Y-84350109D01*
X166692624Y-84371427D01*
X166682700Y-84377946D01*
X166651459Y-84396421D01*
X166651454Y-84396425D01*
X166644636Y-84400457D01*
X166630312Y-84414781D01*
X166615280Y-84427620D01*
X166598892Y-84439527D01*
X166570711Y-84473592D01*
X166562721Y-84482372D01*
X166053475Y-84991618D01*
X165991163Y-85025644D01*
X165920348Y-85020579D01*
X165886290Y-85001405D01*
X165814359Y-84944598D01*
X165618789Y-84836638D01*
X165613920Y-84834914D01*
X165613916Y-84834912D01*
X165413087Y-84763795D01*
X165413083Y-84763794D01*
X165408212Y-84762069D01*
X165403119Y-84761162D01*
X165403116Y-84761161D01*
X165193373Y-84723800D01*
X165193367Y-84723799D01*
X165188284Y-84722894D01*
X165114452Y-84721992D01*
X164970081Y-84720228D01*
X164970079Y-84720228D01*
X164964911Y-84720165D01*
X164744091Y-84753955D01*
X164531756Y-84823357D01*
X164333607Y-84926507D01*
X164329474Y-84929610D01*
X164329471Y-84929612D01*
X164159100Y-85057530D01*
X164154965Y-85060635D01*
X164000629Y-85222138D01*
X163874743Y-85406680D01*
X163872564Y-85411375D01*
X163787762Y-85594066D01*
X163780688Y-85609305D01*
X163720989Y-85824570D01*
X163697251Y-86046695D01*
X163710110Y-86269715D01*
X163711247Y-86274761D01*
X163711248Y-86274767D01*
X163743453Y-86417668D01*
X163738917Y-86488520D01*
X163709631Y-86534464D01*
X159472815Y-90771280D01*
X159454547Y-90786395D01*
X159447729Y-90791028D01*
X159442485Y-90796976D01*
X159442484Y-90796977D01*
X159410589Y-90833155D01*
X159405170Y-90838925D01*
X159393865Y-90850230D01*
X159393862Y-90850234D01*
X157239499Y-93004596D01*
X157177187Y-93038622D01*
X157150404Y-93041501D01*
X155465340Y-93041501D01*
X155397219Y-93021499D01*
X155350726Y-92967843D01*
X155340622Y-92897569D01*
X155344780Y-92878880D01*
X155372370Y-92788069D01*
X155401529Y-92566590D01*
X155403156Y-92500000D01*
X155384852Y-92277361D01*
X155330431Y-92060702D01*
X155241354Y-91855840D01*
X155182762Y-91765271D01*
X155122822Y-91672617D01*
X155122820Y-91672614D01*
X155120014Y-91668277D01*
X154969670Y-91503051D01*
X154965619Y-91499852D01*
X154965615Y-91499848D01*
X154839186Y-91400000D01*
X155686496Y-91400000D01*
X155706458Y-91589928D01*
X155765473Y-91771556D01*
X155860960Y-91936944D01*
X155988747Y-92078866D01*
X156143248Y-92191118D01*
X156149276Y-92193802D01*
X156149278Y-92193803D01*
X156311681Y-92266109D01*
X156317712Y-92268794D01*
X156411113Y-92288647D01*
X156498056Y-92307128D01*
X156498061Y-92307128D01*
X156504513Y-92308500D01*
X156695487Y-92308500D01*
X156701939Y-92307128D01*
X156701944Y-92307128D01*
X156788887Y-92288647D01*
X156882288Y-92268794D01*
X156888319Y-92266109D01*
X157050722Y-92193803D01*
X157050724Y-92193802D01*
X157056752Y-92191118D01*
X157211253Y-92078866D01*
X157339040Y-91936944D01*
X157434527Y-91771556D01*
X157493542Y-91589928D01*
X157513504Y-91400000D01*
X157497957Y-91252081D01*
X157494232Y-91216635D01*
X157494232Y-91216633D01*
X157493542Y-91210072D01*
X157434527Y-91028444D01*
X157339040Y-90863056D01*
X157334621Y-90858148D01*
X157332564Y-90855317D01*
X157308705Y-90788449D01*
X157308500Y-90781256D01*
X157308500Y-88818744D01*
X157328502Y-88750623D01*
X157332564Y-88744683D01*
X157334621Y-88741852D01*
X157339040Y-88736944D01*
X157400610Y-88630302D01*
X157431223Y-88577279D01*
X157431224Y-88577278D01*
X157434527Y-88571556D01*
X157493542Y-88389928D01*
X157503317Y-88296929D01*
X157512814Y-88206565D01*
X157513504Y-88200000D01*
X157512243Y-88188000D01*
X157494232Y-88016635D01*
X157494232Y-88016633D01*
X157493542Y-88010072D01*
X157434527Y-87828444D01*
X157339040Y-87663056D01*
X157211253Y-87521134D01*
X157056752Y-87408882D01*
X157050724Y-87406198D01*
X157050722Y-87406197D01*
X156888319Y-87333891D01*
X156888318Y-87333891D01*
X156882288Y-87331206D01*
X156788887Y-87311353D01*
X156701944Y-87292872D01*
X156701939Y-87292872D01*
X156695487Y-87291500D01*
X156504513Y-87291500D01*
X156498061Y-87292872D01*
X156498056Y-87292872D01*
X156411113Y-87311353D01*
X156317712Y-87331206D01*
X156311682Y-87333891D01*
X156311681Y-87333891D01*
X156149278Y-87406197D01*
X156149276Y-87406198D01*
X156143248Y-87408882D01*
X155988747Y-87521134D01*
X155860960Y-87663056D01*
X155765473Y-87828444D01*
X155706458Y-88010072D01*
X155705768Y-88016633D01*
X155705768Y-88016635D01*
X155687757Y-88188000D01*
X155686496Y-88200000D01*
X155687186Y-88206565D01*
X155696684Y-88296929D01*
X155706458Y-88389928D01*
X155765473Y-88571556D01*
X155768776Y-88577278D01*
X155768777Y-88577279D01*
X155799390Y-88630302D01*
X155860960Y-88736944D01*
X155865379Y-88741852D01*
X155867436Y-88744683D01*
X155891295Y-88811551D01*
X155891500Y-88818744D01*
X155891500Y-90781256D01*
X155871498Y-90849377D01*
X155867436Y-90855317D01*
X155865379Y-90858148D01*
X155860960Y-90863056D01*
X155765473Y-91028444D01*
X155706458Y-91210072D01*
X155705768Y-91216633D01*
X155705768Y-91216635D01*
X155702043Y-91252081D01*
X155686496Y-91400000D01*
X154839186Y-91400000D01*
X154798414Y-91367800D01*
X154798410Y-91367798D01*
X154794359Y-91364598D01*
X154784391Y-91359095D01*
X154679167Y-91301009D01*
X154598789Y-91256638D01*
X154593920Y-91254914D01*
X154593916Y-91254912D01*
X154393087Y-91183795D01*
X154393083Y-91183794D01*
X154388212Y-91182069D01*
X154383119Y-91181162D01*
X154383116Y-91181161D01*
X154173373Y-91143800D01*
X154173367Y-91143799D01*
X154168284Y-91142894D01*
X154094452Y-91141992D01*
X153950081Y-91140228D01*
X153950079Y-91140228D01*
X153944911Y-91140165D01*
X153724091Y-91173955D01*
X153711532Y-91178060D01*
X153640568Y-91180210D01*
X153583294Y-91147389D01*
X148268641Y-85832736D01*
X148261101Y-85824450D01*
X148256989Y-85817971D01*
X148207337Y-85771345D01*
X148204496Y-85768591D01*
X148184759Y-85748854D01*
X148181562Y-85746374D01*
X148172540Y-85738669D01*
X148159111Y-85726058D01*
X148140310Y-85708403D01*
X148133364Y-85704584D01*
X148133361Y-85704582D01*
X148122555Y-85698641D01*
X148106036Y-85687790D01*
X148104303Y-85686446D01*
X148090030Y-85675375D01*
X148082761Y-85672230D01*
X148082757Y-85672227D01*
X148049452Y-85657815D01*
X148038802Y-85652598D01*
X148000049Y-85631294D01*
X147980426Y-85626256D01*
X147961723Y-85619852D01*
X147950409Y-85614956D01*
X147950408Y-85614956D01*
X147943134Y-85611808D01*
X147935311Y-85610569D01*
X147935301Y-85610566D01*
X147899465Y-85604890D01*
X147887845Y-85602484D01*
X147852700Y-85593461D01*
X147852699Y-85593461D01*
X147845019Y-85591489D01*
X147824765Y-85591489D01*
X147805054Y-85589938D01*
X147792875Y-85588009D01*
X147785046Y-85586769D01*
X147755775Y-85589536D01*
X147741028Y-85590930D01*
X147729170Y-85591489D01*
X117428776Y-85591489D01*
X117417593Y-85590962D01*
X117410100Y-85589287D01*
X117402174Y-85589536D01*
X117402173Y-85589536D01*
X117342010Y-85591427D01*
X117338052Y-85591489D01*
X117310153Y-85591489D01*
X117306163Y-85591993D01*
X117294329Y-85592925D01*
X117250120Y-85594315D01*
X117242506Y-85596527D01*
X117242501Y-85596528D01*
X117230668Y-85599966D01*
X117211305Y-85603977D01*
X117191212Y-85606515D01*
X117183845Y-85609432D01*
X117183840Y-85609433D01*
X117150101Y-85622791D01*
X117138874Y-85626635D01*
X117096416Y-85638971D01*
X117089590Y-85643008D01*
X117078981Y-85649282D01*
X117061233Y-85657977D01*
X117042392Y-85665437D01*
X117035976Y-85670099D01*
X117035975Y-85670099D01*
X117006622Y-85691425D01*
X116996702Y-85697941D01*
X116965474Y-85716409D01*
X116965471Y-85716411D01*
X116958647Y-85720447D01*
X116944326Y-85734768D01*
X116929293Y-85747608D01*
X116912902Y-85759517D01*
X116886525Y-85791402D01*
X116884721Y-85793582D01*
X116876731Y-85802363D01*
X116232741Y-86446352D01*
X116224462Y-86453886D01*
X116217981Y-86457999D01*
X116192267Y-86485382D01*
X116171356Y-86507650D01*
X116168601Y-86510492D01*
X116148864Y-86530229D01*
X116146384Y-86533426D01*
X116138681Y-86542446D01*
X116108413Y-86574678D01*
X116104594Y-86581624D01*
X116104592Y-86581627D01*
X116098651Y-86592433D01*
X116087800Y-86608952D01*
X116075385Y-86624958D01*
X116072240Y-86632227D01*
X116072237Y-86632231D01*
X116057825Y-86665536D01*
X116052608Y-86676186D01*
X116031304Y-86714939D01*
X116029333Y-86722614D01*
X116029333Y-86722615D01*
X116026266Y-86734561D01*
X116019862Y-86753265D01*
X116011818Y-86771854D01*
X116010579Y-86779677D01*
X116010576Y-86779687D01*
X116004900Y-86815523D01*
X116002494Y-86827143D01*
X115991499Y-86869969D01*
X115991499Y-86890223D01*
X115989948Y-86909933D01*
X115986779Y-86929942D01*
X111617051Y-86929942D01*
X111688054Y-86903324D01*
X111703649Y-86894786D01*
X111805724Y-86818285D01*
X111818285Y-86805724D01*
X111894786Y-86703649D01*
X111903324Y-86688054D01*
X111948478Y-86567606D01*
X111952105Y-86552351D01*
X111957631Y-86501486D01*
X111958000Y-86494672D01*
X111958000Y-85522115D01*
X111953525Y-85506876D01*
X111952135Y-85505671D01*
X111944452Y-85504000D01*
X110522115Y-85504000D01*
X110506876Y-85508475D01*
X110505671Y-85509865D01*
X110504000Y-85517548D01*
X110504000Y-86939884D01*
X109996000Y-86939884D01*
X109996000Y-85522115D01*
X109991525Y-85506876D01*
X109990135Y-85505671D01*
X109982452Y-85504000D01*
X108560116Y-85504000D01*
X108544877Y-85508475D01*
X108543672Y-85509865D01*
X108542001Y-85517548D01*
X108542001Y-86494669D01*
X103835942Y-86494669D01*
X103836724Y-81705151D01*
X108537296Y-81705151D01*
X108549480Y-81958798D01*
X108599021Y-82207857D01*
X108600600Y-82212255D01*
X108600602Y-82212262D01*
X108645022Y-82335980D01*
X108684831Y-82446858D01*
X108805025Y-82670551D01*
X108807820Y-82674294D01*
X108807822Y-82674297D01*
X108954171Y-82870282D01*
X108954176Y-82870288D01*
X108956963Y-82874020D01*
X108960272Y-82877300D01*
X108960277Y-82877306D01*
X109058859Y-82975031D01*
X109137307Y-83052797D01*
X109141069Y-83055555D01*
X109141072Y-83055558D01*
X109246764Y-83133054D01*
X109342094Y-83202953D01*
X109346229Y-83205129D01*
X109346233Y-83205131D01*
X109535089Y-83304493D01*
X109586061Y-83353912D01*
X109602224Y-83423045D01*
X109578445Y-83489941D01*
X109522274Y-83533361D01*
X109476421Y-83542001D01*
X109005331Y-83542001D01*
X108998510Y-83542371D01*
X108947648Y-83547895D01*
X108932396Y-83551521D01*
X108811946Y-83596676D01*
X108796351Y-83605214D01*
X108694276Y-83681715D01*
X108681715Y-83694276D01*
X108605214Y-83796351D01*
X108596676Y-83811946D01*
X108551522Y-83932394D01*
X108547895Y-83947649D01*
X108542369Y-83998514D01*
X108542000Y-84005328D01*
X108542000Y-84977885D01*
X108546475Y-84993124D01*
X108547865Y-84994329D01*
X108555548Y-84996000D01*
X111939884Y-84996000D01*
X111955123Y-84991525D01*
X111956328Y-84990135D01*
X111957999Y-84982452D01*
X111957999Y-84005331D01*
X111957629Y-83998510D01*
X111952105Y-83947648D01*
X111948479Y-83932396D01*
X111903324Y-83811946D01*
X111894786Y-83796351D01*
X111818285Y-83694276D01*
X111805724Y-83681715D01*
X111703649Y-83605214D01*
X111688054Y-83596676D01*
X111567606Y-83551522D01*
X111552351Y-83547895D01*
X111501486Y-83542369D01*
X111494672Y-83542000D01*
X111019799Y-83542000D01*
X110951678Y-83521998D01*
X110905185Y-83468342D01*
X110895081Y-83398068D01*
X110924575Y-83333488D01*
X110970061Y-83300233D01*
X111041110Y-83269708D01*
X111045090Y-83267245D01*
X111045094Y-83267243D01*
X111253064Y-83138547D01*
X111253066Y-83138545D01*
X111257047Y-83136082D01*
X111355428Y-83052797D01*
X111447289Y-82975031D01*
X111447291Y-82975029D01*
X111450862Y-82972006D01*
X111618295Y-82781084D01*
X111755669Y-82567512D01*
X111859967Y-82335980D01*
X111928896Y-82091575D01*
X111960943Y-81839667D01*
X111963291Y-81750000D01*
X111944472Y-81496759D01*
X111888428Y-81249082D01*
X111796391Y-81012409D01*
X111775866Y-80976498D01*
X111672702Y-80795997D01*
X111672700Y-80795995D01*
X111670383Y-80791940D01*
X111513171Y-80592517D01*
X111328209Y-80418523D01*
X111284483Y-80388189D01*
X111123393Y-80276437D01*
X111123390Y-80276435D01*
X111119561Y-80273779D01*
X111115384Y-80271719D01*
X111115377Y-80271715D01*
X110895996Y-80163528D01*
X110895992Y-80163527D01*
X110891810Y-80161464D01*
X110649960Y-80084047D01*
X110645355Y-80083297D01*
X110403935Y-80043980D01*
X110403934Y-80043980D01*
X110399323Y-80043229D01*
X110272365Y-80041567D01*
X110150083Y-80039966D01*
X110150080Y-80039966D01*
X110145406Y-80039905D01*
X109893787Y-80074149D01*
X109649993Y-80145208D01*
X109419380Y-80251522D01*
X109415471Y-80254085D01*
X109210928Y-80388189D01*
X109210923Y-80388193D01*
X109207015Y-80390755D01*
X109017562Y-80559848D01*
X108855183Y-80755087D01*
X108723447Y-80972182D01*
X108625246Y-81206365D01*
X108562738Y-81452490D01*
X108537296Y-81705151D01*
X103836724Y-81705151D01*
X103837984Y-73988434D01*
X106086661Y-73988434D01*
X106104792Y-74346340D01*
X106105329Y-74349695D01*
X106105330Y-74349701D01*
X106110316Y-74380828D01*
X106161470Y-74700195D01*
X106256033Y-75045859D01*
X106387374Y-75379288D01*
X106553957Y-75696582D01*
X106555858Y-75699411D01*
X106555864Y-75699421D01*
X106739569Y-75972800D01*
X106753834Y-75994029D01*
X106984665Y-76268150D01*
X107243751Y-76515738D01*
X107528061Y-76733897D01*
X107560056Y-76753350D01*
X107831355Y-76918303D01*
X107831360Y-76918306D01*
X107834270Y-76920075D01*
X107837358Y-76921521D01*
X107837357Y-76921521D01*
X108155710Y-77070649D01*
X108155720Y-77070653D01*
X108158794Y-77072093D01*
X108162012Y-77073195D01*
X108162015Y-77073196D01*
X108494615Y-77187071D01*
X108494623Y-77187073D01*
X108497838Y-77188174D01*
X108847435Y-77266959D01*
X108899728Y-77272917D01*
X109200114Y-77307142D01*
X109200122Y-77307142D01*
X109203497Y-77307527D01*
X109206901Y-77307545D01*
X109206904Y-77307545D01*
X109401227Y-77308562D01*
X109561857Y-77309403D01*
X109565243Y-77309053D01*
X109565245Y-77309053D01*
X109914932Y-77272917D01*
X109914941Y-77272916D01*
X109918324Y-77272566D01*
X109921657Y-77271852D01*
X109921660Y-77271851D01*
X110094186Y-77234864D01*
X110268727Y-77197446D01*
X110608968Y-77084922D01*
X110935066Y-76936311D01*
X111029052Y-76880506D01*
X111240262Y-76755099D01*
X111240267Y-76755096D01*
X111243207Y-76753350D01*
X111529786Y-76538180D01*
X111791451Y-76293319D01*
X112025140Y-76021630D01*
X112131750Y-75866512D01*
X112226190Y-75729101D01*
X112226195Y-75729094D01*
X112228120Y-75726292D01*
X112229732Y-75723298D01*
X112229737Y-75723290D01*
X112396395Y-75413772D01*
X112398017Y-75410760D01*
X112532842Y-75078724D01*
X112543142Y-75042568D01*
X112563527Y-74971006D01*
X112631020Y-74734070D01*
X112691401Y-74380828D01*
X112693511Y-74346340D01*
X112713168Y-74024928D01*
X112713278Y-74023131D01*
X112713359Y-74000000D01*
X112712733Y-73988434D01*
X166086661Y-73988434D01*
X166104792Y-74346340D01*
X166105329Y-74349695D01*
X166105330Y-74349701D01*
X166110316Y-74380828D01*
X166161470Y-74700195D01*
X166256033Y-75045859D01*
X166387374Y-75379288D01*
X166553957Y-75696582D01*
X166555858Y-75699411D01*
X166555864Y-75699421D01*
X166739569Y-75972800D01*
X166753834Y-75994029D01*
X166984665Y-76268150D01*
X167243751Y-76515738D01*
X167528061Y-76733897D01*
X167560056Y-76753350D01*
X167831355Y-76918303D01*
X167831360Y-76918306D01*
X167834270Y-76920075D01*
X167837358Y-76921521D01*
X167837357Y-76921521D01*
X168155710Y-77070649D01*
X168155720Y-77070653D01*
X168158794Y-77072093D01*
X168162012Y-77073195D01*
X168162015Y-77073196D01*
X168494615Y-77187071D01*
X168494623Y-77187073D01*
X168497838Y-77188174D01*
X168847435Y-77266959D01*
X168899728Y-77272917D01*
X169200114Y-77307142D01*
X169200122Y-77307142D01*
X169203497Y-77307527D01*
X169206901Y-77307545D01*
X169206904Y-77307545D01*
X169401227Y-77308562D01*
X169561857Y-77309403D01*
X169565243Y-77309053D01*
X169565245Y-77309053D01*
X169914932Y-77272917D01*
X169914941Y-77272916D01*
X169918324Y-77272566D01*
X169921657Y-77271852D01*
X169921660Y-77271851D01*
X170094186Y-77234864D01*
X170268727Y-77197446D01*
X170608968Y-77084922D01*
X170935066Y-76936311D01*
X171029052Y-76880506D01*
X171240262Y-76755099D01*
X171240267Y-76755096D01*
X171243207Y-76753350D01*
X171529786Y-76538180D01*
X171791451Y-76293319D01*
X172025140Y-76021630D01*
X172131750Y-75866512D01*
X172226190Y-75729101D01*
X172226195Y-75729094D01*
X172228120Y-75726292D01*
X172229732Y-75723298D01*
X172229737Y-75723290D01*
X172396395Y-75413772D01*
X172398017Y-75410760D01*
X172532842Y-75078724D01*
X172543142Y-75042568D01*
X172563527Y-74971006D01*
X172631020Y-74734070D01*
X172691401Y-74380828D01*
X172693511Y-74346340D01*
X172713168Y-74024928D01*
X172713278Y-74023131D01*
X172713359Y-74000000D01*
X172693979Y-73642159D01*
X172636066Y-73288505D01*
X172540297Y-72943173D01*
X172537243Y-72935497D01*
X172409052Y-72613369D01*
X172407793Y-72610205D01*
X172377768Y-72553498D01*
X172241702Y-72296513D01*
X172241698Y-72296506D01*
X172240103Y-72293494D01*
X172039190Y-71996746D01*
X171807403Y-71723432D01*
X171547454Y-71476750D01*
X171262384Y-71259585D01*
X171259472Y-71257828D01*
X171259467Y-71257825D01*
X170958443Y-71076236D01*
X170958437Y-71076233D01*
X170955528Y-71074478D01*
X170660851Y-70937693D01*
X170633571Y-70925030D01*
X170633569Y-70925029D01*
X170630475Y-70923593D01*
X170460751Y-70866145D01*
X170294255Y-70809789D01*
X170294250Y-70809788D01*
X170291028Y-70808697D01*
X170092681Y-70764724D01*
X169944493Y-70731871D01*
X169944487Y-70731870D01*
X169941158Y-70731132D01*
X169937769Y-70730758D01*
X169937764Y-70730757D01*
X169588338Y-70692180D01*
X169588333Y-70692180D01*
X169584957Y-70691807D01*
X169581558Y-70691801D01*
X169581557Y-70691801D01*
X169412080Y-70691505D01*
X169226592Y-70691182D01*
X169113413Y-70703277D01*
X168873639Y-70728901D01*
X168873631Y-70728902D01*
X168870256Y-70729263D01*
X168520117Y-70805606D01*
X168180271Y-70919317D01*
X168177178Y-70920739D01*
X168177177Y-70920740D01*
X168086615Y-70962394D01*
X167854694Y-71069066D01*
X167547193Y-71253101D01*
X167544467Y-71255163D01*
X167544465Y-71255164D01*
X167538620Y-71259585D01*
X167261367Y-71469270D01*
X167000559Y-71715043D01*
X166767819Y-71987546D01*
X166765900Y-71990358D01*
X166765897Y-71990363D01*
X166672624Y-72127097D01*
X166565871Y-72283591D01*
X166397077Y-72599714D01*
X166263411Y-72932218D01*
X166262491Y-72935492D01*
X166262489Y-72935497D01*
X166260332Y-72943173D01*
X166166437Y-73277213D01*
X166107290Y-73630663D01*
X166086661Y-73988434D01*
X112712733Y-73988434D01*
X112693979Y-73642159D01*
X112636066Y-73288505D01*
X112540297Y-72943173D01*
X112537243Y-72935497D01*
X112409052Y-72613369D01*
X112407793Y-72610205D01*
X112377768Y-72553498D01*
X112241702Y-72296513D01*
X112241698Y-72296506D01*
X112240103Y-72293494D01*
X112039190Y-71996746D01*
X111807403Y-71723432D01*
X111547454Y-71476750D01*
X111262384Y-71259585D01*
X111259472Y-71257828D01*
X111259467Y-71257825D01*
X110958443Y-71076236D01*
X110958437Y-71076233D01*
X110955528Y-71074478D01*
X110660851Y-70937693D01*
X110633571Y-70925030D01*
X110633569Y-70925029D01*
X110630475Y-70923593D01*
X110460751Y-70866145D01*
X110294255Y-70809789D01*
X110294250Y-70809788D01*
X110291028Y-70808697D01*
X110092681Y-70764724D01*
X109944493Y-70731871D01*
X109944487Y-70731870D01*
X109941158Y-70731132D01*
X109937769Y-70730758D01*
X109937764Y-70730757D01*
X109588338Y-70692180D01*
X109588333Y-70692180D01*
X109584957Y-70691807D01*
X109581558Y-70691801D01*
X109581557Y-70691801D01*
X109412080Y-70691505D01*
X109226592Y-70691182D01*
X109113413Y-70703277D01*
X108873639Y-70728901D01*
X108873631Y-70728902D01*
X108870256Y-70729263D01*
X108520117Y-70805606D01*
X108180271Y-70919317D01*
X108177178Y-70920739D01*
X108177177Y-70920740D01*
X108086615Y-70962394D01*
X107854694Y-71069066D01*
X107547193Y-71253101D01*
X107544467Y-71255163D01*
X107544465Y-71255164D01*
X107538620Y-71259585D01*
X107261367Y-71469270D01*
X107000559Y-71715043D01*
X106767819Y-71987546D01*
X106765900Y-71990358D01*
X106765897Y-71990363D01*
X106672624Y-72127097D01*
X106565871Y-72283591D01*
X106397077Y-72599714D01*
X106263411Y-72932218D01*
X106262491Y-72935492D01*
X106262489Y-72935497D01*
X106260332Y-72943173D01*
X106166437Y-73277213D01*
X106107290Y-73630663D01*
X106086661Y-73988434D01*
X103837984Y-73988434D01*
X103838475Y-70983277D01*
X103840222Y-70962394D01*
X103842753Y-70947352D01*
X103842754Y-70947345D01*
X103843560Y-70942552D01*
X103843713Y-70930000D01*
X103843024Y-70925186D01*
X103843023Y-70925177D01*
X103841853Y-70917006D01*
X103840811Y-70891541D01*
X103856190Y-70637289D01*
X103858024Y-70622184D01*
X103909509Y-70341239D01*
X103913150Y-70326466D01*
X103998125Y-70053770D01*
X104003521Y-70039543D01*
X104061688Y-69910303D01*
X104120744Y-69779085D01*
X104127814Y-69765614D01*
X104275582Y-69521178D01*
X104284224Y-69508657D01*
X104292524Y-69498063D01*
X104460381Y-69283808D01*
X104470464Y-69272428D01*
X104672428Y-69070464D01*
X104683808Y-69060381D01*
X104908662Y-68884221D01*
X104921178Y-68875582D01*
X105165614Y-68727814D01*
X105179087Y-68720743D01*
X105439547Y-68603519D01*
X105453765Y-68598127D01*
X105726466Y-68513150D01*
X105741239Y-68509509D01*
X106022184Y-68458024D01*
X106037289Y-68456190D01*
X106287905Y-68441031D01*
X106314716Y-68442292D01*
X106314852Y-68442294D01*
X106323724Y-68443675D01*
X106355342Y-68439541D01*
X106371650Y-68438478D01*
X172420667Y-68427443D01*
X172440070Y-68428943D01*
G37*
%TD.AperFunction*%
%TA.AperFunction,Conductor*%
G36*
X166412026Y-89295144D02*
G01*
X166439875Y-89326994D01*
X166499987Y-89425088D01*
X166646250Y-89593938D01*
X166818126Y-89736632D01*
X166865731Y-89764450D01*
X166891955Y-89779774D01*
X166940679Y-89831412D01*
X166953750Y-89901195D01*
X166927019Y-89966967D01*
X166886562Y-90000327D01*
X166878460Y-90004544D01*
X166869734Y-90010039D01*
X166849677Y-90025099D01*
X166841223Y-90036427D01*
X166847968Y-90048758D01*
X167870115Y-91070905D01*
X167904141Y-91133217D01*
X167899076Y-91204032D01*
X167870115Y-91249095D01*
X166846737Y-92272473D01*
X166823985Y-92314139D01*
X166821777Y-92324287D01*
X166771574Y-92374488D01*
X166751067Y-92383424D01*
X166676054Y-92408450D01*
X166525652Y-92501522D01*
X166400695Y-92626697D01*
X166396855Y-92632927D01*
X166396854Y-92632928D01*
X166351272Y-92706876D01*
X166307885Y-92777262D01*
X166305579Y-92784213D01*
X166303561Y-92788542D01*
X166256644Y-92841828D01*
X166188367Y-92861290D01*
X166120407Y-92840749D01*
X166096172Y-92820094D01*
X165993152Y-92706876D01*
X165993142Y-92706867D01*
X165989670Y-92703051D01*
X165985619Y-92699852D01*
X165985615Y-92699848D01*
X165818414Y-92567800D01*
X165818410Y-92567798D01*
X165814359Y-92564598D01*
X165773053Y-92541796D01*
X165723084Y-92491364D01*
X165708312Y-92421921D01*
X165733428Y-92355516D01*
X165760780Y-92328909D01*
X165825812Y-92282522D01*
X165939860Y-92201173D01*
X165975253Y-92165904D01*
X166043754Y-92097641D01*
X166098096Y-92043489D01*
X166157594Y-91960689D01*
X166228453Y-91862077D01*
X166229640Y-91862930D01*
X166276960Y-91819362D01*
X166346897Y-91807145D01*
X166412338Y-91834678D01*
X166440166Y-91866512D01*
X166466459Y-91909419D01*
X166476916Y-91918880D01*
X166485694Y-91915096D01*
X167227978Y-91172812D01*
X167235592Y-91158868D01*
X167235461Y-91157035D01*
X167231210Y-91150420D01*
X166489849Y-90409059D01*
X166478313Y-90402759D01*
X166466031Y-90412382D01*
X166433499Y-90460072D01*
X166378587Y-90505075D01*
X166308063Y-90513246D01*
X166244316Y-90481992D01*
X166223618Y-90457508D01*
X166142822Y-90332617D01*
X166142820Y-90332614D01*
X166140014Y-90328277D01*
X165989670Y-90163051D01*
X165985619Y-90159852D01*
X165985615Y-90159848D01*
X165818414Y-90027800D01*
X165818410Y-90027798D01*
X165814359Y-90024598D01*
X165773053Y-90001796D01*
X165723084Y-89951364D01*
X165708312Y-89881921D01*
X165733428Y-89815516D01*
X165760780Y-89788909D01*
X165804603Y-89757650D01*
X165939860Y-89661173D01*
X165954597Y-89646488D01*
X166059207Y-89542242D01*
X166098096Y-89503489D01*
X166157594Y-89420689D01*
X166228453Y-89322077D01*
X166229776Y-89323028D01*
X166276645Y-89279857D01*
X166346580Y-89267625D01*
X166412026Y-89295144D01*
G37*
%TD.AperFunction*%
%TA.AperFunction,Conductor*%
G36*
X147518516Y-86878491D02*
G01*
X147539490Y-86895394D01*
X151717095Y-91072999D01*
X151751121Y-91135311D01*
X151754000Y-91162094D01*
X151754000Y-92628000D01*
X151733998Y-92696121D01*
X151680342Y-92742614D01*
X151628000Y-92754000D01*
X151372000Y-92754000D01*
X151303879Y-92733998D01*
X151257386Y-92680342D01*
X151246000Y-92628000D01*
X151246000Y-91160116D01*
X151241525Y-91144877D01*
X151240135Y-91143672D01*
X151232452Y-91142001D01*
X150852905Y-91142001D01*
X150846386Y-91142338D01*
X150750794Y-91152257D01*
X150737400Y-91155149D01*
X150583216Y-91206588D01*
X150570038Y-91212761D01*
X150432193Y-91298063D01*
X150420792Y-91307099D01*
X150306261Y-91421829D01*
X150297249Y-91433240D01*
X150212184Y-91571243D01*
X150206037Y-91584424D01*
X150154862Y-91738710D01*
X150151995Y-91752086D01*
X150142328Y-91846438D01*
X150142000Y-91852854D01*
X150142001Y-92375840D01*
X150121999Y-92443961D01*
X150068344Y-92490454D01*
X149998070Y-92500558D01*
X149933489Y-92471065D01*
X149926906Y-92464935D01*
X148911447Y-91449476D01*
X148905594Y-91443212D01*
X148872553Y-91405337D01*
X148872551Y-91405335D01*
X148867560Y-91399614D01*
X148815279Y-91362870D01*
X148809985Y-91358938D01*
X148765692Y-91324208D01*
X148759717Y-91319523D01*
X148752801Y-91316400D01*
X148750515Y-91315016D01*
X148735834Y-91306642D01*
X148733474Y-91305377D01*
X148727260Y-91301009D01*
X148720181Y-91298249D01*
X148720179Y-91298248D01*
X148667724Y-91277797D01*
X148661655Y-91275246D01*
X148603426Y-91248954D01*
X148595959Y-91247570D01*
X148593404Y-91246769D01*
X148577151Y-91242140D01*
X148574571Y-91241477D01*
X148567490Y-91238717D01*
X148559959Y-91237726D01*
X148559957Y-91237725D01*
X148530338Y-91233826D01*
X148504138Y-91230377D01*
X148497640Y-91229347D01*
X148434813Y-91217703D01*
X148427233Y-91218140D01*
X148427232Y-91218140D01*
X148372607Y-91221290D01*
X148365353Y-91221499D01*
X144613187Y-91221499D01*
X144545066Y-91201497D01*
X144498573Y-91147841D01*
X144488469Y-91077567D01*
X144492629Y-91058870D01*
X144492868Y-91058086D01*
X144532370Y-90928069D01*
X144561529Y-90706590D01*
X144561611Y-90703240D01*
X144563074Y-90643365D01*
X144563074Y-90643361D01*
X144563156Y-90640000D01*
X144544852Y-90417361D01*
X144490431Y-90200702D01*
X144401354Y-89995840D01*
X144332329Y-89889144D01*
X144282822Y-89812617D01*
X144282820Y-89812614D01*
X144280014Y-89808277D01*
X144264199Y-89790896D01*
X144132798Y-89646488D01*
X144101746Y-89582642D01*
X144110141Y-89512143D01*
X144155317Y-89457375D01*
X144181761Y-89443706D01*
X144288297Y-89403767D01*
X144296705Y-89400615D01*
X144413261Y-89313261D01*
X144500615Y-89196705D01*
X144551745Y-89060316D01*
X144558500Y-88998134D01*
X144558500Y-87201866D01*
X144551745Y-87139684D01*
X144510146Y-87028719D01*
X144504963Y-86957911D01*
X144538884Y-86895542D01*
X144601139Y-86861413D01*
X144628128Y-86858489D01*
X147450395Y-86858489D01*
X147518516Y-86878491D01*
G37*
%TD.AperFunction*%
%TA.AperFunction,Conductor*%
G36*
X138707761Y-86878491D02*
G01*
X138754254Y-86932147D01*
X138764358Y-87002421D01*
X138734864Y-87067001D01*
X138728735Y-87073584D01*
X137949840Y-87852479D01*
X137867766Y-87956216D01*
X137864667Y-87962847D01*
X137864665Y-87962850D01*
X137795977Y-88109818D01*
X137795976Y-88109822D01*
X137792878Y-88116450D01*
X137756860Y-88289615D01*
X137761643Y-88466421D01*
X137763521Y-88473503D01*
X137763521Y-88473504D01*
X137789520Y-88571556D01*
X137806974Y-88637384D01*
X137810430Y-88643843D01*
X137867565Y-88750623D01*
X137890418Y-88793334D01*
X137895265Y-88798822D01*
X137895267Y-88798825D01*
X137909347Y-88814767D01*
X138007500Y-88925904D01*
X138151940Y-89027984D01*
X138158726Y-89030719D01*
X138158730Y-89030721D01*
X138232166Y-89060316D01*
X138315989Y-89094098D01*
X138323226Y-89095199D01*
X138483615Y-89119599D01*
X138483619Y-89119599D01*
X138490849Y-89120699D01*
X138498141Y-89120106D01*
X138498144Y-89120106D01*
X138589154Y-89112703D01*
X138667137Y-89106360D01*
X138674096Y-89104106D01*
X138674099Y-89104105D01*
X138828433Y-89054108D01*
X138828436Y-89054107D01*
X138835399Y-89051851D01*
X138841654Y-89048055D01*
X138841657Y-89048054D01*
X138981814Y-88963004D01*
X138981818Y-88963001D01*
X138986607Y-88960095D01*
X138990806Y-88956386D01*
X138990811Y-88956383D01*
X138993519Y-88953991D01*
X138993523Y-88953988D01*
X138994984Y-88952697D01*
X141052287Y-86895394D01*
X141114599Y-86861368D01*
X141141382Y-86858489D01*
X141771872Y-86858489D01*
X141839993Y-86878491D01*
X141886486Y-86932147D01*
X141896590Y-87002421D01*
X141889854Y-87028719D01*
X141848255Y-87139684D01*
X141841500Y-87201866D01*
X141841500Y-88998134D01*
X141848255Y-89060316D01*
X141899385Y-89196705D01*
X141986739Y-89313261D01*
X142103295Y-89400615D01*
X142111704Y-89403767D01*
X142111705Y-89403768D01*
X142220451Y-89444535D01*
X142277216Y-89487176D01*
X142301916Y-89553738D01*
X142286709Y-89623087D01*
X142267316Y-89649568D01*
X142184116Y-89736632D01*
X142140629Y-89782138D01*
X142137715Y-89786410D01*
X142137714Y-89786411D01*
X142094788Y-89849338D01*
X142014743Y-89966680D01*
X141987626Y-90025099D01*
X141925078Y-90159848D01*
X141920688Y-90169305D01*
X141860989Y-90384570D01*
X141837251Y-90606695D01*
X141837548Y-90611848D01*
X141837548Y-90611851D01*
X141843011Y-90706590D01*
X141850110Y-90829715D01*
X141851247Y-90834761D01*
X141851248Y-90834767D01*
X141867550Y-90907100D01*
X141899222Y-91047639D01*
X141901166Y-91052427D01*
X141902714Y-91057367D01*
X141900418Y-91058086D01*
X141906496Y-91118774D01*
X141874255Y-91182027D01*
X141812934Y-91217809D01*
X141782664Y-91221499D01*
X119475660Y-91221499D01*
X119407539Y-91201497D01*
X119386565Y-91184594D01*
X119171383Y-90969412D01*
X119137357Y-90907100D01*
X119135556Y-90863870D01*
X119158538Y-90689305D01*
X119161529Y-90666590D01*
X119161611Y-90663240D01*
X119163074Y-90603365D01*
X119163074Y-90603361D01*
X119163156Y-90600000D01*
X119144852Y-90377361D01*
X119090431Y-90160702D01*
X119001354Y-89955840D01*
X118920665Y-89831114D01*
X118882822Y-89772617D01*
X118882820Y-89772614D01*
X118880014Y-89768277D01*
X118876540Y-89764459D01*
X118876533Y-89764450D01*
X118732435Y-89606088D01*
X118701383Y-89542242D01*
X118709779Y-89471744D01*
X118754956Y-89416976D01*
X118781400Y-89403307D01*
X118888052Y-89363325D01*
X118903649Y-89354786D01*
X119005724Y-89278285D01*
X119018285Y-89265724D01*
X119094786Y-89163649D01*
X119103324Y-89148054D01*
X119148478Y-89027606D01*
X119152105Y-89012351D01*
X119157631Y-88961486D01*
X119158000Y-88954672D01*
X119158000Y-88332115D01*
X119153525Y-88316876D01*
X119152135Y-88315671D01*
X119144452Y-88314000D01*
X117672000Y-88314000D01*
X117603879Y-88293998D01*
X117557386Y-88240342D01*
X117546000Y-88188000D01*
X117546000Y-87932000D01*
X117566002Y-87863879D01*
X117619658Y-87817386D01*
X117672000Y-87806000D01*
X119139884Y-87806000D01*
X119155123Y-87801525D01*
X119156328Y-87800135D01*
X119157999Y-87792452D01*
X119157999Y-87165331D01*
X119157629Y-87158510D01*
X119152105Y-87107648D01*
X119148479Y-87092397D01*
X119124607Y-87028719D01*
X119119424Y-86957912D01*
X119153344Y-86895543D01*
X119215599Y-86861414D01*
X119242589Y-86858489D01*
X138639640Y-86858489D01*
X138707761Y-86878491D01*
G37*
%TD.AperFunction*%
M02*
