%TF.GenerationSoftware,KiCad,Pcbnew,(6.0.4)*%
%TF.CreationDate,2022-04-04T21:54:52+02:00*%
%TF.ProjectId,MCU_INTERFACE_BOARD,4d43555f-494e-4544-9552-464143455f42,rev?*%
%TF.SameCoordinates,Original*%
%TF.FileFunction,Legend,Top*%
%TF.FilePolarity,Positive*%
%FSLAX46Y46*%
G04 Gerber Fmt 4.6, Leading zero omitted, Abs format (unit mm)*
G04 Created by KiCad (PCBNEW (6.0.4)) date 2022-04-04 21:54:52*
%MOMM*%
%LPD*%
G01*
G04 APERTURE LIST*
G04 Aperture macros list*
%AMRoundRect*
0 Rectangle with rounded corners*
0 $1 Rounding radius*
0 $2 $3 $4 $5 $6 $7 $8 $9 X,Y pos of 4 corners*
0 Add a 4 corners polygon primitive as box body*
4,1,4,$2,$3,$4,$5,$6,$7,$8,$9,$2,$3,0*
0 Add four circle primitives for the rounded corners*
1,1,$1+$1,$2,$3*
1,1,$1+$1,$4,$5*
1,1,$1+$1,$6,$7*
1,1,$1+$1,$8,$9*
0 Add four rect primitives between the rounded corners*
20,1,$1+$1,$2,$3,$4,$5,0*
20,1,$1+$1,$4,$5,$6,$7,0*
20,1,$1+$1,$6,$7,$8,$9,0*
20,1,$1+$1,$8,$9,$2,$3,0*%
G04 Aperture macros list end*
%ADD10C,0.150000*%
%ADD11C,0.200000*%
%ADD12C,0.180000*%
%ADD13C,0.230000*%
%ADD14C,0.120000*%
%ADD15C,0.010000*%
%ADD16R,2.400000X2.400000*%
%ADD17C,2.400000*%
%ADD18C,5.600000*%
%ADD19R,1.700000X1.700000*%
%ADD20O,1.700000X1.700000*%
%ADD21RoundRect,0.250000X-0.600000X-0.600000X0.600000X-0.600000X0.600000X0.600000X-0.600000X0.600000X0*%
%ADD22C,1.700000*%
%ADD23RoundRect,0.243750X0.243750X0.456250X-0.243750X0.456250X-0.243750X-0.456250X0.243750X-0.456250X0*%
%ADD24RoundRect,0.250000X0.600000X0.600000X-0.600000X0.600000X-0.600000X-0.600000X0.600000X-0.600000X0*%
%ADD25C,1.600000*%
%ADD26O,1.600000X1.600000*%
%ADD27RoundRect,0.200000X0.275000X-0.200000X0.275000X0.200000X-0.275000X0.200000X-0.275000X-0.200000X0*%
%ADD28RoundRect,0.200000X-0.200000X-0.275000X0.200000X-0.275000X0.200000X0.275000X-0.200000X0.275000X0*%
%ADD29R,1.800000X1.800000*%
%ADD30C,1.800000*%
%ADD31RoundRect,0.200000X-0.275000X0.200000X-0.275000X-0.200000X0.275000X-0.200000X0.275000X0.200000X0*%
G04 APERTURE END LIST*
D10*
X116500000Y-128600000D02*
X117600000Y-127500000D01*
X117600000Y-118600000D02*
X116500000Y-117500000D01*
X117600000Y-127500000D02*
X117600000Y-118600000D01*
X116500000Y-117500000D02*
X116500000Y-60000000D01*
X116500000Y-60000000D02*
X144500000Y-60000000D01*
X144500000Y-60000000D02*
X144500000Y-135100000D01*
X116500000Y-135100000D02*
X116500000Y-128600000D01*
X105266666Y-103033333D02*
X105314285Y-102995238D01*
X105457142Y-102919047D01*
X105552380Y-102880952D01*
X105695238Y-102842857D01*
X105933333Y-102804761D01*
X106123809Y-102804761D01*
X106361904Y-102842857D01*
X106504761Y-102880952D01*
X106600000Y-102919047D01*
X106742857Y-102995238D01*
X106790476Y-103033333D01*
X105695238Y-103680952D02*
X105647619Y-103604761D01*
X105647619Y-103452380D01*
X105695238Y-103376190D01*
X105742857Y-103338095D01*
X105838095Y-103300000D01*
X106123809Y-103300000D01*
X106219047Y-103338095D01*
X106266666Y-103376190D01*
X106314285Y-103452380D01*
X106314285Y-103604761D01*
X106266666Y-103680952D01*
X105266666Y-103947619D02*
X105314285Y-103985714D01*
X105457142Y-104061904D01*
X105552380Y-104100000D01*
X105695238Y-104138095D01*
X105933333Y-104176190D01*
X106123809Y-104176190D01*
X106361904Y-104138095D01*
X106504761Y-104100000D01*
X106600000Y-104061904D01*
X106742857Y-103985714D01*
X106790476Y-103947619D01*
X106552380Y-105128571D02*
X106600000Y-105166666D01*
X106647619Y-105242857D01*
X106647619Y-105433333D01*
X106600000Y-105509523D01*
X106552380Y-105547619D01*
X106457142Y-105585714D01*
X106361904Y-105585714D01*
X106219047Y-105547619D01*
X105647619Y-105090476D01*
X105647619Y-105585714D01*
X106647619Y-106080952D02*
X106647619Y-106157142D01*
X106600000Y-106233333D01*
X106552380Y-106271428D01*
X106457142Y-106309523D01*
X106266666Y-106347619D01*
X106028571Y-106347619D01*
X105838095Y-106309523D01*
X105742857Y-106271428D01*
X105695238Y-106233333D01*
X105647619Y-106157142D01*
X105647619Y-106080952D01*
X105695238Y-106004761D01*
X105742857Y-105966666D01*
X105838095Y-105928571D01*
X106028571Y-105890476D01*
X106266666Y-105890476D01*
X106457142Y-105928571D01*
X106552380Y-105966666D01*
X106600000Y-106004761D01*
X106647619Y-106080952D01*
X106552380Y-106652380D02*
X106600000Y-106690476D01*
X106647619Y-106766666D01*
X106647619Y-106957142D01*
X106600000Y-107033333D01*
X106552380Y-107071428D01*
X106457142Y-107109523D01*
X106361904Y-107109523D01*
X106219047Y-107071428D01*
X105647619Y-106614285D01*
X105647619Y-107109523D01*
X106552380Y-107414285D02*
X106600000Y-107452380D01*
X106647619Y-107528571D01*
X106647619Y-107719047D01*
X106600000Y-107795238D01*
X106552380Y-107833333D01*
X106457142Y-107871428D01*
X106361904Y-107871428D01*
X106219047Y-107833333D01*
X105647619Y-107376190D01*
X105647619Y-107871428D01*
X105647619Y-109204761D02*
X105647619Y-108823809D01*
X106647619Y-108823809D01*
X106314285Y-109814285D02*
X105647619Y-109814285D01*
X106314285Y-109471428D02*
X105790476Y-109471428D01*
X105695238Y-109509523D01*
X105647619Y-109585714D01*
X105647619Y-109700000D01*
X105695238Y-109776190D01*
X105742857Y-109814285D01*
X105647619Y-110195238D02*
X106314285Y-110195238D01*
X106219047Y-110195238D02*
X106266666Y-110233333D01*
X106314285Y-110309523D01*
X106314285Y-110423809D01*
X106266666Y-110500000D01*
X106171428Y-110538095D01*
X105647619Y-110538095D01*
X106171428Y-110538095D02*
X106266666Y-110576190D01*
X106314285Y-110652380D01*
X106314285Y-110766666D01*
X106266666Y-110842857D01*
X106171428Y-110880952D01*
X105647619Y-110880952D01*
X105647619Y-111261904D02*
X106314285Y-111261904D01*
X106647619Y-111261904D02*
X106600000Y-111223809D01*
X106552380Y-111261904D01*
X106600000Y-111300000D01*
X106647619Y-111261904D01*
X106552380Y-111261904D01*
X106314285Y-111566666D02*
X106314285Y-111985714D01*
X105647619Y-111566666D01*
X105647619Y-111985714D01*
X105695238Y-112595238D02*
X105647619Y-112519047D01*
X105647619Y-112366666D01*
X105695238Y-112290476D01*
X105790476Y-112252380D01*
X106171428Y-112252380D01*
X106266666Y-112290476D01*
X106314285Y-112366666D01*
X106314285Y-112519047D01*
X106266666Y-112595238D01*
X106171428Y-112633333D01*
X106076190Y-112633333D01*
X105980952Y-112252380D01*
X105647619Y-113585714D02*
X106647619Y-113585714D01*
X106171428Y-113585714D02*
X106171428Y-114042857D01*
X105647619Y-114042857D02*
X106647619Y-114042857D01*
X105647619Y-114538095D02*
X105695238Y-114461904D01*
X105742857Y-114423809D01*
X105838095Y-114385714D01*
X106123809Y-114385714D01*
X106219047Y-114423809D01*
X106266666Y-114461904D01*
X106314285Y-114538095D01*
X106314285Y-114652380D01*
X106266666Y-114728571D01*
X106219047Y-114766666D01*
X106123809Y-114804761D01*
X105838095Y-114804761D01*
X105742857Y-114766666D01*
X105695238Y-114728571D01*
X105647619Y-114652380D01*
X105647619Y-114538095D01*
X105647619Y-115147619D02*
X106314285Y-115147619D01*
X106219047Y-115147619D02*
X106266666Y-115185714D01*
X106314285Y-115261904D01*
X106314285Y-115376190D01*
X106266666Y-115452380D01*
X106171428Y-115490476D01*
X105647619Y-115490476D01*
X106171428Y-115490476D02*
X106266666Y-115528571D01*
X106314285Y-115604761D01*
X106314285Y-115719047D01*
X106266666Y-115795238D01*
X106171428Y-115833333D01*
X105647619Y-115833333D01*
X105695238Y-116519047D02*
X105647619Y-116442857D01*
X105647619Y-116290476D01*
X105695238Y-116214285D01*
X105790476Y-116176190D01*
X106171428Y-116176190D01*
X106266666Y-116214285D01*
X106314285Y-116290476D01*
X106314285Y-116442857D01*
X106266666Y-116519047D01*
X106171428Y-116557142D01*
X106076190Y-116557142D01*
X105980952Y-116176190D01*
X105933333Y-117471428D02*
X105933333Y-117852380D01*
X105647619Y-117395238D02*
X106647619Y-117661904D01*
X105647619Y-117928571D01*
X106314285Y-118538095D02*
X105647619Y-118538095D01*
X106314285Y-118195238D02*
X105790476Y-118195238D01*
X105695238Y-118233333D01*
X105647619Y-118309523D01*
X105647619Y-118423809D01*
X105695238Y-118500000D01*
X105742857Y-118538095D01*
X106314285Y-118804761D02*
X106314285Y-119109523D01*
X106647619Y-118919047D02*
X105790476Y-118919047D01*
X105695238Y-118957142D01*
X105647619Y-119033333D01*
X105647619Y-119109523D01*
X105647619Y-119490476D02*
X105695238Y-119414285D01*
X105742857Y-119376190D01*
X105838095Y-119338095D01*
X106123809Y-119338095D01*
X106219047Y-119376190D01*
X106266666Y-119414285D01*
X106314285Y-119490476D01*
X106314285Y-119604761D01*
X106266666Y-119680952D01*
X106219047Y-119719047D01*
X106123809Y-119757142D01*
X105838095Y-119757142D01*
X105742857Y-119719047D01*
X105695238Y-119680952D01*
X105647619Y-119604761D01*
X105647619Y-119490476D01*
X105647619Y-120100000D02*
X106314285Y-120100000D01*
X106219047Y-120100000D02*
X106266666Y-120138095D01*
X106314285Y-120214285D01*
X106314285Y-120328571D01*
X106266666Y-120404761D01*
X106171428Y-120442857D01*
X105647619Y-120442857D01*
X106171428Y-120442857D02*
X106266666Y-120480952D01*
X106314285Y-120557142D01*
X106314285Y-120671428D01*
X106266666Y-120747619D01*
X106171428Y-120785714D01*
X105647619Y-120785714D01*
X105647619Y-121509523D02*
X106171428Y-121509523D01*
X106266666Y-121471428D01*
X106314285Y-121395238D01*
X106314285Y-121242857D01*
X106266666Y-121166666D01*
X105695238Y-121509523D02*
X105647619Y-121433333D01*
X105647619Y-121242857D01*
X105695238Y-121166666D01*
X105790476Y-121128571D01*
X105885714Y-121128571D01*
X105980952Y-121166666D01*
X106028571Y-121242857D01*
X106028571Y-121433333D01*
X106076190Y-121509523D01*
X106314285Y-121776190D02*
X106314285Y-122080952D01*
X106647619Y-121890476D02*
X105790476Y-121890476D01*
X105695238Y-121928571D01*
X105647619Y-122004761D01*
X105647619Y-122080952D01*
X105647619Y-122347619D02*
X106314285Y-122347619D01*
X106647619Y-122347619D02*
X106600000Y-122309523D01*
X106552380Y-122347619D01*
X106600000Y-122385714D01*
X106647619Y-122347619D01*
X106552380Y-122347619D01*
X105647619Y-122842857D02*
X105695238Y-122766666D01*
X105742857Y-122728571D01*
X105838095Y-122690476D01*
X106123809Y-122690476D01*
X106219047Y-122728571D01*
X106266666Y-122766666D01*
X106314285Y-122842857D01*
X106314285Y-122957142D01*
X106266666Y-123033333D01*
X106219047Y-123071428D01*
X106123809Y-123109523D01*
X105838095Y-123109523D01*
X105742857Y-123071428D01*
X105695238Y-123033333D01*
X105647619Y-122957142D01*
X105647619Y-122842857D01*
X106314285Y-123452380D02*
X105647619Y-123452380D01*
X106219047Y-123452380D02*
X106266666Y-123490476D01*
X106314285Y-123566666D01*
X106314285Y-123680952D01*
X106266666Y-123757142D01*
X106171428Y-123795238D01*
X105647619Y-123795238D01*
D11*
X147150000Y-102300000D02*
X147221428Y-102157142D01*
X147221428Y-101942857D01*
X147150000Y-101728571D01*
X147007142Y-101585714D01*
X146864285Y-101514285D01*
X146578571Y-101442857D01*
X146364285Y-101442857D01*
X146078571Y-101514285D01*
X145935714Y-101585714D01*
X145792857Y-101728571D01*
X145721428Y-101942857D01*
X145721428Y-102085714D01*
X145792857Y-102300000D01*
X145864285Y-102371428D01*
X146364285Y-102371428D01*
X146364285Y-102085714D01*
X145721428Y-103014285D02*
X147221428Y-103014285D01*
X147221428Y-103585714D01*
X147150000Y-103728571D01*
X147078571Y-103800000D01*
X146935714Y-103871428D01*
X146721428Y-103871428D01*
X146578571Y-103800000D01*
X146507142Y-103728571D01*
X146435714Y-103585714D01*
X146435714Y-103014285D01*
X145721428Y-104514285D02*
X147221428Y-104514285D01*
X147221428Y-105514285D02*
X147221428Y-105800000D01*
X147150000Y-105942857D01*
X147007142Y-106085714D01*
X146721428Y-106157142D01*
X146221428Y-106157142D01*
X145935714Y-106085714D01*
X145792857Y-105942857D01*
X145721428Y-105800000D01*
X145721428Y-105514285D01*
X145792857Y-105371428D01*
X145935714Y-105228571D01*
X146221428Y-105157142D01*
X146721428Y-105157142D01*
X147007142Y-105228571D01*
X147150000Y-105371428D01*
X147221428Y-105514285D01*
D10*
X105600000Y-81038095D02*
X105647619Y-80942857D01*
X105647619Y-80800000D01*
X105600000Y-80657142D01*
X105504761Y-80561904D01*
X105409523Y-80514285D01*
X105219047Y-80466666D01*
X105076190Y-80466666D01*
X104885714Y-80514285D01*
X104790476Y-80561904D01*
X104695238Y-80657142D01*
X104647619Y-80800000D01*
X104647619Y-80895238D01*
X104695238Y-81038095D01*
X104742857Y-81085714D01*
X105076190Y-81085714D01*
X105076190Y-80895238D01*
X104647619Y-81514285D02*
X105647619Y-81514285D01*
X104647619Y-82085714D01*
X105647619Y-82085714D01*
X104647619Y-82561904D02*
X105647619Y-82561904D01*
X105647619Y-82800000D01*
X105600000Y-82942857D01*
X105504761Y-83038095D01*
X105409523Y-83085714D01*
X105219047Y-83133333D01*
X105076190Y-83133333D01*
X104885714Y-83085714D01*
X104790476Y-83038095D01*
X104695238Y-82942857D01*
X104647619Y-82800000D01*
X104647619Y-82561904D01*
X161609523Y-128404761D02*
X161752380Y-128452380D01*
X161990476Y-128452380D01*
X162085714Y-128404761D01*
X162133333Y-128357142D01*
X162180952Y-128261904D01*
X162180952Y-128166666D01*
X162133333Y-128071428D01*
X162085714Y-128023809D01*
X161990476Y-127976190D01*
X161800000Y-127928571D01*
X161704761Y-127880952D01*
X161657142Y-127833333D01*
X161609523Y-127738095D01*
X161609523Y-127642857D01*
X161657142Y-127547619D01*
X161704761Y-127500000D01*
X161800000Y-127452380D01*
X162038095Y-127452380D01*
X162180952Y-127500000D01*
X163180952Y-128357142D02*
X163133333Y-128404761D01*
X162990476Y-128452380D01*
X162895238Y-128452380D01*
X162752380Y-128404761D01*
X162657142Y-128309523D01*
X162609523Y-128214285D01*
X162561904Y-128023809D01*
X162561904Y-127880952D01*
X162609523Y-127690476D01*
X162657142Y-127595238D01*
X162752380Y-127500000D01*
X162895238Y-127452380D01*
X162990476Y-127452380D01*
X163133333Y-127500000D01*
X163180952Y-127547619D01*
X164085714Y-128452380D02*
X163609523Y-128452380D01*
X163609523Y-127452380D01*
D11*
X173192857Y-91292857D02*
X173264285Y-91078571D01*
X173335714Y-91007142D01*
X173478571Y-90935714D01*
X173692857Y-90935714D01*
X173835714Y-91007142D01*
X173907142Y-91078571D01*
X173978571Y-91221428D01*
X173978571Y-91792857D01*
X172478571Y-91792857D01*
X172478571Y-91292857D01*
X172550000Y-91150000D01*
X172621428Y-91078571D01*
X172764285Y-91007142D01*
X172907142Y-91007142D01*
X173050000Y-91078571D01*
X173121428Y-91150000D01*
X173192857Y-91292857D01*
X173192857Y-91792857D01*
X172478571Y-90292857D02*
X173692857Y-90292857D01*
X173835714Y-90221428D01*
X173907142Y-90150000D01*
X173978571Y-90007142D01*
X173978571Y-89721428D01*
X173907142Y-89578571D01*
X173835714Y-89507142D01*
X173692857Y-89435714D01*
X172478571Y-89435714D01*
X173907142Y-88792857D02*
X173978571Y-88578571D01*
X173978571Y-88221428D01*
X173907142Y-88078571D01*
X173835714Y-88007142D01*
X173692857Y-87935714D01*
X173550000Y-87935714D01*
X173407142Y-88007142D01*
X173335714Y-88078571D01*
X173264285Y-88221428D01*
X173192857Y-88507142D01*
X173121428Y-88650000D01*
X173050000Y-88721428D01*
X172907142Y-88792857D01*
X172764285Y-88792857D01*
X172621428Y-88721428D01*
X172550000Y-88650000D01*
X172478571Y-88507142D01*
X172478571Y-88150000D01*
X172550000Y-87935714D01*
D10*
X105647619Y-85209523D02*
X105647619Y-84733333D01*
X105171428Y-84685714D01*
X105219047Y-84733333D01*
X105266666Y-84828571D01*
X105266666Y-85066666D01*
X105219047Y-85161904D01*
X105171428Y-85209523D01*
X105076190Y-85257142D01*
X104838095Y-85257142D01*
X104742857Y-85209523D01*
X104695238Y-85161904D01*
X104647619Y-85066666D01*
X104647619Y-84828571D01*
X104695238Y-84733333D01*
X104742857Y-84685714D01*
X105647619Y-85542857D02*
X104647619Y-85876190D01*
X105647619Y-86209523D01*
D12*
X106700000Y-89178571D02*
X105985714Y-89178571D01*
X105914285Y-89892857D01*
X105985714Y-89821428D01*
X106128571Y-89750000D01*
X106485714Y-89750000D01*
X106628571Y-89821428D01*
X106700000Y-89892857D01*
X106771428Y-90035714D01*
X106771428Y-90392857D01*
X106700000Y-90535714D01*
X106628571Y-90607142D01*
X106485714Y-90678571D01*
X106128571Y-90678571D01*
X105985714Y-90607142D01*
X105914285Y-90535714D01*
X107200000Y-89178571D02*
X107700000Y-90678571D01*
X108200000Y-89178571D01*
X109842857Y-90678571D02*
X109842857Y-89178571D01*
X110557142Y-90678571D02*
X110557142Y-89178571D01*
X111414285Y-90678571D01*
X111414285Y-89178571D01*
D10*
X137839285Y-100552380D02*
X137410714Y-100552380D01*
X137625000Y-100552380D02*
X137625000Y-99552380D01*
X137553571Y-99695238D01*
X137482142Y-99790476D01*
X137410714Y-99838095D01*
X138160714Y-100552380D02*
X138160714Y-99552380D01*
X138589285Y-100552380D02*
X138267857Y-99980952D01*
X138589285Y-99552380D02*
X138160714Y-100123809D01*
X162247619Y-131552380D02*
X161914285Y-131076190D01*
X161676190Y-131552380D02*
X161676190Y-130552380D01*
X162057142Y-130552380D01*
X162152380Y-130600000D01*
X162200000Y-130647619D01*
X162247619Y-130742857D01*
X162247619Y-130885714D01*
X162200000Y-130980952D01*
X162152380Y-131028571D01*
X162057142Y-131076190D01*
X161676190Y-131076190D01*
X162676190Y-131028571D02*
X163009523Y-131028571D01*
X163152380Y-131552380D02*
X162676190Y-131552380D01*
X162676190Y-130552380D01*
X163152380Y-130552380D01*
X163533333Y-131504761D02*
X163676190Y-131552380D01*
X163914285Y-131552380D01*
X164009523Y-131504761D01*
X164057142Y-131457142D01*
X164104761Y-131361904D01*
X164104761Y-131266666D01*
X164057142Y-131171428D01*
X164009523Y-131123809D01*
X163914285Y-131076190D01*
X163723809Y-131028571D01*
X163628571Y-130980952D01*
X163580952Y-130933333D01*
X163533333Y-130838095D01*
X163533333Y-130742857D01*
X163580952Y-130647619D01*
X163628571Y-130600000D01*
X163723809Y-130552380D01*
X163961904Y-130552380D01*
X164104761Y-130600000D01*
X164533333Y-131028571D02*
X164866666Y-131028571D01*
X165009523Y-131552380D02*
X164533333Y-131552380D01*
X164533333Y-130552380D01*
X165009523Y-130552380D01*
X165295238Y-130552380D02*
X165866666Y-130552380D01*
X165580952Y-131552380D02*
X165580952Y-130552380D01*
D11*
X173192857Y-112992857D02*
X173264285Y-112778571D01*
X173335714Y-112707142D01*
X173478571Y-112635714D01*
X173692857Y-112635714D01*
X173835714Y-112707142D01*
X173907142Y-112778571D01*
X173978571Y-112921428D01*
X173978571Y-113492857D01*
X172478571Y-113492857D01*
X172478571Y-112992857D01*
X172550000Y-112850000D01*
X172621428Y-112778571D01*
X172764285Y-112707142D01*
X172907142Y-112707142D01*
X173050000Y-112778571D01*
X173121428Y-112850000D01*
X173192857Y-112992857D01*
X173192857Y-113492857D01*
X172478571Y-111992857D02*
X173692857Y-111992857D01*
X173835714Y-111921428D01*
X173907142Y-111850000D01*
X173978571Y-111707142D01*
X173978571Y-111421428D01*
X173907142Y-111278571D01*
X173835714Y-111207142D01*
X173692857Y-111135714D01*
X172478571Y-111135714D01*
X173907142Y-110492857D02*
X173978571Y-110278571D01*
X173978571Y-109921428D01*
X173907142Y-109778571D01*
X173835714Y-109707142D01*
X173692857Y-109635714D01*
X173550000Y-109635714D01*
X173407142Y-109707142D01*
X173335714Y-109778571D01*
X173264285Y-109921428D01*
X173192857Y-110207142D01*
X173121428Y-110350000D01*
X173050000Y-110421428D01*
X172907142Y-110492857D01*
X172764285Y-110492857D01*
X172621428Y-110421428D01*
X172550000Y-110350000D01*
X172478571Y-110207142D01*
X172478571Y-109850000D01*
X172550000Y-109635714D01*
D10*
X157752380Y-131617857D02*
X157752380Y-132046428D01*
X157752380Y-131832142D02*
X156752380Y-131832142D01*
X156895238Y-131903571D01*
X156990476Y-131975000D01*
X157038095Y-132046428D01*
X156752380Y-131153571D02*
X156752380Y-131082142D01*
X156800000Y-131010714D01*
X156847619Y-130975000D01*
X156942857Y-130939285D01*
X157133333Y-130903571D01*
X157371428Y-130903571D01*
X157561904Y-130939285D01*
X157657142Y-130975000D01*
X157704761Y-131010714D01*
X157752380Y-131082142D01*
X157752380Y-131153571D01*
X157704761Y-131225000D01*
X157657142Y-131260714D01*
X157561904Y-131296428D01*
X157371428Y-131332142D01*
X157133333Y-131332142D01*
X156942857Y-131296428D01*
X156847619Y-131260714D01*
X156800000Y-131225000D01*
X156752380Y-131153571D01*
X157752380Y-130582142D02*
X156752380Y-130582142D01*
X157752380Y-130153571D02*
X157180952Y-130475000D01*
X156752380Y-130153571D02*
X157323809Y-130582142D01*
X157185714Y-128767857D02*
X157852380Y-128767857D01*
X156804761Y-128946428D02*
X157519047Y-129125000D01*
X157519047Y-128660714D01*
X157757142Y-128375000D02*
X157804761Y-128339285D01*
X157852380Y-128375000D01*
X157804761Y-128410714D01*
X157757142Y-128375000D01*
X157852380Y-128375000D01*
X156852380Y-128089285D02*
X156852380Y-127589285D01*
X157852380Y-127910714D01*
X157852380Y-127303571D02*
X156852380Y-127303571D01*
X157852380Y-126875000D02*
X157280952Y-127196428D01*
X156852380Y-126875000D02*
X157423809Y-127303571D01*
X157185714Y-125667857D02*
X157852380Y-125667857D01*
X156804761Y-125846428D02*
X157519047Y-126025000D01*
X157519047Y-125560714D01*
X157757142Y-125275000D02*
X157804761Y-125239285D01*
X157852380Y-125275000D01*
X157804761Y-125310714D01*
X157757142Y-125275000D01*
X157852380Y-125275000D01*
X156852380Y-124989285D02*
X156852380Y-124489285D01*
X157852380Y-124810714D01*
X157852380Y-124203571D02*
X156852380Y-124203571D01*
X157852380Y-123775000D02*
X157280952Y-124096428D01*
X156852380Y-123775000D02*
X157423809Y-124203571D01*
X161585714Y-125504761D02*
X161728571Y-125552380D01*
X161966666Y-125552380D01*
X162061904Y-125504761D01*
X162109523Y-125457142D01*
X162157142Y-125361904D01*
X162157142Y-125266666D01*
X162109523Y-125171428D01*
X162061904Y-125123809D01*
X161966666Y-125076190D01*
X161776190Y-125028571D01*
X161680952Y-124980952D01*
X161633333Y-124933333D01*
X161585714Y-124838095D01*
X161585714Y-124742857D01*
X161633333Y-124647619D01*
X161680952Y-124600000D01*
X161776190Y-124552380D01*
X162014285Y-124552380D01*
X162157142Y-124600000D01*
X162585714Y-125552380D02*
X162585714Y-124552380D01*
X162823809Y-124552380D01*
X162966666Y-124600000D01*
X163061904Y-124695238D01*
X163109523Y-124790476D01*
X163157142Y-124980952D01*
X163157142Y-125123809D01*
X163109523Y-125314285D01*
X163061904Y-125409523D01*
X162966666Y-125504761D01*
X162823809Y-125552380D01*
X162585714Y-125552380D01*
X163538095Y-125266666D02*
X164014285Y-125266666D01*
X163442857Y-125552380D02*
X163776190Y-124552380D01*
X164109523Y-125552380D01*
D13*
X126695238Y-124030023D02*
X127019047Y-124030023D01*
X127180952Y-124120500D01*
X127342857Y-124301452D01*
X127423809Y-124663357D01*
X127423809Y-125296690D01*
X127342857Y-125658595D01*
X127180952Y-125839547D01*
X127019047Y-125930023D01*
X126695238Y-125930023D01*
X126533333Y-125839547D01*
X126371428Y-125658595D01*
X126290476Y-125296690D01*
X126290476Y-124663357D01*
X126371428Y-124301452D01*
X126533333Y-124120500D01*
X126695238Y-124030023D01*
X128961904Y-125930023D02*
X128152380Y-125930023D01*
X128152380Y-124030023D01*
X129528571Y-125930023D02*
X129528571Y-124030023D01*
X130338095Y-125930023D02*
X130338095Y-124030023D01*
X130904761Y-125387166D01*
X131471428Y-124030023D01*
X131471428Y-125930023D01*
X132280952Y-124934785D02*
X132847619Y-124934785D01*
X133090476Y-125930023D02*
X132280952Y-125930023D01*
X132280952Y-124030023D01*
X133090476Y-124030023D01*
X133657142Y-124030023D02*
X134790476Y-125930023D01*
X134790476Y-124030023D02*
X133657142Y-125930023D01*
X123295238Y-127993785D02*
X123861904Y-127993785D01*
X124104761Y-128989023D02*
X123295238Y-128989023D01*
X123295238Y-127089023D01*
X124104761Y-127089023D01*
X124752380Y-128898547D02*
X124995238Y-128989023D01*
X125400000Y-128989023D01*
X125561904Y-128898547D01*
X125642857Y-128808071D01*
X125723809Y-128627119D01*
X125723809Y-128446166D01*
X125642857Y-128265214D01*
X125561904Y-128174738D01*
X125400000Y-128084261D01*
X125076190Y-127993785D01*
X124914285Y-127903309D01*
X124833333Y-127812833D01*
X124752380Y-127631880D01*
X124752380Y-127450928D01*
X124833333Y-127269976D01*
X124914285Y-127179500D01*
X125076190Y-127089023D01*
X125480952Y-127089023D01*
X125723809Y-127179500D01*
X126452380Y-128989023D02*
X126452380Y-127089023D01*
X127100000Y-127089023D01*
X127261904Y-127179500D01*
X127342857Y-127269976D01*
X127423809Y-127450928D01*
X127423809Y-127722357D01*
X127342857Y-127903309D01*
X127261904Y-127993785D01*
X127100000Y-128084261D01*
X126452380Y-128084261D01*
X127990476Y-127089023D02*
X129042857Y-127089023D01*
X128476190Y-127812833D01*
X128719047Y-127812833D01*
X128880952Y-127903309D01*
X128961904Y-127993785D01*
X129042857Y-128174738D01*
X129042857Y-128627119D01*
X128961904Y-128808071D01*
X128880952Y-128898547D01*
X128719047Y-128989023D01*
X128233333Y-128989023D01*
X128071428Y-128898547D01*
X127990476Y-128808071D01*
X129690476Y-127269976D02*
X129771428Y-127179500D01*
X129933333Y-127089023D01*
X130338095Y-127089023D01*
X130500000Y-127179500D01*
X130580952Y-127269976D01*
X130661904Y-127450928D01*
X130661904Y-127631880D01*
X130580952Y-127903309D01*
X129609523Y-128989023D01*
X130661904Y-128989023D01*
X131390476Y-128265214D02*
X132685714Y-128265214D01*
X133495238Y-128989023D02*
X133495238Y-127089023D01*
X134142857Y-127089023D01*
X134304761Y-127179500D01*
X134385714Y-127269976D01*
X134466666Y-127450928D01*
X134466666Y-127722357D01*
X134385714Y-127903309D01*
X134304761Y-127993785D01*
X134142857Y-128084261D01*
X133495238Y-128084261D01*
X135519047Y-127089023D02*
X135842857Y-127089023D01*
X136004761Y-127179500D01*
X136166666Y-127360452D01*
X136247619Y-127722357D01*
X136247619Y-128355690D01*
X136166666Y-128717595D01*
X136004761Y-128898547D01*
X135842857Y-128989023D01*
X135519047Y-128989023D01*
X135357142Y-128898547D01*
X135195238Y-128717595D01*
X135114285Y-128355690D01*
X135114285Y-127722357D01*
X135195238Y-127360452D01*
X135357142Y-127179500D01*
X135519047Y-127089023D01*
X136976190Y-127993785D02*
X137542857Y-127993785D01*
X137785714Y-128989023D02*
X136976190Y-128989023D01*
X136976190Y-127089023D01*
X137785714Y-127089023D01*
D10*
X113066666Y-88152380D02*
X113066666Y-88866666D01*
X113019047Y-89009523D01*
X112923809Y-89104761D01*
X112780952Y-89152380D01*
X112685714Y-89152380D01*
X113971428Y-88152380D02*
X113780952Y-88152380D01*
X113685714Y-88200000D01*
X113638095Y-88247619D01*
X113542857Y-88390476D01*
X113495238Y-88580952D01*
X113495238Y-88961904D01*
X113542857Y-89057142D01*
X113590476Y-89104761D01*
X113685714Y-89152380D01*
X113876190Y-89152380D01*
X113971428Y-89104761D01*
X114019047Y-89057142D01*
X114066666Y-88961904D01*
X114066666Y-88723809D01*
X114019047Y-88628571D01*
X113971428Y-88580952D01*
X113876190Y-88533333D01*
X113685714Y-88533333D01*
X113590476Y-88580952D01*
X113542857Y-88628571D01*
X113495238Y-88723809D01*
X142866666Y-85222380D02*
X142866666Y-85936666D01*
X142819047Y-86079523D01*
X142723809Y-86174761D01*
X142580952Y-86222380D01*
X142485714Y-86222380D01*
X143819047Y-85222380D02*
X143342857Y-85222380D01*
X143295238Y-85698571D01*
X143342857Y-85650952D01*
X143438095Y-85603333D01*
X143676190Y-85603333D01*
X143771428Y-85650952D01*
X143819047Y-85698571D01*
X143866666Y-85793809D01*
X143866666Y-86031904D01*
X143819047Y-86127142D01*
X143771428Y-86174761D01*
X143676190Y-86222380D01*
X143438095Y-86222380D01*
X143342857Y-86174761D01*
X143295238Y-86127142D01*
X117466666Y-85182380D02*
X117466666Y-85896666D01*
X117419047Y-86039523D01*
X117323809Y-86134761D01*
X117180952Y-86182380D01*
X117085714Y-86182380D01*
X118371428Y-85515714D02*
X118371428Y-86182380D01*
X118133333Y-85134761D02*
X117895238Y-85849047D01*
X118514285Y-85849047D01*
X152436666Y-85852380D02*
X152436666Y-86566666D01*
X152389047Y-86709523D01*
X152293809Y-86804761D01*
X152150952Y-86852380D01*
X152055714Y-86852380D01*
X152817619Y-85852380D02*
X153436666Y-85852380D01*
X153103333Y-86233333D01*
X153246190Y-86233333D01*
X153341428Y-86280952D01*
X153389047Y-86328571D01*
X153436666Y-86423809D01*
X153436666Y-86661904D01*
X153389047Y-86757142D01*
X153341428Y-86804761D01*
X153246190Y-86852380D01*
X152960476Y-86852380D01*
X152865238Y-86804761D01*
X152817619Y-86757142D01*
X110661904Y-116852380D02*
X110661904Y-115852380D01*
X110900000Y-115852380D01*
X111042857Y-115900000D01*
X111138095Y-115995238D01*
X111185714Y-116090476D01*
X111233333Y-116280952D01*
X111233333Y-116423809D01*
X111185714Y-116614285D01*
X111138095Y-116709523D01*
X111042857Y-116804761D01*
X110900000Y-116852380D01*
X110661904Y-116852380D01*
X112185714Y-116852380D02*
X111614285Y-116852380D01*
X111900000Y-116852380D02*
X111900000Y-115852380D01*
X111804761Y-115995238D01*
X111709523Y-116090476D01*
X111614285Y-116138095D01*
X160066666Y-97752380D02*
X160066666Y-98466666D01*
X160019047Y-98609523D01*
X159923809Y-98704761D01*
X159780952Y-98752380D01*
X159685714Y-98752380D01*
X161066666Y-98752380D02*
X160495238Y-98752380D01*
X160780952Y-98752380D02*
X160780952Y-97752380D01*
X160685714Y-97895238D01*
X160590476Y-97990476D01*
X160495238Y-98038095D01*
X159866666Y-119852380D02*
X159866666Y-120566666D01*
X159819047Y-120709523D01*
X159723809Y-120804761D01*
X159580952Y-120852380D01*
X159485714Y-120852380D01*
X160295238Y-119947619D02*
X160342857Y-119900000D01*
X160438095Y-119852380D01*
X160676190Y-119852380D01*
X160771428Y-119900000D01*
X160819047Y-119947619D01*
X160866666Y-120042857D01*
X160866666Y-120138095D01*
X160819047Y-120280952D01*
X160247619Y-120852380D01*
X160866666Y-120852380D01*
X147333333Y-126252380D02*
X147000000Y-125776190D01*
X146761904Y-126252380D02*
X146761904Y-125252380D01*
X147142857Y-125252380D01*
X147238095Y-125300000D01*
X147285714Y-125347619D01*
X147333333Y-125442857D01*
X147333333Y-125585714D01*
X147285714Y-125680952D01*
X147238095Y-125728571D01*
X147142857Y-125776190D01*
X146761904Y-125776190D01*
X147666666Y-125252380D02*
X148285714Y-125252380D01*
X147952380Y-125633333D01*
X148095238Y-125633333D01*
X148190476Y-125680952D01*
X148238095Y-125728571D01*
X148285714Y-125823809D01*
X148285714Y-126061904D01*
X148238095Y-126157142D01*
X148190476Y-126204761D01*
X148095238Y-126252380D01*
X147809523Y-126252380D01*
X147714285Y-126204761D01*
X147666666Y-126157142D01*
X147333333Y-129152380D02*
X147000000Y-128676190D01*
X146761904Y-129152380D02*
X146761904Y-128152380D01*
X147142857Y-128152380D01*
X147238095Y-128200000D01*
X147285714Y-128247619D01*
X147333333Y-128342857D01*
X147333333Y-128485714D01*
X147285714Y-128580952D01*
X147238095Y-128628571D01*
X147142857Y-128676190D01*
X146761904Y-128676190D01*
X147714285Y-128247619D02*
X147761904Y-128200000D01*
X147857142Y-128152380D01*
X148095238Y-128152380D01*
X148190476Y-128200000D01*
X148238095Y-128247619D01*
X148285714Y-128342857D01*
X148285714Y-128438095D01*
X148238095Y-128580952D01*
X147666666Y-129152380D01*
X148285714Y-129152380D01*
X113433333Y-105007380D02*
X113100000Y-104531190D01*
X112861904Y-105007380D02*
X112861904Y-104007380D01*
X113242857Y-104007380D01*
X113338095Y-104055000D01*
X113385714Y-104102619D01*
X113433333Y-104197857D01*
X113433333Y-104340714D01*
X113385714Y-104435952D01*
X113338095Y-104483571D01*
X113242857Y-104531190D01*
X112861904Y-104531190D01*
X114385714Y-105007380D02*
X113814285Y-105007380D01*
X114100000Y-105007380D02*
X114100000Y-104007380D01*
X114004761Y-104150238D01*
X113909523Y-104245476D01*
X113814285Y-104293095D01*
X136082380Y-102646666D02*
X135606190Y-102980000D01*
X136082380Y-103218095D02*
X135082380Y-103218095D01*
X135082380Y-102837142D01*
X135130000Y-102741904D01*
X135177619Y-102694285D01*
X135272857Y-102646666D01*
X135415714Y-102646666D01*
X135510952Y-102694285D01*
X135558571Y-102741904D01*
X135606190Y-102837142D01*
X135606190Y-103218095D01*
X135082380Y-101741904D02*
X135082380Y-102218095D01*
X135558571Y-102265714D01*
X135510952Y-102218095D01*
X135463333Y-102122857D01*
X135463333Y-101884761D01*
X135510952Y-101789523D01*
X135558571Y-101741904D01*
X135653809Y-101694285D01*
X135891904Y-101694285D01*
X135987142Y-101741904D01*
X136034761Y-101789523D01*
X136082380Y-101884761D01*
X136082380Y-102122857D01*
X136034761Y-102218095D01*
X135987142Y-102265714D01*
X147433333Y-132452380D02*
X147100000Y-131976190D01*
X146861904Y-132452380D02*
X146861904Y-131452380D01*
X147242857Y-131452380D01*
X147338095Y-131500000D01*
X147385714Y-131547619D01*
X147433333Y-131642857D01*
X147433333Y-131785714D01*
X147385714Y-131880952D01*
X147338095Y-131928571D01*
X147242857Y-131976190D01*
X146861904Y-131976190D01*
X148290476Y-131785714D02*
X148290476Y-132452380D01*
X148052380Y-131404761D02*
X147814285Y-132119047D01*
X148433333Y-132119047D01*
D14*
X106790000Y-87410000D02*
X113910000Y-87410000D01*
X106790000Y-87410000D02*
X106790000Y-79590000D01*
X114150000Y-87650000D02*
X114150000Y-86150000D01*
X112410000Y-87650000D02*
X114150000Y-87650000D01*
X106790000Y-79590000D02*
X113910000Y-79590000D01*
X112350000Y-87410000D02*
X112350000Y-79590000D01*
X113910000Y-87410000D02*
X113910000Y-79590000D01*
X110858000Y-83818000D02*
G75*
G03*
X109642258Y-83817891I-607999J-1432003D01*
G01*
X109642000Y-86682000D02*
G75*
G03*
X110857742Y-86682109I608000J1432000D01*
G01*
X108818000Y-84642000D02*
G75*
G03*
X108817891Y-85857742I1432000J-608000D01*
G01*
X111682000Y-85858000D02*
G75*
G03*
X111805493Y-85222989I-1431988J607998D01*
G01*
X111805000Y-85250000D02*
G75*
G03*
X111681385Y-84642413I-1555000J0D01*
G01*
X111805000Y-81750000D02*
G75*
G03*
X111805000Y-81750000I-1555000J0D01*
G01*
X144530000Y-89370000D02*
X144530000Y-112290000D01*
X141870000Y-89370000D02*
X141870000Y-112290000D01*
X141870000Y-89370000D02*
X144530000Y-89370000D01*
X141870000Y-88100000D02*
X141870000Y-86770000D01*
X141870000Y-86770000D02*
X143200000Y-86770000D01*
X141870000Y-112290000D02*
X144530000Y-112290000D01*
X116470000Y-86730000D02*
X117800000Y-86730000D01*
X116470000Y-89330000D02*
X119130000Y-89330000D01*
X116470000Y-88060000D02*
X116470000Y-86730000D01*
X116470000Y-112250000D02*
X119130000Y-112250000D01*
X119130000Y-89330000D02*
X119130000Y-112250000D01*
X116470000Y-89330000D02*
X116470000Y-112250000D01*
X147820000Y-92500000D02*
X146820000Y-92000000D01*
X149520000Y-88590000D02*
X156020000Y-88590000D01*
X157330000Y-87290000D02*
X157330000Y-120570000D01*
X148210000Y-101880000D02*
X149520000Y-101880000D01*
X146820000Y-92000000D02*
X146820000Y-93000000D01*
X149520000Y-119270000D02*
X149520000Y-105980000D01*
X148210000Y-87290000D02*
X157330000Y-87290000D01*
X149520000Y-105980000D02*
X149520000Y-105980000D01*
X146820000Y-93000000D02*
X147820000Y-92500000D01*
X149520000Y-101880000D02*
X149520000Y-88590000D01*
X149520000Y-105980000D02*
X148210000Y-105980000D01*
X156020000Y-88590000D02*
X156020000Y-119270000D01*
X156020000Y-119270000D02*
X149520000Y-119270000D01*
X148210000Y-120570000D02*
X148210000Y-87290000D01*
X157330000Y-120570000D02*
X148210000Y-120570000D01*
X113085000Y-115560000D02*
X113085000Y-113640000D01*
X110400000Y-115560000D02*
X113085000Y-115560000D01*
X113085000Y-113640000D02*
X110400000Y-113640000D01*
X170890000Y-91940000D02*
X169580000Y-91940000D01*
X161770000Y-80870000D02*
X170890000Y-80870000D01*
X169580000Y-97610000D02*
X163080000Y-97610000D01*
X170890000Y-98910000D02*
X161770000Y-98910000D01*
X163080000Y-97610000D02*
X163080000Y-82170000D01*
X172280000Y-94200000D02*
X172280000Y-93200000D01*
X169580000Y-91940000D02*
X169580000Y-97610000D01*
X172280000Y-93200000D02*
X171280000Y-93700000D01*
X171280000Y-93700000D02*
X172280000Y-94200000D01*
X169580000Y-82170000D02*
X169580000Y-87840000D01*
X163080000Y-82170000D02*
X169580000Y-82170000D01*
X170890000Y-80870000D02*
X170890000Y-98910000D01*
X161770000Y-98910000D02*
X161770000Y-80870000D01*
X169580000Y-87840000D02*
X170890000Y-87840000D01*
X169580000Y-87840000D02*
X169580000Y-87840000D01*
X161770000Y-120610000D02*
X161770000Y-102570000D01*
X170890000Y-102570000D02*
X170890000Y-120610000D01*
X169580000Y-119310000D02*
X163080000Y-119310000D01*
X163080000Y-119310000D02*
X163080000Y-103870000D01*
X169580000Y-103870000D02*
X169580000Y-109540000D01*
X169580000Y-113640000D02*
X169580000Y-119310000D01*
X170890000Y-120610000D02*
X161770000Y-120610000D01*
X163080000Y-103870000D02*
X169580000Y-103870000D01*
X161770000Y-102570000D02*
X170890000Y-102570000D01*
X169580000Y-109540000D02*
X169580000Y-109540000D01*
X169580000Y-109540000D02*
X170890000Y-109540000D01*
X172280000Y-115900000D02*
X172280000Y-114900000D01*
X170890000Y-113640000D02*
X169580000Y-113640000D01*
X172280000Y-114900000D02*
X171280000Y-115400000D01*
X171280000Y-115400000D02*
X172280000Y-115900000D01*
X151670000Y-123530000D02*
X151670000Y-126270000D01*
X158210000Y-126270000D02*
X158210000Y-123530000D01*
X151670000Y-126270000D02*
X158210000Y-126270000D01*
X158210000Y-123530000D02*
X151670000Y-123530000D01*
X158980000Y-124900000D02*
X158210000Y-124900000D01*
X150900000Y-124900000D02*
X151670000Y-124900000D01*
G36*
X154605280Y-80358123D02*
G01*
X154603240Y-80413304D01*
X154597613Y-80481931D01*
X154589138Y-80557595D01*
X154578553Y-80633889D01*
X154566597Y-80704404D01*
X154563581Y-80719880D01*
X154523944Y-80877609D01*
X154471095Y-81023755D01*
X154405774Y-81157305D01*
X154328724Y-81277244D01*
X154240685Y-81382558D01*
X154142401Y-81472234D01*
X154034611Y-81545256D01*
X153920043Y-81599849D01*
X153882864Y-81614262D01*
X153850321Y-81626684D01*
X153820642Y-81637267D01*
X153792055Y-81646165D01*
X153762788Y-81653530D01*
X153731071Y-81659514D01*
X153695132Y-81664270D01*
X153653200Y-81667951D01*
X153603502Y-81670709D01*
X153544269Y-81672696D01*
X153473727Y-81674066D01*
X153390106Y-81674970D01*
X153291635Y-81675562D01*
X153176542Y-81675994D01*
X153043055Y-81676418D01*
X153030480Y-81676459D01*
X152889451Y-81676836D01*
X152767344Y-81676944D01*
X152662764Y-81676761D01*
X152574312Y-81676266D01*
X152500594Y-81675436D01*
X152440213Y-81674251D01*
X152391772Y-81672688D01*
X152353875Y-81670726D01*
X152325125Y-81668343D01*
X152304127Y-81665517D01*
X152302067Y-81665148D01*
X152158717Y-81629237D01*
X152026968Y-81576682D01*
X151906992Y-81507640D01*
X151798962Y-81422269D01*
X151703047Y-81320724D01*
X151619420Y-81203162D01*
X151548253Y-81069741D01*
X151490724Y-80923635D01*
X151459846Y-80818200D01*
X151433640Y-80702685D01*
X151413276Y-80583982D01*
X151399921Y-80468981D01*
X151394745Y-80364574D01*
X151394720Y-80357435D01*
X151394720Y-80308400D01*
X154605280Y-80308400D01*
X154605280Y-80358123D01*
G37*
D15*
X154605280Y-80358123D02*
X154603240Y-80413304D01*
X154597613Y-80481931D01*
X154589138Y-80557595D01*
X154578553Y-80633889D01*
X154566597Y-80704404D01*
X154563581Y-80719880D01*
X154523944Y-80877609D01*
X154471095Y-81023755D01*
X154405774Y-81157305D01*
X154328724Y-81277244D01*
X154240685Y-81382558D01*
X154142401Y-81472234D01*
X154034611Y-81545256D01*
X153920043Y-81599849D01*
X153882864Y-81614262D01*
X153850321Y-81626684D01*
X153820642Y-81637267D01*
X153792055Y-81646165D01*
X153762788Y-81653530D01*
X153731071Y-81659514D01*
X153695132Y-81664270D01*
X153653200Y-81667951D01*
X153603502Y-81670709D01*
X153544269Y-81672696D01*
X153473727Y-81674066D01*
X153390106Y-81674970D01*
X153291635Y-81675562D01*
X153176542Y-81675994D01*
X153043055Y-81676418D01*
X153030480Y-81676459D01*
X152889451Y-81676836D01*
X152767344Y-81676944D01*
X152662764Y-81676761D01*
X152574312Y-81676266D01*
X152500594Y-81675436D01*
X152440213Y-81674251D01*
X152391772Y-81672688D01*
X152353875Y-81670726D01*
X152325125Y-81668343D01*
X152304127Y-81665517D01*
X152302067Y-81665148D01*
X152158717Y-81629237D01*
X152026968Y-81576682D01*
X151906992Y-81507640D01*
X151798962Y-81422269D01*
X151703047Y-81320724D01*
X151619420Y-81203162D01*
X151548253Y-81069741D01*
X151490724Y-80923635D01*
X151459846Y-80818200D01*
X151433640Y-80702685D01*
X151413276Y-80583982D01*
X151399921Y-80468981D01*
X151394745Y-80364574D01*
X151394720Y-80357435D01*
X151394720Y-80308400D01*
X154605280Y-80308400D01*
X154605280Y-80358123D01*
G36*
X153030275Y-71525499D02*
G01*
X153097880Y-71526093D01*
X153156140Y-71527056D01*
X153202411Y-71528330D01*
X153234048Y-71529856D01*
X153248408Y-71531574D01*
X153248909Y-71531846D01*
X153247129Y-71542146D01*
X153240828Y-71571471D01*
X153230180Y-71619076D01*
X153215359Y-71684216D01*
X153196540Y-71766145D01*
X153173897Y-71864119D01*
X153147606Y-71977393D01*
X153117840Y-72105222D01*
X153084774Y-72246860D01*
X153048582Y-72401563D01*
X153009440Y-72568586D01*
X152967522Y-72747184D01*
X152923001Y-72936611D01*
X152876054Y-73136122D01*
X152826854Y-73344974D01*
X152775576Y-73562419D01*
X152722395Y-73787715D01*
X152667485Y-74020115D01*
X152611020Y-74258874D01*
X152553175Y-74503248D01*
X152512336Y-74675653D01*
X152442353Y-74971003D01*
X152376910Y-75247229D01*
X152315858Y-75504979D01*
X152259048Y-75744901D01*
X152206332Y-75967644D01*
X152157560Y-76173855D01*
X152112585Y-76364183D01*
X152071257Y-76539274D01*
X152033428Y-76699779D01*
X151998949Y-76846343D01*
X151967671Y-76979616D01*
X151939446Y-77100246D01*
X151914125Y-77208879D01*
X151891559Y-77306165D01*
X151871600Y-77392752D01*
X151854099Y-77469287D01*
X151838906Y-77536419D01*
X151825875Y-77594795D01*
X151814855Y-77645064D01*
X151805698Y-77687873D01*
X151798256Y-77723870D01*
X151792380Y-77753704D01*
X151787920Y-77778023D01*
X151784729Y-77797475D01*
X151782657Y-77812707D01*
X151781557Y-77824367D01*
X151781278Y-77833104D01*
X151781674Y-77839566D01*
X151782594Y-77844400D01*
X151783890Y-77848256D01*
X151784182Y-77848967D01*
X151875317Y-78076698D01*
X151953032Y-78292913D01*
X152018298Y-78500443D01*
X152061647Y-78659940D01*
X152100773Y-78814880D01*
X153491273Y-78814880D01*
X153687654Y-78814891D01*
X153864704Y-78814935D01*
X154023412Y-78815022D01*
X154164766Y-78815165D01*
X154289755Y-78815376D01*
X154399369Y-78815667D01*
X154494596Y-78816051D01*
X154576424Y-78816540D01*
X154645844Y-78817145D01*
X154703843Y-78817879D01*
X154751410Y-78818754D01*
X154789535Y-78819782D01*
X154819205Y-78820976D01*
X154841411Y-78822347D01*
X154857141Y-78823908D01*
X154867383Y-78825671D01*
X154873126Y-78827647D01*
X154875360Y-78829850D01*
X154875243Y-78831898D01*
X154870348Y-78846897D01*
X154860850Y-78877866D01*
X154847817Y-78921259D01*
X154832312Y-78973535D01*
X154818600Y-79020211D01*
X154748411Y-79287498D01*
X154689978Y-79568683D01*
X154643917Y-79860667D01*
X154631053Y-79962960D01*
X154624513Y-80018472D01*
X154618286Y-80071225D01*
X154613034Y-80115622D01*
X154609417Y-80146067D01*
X154609141Y-80148380D01*
X154603373Y-80196640D01*
X152999046Y-80196640D01*
X152820177Y-80196592D01*
X152646904Y-80196453D01*
X152480311Y-80196228D01*
X152321479Y-80195922D01*
X152171491Y-80195540D01*
X152031431Y-80195087D01*
X151902380Y-80194569D01*
X151785421Y-80193990D01*
X151681636Y-80193355D01*
X151592109Y-80192671D01*
X151517922Y-80191941D01*
X151460157Y-80191171D01*
X151419897Y-80190367D01*
X151398224Y-80189532D01*
X151394593Y-80189020D01*
X151393454Y-80176892D01*
X151390376Y-80148004D01*
X151385734Y-80105784D01*
X151379904Y-80053660D01*
X151374463Y-80005594D01*
X151331762Y-79694608D01*
X151275825Y-79395023D01*
X151206981Y-79108320D01*
X151125557Y-78835983D01*
X151099320Y-78759000D01*
X151013164Y-78533275D01*
X150910338Y-78299167D01*
X150791779Y-78058429D01*
X150658428Y-77812815D01*
X150511223Y-77564079D01*
X150351105Y-77313974D01*
X150231459Y-77138480D01*
X150168916Y-77048515D01*
X150116459Y-76971776D01*
X150072101Y-76905146D01*
X150033853Y-76845505D01*
X149999727Y-76789738D01*
X149967735Y-76734725D01*
X149935890Y-76677349D01*
X149927238Y-76661381D01*
X149811070Y-76425040D01*
X149713888Y-76182664D01*
X149635648Y-75935343D01*
X149576306Y-75684165D01*
X149535819Y-75430220D01*
X149514141Y-75174596D01*
X149511229Y-74918383D01*
X149527039Y-74662670D01*
X149561526Y-74408547D01*
X149614648Y-74157101D01*
X149686359Y-73909422D01*
X149776615Y-73666600D01*
X149885373Y-73429723D01*
X150012588Y-73199881D01*
X150071091Y-73106356D01*
X150223452Y-72889559D01*
X150390548Y-72686378D01*
X150571545Y-72497377D01*
X150765607Y-72323117D01*
X150971899Y-72164160D01*
X151189587Y-72021067D01*
X151417834Y-71894401D01*
X151655805Y-71784723D01*
X151902666Y-71692595D01*
X152157581Y-71618578D01*
X152344680Y-71577003D01*
X152427511Y-71561574D01*
X152501909Y-71549460D01*
X152572308Y-71540286D01*
X152643145Y-71533677D01*
X152718856Y-71529258D01*
X152803876Y-71526654D01*
X152902642Y-71525490D01*
X152955969Y-71525333D01*
X153030275Y-71525499D01*
G37*
X153030275Y-71525499D02*
X153097880Y-71526093D01*
X153156140Y-71527056D01*
X153202411Y-71528330D01*
X153234048Y-71529856D01*
X153248408Y-71531574D01*
X153248909Y-71531846D01*
X153247129Y-71542146D01*
X153240828Y-71571471D01*
X153230180Y-71619076D01*
X153215359Y-71684216D01*
X153196540Y-71766145D01*
X153173897Y-71864119D01*
X153147606Y-71977393D01*
X153117840Y-72105222D01*
X153084774Y-72246860D01*
X153048582Y-72401563D01*
X153009440Y-72568586D01*
X152967522Y-72747184D01*
X152923001Y-72936611D01*
X152876054Y-73136122D01*
X152826854Y-73344974D01*
X152775576Y-73562419D01*
X152722395Y-73787715D01*
X152667485Y-74020115D01*
X152611020Y-74258874D01*
X152553175Y-74503248D01*
X152512336Y-74675653D01*
X152442353Y-74971003D01*
X152376910Y-75247229D01*
X152315858Y-75504979D01*
X152259048Y-75744901D01*
X152206332Y-75967644D01*
X152157560Y-76173855D01*
X152112585Y-76364183D01*
X152071257Y-76539274D01*
X152033428Y-76699779D01*
X151998949Y-76846343D01*
X151967671Y-76979616D01*
X151939446Y-77100246D01*
X151914125Y-77208879D01*
X151891559Y-77306165D01*
X151871600Y-77392752D01*
X151854099Y-77469287D01*
X151838906Y-77536419D01*
X151825875Y-77594795D01*
X151814855Y-77645064D01*
X151805698Y-77687873D01*
X151798256Y-77723870D01*
X151792380Y-77753704D01*
X151787920Y-77778023D01*
X151784729Y-77797475D01*
X151782657Y-77812707D01*
X151781557Y-77824367D01*
X151781278Y-77833104D01*
X151781674Y-77839566D01*
X151782594Y-77844400D01*
X151783890Y-77848256D01*
X151784182Y-77848967D01*
X151875317Y-78076698D01*
X151953032Y-78292913D01*
X152018298Y-78500443D01*
X152061647Y-78659940D01*
X152100773Y-78814880D01*
X153491273Y-78814880D01*
X153687654Y-78814891D01*
X153864704Y-78814935D01*
X154023412Y-78815022D01*
X154164766Y-78815165D01*
X154289755Y-78815376D01*
X154399369Y-78815667D01*
X154494596Y-78816051D01*
X154576424Y-78816540D01*
X154645844Y-78817145D01*
X154703843Y-78817879D01*
X154751410Y-78818754D01*
X154789535Y-78819782D01*
X154819205Y-78820976D01*
X154841411Y-78822347D01*
X154857141Y-78823908D01*
X154867383Y-78825671D01*
X154873126Y-78827647D01*
X154875360Y-78829850D01*
X154875243Y-78831898D01*
X154870348Y-78846897D01*
X154860850Y-78877866D01*
X154847817Y-78921259D01*
X154832312Y-78973535D01*
X154818600Y-79020211D01*
X154748411Y-79287498D01*
X154689978Y-79568683D01*
X154643917Y-79860667D01*
X154631053Y-79962960D01*
X154624513Y-80018472D01*
X154618286Y-80071225D01*
X154613034Y-80115622D01*
X154609417Y-80146067D01*
X154609141Y-80148380D01*
X154603373Y-80196640D01*
X152999046Y-80196640D01*
X152820177Y-80196592D01*
X152646904Y-80196453D01*
X152480311Y-80196228D01*
X152321479Y-80195922D01*
X152171491Y-80195540D01*
X152031431Y-80195087D01*
X151902380Y-80194569D01*
X151785421Y-80193990D01*
X151681636Y-80193355D01*
X151592109Y-80192671D01*
X151517922Y-80191941D01*
X151460157Y-80191171D01*
X151419897Y-80190367D01*
X151398224Y-80189532D01*
X151394593Y-80189020D01*
X151393454Y-80176892D01*
X151390376Y-80148004D01*
X151385734Y-80105784D01*
X151379904Y-80053660D01*
X151374463Y-80005594D01*
X151331762Y-79694608D01*
X151275825Y-79395023D01*
X151206981Y-79108320D01*
X151125557Y-78835983D01*
X151099320Y-78759000D01*
X151013164Y-78533275D01*
X150910338Y-78299167D01*
X150791779Y-78058429D01*
X150658428Y-77812815D01*
X150511223Y-77564079D01*
X150351105Y-77313974D01*
X150231459Y-77138480D01*
X150168916Y-77048515D01*
X150116459Y-76971776D01*
X150072101Y-76905146D01*
X150033853Y-76845505D01*
X149999727Y-76789738D01*
X149967735Y-76734725D01*
X149935890Y-76677349D01*
X149927238Y-76661381D01*
X149811070Y-76425040D01*
X149713888Y-76182664D01*
X149635648Y-75935343D01*
X149576306Y-75684165D01*
X149535819Y-75430220D01*
X149514141Y-75174596D01*
X149511229Y-74918383D01*
X149527039Y-74662670D01*
X149561526Y-74408547D01*
X149614648Y-74157101D01*
X149686359Y-73909422D01*
X149776615Y-73666600D01*
X149885373Y-73429723D01*
X150012588Y-73199881D01*
X150071091Y-73106356D01*
X150223452Y-72889559D01*
X150390548Y-72686378D01*
X150571545Y-72497377D01*
X150765607Y-72323117D01*
X150971899Y-72164160D01*
X151189587Y-72021067D01*
X151417834Y-71894401D01*
X151655805Y-71784723D01*
X151902666Y-71692595D01*
X152157581Y-71618578D01*
X152344680Y-71577003D01*
X152427511Y-71561574D01*
X152501909Y-71549460D01*
X152572308Y-71540286D01*
X152643145Y-71533677D01*
X152718856Y-71529258D01*
X152803876Y-71526654D01*
X152902642Y-71525490D01*
X152955969Y-71525333D01*
X153030275Y-71525499D01*
G36*
X154154521Y-71716059D02*
G01*
X154181618Y-71724483D01*
X154221926Y-71739031D01*
X154272748Y-71758682D01*
X154331387Y-71782410D01*
X154395146Y-71809194D01*
X154417229Y-71818693D01*
X154648497Y-71929736D01*
X154870417Y-72058269D01*
X155082026Y-72203271D01*
X155282363Y-72363724D01*
X155470466Y-72538607D01*
X155645373Y-72726902D01*
X155806124Y-72927590D01*
X155951757Y-73139651D01*
X156081309Y-73362066D01*
X156193820Y-73593815D01*
X156269926Y-73782569D01*
X156352619Y-74035983D01*
X156415875Y-74293187D01*
X156459693Y-74553041D01*
X156484073Y-74814401D01*
X156489016Y-75076127D01*
X156474521Y-75337076D01*
X156440587Y-75596107D01*
X156387216Y-75852079D01*
X156314406Y-76103849D01*
X156270203Y-76229160D01*
X156226626Y-76340810D01*
X156181650Y-76445981D01*
X156133637Y-76547630D01*
X156080945Y-76648716D01*
X156021936Y-76752197D01*
X155954969Y-76861030D01*
X155878404Y-76978173D01*
X155790601Y-77106586D01*
X155757629Y-77153720D01*
X155706774Y-77227721D01*
X155648946Y-77314668D01*
X155587168Y-77409812D01*
X155524462Y-77508406D01*
X155463851Y-77605703D01*
X155408358Y-77696956D01*
X155365967Y-77768819D01*
X155283899Y-77910640D01*
X153978204Y-77910640D01*
X153788670Y-77910634D01*
X153618425Y-77910607D01*
X153466441Y-77910543D01*
X153331685Y-77910428D01*
X153213130Y-77910244D01*
X153109743Y-77909978D01*
X153020496Y-77909614D01*
X152944358Y-77909135D01*
X152880298Y-77908528D01*
X152827288Y-77907776D01*
X152784295Y-77906864D01*
X152750292Y-77905777D01*
X152724246Y-77904499D01*
X152705129Y-77903015D01*
X152691910Y-77901310D01*
X152683558Y-77899367D01*
X152679045Y-77897172D01*
X152677339Y-77894710D01*
X152677410Y-77891964D01*
X152677594Y-77891197D01*
X152680315Y-77879871D01*
X152687540Y-77849528D01*
X152699090Y-77800926D01*
X152714785Y-77734820D01*
X152734445Y-77651968D01*
X152757893Y-77553126D01*
X152784947Y-77439051D01*
X152815429Y-77310499D01*
X152849159Y-77168227D01*
X152885959Y-77012992D01*
X152925648Y-76845551D01*
X152968048Y-76666659D01*
X153012978Y-76477074D01*
X153060261Y-76277552D01*
X153109715Y-76068850D01*
X153161163Y-75851724D01*
X153214424Y-75626931D01*
X153269320Y-75395228D01*
X153325670Y-75157371D01*
X153383296Y-74914118D01*
X153411528Y-74794937D01*
X153469667Y-74549538D01*
X153526604Y-74309263D01*
X153582163Y-74074865D01*
X153636163Y-73847094D01*
X153688428Y-73626703D01*
X153738777Y-73414443D01*
X153787034Y-73211065D01*
X153833018Y-73017321D01*
X153876552Y-72833961D01*
X153917457Y-72661738D01*
X153955555Y-72501403D01*
X153990667Y-72353707D01*
X154022615Y-72219402D01*
X154051219Y-72099238D01*
X154076302Y-71993968D01*
X154097685Y-71904343D01*
X154115189Y-71831114D01*
X154128637Y-71775033D01*
X154137848Y-71736851D01*
X154142646Y-71717319D01*
X154143332Y-71714783D01*
X154154521Y-71716059D01*
G37*
X154154521Y-71716059D02*
X154181618Y-71724483D01*
X154221926Y-71739031D01*
X154272748Y-71758682D01*
X154331387Y-71782410D01*
X154395146Y-71809194D01*
X154417229Y-71818693D01*
X154648497Y-71929736D01*
X154870417Y-72058269D01*
X155082026Y-72203271D01*
X155282363Y-72363724D01*
X155470466Y-72538607D01*
X155645373Y-72726902D01*
X155806124Y-72927590D01*
X155951757Y-73139651D01*
X156081309Y-73362066D01*
X156193820Y-73593815D01*
X156269926Y-73782569D01*
X156352619Y-74035983D01*
X156415875Y-74293187D01*
X156459693Y-74553041D01*
X156484073Y-74814401D01*
X156489016Y-75076127D01*
X156474521Y-75337076D01*
X156440587Y-75596107D01*
X156387216Y-75852079D01*
X156314406Y-76103849D01*
X156270203Y-76229160D01*
X156226626Y-76340810D01*
X156181650Y-76445981D01*
X156133637Y-76547630D01*
X156080945Y-76648716D01*
X156021936Y-76752197D01*
X155954969Y-76861030D01*
X155878404Y-76978173D01*
X155790601Y-77106586D01*
X155757629Y-77153720D01*
X155706774Y-77227721D01*
X155648946Y-77314668D01*
X155587168Y-77409812D01*
X155524462Y-77508406D01*
X155463851Y-77605703D01*
X155408358Y-77696956D01*
X155365967Y-77768819D01*
X155283899Y-77910640D01*
X153978204Y-77910640D01*
X153788670Y-77910634D01*
X153618425Y-77910607D01*
X153466441Y-77910543D01*
X153331685Y-77910428D01*
X153213130Y-77910244D01*
X153109743Y-77909978D01*
X153020496Y-77909614D01*
X152944358Y-77909135D01*
X152880298Y-77908528D01*
X152827288Y-77907776D01*
X152784295Y-77906864D01*
X152750292Y-77905777D01*
X152724246Y-77904499D01*
X152705129Y-77903015D01*
X152691910Y-77901310D01*
X152683558Y-77899367D01*
X152679045Y-77897172D01*
X152677339Y-77894710D01*
X152677410Y-77891964D01*
X152677594Y-77891197D01*
X152680315Y-77879871D01*
X152687540Y-77849528D01*
X152699090Y-77800926D01*
X152714785Y-77734820D01*
X152734445Y-77651968D01*
X152757893Y-77553126D01*
X152784947Y-77439051D01*
X152815429Y-77310499D01*
X152849159Y-77168227D01*
X152885959Y-77012992D01*
X152925648Y-76845551D01*
X152968048Y-76666659D01*
X153012978Y-76477074D01*
X153060261Y-76277552D01*
X153109715Y-76068850D01*
X153161163Y-75851724D01*
X153214424Y-75626931D01*
X153269320Y-75395228D01*
X153325670Y-75157371D01*
X153383296Y-74914118D01*
X153411528Y-74794937D01*
X153469667Y-74549538D01*
X153526604Y-74309263D01*
X153582163Y-74074865D01*
X153636163Y-73847094D01*
X153688428Y-73626703D01*
X153738777Y-73414443D01*
X153787034Y-73211065D01*
X153833018Y-73017321D01*
X153876552Y-72833961D01*
X153917457Y-72661738D01*
X153955555Y-72501403D01*
X153990667Y-72353707D01*
X154022615Y-72219402D01*
X154051219Y-72099238D01*
X154076302Y-71993968D01*
X154097685Y-71904343D01*
X154115189Y-71831114D01*
X154128637Y-71775033D01*
X154137848Y-71736851D01*
X154142646Y-71717319D01*
X154143332Y-71714783D01*
X154154521Y-71716059D01*
D14*
X150880000Y-128000000D02*
X151650000Y-128000000D01*
X151650000Y-129370000D02*
X158190000Y-129370000D01*
X158960000Y-128000000D02*
X158190000Y-128000000D01*
X151650000Y-126630000D02*
X151650000Y-129370000D01*
X158190000Y-129370000D02*
X158190000Y-126630000D01*
X158190000Y-126630000D02*
X151650000Y-126630000D01*
X109430000Y-98505000D02*
X109430000Y-105045000D01*
X110800000Y-105815000D02*
X110800000Y-105045000D01*
X109430000Y-105045000D02*
X112170000Y-105045000D01*
X110800000Y-97735000D02*
X110800000Y-98505000D01*
X112170000Y-105045000D02*
X112170000Y-98505000D01*
X112170000Y-98505000D02*
X109430000Y-98505000D01*
X110277500Y-102117258D02*
X110277500Y-101642742D01*
X111322500Y-102117258D02*
X111322500Y-101642742D01*
X154662742Y-131622500D02*
X155137258Y-131622500D01*
X154662742Y-130577500D02*
X155137258Y-130577500D01*
X113990000Y-122045000D02*
X113990000Y-118955000D01*
X108440000Y-120499538D02*
G75*
G03*
X113990000Y-122044830I2990000J-462D01*
G01*
X113990000Y-118955170D02*
G75*
G03*
X108440000Y-120500462I-2560000J-1544830D01*
G01*
X113930000Y-120500000D02*
G75*
G03*
X113930000Y-120500000I-2500000J0D01*
G01*
X136630000Y-105750000D02*
X139370000Y-105750000D01*
X138000000Y-98440000D02*
X138000000Y-99210000D01*
X136630000Y-99210000D02*
X136630000Y-105750000D01*
X139370000Y-99210000D02*
X136630000Y-99210000D01*
X138000000Y-106520000D02*
X138000000Y-105750000D01*
X139370000Y-105750000D02*
X139370000Y-99210000D01*
X151630000Y-132470000D02*
X158170000Y-132470000D01*
X158170000Y-129730000D02*
X151630000Y-129730000D01*
X150860000Y-131100000D02*
X151630000Y-131100000D01*
X151630000Y-129730000D02*
X151630000Y-132470000D01*
X158170000Y-132470000D02*
X158170000Y-129730000D01*
X158940000Y-131100000D02*
X158170000Y-131100000D01*
X154682742Y-128522500D02*
X155157258Y-128522500D01*
X154682742Y-127477500D02*
X155157258Y-127477500D01*
X137477500Y-102242742D02*
X137477500Y-102717258D01*
X138522500Y-102242742D02*
X138522500Y-102717258D01*
X154687742Y-125422500D02*
X155162258Y-125422500D01*
X154687742Y-124377500D02*
X155162258Y-124377500D01*
%LPC*%
D16*
X110250000Y-85250000D03*
D17*
X110250000Y-81750000D03*
D18*
X109400000Y-74000000D03*
X169400000Y-74000000D03*
X109400000Y-129000000D03*
X169400000Y-129000000D03*
D19*
X143200000Y-88100000D03*
D20*
X143200000Y-90640000D03*
X143200000Y-93180000D03*
X143200000Y-95720000D03*
X143200000Y-98260000D03*
X143200000Y-100800000D03*
X143200000Y-103340000D03*
X143200000Y-105880000D03*
X143200000Y-108420000D03*
X143200000Y-110960000D03*
D19*
X117800000Y-88060000D03*
D20*
X117800000Y-90600000D03*
X117800000Y-93140000D03*
X117800000Y-95680000D03*
X117800000Y-98220000D03*
X117800000Y-100760000D03*
X117800000Y-103300000D03*
X117800000Y-105840000D03*
X117800000Y-108380000D03*
X117800000Y-110920000D03*
D21*
X151500000Y-92500000D03*
D22*
X154040000Y-92500000D03*
X151500000Y-95040000D03*
X154040000Y-95040000D03*
X151500000Y-97580000D03*
X154040000Y-97580000D03*
X151500000Y-100120000D03*
X154040000Y-100120000D03*
X151500000Y-102660000D03*
X154040000Y-102660000D03*
X151500000Y-105200000D03*
X154040000Y-105200000D03*
X151500000Y-107740000D03*
X154040000Y-107740000D03*
X151500000Y-110280000D03*
X154040000Y-110280000D03*
X151500000Y-112820000D03*
X154040000Y-112820000D03*
X151500000Y-115360000D03*
X154040000Y-115360000D03*
D23*
X112337500Y-114600000D03*
X110462500Y-114600000D03*
D24*
X167600000Y-93700000D03*
D22*
X165060000Y-93700000D03*
X167600000Y-91160000D03*
X165060000Y-91160000D03*
X167600000Y-88620000D03*
X165060000Y-88620000D03*
X167600000Y-86080000D03*
X165060000Y-86080000D03*
D24*
X167600000Y-115400000D03*
D22*
X165060000Y-115400000D03*
X167600000Y-112860000D03*
X165060000Y-112860000D03*
X167600000Y-110320000D03*
X165060000Y-110320000D03*
X167600000Y-107780000D03*
X165060000Y-107780000D03*
D25*
X160020000Y-124900000D03*
D26*
X149860000Y-124900000D03*
D25*
X160000000Y-128000000D03*
D26*
X149840000Y-128000000D03*
D25*
X110800000Y-106855000D03*
D26*
X110800000Y-96695000D03*
D27*
X110800000Y-102705000D03*
X110800000Y-101055000D03*
D28*
X154075000Y-131100000D03*
X155725000Y-131100000D03*
D29*
X112700000Y-120500000D03*
D30*
X110160000Y-120500000D03*
D25*
X138000000Y-107560000D03*
D26*
X138000000Y-97400000D03*
D25*
X159980000Y-131100000D03*
D26*
X149820000Y-131100000D03*
D28*
X154095000Y-128000000D03*
X155745000Y-128000000D03*
D31*
X138000000Y-101655000D03*
X138000000Y-103305000D03*
D28*
X154100000Y-124900000D03*
X155750000Y-124900000D03*
M02*
