M48
; DRILL file {KiCad 6.0.0} date Sat 05 Feb 2022 12:33:48 AM CET
; FORMAT={-:-/ absolute / inch / decimal}
; #@! TF.CreationDate,2022-02-05T00:33:48+01:00
; #@! TF.GenerationSoftware,Kicad,Pcbnew,6.0.0
; #@! TF.FileFunction,MixedPlating,1,2
FMAT,2
INCH
; #@! TA.AperFunction,Plated,PTH,ViaDrill
T1C0.0157
; #@! TA.AperFunction,Plated,PTH,ComponentDrill
T2C0.0315
; #@! TA.AperFunction,Plated,PTH,ComponentDrill
T3C0.0354
; #@! TA.AperFunction,Plated,PTH,ComponentDrill
T4C0.0394
; #@! TA.AperFunction,Plated,PTH,ComponentDrill
T5C0.0472
; #@! TA.AperFunction,Plated,PTH,ComponentDrill
T6C0.1260
%
G90
G05
T1
X6.0118Y-4.9173
X6.0157Y-5.0394
X6.1654Y-3.4724
X6.1654Y-3.5984
T2
X4.3622Y-3.8069
X4.3622Y-4.2069
X5.8984Y-5.1614
X5.8992Y-5.0394
X5.9Y-4.9173
X6.2984Y-5.1614
X6.2992Y-5.0394
X6.3Y-4.9173
T3
X4.337Y-4.7441
X4.437Y-4.7441
T4
X4.6378Y-3.4669
X4.6378Y-3.5669
X4.6378Y-3.6669
X4.6378Y-3.7669
X4.6378Y-3.8669
X4.6378Y-3.9669
X4.6378Y-4.0669
X4.6378Y-4.1669
X4.6378Y-4.2669
X4.6378Y-4.3669
X5.6378Y-3.4685
X5.6378Y-3.5685
X5.6378Y-3.6685
X5.6378Y-3.7685
X5.6378Y-3.8685
X5.6378Y-3.9685
X5.6378Y-4.0685
X5.6378Y-4.1685
X5.6378Y-4.2685
X5.6378Y-4.3685
X5.9646Y-3.6417
X5.9646Y-3.7417
X5.9646Y-3.8417
X5.9646Y-3.9417
X5.9646Y-4.0417
X5.9646Y-4.1417
X5.9646Y-4.2417
X5.9646Y-4.3417
X5.9646Y-4.4417
X5.9646Y-4.5417
X6.0646Y-3.6417
X6.0646Y-3.7417
X6.0646Y-3.8417
X6.0646Y-3.9417
X6.0646Y-4.0417
X6.0646Y-4.1417
X6.0646Y-4.2417
X6.0646Y-4.3417
X6.0646Y-4.4417
X6.0646Y-4.5417
X6.4984Y-3.389
X6.4984Y-3.489
X6.4984Y-3.589
X6.4984Y-3.689
X6.4984Y-4.2433
X6.4984Y-4.3433
X6.4984Y-4.4433
X6.4984Y-4.5433
X6.5984Y-3.389
X6.5984Y-3.489
X6.5984Y-3.589
X6.5984Y-3.689
X6.5984Y-4.2433
X6.5984Y-4.3433
X6.5984Y-4.4433
X6.5984Y-4.5433
T5
X4.3406Y-3.2185
X4.3406Y-3.3563
T6
X4.3071Y-2.9134
X4.3071Y-5.0787
X6.6693Y-2.9134
X6.6693Y-5.0787
T0
M30
